<svg width="14" height="15" viewBox="0 0 14 15" fill="none" xmlns="http://www.w3.org/2000/svg">
<path d="M2.91669 2.25L1.16669 4M12.8334 4L11.0834 2.25M3.50002 11.5833L2.33335 12.75M10.5 11.5833L11.6667 12.75M7.00002 5.75V8.08333L8.16669 9.25M7.00002 12.75C8.2377 12.75 9.42468 12.2583 10.2999 11.3832C11.175 10.508 11.6667 9.32101 11.6667 8.08333C11.6667 6.84566 11.175 5.65867 10.2999 4.7835C9.42468 3.90833 8.2377 3.41667 7.00002 3.41667C5.76234 3.41667 4.57536 3.90833 3.70019 4.7835C2.82502 5.65867 2.33335 6.84566 2.33335 8.08333C2.33335 9.32101 2.82502 10.508 3.70019 11.3832C4.57536 12.2583 5.76234 12.75 7.00002 12.75Z" stroke="#DD2C2F" stroke-linecap="round" stroke-linejoin="round"/>
</svg>
