<svg width="16" height="16" viewBox="0 0 16 16" fill="none" xmlns="http://www.w3.org/2000/svg">
<path d="M3.3335 2L1.3335 4M14.6668 4L12.6668 2M4.00016 12.6667L2.66683 14M12.0002 12.6667L13.3335 14M8.00016 6V8.66667L9.3335 10M8.00016 14C9.41465 14 10.7712 13.4381 11.7714 12.4379C12.7716 11.4377 13.3335 10.0812 13.3335 8.66667C13.3335 7.25218 12.7716 5.89562 11.7714 4.89543C10.7712 3.89524 9.41465 3.33333 8.00016 3.33333C6.58567 3.33333 5.22912 3.89524 4.22893 4.89543C3.22873 5.89562 2.66683 7.25218 2.66683 8.66667C2.66683 10.0812 3.22873 11.4377 4.22893 12.4379C5.22912 13.4381 6.58567 14 8.00016 14Z" stroke="white" stroke-linecap="round" stroke-linejoin="round"/>
</svg>
