<svg width="14" height="15" viewBox="0 0 14 15" fill="none" xmlns="http://www.w3.org/2000/svg">
<path d="M6.12496 3.49941C6.41136 3.44474 6.70421 3.41667 6.99996 3.41667C8.23764 3.41667 9.42462 3.90833 10.2998 4.7835C11.175 5.65867 11.6666 6.84566 11.6666 8.08333C11.6666 8.37908 11.6386 8.67194 11.5839 8.95833M10.579 11.078C10.4909 11.1834 10.3977 11.2852 10.2998 11.3832C9.42462 12.2583 8.23764 12.75 6.99996 12.75C5.76228 12.75 4.5753 12.2583 3.70013 11.3832C2.82496 10.508 2.33329 9.32101 2.33329 8.08333C2.33329 6.84566 2.82496 5.65867 3.70013 4.7835C3.79715 4.68648 3.89801 4.59416 4.00235 4.50671M2.33329 2.83333L1.16663 4M12.8333 4L11.0833 2.25M3.49996 11.5833L2.33329 12.75M12.25 12.75L1.74996 2.25" stroke="#888888" stroke-linecap="round" stroke-linejoin="round"/>
</svg>
