<svg width="14" height="13" viewBox="0 0 14 13" fill="none" xmlns="http://www.w3.org/2000/svg">
<path d="M2.91663 1.25L1.16663 3M12.8333 3L11.0833 1.25M3.49996 10.5833L2.33329 11.75M10.5 10.5833L11.6666 11.75M6.99996 4.75V7.08333L8.16663 8.25M6.99996 11.75C8.23764 11.75 9.42462 11.2583 10.2998 10.3832C11.175 9.508 11.6666 8.32101 11.6666 7.08333C11.6666 5.84566 11.175 4.65867 10.2998 3.7835C9.42462 2.90833 8.23764 2.41667 6.99996 2.41667C5.76228 2.41667 4.5753 2.90833 3.70013 3.7835C2.82496 4.65867 2.33329 5.84566 2.33329 7.08333C2.33329 8.32101 2.82496 9.508 3.70013 10.3832C4.5753 11.2583 5.76228 11.75 6.99996 11.75Z" stroke="#4263EB" stroke-linecap="round" stroke-linejoin="round"/>
</svg>
