<svg width="20" height="20" viewBox="0 0 20 20" fill="none" xmlns="http://www.w3.org/2000/svg">
<path d="M8.75002 4.28487C9.15916 4.20677 9.57752 4.16667 10 4.16667C11.7681 4.16667 13.4638 4.86905 14.7141 6.11929C15.9643 7.36953 16.6667 9.06522 16.6667 10.8333C16.6667 11.2558 16.6266 11.6742 16.5485 12.0833M15.113 15.1115C14.987 15.262 14.854 15.4075 14.7141 15.5474C13.4638 16.7976 11.7681 17.5 10 17.5C8.23191 17.5 6.53622 16.7976 5.28598 15.5474C4.03573 14.2971 3.33335 12.6014 3.33335 10.8333C3.33335 9.06522 4.03573 7.36953 5.28598 6.11929C5.42458 5.98068 5.56867 5.84881 5.71772 5.72388M3.33335 3.33333L1.66669 5M18.3334 5L15.8334 2.5M5.00002 15.8333L3.33335 17.5M17.5 17.5L2.50002 2.5" stroke="#888888" stroke-width="2" stroke-linecap="round" stroke-linejoin="round"/>
</svg>
