<svg width="20" height="20" viewBox="0 0 20 20" fill="none" xmlns="http://www.w3.org/2000/svg">
<path d="M4.16669 2.5L1.66669 5M18.3334 5L15.8334 2.5M5.00002 15.8333L3.33335 17.5M15 15.8333L16.6667 17.5M10 7.5V10.8333L11.6667 12.5M10 17.5C11.7681 17.5 13.4638 16.7976 14.7141 15.5474C15.9643 14.2971 16.6667 12.6014 16.6667 10.8333C16.6667 9.06522 15.9643 7.36953 14.7141 6.11929C13.4638 4.86905 11.7681 4.16667 10 4.16667C8.23191 4.16667 6.53622 4.86905 5.28598 6.11929C4.03573 7.36953 3.33335 9.06522 3.33335 10.8333C3.33335 12.6014 4.03573 14.2971 5.28598 15.5474C6.53622 16.7976 8.23191 17.5 10 17.5Z" stroke="#DD2C2F" stroke-width="2" stroke-linecap="round" stroke-linejoin="round"/>
</svg>
