<svg width="40" height="40" viewBox="0 0 40 40" fill="none" xmlns="http://www.w3.org/2000/svg">
<path d="M17.3542 31C18.0593 31.6224 18.9856 32 20 32C21.0145 32 21.9407 31.6224 22.6458 31M26 18C26 16.4087 25.3679 14.8826 24.2427 13.7574C23.1174 12.6321 21.5913 12 20 12C18.4087 12 16.8826 12.6321 15.7574 13.7574C14.6322 14.8826 14 16.4087 14 18C14 21.0902 13.2205 23.206 12.3497 24.6054C11.6151 25.7859 11.2479 26.3761 11.2613 26.5408C11.2763 26.7231 11.3149 26.7926 11.4618 26.9016C11.5945 27 12.1926 27 13.3889 27H26.6112C27.8074 27 28.4056 27 28.5382 26.9016C28.6852 26.7926 28.7238 26.7231 28.7387 26.5408C28.7522 26.3761 28.3849 25.7859 27.6504 24.6054C26.7795 23.206 26 21.0902 26 18Z" stroke="#333333" stroke-linecap="round" stroke-linejoin="round"/>
</svg>
