<svg width="40" height="40" viewBox="0 0 40 40" fill="none" xmlns="http://www.w3.org/2000/svg">
<circle cx="20" cy="20" r="20" fill="#E45659"/>
<path d="M12.8442 18.9537C12.3481 18.7608 12.1 18.6643 12.0276 18.5253C11.9648 18.4048 11.9647 18.2613 12.0274 18.1407C12.0996 18.0016 12.3476 17.9049 12.8435 17.7113L26.9166 12.2194C27.3643 12.0447 27.5881 11.9574 27.7311 12.0051C27.8553 12.0466 27.9528 12.1441 27.9943 12.2683C28.0421 12.4113 27.9547 12.6352 27.78 13.0828L22.2881 27.1559C22.0946 27.6518 21.9978 27.8998 21.8587 27.972C21.7381 28.0347 21.5946 28.0346 21.4741 27.9718C21.3351 27.8994 21.2386 27.6513 21.0457 27.1552L18.8556 21.5235C18.8164 21.4228 18.7968 21.3725 18.7666 21.3301C18.7398 21.2925 18.7069 21.2596 18.6693 21.2328C18.6269 21.2026 18.5766 21.183 18.4759 21.1438L12.8442 18.9537Z" stroke="white" stroke-width="1.4" stroke-linecap="round" stroke-linejoin="round"/>
</svg>
