<svg width="20" height="20" viewBox="0 0 20 20" fill="none" xmlns="http://www.w3.org/2000/svg">
<path d="M13.0383 15.0124C13.3957 16.3461 12.6042 17.7169 11.2705 18.0743C9.93687 18.4317 8.56603 17.6402 8.20867 16.3065M1.71407 9.67788C1.38949 8.51273 1.72703 7.25303 2.59069 6.40627M10.122 4.78416C10.3755 4.32808 10.459 3.77683 10.3133 3.233C10.0155 2.12161 8.8731 1.46206 7.76171 1.75986C6.65032 2.05765 5.99078 3.20002 6.28857 4.31141C6.43429 4.85524 6.78223 5.29088 7.22982 5.55911M16.9326 5.60012C16.6311 4.42878 15.7089 3.50662 14.5376 3.20513M14.5756 7.87119C14.2781 6.76108 13.484 5.83278 12.3679 5.2905C11.2519 4.74822 9.90529 4.63639 8.62439 4.97961C7.34349 5.32282 6.23322 6.09297 5.53782 7.12063C4.84242 8.14828 4.61886 9.34927 4.91631 10.4594C5.40845 12.2961 5.31289 13.7614 5.0021 14.8749C4.64787 16.1439 4.47076 16.7784 4.51861 16.9058C4.57335 17.0516 4.61295 17.0916 4.75815 17.1479C4.88506 17.1971 5.4182 17.0542 6.48448 16.7685L16.372 14.1191C17.4383 13.8334 17.9715 13.6906 18.0568 13.5845C18.1544 13.4632 18.1687 13.4088 18.1432 13.2551C18.1209 13.1209 17.6503 12.6599 16.709 11.738C15.8831 10.9291 15.0677 9.7079 14.5756 7.87119Z" stroke="#FA7C21" stroke-width="1.4" stroke-linecap="round" stroke-linejoin="round"/>
</svg>
