<svg width="20" height="20" viewBox="0 0 20 20" fill="none" xmlns="http://www.w3.org/2000/svg">
<path d="M13.3333 3.33329C14.1083 3.33329 14.4958 3.33329 14.8137 3.41848C15.6765 3.64965 16.3503 4.32352 16.5815 5.18625C16.6667 5.50416 16.6667 5.89165 16.6667 6.66663V14.3333C16.6667 15.7334 16.6667 16.4335 16.3942 16.9683C16.1545 17.4387 15.7721 17.8211 15.3017 18.0608C14.7669 18.3333 14.0668 18.3333 12.6667 18.3333H7.33334C5.93321 18.3333 5.23315 18.3333 4.69837 18.0608C4.22796 17.8211 3.84551 17.4387 3.60583 16.9683C3.33334 16.4335 3.33334 15.7334 3.33334 14.3333V6.66663C3.33334 5.89165 3.33334 5.50416 3.41853 5.18625C3.6497 4.32352 4.32357 3.64965 5.1863 3.41848C5.50421 3.33329 5.8917 3.33329 6.66668 3.33329M7.50001 12.5L9.16668 14.1666L12.9167 10.4166M8.00001 4.99996H12C12.4667 4.99996 12.7001 4.99996 12.8783 4.90913C13.0351 4.82924 13.1626 4.70175 13.2425 4.54495C13.3333 4.36669 13.3333 4.13334 13.3333 3.66663V2.99996C13.3333 2.53325 13.3333 2.29989 13.2425 2.12163C13.1626 1.96483 13.0351 1.83735 12.8783 1.75745C12.7001 1.66663 12.4667 1.66663 12 1.66663H8.00001C7.5333 1.66663 7.29994 1.66663 7.12168 1.75745C6.96488 1.83735 6.8374 1.96483 6.7575 2.12163C6.66668 2.29989 6.66668 2.53325 6.66668 2.99996V3.66663C6.66668 4.13334 6.66668 4.36669 6.7575 4.54495C6.8374 4.70175 6.96488 4.82924 7.12168 4.90913C7.29994 4.99996 7.5333 4.99996 8.00001 4.99996Z" stroke="#888888" stroke-linecap="round" stroke-linejoin="round"/>
</svg>
