<svg width="59" height="44" fill="none" xmlns="http://www.w3.org/2000/svg"><path d="M.473 41v-7.072h3.035c1.61 0 2.455.698 2.455 1.775 0 .787-.549 1.381-1.357 1.543v.07c.895.034 1.634.683 1.634 1.688C6.24 40.161 5.304 41 3.76 41H.473zm1.861-1.492h.943c.673 0 .998-.259.998-.739 0-.51-.366-.804-.97-.804h-.97v1.543zm0-2.707h.832c.518 0 .888-.255.888-.708 0-.445-.36-.7-.86-.7h-.86V36.8zM6.768 41v-5.304h1.848V41H6.768zm.004-6.727c0-.47.41-.852.918-.852s.919.383.919.852c0 .47-.411.853-.919.853-.507 0-.918-.383-.918-.852zM9.445 41v-1.026l2.359-2.838v-.028H9.528v-1.412h4.461v1.133l-2.161 2.731v.028h2.244V41H9.445z" fill="#DD2C2F"/><path d="M16.88 33.928h2.314l1.688 4.11h.083l1.685-4.11h2.314V41h-1.82v-4.157h-.055l-1.61 4.105h-1.115l-1.609-4.133H18.7V41h-1.82v-7.072zM25.713 41v-7.072h5.052v1.502h-3.19v1.281h2.931v1.506h-2.931v1.28h3.18V41h-5.042zm5.826-7.072h2.313l1.689 4.11h.083l1.685-4.11h2.313V41h-1.82v-4.157h-.055l-1.609 4.105h-1.115l-1.61-4.133h-.055V41h-1.82v-7.072zM40.372 41v-7.072h3.035c1.61 0 2.455.698 2.455 1.775 0 .787-.549 1.381-1.357 1.543v.07c.895.034 1.633.683 1.633 1.688 0 1.157-.935 1.996-2.479 1.996h-3.287zm1.861-1.492h.943c.673 0 .998-.259.998-.739 0-.51-.366-.804-.97-.804h-.97v1.543zm0-2.707h.832c.518 0 .888-.255.888-.708 0-.445-.36-.7-.86-.7h-.86V36.8zM46.647 41v-7.072h5.051v1.502h-3.19v1.281h2.931v1.506h-2.931v1.28h3.18V41h-5.041zm5.825 0v-7.072h3.018c1.574 0 2.61.898 2.61 2.39 0 .98-.449 1.671-1.208 2.03L58.339 41h-2.027l-1.254-2.358h-.725V41h-1.861zm1.861-3.809h.725c.698 0 1.105-.255 1.105-.873 0-.622-.407-.898-1.105-.898h-.725v1.771z" fill="#333"/><g clip-path="url(#clip0_618_2335)"><path d="M41.457 26.924h-1.37V8.292a.538.538 0 00-.31-.488l-6.335-2.95s-.03-.008-.045-.015c-.022-.008-.04-.015-.063-.019l-.072-.011c-.022 0-.04-.004-.063-.004a.461.461 0 00-.071.008c-.023 0-.041.007-.064.01-.022.008-.045.02-.067.027-.015.007-.034.011-.049.018l-.954.537V2.157a.538.538 0 00-.31-.488l-3.48-1.62c-.023-.012-.046-.015-.068-.023-.007 0-.015-.007-.026-.007A.501.501 0 0027.983 0h-.02a.348.348 0 00-.108.015c-.01 0-.022.004-.033.007-.034.012-.068.023-.101.041-.004 0-.012 0-.015.008l-.011.007-3.462 1.948a.546.546 0 00-.277.47v2.287l-1.332-.622s-.03-.008-.045-.015c-.022-.008-.04-.015-.063-.019l-.071-.011c-.023 0-.042-.004-.064-.004a.461.461 0 00-.071.008c-.023 0-.045.007-.064.01-.022.008-.045.02-.067.027-.015.007-.034.011-.049.019l-2.945 1.653a.546.546 0 00-.277.47v20.625h-1.365c-.3 0-.543.242-.543.54 0 .298.243.54.543.54H41.46c.3 0 .543-.242.543-.54a.542.542 0 00-.543-.54h-.004zm-19.604 0H19.99V6.614l1.863-1.046v21.358-.003zm4.756-18.49a.546.546 0 00-.277.468v18.022h-1.294V2.803l2.395-1.344V7.97l-.824.462zm6.062 18.49h-5.253v-.846l5.253-.223v1.068zm0-2.146l-5.253.22v-.82l5.253-.506v1.106zm0-2.186l-5.253.506v-.812l5.253-.793v1.102-.003zm0-2.19l-5.253.793v-.805l5.253-1.084v1.095zm0-2.195l-5.253 1.084v-.793l5.253-1.371v1.08zm0-2.194l-5.253 1.371v-.778l5.253-1.658v1.065zm0-2.197l-5.253 1.657v-.76l5.253-1.948v1.051zm0-2.194l-5.253 1.948v-.742l5.253-2.234v1.028zm0-2.202l-5.253 2.235v-.715l5.253-2.522v1.006-.004zm0-2.197l-5.253 2.521V9.22l5.253-2.954v.958z" fill="#DD2C2F"/></g><defs><clipPath id="clip0_618_2335"><path fill="#fff" transform="translate(17)" d="M0 0h25v28H0z"/></clipPath></defs></svg>