<svg width="18" height="18" fill="none" xmlns="http://www.w3.org/2000/svg"><circle cx="9" cy="9" r="9" fill="#E45659"/><path d="M14.408 8.963v1.607c0 1.162 0 1.743-.227 2.187-.198.39-.516.707-.906.906-.444.226-1.024.226-2.186.226H7.356c-1.162 0-1.743 0-2.186-.226a2.074 2.074 0 01-.907-.906c-.226-.444-.226-1.025-.226-2.187V7.874c0-1.161 0-1.742.226-2.186.199-.39.516-.707.907-.906.443-.226 1.024-.226 2.186-.226h2.126m3.37 2.592v-3.11m-1.556 1.555h3.112m-3.112 3.63a2.074 2.074 0 11-4.148 0 2.074 2.074 0 014.148 0z" stroke="#fff" stroke-linecap="round" stroke-linejoin="round"/></svg>