<svg width="24" height="24" viewBox="0 0 24 24" fill="none" xmlns="http://www.w3.org/2000/svg">
<path fill-rule="evenodd" clip-rule="evenodd" d="M6.74972 2.49991C6.50632 2.49965 6.29191 2.49941 6.08809 2.55762C5.90925 2.6087 5.74147 2.69259 5.5933 2.80501C5.42444 2.93314 5.29599 3.10481 5.15016 3.2997L3.24001 5.84662L3.21254 5.88323C3.00136 6.16467 2.85511 6.35957 2.74939 6.57819C2.65587 6.77156 2.58766 6.97617 2.54646 7.18698C2.49987 7.42531 2.49992 7.66898 2.50001 8.02083L2.50001 17.8214C2.50001 18.3632 2.5 18.8003 2.52892 19.1543C2.5587 19.5187 2.6216 19.8388 2.7725 20.1349C3.01218 20.6053 3.39463 20.9878 3.86504 21.2275C4.16118 21.3784 4.48128 21.4413 4.8457 21.471C5.19964 21.5 5.63671 21.5 6.1786 21.4999L14 21.4999C14.2762 21.4999 14.5 21.2761 14.5 20.9999C14.5 20.7238 14.2762 20.4999 14 20.4999L6.20001 20.4999C5.63171 20.4999 5.23555 20.4996 4.92713 20.4744C4.62455 20.4496 4.45071 20.4035 4.31903 20.3365C4.03678 20.1926 3.80731 19.9632 3.6635 19.6809C3.59641 19.5493 3.55032 19.3754 3.5256 19.0728C3.5004 18.7644 3.50001 18.3683 3.50001 17.7999L3.50001 8.06661C3.50001 7.65185 3.50216 7.51042 3.52788 7.37883L3.52816 7.37742C3.67729 7.45014 3.83341 7.4732 3.95828 7.48459C4.12696 7.49998 4.33941 7.49996 4.57798 7.49995H19.422C19.6606 7.49996 19.8731 7.49998 20.0417 7.48459C20.1666 7.4732 20.3227 7.45014 20.4719 7.37742L20.4721 7.37884C20.4979 7.51042 20.5 7.65185 20.5 8.06662V15C20.5 15.2761 20.7239 15.5 21 15.5C21.2762 15.5 21.5 15.2761 21.5 15L21.5 8.02084C21.5001 7.66901 21.5002 7.4253 21.4536 7.18698C21.4124 6.97618 21.3442 6.77156 21.2506 6.57819C21.1449 6.35958 20.9987 6.16468 20.7875 5.88325L18.8499 3.29969C18.704 3.10481 18.5756 2.93314 18.4067 2.80501C18.2586 2.69259 18.0908 2.6087 17.9119 2.55762C17.7081 2.49941 17.4937 2.49965 17.2503 2.49991H6.74972ZM10.5 3.49995L6.80001 3.49995C6.4777 3.49995 6.4142 3.50447 6.36271 3.51917C6.30309 3.5362 6.24717 3.56416 6.19778 3.60164C6.15512 3.63401 6.1134 3.6821 5.92001 3.93995L4.36001 6.01995C4.19958 6.23385 4.10041 6.36693 4.03845 6.46741L4.02694 6.48648L4.04911 6.48872C4.16668 6.49945 4.33256 6.49995 4.60001 6.49995L10.5 6.49995V3.49995ZM11.5 6.49995H12.5V3.49995H11.5V6.49995ZM13.5 3.49995V6.49995L19.4 6.49995C19.6675 6.49995 19.8333 6.49945 19.9509 6.48872L19.9731 6.48648L19.9616 6.46741C19.8996 6.36691 19.8005 6.23391 19.64 6.01995L18.08 3.93995C17.8866 3.6821 17.8449 3.63401 17.8023 3.60164C17.7529 3.56416 17.6969 3.5362 17.6373 3.51917C17.5858 3.50447 17.5223 3.49995 17.2 3.49995L13.5 3.49995Z" fill="#E45659"/>
<path d="M17.3536 16.6463C17.1583 16.4511 16.8417 16.4511 16.6465 16.6463C16.4512 16.8416 16.4512 17.1582 16.6465 17.3534L18.7929 19.4999L16.6465 21.6463C16.4512 21.8416 16.4512 22.1582 16.6465 22.3534C16.8417 22.5487 17.1583 22.5487 17.3536 22.3534L19.5 20.207L21.6465 22.3534C21.8417 22.5487 22.1583 22.5487 22.3536 22.3534C22.5488 22.1582 22.5488 21.8416 22.3536 21.6463L20.2071 19.4999L22.3536 17.3534C22.5488 17.1582 22.5488 16.8416 22.3536 16.6463C22.1583 16.4511 21.8417 16.4511 21.6465 16.6463L19.5 18.7928L17.3536 16.6463Z" fill="#E45659"/>
<path d="M3.24001 5.84662L3.24621 5.85126M3.24001 5.84662L3.21254 5.88323C3.00136 6.16467 2.85511 6.35957 2.74939 6.57819C2.65587 6.77156 2.58766 6.97617 2.54646 7.18698C2.49987 7.42531 2.49992 7.66898 2.50001 8.02083L2.50001 17.8214C2.50001 18.3632 2.5 18.8003 2.52892 19.1543C2.5587 19.5187 2.6216 19.8388 2.7725 20.1349C3.01218 20.6053 3.39463 20.9878 3.86504 21.2275C4.16118 21.3784 4.48128 21.4413 4.8457 21.471C5.19964 21.5 5.63671 21.5 6.1786 21.4999L14 21.4999C14.2762 21.4999 14.5 21.2761 14.5 20.9999C14.5 20.7238 14.2762 20.4999 14 20.4999L6.20001 20.4999C5.63171 20.4999 5.23555 20.4996 4.92713 20.4744C4.62455 20.4496 4.45071 20.4035 4.31903 20.3365C4.03678 20.1926 3.80731 19.9632 3.6635 19.6809C3.59641 19.5493 3.55032 19.3754 3.5256 19.0728C3.5004 18.7644 3.50001 18.3683 3.50001 17.7999L3.50001 8.06661C3.50001 7.65185 3.50216 7.51042 3.52788 7.37883L3.52816 7.37742C3.67729 7.45014 3.83341 7.4732 3.95828 7.48459C4.12696 7.49998 4.33941 7.49996 4.57798 7.49995H19.422C19.6606 7.49996 19.8731 7.49998 20.0417 7.48459C20.1666 7.4732 20.3227 7.45014 20.4719 7.37742L20.4721 7.37884C20.4979 7.51042 20.5 7.65185 20.5 8.06662V15C20.5 15.2761 20.7239 15.5 21 15.5C21.2762 15.5 21.5 15.2761 21.5 15L21.5 8.02084C21.5001 7.66901 21.5002 7.4253 21.4536 7.18698C21.4124 6.97618 21.3442 6.77156 21.2506 6.57819C21.1449 6.35958 20.9987 6.16468 20.7875 5.88325L18.8499 3.29969C18.704 3.10481 18.5756 2.93314 18.4067 2.80501C18.2586 2.69259 18.0908 2.6087 17.9119 2.55762C17.7081 2.49941 17.4937 2.49965 17.2503 2.49991H6.74972C6.50632 2.49965 6.29191 2.49941 6.08809 2.55762C5.90925 2.6087 5.74147 2.69259 5.5933 2.80501C5.42444 2.93314 5.29599 3.10481 5.15016 3.2997L3.24001 5.84662ZM10.5 3.49995L6.80001 3.49995C6.4777 3.49995 6.4142 3.50447 6.36271 3.51917C6.30309 3.5362 6.24717 3.56416 6.19778 3.60164C6.15512 3.63401 6.1134 3.6821 5.92001 3.93995L4.36001 6.01995C4.19958 6.23385 4.10041 6.36693 4.03845 6.46741L4.02694 6.48648L4.04911 6.48872C4.16668 6.49945 4.33256 6.49995 4.60001 6.49995L10.5 6.49995V3.49995ZM11.5 6.49995H12.5V3.49995H11.5V6.49995ZM13.5 3.49995V6.49995L19.4 6.49995C19.6675 6.49995 19.8333 6.49945 19.9509 6.48872L19.9731 6.48648L19.9616 6.46741C19.8996 6.36691 19.8005 6.23391 19.64 6.01995L18.08 3.93995C17.8866 3.6821 17.8449 3.63401 17.8023 3.60164C17.7529 3.56416 17.6969 3.5362 17.6373 3.51917C17.5858 3.50447 17.5223 3.49995 17.2 3.49995L13.5 3.49995ZM17.3536 16.6463C17.1583 16.4511 16.8417 16.4511 16.6465 16.6463C16.4512 16.8416 16.4512 17.1582 16.6465 17.3534L18.7929 19.4999L16.6465 21.6463C16.4512 21.8416 16.4512 22.1582 16.6465 22.3534C16.8417 22.5487 17.1583 22.5487 17.3536 22.3534L19.5 20.207L21.6465 22.3534C21.8417 22.5487 22.1583 22.5487 22.3536 22.3534C22.5488 22.1582 22.5488 21.8416 22.3536 21.6463L20.2071 19.4999L22.3536 17.3534C22.5488 17.1582 22.5488 16.8416 22.3536 16.6463C22.1583 16.4511 21.8417 16.4511 21.6465 16.6463L19.5 18.7928L17.3536 16.6463Z" stroke="#E45659" stroke-width="0.2"/>
</svg>
