<svg width="16" height="16" viewBox="0 0 16 16" fill="none" xmlns="http://www.w3.org/2000/svg">
<path d="M10.6668 12.0002L12.6668 14.0002M12.6668 14.0002L14.6668 12.0002M12.6668 14.0002V10.0002M14.6668 6.66683H1.3335M14.6668 8.00016V5.46683C14.6668 4.72009 14.6668 4.34673 14.5215 4.06151C14.3937 3.81063 14.1897 3.60665 13.9388 3.47882C13.6536 3.3335 13.2802 3.3335 12.5335 3.3335H3.46683C2.72009 3.3335 2.34672 3.3335 2.06151 3.47882C1.81063 3.60665 1.60665 3.81063 1.47882 4.06151C1.3335 4.34672 1.3335 4.72009 1.3335 5.46683V10.5335C1.3335 11.2802 1.3335 11.6536 1.47882 11.9388C1.60665 12.1897 1.81063 12.3937 2.06151 12.5215C2.34672 12.6668 2.72009 12.6668 3.46683 12.6668H8.00016" stroke="#E45659" stroke-linecap="round" stroke-linejoin="round"/>
</svg>
