<svg width="24" height="24" viewBox="0 0 24 24" fill="none" xmlns="http://www.w3.org/2000/svg">
<path d="M14.3604 4.85059C14.8829 5.37003 14.6494 5.88725 14.6113 5.96094C17.5653 7.6403 21 11.4951 21 15.1172C20.9998 19.9303 16.9706 22.125 12 22.125C7.02938 22.125 3.00015 19.9303 3 15.1172C3 11.4741 6.36005 7.59615 9.35449 5.9248C9.33592 5.91536 9.32467 5.90912 9.32324 5.9082C9.15655 5.31002 9.51729 4.94805 9.62207 4.8584C9.63949 4.84298 9.65039 4.83496 9.65039 4.83496C9.69156 4.85038 9.73422 4.86448 9.77539 4.87988C9.81349 4.89225 9.85057 4.90463 9.88867 4.91699C10.6443 5.16117 11.3476 5.25122 11.9619 5.25586H12.0586C13.4312 5.24968 14.2979 4.85541 14.3447 4.83496L14.3467 4.83301L14.3604 4.85059ZM15.1152 1.875C15.4437 1.87503 15.7437 1.90631 15.9785 1.98047C15.9652 2.06634 15.7161 3.62615 14.3623 4.84863L14.3477 4.83203C14.2977 4.85391 13.4314 5.24579 12.0615 5.25195H11.9648C11.3505 5.24575 10.6473 5.15768 9.89648 4.91504C9.85378 4.90118 9.81725 4.88927 9.7793 4.87695C9.73802 4.86304 9.6946 4.84749 9.65332 4.83203C9.65171 4.83317 9.64106 4.84125 9.625 4.85547C8.8789 4.21561 8.18826 3.28793 8.02148 1.98047C8.08298 2.00409 9.22275 2.43652 10.8555 2.43652C11.219 2.43652 11.6035 2.41249 12.002 2.3584C12.0975 2.33231 13.7998 1.87527 15.1152 1.875Z" fill="#E8E8E8"/>
<path d="M9.8924 17.2005L9.29127 14.9883H8.39771V14.3119H9.10443L8.50331 12.0997H9.62433L10.1523 14.3119H10.9403L11.5252 12.0997H12.5731L13.158 14.3119H13.9541L14.474 12.0997H15.595L14.9939 14.3119H15.7006V14.9883H14.807L14.2059 17.2005H13.0199L12.4431 14.9883H11.6633L11.0784 17.2005H9.8924ZM10.3148 14.9883L10.5016 15.7844H10.5504L10.7616 14.9883H10.3148ZM11.842 14.3119H12.2644L12.0695 13.5792H12.0288L11.842 14.3119ZM13.3367 14.9883L13.5479 15.7914H13.5966L13.7916 14.9883H13.3367Z" fill="white"/>
</svg>
