<svg width="20" height="20" viewBox="0 0 20 20" fill="none" xmlns="http://www.w3.org/2000/svg">
<path d="M18.3334 6.33333V7.83333C18.3334 8.30004 18.3334 8.5334 18.2426 8.71166C18.1627 8.86846 18.0352 8.99594 17.8784 9.07584C17.7001 9.16667 17.4668 9.16667 17.0001 9.16667H16.6667V15.6667C16.6667 16.6001 16.6667 17.0668 16.4851 17.4233C16.3253 17.7369 16.0703 17.9919 15.7567 18.1517C15.4002 18.3333 14.9335 18.3333 14.0001 18.3333L6.00008 18.3333C5.06666 18.3333 4.59995 18.3333 4.24343 18.1517C3.92983 17.9919 3.67486 17.7369 3.51507 17.4233C3.33341 17.0668 3.33341 16.6001 3.33341 15.6667V9.16667L3.00008 9.16667C2.53337 9.16667 2.30002 9.16667 2.12176 9.07584C1.96495 8.99594 1.83747 8.86846 1.75758 8.71166C1.66675 8.5334 1.66675 8.30004 1.66675 7.83333V6.33333C1.66675 5.86662 1.66675 5.63327 1.75758 5.45501C1.83747 5.29821 1.96495 5.17072 2.12176 5.09083C2.30002 5 2.53337 5 3.00008 5H17.0001C17.4668 5 17.7001 5 17.8784 5.09083C18.0352 5.17072 18.1627 5.29821 18.2426 5.45501C18.3334 5.63327 18.3334 5.86662 18.3334 6.33333Z" fill="#FEE5D3"/>
<path d="M16.6667 9.16667V15.6667C16.6667 16.6001 16.6667 17.0668 16.4851 17.4233C16.3253 17.7369 16.0703 17.9919 15.7567 18.1517C15.4002 18.3333 14.9335 18.3333 14.0001 18.3333L6.00008 18.3333C5.06666 18.3333 4.59995 18.3333 4.24343 18.1517C3.92983 17.9919 3.67486 17.7369 3.51507 17.4233C3.33341 17.0668 3.33341 16.6001 3.33341 15.6667V9.16667M1.66675 6.33333L1.66675 7.83333C1.66675 8.30004 1.66675 8.5334 1.75758 8.71166C1.83747 8.86846 1.96495 8.99594 2.12176 9.07584C2.30002 9.16667 2.53337 9.16667 3.00008 9.16667L17.0001 9.16667C17.4668 9.16667 17.7001 9.16667 17.8784 9.07584C18.0352 8.99594 18.1627 8.86846 18.2426 8.71166C18.3334 8.5334 18.3334 8.30004 18.3334 7.83333V6.33333C18.3334 5.86662 18.3334 5.63327 18.2426 5.45501C18.1627 5.29821 18.0352 5.17072 17.8784 5.09083C17.7001 5 17.4668 5 17.0001 5L3.00008 5C2.53337 5 2.30002 5 2.12176 5.09083C1.96495 5.17072 1.83747 5.29821 1.75758 5.45501C1.66675 5.63327 1.66675 5.86662 1.66675 6.33333Z" stroke="#FDCBA6" stroke-linecap="round" stroke-linejoin="round"/>
<path d="M9.99984 4.99996H7.05341C6.61927 4.99996 6.20292 4.82436 5.89594 4.5118C5.58896 4.19924 5.4165 3.77532 5.4165 3.33329C5.4165 2.89127 5.58896 2.46734 5.89594 2.15478C6.20292 1.84222 6.61927 1.66663 7.05341 1.66663C9.34508 1.66663 9.99984 4.99996 9.99984 4.99996Z" fill="#F1ABAC"/>
<path d="M9.99984 4.99996H12.9463C13.3804 4.99996 13.7968 4.82436 14.1037 4.5118C14.4107 4.19924 14.5832 3.77532 14.5832 3.33329C14.5832 2.89127 14.4107 2.46734 14.1037 2.15478C13.7968 1.84222 13.3804 1.66663 12.9463 1.66663C10.6546 1.66663 9.99984 4.99996 9.99984 4.99996Z" fill="#F1ABAC"/>
<path d="M9.99984 4.99996C9.99984 4.99996 9.99984 13.1263 9.99984 18.3333M9.99984 4.99996H7.05341C6.61927 4.99996 6.20292 4.82436 5.89594 4.5118C5.58896 4.19924 5.4165 3.77532 5.4165 3.33329C5.4165 2.89127 5.58896 2.46734 5.89594 2.15478C6.20292 1.84222 6.61927 1.66663 7.05341 1.66663C9.34508 1.66663 9.99984 4.99996 9.99984 4.99996ZM9.99984 4.99996H12.9463C13.3804 4.99996 13.7968 4.82436 14.1037 4.5118C14.4107 4.19924 14.5832 3.77532 14.5832 3.33329C14.5832 2.89127 14.4107 2.46734 14.1037 2.15478C13.7968 1.84222 13.3804 1.66663 12.9463 1.66663C10.6546 1.66663 9.99984 4.99996 9.99984 4.99996Z" stroke="#EB8082" stroke-linecap="round" stroke-linejoin="round"/>
</svg>
