<svg width="20" height="20" viewBox="0 0 20 20" fill="none" xmlns="http://www.w3.org/2000/svg">
<path fill-rule="evenodd" clip-rule="evenodd" d="M12.5963 1.5625C12.8699 1.56254 13.1197 1.58831 13.3154 1.65009C13.3048 1.71836 13.0984 3.02059 11.9686 4.04075L11.9567 4.02658L11.9537 4.02786C11.8907 4.05568 11.1742 4.37188 10.0516 4.37693H10.0251H9.97086C9.45887 4.37178 8.87279 4.29836 8.24701 4.09613L8.19515 4.07908L8.14911 4.06393C8.11472 4.05234 8.079 4.03946 8.0446 4.02658C8.0446 4.02658 8.03542 4.03296 8.02099 4.04572C8.03367 4.03472 8.04158 4.02922 8.04158 4.02922C8.05878 4.03566 8.07631 4.04178 8.09384 4.0479C8.11137 4.05402 8.12889 4.06014 8.14609 4.06658L8.19305 4.08203L8.24003 4.09749C8.86977 4.301 9.45585 4.37571 9.96784 4.37958H10.0221H10.0485C11.1712 4.37452 11.8877 4.05832 11.9507 4.03051L11.9536 4.02922L11.955 4.02793L11.9669 4.0421C12.4035 4.47614 12.2074 4.90891 12.1764 4.96848C14.6379 6.36816 17.5 9.57932 17.5 12.5974C17.5 16.6085 14.1423 18.4375 10 18.4375C5.85774 18.4375 2.5 16.6085 2.5 12.5974C2.5 9.56164 5.29986 6.3306 7.79514 4.93771C7.77835 4.92918 7.76904 4.92314 7.76904 4.92314C7.63013 4.42466 7.93045 4.12325 8.01776 4.04854L8.02078 4.0459C7.39898 3.51264 6.82348 2.7398 6.68457 1.65009C6.73484 1.66941 7.68475 2.03007 9.0461 2.03007C9.34906 2.03007 9.66922 2.01075 10.0013 1.96567C10.0767 1.94506 11.4983 1.56266 12.5963 1.5625Z" fill="#EB8082"/>
<path d="M8.24387 14.3338L7.74293 12.4903H6.99829V11.9266H7.58723L7.08629 10.0831H8.02048L8.46049 11.9266H9.11713L9.60453 10.0831H10.4778L10.9652 11.9266H11.6286L12.0618 10.0831H12.996L12.4951 11.9266H13.084V12.4903H12.3394L11.8384 14.3338H10.8501L10.3695 12.4903H9.71961L9.23221 14.3338H8.24387ZM8.59588 12.4903L8.75158 13.1537H8.79219L8.9682 12.4903H8.59588ZM9.86853 11.9266H10.2205L10.0581 11.316H10.0242L9.86853 11.9266ZM11.1141 12.4903L11.2901 13.1596H11.3307L11.4932 12.4903H11.1141Z" fill="white"/>
</svg>
