<svg width="25" height="24" viewBox="0 0 25 24" fill="none" xmlns="http://www.w3.org/2000/svg">
<path d="M12.5001 15C9.33002 15 6.51089 16.5306 4.71609 18.906C4.3298 19.4172 4.13665 19.6728 4.14297 20.0183C4.14785 20.2852 4.31546 20.6219 4.52546 20.7867C4.79728 21 5.17396 21 5.92733 21H19.0729C19.8262 21 20.2029 21 20.4747 20.7867C20.6847 20.6219 20.8523 20.2852 20.8572 20.0183C20.8635 19.6728 20.6704 19.4172 20.2841 18.906C18.4893 16.5306 15.6702 15 12.5001 15Z" fill="#E8E8E8"/>
<path d="M12.5001 12C14.9854 12 17.0001 9.98528 17.0001 7.5C17.0001 5.01472 14.9854 3 12.5001 3C10.0148 3 8.0001 5.01472 8.0001 7.5C8.0001 9.98528 10.0148 12 12.5001 12Z" fill="#E8E8E8"/>
<path d="M12.5001 15C9.33002 15 6.51089 16.5306 4.71609 18.906C4.3298 19.4172 4.13665 19.6728 4.14297 20.0183C4.14785 20.2852 4.31546 20.6219 4.52546 20.7867C4.79728 21 5.17396 21 5.92733 21H19.0729C19.8262 21 20.2029 21 20.4747 20.7867C20.6847 20.6219 20.8523 20.2852 20.8572 20.0183C20.8635 19.6728 20.6704 19.4172 20.2841 18.906C18.4893 16.5306 15.6702 15 12.5001 15Z" stroke="#E8E8E8" stroke-linecap="round" stroke-linejoin="round"/>
<path d="M12.5001 12C14.9854 12 17.0001 9.98528 17.0001 7.5C17.0001 5.01472 14.9854 3 12.5001 3C10.0148 3 8.0001 5.01472 8.0001 7.5C8.0001 9.98528 10.0148 12 12.5001 12Z" stroke="#E8E8E8" stroke-linecap="round" stroke-linejoin="round"/>
</svg>
