<svg width="20" height="20" viewBox="0 0 20 20" fill="none" xmlns="http://www.w3.org/2000/svg">
<g clip-path="url(#clip0_5380_2697)">
<g filter="url(#filter0_d_5380_2697)">
<path d="M9.4185 17.6817C9.603 17.7894 9.69524 17.8432 9.82543 17.8711C9.92646 17.8928 10.0739 17.8928 10.1749 17.8711C10.3051 17.8432 10.3973 17.7894 10.5818 17.6817C12.2052 16.7347 16.6668 13.7597 16.6668 9.66933V6.50266C16.6668 5.60775 16.6668 5.16029 16.5289 4.84266C16.3887 4.51983 16.249 4.34809 15.9615 4.14508C15.6786 3.94535 15.124 3.83001 14.0149 3.59934C12.7925 3.34511 11.8537 2.88602 10.9955 2.22209C10.5839 1.90372 10.3781 1.74453 10.2171 1.70111C10.0472 1.65529 9.95313 1.65529 9.78322 1.70111C9.62219 1.74453 9.41641 1.90372 9.00485 2.22209C8.1466 2.88603 7.20783 3.34511 5.98541 3.59934C4.87631 3.83001 4.32176 3.94535 4.03887 4.14508C3.75135 4.34809 3.61165 4.51983 3.47144 4.84266C3.3335 5.16029 3.3335 5.60775 3.3335 6.50266V9.66933C3.3335 13.7597 7.79513 16.7347 9.4185 17.6817Z" fill="url(#paint0_linear_5380_2697)"/>
</g>
<path d="M9.49089 16.2947C9.65232 16.3887 9.73303 16.4357 9.84695 16.4601C9.93535 16.479 10.0643 16.479 10.1527 16.4601C10.2666 16.4357 10.3474 16.3887 10.5088 16.2947C11.9292 15.4676 15.8332 12.8693 15.8332 9.29687V6.53118C15.8332 5.74959 15.8332 5.35879 15.7125 5.08138C15.5898 4.79943 15.4676 4.64943 15.216 4.47213C14.9684 4.29769 14.4832 4.19696 13.5127 3.9955C12.4431 3.77346 11.6217 3.3725 10.8707 2.79264C10.5106 2.51458 10.3306 2.37555 10.1897 2.33763C10.041 2.29761 9.95868 2.29761 9.81001 2.33763C9.66911 2.37555 9.48905 2.51458 9.12894 2.79264C8.37797 3.3725 7.55654 3.77346 6.48693 3.9955C5.51646 4.19696 5.03123 4.29769 4.7837 4.47213C4.53212 4.64943 4.40989 4.79943 4.28721 5.08138C4.1665 5.35879 4.1665 5.74959 4.1665 6.53118V9.29687C4.1665 12.8693 8.07043 15.4676 9.49089 16.2947Z" fill="url(#paint1_linear_5380_2697)"/>
<g filter="url(#filter1_d_5380_2697)">
<path d="M7.72821 12.3077L7.09503 9.97239H6.15381V9.25841H6.89823L6.26504 6.9231H7.44584L8.00202 9.25841H8.832L9.44807 6.9231H10.5519L11.1679 9.25841H12.0065L12.5541 6.9231H13.7349L13.1017 9.25841H13.8461V9.97239H12.9049L12.2717 12.3077H11.0225L10.415 9.97239H9.59353L8.97746 12.3077H7.72821ZM8.17315 9.97239L8.36995 10.8128H8.42129L8.64375 9.97239H8.17315ZM9.78177 9.25841H10.2267L10.0214 8.48493H9.97857L9.78177 9.25841ZM11.3562 9.97239L11.5786 10.8202H11.63L11.8353 9.97239H11.3562Z" fill="url(#paint2_linear_5380_2697)"/>
</g>
</g>
<defs>
<filter id="filter0_d_5380_2697" x="1.0258" y="-0.256329" width="17.9486" height="20.8361" filterUnits="userSpaceOnUse" color-interpolation-filters="sRGB">
<feFlood flood-opacity="0" result="BackgroundImageFix"/>
<feColorMatrix in="SourceAlpha" type="matrix" values="0 0 0 0 0 0 0 0 0 0 0 0 0 0 0 0 0 0 127 0" result="hardAlpha"/>
<feOffset dy="0.384615"/>
<feGaussianBlur stdDeviation="1.15385"/>
<feComposite in2="hardAlpha" operator="out"/>
<feColorMatrix type="matrix" values="0 0 0 0 0.276349 0 0 0 0 0.124802 0 0 0 0 0.00727474 0 0 0 0.1 0"/>
<feBlend mode="normal" in2="BackgroundImageFix" result="effect1_dropShadow_5380_2697"/>
<feBlend mode="normal" in="SourceGraphic" in2="effect1_dropShadow_5380_2697" result="shape"/>
</filter>
<filter id="filter1_d_5380_2697" x="5.38458" y="6.15386" width="9.23084" height="6.92298" filterUnits="userSpaceOnUse" color-interpolation-filters="sRGB">
<feFlood flood-opacity="0" result="BackgroundImageFix"/>
<feColorMatrix in="SourceAlpha" type="matrix" values="0 0 0 0 0 0 0 0 0 0 0 0 0 0 0 0 0 0 127 0" result="hardAlpha"/>
<feOffset/>
<feGaussianBlur stdDeviation="0.384615"/>
<feComposite in2="hardAlpha" operator="out"/>
<feColorMatrix type="matrix" values="0 0 0 0 0 0 0 0 0 0 0 0 0 0 0 0 0 0 0.1 0"/>
<feBlend mode="normal" in2="BackgroundImageFix" result="effect1_dropShadow_5380_2697"/>
<feBlend mode="normal" in="SourceGraphic" in2="effect1_dropShadow_5380_2697" result="shape"/>
</filter>
<linearGradient id="paint0_linear_5380_2697" x1="13.3335" y1="19.1667" x2="9.16683" y2="7.91675" gradientUnits="userSpaceOnUse">
<stop stop-color="#C60D10"/>
<stop offset="1" stop-color="#F8D5D5"/>
</linearGradient>
<linearGradient id="paint1_linear_5380_2697" x1="6.24984" y1="2.72428" x2="12.11" y2="18.1307" gradientUnits="userSpaceOnUse">
<stop stop-color="#F1ABAC"/>
<stop offset="0.998655" stop-color="#DD2C2F"/>
</linearGradient>
<linearGradient id="paint2_linear_5380_2697" x1="9.99996" y1="6.9231" x2="9.99996" y2="12.3077" gradientUnits="userSpaceOnUse">
<stop stop-color="#FFFFF2"/>
<stop offset="1" stop-color="#FFE5E5"/>
</linearGradient>
<clipPath id="clip0_5380_2697">
<rect width="20" height="20" fill="white"/>
</clipPath>
</defs>
</svg>
