<svg width="20" height="20" viewBox="0 0 20 20" fill="none" xmlns="http://www.w3.org/2000/svg">
<path d="M14.4601 13.75H7.3285C6.50337 13.75 6.0908 13.75 5.75954 13.5978C5.46765 13.4637 5.22073 13.2481 5.0485 12.9769C4.85304 12.6692 4.79742 12.2604 4.68618 11.4428L3.80961 4.99996H17.5278C17.8042 4.99996 17.9425 4.99996 18.0397 5.05664C18.125 5.10636 18.1899 5.18477 18.2228 5.27788C18.2603 5.38401 18.2344 5.5198 18.1827 5.79137L17.0796 11.5823C16.9327 12.3538 16.8592 12.7396 16.6603 13.0285C16.485 13.2832 16.2422 13.484 15.9592 13.6086C15.6383 13.75 15.2455 13.75 14.4601 13.75Z" fill="#FCB07A"/>
<path d="M1.66675 1.66663H2.75522C2.96023 1.66663 3.06274 1.66663 3.14523 1.70433C3.21793 1.73755 3.27954 1.79098 3.32271 1.85825C3.37169 1.93458 3.38619 2.03606 3.41518 2.23901L3.80961 4.99996M3.80961 4.99996L4.68618 11.4428C4.79742 12.2604 4.85304 12.6692 5.0485 12.9769C5.22073 13.2481 5.46765 13.4637 5.75954 13.5978C6.0908 13.75 6.50337 13.75 7.3285 13.75H14.4601C15.2455 13.75 15.6383 13.75 15.9592 13.6086C16.2422 13.484 16.485 13.2832 16.6603 13.0285C16.8592 12.7396 16.9327 12.3538 17.0796 11.5823L18.1827 5.79137C18.2344 5.5198 18.2603 5.38401 18.2228 5.27788C18.1899 5.18477 18.125 5.10636 18.0397 5.05664C17.9425 4.99996 17.8042 4.99996 17.5278 4.99996H3.80961Z" stroke="#FCB07A" stroke-linecap="round" stroke-linejoin="round"/>
<path d="M7.49984 18.3333C7.96007 18.3333 8.33317 17.9602 8.33317 17.5C8.33317 17.0397 7.96007 16.6666 7.49984 16.6666C7.0396 16.6666 6.6665 17.0397 6.6665 17.5C6.6665 17.9602 7.0396 18.3333 7.49984 18.3333Z" fill="#FDCBA6"/>
<path d="M14.1665 18.3333C14.6267 18.3333 14.9998 17.9602 14.9998 17.5C14.9998 17.0397 14.6267 16.6666 14.1665 16.6666C13.7063 16.6666 13.3332 17.0397 13.3332 17.5C13.3332 17.9602 13.7063 18.3333 14.1665 18.3333Z" fill="#FDCBA6"/>
<path d="M7.49984 18.3333C7.96007 18.3333 8.33317 17.9602 8.33317 17.5C8.33317 17.0397 7.96007 16.6666 7.49984 16.6666C7.0396 16.6666 6.6665 17.0397 6.6665 17.5C6.6665 17.9602 7.0396 18.3333 7.49984 18.3333Z" stroke="#FDCBA6" stroke-linecap="round" stroke-linejoin="round"/>
<path d="M14.1665 18.3333C14.6267 18.3333 14.9998 17.9602 14.9998 17.5C14.9998 17.0397 14.6267 16.6666 14.1665 16.6666C13.7063 16.6666 13.3332 17.0397 13.3332 17.5C13.3332 17.9602 13.7063 18.3333 14.1665 18.3333Z" stroke="#FDCBA6" stroke-linecap="round" stroke-linejoin="round"/>
</svg>
