<svg width="20" height="20" viewBox="0 0 20 20" fill="none" xmlns="http://www.w3.org/2000/svg">
<path d="M11.2926 4.16663H8.70749C6.52009 4.16663 5.42638 4.16663 4.56791 4.58115C3.81207 4.94612 3.18407 5.53087 2.76617 6.25879C2.29154 7.08554 2.21361 8.17646 2.05777 10.3583L1.85274 13.2287C1.75221 14.6361 2.8669 15.8333 4.27791 15.8333C4.99949 15.8333 5.68379 15.5128 6.14573 14.9585L6.45836 14.5833C6.74433 14.2401 6.88731 14.0686 7.05012 13.9299C7.39143 13.6393 7.80461 13.4457 8.24639 13.3696C8.45713 13.3333 8.68048 13.3333 9.12717 13.3333H10.8729C11.3196 13.3333 11.5429 13.3333 11.7537 13.3696C12.1954 13.4457 12.6086 13.6393 12.9499 13.9299C13.1127 14.0686 13.2557 14.2402 13.5417 14.5833L13.8543 14.9585C14.3163 15.5128 15.0006 15.8333 15.7221 15.8333C17.1332 15.8333 18.2479 14.6361 18.1473 13.2287L17.9423 10.3583C17.7864 8.17646 17.7085 7.08554 17.2339 6.25879C16.816 5.53087 16.188 4.94612 15.4321 4.58115C14.5737 4.16663 13.48 4.16663 11.2926 4.16663Z" fill="#FB964D" stroke="#FB964D" stroke-linecap="round" stroke-linejoin="round"/>
<path d="M5 9.16667H8.33333M6.66667 7.5V10.8333M12.5 10H12.5083M15 8.33333H15.0083" stroke="white" stroke-linecap="round" stroke-linejoin="round"/>
</svg>
