<svg width="20" height="20" viewBox="0 0 20 20" fill="none" xmlns="http://www.w3.org/2000/svg">
<path d="M3.33325 5.66675C3.33325 4.26662 3.33325 3.56655 3.60574 3.03177C3.84542 2.56137 4.22787 2.17892 4.69828 1.93923C5.23306 1.66675 5.93312 1.66675 7.33325 1.66675H11.6666L16.6666 6.66675V14.3334C16.6666 15.7335 16.6666 16.4336 16.3941 16.9684C16.1544 17.4388 15.772 17.8212 15.3016 18.0609C14.7668 18.3334 14.0667 18.3334 12.6666 18.3334H7.33325C5.93312 18.3334 5.23306 18.3334 4.69828 18.0609C4.22787 17.8212 3.84542 17.4388 3.60574 16.9684C3.33325 16.4336 3.33325 15.7335 3.33325 14.3334V5.66675Z" fill="#F5F5F5"/>
<path d="M11.6666 1.89136V5.33348C11.6666 5.80018 11.6666 6.03354 11.7574 6.2118C11.8373 6.3686 11.9648 6.49609 12.1216 6.57598C12.2999 6.66681 12.5332 6.66681 12.9999 6.66681H16.442M11.6666 1.66675H7.33325C5.93312 1.66675 5.23306 1.66675 4.69828 1.93923C4.22787 2.17892 3.84542 2.56137 3.60574 3.03177C3.33325 3.56655 3.33325 4.26662 3.33325 5.66675V14.3334C3.33325 15.7335 3.33325 16.4336 3.60574 16.9684C3.84542 17.4388 4.22787 17.8212 4.69828 18.0609C5.23306 18.3334 5.93312 18.3334 7.33325 18.3334H12.6666C14.0667 18.3334 14.7668 18.3334 15.3016 18.0609C15.772 17.8212 16.1544 17.4388 16.3941 16.9684C16.6666 16.4336 16.6666 15.7335 16.6666 14.3334V6.66675L11.6666 1.66675Z" stroke="#E8E8E8" stroke-linecap="round" stroke-linejoin="round"/>
<path fill-rule="evenodd" clip-rule="evenodd" d="M9.99804 9.85891C9.33159 9.10141 8.22024 8.89765 7.38522 9.59129C6.55021 10.2849 6.43265 11.4447 7.08839 12.265C7.62316 12.934 9.22081 14.3309 9.79209 14.8235C9.86421 14.8857 9.90027 14.9168 9.94188 14.9289C9.97817 14.9395 10.0179 14.9395 10.0542 14.9289C10.0958 14.9168 10.1319 14.8857 10.204 14.8235C10.7753 14.3309 12.3729 12.934 12.9077 12.265C13.5634 11.4447 13.4602 10.2776 12.6109 9.59129C11.7615 8.90495 10.6645 9.10141 9.99804 9.85891Z" fill="#FCB07A"/>
</svg>
