<svg width="25" height="24" viewBox="0 0 25 24" fill="none" xmlns="http://www.w3.org/2000/svg">
<path d="M3.5 7.8C3.5 6.11984 3.5 5.27976 3.82698 4.63803C4.1146 4.07354 4.57354 3.6146 5.13803 3.32698C5.77976 3 6.61984 3 8.3 3H16.7C18.3802 3 19.2202 3 19.862 3.32698C20.4265 3.6146 20.8854 4.07354 21.173 4.63803C21.5 5.27976 21.5 6.11984 21.5 7.8V13.2C21.5 14.8802 21.5 15.7202 21.173 16.362C20.8854 16.9265 20.4265 17.3854 19.862 17.673C19.2202 18 18.3802 18 16.7 18H14.1837C13.5597 18 13.2477 18 12.9492 18.0613C12.6844 18.1156 12.4282 18.2055 12.1875 18.3285C11.9162 18.4671 11.6725 18.662 11.1852 19.0518L8.79976 20.9602C8.38367 21.2931 8.17563 21.4595 8.00054 21.4597C7.84827 21.4599 7.70422 21.3906 7.60923 21.2716C7.5 21.1348 7.5 20.8684 7.5 20.3355V18C6.57003 18 6.10504 18 5.72354 17.8978C4.68827 17.6204 3.87962 16.8117 3.60222 15.7765C3.5 15.395 3.5 14.93 3.5 14V7.8Z" fill="#420D0E" stroke="#420D0E" stroke-linecap="round" stroke-linejoin="round"/>
<path d="M7.5 8.5H12.5M7.5 12H15.5" stroke="white" stroke-linecap="round" stroke-linejoin="round"/>
</svg>
