<svg width="44" height="44" viewBox="0 0 44 44" fill="none" xmlns="http://www.w3.org/2000/svg">
<circle cx="22" cy="22" r="21.5" fill="white" stroke="#80CE43"/>
<path fill-rule="evenodd" clip-rule="evenodd" d="M25.584 17.1893C25.1668 17.1893 24.8288 17.5273 24.8288 17.9446C24.8288 18.3618 25.1668 18.6998 25.584 18.6998C26.0012 18.6998 26.3393 18.3618 26.3393 17.9446C26.3393 17.5273 26.0012 17.1893 25.584 17.1893ZM23.7761 17.9446C23.7761 16.946 24.5854 16.1367 25.584 16.1367C26.5826 16.1367 27.3919 16.946 27.3919 17.9446C27.3919 18.9431 26.5826 19.7524 25.584 19.7524C24.5854 19.7524 23.7761 18.9431 23.7761 17.9446Z" fill="url(#paint0_linear_3297_4819)"/>
<path fill-rule="evenodd" clip-rule="evenodd" d="M15.6842 13.0526C14.2308 13.0526 13.0526 14.2308 13.0526 15.6842V28.3158C13.0526 29.7692 14.2308 30.9474 15.6842 30.9474H28.3158C29.7692 30.9474 30.9474 29.7692 30.9474 28.3158V15.6842C30.9474 14.2308 29.7692 13.0526 28.3158 13.0526H15.6842ZM12 15.6842C12 13.6495 13.6495 12 15.6842 12H28.3158C30.3505 12 32 13.6495 32 15.6842V28.3158C32 30.3505 30.3505 32 28.3158 32H15.6842C13.6495 32 12 30.3505 12 28.3158V15.6842Z" fill="url(#paint1_linear_3297_4819)"/>
<path d="M28.4772 26.8947L25.3983 22.9368C25.2483 22.7447 24.9246 22.7447 24.7746 22.9368L23.5457 24.5158L25.3957 26.8947C25.4878 27.0131 25.5062 27.1736 25.4378 27.3105C25.372 27.4473 25.2325 27.5315 25.0825 27.5315H28.1614C28.3114 27.5315 28.4509 27.4447 28.5167 27.3105C28.5825 27.1763 28.5667 27.0131 28.4746 26.8947H28.4772Z" fill="url(#paint2_linear_3297_4819)"/>
<path fill-rule="evenodd" clip-rule="evenodd" d="M25.0854 22.2663C25.3384 22.2663 25.6216 22.3688 25.8121 22.6128L25.8127 22.6135L28.8916 26.5714C28.9069 26.5911 28.9207 26.6117 28.9329 26.6329C29.1102 26.9046 29.1305 27.2518 28.9883 27.542C28.8338 27.8572 28.5106 28.0577 28.1604 28.0577H25.0815C24.7908 28.0577 24.5552 27.8221 24.5552 27.5314C24.5552 27.3222 24.6772 27.1416 24.854 27.0567L23.1292 24.8387C22.9813 24.6486 22.9814 24.3824 23.1293 24.1924L24.3587 22.6128C24.5492 22.3688 24.8324 22.2663 25.0854 22.2663ZM25.9949 27.0051C25.9722 26.8489 25.9093 26.6991 25.8101 26.5715C25.8101 26.5715 25.8101 26.5715 25.8101 26.5715L24.2115 24.5158L25.0854 23.393L27.8954 27.0051H25.9949Z" fill="url(#paint3_linear_3297_4819)"/>
<path d="M25.0872 27.5313H15.9162C15.7662 27.5313 15.6267 27.4445 15.5609 27.3103C15.4951 27.1761 15.5109 27.0129 15.603 26.8945L20.1872 20.9971C20.3372 20.805 20.6609 20.805 20.8109 20.9971L25.3977 26.8945C25.4898 27.0129 25.5083 27.1734 25.4398 27.3103C25.3741 27.4471 25.2346 27.5313 25.0846 27.5313H25.0872Z" fill="url(#paint4_linear_3297_4819)"/>
<path fill-rule="evenodd" clip-rule="evenodd" d="M20.4993 21.4537L16.1839 27.0052H24.8171L20.4993 21.4537ZM25.0848 28.0578C25.0856 28.0578 25.0865 28.0578 25.0874 28.0578C25.0901 28.0578 25.0927 28.0578 25.0954 28.0578C25.4354 28.0538 25.7571 27.8621 25.9126 27.5421C26.0717 27.2204 26.026 26.845 25.8134 26.5715L21.2265 20.6742L21.2259 20.6734C21.0354 20.4294 20.7522 20.3269 20.4992 20.3269C20.2462 20.3269 19.9631 20.4294 19.7726 20.6734L19.7719 20.6743L15.1877 26.5715C15.1877 26.5716 15.1877 26.5716 15.1876 26.5717C14.9706 26.8508 14.9352 27.2295 15.0885 27.5421C15.243 27.8573 15.5662 28.0578 15.9163 28.0578H25.0848Z" fill="url(#paint5_linear_3297_4819)"/>
<defs>
<linearGradient id="paint0_linear_3297_4819" x1="25.1594" y1="16.1367" x2="26.0087" y2="19.7524" gradientUnits="userSpaceOnUse">
<stop stop-color="#A7E476"/>
<stop offset="1" stop-color="#5DB618"/>
</linearGradient>
<linearGradient id="paint1_linear_3297_4819" x1="14.5" y1="12" x2="22" y2="32" gradientUnits="userSpaceOnUse">
<stop stop-color="#96DC5F"/>
<stop offset="1" stop-color="#6FC42C"/>
</linearGradient>
<linearGradient id="paint2_linear_3297_4819" x1="26.0513" y1="22.7927" x2="26.0513" y2="27.5315" gradientUnits="userSpaceOnUse">
<stop stop-color="#AAE67B"/>
<stop offset="1" stop-color="#60B61B"/>
</linearGradient>
<linearGradient id="paint3_linear_3297_4819" x1="26.0502" y1="22.2663" x2="26.0502" y2="28.0577" gradientUnits="userSpaceOnUse">
<stop stop-color="#AAE67B"/>
<stop offset="1" stop-color="#60B61B"/>
</linearGradient>
<linearGradient id="paint4_linear_3297_4819" x1="19.2297" y1="20.853" x2="21.7722" y2="27.5313" gradientUnits="userSpaceOnUse">
<stop stop-color="#AAE67B"/>
<stop offset="1" stop-color="#60B61B"/>
</linearGradient>
<linearGradient id="paint5_linear_3297_4819" x1="18.5209" y1="20.3269" x2="22.4814" y2="28.0578" gradientUnits="userSpaceOnUse">
<stop stop-color="#AAE67B"/>
<stop offset="1" stop-color="#60B61B"/>
</linearGradient>
</defs>
</svg>
