<svg width="40" height="40" viewBox="0 0 40 40" fill="none" xmlns="http://www.w3.org/2000/svg">
<path d="M24 26L29 21M29 21L24 16M29 21H17M20 26C20 26.93 20 27.395 19.8978 27.7765C19.6204 28.8117 18.8117 29.6204 17.7765 29.8978C17.395 30 16.93 30 16 30H15.5C14.1022 30 13.4033 30 12.8519 29.7716C12.1169 29.4672 11.5328 28.8831 11.2284 28.1481C11 27.5967 11 26.8978 11 25.5V16.5C11 15.1022 11 14.4033 11.2284 13.8519C11.5328 13.1169 12.1169 12.5328 12.852 12.2284C13.4033 12 14.1022 12 15.5 12H16C16.93 12 17.395 12 17.7765 12.1022C18.8117 12.3796 19.6204 13.1883 19.8978 14.2235C20 14.605 20 15.07 20 16" stroke="#333333" stroke-linecap="round" stroke-linejoin="round"/>
</svg>
