<svg width="44" height="44" viewBox="0 0 44 44" fill="none" xmlns="http://www.w3.org/2000/svg">
<circle cx="22" cy="22" r="21.5" fill="white" stroke="#FB964D"/>
<path d="M13.6667 17.8333H26.3333C27.7335 17.8333 28.4335 17.8333 28.9683 18.1058C29.4387 18.3455 29.8212 18.728 30.0608 19.1984C30.3333 19.7331 30.3333 20.4332 30.3333 21.8333V25.5C30.3333 26.9001 30.3333 27.6002 30.0608 28.135C29.8212 28.6054 29.4387 28.9878 28.9683 29.2275C28.4335 29.5 27.7335 29.5 26.3333 29.5H17.6667C16.2665 29.5 15.5665 29.5 15.0317 29.2275C14.5613 28.9878 14.1788 28.6054 13.9391 28.135C13.6667 27.6002 13.6667 26.9001 13.6667 25.5V17.8333Z" fill="url(#paint0_linear_3297_4831)"/>
<path d="M22.8333 17.8333L21.9037 15.9741C21.6362 15.439 21.5024 15.1714 21.3028 14.976C21.1263 14.8031 20.9136 14.6716 20.6801 14.5911C20.416 14.5 20.1168 14.5 19.5186 14.5H16.3333C15.3999 14.5 14.9332 14.5 14.5767 14.6817C14.2631 14.8414 14.0081 15.0964 13.8483 15.41C13.6667 15.7665 13.6667 16.2332 13.6667 17.1667V17.8333M13.6667 17.8333H26.3333C27.7335 17.8333 28.4335 17.8333 28.9683 18.1058C29.4387 18.3455 29.8212 18.728 30.0608 19.1984C30.3333 19.7331 30.3333 20.4332 30.3333 21.8333V25.5C30.3333 26.9001 30.3333 27.6002 30.0608 28.135C29.8212 28.6054 29.4387 28.9878 28.9683 29.2275C28.4335 29.5 27.7335 29.5 26.3333 29.5H17.6667C16.2665 29.5 15.5665 29.5 15.0317 29.2275C14.5613 28.9878 14.1788 28.6054 13.9391 28.135C13.6667 27.6002 13.6667 26.9001 13.6667 25.5V17.8333Z" stroke="#FB964D" stroke-linecap="round" stroke-linejoin="round"/>
<defs>
<linearGradient id="paint0_linear_3297_4831" x1="15.0002" y1="17" x2="23.5002" y2="31" gradientUnits="userSpaceOnUse">
<stop stop-color="#FFCBA6"/>
<stop offset="1" stop-color="#FF9C54"/>
</linearGradient>
</defs>
</svg>
