<svg width="44" height="44" viewBox="0 0 44 44" fill="none" xmlns="http://www.w3.org/2000/svg">
<circle cx="22" cy="22" r="21.5" fill="white" stroke="#E35E60"/>
<g clip-path="url(#clip0_3297_4836)">
<g filter="url(#filter0_d_3297_4836)">
<path d="M21.2438 31.9861C21.4837 32.126 21.6036 32.196 21.7728 32.2323C21.9042 32.2605 22.0958 32.2605 22.2271 32.2323C22.3964 32.196 22.5163 32.126 22.7561 31.9861C24.8665 30.7549 30.6666 26.8875 30.6666 21.57V17.4533C30.6666 16.29 30.6666 15.7083 30.4873 15.2953C30.305 14.8757 30.1234 14.6524 29.7497 14.3885C29.3819 14.1288 28.661 13.9789 27.2192 13.679C25.63 13.3485 24.4096 12.7517 23.2939 11.8886C22.7589 11.4747 22.4914 11.2678 22.282 11.2113C22.0611 11.1518 21.9388 11.1518 21.7179 11.2113C21.5086 11.2678 21.2411 11.4747 20.7061 11.8886C19.5903 12.7517 18.3699 13.3485 16.7808 13.679C15.339 13.9789 14.6181 14.1288 14.2503 14.3885C13.8765 14.6524 13.6949 14.8757 13.5126 15.2953C13.3333 15.7083 13.3333 16.29 13.3333 17.4533V21.57C13.3333 26.8875 19.1334 30.7549 21.2438 31.9861Z" fill="url(#paint0_linear_3297_4836)"/>
</g>
<path d="M21.3384 30.1832C21.5482 30.3054 21.6532 30.3665 21.8013 30.3982C21.9162 30.4228 22.0839 30.4228 22.1988 30.3982C22.3469 30.3665 22.4518 30.3054 22.6617 30.1832C24.5082 29.1079 29.5834 25.7302 29.5834 21.086V17.4906C29.5834 16.4746 29.5834 15.9665 29.4264 15.6059C29.267 15.2394 29.108 15.0444 28.781 14.8139C28.4592 14.5871 27.8284 14.4561 26.5668 14.1942C25.1763 13.9056 24.1085 13.3844 23.1322 12.6305C22.664 12.2691 22.43 12.0883 22.2468 12.039C22.0535 11.987 21.9465 11.987 21.7532 12.039C21.5701 12.0883 21.336 12.2691 20.8678 12.6305C19.8916 13.3844 18.8237 13.9056 17.4332 14.1942C16.1716 14.4561 15.5408 14.5871 15.219 14.8139C14.892 15.0444 14.7331 15.2394 14.5736 15.6059C14.4167 15.9665 14.4167 16.4746 14.4167 17.4906V21.086C14.4167 25.7302 19.4918 29.1079 21.3384 30.1832Z" fill="url(#paint1_linear_3297_4836)"/>
<g filter="url(#filter1_d_3297_4836)">
<path d="M19.0467 25L18.2236 21.9641H17V21.0359H17.9677L17.1446 18H18.6796L19.4027 21.0359H20.4816L21.2825 18H22.7175L23.5184 21.0359H24.6085L25.3204 18H26.8554L26.0323 21.0359H27V21.9641H25.7764L24.9533 25H23.3293L22.5395 21.9641H21.4716L20.6707 25H19.0467ZM19.6251 21.9641L19.881 23.0566H19.9477L20.2369 21.9641H19.6251ZM21.7164 21.0359H22.2948L22.0278 20.0304H21.9722L21.7164 21.0359ZM23.7631 21.9641L24.0523 23.0663H24.119L24.386 21.9641H23.7631Z" fill="url(#paint2_linear_3297_4836)"/>
</g>
</g>
<defs>
<filter id="filter0_d_3297_4836" x="10.3333" y="8.66666" width="23.3333" height="27.0868" filterUnits="userSpaceOnUse" color-interpolation-filters="sRGB">
<feFlood flood-opacity="0" result="BackgroundImageFix"/>
<feColorMatrix in="SourceAlpha" type="matrix" values="0 0 0 0 0 0 0 0 0 0 0 0 0 0 0 0 0 0 127 0" result="hardAlpha"/>
<feOffset dy="0.5"/>
<feGaussianBlur stdDeviation="1.5"/>
<feComposite in2="hardAlpha" operator="out"/>
<feColorMatrix type="matrix" values="0 0 0 0 0.276349 0 0 0 0 0.124802 0 0 0 0 0.00727474 0 0 0 0.1 0"/>
<feBlend mode="normal" in2="BackgroundImageFix" result="effect1_dropShadow_3297_4836"/>
<feBlend mode="normal" in="SourceGraphic" in2="effect1_dropShadow_3297_4836" result="shape"/>
</filter>
<filter id="filter1_d_3297_4836" x="16" y="17" width="12" height="9" filterUnits="userSpaceOnUse" color-interpolation-filters="sRGB">
<feFlood flood-opacity="0" result="BackgroundImageFix"/>
<feColorMatrix in="SourceAlpha" type="matrix" values="0 0 0 0 0 0 0 0 0 0 0 0 0 0 0 0 0 0 127 0" result="hardAlpha"/>
<feOffset/>
<feGaussianBlur stdDeviation="0.5"/>
<feComposite in2="hardAlpha" operator="out"/>
<feColorMatrix type="matrix" values="0 0 0 0 0 0 0 0 0 0 0 0 0 0 0 0 0 0 0.1 0"/>
<feBlend mode="normal" in2="BackgroundImageFix" result="effect1_dropShadow_3297_4836"/>
<feBlend mode="normal" in="SourceGraphic" in2="effect1_dropShadow_3297_4836" result="shape"/>
</filter>
<linearGradient id="paint0_linear_3297_4836" x1="26.3333" y1="33.9167" x2="20.9166" y2="19.2917" gradientUnits="userSpaceOnUse">
<stop stop-color="#C60D10"/>
<stop offset="1" stop-color="#F8D5D5"/>
</linearGradient>
<linearGradient id="paint1_linear_3297_4836" x1="17.125" y1="12.5417" x2="24.7432" y2="32.5701" gradientUnits="userSpaceOnUse">
<stop stop-color="#F1ABAC"/>
<stop offset="0.998655" stop-color="#DD2C2F"/>
</linearGradient>
<linearGradient id="paint2_linear_3297_4836" x1="22" y1="18" x2="22" y2="25" gradientUnits="userSpaceOnUse">
<stop stop-color="#FFFFF2"/>
<stop offset="1" stop-color="#FFE5E5"/>
</linearGradient>
<clipPath id="clip0_3297_4836">
<rect width="26" height="26" fill="white" transform="translate(9 9)"/>
</clipPath>
</defs>
</svg>
