<svg width="20" height="20" viewBox="0 0 20 20" fill="none" xmlns="http://www.w3.org/2000/svg">
<path fill-rule="evenodd" clip-rule="evenodd" d="M5.62163 1.99992L5.66668 1.99997H14.3334L14.3784 1.99992C14.5775 1.99963 14.7679 1.99935 14.9495 2.05123C15.1085 2.09663 15.2576 2.1712 15.3893 2.27113C15.5398 2.38532 15.6538 2.53779 15.773 2.69723L15.8 2.7333L17.1 4.46663L17.1126 4.48341L17.1369 4.51585L17.3667 4.82219L17.3924 4.8564C17.5656 5.08723 17.6922 5.25588 17.7839 5.44555C17.8649 5.61314 17.9241 5.79047 17.9598 5.97317C18.0002 6.17994 18.0001 6.39081 18 6.67942V6.67942V6.67943L18 6.72219V12.5C18 12.7761 17.7762 13 17.5 13C17.2239 13 17 12.7761 17 12.5V6.72219C17 6.47968 16.999 6.35336 16.9918 6.26531C16.8886 6.29977 16.7888 6.31288 16.709 6.32016C16.5646 6.33333 16.3841 6.33331 16.1876 6.3333L16.1667 6.3333H3.83335L3.81239 6.3333C3.6159 6.33331 3.43546 6.33333 3.291 6.32016C3.21123 6.31288 3.11147 6.29977 3.00825 6.26531C3.00105 6.35336 3.00002 6.47968 3.00002 6.72219L3.00002 14.8333C3.00002 15.3083 3.00041 15.6344 3.02106 15.8872C3.04124 16.1342 3.07825 16.2669 3.12718 16.363C3.23903 16.5825 3.41751 16.761 3.63703 16.8728C3.73305 16.9217 3.86574 16.9587 4.11274 16.9789C4.36557 16.9996 4.69172 17 5.16668 17L11.6667 17C11.9428 17 12.1667 17.2238 12.1667 17.5C12.1667 17.7761 11.9428 18 11.6667 18L5.16668 18H5.14573C4.69681 18 4.32968 18 4.03131 17.9756C3.72246 17.9504 3.44353 17.8965 3.18304 17.7638C2.77535 17.5561 2.4439 17.2246 2.23617 16.8169C2.10344 16.5564 2.04962 16.2775 2.02439 15.9687C2.00001 15.6703 2.00001 15.3032 2.00002 14.8542L2.00002 14.8333L2.00002 6.72219L2.00001 6.67941C1.99992 6.39081 1.99985 6.17994 2.04027 5.97317C2.07598 5.79047 2.13509 5.61314 2.21614 5.44555C2.30787 5.25588 2.43444 5.08722 2.60768 4.8564L2.63335 4.82219L2.63843 4.82599L2.63335 4.82219L2.86285 4.51619L2.88744 4.4834L2.90002 4.46663L4.20002 2.7333L4.22701 2.69723C4.34623 2.53779 4.46023 2.38533 4.61072 2.27113C4.74242 2.1712 4.89156 2.09663 5.05053 2.05123C5.23218 1.99935 5.42255 1.99963 5.62163 1.99992ZM5.00002 3.3333L3.70002 5.06663C3.61528 5.17961 3.55227 5.26396 3.50494 5.33084C3.58684 5.3331 3.69213 5.3333 3.83335 5.3333H8.75002V5.24997V3.0833V2.99997H5.66668C5.39326 2.99997 5.3542 3.00448 5.32515 3.01278C5.2854 3.02413 5.24812 3.04277 5.21519 3.06776C5.19112 3.08602 5.16407 3.11456 5.00002 3.3333ZM16.1667 5.3333H11.25V5.24997V3.0833V2.99997H14.3334C14.6068 2.99997 14.6458 3.00448 14.6749 3.01278C14.7146 3.02413 14.7519 3.04277 14.7848 3.06776C14.8089 3.08602 14.836 3.11456 15 3.3333L16.3 5.06663L16.3054 5.07382C16.3874 5.1832 16.4488 5.26538 16.4951 5.33083C16.4132 5.3331 16.3079 5.3333 16.1667 5.3333ZM10.25 3.0833H9.75002V5.24997H10.25V3.0833ZM18.6869 14.5202C18.8822 14.325 18.8822 14.0084 18.6869 13.8131C18.4916 13.6179 18.1751 13.6179 17.9798 13.8131L15 16.7929L13.6869 15.4798C13.4916 15.2845 13.1751 15.2845 12.9798 15.4798C12.7845 15.675 12.7845 15.9916 12.9798 16.1869L14.6465 17.8536C14.7402 17.9473 14.8674 18 15 18C15.1326 18 15.2598 17.9473 15.3536 17.8536L18.6869 14.5202Z" fill="#888888"/>
</svg>
