<svg width="20" height="20" viewBox="0 0 20 20" fill="none" xmlns="http://www.w3.org/2000/svg">
<path d="M4.16663 2.5L1.66663 5M18.3333 5L15.8333 2.5M4.99996 15.8333L3.33329 17.5M15 15.8333L16.6666 17.5M9.99996 7.5V10.8333L11.6666 12.5M9.99996 17.5C11.7681 17.5 13.4638 16.7976 14.714 15.5474C15.9642 14.2971 16.6666 12.6014 16.6666 10.8333C16.6666 9.06522 15.9642 7.36953 14.714 6.11929C13.4638 4.86905 11.7681 4.16667 9.99996 4.16667C8.23185 4.16667 6.53616 4.86905 5.28591 6.11929C4.03567 7.36953 3.33329 9.06522 3.33329 10.8333C3.33329 12.6014 4.03567 14.2971 5.28591 15.5474C6.53616 16.7976 8.23185 17.5 9.99996 17.5Z" stroke="#888888" stroke-width="2" stroke-linecap="round" stroke-linejoin="round"/>
</svg>
