<svg width="25" height="24" viewBox="0 0 25 24" fill="none" xmlns="http://www.w3.org/2000/svg">
<path d="M16.5 4C17.43 4 17.895 4 18.2765 4.10222C19.3117 4.37962 20.1204 5.18827 20.3978 6.22354C20.5 6.60504 20.5 7.07003 20.5 8V17.2C20.5 18.8802 20.5 19.7202 20.173 20.362C19.8854 20.9265 19.4265 21.3854 18.862 21.673C18.2202 22 17.3802 22 15.7 22H9.3C7.61984 22 6.77976 22 6.13803 21.673C5.57354 21.3854 5.1146 20.9265 4.82698 20.362C4.5 19.7202 4.5 18.8802 4.5 17.2V8C4.5 7.07003 4.5 6.60504 4.60222 6.22354C4.87962 5.18827 5.68827 4.37962 6.72354 4.10222C7.10504 4 7.57003 4 8.5 4M9.5 15L11.5 17L16 12.5M10.1 6H14.9C15.4601 6 15.7401 6 15.954 5.89101C16.1422 5.79513 16.2951 5.64215 16.391 5.45399C16.5 5.24008 16.5 4.96005 16.5 4.4V3.6C16.5 3.03995 16.5 2.75992 16.391 2.54601C16.2951 2.35785 16.1422 2.20487 15.954 2.10899C15.7401 2 15.4601 2 14.9 2H10.1C9.53995 2 9.25992 2 9.04601 2.10899C8.85785 2.20487 8.70487 2.35785 8.60899 2.54601C8.5 2.75992 8.5 3.03995 8.5 3.6V4.4C8.5 4.96005 8.5 5.24008 8.60899 5.45399C8.70487 5.64215 8.85785 5.79513 9.04601 5.89101C9.25992 6 9.53995 6 10.1 6Z" stroke="#575757" stroke-linecap="round" stroke-linejoin="round"/>
</svg>
