<svg width="24" height="24" viewBox="0 0 24 24" fill="none" xmlns="http://www.w3.org/2000/svg">
<path fill-rule="evenodd" clip-rule="evenodd" d="M6.80001 2.50007L6.74972 2.50004C6.50632 2.49977 6.29191 2.49953 6.08809 2.55774C5.90925 2.60882 5.74147 2.69271 5.5933 2.80514C5.42444 2.93327 5.29599 3.10494 5.15016 3.29982L5.12001 3.34007L3.56001 5.42007L3.5468 5.43769L3.52086 5.47227L3.24001 5.84674L3.24621 5.85138L3.24001 5.84674L3.21254 5.88336C3.00136 6.16479 2.85511 6.35969 2.74939 6.57831C2.65587 6.77168 2.58766 6.9763 2.54646 7.1871C2.49987 7.42543 2.49992 7.6691 2.50001 8.02096L2.50001 8.06674L2.50001 17.8001L2.50001 17.8215C2.50001 18.3634 2.5 18.8004 2.52892 19.1544C2.5587 19.5188 2.6216 19.8389 2.7725 20.135C3.01218 20.6055 3.39463 20.9879 3.86504 21.2276C4.16118 21.3785 4.48128 21.4414 4.8457 21.4712C5.19964 21.5001 5.63671 21.5001 6.1786 21.5001H6.20001L17.8 21.5001H17.8214C18.3633 21.5001 18.8004 21.5001 19.1543 21.4712C19.5187 21.4414 19.8388 21.3785 20.135 21.2276C20.6054 20.9879 20.9878 20.6055 21.2275 20.135C21.3784 19.8389 21.4413 19.5188 21.4711 19.1544C21.5 18.8004 21.5 18.3634 21.5 17.8215V17.8001V8.06674L21.5 8.02096V8.02091C21.5001 7.66908 21.5002 7.42542 21.4536 7.18711C21.4124 6.9763 21.3442 6.77168 21.2506 6.57831C21.1449 6.3597 20.9987 6.1648 20.7875 5.88338L20.7875 5.88334L20.76 5.84674L20.4789 5.47189L20.4533 5.43775L20.44 5.42007L18.88 3.34007L18.8499 3.29981C18.704 3.10493 18.5756 2.93327 18.4067 2.80514C18.2586 2.69271 18.0908 2.60882 17.9119 2.55774C17.7081 2.49953 17.4937 2.49977 17.2503 2.50004L17.2 2.50007L13.5 2.50007H12.5H11.5H10.5L6.80001 2.50007ZM10.5 3.50007L6.80001 3.50007C6.4777 3.50007 6.4142 3.50459 6.36271 3.5193C6.30309 3.53632 6.24717 3.56428 6.19778 3.60176C6.15512 3.63413 6.1134 3.68222 5.92001 3.94007L4.36001 6.02007L4.35994 6.02017C4.19951 6.23407 4.10041 6.36705 4.03845 6.46753L4.02694 6.48661L4.04911 6.48885C4.16668 6.49957 4.33256 6.50007 4.60001 6.50007L10.5 6.50007V3.50007ZM11.5 6.50007H12.5V3.50007H11.5V6.50007ZM13.5 3.50007V6.50007L19.4 6.50007C19.6675 6.50007 19.8333 6.49957 19.9509 6.48885L19.9731 6.4866L19.9616 6.46753C19.8996 6.36704 19.8005 6.23403 19.64 6.02007L18.08 3.94007C17.8866 3.68222 17.8449 3.63413 17.8023 3.60176C17.7529 3.56428 17.6969 3.53632 17.6373 3.5193C17.5858 3.50459 17.5223 3.50007 17.2 3.50007L13.5 3.50007ZM10.5 7.50007H11.5H12.5H13.5L19.4 7.50007L19.422 7.50007C19.6606 7.50009 19.8731 7.5001 20.0417 7.48471C20.1666 7.47332 20.3227 7.45026 20.4719 7.37754L20.4721 7.37896C20.4979 7.51054 20.5 7.65197 20.5 8.06674V17.8001C20.5 18.3684 20.4996 18.7645 20.4744 19.073C20.4497 19.3755 20.4036 19.5494 20.3365 19.6811C20.1927 19.9633 19.9632 20.1928 19.681 20.3366C19.5493 20.4037 19.3755 20.4498 19.0729 20.4745C18.7645 20.4997 18.3683 20.5001 17.8 20.5001L6.20001 20.5001C5.63171 20.5001 5.23555 20.4997 4.92713 20.4745C4.62455 20.4498 4.45071 20.4037 4.31903 20.3366C4.03678 20.1928 3.80731 19.9633 3.6635 19.6811C3.59641 19.5494 3.55032 19.3755 3.5256 19.073C3.5004 18.7645 3.50001 18.3684 3.50001 17.8001L3.50001 8.06674C3.50001 7.65197 3.50216 7.51054 3.52788 7.37896L3.52816 7.37754C3.67729 7.45026 3.83341 7.47332 3.95828 7.48471C4.12697 7.5001 4.33942 7.50009 4.57799 7.50007H4.578L4.60001 7.50007L10.5 7.50007Z" fill="#CACACA"/>
</svg>
