<svg width="16" height="16" fill="none" xmlns="http://www.w3.org/2000/svg"><g clip-path="url(#clip0_174_943)"><path d="M7.333 2.667h-2.8c-1.12 0-1.68 0-2.107.218a2 2 0 00-.875.874c-.218.427-.218.988-.218 2.108v5.6c0 1.12 0 1.68.218 2.108a2 2 0 00.875.874c.427.218.987.218 2.107.218h5.6c1.12 0 1.68 0 2.109-.218a2 2 0 00.873-.874c.219-.428.219-.988.219-2.108v-2.8m-8 2H6.45c.326 0 .489 0 .642-.037.137-.033.267-.087.386-.16.134-.082.25-.198.48-.428l6.376-6.375a1.414 1.414 0 10-2-2L5.958 8.042c-.23.23-.346.346-.428.48a1.36 1.36 0 00-.16.386c-.037.153-.037.316-.037.642v1.117z" stroke="#333" stroke-linecap="round" stroke-linejoin="round"/></g><defs><clipPath id="clip0_174_943"><path fill="#fff" d="M0 0h16v16H0z"/></clipPath></defs></svg>