<svg width="14" height="15" fill="none" xmlns="http://www.w3.org/2000/svg"><path d="M6.417 2.833h-2.45c-.98 0-1.47 0-1.845.191a1.75 1.75 0 00-.765.765c-.19.374-.19.864-.19 1.844v4.9c0 .98 0 1.47.19 1.845.168.33.436.597.765.765.374.19.864.19 1.845.19h4.9c.98 0 1.47 0 1.844-.19a1.75 1.75 0 00.765-.765c.19-.374.19-.865.19-1.845v-2.45m-7 1.75h.977c.286 0 .428 0 .563-.032.119-.028.232-.076.337-.14.118-.072.218-.173.42-.374l5.578-5.579a1.237 1.237 0 10-1.75-1.75L5.213 7.537c-.202.201-.302.302-.375.42a1.167 1.167 0 00-.14.337c-.032.134-.032.277-.032.563v.976z" stroke="#888" stroke-linecap="round" stroke-linejoin="round"/></svg>