<svg width="79" height="68" fill="none" xmlns="http://www.w3.org/2000/svg"><rect y="30" width="10" height="30" rx="5" fill="#FDCBA6"/><rect x="18" y="20" width="10" height="40" rx="5" fill="#FCB07A"/><rect x="36" y="10" width="10" height="50" rx="5" fill="#FB964D"/><rect x="54" width="10" height="60" rx="5" fill="#FA7C21"/><path d="M65.665 37.415c-1.185-2.05-4.145-2.05-5.33 0l-11.298 19.57c-1.184 2.05.296 4.615 2.665 4.615h22.596c2.369 0 3.85-2.564 2.665-4.615l-11.298-19.57z" fill="#333" stroke="#fff" stroke-width="3.2"/><path d="M62.024 46.102a.246.246 0 01.246-.254h1.46c.14 0 .251.115.247.254l-.23 7.384a.246.246 0 01-.247.239h-1a.246.246 0 01-.246-.239l-.23-7.384z" fill="#fff"/><circle cx="63" cy="55.696" r=".985" fill="#fff"/></svg>