<svg width="16" height="17" viewBox="0 0 16 17" fill="none" xmlns="http://www.w3.org/2000/svg">
<path d="M9.33317 7.8335H5.33317M6.6665 10.5002H5.33317M10.6665 5.16683H5.33317M13.3332 7.50016V5.0335C13.3332 3.91339 13.3332 3.35334 13.1152 2.92552C12.9234 2.54919 12.6175 2.24323 12.2412 2.05148C11.8133 1.8335 11.2533 1.8335 10.1332 1.8335H5.8665C4.7464 1.8335 4.18635 1.8335 3.75852 2.05148C3.3822 2.24323 3.07624 2.54919 2.88449 2.92552C2.6665 3.35334 2.6665 3.91339 2.6665 5.0335V11.9668C2.6665 13.0869 2.6665 13.647 2.88449 14.0748C3.07624 14.4511 3.3822 14.7571 3.75852 14.9488C4.18635 15.1668 4.7464 15.1668 5.8665 15.1668H7.6665M14.6665 15.1668L13.6665 14.1668M14.3332 12.5002C14.3332 13.7888 13.2885 14.8335 11.9998 14.8335C10.7112 14.8335 9.6665 13.7888 9.6665 12.5002C9.6665 11.2115 10.7112 10.1668 11.9998 10.1668C13.2885 10.1668 14.3332 11.2115 14.3332 12.5002Z" stroke="#E45659" stroke-linecap="round" stroke-linejoin="round"/>
</svg>
