<svg width="20" height="20" viewBox="0 0 20 20" fill="none" xmlns="http://www.w3.org/2000/svg">
<path d="M16.6666 10.4167V5.66669C16.6666 4.26656 16.6666 3.56649 16.3941 3.03171C16.1544 2.56131 15.772 2.17885 15.3016 1.93917C14.7668 1.66669 14.0667 1.66669 12.6666 1.66669H7.33325C5.93312 1.66669 5.23306 1.66669 4.69828 1.93917C4.22787 2.17885 3.84542 2.56131 3.60574 3.03171C3.33325 3.56649 3.33325 4.26656 3.33325 5.66669V14.3334C3.33325 15.7335 3.33325 16.4336 3.60574 16.9683C3.84542 17.4387 4.22787 17.8212 4.69828 18.0609C5.23306 18.3334 5.93312 18.3334 7.33325 18.3334H9.99992M11.6666 9.16669H6.66659M8.33325 12.5H6.66659M13.3333 5.83335H6.66659M12.0833 15.8334L13.7499 17.5L17.4999 13.75" stroke="#575757" stroke-width="1.2" stroke-linecap="round" stroke-linejoin="round"/>
</svg>
