<svg width="28" height="28" viewBox="0 0 28 28" fill="none" xmlns="http://www.w3.org/2000/svg">
<path d="M16.3334 2.6478V7.46676C16.3334 8.12015 16.3334 8.44685 16.4606 8.69642C16.5724 8.91594 16.7509 9.09441 16.9704 9.20627C17.22 9.33343 17.5467 9.33343 18.2001 9.33343H23.019M16.3334 19.8333H9.33342M18.6667 15.1667H9.33342M23.3334 11.6529V20.0667C23.3334 22.0269 23.3334 23.007 22.9519 23.7556C22.6164 24.4142 22.081 24.9496 21.4224 25.2852C20.6737 25.6667 19.6936 25.6667 17.7334 25.6667H10.2667C8.30656 25.6667 7.32647 25.6667 6.57778 25.2852C5.91921 24.9496 5.38378 24.4142 5.04823 23.7556C4.66675 23.007 4.66675 22.0269 4.66675 20.0667V7.93334C4.66675 5.97316 4.66675 4.99307 5.04823 4.24438C5.38378 3.58581 5.91921 3.05038 6.57778 2.71482C7.32647 2.33334 8.30656 2.33334 10.2667 2.33334H14.0138C14.8699 2.33334 15.2979 2.33334 15.7007 2.43005C16.0579 2.51579 16.3993 2.6572 16.7124 2.8491C17.0656 3.06555 17.3683 3.36821 17.9736 3.97355L21.6932 7.69314C22.2985 8.29847 22.6012 8.60114 22.8177 8.95435C23.0096 9.2675 23.151 9.60891 23.2367 9.96603C23.3334 10.3688 23.3334 10.7969 23.3334 11.6529Z" stroke="#CACACA" stroke-width="1.4" stroke-linecap="round" stroke-linejoin="round"/>
</svg>
