<svg width="20" height="20" viewBox="0 0 20 20" fill="none" xmlns="http://www.w3.org/2000/svg">
<path d="M11.6666 1.89128V5.3334C11.6666 5.80011 11.6666 6.03346 11.7574 6.21172C11.8373 6.36853 11.9648 6.49601 12.1216 6.5759C12.2999 6.66673 12.5332 6.66673 12.9999 6.66673H16.442M13.3333 10.8333H6.66659M13.3333 14.1667H6.66659M8.33325 7.50001H6.66659M11.6666 1.66667H7.33325C5.93312 1.66667 5.23306 1.66667 4.69828 1.93916C4.22787 2.17884 3.84542 2.56129 3.60574 3.0317C3.33325 3.56647 3.33325 4.26654 3.33325 5.66667V14.3333C3.33325 15.7335 3.33325 16.4335 3.60574 16.9683C3.84542 17.4387 4.22787 17.8212 4.69828 18.0609C5.23306 18.3333 5.93312 18.3333 7.33325 18.3333H12.6666C14.0667 18.3333 14.7668 18.3333 15.3016 18.0609C15.772 17.8212 16.1544 17.4387 16.3941 16.9683C16.6666 16.4335 16.6666 15.7335 16.6666 14.3333V6.66667L11.6666 1.66667Z" stroke="#333333" stroke-linecap="round" stroke-linejoin="round"/>
</svg>
