<svg width="13" height="12" viewBox="0 0 13 12" fill="none" xmlns="http://www.w3.org/2000/svg">
<path d="M1 2H12" stroke="#575757" stroke-linecap="round"/>
<path d="M1 6H12" stroke="#575757" stroke-linecap="round"/>
<path d="M1 10H12" stroke="#575757" stroke-linecap="round"/>
<path d="M4.9001 2C4.9001 2.50851 4.43114 3 3.7501 3C3.06906 3 2.6001 2.50851 2.6001 2C2.6001 1.49149 3.06906 1 3.7501 1C4.43114 1 4.9001 1.49149 4.9001 2Z" fill="#F4F6F7" stroke="#575757"/>
<path d="M10.4001 6C10.4001 6.50851 9.93114 7 9.2501 7C8.56906 7 8.1001 6.50851 8.1001 6C8.1001 5.49149 8.56906 5 9.2501 5C9.93114 5 10.4001 5.49149 10.4001 6Z" fill="#F4F6F7" stroke="#575757"/>
<path d="M4.9001 10C4.9001 10.5085 4.43114 11 3.7501 11C3.06906 11 2.6001 10.5085 2.6001 10C2.6001 9.49149 3.06906 9 3.7501 9C4.43114 9 4.9001 9.49149 4.9001 10Z" fill="#F4F6F7" stroke="#575757"/>
</svg>
