<svg width="13" height="14" viewBox="0 0 13 14" fill="none" xmlns="http://www.w3.org/2000/svg">
<path d="M4.9244 5.37516C5.05175 5.01315 5.30311 4.70789 5.63396 4.51344C5.96481 4.319 6.3538 4.24792 6.73204 4.3128C7.11027 4.37768 7.45334 4.57432 7.70048 4.86791C7.94763 5.16149 8.08289 5.53307 8.08232 5.91683C8.08232 7.00016 6.45732 7.54183 6.45732 7.54183M6.50065 9.7085H6.50607M11.9173 7.00016C11.9173 9.99171 9.49219 12.4168 6.50065 12.4168C3.50911 12.4168 1.08398 9.99171 1.08398 7.00016C1.08398 4.00862 3.50911 1.5835 6.50065 1.5835C9.49219 1.5835 11.9173 4.00862 11.9173 7.00016Z" stroke="#4263EB" stroke-linecap="round" stroke-linejoin="round"/>
</svg>
