<svg width="16" height="16" viewBox="0 0 16 16" fill="none" xmlns="http://www.w3.org/2000/svg">
<path d="M4.25 8H4.25833M8 8H8.00833M11.75 8H11.7583M8 15.5C12.1421 15.5 15.5 12.1421 15.5 8C15.5 3.85786 12.1421 0.5 8 0.5C3.85786 0.5 0.5 3.85786 0.5 8C0.5 8.99762 0.69478 9.94975 1.04839 10.8204C1.11606 10.9871 1.1499 11.0704 1.165 11.1377C1.17976 11.2036 1.18516 11.2524 1.18517 11.3199C1.18518 11.3889 1.17265 11.4641 1.14759 11.6145L0.653439 14.5794C0.601692 14.8898 0.575819 15.0451 0.623967 15.1573C0.666108 15.2556 0.744402 15.3339 0.842654 15.376C0.954911 15.4242 1.11015 15.3983 1.42063 15.3466L4.38554 14.8524C4.53591 14.8273 4.61109 14.8148 4.68011 14.8148C4.74763 14.8148 4.79638 14.8202 4.86227 14.835C4.92962 14.8501 5.01294 14.8839 5.17958 14.9516C6.05025 15.3052 7.00238 15.5 8 15.5ZM4.66667 8C4.66667 8.23012 4.48012 8.41667 4.25 8.41667C4.01988 8.41667 3.83333 8.23012 3.83333 8C3.83333 7.76988 4.01988 7.58333 4.25 7.58333C4.48012 7.58333 4.66667 7.76988 4.66667 8ZM8.41667 8C8.41667 8.23012 8.23012 8.41667 8 8.41667C7.76988 8.41667 7.58333 8.23012 7.58333 8C7.58333 7.76988 7.76988 7.58333 8 7.58333C8.23012 7.58333 8.41667 7.76988 8.41667 8ZM12.1667 8C12.1667 8.23012 11.9801 8.41667 11.75 8.41667C11.5199 8.41667 11.3333 8.23012 11.3333 8C11.3333 7.76988 11.5199 7.58333 11.75 7.58333C11.9801 7.58333 12.1667 7.76988 12.1667 8Z" stroke="#FA7C21" stroke-linecap="round" stroke-linejoin="round"/>
</svg>
