<svg width="56" height="56" fill="none" xmlns="http://www.w3.org/2000/svg"><circle cx="28" cy="28" r="28" fill="#EEE"/><path fill-rule="evenodd" clip-rule="evenodd" d="M28 15.75c-3.126 0-5.66 2.546-5.66 5.688 0 3.14 2.534 5.687 5.66 5.687 3.126 0 5.66-2.546 5.66-5.688 0-3.14-2.534-5.687-5.66-5.687zm-7.402 5.688C20.598 17.33 23.912 14 28 14s7.402 3.33 7.402 7.438c0 4.107-3.314 7.437-7.402 7.437s-7.402-3.33-7.402-7.438zM28 33.25c-4.313 0-8.153 2.091-10.602 5.349-.295.391-.462.616-.565.802-.085.153-.092.22-.091.276a.64.64 0 00.075.242.658.658 0 00.147.207c.025.02.085.063.321.091.259.032.608.033 1.176.033h19.078c.568 0 .917-.002 1.176-.033.235-.028.296-.072.321-.091a.676.676 0 00.148-.206.659.659 0 00.074-.243c.001-.057-.006-.123-.091-.276-.103-.186-.27-.41-.565-.802-2.45-3.258-6.29-5.349-10.602-5.349zm-11.992 4.294C18.768 33.874 23.111 31.5 28 31.5c4.89 0 9.232 2.373 11.992 6.044l.028.038c.256.34.498.66.666.963.193.346.322.718.314 1.164a2.376 2.376 0 01-.257.99 2.365 2.365 0 01-.632.803c-.369.291-.779.404-1.189.453-.375.045-.83.045-1.336.045H18.414c-.507 0-.961 0-1.336-.045-.41-.05-.82-.162-1.19-.453a2.365 2.365 0 01-.63-.803 2.376 2.376 0 01-.258-.99c-.008-.446.12-.818.313-1.164.17-.302.41-.623.667-.963l.028-.038z" fill="#fff"/></svg>