<svg width="64" height="64" fill="none" xmlns="http://www.w3.org/2000/svg"><rect width="64" height="64" rx="16" fill="#E8E8E8"/><path d="M29.333 36l-4.1 4.151c-.572.58-.858.87-1.104.89a.667.667 0 01-.561-.231c-.16-.187-.16-.594-.16-1.408v-2.08c0-.73-.599-1.259-1.321-1.364v0a4 4 0 01-3.378-3.378c-.043-.289-.043-.633-.043-1.32v-6.194c0-2.24 0-3.36.436-4.215a4 4 0 011.748-1.748c.856-.437 1.976-.437 4.216-.437h9.867c2.24 0 3.36 0 4.216.436a4 4 0 011.748 1.748c.436.856.436 1.976.436 4.216v5.6m0 14.667l-2.902-2.017c-.408-.284-.612-.426-.834-.526a2.667 2.667 0 00-.616-.194c-.24-.044-.489-.044-.985-.044H33.6c-1.494 0-2.24 0-2.81-.29a2.667 2.667 0 01-1.166-1.166c-.29-.57-.29-1.317-.29-2.81v-3.353c0-1.493 0-2.24.29-2.81.256-.502.663-.91 1.165-1.166.57-.29 1.317-.29 2.81-.29h7.468c1.493 0 2.24 0 2.81.29.502.256.91.664 1.165 1.166.291.57.291 1.317.291 2.81v3.62c0 1.242 0 1.863-.203 2.353a2.666 2.666 0 01-1.443 1.443c-.49.203-1.111.203-2.354.203v2.781z" stroke="#fff" stroke-width="2" stroke-linecap="round" stroke-linejoin="round"/></svg>