<svg width="54" height="54" fill="none" xmlns="http://www.w3.org/2000/svg"><g clip-path="url(#clip0_2414_7859)"><path d="M27 54c14.912 0 27-12.088 27-27S41.912 0 27 0 0 12.088 0 27s12.088 27 27 27z" fill="#E8E8E8"/><path d="M27 51.187c13.357 0 24.185-10.828 24.185-24.185S40.357 2.816 27 2.816 2.814 13.645 2.814 27.002 13.643 51.187 27 51.187z" fill="#fff"/><path d="M26.982 34.987c.699 0 1.301.253 1.807.759.506.505.759 1.108.759 1.806 0 .699-.253 1.301-.76 1.807-.505.506-1.107.759-1.806.759a2.408 2.408 0 01-1.788-.759 2.496 2.496 0 01-.74-1.807c0-.699.246-1.3.74-1.806a2.407 2.407 0 011.788-.76zm-2.168-17.415v-1.626c0-.554.205-1.035.615-1.445.409-.41.89-.614 1.445-.614.554 0 1.035.205 1.445.614.409.41.614.891.614 1.445v1.987a2.383 2.383 0 00-.036.506c-.049.747-.09 1.488-.127 2.222a147.75 147.75 0 01-.126 2.222l-.325 5.42c-.048.433-.078.866-.09 1.3-.012.434-.03.867-.054 1.3-.049.41-.18.712-.397.904-.217.265-.518.397-.903.397-.338 0-.639-.132-.903-.397-.242-.217-.362-.518-.362-.903a1.737 1.737 0 01-.036-.344v-.343l-.144-2.222a608.06 608.06 0 01-.145-2.258c-.049-.89-.103-1.782-.163-2.674-.06-.89-.114-1.794-.162-2.71a40.14 40.14 0 01-.054-1.246 14.335 14.335 0 00-.09-1.246v-.289h-.002z" fill="#E8E8E8"/></g><defs><clipPath id="clip0_2414_7859"><path fill="#fff" d="M0 0h54v54H0z"/></clipPath></defs></svg>