<svg width="18" height="18" fill="none" xmlns="http://www.w3.org/2000/svg"><path d="M9.75 7.125v-2.55c0-.42 0-.63-.082-.79a.75.75 0 00-.328-.328c-.16-.082-.37-.082-.79-.082h-6.3m10.5 7.5v-2.55c0-.42 0-.63-.082-.79a.75.75 0 00-.327-.328c-.16-.082-.371-.082-.791-.082h-9.3m0-5.625v15m0-1.875h12.3c.42 0 .63 0 .79-.082a.751.751 0 00.328-.327c.082-.16.082-.371.082-.791v-1.35c0-.42 0-.63-.082-.79a.751.751 0 00-.327-.328c-.16-.082-.371-.082-.791-.082H2.25v3.75z" stroke="#575757" stroke-linecap="round" stroke-linejoin="round"/></svg>