<svg width="14" height="14" fill="none" xmlns="http://www.w3.org/2000/svg"><path d="M4.886 9.11l-3.3 3.3m5.236-8.535l-.91.91a1.226 1.226 0 01-.155.141.582.582 0 01-.12.065c-.048.019-.1.03-.203.05l-2.137.427c-.556.111-.834.167-.964.313a.583.583 0 00-.141.468c.027.193.227.394.628.794l4.133 4.134c.4.4.601.6.795.628a.583.583 0 00.467-.142c.147-.13.202-.408.313-.963l.428-2.138c.02-.103.03-.154.05-.202a.583.583 0 01.064-.121c.03-.042.067-.08.141-.154l.91-.91c.048-.048.072-.072.098-.092a.578.578 0 01.073-.05c.03-.017.06-.03.122-.056l1.455-.624c.424-.182.637-.273.733-.42a.584.584 0 00.084-.435c-.035-.173-.198-.336-.525-.663l-3-3c-.327-.326-.49-.49-.662-.525a.583.583 0 00-.436.084c-.147.097-.238.31-.42.734L7.02 3.583c-.027.061-.04.092-.057.121a.583.583 0 01-.05.074c-.02.026-.044.05-.091.097z" stroke="#575757" stroke-linecap="round" stroke-linejoin="round"/></svg>