<svg width="20" height="20" viewBox="0 0 20 20" fill="none" xmlns="http://www.w3.org/2000/svg">
<g clip-path="url(#clip0_3070_15918)">
<path d="M3.33203 3.3335H4.20281C4.36682 3.3335 4.44883 3.3335 4.51482 3.36366C4.57298 3.39023 4.62226 3.43298 4.6568 3.48679C4.69599 3.54786 4.70759 3.62904 4.73078 3.7914L5.04632 6.00016M5.04632 6.00016L5.74758 11.1544C5.83657 11.8085 5.88106 12.1356 6.03743 12.3817C6.17522 12.5986 6.37275 12.7711 6.60627 12.8784C6.87127 13.0002 7.20133 13.0002 7.86144 13.0002H13.5667C14.1951 13.0002 14.5092 13.0002 14.766 12.8871C14.9924 12.7874 15.1866 12.6267 15.3269 12.423C15.486 12.1919 15.5448 11.8833 15.6623 11.266L16.5448 6.63329C16.5862 6.41603 16.6068 6.30741 16.5769 6.2225C16.5506 6.14801 16.4986 6.08529 16.4304 6.04551C16.3526 6.00016 16.242 6.00016 16.0209 6.00016H5.04632ZM8.66536 16.0002C8.66536 16.3684 8.36689 16.6668 7.9987 16.6668C7.63051 16.6668 7.33203 16.3684 7.33203 16.0002C7.33203 15.632 7.63051 15.3335 7.9987 15.3335C8.36689 15.3335 8.66536 15.632 8.66536 16.0002ZM13.9987 16.0002C13.9987 16.3684 13.7002 16.6668 13.332 16.6668C12.9638 16.6668 12.6654 16.3684 12.6654 16.0002C12.6654 15.632 12.9638 15.3335 13.332 15.3335C13.7002 15.3335 13.9987 15.632 13.9987 16.0002Z" stroke="#575757" stroke-linecap="round" stroke-linejoin="round"/>
</g>
<defs>
<clipPath id="clip0_3070_15918">
<rect width="16" height="16" fill="white" transform="translate(2 2)"/>
</clipPath>
</defs>
</svg>
