<svg width="32" height="64" fill="none" xmlns="http://www.w3.org/2000/svg"><path d="M16.692 35.548l3.48 7.148.02.041c.088.181.172.356.302.498.114.124.25.225.403.297.175.082.367.11.563.139l.046.007 7.784 1.153c.42.062.7.104.9.153.18.044.225.078.228.08a.314.314 0 01.08.252c-.001.002-.016.058-.141.206-.135.16-.338.36-.641.66l-5.63 5.561-.034.032c-.142.14-.28.277-.374.446a1.32 1.32 0 00-.152.477c-.023.191.01.383.043.582l.008.045 1.329 7.854c.071.424.119.708.135.918.016.197-.005.25-.005.252a.297.297 0 01-.203.151c-.004 0-.061 0-.229-.07-.19-.081-.442-.215-.817-.415l-6.96-3.71-.04-.022c-.175-.094-.347-.186-.536-.224a1.285 1.285 0 00-.502 0c-.189.038-.36.13-.536.224l-.04.022-6.96 3.71c-.375.2-.626.334-.817.414-.168.07-.225.07-.23.071a.297.297 0 01-.202-.151c0-.002-.02-.055-.005-.252.016-.21.064-.494.135-.918l1.329-7.854.008-.045c.034-.2.066-.39.043-.582a1.314 1.314 0 00-.152-.477c-.093-.169-.232-.305-.374-.446l-.033-.032-5.63-5.56a11.99 11.99 0 01-.642-.66c-.125-.15-.14-.205-.14-.207a.314.314 0 01.079-.251c.003-.002.048-.037.228-.08.2-.05.48-.092.9-.154l7.784-1.154.046-.006c.196-.029.388-.057.563-.14a1.29 1.29 0 00.403-.296c.13-.142.214-.317.302-.498l.02-.041 3.48-7.148a11.8 11.8 0 01.422-.823c.098-.162.145-.195.147-.197a.286.286 0 01.246 0c.002.002.05.035.147.197.108.18.234.437.422.823z" stroke="#CACACA" stroke-linecap="round" stroke-linejoin="round"/><path d="M20.802 10.66l-3.28-6.646-.01-.021a11.206 11.206 0 00-.43-.82c-.126-.207-.291-.43-.546-.551a1.25 1.25 0 00-1.076 0c-.255.121-.42.344-.546.55-.128.21-.266.489-.43.82l-.01.022-3.28 6.645c-.116.234-.133.257-.146.272a.25.25 0 01-.078.056c-.017.008-.044.017-.303.055L3.33 12.114l-.024.004c-.366.053-.674.098-.912.156-.235.056-.498.145-.692.35a1.25 1.25 0 00-.332 1.023c.037.28.198.505.355.689.16.186.383.403.648.662l.017.016 5.307 5.17c.187.182.204.205.214.222a.25.25 0 01.03.091c.002.02.002.048-.042.306l-1.253 7.301-.004.024c-.062.365-.115.672-.134.916-.02.241-.017.519.118.767.18.331.5.564.87.632.278.052.543-.032.766-.124.226-.094.502-.24.83-.412l.021-.01 6.56-3.45c.23-.122.258-.13.277-.134a.251.251 0 01.096 0c.02.003.047.012.278.134l6.559 3.45.021.01c.328.173.604.318.83.412.223.092.488.176.766.124.37-.068.69-.3.87-.632.135-.248.138-.526.118-.767-.019-.244-.072-.551-.134-.916l-.004-.024-1.252-7.3c-.045-.259-.044-.287-.042-.306a.25.25 0 01.03-.092c.009-.017.026-.04.213-.223l5.307-5.169.017-.016c.265-.259.489-.476.648-.662.157-.184.318-.41.355-.69a1.25 1.25 0 00-.332-1.023c-.194-.204-.457-.293-.692-.35a11.205 11.205 0 00-.912-.155l-.024-.004-7.337-1.072c-.258-.038-.286-.047-.303-.055a.248.248 0 01-.078-.056c-.013-.015-.03-.038-.146-.272z" fill="#F6CA2D" stroke="#F6CA2D" stroke-linecap="round" stroke-linejoin="round"/></svg>