<svg width="16" height="12" fill="none" xmlns="http://www.w3.org/2000/svg"><path d="M1.613 6.476c-.09-.144-.136-.216-.161-.326a.782.782 0 010-.298c.025-.111.07-.183.161-.327C2.363 4.337 4.597 1.334 8 1.334c3.404 0 5.637 3.003 6.387 4.191.09.144.136.216.162.327a.786.786 0 010 .298c-.026.11-.071.182-.162.326-.75 1.188-2.983 4.191-6.387 4.191-3.403 0-5.636-3.003-6.387-4.19z" stroke="#888" stroke-linecap="round" stroke-linejoin="round"/><path d="M8 8a2 2 0 100-4 2 2 0 000 4z" stroke="#888" stroke-linecap="round" stroke-linejoin="round"/></svg>