<svg width="36" height="36" fill="none" xmlns="http://www.w3.org/2000/svg"><circle cx="18" cy="18" r="17.5" fill="#fff" stroke="#EEE"/><path d="M16.082 27.47V16.103c0-.242.202-.484.455-.539l10.826-2.459a.4.4 0 01.288.039l-.293-.499c-.015.048-.075.088-.176.11L16.289 15.28c-.246.053-.593-.024-.776-.172l-2.563-1.78 11.252-2.473-2.192-1.166-10.929 2.34-2.292-1.595c-.07-.056-.106-.114-.111-.166l-.334.502a.183.183 0 01.09-.026c.06 0 .128.022.206.072l2.063 1.455v1.779s-.04.253.282.487l1.31.953s.308.252.308-.249v-1.633l2.639 1.863c.2.152.454.344.454.676v11.23c0 .189-.072.314-.181.357l.753.043a.333.333 0 01-.181-.308l-.005.002z" fill="#fff"/><path d="M15.24 15.469l-2.64-1.862v1.633c0 .5-.307.248-.307.248l-1.31-.953c-.322-.234-.282-.487-.282-.487v-1.779l-2.063-1.455a.391.391 0 00-.207-.072.194.194 0 00-.09.026c-.103.053-.157.194-.157.383v10.92c0 .356.18.56.454.765l6.517 4.813c.136.1.26.123.357.085.11-.045.182-.169.182-.358v-11.23c0-.334-.255-.526-.454-.677zm-4.163-3.443l10.929-2.34-2.465-1.313c-.23-.127-.42-.191-.605-.191a.706.706 0 00-.173.019l-9.87 1.872c-.15.032-.227.105-.22.192.004.053.04.11.11.167l2.292 1.594h.002zm4.434 3.081c.185.148.532.226.777.172l10.892-2.523c.102-.023.162-.063.177-.11.02-.064-.039-.142-.205-.218l-2.955-1.575-11.252 2.474 2.563 1.78h.003zm12.14-1.962a.4.4 0 00-.287-.038l-10.826 2.458c-.251.055-.456.297-.456.54V27.47c0 .143.072.253.181.308.077.038.17.051.273.029l.025-.007c.326-.866.936-2.093 2.328-3.512.065-.056 1.282-1.123 1.537-1.89-.004 0-.062.02-.168.036a2.027 2.027 0 01-1.77-.59c-.008-.008-.166-.164.084-.203a.943.943 0 01.163-.008c.006 0 .124.01.347-.025.324-.05.858-.193 1.52-.587-1.312-1.213-.128-2.295-.073-2.366.46-.499.55-.589.55-.589.271-.29.393-.413.46-.425.119-.017.044.225.02.284a13.935 13.935 0 00-.415 1.096c-.105.46.107.604.118.614.177.165.428.178.647.144a1.7 1.7 0 00.314-.08c.004-.003.403-.471 1.053-.877a4.55 4.55 0 00.072-.898c0-.012.008-.219-.062-.615 0-.006-.027-.125.053-.136.03-.005.077.006.145.048.025.018.495.353.61 1.211.055-.02.107-.043.163-.06.072-.047 1.633-1.125 1.766-1.085.029.01.311.232.408.523.02.058.414 1.078-.534 2.18-.143.161-1.818 2.274-1.365 5.836l2.833-.7c.251-.057.454-.298.454-.54V13.443a.33.33 0 00-.166-.298h-.002z" fill="#E60028"/><path d="M25.895 19.993c.947-1.1.553-2.12.533-2.18a1.17 1.17 0 00-.407-.522c-.131-.042-1.693 1.036-1.766 1.085-.057.017-.108.039-.163.06-.115-.858-.585-1.193-.61-1.211-.069-.042-.115-.053-.145-.048-.08.013-.053.13-.053.136.07.396.061.603.061.614a4.37 4.37 0 01-.071.899c-.65.405-1.05.874-1.053.877a1.765 1.765 0 01-.314.08c-.22.034-.47.021-.647-.144-.012-.01-.223-.153-.118-.614.011-.052.193-.572.414-1.096.023-.06.098-.301-.02-.284-.067.01-.186.133-.46.425 0 0-.087.09-.55.589-.054.069-1.238 1.153.074 2.366-.664.394-1.196.535-1.52.587-.223.033-.341.025-.348.025a.805.805 0 00-.163.008c-.248.039-.091.194-.083.202a2.032 2.032 0 001.937.555c-.252.767-1.471 1.834-1.536 1.89-1.392 1.42-2.003 2.646-2.328 3.512l7.969-1.97c-.454-3.563 1.22-5.675 1.365-5.837l.002-.004z" fill="#fff"/><path d="M22.634 20.19a.424.424 0 01-.197.01c.005-.022.104-.442.523-.562a.78.78 0 01.21-.029c-.01.024-.195.486-.535.582h-.001z" fill="#E60028"/></svg>