<svg width="20" height="20" viewBox="0 0 20 20" fill="none" xmlns="http://www.w3.org/2000/svg">
<path fill-rule="evenodd" clip-rule="evenodd" d="M13.3328 11.8872C12.7996 11.2812 11.9106 11.1182 11.2426 11.6731C10.5745 12.228 10.4805 13.1558 11.0051 13.8121C11.5297 14.4684 13.3328 16.0002 13.3328 16.0002C13.3328 16.0002 15.1359 14.4684 15.6605 13.8121C16.1851 13.1558 16.1026 12.2222 15.4231 11.6731C14.7436 11.1241 13.866 11.2812 13.3328 11.8872Z" stroke="#575757" stroke-linecap="round" stroke-linejoin="round"/>
<path d="M15.3346 8.66683V6.5335C15.3346 5.41339 15.3346 4.85334 15.1166 4.42552C14.9249 4.04919 14.6189 3.74323 14.2426 3.55148C13.8148 3.3335 13.2547 3.3335 12.1346 3.3335H7.86797C6.74786 3.3335 6.18781 3.3335 5.75999 3.55148C5.38366 3.74323 5.0777 4.04919 4.88596 4.42552C4.66797 4.85334 4.66797 5.41339 4.66797 6.5335V13.4668C4.66797 14.5869 4.66797 15.147 4.88596 15.5748C5.0777 15.9511 5.38366 16.2571 5.75999 16.4488C6.18781 16.6668 6.74786 16.6668 7.86797 16.6668H10.0013M10.3346 9.3335H7.33464M8.0013 12.0002H7.33464M12.668 6.66683H7.33464" stroke="#575757" stroke-linecap="round" stroke-linejoin="round"/>
</svg>
