<svg width="15" height="15" viewBox="0 0 15 15" fill="none" xmlns="http://www.w3.org/2000/svg">
<path d="M13.75 5.00001V7.50001M6.40625 3.43751H4.25C3.1999 3.43751 2.67485 3.43751 2.27377 3.64187C1.92096 3.82163 1.63412 4.10847 1.45436 4.46127C1.25 4.86236 1.25 5.38741 1.25 6.43751L1.25 7.18751C1.25 7.76993 1.25 8.06115 1.34515 8.29086C1.47202 8.59715 1.71536 8.84049 2.02165 8.96735C2.25136 9.06251 2.54257 9.06251 3.125 9.06251V11.7188C3.125 11.8639 3.125 11.9364 3.13102 11.9975C3.18947 12.591 3.65901 13.0605 4.25248 13.119C4.31359 13.125 4.38615 13.125 4.53125 13.125C4.67636 13.125 4.74891 13.125 4.81002 13.119C5.40349 13.0605 5.87303 12.591 5.93148 11.9975C5.9375 11.9364 5.9375 11.8639 5.9375 11.7188V9.06251H6.40625C7.51027 9.06251 8.86078 9.65431 9.90269 10.2223C10.5105 10.5536 10.8144 10.7193 11.0135 10.6949C11.1981 10.6723 11.3376 10.5894 11.4458 10.4382C11.5625 10.2751 11.5625 9.94876 11.5625 9.29608V3.20393C11.5625 2.55125 11.5625 2.22491 11.4458 2.06181C11.3376 1.91057 11.1981 1.82769 11.0135 1.80509C10.8144 1.78071 10.5105 1.94638 9.90269 2.27773C8.86078 2.8457 7.51027 3.43751 6.40625 3.43751Z" stroke="white" stroke-linecap="round" stroke-linejoin="round"/>
</svg>
