<svg width="12" height="12" viewBox="0 0 12 12" fill="none" xmlns="http://www.w3.org/2000/svg">
<g clip-path="url(#clip0_2475_10501)">
<g filter="url(#filter0_d_2475_10501)">
<path d="M5.651 10.609C5.7617 10.6736 5.81705 10.7059 5.89516 10.7226C5.95578 10.7356 6.04422 10.7356 6.10484 10.7226C6.18295 10.7059 6.2383 10.6736 6.34899 10.609C7.32302 10.0407 10 8.25577 10 5.80155V3.90155C10 3.3646 10 3.09613 9.91723 2.90555C9.83311 2.71185 9.74929 2.6088 9.57678 2.487C9.40704 2.36716 9.07431 2.29796 8.40885 2.15956C7.6754 2.00702 7.11214 1.73157 6.59719 1.33321C6.35025 1.14218 6.22679 1.04667 6.13017 1.02062C6.02822 0.993128 5.97178 0.993128 5.86983 1.02062C5.77321 1.04667 5.64975 1.14218 5.40281 1.33321C4.88786 1.73157 4.3246 2.00702 3.59115 2.15956C2.92569 2.29796 2.59296 2.36716 2.42322 2.487C2.25071 2.6088 2.16689 2.71185 2.08277 2.90555C2 3.09613 2 3.3646 2 3.90155V5.80155C2 8.25577 4.67698 10.0407 5.651 10.609Z" fill="url(#paint0_linear_2475_10501)"/>
</g>
<path d="M5.69463 9.7769C5.79149 9.8333 5.83992 9.8615 5.90827 9.87613C5.96131 9.88748 6.03869 9.88748 6.09174 9.87613C6.16008 9.8615 6.20851 9.8333 6.30537 9.7769C7.15764 9.28061 9.5 7.72165 9.5 5.5782V3.91878C9.5 3.44983 9.5 3.21535 9.42758 3.0489C9.35397 2.87973 9.28063 2.78973 9.12968 2.68335C8.98116 2.57869 8.69002 2.51825 8.10774 2.39737C7.46598 2.26415 6.97312 2.02358 6.52254 1.67566C6.30647 1.50882 6.19844 1.4254 6.1139 1.40265C6.02469 1.37864 5.97531 1.37864 5.8861 1.40265C5.80156 1.4254 5.69353 1.50882 5.47746 1.67566C5.02688 2.02358 4.53402 2.26415 3.89226 2.39737C3.30998 2.51825 3.01884 2.57869 2.87032 2.68335C2.71937 2.78973 2.64603 2.87973 2.57242 3.0489C2.5 3.21535 2.5 3.44983 2.5 3.91878V5.5782C2.5 7.72165 4.84236 9.28061 5.69463 9.7769Z" fill="url(#paint1_linear_2475_10501)"/>
<g filter="url(#filter1_d_2475_10501)">
<path d="M4.6369 7.38464L4.25699 5.98345H3.69226V5.55506H4.13891L3.759 4.15387H4.46748L4.80119 5.55506H5.29917L5.66882 4.15387H6.33109L6.70073 5.55506H7.20385L7.53242 4.15387H8.2409L7.861 5.55506H8.30765V5.98345H7.74292L7.36301 7.38464H6.61346L6.24895 5.98345H5.75609L5.38645 7.38464H4.6369ZM4.90386 5.98345L5.02194 6.4877H5.05275L5.18623 5.98345H4.90386ZM5.86904 5.55506H6.136L6.01279 5.09097H5.98712L5.86904 5.55506ZM6.81368 5.98345L6.94716 6.49216H6.97796L7.10118 5.98345H6.81368Z" fill="url(#paint2_linear_2475_10501)"/>
</g>
</g>
<defs>
<filter id="filter0_d_2475_10501" x="-1" y="-1.5" width="14" height="15.7324" filterUnits="userSpaceOnUse" color-interpolation-filters="sRGB">
<feFlood flood-opacity="0" result="BackgroundImageFix"/>
<feColorMatrix in="SourceAlpha" type="matrix" values="0 0 0 0 0 0 0 0 0 0 0 0 0 0 0 0 0 0 127 0" result="hardAlpha"/>
<feOffset dy="0.5"/>
<feGaussianBlur stdDeviation="1.5"/>
<feComposite in2="hardAlpha" operator="out"/>
<feColorMatrix type="matrix" values="0 0 0 0 0.276349 0 0 0 0 0.124802 0 0 0 0 0.00727474 0 0 0 0.1 0"/>
<feBlend mode="normal" in2="BackgroundImageFix" result="effect1_dropShadow_2475_10501"/>
<feBlend mode="normal" in="SourceGraphic" in2="effect1_dropShadow_2475_10501" result="shape"/>
</filter>
<filter id="filter1_d_2475_10501" x="2.69226" y="3.15387" width="6.61536" height="5.23077" filterUnits="userSpaceOnUse" color-interpolation-filters="sRGB">
<feFlood flood-opacity="0" result="BackgroundImageFix"/>
<feColorMatrix in="SourceAlpha" type="matrix" values="0 0 0 0 0 0 0 0 0 0 0 0 0 0 0 0 0 0 127 0" result="hardAlpha"/>
<feOffset/>
<feGaussianBlur stdDeviation="0.5"/>
<feComposite in2="hardAlpha" operator="out"/>
<feColorMatrix type="matrix" values="0 0 0 0 0 0 0 0 0 0 0 0 0 0 0 0 0 0 0.1 0"/>
<feBlend mode="normal" in2="BackgroundImageFix" result="effect1_dropShadow_2475_10501"/>
<feBlend mode="normal" in="SourceGraphic" in2="effect1_dropShadow_2475_10501" result="shape"/>
</filter>
<linearGradient id="paint0_linear_2475_10501" x1="8" y1="11.5" x2="5.5" y2="4.75" gradientUnits="userSpaceOnUse">
<stop stop-color="#C60D10"/>
<stop offset="1" stop-color="#F8D5D5"/>
</linearGradient>
<linearGradient id="paint1_linear_2475_10501" x1="3.75" y1="1.63464" x2="7.2661" y2="10.8785" gradientUnits="userSpaceOnUse">
<stop stop-color="#F1ABAC"/>
<stop offset="0.998655" stop-color="#DD2C2F"/>
</linearGradient>
<linearGradient id="paint2_linear_2475_10501" x1="5.99995" y1="4.15387" x2="5.99995" y2="7.38464" gradientUnits="userSpaceOnUse">
<stop stop-color="#FFFFF2"/>
<stop offset="1" stop-color="#FFE5E5"/>
</linearGradient>
<clipPath id="clip0_2475_10501">
<rect width="12" height="12" fill="white"/>
</clipPath>
</defs>
</svg>
