<svg width="36" height="36" fill="none" xmlns="http://www.w3.org/2000/svg"><path d="M16.924 5.18c.346-.7.519-1.05.753-1.163a.75.75 0 01.646 0c.235.112.407.462.753 1.163l3.28 6.645c.102.207.153.31.228.39a.749.749 0 00.233.17c.1.046.213.063.442.096l7.337 1.072c.772.113 1.158.17 1.337.358a.75.75 0 01.2.614c-.035.258-.314.53-.874 1.075l-5.307 5.17c-.165.16-.248.241-.301.337a.75.75 0 00-.09.275c-.013.109.007.222.046.45l1.252 7.301c.132.77.198 1.155.074 1.384a.75.75 0 01-.522.38c-.256.047-.602-.135-1.293-.499l-6.56-3.45c-.204-.107-.306-.16-.414-.182a.75.75 0 00-.288 0c-.108.021-.21.075-.415.183l-6.559 3.449c-.691.364-1.037.546-1.293.498a.75.75 0 01-.522-.38c-.124-.228-.058-.613.074-1.383l1.252-7.301c.04-.228.059-.341.046-.45a.749.749 0 00-.09-.275c-.053-.096-.136-.176-.301-.337L4.74 15.6c-.56-.544-.84-.817-.873-1.075a.75.75 0 01.199-.614c.179-.188.565-.245 1.338-.358l7.337-1.072c.228-.033.342-.05.441-.096a.751.751 0 00.233-.17c.075-.08.126-.183.228-.39l3.28-6.645z" stroke="#CACACA" stroke-linecap="round" stroke-linejoin="round"/></svg>