<svg width="14" height="15" viewBox="0 0 14 15" fill="none" xmlns="http://www.w3.org/2000/svg">
<path d="M4.375 6.625H4.38083M7 6.625H7.00583M9.625 6.625H9.63083M5.775 11.7L6.62667 12.8356C6.75332 13.0044 6.81665 13.0889 6.89428 13.1191C6.96228 13.1455 7.03772 13.1455 7.10572 13.1191C7.18335 13.0889 7.24668 13.0044 7.37333 12.8356L8.225 11.7C8.396 11.472 8.4815 11.358 8.58579 11.271C8.72485 11.1549 8.88901 11.0728 9.06529 11.0312C9.19749 11 9.34 11 9.625 11C10.4404 11 10.8481 11 11.1697 10.8668C11.5985 10.6892 11.9392 10.3485 12.1168 9.9197C12.25 9.5981 12.25 9.1904 12.25 8.375V5.05C12.25 4.06991 12.25 3.57986 12.0593 3.20552C11.8915 2.87623 11.6238 2.60852 11.2945 2.44074C10.9201 2.25 10.4301 2.25 9.45 2.25H4.55C3.56991 2.25 3.07986 2.25 2.70552 2.44074C2.37623 2.60852 2.10852 2.87623 1.94074 3.20552C1.75 3.57986 1.75 4.06991 1.75 5.05V8.375C1.75 9.1904 1.75 9.5981 1.88321 9.9197C2.06083 10.3485 2.4015 10.6892 2.8303 10.8668C3.1519 11 3.5596 11 4.375 11C4.66 11 4.80251 11 4.93471 11.0312C5.11099 11.0728 5.27515 11.1549 5.41421 11.271C5.5185 11.358 5.604 11.472 5.775 11.7ZM4.66667 6.625C4.66667 6.78608 4.53608 6.91667 4.375 6.91667C4.21392 6.91667 4.08333 6.78608 4.08333 6.625C4.08333 6.46392 4.21392 6.33333 4.375 6.33333C4.53608 6.33333 4.66667 6.46392 4.66667 6.625ZM7.29167 6.625C7.29167 6.78608 7.16108 6.91667 7 6.91667C6.83892 6.91667 6.70833 6.78608 6.70833 6.625C6.70833 6.46392 6.83892 6.33333 7 6.33333C7.16108 6.33333 7.29167 6.46392 7.29167 6.625ZM9.91667 6.625C9.91667 6.78608 9.78608 6.91667 9.625 6.91667C9.46392 6.91667 9.33333 6.78608 9.33333 6.625C9.33333 6.46392 9.46392 6.33333 9.625 6.33333C9.78608 6.33333 9.91667 6.46392 9.91667 6.625Z" stroke="#888888" stroke-linecap="round" stroke-linejoin="round"/>
</svg>
