<svg width="14" height="15" viewBox="0 0 14 15" fill="none" xmlns="http://www.w3.org/2000/svg">
<path d="M9.33317 5.16675V3.53341C9.33317 2.88002 9.33317 2.55332 9.20601 2.30376C9.09416 2.08424 8.91568 1.90576 8.69616 1.79391C8.4466 1.66675 8.1199 1.66675 7.4665 1.66675H3.03317C2.37978 1.66675 2.05308 1.66675 1.80351 1.79391C1.58399 1.90576 1.40552 2.08424 1.29366 2.30376C1.1665 2.55332 1.1665 2.88002 1.1665 3.53341V7.96675C1.1665 8.62014 1.1665 8.94684 1.29366 9.1964C1.40552 9.41593 1.58399 9.5944 1.80351 9.70626C2.05308 9.83341 2.37978 9.83341 3.03317 9.83341H4.6665M6.99984 9.25008L8.1665 10.4167L10.7915 7.79175M6.53317 13.3334H10.9665C11.6199 13.3334 11.9466 13.3334 12.1962 13.2063C12.4157 13.0944 12.5942 12.9159 12.706 12.6964C12.8332 12.4468 12.8332 12.1201 12.8332 11.4667V7.03341C12.8332 6.38002 12.8332 6.05332 12.706 5.80376C12.5942 5.58424 12.4157 5.40576 12.1962 5.29391C11.9466 5.16675 11.6199 5.16675 10.9665 5.16675H6.53317C5.87978 5.16675 5.55308 5.16675 5.30351 5.29391C5.08399 5.40576 4.90552 5.58424 4.79366 5.80376C4.6665 6.05332 4.6665 6.38002 4.6665 7.03341V11.4667C4.6665 12.1201 4.6665 12.4468 4.79366 12.6964C4.90552 12.9159 5.08399 13.0944 5.30351 13.2063C5.55308 13.3334 5.87978 13.3334 6.53317 13.3334Z" stroke="#575757" stroke-linecap="round" stroke-linejoin="round"/>
</svg>
