<svg width="44" height="44" viewBox="0 0 44 44" fill="none" xmlns="http://www.w3.org/2000/svg">
<path d="M3.66699 3.66675H6.06163C6.51266 3.66675 6.73818 3.66675 6.91966 3.74969C7.07959 3.82278 7.21513 3.94033 7.3101 4.08831C7.41787 4.25624 7.44977 4.4795 7.51355 4.926L8.38128 11.0001M8.38128 11.0001L10.3097 25.1743C10.5545 26.973 10.6768 27.8724 11.1068 28.5494C11.4858 29.1459 12.029 29.6202 12.6711 29.9153C13.3999 30.2501 14.3076 30.2501 16.1229 30.2501H31.8123C33.5403 30.2501 34.4043 30.2501 35.1104 29.9392C35.733 29.665 36.267 29.2231 36.6528 28.6628C37.0904 28.0274 37.252 27.1786 37.5754 25.4811L40.002 12.7412C40.1158 12.1437 40.1727 11.845 40.0903 11.6115C40.0179 11.4067 39.8752 11.2342 39.6875 11.1248C39.4735 11.0001 39.1695 11.0001 38.5613 11.0001H8.38128ZM18.3337 38.5001C18.3337 39.5126 17.5128 40.3334 16.5003 40.3334C15.4878 40.3334 14.667 39.5126 14.667 38.5001C14.667 37.4876 15.4878 36.6667 16.5003 36.6667C17.5128 36.6667 18.3337 37.4876 18.3337 38.5001ZM33.0003 38.5001C33.0003 39.5126 32.1795 40.3334 31.167 40.3334C30.1545 40.3334 29.3337 39.5126 29.3337 38.5001C29.3337 37.4876 30.1545 36.6667 31.167 36.6667C32.1795 36.6667 33.0003 37.4876 33.0003 38.5001Z" stroke="white" stroke-width="2" stroke-linecap="round" stroke-linejoin="round"/>
</svg>
