<svg width="16" height="17" viewBox="0 0 16 17" fill="none" xmlns="http://www.w3.org/2000/svg">
<path d="M13.3346 14.5C13.3346 13.5696 13.3346 13.1044 13.2198 12.7259C12.9613 11.8736 12.2943 11.2067 11.4421 10.9482C11.0635 10.8333 10.5983 10.8333 9.66797 10.8333H6.33464C5.40426 10.8333 4.93907 10.8333 4.56054 10.9482C3.70827 11.2067 3.04133 11.8736 2.7828 12.7259C2.66797 13.1044 2.66797 13.5696 2.66797 14.5M11.0013 5.5C11.0013 7.15685 9.65816 8.5 8.0013 8.5C6.34445 8.5 5.0013 7.15685 5.0013 5.5C5.0013 3.84315 6.34445 2.5 8.0013 2.5C9.65816 2.5 11.0013 3.84315 11.0013 5.5Z" stroke="#575757" stroke-linecap="round" stroke-linejoin="round"/>
</svg>
