<svg width="72" height="72" viewBox="0 0 72 72" fill="none" xmlns="http://www.w3.org/2000/svg">
<path fill-rule="evenodd" clip-rule="evenodd" d="M23.2954 6.54492H48.7035C51.1354 6.5449 53.1094 6.54488 54.7105 6.67569C56.3631 6.81071 57.8334 7.09723 59.1997 7.79339C61.355 8.89158 63.1074 10.6439 64.2055 12.7992C64.9017 14.1655 65.1882 15.6358 65.3232 17.2884C65.4541 18.8895 65.454 20.8635 65.454 23.2954V40.5858C65.454 42.6093 65.454 44.2519 65.3627 45.591C65.2685 46.971 65.0692 48.207 64.5821 49.3829C63.4195 52.1896 61.1896 54.4195 58.3829 55.5821C57.207 56.0692 55.971 56.2685 54.591 56.3627C53.2519 56.4541 51.6093 56.454 49.5858 56.454H49.4995C47.916 56.454 47.5213 56.4695 47.1849 56.5489C46.6492 56.6753 46.1503 56.9248 45.7277 57.2774C45.4624 57.4989 45.2132 57.8054 44.2631 59.0722L39.8371 64.9735C39.5521 65.3537 39.2494 65.7575 38.9617 66.0774C38.6481 66.426 38.1582 66.903 37.4329 67.1851C36.5109 67.5437 35.488 67.5437 34.5661 67.1851C33.8407 66.903 33.3508 66.426 33.0372 66.0774C32.7495 65.7575 32.4468 65.3537 32.1617 64.9734L27.7358 59.0722C26.7857 57.8054 26.5366 57.4989 26.2712 57.2774C25.8486 56.9248 25.3497 56.6753 24.814 56.5489C24.4777 56.4695 24.083 56.454 22.4995 56.454H22.4131C20.3897 56.454 18.747 56.4541 17.408 56.3627C16.0279 56.2685 14.7919 56.0692 13.616 55.5821C10.8093 54.4195 8.57942 52.1896 7.41685 49.3829C6.92977 48.207 6.73041 46.971 6.63625 45.591C6.54489 44.2519 6.5449 42.6093 6.54492 40.5858L6.54492 23.2954C6.5449 20.8635 6.54488 18.8895 6.67569 17.2884C6.81071 15.6358 7.09723 14.1655 7.79339 12.7992C8.89158 10.6439 10.6439 8.89158 12.7992 7.79339C14.1655 7.09723 15.6358 6.81071 17.2884 6.67569C18.8895 6.54488 20.8635 6.5449 23.2954 6.54492ZM17.6882 11.5685C16.3392 11.6787 15.5868 11.8826 15.0279 12.1674C13.7963 12.795 12.795 13.7963 12.1674 15.0279C11.8826 15.5868 11.6787 16.3392 11.5685 17.6882C11.4559 19.0658 11.454 20.8387 11.454 23.3995V40.4995C11.454 42.6298 11.4553 44.1046 11.534 45.2568C11.6111 46.3869 11.7542 47.0263 11.9523 47.5043C12.6166 49.1081 13.8908 50.3824 15.4946 51.0467C15.9727 51.2447 16.612 51.3879 17.7422 51.465C18.8943 51.5436 20.3691 51.5449 22.4995 51.5449C22.5767 51.5449 22.653 51.5449 22.7284 51.5448C23.97 51.544 24.9771 51.5433 25.9419 51.7711C27.2193 52.0727 28.409 52.6675 29.4167 53.5085C30.1778 54.1437 30.7815 54.9498 31.5258 55.9435C31.571 56.0039 31.6168 56.065 31.6631 56.1267L35.9995 61.9086L40.3358 56.1267C40.3822 56.065 40.4279 56.0039 40.4731 55.9435C41.2174 54.9498 41.8211 54.1437 42.5822 53.5085C43.5899 52.6675 44.7796 52.0727 46.057 51.7711C47.0218 51.5433 48.029 51.544 49.2705 51.5448C49.346 51.5449 49.4223 51.5449 49.4995 51.5449C51.6298 51.5449 53.1046 51.5436 54.2568 51.465C55.3869 51.3879 56.0263 51.2447 56.5043 51.0467C58.1081 50.3824 59.3824 49.1081 60.0467 47.5043C60.2447 47.0263 60.3879 46.3869 60.465 45.2568C60.5436 44.1046 60.5449 42.6298 60.5449 40.4995V23.3995C60.5449 20.8387 60.543 19.0658 60.4305 17.6882C60.3202 16.3392 60.1163 15.5868 59.8315 15.0279C59.204 13.7963 58.2026 12.795 56.971 12.1674C56.4121 11.8826 55.6597 11.6787 54.3108 11.5685C52.9331 11.4559 51.1602 11.454 48.5995 11.454H23.3995C20.8387 11.454 19.0658 11.4559 17.6882 11.5685ZM18.5449 31.4995C18.5449 29.3154 20.3154 27.5449 22.4995 27.5449C24.6835 27.5449 26.454 29.3154 26.454 31.4995C26.454 33.6835 24.6835 35.454 22.4995 35.454C20.3154 35.454 18.5449 33.6835 18.5449 31.4995ZM32.0449 31.4995C32.0449 29.3154 33.8154 27.5449 35.9995 27.5449C38.1835 27.5449 39.954 29.3154 39.954 31.4995C39.954 33.6835 38.1835 35.454 35.9995 35.454C33.8154 35.454 32.0449 33.6835 32.0449 31.4995ZM45.5449 31.4995C45.5449 29.3154 47.3154 27.5449 49.4995 27.5449C51.6835 27.5449 53.454 29.3154 53.454 31.4995C53.454 33.6835 51.6835 35.454 49.4995 35.454C47.3154 35.454 45.5449 33.6835 45.5449 31.4995Z" fill="#E8E8E8"/>
</svg>
