<svg width="20" height="20" viewBox="0 0 20 20" fill="none" xmlns="http://www.w3.org/2000/svg">
<path d="M5.33333 7.99985V13.3332M8.33333 7.99985V13.3332M11.6667 7.99985V13.3332M14.6667 7.99985V13.3332M4 14.3998L4 14.9332C4 15.3066 4 15.4932 4.07266 15.6358C4.13658 15.7613 4.23856 15.8633 4.36401 15.9272C4.50661 15.9998 4.6933 15.9998 5.06667 15.9998H14.9333C15.3067 15.9998 15.4934 15.9999 15.636 15.9272C15.7614 15.8633 15.8634 15.7613 15.9273 15.6358C16 15.4932 16 15.3066 16 14.9332V14.3999C16 14.0265 16 13.8398 15.9273 13.6972C15.8634 13.5717 15.7614 13.4698 15.636 13.4058C15.4934 13.3332 15.3067 13.3332 14.9333 13.3332H5.06667C4.6933 13.3332 4.50661 13.3332 4.36401 13.4058C4.23857 13.4698 4.13658 13.5717 4.07266 13.6972C4 13.8398 4 14.0265 4 14.3998ZM9.76861 4.05127L4.83527 5.14757C4.53723 5.2138 4.38821 5.24691 4.27698 5.32705C4.17886 5.39774 4.10182 5.49378 4.0541 5.60489C4 5.73087 4 5.88352 4 6.18883L4 6.93318C4 7.30655 4 7.49324 4.07266 7.63584C4.13658 7.76129 4.23856 7.86327 4.36401 7.92719C4.50661 7.99985 4.6933 7.99985 5.06667 7.99985H14.9333C15.3067 7.99985 15.4934 7.99985 15.636 7.92719C15.7614 7.86327 15.8634 7.76129 15.9273 7.63584C16 7.49324 16 7.30655 16 6.93318V6.18883C16 5.88352 16 5.73087 15.9459 5.6049C15.8982 5.49378 15.8211 5.39774 15.723 5.32705C15.6118 5.24691 15.4628 5.2138 15.1647 5.14757L10.2314 4.05127C10.145 4.03208 10.1019 4.02249 10.0582 4.01866C10.0195 4.01526 9.98051 4.01526 9.94176 4.01866C9.89813 4.02249 9.85496 4.03208 9.76861 4.05127Z" stroke="#575757" stroke-linecap="round" stroke-linejoin="round"/>
</svg>
