<svg width="14" height="14" viewBox="0 0 14 14" fill="none" xmlns="http://www.w3.org/2000/svg">
<g clip-path="url(#clip0_6206_69703)">
<path d="M9.33341 4.66669V3.03335C9.33341 2.37996 9.33341 2.05326 9.20626 1.8037C9.0944 1.58418 8.91593 1.4057 8.6964 1.29385C8.44684 1.16669 8.12014 1.16669 7.46675 1.16669H3.03341C2.38002 1.16669 2.05332 1.16669 1.80376 1.29385C1.58424 1.4057 1.40576 1.58418 1.29391 1.8037C1.16675 2.05326 1.16675 2.37996 1.16675 3.03335V7.46669C1.16675 8.12008 1.16675 8.44678 1.29391 8.69634C1.40576 8.91586 1.58424 9.09434 1.80376 9.20619C2.05332 9.33335 2.38002 9.33335 3.03341 9.33335H4.66675M7.00008 8.75002L8.16675 9.91669L10.7917 7.29169M6.53341 12.8334H10.9667C11.6201 12.8334 11.9468 12.8334 12.1964 12.7062C12.4159 12.5943 12.5944 12.4159 12.7063 12.1963C12.8334 11.9468 12.8334 11.6201 12.8334 10.9667V6.53335C12.8334 5.87996 12.8334 5.55326 12.7063 5.3037C12.5944 5.08418 12.4159 4.9057 12.1964 4.79385C11.9468 4.66669 11.6201 4.66669 10.9667 4.66669H6.53341C5.88002 4.66669 5.55332 4.66669 5.30376 4.79385C5.08424 4.9057 4.90576 5.08418 4.79391 5.3037C4.66675 5.55326 4.66675 5.87996 4.66675 6.53335V10.9667C4.66675 11.6201 4.66675 11.9468 4.79391 12.1963C4.90576 12.4159 5.08424 12.5943 5.30376 12.7062C5.55332 12.8334 5.88002 12.8334 6.53341 12.8334Z" stroke="#888888" stroke-linecap="round" stroke-linejoin="round"/>
</g>
<defs>
<clipPath id="clip0_6206_69703">
<rect width="14" height="14" fill="white"/>
</clipPath>
</defs>
</svg>
