<svg width="12" height="14" viewBox="0 0 12 14" fill="none" xmlns="http://www.w3.org/2000/svg">
<path d="M6 9.33269V6.99936M6 4.66602H6.00583M0.75 4.63187V9.36685C0.75 9.56672 0.75 9.66666 0.779449 9.75579C0.805503 9.83465 0.848092 9.90703 0.904369 9.9681C0.967983 10.0371 1.05534 10.0857 1.23007 10.1827L5.54673 12.5809C5.71217 12.6728 5.79489 12.7187 5.88249 12.7368C5.96002 12.7527 6.03998 12.7527 6.11751 12.7368C6.20511 12.7187 6.28783 12.6728 6.45327 12.5809L10.7699 10.1827C10.9447 10.0857 11.032 10.0371 11.0956 9.9681C11.1519 9.90703 11.1945 9.83465 11.2206 9.75579C11.25 9.66666 11.25 9.56672 11.25 9.36685V4.63187C11.25 4.43199 11.25 4.33205 11.2206 4.24292C11.1945 4.16407 11.1519 4.09169 11.0956 4.03062C11.032 3.96159 10.9447 3.91305 10.7699 3.81599L6.45327 1.41784C6.28783 1.32593 6.20511 1.27998 6.11751 1.26196C6.03998 1.24601 5.96002 1.24601 5.88249 1.26196C5.79489 1.27998 5.71217 1.32593 5.54673 1.41784L1.23007 3.81599C1.05534 3.91305 0.967983 3.96159 0.904369 4.03062C0.848092 4.09169 0.805503 4.16407 0.779449 4.24292C0.75 4.33205 0.75 4.43199 0.75 4.63187Z" stroke="#888888" stroke-linecap="round" stroke-linejoin="round"/>
</svg>
