<svg width="22" height="22" viewBox="0 0 22 22" fill="none" xmlns="http://www.w3.org/2000/svg">
<g id="copy-06">
<path id="Icon" d="M6.875 2.75H13.3833C15.4369 2.75 16.4636 2.75 17.248 3.14964C17.9379 3.50118 18.4988 4.06211 18.8504 4.75203C19.25 5.53638 19.25 6.56314 19.25 8.61667V15.125M5.68333 19.25H13.1083C14.1351 19.25 14.6485 19.25 15.0406 19.0502C15.3856 18.8744 15.6661 18.5939 15.8418 18.249C16.0417 17.8568 16.0417 17.3434 16.0417 16.3167V8.89167C16.0417 7.8649 16.0417 7.35152 15.8418 6.95935C15.6661 6.61439 15.3856 6.33392 15.0406 6.15815C14.6485 5.95833 14.1351 5.95833 13.1083 5.95833H5.68333C4.65657 5.95833 4.14319 5.95833 3.75102 6.15815C3.40605 6.33392 3.12559 6.61439 2.94982 6.95935C2.75 7.35152 2.75 7.8649 2.75 8.89167V16.3167C2.75 17.3434 2.75 17.8568 2.94982 18.249C3.12559 18.5939 3.40605 18.8744 3.75102 19.0502C4.14319 19.25 4.65657 19.25 5.68333 19.25Z" stroke="#333333" stroke-width="1.4" stroke-linecap="round" stroke-linejoin="round"/>
</g>
</svg>
