<svg width="22" height="22" viewBox="0 0 22 22" fill="none" xmlns="http://www.w3.org/2000/svg">
<path d="M11.4583 2.74992H7.15C5.60986 2.74992 4.83978 2.74992 4.25153 3.04965C3.73408 3.3133 3.31338 3.734 3.04973 4.25144C2.75 4.8397 2.75 5.60977 2.75 7.14992V14.8499C2.75 16.3901 2.75 17.1601 3.04973 17.7484C3.31338 18.2658 3.73408 18.6865 4.25153 18.9502C4.83978 19.2499 5.60986 19.2499 7.15 19.2499H15.5833C16.4358 19.2499 16.862 19.2499 17.2118 19.1562C18.1608 18.9019 18.902 18.1607 19.1563 17.2117C19.25 16.862 19.25 16.4357 19.25 15.5833M17.4167 7.33325V1.83325M14.6667 4.58325H20.1667M9.625 7.79159C9.625 8.80411 8.80419 9.62492 7.79167 9.62492C6.77914 9.62492 5.95833 8.80411 5.95833 7.79159C5.95833 6.77906 6.77914 5.95825 7.79167 5.95825C8.80419 5.95825 9.625 6.77906 9.625 7.79159ZM13.7409 10.9249L5.98689 17.974C5.55075 18.3704 5.33268 18.5687 5.31339 18.7404C5.29667 18.8893 5.35375 19.0369 5.46625 19.1358C5.59605 19.2499 5.89076 19.2499 6.48018 19.2499H15.0846C16.4039 19.2499 17.0635 19.2499 17.5816 19.0283C18.232 18.7501 18.7501 18.2319 19.0284 17.5815C19.25 17.0634 19.25 16.4038 19.25 15.0846C19.25 14.6407 19.25 14.4188 19.2015 14.2121C19.1405 13.9523 19.0236 13.709 18.8588 13.4991C18.7277 13.3321 18.5544 13.1935 18.2078 12.9162L15.6437 10.8649C15.2968 10.5873 15.1233 10.4486 14.9323 10.3996C14.764 10.3564 14.5868 10.362 14.4215 10.4157C14.2339 10.4766 14.0696 10.6261 13.7409 10.9249Z" stroke="#888888" stroke-linecap="round" stroke-linejoin="round"/>
</svg>
