<svg width="12" height="12" viewBox="0 0 12 12" fill="none" xmlns="http://www.w3.org/2000/svg">
<path d="M4.31653 1.51686C4.8098 1.18245 5.39549 1 6 1C6.79565 1 7.55871 1.31607 8.12132 1.87868C8.68393 2.44129 9 3.20435 9 4C9 5.05039 9.1351 5.87561 9.32421 6.51621M3.12933 3.12862C3.04433 3.40863 3 3.70203 3 4C3 5.54509 2.61023 6.60298 2.17483 7.30271C1.80756 7.89294 1.62393 8.18805 1.63066 8.27038C1.63812 8.36154 1.65743 8.3963 1.73089 8.45079C1.79723 8.5 2.0963 8.5 2.69443 8.5H8.5M4.67709 10.5C5.02965 10.8112 5.49278 11 6 11C6.50722 11 6.97035 10.8112 7.32291 10.5M10.5 10.5L1.5 1.5" stroke="#888888" stroke-linecap="round" stroke-linejoin="round"/>
</svg>
