<svg width="14" height="14" viewBox="0 0 14 14" fill="none" xmlns="http://www.w3.org/2000/svg">
<path d="M1.41174 7.41604C1.3323 7.29025 1.29257 7.22736 1.27034 7.13035C1.25364 7.05748 1.25364 6.94256 1.27034 6.86969C1.29257 6.77268 1.3323 6.70979 1.41174 6.584C2.06823 5.54451 4.02232 2.91669 7.00024 2.91669C9.97815 2.91669 11.9322 5.54451 12.5887 6.584C12.6682 6.70979 12.7079 6.77268 12.7301 6.86969C12.7468 6.94256 12.7468 7.05748 12.7301 7.13035C12.7079 7.22736 12.6682 7.29025 12.5887 7.41604C11.9322 8.45553 9.97815 11.0834 7.00024 11.0834C4.02232 11.0834 2.06823 8.45553 1.41174 7.41604Z" stroke="#888888" stroke-linecap="round" stroke-linejoin="round"/>
<path d="M7.00024 8.75002C7.96673 8.75002 8.75024 7.96652 8.75024 7.00002C8.75024 6.03352 7.96673 5.25002 7.00024 5.25002C6.03374 5.25002 5.25024 6.03352 5.25024 7.00002C5.25024 7.96652 6.03374 8.75002 7.00024 8.75002Z" stroke="#888888" stroke-linecap="round" stroke-linejoin="round"/>
</svg>
