<svg width="33" height="33" viewBox="0 0 33 33" fill="none" xmlns="http://www.w3.org/2000/svg">
<path fill-rule="evenodd" clip-rule="evenodd" d="M22.414 8.5624C21.7256 8.5624 21.1678 9.12018 21.1678 9.80859C21.1678 10.497 21.7256 11.0548 22.414 11.0548C23.1024 11.0548 23.6602 10.497 23.6602 9.80859C23.6602 9.12018 23.1024 8.5624 22.414 8.5624ZM19.431 9.80859C19.431 8.16095 20.7664 6.82556 22.414 6.82556C24.0617 6.82556 25.3971 8.16095 25.3971 9.80859C25.3971 11.4562 24.0617 12.7916 22.414 12.7916C20.7664 12.7916 19.431 11.4562 19.431 9.80859Z" fill="#FCB07A"/>
<path fill-rule="evenodd" clip-rule="evenodd" d="M6.07895 1.73684C3.68087 1.73684 1.73684 3.68087 1.73684 6.07895V26.9211C1.73684 29.3191 3.68087 31.2632 6.07895 31.2632H26.9211C29.3191 31.2632 31.2632 29.3191 31.2632 26.9211V6.07895C31.2632 3.68087 29.3191 1.73684 26.9211 1.73684H6.07895ZM0 6.07895C0 2.72164 2.72164 0 6.07895 0H26.9211C30.2784 0 33 2.72164 33 6.07895V26.9211C33 30.2784 30.2784 33 26.9211 33H6.07895C2.72164 33 0 30.2784 0 26.9211V6.07895Z" fill="#CACACA"/>
<path d="M27.1861 24.5762L22.1059 18.0457C21.8584 17.7287 21.3243 17.7287 21.0768 18.0457L19.049 20.651L22.1015 24.5762C22.2535 24.7716 22.2839 25.0365 22.171 25.2623C22.0624 25.4881 21.8323 25.627 21.5848 25.627H26.6651C26.9126 25.627 27.1427 25.4837 27.2513 25.2623C27.3598 25.0408 27.3338 24.7716 27.1818 24.5762H27.1861Z" fill="#A7D1A9"/>
<path fill-rule="evenodd" clip-rule="evenodd" d="M21.5912 16.9395C22.0087 16.9395 22.4759 17.1086 22.7903 17.5112L22.7912 17.5124L27.8715 24.043C27.8968 24.0755 27.9195 24.1094 27.9396 24.1445C28.2322 24.5927 28.2657 25.1656 28.0309 25.6445C27.776 26.1645 27.2428 26.4954 26.665 26.4954H21.5847C21.1051 26.4954 20.7163 26.1066 20.7163 25.627C20.7163 25.2818 20.9177 24.9837 21.2093 24.8437L18.3634 21.184C18.1195 20.8704 18.1196 20.4311 18.3636 20.1175L20.3922 17.5112C20.7066 17.1086 21.1738 16.9395 21.5912 16.9395ZM23.0918 24.7586C23.0544 24.5008 22.9507 24.2536 22.787 24.0431C22.787 24.0431 22.787 24.0431 22.787 24.0431L20.1492 20.6512L21.5912 18.7985L26.2277 24.7586H23.0918Z" fill="#A7D1A9"/>
<path d="M21.5934 25.6271H6.46116C6.21366 25.6271 5.98353 25.4838 5.87498 25.2624C5.76643 25.0409 5.79248 24.7717 5.94445 24.5763L13.5084 14.8456C13.7559 14.5287 14.29 14.5287 14.5375 14.8456L22.1058 24.5763C22.2577 24.7717 22.2881 25.0366 22.1752 25.2624C22.0667 25.4881 21.8366 25.6271 21.5891 25.6271H21.5934Z" fill="#A7D1A9"/>
<path fill-rule="evenodd" clip-rule="evenodd" d="M14.023 15.5985L6.90261 24.7586H21.1474L14.023 15.5985ZM21.589 26.4954C21.5905 26.4954 21.5919 26.4954 21.5934 26.4954C21.5978 26.4954 21.6022 26.4954 21.6066 26.4953C22.1676 26.4888 22.6984 26.1724 22.955 25.6445C23.2175 25.1137 23.1422 24.4942 22.7912 24.043L15.223 14.3124L15.2219 14.3111C14.9076 13.9085 14.4404 13.7394 14.0229 13.7394C13.6054 13.7394 13.1382 13.9085 12.8239 14.3111L12.8227 14.3126L5.25895 24.043C5.2589 24.0431 5.25885 24.0432 5.2588 24.0432C4.90067 24.5038 4.84235 25.1287 5.09519 25.6445C5.35011 26.1645 5.88338 26.4954 6.46115 26.4954H21.589Z" fill="#A7D1A9"/>
</svg>
