<svg width="13" height="12" viewBox="0 0 13 12" fill="none" xmlns="http://www.w3.org/2000/svg">
<path d="M1 2H12" stroke="#888888" stroke-linecap="round"/>
<path d="M1 6H12" stroke="#888888" stroke-linecap="round"/>
<path d="M1 10H12" stroke="#888888" stroke-linecap="round"/>
<path d="M4.90059 2C4.90059 2.50851 4.43163 3 3.75059 3C3.06955 3 2.60059 2.50851 2.60059 2C2.60059 1.49149 3.06955 1 3.75059 1C4.43163 1 4.90059 1.49149 4.90059 2Z" fill="#F4F6F7" stroke="#888888"/>
<path d="M10.4006 6C10.4006 6.50851 9.93163 7 9.25059 7C8.56955 7 8.10059 6.50851 8.10059 6C8.10059 5.49149 8.56955 5 9.25059 5C9.93163 5 10.4006 5.49149 10.4006 6Z" fill="#F4F6F7" stroke="#888888"/>
<path d="M4.90059 10C4.90059 10.5085 4.43163 11 3.75059 11C3.06955 11 2.60059 10.5085 2.60059 10C2.60059 9.49149 3.06955 9 3.75059 9C4.43163 9 4.90059 9.49149 4.90059 10Z" fill="#F4F6F7" stroke="#888888"/>
</svg>
