<svg width="20" height="20" fill="none" xmlns="http://www.w3.org/2000/svg"><path d="M8.749 7.502a1.874 1.874 0 013.64.624c0 1.25-1.873 1.874-1.873 1.874m.024 2.5h.009m-.133 4.167a7.083 7.083 0 10-6.714-4.82c.09.268.135.401.143.504a.75.75 0 01-.023.271c-.026.1-.082.204-.194.412l-1.363 2.523c-.194.36-.292.54-.27.679.02.12.09.227.195.29.12.074.323.053.73.011l4.268-.441c.129-.014.194-.02.252-.018a.753.753 0 01.156.02c.057.014.13.042.274.097a7.05 7.05 0 002.545.472z" stroke="#333" stroke-linecap="round" stroke-linejoin="round"/></svg>