<svg width="20" height="20" fill="none" xmlns="http://www.w3.org/2000/svg"><path fill-rule="evenodd" clip-rule="evenodd" d="M13.584 5.19a.755.755 0 100 1.51.755.755 0 000-1.51zm-1.808.755a1.808 1.808 0 113.616 0 1.808 1.808 0 01-3.616 0z" fill="#FCB07A"/><path fill-rule="evenodd" clip-rule="evenodd" d="M3.684 1.053a2.632 2.632 0 00-2.631 2.631v12.632a2.632 2.632 0 002.631 2.631h12.632a2.632 2.632 0 002.631-2.631V3.684a2.632 2.632 0 00-2.631-2.631H3.684zM0 3.684A3.684 3.684 0 013.684 0h12.632A3.684 3.684 0 0120 3.684v12.632A3.684 3.684 0 0116.316 20H3.684A3.684 3.684 0 010 16.316V3.684z" fill="#CACACA"/><g fill="#A7D1A9"><path d="M16.477 14.895l-3.08-3.958a.41.41 0 00-.623 0l-1.23 1.579 1.85 2.379a.39.39 0 01.043.415.393.393 0 01-.355.221h3.079c.15 0 .29-.086.355-.22a.397.397 0 00-.042-.416h.003z"/><path fill-rule="evenodd" clip-rule="evenodd" d="M13.086 10.266c.253 0 .536.103.726.347l3.08 3.959a.923.923 0 01-.731 1.486h-3.08a.526.526 0 01-.227-1.001l-1.725-2.218a.526.526 0 010-.647l1.23-1.58a.919.919 0 01.727-.346zm.91 4.74a.92.92 0 00-.186-.434l-1.598-2.056.874-1.123 2.81 3.612h-1.9z"/><path d="M13.087 15.532H3.916a.397.397 0 01-.313-.637l4.584-5.898a.41.41 0 01.624 0l4.587 5.898a.39.39 0 01.042.415.393.393 0 01-.356.222h.003z"/><path fill-rule="evenodd" clip-rule="evenodd" d="M8.499 9.454l-4.316 5.551h8.634L8.499 9.454zm4.585 6.604h.011a.92.92 0 00.718-1.486L9.226 8.674a.919.919 0 00-.727-.347.919.919 0 00-.727.346v.001l-4.585 5.898a.923.923 0 00.729 1.486h9.168z"/></g></svg>