<svg width="16" height="16" viewBox="0 0 16 16" fill="none" xmlns="http://www.w3.org/2000/svg">
<path fill-rule="evenodd" clip-rule="evenodd" d="M10.8674 4.15148C10.5336 4.15148 10.2632 4.42192 10.2632 4.75569C10.2632 5.08947 10.5336 5.3599 10.8674 5.3599C11.2012 5.3599 11.4716 5.08947 11.4716 4.75569C11.4716 4.42192 11.2012 4.15148 10.8674 4.15148ZM9.42109 4.75569C9.42109 3.95683 10.0686 3.30938 10.8674 3.30938C11.6663 3.30938 12.3137 3.95683 12.3137 4.75569C12.3137 5.55455 11.6663 6.20201 10.8674 6.20201C10.0686 6.20201 9.42109 5.55455 9.42109 4.75569Z" fill="#FCB07A"/>
<path fill-rule="evenodd" clip-rule="evenodd" d="M2.94737 0.842105C1.78466 0.842105 0.842105 1.78466 0.842105 2.94737V13.0526C0.842105 14.2153 1.78466 15.1579 2.94737 15.1579H13.0526C14.2153 15.1579 15.1579 14.2153 15.1579 13.0526V2.94737C15.1579 1.78466 14.2153 0.842105 13.0526 0.842105H2.94737ZM0 2.94737C0 1.31958 1.31958 0 2.94737 0H13.0526C14.6804 0 16 1.31958 16 2.94737V13.0526C16 14.6804 14.6804 16 13.0526 16H2.94737C1.31958 16 0 14.6804 0 13.0526V2.94737Z" fill="#CACACA"/>
<path d="M13.1812 11.9158L10.718 8.74944C10.598 8.59576 10.3391 8.59576 10.2191 8.74944L9.23594 10.0126L10.7159 11.9158C10.7896 12.0105 10.8044 12.1389 10.7496 12.2484C10.697 12.3579 10.5854 12.4252 10.4654 12.4252H12.9286C13.0486 12.4252 13.1601 12.3558 13.2128 12.2484C13.2654 12.141 13.2528 12.0105 13.1791 11.9158H13.1812Z" fill="#A7D1A9"/>
<path fill-rule="evenodd" clip-rule="evenodd" d="M10.4685 8.21309C10.6709 8.21309 10.8975 8.29508 11.0499 8.49027L13.5135 11.6572C13.5258 11.6729 13.5368 11.6894 13.5465 11.7064C13.6884 11.9237 13.7046 12.2015 13.5908 12.4337C13.4672 12.6858 13.2087 12.8462 12.9285 12.8462H10.4654C10.2328 12.8462 10.0443 12.6577 10.0443 12.4252C10.0443 12.2578 10.1419 12.1133 10.2834 12.0454L8.90352 10.271C8.78524 10.1189 8.78529 9.90598 8.90363 9.75394L9.88719 8.49027C10.0396 8.29508 10.2661 8.21309 10.4685 8.21309ZM11.1961 12.0041C11.178 11.8792 11.1277 11.7593 11.0483 11.6572L9.76937 10.0127L10.4685 9.11442L12.7165 12.0041H11.1961Z" fill="#A7D1A9"/>
<path d="M10.4696 12.4252H3.13273C3.01273 12.4252 2.90115 12.3558 2.84852 12.2484C2.79589 12.141 2.80852 12.0105 2.88221 11.9158L6.54957 7.19788C6.66957 7.0442 6.92852 7.0442 7.04852 7.19788L10.718 11.9158C10.7917 12.0105 10.8064 12.1389 10.7517 12.2484C10.699 12.3579 10.5875 12.4252 10.4675 12.4252H10.4696Z" fill="#A7D1A9"/>
<path fill-rule="evenodd" clip-rule="evenodd" d="M6.79902 7.56294L3.34672 12.0042H10.2533L6.79902 7.56294ZM10.4674 12.8463H10.4695C10.4717 12.8463 10.4738 12.8462 10.4759 12.8462C10.7479 12.8431 11.0053 12.6897 11.1297 12.4337C11.257 12.1763 11.2204 11.876 11.0503 11.6572L7.38083 6.93934C7.22842 6.74415 7.00141 6.66152 6.79899 6.66152C6.59658 6.66152 6.37006 6.74352 6.21765 6.93871L6.21709 6.93943L2.54979 11.6572C2.37616 11.8806 2.3478 12.1836 2.4704 12.4337C2.59399 12.6858 2.85255 12.8463 3.13268 12.8463H10.4674Z" fill="#A7D1A9"/>
</svg>
