<svg width="18" height="18" viewBox="0 0 18 18" fill="none" xmlns="http://www.w3.org/2000/svg">
<path d="M9.75 5.25L8.91334 3.57669C8.67255 3.0951 8.55215 2.8543 8.37253 2.67837C8.21368 2.5228 8.02224 2.40448 7.81206 2.33198C7.57437 2.25 7.30516 2.25 6.76672 2.25H3.9C3.05992 2.25 2.63988 2.25 2.31901 2.41349C2.03677 2.5573 1.8073 2.78677 1.66349 3.06901C1.5 3.38988 1.5 3.80992 1.5 4.65V5.25M1.5 5.25H12.9C14.1601 5.25 14.7902 5.25 15.2715 5.49524C15.6948 5.71095 16.039 6.05516 16.2548 6.47852C16.5 6.95982 16.5 7.58988 16.5 8.85V12.15C16.5 13.4101 16.5 14.0402 16.2548 14.5215C16.039 14.9448 15.6948 15.289 15.2715 15.5048C14.7902 15.75 14.1601 15.75 12.9 15.75H5.1C3.83988 15.75 3.20982 15.75 2.72852 15.5048C2.30516 15.289 1.96095 14.9448 1.74524 14.5215C1.5 14.0402 1.5 13.4101 1.5 12.15V5.25ZM11.625 13.125L10.5 12M11.25 10.125C11.25 11.5747 10.0747 12.75 8.625 12.75C7.17525 12.75 6 11.5747 6 10.125C6 8.67525 7.17525 7.5 8.625 7.5C10.0747 7.5 11.25 8.67525 11.25 10.125Z" stroke="#888888" stroke-linecap="round" stroke-linejoin="round"/>
</svg>
