<svg width="16" height="16" viewBox="0 0 16 16" fill="none" xmlns="http://www.w3.org/2000/svg">
<path d="M9.33341 1.513V4.26669C9.33341 4.64006 9.33341 4.82675 9.40608 4.96935C9.46999 5.0948 9.57198 5.19678 9.69742 5.2607C9.84003 5.33336 10.0267 5.33336 10.4001 5.33336H13.1538M10.6667 8.66665H5.33341M10.6667 11.3333H5.33341M6.66675 5.99998H5.33341M9.33341 1.33331H5.86675C4.74664 1.33331 4.18659 1.33331 3.75877 1.5513C3.38244 1.74305 3.07648 2.04901 2.88473 2.42533C2.66675 2.85316 2.66675 3.41321 2.66675 4.53331V11.4666C2.66675 12.5868 2.66675 13.1468 2.88473 13.5746C3.07648 13.951 3.38244 14.2569 3.75877 14.4487C4.18659 14.6666 4.74664 14.6666 5.86675 14.6666H10.1334C11.2535 14.6666 11.8136 14.6666 12.2414 14.4487C12.6177 14.2569 12.9237 13.951 13.1154 13.5746C13.3334 13.1468 13.3334 12.5868 13.3334 11.4666V5.33331L9.33341 1.33331Z" stroke="#888888" stroke-linecap="round" stroke-linejoin="round"/>
</svg>
