<svg width="100" height="100" viewBox="0 0 100 100" fill="none" xmlns="http://www.w3.org/2000/svg">
<path d="M50 100C77.6142 100 100 77.6142 100 50C100 22.3858 77.6142 0 50 0C22.3858 0 0 22.3858 0 50C0 77.6142 22.3858 100 50 100Z" fill="#F8D5D5"/>
<g filter="url(#filter0_d_4267_256)">
<path d="M49.9878 93.1235C73.7229 93.1235 92.9639 73.8825 92.9639 50.1474C92.9639 26.4124 73.7229 7.17133 49.9878 7.17133C26.2528 7.17133 7.01172 26.4124 7.01172 50.1474C7.01172 73.8825 26.2528 93.1235 49.9878 93.1235Z" fill="url(#paint0_linear_4267_256)"/>
</g>
<path style="mix-blend-mode:screen" d="M7.46191 51.1914C8.4514 73.7735 27.0714 91.7775 49.8978 91.7775C62.0999 91.7775 73.1 86.6321 80.8473 78.3932C82.6049 76.5241 83.5668 74.0442 83.5668 71.4786V51.1908H7.46191V51.1914Z" fill="url(#paint1_linear_4267_256)"/>
<path style="mix-blend-mode:screen" d="M7.4625 49.0223C8.45199 26.4402 27.072 8.43622 49.8978 8.43622C62.0999 8.43622 73.1 13.5816 80.8473 21.8204C82.6049 23.6896 83.5668 26.1695 83.5668 28.7351V49.0229H7.46191L7.4625 49.0223Z" fill="url(#paint2_linear_4267_256)"/>
<path d="M20.6702 79.3295C16.711 75.3704 13.6463 70.7535 11.5587 65.607C9.54386 60.6373 8.52207 55.3862 8.52148 50.0001C8.52148 44.6134 9.54327 39.3624 11.5592 34.3926C13.6457 29.2461 16.7116 24.6293 20.6708 20.6707C24.6299 16.7116 29.2461 13.6462 34.3926 11.5598C39.3624 9.54382 44.6134 8.52203 50.0001 8.52203C55.3862 8.52203 60.6379 9.54441 65.607 11.5592C70.7535 13.6462 75.3704 16.7116 79.3295 20.6707C83.2886 24.6299 86.3534 29.2467 88.441 34.3926C90.4564 39.3624 91.4782 44.6134 91.4782 49.9995C91.4782 55.3862 90.4564 60.6373 88.441 65.6076C86.354 70.7541 83.288 75.3704 79.3295 79.3289C75.3704 83.288 70.7541 86.3534 65.6076 88.441C60.6379 90.4564 55.3862 91.4782 49.9995 91.4782C44.614 91.4782 39.3624 90.4564 34.3926 88.441C29.2461 86.354 24.6293 83.2886 20.6702 79.3295Z" fill="url(#paint3_linear_4267_256)"/>
<path d="M76.4508 52.4346C73.4113 52.4346 70.6354 51.3071 68.5173 49.4479C68.5173 49.4479 68.5173 49.4479 68.5167 49.4479H68.5161C67.657 50.2019 66.6898 50.8355 65.6404 51.3224C65.6351 51.3247 65.6298 51.3271 65.6251 51.3294C65.513 51.3811 65.3996 51.4316 65.2857 51.4797C65.2751 51.4844 65.2646 51.4885 65.254 51.4932C65.0209 51.5913 64.7836 51.6829 64.5434 51.7663C64.4941 51.7833 64.4442 51.8004 64.3949 51.8174C64.3925 51.818 64.3902 51.8192 64.3878 51.8197C64.3872 51.8197 64.3861 51.8197 64.3855 51.8203C64.3033 51.8479 64.2205 51.8744 64.1377 51.8996C64.1312 51.9014 64.1248 51.9037 64.1183 51.9055C64.042 51.929 63.965 51.9519 63.8875 51.9736C63.8746 51.9771 63.8617 51.9812 63.8482 51.9848C63.7771 52.0047 63.7061 52.0241 63.6344 52.0429C63.615 52.0482 63.5951 52.0529 63.5757 52.0582C62.6185 52.303 61.6161 52.4334 60.5826 52.4334C60.3212 52.4334 60.0617 52.4252 59.8045 52.4087C59.7187 52.4035 59.633 52.397 59.5479 52.3894V57.3638C59.5479 57.5858 59.552 57.8078 59.5608 58.0291C59.5666 58.1771 59.5743 58.3245 59.5837 58.4719C59.5884 58.5459 59.5937 58.6193 59.5995 58.6927C59.6571 59.4291 59.7622 60.162 59.9149 60.8855L59.9624 61.1115C60.2931 62.6806 60.8938 64.1646 61.7253 65.5035C61.7465 65.5369 61.7676 65.571 61.7887 65.6045C62.144 66.1659 62.5404 66.7008 62.9744 67.2058C62.9838 67.217 62.9932 67.2282 63.0031 67.2387C63.0648 67.3098 63.127 67.3808 63.1905 67.4507C63.1975 67.4584 63.2046 67.4666 63.2116 67.4742C63.2774 67.547 63.3443 67.6193 63.4118 67.6903C63.416 67.6944 63.4195 67.6985 63.4236 67.7026C63.4952 67.7778 63.5675 67.8524 63.6403 67.9258C63.6409 67.9264 63.6415 67.927 63.642 67.9276C63.9263 68.2135 64.224 68.4872 64.534 68.7485C64.5869 68.7925 64.6398 68.8366 64.6932 68.88C64.7425 68.92 64.7913 68.9599 64.8412 68.9993C64.9158 69.0586 64.9909 69.1167 65.0667 69.1743C65.0878 69.1901 65.109 69.206 65.1301 69.2218C65.2487 69.3111 65.3685 69.398 65.4907 69.4837L67.1126 70.6206L68.5196 71.6072L71.3924 69.5971C74.3373 67.5365 76.3856 64.43 77.1185 60.9113C77.3633 59.7368 77.4867 58.54 77.4867 57.3403V52.3888C77.1455 52.4175 76.8002 52.4328 76.452 52.4328L76.4508 52.4346ZM73.5921 58.4989L68.2013 63.8897C68.0263 64.0647 67.7961 64.1522 67.5659 64.1522C67.3357 64.1522 67.1061 64.0647 66.9306 63.8897L64.2945 61.2536C64.1177 61.0769 64.0208 60.8426 64.0208 60.5924C64.0208 60.3423 64.1177 60.108 64.2945 59.9312C64.6591 59.5665 65.2522 59.5665 65.6163 59.9312L67.5653 61.8802L72.2691 57.1765C72.4459 56.9997 72.6802 56.9028 72.9303 56.9028C73.1805 56.9028 73.4148 57.0003 73.5915 57.1765C73.9562 57.5412 73.9562 58.1343 73.5915 58.4983L73.5921 58.4989Z" fill="#E45659"/>
<path d="M64.3007 70.3281L64.2855 70.3164C64.2667 70.3023 64.2479 70.2882 64.2291 70.2735C64.1398 70.2054 64.0588 70.1431 63.983 70.0832C63.9273 70.0392 63.8738 69.9958 63.8198 69.9517C63.7605 69.903 63.7035 69.8554 63.6466 69.8078C63.3406 69.5506 63.0435 69.2799 62.761 69.001L62.7575 68.9986L62.6594 68.8994C62.6594 68.8994 62.6588 68.8982 62.6582 68.8982L62.6318 68.8718C62.5619 68.8013 62.4926 68.7297 62.4245 68.658L62.4075 68.6404C62.3329 68.5611 62.2601 68.483 62.192 68.4073C62.1832 68.3973 62.1744 68.3879 62.1656 68.3779C62.0974 68.3022 62.0275 68.2229 61.9583 68.143L61.9277 68.1078C61.4527 67.5558 61.0134 66.9627 60.6223 66.3449C60.5988 66.3073 60.5765 66.2721 60.5542 66.2357C59.6264 64.7418 58.9734 63.1151 58.6116 61.3981L58.5641 61.1708C58.4002 60.3933 58.2851 59.5958 58.2235 58.8013V58.7972C58.217 58.7185 58.2111 58.6398 58.2064 58.5611C58.1964 58.4102 58.1882 58.2534 58.1818 58.0849C58.1724 57.8512 58.1677 57.6087 58.1677 57.3649V50.8889L59.6645 51.0152C59.7409 51.0216 59.8184 51.0275 59.8935 51.0322C60.1208 51.0469 60.3528 51.0545 60.5835 51.0545C61.4791 51.0545 62.3687 50.9436 63.2279 50.7239C63.2484 50.7186 63.269 50.7134 63.2895 50.7081C63.3518 50.6916 63.4146 50.6746 63.4763 50.657L63.488 50.6535C63.4962 50.6511 63.5044 50.6488 63.5127 50.6464C63.5779 50.6276 63.6419 50.6088 63.7029 50.59C63.7135 50.5865 63.7235 50.5836 63.7341 50.5801C63.8057 50.5577 63.8773 50.5348 63.9484 50.5113L63.9707 50.5037C64.0101 50.4908 64.0494 50.4767 64.0887 50.4632C64.3013 50.3886 64.5127 50.3076 64.7171 50.2212L64.7459 50.2089C64.8451 50.1666 64.9455 50.122 65.0448 50.0762L65.0741 50.0627C65.5281 49.8513 65.9726 49.6047 66.3954 49.3287C66.8182 49.0527 67.2257 48.7432 67.6057 48.4096L67.9563 48.1019V45.5627C67.9563 44.0312 66.7149 42.7892 65.1828 42.7892H62.9483V36.9586C62.9483 35.2215 62.6077 33.5356 61.9359 31.9477C61.2876 30.4144 60.3598 29.0386 59.1783 27.857C57.9968 26.6755 56.6203 25.7477 55.0876 25.0994C53.4992 24.4276 51.8132 24.087 50.0768 24.087C48.3403 24.087 46.6538 24.4276 45.0659 25.0994C43.5326 25.7477 42.1567 26.6755 40.9752 27.857C39.7937 29.0386 38.8659 30.415 38.2176 31.9477C37.5458 33.5362 37.2052 35.2221 37.2052 36.9586V42.7892H34.9708C33.4393 42.7892 32.1973 44.0306 32.1973 45.5627V67.951C32.1973 69.358 33.2502 70.5419 34.6478 70.7057C44.7048 71.8849 54.8627 71.9072 64.9238 70.7727L64.6989 70.6153C64.5656 70.5213 64.4329 70.425 64.3025 70.3275L64.3007 70.3281ZM41.3969 36.9598C41.3969 34.6419 42.2994 32.4621 43.939 30.8232C45.578 29.1842 47.7572 28.281 50.0756 28.281C52.394 28.281 54.5732 29.1836 56.2122 30.8232C57.8511 32.4621 58.7543 34.6414 58.7543 36.9598V42.7904H41.3975V36.9598H41.3969ZM52.4609 62.9343C52.5167 63.2543 52.2701 63.5473 51.9453 63.5473H48.2047C47.8799 63.5473 47.6333 63.2543 47.6891 62.9343L48.8072 56.5182C47.7877 56.0372 47.0854 54.9943 47.1007 53.7887C47.1206 52.185 48.4278 50.8754 50.0315 50.8525C51.694 50.829 53.0493 52.1697 53.0493 53.8269C53.0493 55.016 52.3511 56.0425 51.3423 56.5182L52.4603 62.9343H52.4609Z" fill="black"/>
<defs>
<filter id="filter0_d_4267_256" x="5.01172" y="5.17133" width="93.9521" height="93.9522" filterUnits="userSpaceOnUse" color-interpolation-filters="sRGB">
<feFlood flood-opacity="0" result="BackgroundImageFix"/>
<feColorMatrix in="SourceAlpha" type="matrix" values="0 0 0 0 0 0 0 0 0 0 0 0 0 0 0 0 0 0 127 0" result="hardAlpha"/>
<feOffset dx="2" dy="2"/>
<feGaussianBlur stdDeviation="2"/>
<feComposite in2="hardAlpha" operator="out"/>
<feColorMatrix type="matrix" values="0 0 0 0 0 0 0 0 0 0 0 0 0 0 0 0 0 0 0.15 0"/>
<feBlend mode="normal" in2="BackgroundImageFix" result="effect1_dropShadow_4267_256"/>
<feBlend mode="normal" in="SourceGraphic" in2="effect1_dropShadow_4267_256" result="shape"/>
</filter>
<linearGradient id="paint0_linear_4267_256" x1="89.2265" y1="56.5298" x2="15.5436" y2="44.5485" gradientUnits="userSpaceOnUse">
<stop stop-color="#DEDFE1"/>
<stop offset="0.41" stop-color="#E9EAEC"/>
<stop offset="0.99" stop-color="#FAFAFA"/>
</linearGradient>
<linearGradient id="paint1_linear_4267_256" x1="46.0772" y1="61.0505" x2="35.911" y2="84.9832" gradientUnits="userSpaceOnUse">
<stop/>
<stop offset="0.99" stop-color="#8C8C8C"/>
</linearGradient>
<linearGradient id="paint2_linear_4267_256" x1="42.0817" y1="32.4993" x2="21.9084" y2="24.2393" gradientUnits="userSpaceOnUse">
<stop/>
<stop offset="0.99" stop-color="#8C8C8C"/>
</linearGradient>
<linearGradient id="paint3_linear_4267_256" x1="73.6081" y1="84.8419" x2="30.6566" y2="21.4535" gradientUnits="userSpaceOnUse">
<stop stop-color="white"/>
<stop offset="0.6" stop-color="#ECECEC"/>
</linearGradient>
</defs>
</svg>
