<svg width="44" height="44" viewBox="0 0 44 44" fill="none" xmlns="http://www.w3.org/2000/svg">
<path d="M24.8041 15.3118C23.7547 16.06 22.4705 16.5001 21.0834 16.5001C17.5396 16.5001 14.6667 13.6272 14.6667 10.0834C14.6667 6.53959 17.5396 3.66675 21.0834 3.66675C23.3806 3.66675 25.3958 4.87385 26.5293 6.68834M11.0001 36.8265H15.7856C16.4096 36.8265 17.0297 36.9008 17.6346 37.0493L22.6911 38.278C23.7882 38.5453 24.9312 38.5713 26.0398 38.356L31.6305 37.2683C33.1074 36.9806 34.466 36.2734 35.5307 35.2377L39.4862 31.3899C40.6158 30.2929 40.6158 28.5129 39.4862 27.414C38.4692 26.4247 36.8587 26.3133 35.7082 27.1523L31.0982 30.5156C30.438 30.9982 29.6347 31.2581 28.8084 31.2581H24.3568L27.1904 31.258C28.7875 31.258 30.0812 29.9995 30.0812 28.4459V27.8835C30.0812 26.5935 29.1786 25.4687 27.8926 25.1568L23.5192 24.0933C22.8074 23.9207 22.0786 23.8334 21.3458 23.8334C19.577 23.8334 16.3752 25.2979 16.3752 25.2979L11.0001 27.5457M36.6667 11.9167C36.6667 15.4606 33.7939 18.3334 30.2501 18.3334C26.7063 18.3334 23.8334 15.4606 23.8334 11.9167C23.8334 8.37292 26.7063 5.50008 30.2501 5.50008C33.7939 5.50008 36.6667 8.37292 36.6667 11.9167ZM3.66675 26.7667L3.66675 37.4001C3.66675 38.4268 3.66675 38.9402 3.86657 39.3324C4.04234 39.6774 4.3228 39.9578 4.66776 40.1336C5.05994 40.3334 5.57332 40.3334 6.60008 40.3334H8.06675C9.09351 40.3334 9.60689 40.3334 9.99906 40.1336C10.344 39.9578 10.6245 39.6774 10.8003 39.3324C11.0001 38.9402 11.0001 38.4268 11.0001 37.4001V26.7667C11.0001 25.74 11.0001 25.2266 10.8003 24.8344C10.6245 24.4895 10.344 24.209 9.99906 24.0332C9.60689 23.8334 9.09351 23.8334 8.06675 23.8334L6.60008 23.8334C5.57332 23.8334 5.05994 23.8334 4.66777 24.0332C4.3228 24.209 4.04234 24.4895 3.86657 24.8344C3.66675 25.2266 3.66675 25.74 3.66675 26.7667Z" stroke="white" stroke-width="2" stroke-linecap="round" stroke-linejoin="round"/>
</svg>
