<svg width="14" height="15" fill="none" xmlns="http://www.w3.org/2000/svg"><path d="M7.292 2.25H4.55c-.98 0-1.47 0-1.844.19a1.75 1.75 0 00-.765.765c-.191.374-.191.864-.191 1.844v4.9c0 .98 0 1.47.19 1.845.169.33.436.597.766.765.374.19.864.19 1.844.19h5.367c.542 0 .813 0 1.036-.06a1.75 1.75 0 001.237-1.237c.06-.222.06-.493.06-1.036m-1.167-5.25v-3.5m-1.75 1.75h3.5M6.125 5.458a1.167 1.167 0 11-2.333 0 1.167 1.167 0 012.333 0zm2.62 1.994L3.81 11.937c-.278.253-.416.379-.429.488a.292.292 0 00.098.252c.082.072.27.072.645.072h5.475c.84 0 1.26 0 1.59-.14a1.75 1.75 0 00.92-.921c.141-.33.141-.75.141-1.59 0-.282 0-.423-.03-.555A1.167 1.167 0 0012 9.09c-.083-.107-.194-.195-.414-.371L9.955 7.413c-.22-.176-.331-.265-.453-.296a.583.583 0 00-.325.01c-.119.04-.224.134-.433.325z" stroke="#888" stroke-linecap="round" stroke-linejoin="round"/></svg>