<svg width="20" height="20" fill="none" xmlns="http://www.w3.org/2000/svg"><path d="M12.499 15.833a2.5 2.5 0 01-5 0m3.997-10.635a2.083 2.083 0 10-2.994 0m-6.38 1.737a3.34 3.34 0 011.693-2.933m14.062 2.933a3.34 3.34 0 00-1.694-2.933m-1.184 5.33c0-1.149-.527-2.25-1.465-3.063-.937-.813-2.209-1.27-3.535-1.27S7.4 5.456 6.463 6.27C5.526 7.08 5 8.183 5 9.333c0 1.901-.472 3.292-1.06 4.287-.67 1.134-1.006 1.701-.993 1.837.015.154.043.203.169.295.11.08.662.08 1.766.08h10.236c1.104 0 1.656 0 1.766-.08.126-.092.153-.14.169-.295.013-.136-.322-.703-.993-1.837-.589-.995-1.06-2.386-1.06-4.287z" stroke="#333" stroke-linecap="round" stroke-linejoin="round"/></svg>