<svg width="14" height="14" viewBox="0 0 14 14" fill="none" xmlns="http://www.w3.org/2000/svg">
<path d="M4.375 6.125H4.38083M7 6.125H7.00583M9.625 6.125H9.63083M5.775 11.2L6.62667 12.3356C6.75332 12.5044 6.81665 12.5889 6.89428 12.6191C6.96228 12.6455 7.03772 12.6455 7.10572 12.6191C7.18335 12.5889 7.24668 12.5044 7.37333 12.3356L8.225 11.2C8.396 10.972 8.4815 10.858 8.58579 10.771C8.72485 10.6549 8.88901 10.5728 9.06529 10.5312C9.19749 10.5 9.34 10.5 9.625 10.5C10.4404 10.5 10.8481 10.5 11.1697 10.3668C11.5985 10.1892 11.9392 9.84849 12.1168 9.4197C12.25 9.0981 12.25 8.6904 12.25 7.875V4.55C12.25 3.56991 12.25 3.07986 12.0593 2.70552C11.8915 2.37623 11.6238 2.10852 11.2945 1.94074C10.9201 1.75 10.4301 1.75 9.45 1.75H4.55C3.56991 1.75 3.07986 1.75 2.70552 1.94074C2.37623 2.10852 2.10852 2.37623 1.94074 2.70552C1.75 3.07986 1.75 3.56991 1.75 4.55V7.875C1.75 8.6904 1.75 9.0981 1.88321 9.4197C2.06083 9.84849 2.4015 10.1892 2.8303 10.3668C3.1519 10.5 3.5596 10.5 4.375 10.5C4.66 10.5 4.80251 10.5 4.93471 10.5312C5.11099 10.5728 5.27515 10.6549 5.41421 10.771C5.5185 10.858 5.604 10.972 5.775 11.2ZM4.66667 6.125C4.66667 6.28608 4.53608 6.41667 4.375 6.41667C4.21392 6.41667 4.08333 6.28608 4.08333 6.125C4.08333 5.96392 4.21392 5.83333 4.375 5.83333C4.53608 5.83333 4.66667 5.96392 4.66667 6.125ZM7.29167 6.125C7.29167 6.28608 7.16108 6.41667 7 6.41667C6.83892 6.41667 6.70833 6.28608 6.70833 6.125C6.70833 5.96392 6.83892 5.83333 7 5.83333C7.16108 5.83333 7.29167 5.96392 7.29167 6.125ZM9.91667 6.125C9.91667 6.28608 9.78608 6.41667 9.625 6.41667C9.46392 6.41667 9.33333 6.28608 9.33333 6.125C9.33333 5.96392 9.46392 5.83333 9.625 5.83333C9.78608 5.83333 9.91667 5.96392 9.91667 6.125Z" stroke="#888888" stroke-linecap="round" stroke-linejoin="round"/>
</svg>
