<svg xmlns="http://www.w3.org/2000/svg" width="41" height="42"><path fill="none" d="M.001.102h39.998V40.1H.001V.102z"/><path fill-rule="evenodd" stroke="#41444E" stroke-width="2" fill="#FFF" d="M20 26.1c7.363 0 13.333 2.687 13.333 6 0 3.314-5.97 6-13.333 6-7.364 0-13.333-2.686-13.333-6 0-3.313 5.969-6 13.333-6z"/><path fill-rule="evenodd" fill="#41444E" d="M28.795 20.438c-.104.204-4.563 7.566-6.908 11.433-.504.804-1.26 1.266-2.073 1.266-.815 0-1.593-.463-2.134-1.271-2.348-3.87-6.819-11.248-6.917-11.443a12.264 12.264 0 01-1.967-6.706c0-6.478 4.929-11.748 10.989-11.748 6.059 0 10.989 5.27 10.989 11.748a12.24 12.24 0 01-1.979 6.721zm-8.791-10.433c-1.657 0-3 1.345-3 3.005a3.002 3.002 0 003 3.005c1.657 0 3-1.345 3-3.005a3.002 3.002 0 00-3-3.005z"/></svg>