<svg width="14" height="14" fill="none" xmlns="http://www.w3.org/2000/svg"><path d="M5 6l1.333 1.333 3-3M3.667 11v1.557c0 .355 0 .533.072.624.064.08.16.126.261.126.117 0 .256-.112.533-.334l1.59-1.272c.325-.26.488-.39.669-.482.16-.082.331-.142.507-.178.2-.041.407-.041.824-.041H9.8c1.12 0 1.68 0 2.108-.218a2 2 0 00.874-.874C13 9.48 13 8.92 13 7.8V4.2c0-1.12 0-1.68-.218-2.108a2 2 0 00-.874-.874C11.48 1 10.92 1 9.8 1H4.2c-1.12 0-1.68 0-2.108.218a2 2 0 00-.874.874C1 2.52 1 3.08 1 4.2v4.133c0 .62 0 .93.068 1.185a2 2 0 001.414 1.414c.255.068.565.068 1.185.068z" stroke="#888" stroke-linecap="round" stroke-linejoin="round"/></svg>