<svg width="100" height="100" fill="none" xmlns="http://www.w3.org/2000/svg"><rect width="100" height="100" rx="16" fill="#E8E8E8"/><path fill-rule="evenodd" clip-rule="evenodd" d="M39.1 27.604h15.55c1.694 0 3.06 0 4.166.09 1.139.093 2.139.29 3.064.762a7.813 7.813 0 013.415 3.414c.471.925.668 1.925.76 3.064.091 1.106.091 2.472.091 4.166v7.27c.317.01.612.024.885.046.791.065 1.534.204 2.237.562a5.73 5.73 0 012.504 2.504c.358.703.498 1.446.562 2.237.062.76.062 1.688.062 2.8v5.772c0 .926 0 1.699-.043 2.333-.045.66-.142 1.285-.393 1.89a5.729 5.729 0 01-3.1 3.1c-.606.25-1.23.348-1.89.393-.252.017-.527.028-.824.034v2.792a1.563 1.563 0 01-2.454 1.283l-4.534-3.152c-.684-.475-.87-.597-1.056-.682a2.602 2.602 0 00-.602-.188c-.202-.038-.424-.044-1.256-.044h-3.807c-1.113 0-2.042 0-2.8-.061-.792-.065-1.535-.205-2.238-.563a5.73 5.73 0 01-2.503-2.504c-.358-.702-.498-1.445-.563-2.237-.059-.72-.062-1.592-.062-2.63l-3.778 3.825c-.407.413-.784.795-1.109 1.07-.296.252-.832.673-1.552.733a2.604 2.604 0 01-2.193-.9c-.47-.55-.555-1.225-.59-1.613-.037-.424-.037-.96-.037-1.54v-3.314a.424.424 0 00-.143-.32 1.056 1.056 0 00-.584-.266 7.813 7.813 0 01-6.598-6.598c-.083-.565-.083-1.21-.082-2.156V39.1c0-1.694 0-3.06.09-4.166.093-1.139.29-2.139.761-3.064a7.813 7.813 0 013.414-3.415c.926-.471 1.926-.668 3.065-.76 1.106-.091 2.472-.091 4.165-.091zm8.296 28.645v3.571c0 1.193.001 1.993.052 2.61.049.598.136.884.232 1.073.25.49.648.888 1.138 1.138.189.096.475.183 1.073.232.616.05 1.417.051 2.61.051h3.856c.666 0 1.19 0 1.708.095.457.085.902.224 1.325.416.48.217.91.516 1.457.897l.093.065 2.08 1.446v-1.356c0-.863.7-1.563 1.563-1.563.992 0 1.658 0 2.173-.036.502-.034.746-.095.907-.162a2.604 2.604 0 001.409-1.41c.067-.16.128-.404.162-.906.035-.515.036-1.181.036-2.173v-5.655c0-1.192-.001-1.993-.051-2.61-.05-.597-.136-.883-.233-1.072a2.605 2.605 0 00-1.138-1.138c-.188-.096-.474-.183-1.073-.232-.616-.05-1.416-.052-2.609-.052H52.5c-1.192 0-1.993.001-2.61.052-.597.049-.883.136-1.072.232-.49.25-.888.648-1.138 1.138-.096.189-.183.475-.232 1.073-.05.616-.052 1.417-.052 2.61v1.665zm-3.125-.64l-5.956 6.03-.178.18v-3.504c0-2.124-1.73-3.432-3.4-3.677a4.687 4.687 0 01-3.958-3.959c-.045-.31-.05-.706-.05-1.837v-9.675c0-1.776.002-3.014.08-3.978.078-.946.222-1.49.431-1.9a4.687 4.687 0 012.049-2.05c.411-.209.955-.353 1.9-.43.964-.079 2.202-.08 3.978-.08h15.417c1.776 0 3.014.001 3.977.08.946.077 1.49.221 1.9.43a4.69 4.69 0 012.05 2.05c.209.41.353.954.43 1.9.079.964.08 2.202.08 3.977v7.188H52.437c-1.113 0-2.042 0-2.8.062-.792.065-1.535.204-2.238.562a5.73 5.73 0 00-2.503 2.504c-.358.703-.498 1.446-.563 2.237-.062.76-.062 1.688-.062 2.8v1.09z" fill="#fff"/></svg>