<svg width="20" height="20" fill="none" xmlns="http://www.w3.org/2000/svg"><path d="M10.001 12.5a2.5 2.5 0 100-5 2.5 2.5 0 000 5z" stroke="#888" stroke-linecap="round" stroke-linejoin="round"/><path d="M15.607 12.272a1.25 1.25 0 00.25 1.379l.046.045a1.515 1.515 0 11-2.144 2.144l-.046-.045a1.25 1.25 0 00-1.378-.25 1.25 1.25 0 00-.758 1.144v.128a1.515 1.515 0 01-3.03 0v-.068a1.25 1.25 0 00-.818-1.144 1.25 1.25 0 00-1.38.25l-.045.046a1.515 1.515 0 11-2.144-2.144l.046-.046a1.25 1.25 0 00.25-1.378 1.25 1.25 0 00-1.144-.758h-.129a1.515 1.515 0 110-3.03h.068a1.25 1.25 0 001.144-.818 1.25 1.25 0 00-.25-1.38L4.1 6.303a1.515 1.515 0 112.144-2.144l.045.046a1.25 1.25 0 001.379.25h.06a1.25 1.25 0 00.758-1.144v-.129a1.515 1.515 0 113.03 0v.068a1.25 1.25 0 00.758 1.144 1.25 1.25 0 001.379-.25l.045-.045a1.515 1.515 0 112.144 2.144l-.045.045a1.25 1.25 0 00-.25 1.379v.06a1.25 1.25 0 001.144.758h.129a1.515 1.515 0 010 3.03h-.069a1.25 1.25 0 00-1.144.758z" stroke="#888" stroke-linecap="round" stroke-linejoin="round"/></svg>