<svg width="18" height="18" fill="none" xmlns="http://www.w3.org/2000/svg"><path d="M1.5 1.5h.98c.184 0 .276 0 .35.034a.37.37 0 01.16.138c.044.07.057.16.084.343L3.429 4.5m0 0l.788 5.799c.1.735.15 1.103.327 1.38a1.5 1.5 0 00.64.559c.298.137.669.137 1.412.137h6.418c.707 0 1.06 0 1.35-.127a1.5 1.5 0 00.63-.522c.18-.26.245-.608.378-1.302l.992-5.212c.047-.244.07-.366.036-.462a.375.375 0 00-.164-.199c-.088-.051-.212-.051-.461-.051H3.429zM7.5 15.75a.75.75 0 11-1.5 0 .75.75 0 011.5 0zm6 0a.75.75 0 11-1.5 0 .75.75 0 011.5 0z" stroke="#575757" stroke-linecap="round" stroke-linejoin="round"/></svg>