<svg width="20" height="20" fill="none" xmlns="http://www.w3.org/2000/svg"><path d="M14.165 8.333V6.667a4.167 4.167 0 00-8.333 0v1.666m4.167 3.75v1.667M7.332 17.5h5.333c1.4 0 2.1 0 2.635-.273a2.5 2.5 0 001.093-1.092c.272-.535.272-1.235.272-2.635v-1.167c0-1.4 0-2.1-.272-2.635A2.5 2.5 0 0015.3 8.606c-.534-.273-1.235-.273-2.635-.273H7.332c-1.4 0-2.1 0-2.635.273a2.5 2.5 0 00-1.092 1.092c-.273.535-.273 1.235-.273 2.635V13.5c0 1.4 0 2.1.273 2.635a2.5 2.5 0 001.092 1.092c.535.273 1.235.273 2.635.273z" stroke="#333" stroke-linecap="round" stroke-linejoin="round"/></svg>