<svg width="20" height="20" fill="none" xmlns="http://www.w3.org/2000/svg"><path d="M6.668 6.666h.008M1.668 4.333V8.06c0 .408 0 .612.046.804.04.17.108.332.2.481.103.169.247.313.535.601l6.39 6.39c.99.99 1.486 1.486 2.056 1.671a2.5 2.5 0 001.546 0c.57-.185 1.065-.68 2.055-1.67l1.844-1.844c.99-.99 1.485-1.485 1.67-2.055a2.5 2.5 0 000-1.546c-.185-.57-.68-1.065-1.67-2.055l-6.391-6.39c-.288-.29-.432-.433-.6-.536a1.666 1.666 0 00-.482-.2c-.192-.046-.396-.046-.804-.046H4.335c-.934 0-1.4 0-1.757.182-.314.16-.569.414-.728.728-.182.357-.182.823-.182 1.757zm5.417 2.333a.417.417 0 11-.834 0 .417.417 0 01.834 0z" stroke="#333" stroke-linecap="round" stroke-linejoin="round"/></svg>