<svg width="20" height="20" fill="none" xmlns="http://www.w3.org/2000/svg"><path d="M10.001 6.666v3.333m0 3.334h.009M1.668 7.102v5.795c0 .204 0 .306.023.402.02.085.054.166.1.24.051.085.123.157.267.3l4.103 4.103c.144.144.216.216.3.268.075.046.156.08.24.1.097.023.199.023.403.023h5.795c.204 0 .306 0 .402-.023a.835.835 0 00.24-.1c.085-.052.157-.124.3-.268l4.103-4.102c.144-.144.216-.216.268-.3a.834.834 0 00.1-.241c.023-.096.023-.198.023-.402V7.102c0-.204 0-.306-.023-.402a.833.833 0 00-.1-.24c-.052-.085-.124-.157-.268-.301l-4.102-4.102c-.144-.145-.216-.217-.3-.268a.832.832 0 00-.241-.1c-.096-.023-.198-.023-.402-.023H7.104c-.204 0-.306 0-.402.023a.833.833 0 00-.24.1c-.085.051-.157.123-.301.268L2.058 6.159c-.144.144-.216.216-.267.3a.834.834 0 00-.1.241c-.023.096-.023.198-.023.402z" stroke="#000" stroke-linecap="round" stroke-linejoin="round"/></svg>