<svg width="20" height="20" viewBox="0 0 20 20" fill="none" xmlns="http://www.w3.org/2000/svg">
<path d="M9.99935 12.4993C11.3801 12.4993 12.4993 11.3801 12.4993 9.99935C12.4993 8.61864 11.3801 7.49935 9.99935 7.49935C8.61864 7.49935 7.49935 8.61864 7.49935 9.99935C7.49935 11.3801 8.61864 12.4993 9.99935 12.4993Z" stroke="black" stroke-linecap="round" stroke-linejoin="round"/>
<path d="M15.6054 12.2721C15.5046 12.5006 15.4745 12.754 15.519 12.9998C15.5636 13.2455 15.6808 13.4723 15.8554 13.6509L15.9009 13.6963C16.0417 13.837 16.1535 14.0041 16.2297 14.1881C16.306 14.372 16.3452 14.5692 16.3452 14.7683C16.3452 14.9674 16.306 15.1646 16.2297 15.3485C16.1535 15.5324 16.0417 15.6995 15.9009 15.8403C15.7601 15.9811 15.593 16.0929 15.4091 16.1691C15.2252 16.2454 15.028 16.2846 14.8289 16.2846C14.6298 16.2846 14.4326 16.2454 14.2487 16.1691C14.0647 16.0929 13.8976 15.9811 13.7569 15.8403L13.7115 15.7948C13.5329 15.6202 13.3062 15.503 13.0604 15.4584C12.8146 15.4139 12.5612 15.444 12.3327 15.5448C12.1086 15.6408 11.9175 15.8003 11.7829 16.0035C11.6483 16.2068 11.5761 16.445 11.5751 16.6887V16.8175C11.5751 17.2194 11.4155 17.6048 11.1313 17.8889C10.8472 18.1731 10.4618 18.3327 10.06 18.3327C9.65811 18.3327 9.27273 18.1731 8.98858 17.8889C8.70444 17.6048 8.5448 17.2194 8.5448 16.8175V16.7493C8.53894 16.4986 8.45777 16.2554 8.31186 16.0514C8.16594 15.8474 7.96203 15.692 7.72662 15.6054C7.49813 15.5046 7.24466 15.4745 6.9989 15.519C6.75315 15.5636 6.52638 15.6808 6.34783 15.8554L6.30238 15.9009C6.16166 16.0417 5.99456 16.1535 5.81062 16.2297C5.62669 16.306 5.42952 16.3452 5.23041 16.3452C5.0313 16.3452 4.83413 16.306 4.6502 16.2297C4.46626 16.1535 4.29916 16.0417 4.15844 15.9009C4.01757 15.7601 3.90581 15.593 3.82956 15.4091C3.75331 15.2252 3.71407 15.028 3.71407 14.8289C3.71407 14.6298 3.75331 14.4326 3.82956 14.2487C3.90581 14.0647 4.01757 13.8976 4.15844 13.7569L4.20389 13.7115C4.37854 13.5329 4.4957 13.3062 4.54026 13.0604C4.58482 12.8146 4.55474 12.5612 4.45389 12.3327C4.35786 12.1086 4.19841 11.9175 3.99516 11.7829C3.79191 11.6483 3.55373 11.5761 3.30996 11.5751H3.18117C2.77932 11.5751 2.39394 11.4155 2.10979 11.1313C1.82565 10.8472 1.66602 10.4618 1.66602 10.06C1.66602 9.65811 1.82565 9.27273 2.10979 8.98858C2.39394 8.70444 2.77932 8.5448 3.18117 8.5448H3.24935C3.5001 8.53894 3.74329 8.45777 3.9473 8.31186C4.15131 8.16594 4.30671 7.96203 4.39329 7.72662C4.49413 7.49813 4.52422 7.24466 4.47966 6.9989C4.4351 6.75315 4.31794 6.52638 4.14329 6.34783L4.09783 6.30238C3.95696 6.16166 3.8452 5.99456 3.76896 5.81062C3.69271 5.62669 3.65346 5.42952 3.65346 5.23041C3.65346 5.0313 3.69271 4.83413 3.76896 4.6502C3.8452 4.46626 3.95696 4.29916 4.09783 4.15844C4.23855 4.01757 4.40565 3.90581 4.58959 3.82956C4.77353 3.75331 4.97069 3.71407 5.1698 3.71407C5.36892 3.71407 5.56608 3.75331 5.75002 3.82956C5.93395 3.90581 6.10106 4.01757 6.24177 4.15844L6.28723 4.20389C6.46577 4.37854 6.69254 4.4957 6.9383 4.54026C7.18405 4.58482 7.43752 4.55474 7.66602 4.45389H7.72662C7.95069 4.35786 8.14179 4.19841 8.27639 3.99516C8.41099 3.79191 8.48323 3.55373 8.4842 3.30996V3.18117C8.4842 2.77932 8.64383 2.39394 8.92798 2.10979C9.21212 1.82565 9.59751 1.66602 9.99935 1.66602C10.4012 1.66602 10.7866 1.82565 11.0707 2.10979C11.3549 2.39394 11.5145 2.77932 11.5145 3.18117V3.24935C11.5155 3.49313 11.5877 3.7313 11.7223 3.93455C11.8569 4.1378 12.048 4.29726 12.2721 4.39329C12.5006 4.49413 12.754 4.52422 12.9998 4.47966C13.2455 4.4351 13.4723 4.31794 13.6509 4.14329L13.6963 4.09783C13.837 3.95696 14.0041 3.8452 14.1881 3.76896C14.372 3.69271 14.5692 3.65346 14.7683 3.65346C14.9674 3.65346 15.1646 3.69271 15.3485 3.76896C15.5324 3.8452 15.6995 3.95696 15.8403 4.09783C15.9811 4.23855 16.0929 4.40565 16.1691 4.58959C16.2454 4.77353 16.2846 4.97069 16.2846 5.1698C16.2846 5.36892 16.2454 5.56608 16.1691 5.75002C16.0929 5.93395 15.9811 6.10106 15.8403 6.24177L15.7948 6.28723C15.6202 6.46577 15.503 6.69254 15.4584 6.9383C15.4139 7.18405 15.444 7.43752 15.5448 7.66602V7.72662C15.6408 7.95069 15.8003 8.14179 16.0035 8.27639C16.2068 8.41099 16.445 8.48323 16.6887 8.4842H16.8175C17.2194 8.4842 17.6048 8.64383 17.8889 8.92798C18.1731 9.21212 18.3327 9.59751 18.3327 9.99935C18.3327 10.4012 18.1731 10.7866 17.8889 11.0707C17.6048 11.3549 17.2194 11.5145 16.8175 11.5145H16.7493C16.5056 11.5155 16.2674 11.5877 16.0641 11.7223C15.8609 11.8569 15.7014 12.048 15.6054 12.2721Z" stroke="black" stroke-linecap="round" stroke-linejoin="round"/>
</svg>
