<svg width="20" height="20" fill="none" xmlns="http://www.w3.org/2000/svg"><path d="M18.335 6.667v3.334M8.543 4.584H5.668c-1.4 0-2.1 0-2.635.272A2.5 2.5 0 001.94 5.95c-.272.535-.272 1.235-.272 2.635v1c0 .777 0 1.165.127 1.471.169.409.493.733.902.902.306.127.694.127 1.471.127v3.542c0 .193 0 .29.008.371a1.667 1.667 0 001.495 1.496c.082.008.178.008.372.008.193 0 .29 0 .372-.008a1.667 1.667 0 001.495-1.496c.008-.081.008-.178.008-.371v-3.542h.625c1.472 0 3.273.79 4.662 1.546.81.442 1.216.663 1.48.63a.789.789 0 00.577-.342c.156-.217.156-.652.156-1.523V4.273c0-.87 0-1.306-.156-1.523a.789.789 0 00-.576-.343c-.265-.032-.67.189-1.481.63-1.39.758-3.19 1.547-4.662 1.547z" stroke="#333" stroke-linecap="round" stroke-linejoin="round"/></svg>