<svg width="16" height="16" viewBox="0 0 16 16" fill="none" xmlns="http://www.w3.org/2000/svg">
<rect width="16" height="16" fill="white"/>
<path d="M7.52176 2.30217C7.67542 1.99088 7.75225 1.83523 7.85655 1.7855C7.94729 1.74224 8.05272 1.74224 8.14347 1.7855C8.24776 1.83523 8.32459 1.99088 8.47825 2.30217L9.93604 5.25548C9.9814 5.34738 10.0041 5.39333 10.0372 5.42901C10.0666 5.4606 10.1018 5.48619 10.1409 5.50437C10.185 5.52491 10.2357 5.53232 10.3371 5.54714L13.598 6.02376C13.9414 6.07395 14.1131 6.09905 14.1925 6.18292C14.2616 6.25589 14.2942 6.35616 14.281 6.45581C14.2659 6.57034 14.1416 6.69141 13.893 6.93355L11.5343 9.23091C11.4608 9.30252 11.424 9.33833 11.4003 9.38093C11.3793 9.41866 11.3658 9.4601 11.3606 9.50296C11.3547 9.55137 11.3634 9.60196 11.3808 9.70312L11.9373 12.948C11.996 13.2903 12.0254 13.4614 11.9702 13.563C11.9222 13.6513 11.8369 13.7133 11.738 13.7316C11.6244 13.7527 11.4707 13.6719 11.1634 13.5102L8.24825 11.9772C8.15742 11.9294 8.112 11.9055 8.06416 11.8961C8.02179 11.8878 7.97822 11.8878 7.93586 11.8961C7.88801 11.9055 7.8426 11.9294 7.75177 11.9772L4.83661 13.5102C4.52927 13.6719 4.3756 13.7527 4.26198 13.7316C4.16312 13.7133 4.07781 13.6513 4.02982 13.563C3.97466 13.4614 4.00401 13.2903 4.06271 12.948L4.61925 9.70312C4.6366 9.60196 4.64528 9.55137 4.63941 9.50296C4.63421 9.4601 4.62074 9.41866 4.59973 9.38093C4.57601 9.33833 4.53925 9.30252 4.46572 9.2309L2.10703 6.93355C1.85844 6.69141 1.73414 6.57034 1.71901 6.45581C1.70585 6.35616 1.73836 6.25589 1.8075 6.18292C1.88695 6.09905 2.05864 6.07395 2.40202 6.02376L5.66287 5.54714C5.76428 5.53232 5.81498 5.52491 5.85914 5.50437C5.89824 5.48619 5.93344 5.4606 5.96279 5.42901C5.99593 5.39333 6.01861 5.34738 6.06398 5.25548L7.52176 2.30217Z" fill="#F6CA2D"/>
</svg>
