<svg width="14" height="15" viewBox="0 0 14 15" fill="none" xmlns="http://www.w3.org/2000/svg">
<path d="M1.41174 7.9161C1.3323 7.79031 1.29257 7.72742 1.27034 7.63041C1.25364 7.55754 1.25364 7.44262 1.27034 7.36976C1.29257 7.27275 1.3323 7.20985 1.41174 7.08406C2.06823 6.04457 4.02232 3.41675 7.00024 3.41675C9.97815 3.41675 11.9322 6.04457 12.5887 7.08406C12.6682 7.20985 12.7079 7.27275 12.7301 7.36976C12.7468 7.44262 12.7468 7.55754 12.7301 7.63041C12.7079 7.72742 12.6682 7.79031 12.5887 7.9161C11.9322 8.95559 9.97815 11.5834 7.00024 11.5834C4.02232 11.5834 2.06823 8.95559 1.41174 7.9161Z" stroke="#575757" stroke-linecap="round" stroke-linejoin="round"/>
<path d="M7.00024 9.25008C7.96673 9.25008 8.75024 8.46658 8.75024 7.50008C8.75024 6.53358 7.96673 5.75008 7.00024 5.75008C6.03374 5.75008 5.25024 6.53358 5.25024 7.50008C5.25024 8.46658 6.03374 9.25008 7.00024 9.25008Z" stroke="#575757" stroke-linecap="round" stroke-linejoin="round"/>
</svg>
