<svg width="20" height="20" fill="none" xmlns="http://www.w3.org/2000/svg"><path d="M7.5 9.583l1.667 1.667 3.75-3.75m3.75 2.5c0 4.09-4.462 7.065-6.085 8.012-.185.108-.277.162-.407.19a.946.946 0 01-.35 0c-.13-.028-.222-.082-.406-.19C7.794 17.066 3.332 14.09 3.332 10V6.015c0-.667 0-1 .11-1.286.096-.253.252-.479.455-.658.23-.202.542-.32 1.166-.553l4.468-1.676c.173-.065.26-.097.349-.11a.832.832 0 01.238 0c.09.013.176.045.35.11l4.468 1.676c.623.234.935.35 1.165.553.203.18.36.405.456.658.109.286.109.62.109 1.286V10z" stroke="#333" stroke-linecap="round" stroke-linejoin="round"/></svg>