<svg width="20" height="20" viewBox="0 0 20 20" fill="none" xmlns="http://www.w3.org/2000/svg">
<path d="M12.6666 6.66667C12.6666 6.04669 12.6666 5.7367 12.5985 5.48236C12.4136 4.79218 11.8745 4.25308 11.1843 4.06815C10.93 4 10.62 4 9.99998 4C9.38 4 9.07001 4 8.81568 4.06815C8.12549 4.25308 7.5864 4.79218 7.40146 5.48236C7.33331 5.7367 7.33331 6.04669 7.33331 6.66667M10.5333 13.6667H13.8C13.9867 13.6667 14.08 13.6667 14.1513 13.6303C14.214 13.5984 14.265 13.5474 14.297 13.4847C14.3333 13.4134 14.3333 13.32 14.3333 13.1333V11.5333C14.3333 11.3466 14.3333 11.2533 14.297 11.182C14.265 11.1193 14.214 11.0683 14.1513 11.0363C14.08 11 13.9867 11 13.8 11H10.5333C10.3466 11 10.2533 11 10.182 11.0363C10.1193 11.0683 10.0683 11.1193 10.0363 11.182C9.99998 11.2533 9.99998 11.3466 9.99998 11.5333V13.1333C9.99998 13.32 9.99998 13.4134 10.0363 13.4847C10.0683 13.5474 10.1193 13.5984 10.182 13.6303C10.2533 13.6667 10.3466 13.6667 10.5333 13.6667ZM6.53331 16H13.4666C14.5868 16 15.1468 16 15.5746 15.782C15.951 15.5903 16.2569 15.2843 16.4487 14.908C16.6666 14.4802 16.6666 13.9201 16.6666 12.8V9.86667C16.6666 8.74656 16.6666 8.18651 16.4487 7.75869C16.2569 7.38236 15.951 7.0764 15.5746 6.88465C15.1468 6.66667 14.5868 6.66667 13.4666 6.66667H6.53331C5.41321 6.66667 4.85316 6.66667 4.42533 6.88465C4.04901 7.0764 3.74305 7.38236 3.5513 7.75869C3.33331 8.18651 3.33331 8.74656 3.33331 9.86667V12.8C3.33331 13.9201 3.33331 14.4802 3.5513 14.908C3.74305 15.2843 4.04901 15.5903 4.42533 15.782C4.85316 16 5.41321 16 6.53331 16Z" stroke="#575757" stroke-linecap="round" stroke-linejoin="round"/>
</svg>
