<svg width="18" height="18" fill="none" xmlns="http://www.w3.org/2000/svg"><path d="M10.147 6.264a2.625 2.625 0 11.706-3.528M4.5 15.066h1.958c.255 0 .509.03.756.09l2.069.503c.449.11.916.12 1.37.032l2.287-.445a3.154 3.154 0 001.595-.83l1.618-1.575a1.127 1.127 0 000-1.626 1.208 1.208 0 00-1.545-.107l-1.886 1.376a1.59 1.59 0 01-.937.303h-1.82 1.158c.654 0 1.183-.514 1.183-1.15v-.23c0-.528-.37-.988-.895-1.116l-1.79-.435a3.77 3.77 0 00-.889-.106c-.723 0-2.033.6-2.033.6l-2.199.919M15 4.875a2.625 2.625 0 11-5.25 0 2.625 2.625 0 015.25 0zM1.5 10.95v4.35c0 .42 0 .63.082.79a.75.75 0 00.328.328c.16.082.37.082.79.082h.6c.42 0 .63 0 .79-.082a.75.75 0 00.328-.328c.082-.16.082-.37.082-.79v-4.35c0-.42 0-.63-.082-.79a.75.75 0 00-.328-.328c-.16-.082-.37-.082-.79-.082h-.6c-.42 0-.63 0-.79.082a.75.75 0 00-.328.327c-.082.16-.082.371-.082.791z" stroke="#575757" stroke-linecap="round" stroke-linejoin="round"/></svg>