<svg width="20" height="20" viewBox="0 0 20 20" fill="none" xmlns="http://www.w3.org/2000/svg">
<g clip-path="url(#clip0_3070_15901)">
<path d="M11.0184 7.56807C10.6367 7.84013 10.1697 8.00016 9.66536 8.00016C8.3767 8.00016 7.33203 6.95549 7.33203 5.66683C7.33203 4.37816 8.3767 3.3335 9.66536 3.3335C10.5007 3.3335 11.2335 3.77244 11.6457 4.43226M5.9987 15.3916H7.73889C7.96578 15.3916 8.19129 15.4186 8.41124 15.4726L10.25 15.9194C10.6489 16.0166 11.0645 16.0261 11.4677 15.9478L13.5007 15.5522C14.0377 15.4476 14.5318 15.1905 14.9189 14.8138L16.3573 13.4146C16.7681 13.0157 16.7681 12.3685 16.3573 11.9689C15.9875 11.6091 15.4018 11.5686 14.9835 11.8737L13.3071 13.0967C13.067 13.2722 12.7749 13.3667 12.4745 13.3667H10.8557L11.8861 13.3667C12.4668 13.3667 12.9373 12.909 12.9373 12.3441V12.1396C12.9373 11.6705 12.6091 11.2615 12.1414 11.1481L10.5511 10.7613C10.2923 10.6986 10.0272 10.6668 9.76079 10.6668C9.11759 10.6668 7.95329 11.1994 7.95329 11.1994L5.9987 12.0168M15.332 6.3335C15.332 7.62216 14.2874 8.66683 12.9987 8.66683C11.71 8.66683 10.6654 7.62216 10.6654 6.3335C10.6654 5.04483 11.71 4.00016 12.9987 4.00016C14.2874 4.00016 15.332 5.04483 15.332 6.3335ZM3.33203 11.7335L3.33203 15.6002C3.33203 15.9735 3.33203 16.1602 3.40469 16.3028C3.46861 16.4283 3.5706 16.5303 3.69604 16.5942C3.83865 16.6668 4.02533 16.6668 4.3987 16.6668H4.93203C5.3054 16.6668 5.49208 16.6668 5.63469 16.5942C5.76013 16.5303 5.86212 16.4283 5.92604 16.3028C5.9987 16.1602 5.9987 15.9735 5.9987 15.6002V11.7335C5.9987 11.3601 5.9987 11.1734 5.92604 11.0308C5.86212 10.9054 5.76013 10.8034 5.63469 10.7395C5.49208 10.6668 5.3054 10.6668 4.93203 10.6668L4.3987 10.6668C4.02533 10.6668 3.83865 10.6668 3.69604 10.7395C3.5706 10.8034 3.46861 10.9054 3.40469 11.0308C3.33203 11.1734 3.33203 11.3601 3.33203 11.7335Z" stroke="#575757" stroke-linecap="round" stroke-linejoin="round"/>
</g>
<defs>
<clipPath id="clip0_3070_15901">
<rect width="16" height="16" fill="white" transform="translate(2 2)"/>
</clipPath>
</defs>
</svg>
