<svg width="20" height="20" viewBox="0 0 20 20" fill="none" xmlns="http://www.w3.org/2000/svg">
<path d="M10.8327 4.16667C10.8327 5.08714 8.78065 5.83333 6.24935 5.83333C3.71804 5.83333 1.66602 5.08714 1.66602 4.16667M10.8327 4.16667C10.8327 3.24619 8.78065 2.5 6.24935 2.5C3.71804 2.5 1.66602 3.24619 1.66602 4.16667M10.8327 4.16667V7.88096C9.81476 8.18665 9.16602 8.64911 9.16602 9.16667M1.66602 4.16667V14.1667C1.66602 15.0871 3.71804 15.8333 6.24935 15.8333C7.35737 15.8333 8.37357 15.6904 9.16602 15.4524V9.16667M1.66602 7.5C1.66602 8.42047 3.71804 9.16667 6.24935 9.16667C7.35737 9.16667 8.37357 9.02369 9.16602 8.78571M1.66602 10.8333C1.66602 11.7538 3.71804 12.5 6.24935 12.5C7.35737 12.5 8.37357 12.357 9.16602 12.119M18.3327 9.16667C18.3327 10.0871 16.2807 10.8333 13.7493 10.8333C11.218 10.8333 9.16602 10.0871 9.16602 9.16667M18.3327 9.16667C18.3327 8.24619 16.2807 7.5 13.7493 7.5C11.218 7.5 9.16602 8.24619 9.16602 9.16667M18.3327 9.16667V15.8333C18.3327 16.7538 16.2807 17.5 13.7493 17.5C11.218 17.5 9.16602 16.7538 9.16602 15.8333V9.16667M18.3327 12.5C18.3327 13.4205 16.2807 14.1667 13.7493 14.1667C11.218 14.1667 9.16602 13.4205 9.16602 12.5" stroke="black" stroke-linecap="round" stroke-linejoin="round"/>
</svg>
