<svg width="20" height="20" fill="none" xmlns="http://www.w3.org/2000/svg"><path d="M15.835 17.5l-2.5-2.5m0 0l2.5-2.5m-2.5 2.5h5M10 12.917H6.25c-1.163 0-1.744 0-2.217.143a3.333 3.333 0 00-2.222 2.222c-.144.473-.144 1.055-.144 2.218M12.085 6.25a3.75 3.75 0 11-7.5 0 3.75 3.75 0 017.5 0z" stroke="#333" stroke-linecap="round" stroke-linejoin="round"/><path d="M8 15.5a3.5 3.5 0 013.5-3.5H19v8H8v-4.5z" fill="#fff"/><rect x="7" y="11.115" width="12" height="7.885" rx="3.942" fill="#FA7C21"/><path d="M13.814 16.652v-.372l1.64-2.43h-1.65v-.5h2.365v.372l-1.64 2.43h1.65v.5h-2.365zm-.444-3.302v3.303h-.573V13.35h.573zm-3.335 3.302V13.35h1.223c.692 0 1.034.364 1.034.858 0 .4-.245.625-.557.701v.032c.34.02.682.312.682.812 0 .514-.358.9-1.09.9h-1.292zm.573-.496h.628c.422 0 .598-.186.598-.448 0-.297-.224-.523-.58-.523h-.646v.97zm0-1.4h.578c.303 0 .533-.182.533-.474 0-.255-.178-.44-.52-.44h-.59v.914z" fill="#fff"/></svg>