<svg width="54" height="54" fill="none" xmlns="http://www.w3.org/2000/svg"><circle cx="27" cy="27" r="27" fill="url(#paint0_linear_2374_5108)"/><path d="M25.914 18.333h-4.55c-1.82 0-2.73 0-3.425.355a3.25 3.25 0 00-1.42 1.42c-.355.695-.355 1.605-.355 3.425v9.1c0 1.82 0 2.73.354 3.426a3.25 3.25 0 001.42 1.42c.696.354 1.606.354 3.426.354h9.1c1.82 0 2.73 0 3.425-.354a3.25 3.25 0 001.42-1.42c.355-.695.355-1.606.355-3.426v-4.55m-13 3.25h1.814c.53 0 .795 0 1.044-.06.222-.053.433-.14.627-.259.218-.134.406-.321.78-.696l10.36-10.36a2.298 2.298 0 00-3.25-3.25l-10.36 10.36c-.374.375-.562.562-.696.78a2.168 2.168 0 00-.26.627c-.059.25-.059.514-.059 1.044v1.814z" stroke="#fff" stroke-linecap="round" stroke-linejoin="round"/><defs><linearGradient id="paint0_linear_2374_5108" x1="12.42" y1="2.7" x2="37.26" y2="54" gradientUnits="userSpaceOnUse"><stop stop-color="#EC7F81"/><stop offset="1" stop-color="#DD2C2F"/></linearGradient></defs></svg>