<svg width="16" height="16" fill="none" xmlns="http://www.w3.org/2000/svg"><circle cx="8" cy="8" r="8" fill="#C72528"/><path d="M9.147 6.542c-.05-.542-.449-.858-1.093-.858-.665 0-1.037.33-1.037.778-.01.499.464.718 1.012.855l.573.15c1.084.262 1.892.857 1.898 1.995-.006 1.243-.91 2.038-2.455 2.038-1.53 0-2.508-.761-2.545-2.218h1.279c.043.685.55 1.027 1.25 1.027.69 0 1.137-.342 1.14-.854-.003-.462-.393-.679-1.084-.861l-.693-.183c-1.068-.28-1.728-.852-1.725-1.856C5.661 5.321 6.68 4.5 8.063 4.5c1.406 0 2.332.835 2.35 2.042H9.147z" fill="#fff"/></svg>