<svg width="20" height="20" viewBox="0 0 20 20" fill="none" xmlns="http://www.w3.org/2000/svg">
<path d="M12.5001 15.8333C12.5001 17.214 11.3808 18.3333 10.0001 18.3333C8.61941 18.3333 7.50013 17.214 7.50013 15.8333M11.4972 5.19876C11.8601 4.82383 12.0835 4.31297 12.0835 3.74996C12.0835 2.59937 11.1507 1.66663 10.0001 1.66663C8.84953 1.66663 7.91679 2.59937 7.91679 3.74996C7.91679 4.31297 8.14013 4.82383 8.50304 5.19876M2.12248 6.93576C2.11052 5.7263 2.76259 4.59689 3.81599 4.00251M17.8778 6.93576C17.8897 5.7263 17.2377 4.59689 16.1843 4.00251M15.0001 9.33329C15.0001 8.18402 14.4733 7.08182 13.5357 6.26916C12.598 5.45651 11.3262 4.99996 10.0001 4.99996C8.67404 4.99996 7.40227 5.45651 6.46459 6.26916C5.52691 7.08182 5.00013 8.18402 5.00013 9.33329C5.00013 11.2348 4.52857 12.6254 3.94018 13.6205C3.26957 14.7546 2.93427 15.3217 2.94751 15.4572C2.96266 15.6121 2.99056 15.661 3.11624 15.753C3.2261 15.8333 3.77805 15.8333 4.88195 15.8333H15.1183C16.2222 15.8333 16.7742 15.8333 16.884 15.753C17.0097 15.661 17.0376 15.6121 17.0527 15.4572C17.066 15.3217 16.7307 14.7546 16.0601 13.6205C15.4717 12.6254 15.0001 11.2348 15.0001 9.33329Z" stroke="#333333" stroke-linecap="round" stroke-linejoin="round"/>
</svg>
