<svg width="13" height="12" viewBox="0 0 13 12" fill="none" xmlns="http://www.w3.org/2000/svg">
<path d="M1 2H12" stroke="#888888" stroke-linecap="round"/>
<path d="M1 6H12" stroke="#888888" stroke-linecap="round"/>
<path d="M1 10H12" stroke="#888888" stroke-linecap="round"/>
<path d="M4.90022 2C4.90022 2.50851 4.43126 3 3.75022 3C3.06918 3 2.60022 2.50851 2.60022 2C2.60022 1.49149 3.06918 1 3.75022 1C4.43126 1 4.90022 1.49149 4.90022 2Z" fill="#F4F6F7" stroke="#888888"/>
<path d="M10.4002 6C10.4002 6.50851 9.93126 7 9.25022 7C8.56918 7 8.10022 6.50851 8.10022 6C8.10022 5.49149 8.56918 5 9.25022 5C9.93126 5 10.4002 5.49149 10.4002 6Z" fill="#F4F6F7" stroke="#888888"/>
<path d="M4.90022 10C4.90022 10.5085 4.43126 11 3.75022 11C3.06918 11 2.60022 10.5085 2.60022 10C2.60022 9.49149 3.06918 9 3.75022 9C4.43126 9 4.90022 9.49149 4.90022 10Z" fill="#F4F6F7" stroke="#888888"/>
</svg>
