<svg width="16" height="16" viewBox="0 0 16 16" fill="none" xmlns="http://www.w3.org/2000/svg">
<g clip-path="url(#clip0_5678_102475)">
<path d="M7.99998 14.6666C11.6819 14.6666 14.6666 11.6819 14.6666 7.99998C14.6666 4.31808 11.6819 1.33331 7.99998 1.33331C4.31808 1.33331 1.33331 4.31808 1.33331 7.99998C1.33331 11.6819 4.31808 14.6666 7.99998 14.6666Z" fill="#575757"/>
<path d="M7.99998 10.6666V7.99998M7.99998 5.33331H8.00665M14.6666 7.99998C14.6666 11.6819 11.6819 14.6666 7.99998 14.6666C4.31808 14.6666 1.33331 11.6819 1.33331 7.99998C1.33331 4.31808 4.31808 1.33331 7.99998 1.33331C11.6819 1.33331 14.6666 4.31808 14.6666 7.99998Z" stroke="white" stroke-width="1.4" stroke-linecap="round" stroke-linejoin="round"/>
</g>
<defs>
<clipPath id="clip0_5678_102475">
<rect width="16" height="16" fill="white"/>
</clipPath>
</defs>
</svg>
