<svg width="22" height="22" fill="none" xmlns="http://www.w3.org/2000/svg"><path d="M16.5 14.517c1.335.67 2.479 1.747 3.314 3.092.166.266.248.4.277.584.058.375-.199.836-.548.984-.171.073-.365.073-.751.073m-4.125-8.679a4.125 4.125 0 000-7.392m-1.834 3.696a4.125 4.125 0 11-8.25 0 4.125 4.125 0 018.25 0zM2.346 17.36c1.462-2.194 3.768-3.61 6.362-3.61 2.595 0 4.901 1.416 6.363 3.61.32.48.48.721.462 1.028a1.016 1.016 0 01-.362.676c-.246.186-.583.186-1.258.186H3.503c-.674 0-1.011 0-1.257-.186a1.016 1.016 0 01-.362-.676c-.018-.307.142-.547.462-1.028z" stroke="#333" stroke-linecap="round" stroke-linejoin="round"/></svg>