<svg width="22" height="22" fill="none" xmlns="http://www.w3.org/2000/svg"><path d="M12.4 7.657a3.208 3.208 0 11.863-4.312M5.5 18.414h2.39c.312 0 .623.037.925.111l2.528.615c.549.133 1.12.146 1.675.039l2.795-.544a3.854 3.854 0 001.95-1.016l1.978-1.923a1.378 1.378 0 000-1.988 1.476 1.476 0 00-1.89-.131l-2.304 1.681a1.94 1.94 0 01-1.145.372h-2.226 1.417c.798 0 1.445-.63 1.445-1.406v-.282c0-.645-.451-1.207-1.094-1.363l-2.187-.532a4.608 4.608 0 00-1.086-.13c-.885 0-2.486.733-2.486.733L5.5 13.773M18.332 5.96a3.208 3.208 0 11-6.417 0 3.208 3.208 0 016.417 0zm-16.5 7.425v5.317c0 .513 0 .77.1.966a.917.917 0 00.4.4c.197.1.453.1.967.1h.733c.513 0 .77 0 .966-.1a.917.917 0 00.4-.4c.1-.196.1-.453.1-.966v-5.317c0-.513 0-.77-.1-.966a.917.917 0 00-.4-.4c-.196-.1-.453-.1-.966-.1h-.733c-.514 0-.77 0-.966.1a.917.917 0 00-.401.4c-.1.196-.1.453-.1.966z" stroke="#333" stroke-linecap="round" stroke-linejoin="round"/></svg>