<svg width="22" height="22" fill="none" xmlns="http://www.w3.org/2000/svg"><path d="M9.165 13.75l-2.819 2.855c-.393.398-.59.597-.758.611a.458.458 0 01-.386-.158c-.11-.13-.11-.409-.11-.968v-1.43c0-.502-.412-.866-.909-.938v0a2.75 2.75 0 01-2.322-2.323c-.029-.198-.029-.434-.029-.908V6.234c0-1.54 0-2.31.3-2.898a2.75 2.75 0 011.202-1.202c.588-.3 1.358-.3 2.898-.3h6.783c1.54 0 2.31 0 2.899.3a2.75 2.75 0 011.202 1.202c.3.588.3 1.358.3 2.898v3.85m0 10.083L15.42 18.78c-.28-.195-.42-.292-.573-.361a1.832 1.832 0 00-.424-.133c-.165-.03-.336-.03-.677-.03h-1.647c-1.027 0-1.54 0-1.933-.2a1.833 1.833 0 01-.8-.802c-.2-.392-.2-.905-.2-1.932v-2.305c0-1.026 0-1.54.2-1.932.175-.345.455-.625.8-.801.393-.2.906-.2 1.933-.2h5.133c1.027 0 1.54 0 1.932.2.345.176.626.456.801.801.2.392.2.906.2 1.932v2.488c0 .855 0 1.282-.14 1.619a1.829 1.829 0 01-.991.992c-.337.14-.764.14-1.619.14v1.911z" stroke="#333" stroke-linecap="round" stroke-linejoin="round"/></svg>