<svg width="24" height="24" viewBox="0 0 24 24" fill="none" xmlns="http://www.w3.org/2000/svg">
<path fill-rule="evenodd" clip-rule="evenodd" d="M6.80001 2.50001L6.74972 2.49997C6.50632 2.49971 6.29191 2.49947 6.08809 2.55768C5.90925 2.60876 5.74147 2.69265 5.5933 2.80508C5.42444 2.93321 5.29599 3.10487 5.15016 3.29976L5.12001 3.34001L3.56001 5.42001L3.5468 5.43763L3.52086 5.47221L3.24001 5.84668L3.24621 5.85132L3.24001 5.84668L3.21254 5.8833C3.00136 6.16473 2.85511 6.35963 2.74939 6.57825C2.65587 6.77162 2.58766 6.97624 2.54646 7.18704C2.49987 7.42537 2.49992 7.66904 2.50001 8.02089L2.50001 8.06668L2.50001 17.8L2.50001 17.8214C2.50001 18.3633 2.5 18.8004 2.52892 19.1543C2.5587 19.5187 2.6216 19.8388 2.7725 20.135C3.01218 20.6054 3.39463 20.9878 3.86504 21.2275C4.16118 21.3784 4.48128 21.4413 4.8457 21.4711C5.19964 21.5 5.63671 21.5 6.1786 21.5H6.20001L17.8 21.5H17.8214C18.3633 21.5 18.8004 21.5 19.1543 21.4711C19.5187 21.4413 19.8388 21.3784 20.135 21.2275C20.6054 20.9878 20.9878 20.6054 21.2275 20.135C21.3784 19.8388 21.4413 19.5187 21.4711 19.1543C21.5 18.8004 21.5 18.3633 21.5 17.8214V17.8V8.06668L21.5 8.0209V8.02085C21.5001 7.66902 21.5002 7.42536 21.4536 7.18704C21.4124 6.97624 21.3442 6.77162 21.2506 6.57825C21.1449 6.35964 20.9987 6.16474 20.7875 5.88331L20.7875 5.88328L20.76 5.84668L20.4789 5.47183L20.4533 5.43769L20.44 5.42001L18.88 3.34001L18.8499 3.29975C18.704 3.10487 18.5756 2.9332 18.4067 2.80508C18.2586 2.69265 18.0908 2.60876 17.9119 2.55768C17.7081 2.49947 17.4937 2.49971 17.2503 2.49997L17.2 2.50001L13.5 2.50001H12.5H11.5H10.5L6.80001 2.50001ZM10.5 3.50001L6.80001 3.50001C6.4777 3.50001 6.4142 3.50453 6.36271 3.51923C6.30309 3.53626 6.24717 3.56422 6.19778 3.6017C6.15512 3.63407 6.1134 3.68216 5.92001 3.94001L4.36001 6.02001L4.35994 6.02011C4.19951 6.23401 4.10041 6.36699 4.03845 6.46747L4.02694 6.48654L4.04911 6.48879C4.16668 6.49951 4.33256 6.50001 4.60001 6.50001L10.5 6.50001V3.50001ZM11.5 6.50001H12.5V3.50001H11.5V6.50001ZM13.5 3.50001V6.50001L19.4 6.50001C19.6675 6.50001 19.8333 6.49951 19.9509 6.48879L19.9731 6.48654L19.9616 6.46747C19.8996 6.36697 19.8005 6.23397 19.64 6.02001L18.08 3.94001C17.8866 3.68216 17.8449 3.63407 17.8023 3.6017C17.7529 3.56422 17.6969 3.53626 17.6373 3.51923C17.5858 3.50453 17.5223 3.50001 17.2 3.50001L13.5 3.50001ZM10.5 7.50001H11.5H12.5H13.5L19.4 7.50001L19.422 7.50001C19.6606 7.50002 19.8731 7.50004 20.0417 7.48465C20.1666 7.47326 20.3227 7.4502 20.4719 7.37748L20.4721 7.3789C20.4979 7.51048 20.5 7.65191 20.5 8.06668V17.8C20.5 18.3683 20.4996 18.7645 20.4744 19.0729C20.4497 19.3755 20.4036 19.5493 20.3365 19.681C20.1927 19.9632 19.9632 20.1927 19.681 20.3365C19.5493 20.4036 19.3755 20.4497 19.0729 20.4744C18.7645 20.4996 18.3683 20.5 17.8 20.5L6.20001 20.5C5.63171 20.5 5.23555 20.4996 4.92713 20.4744C4.62455 20.4497 4.45071 20.4036 4.31903 20.3365C4.03678 20.1927 3.80731 19.9632 3.6635 19.681C3.59641 19.5493 3.55032 19.3755 3.5256 19.0729C3.5004 18.7645 3.50001 18.3683 3.50001 17.8L3.50001 8.06668C3.50001 7.65191 3.50216 7.51048 3.52788 7.3789L3.52816 7.37748C3.67729 7.4502 3.83341 7.47326 3.95828 7.48465C4.12697 7.50004 4.33942 7.50002 4.57799 7.50001H4.578L4.60001 7.50001L10.5 7.50001Z" fill="#E45659"/>
<path d="M9.04672 18L8.22358 14.9641H7V14.0359H7.96774L7.14461 11H8.67964L9.40267 14.0359H10.4816L11.2825 11H12.7175L13.5184 14.0359H14.6085L15.3204 11H16.8554L16.0323 14.0359H17V14.9641H15.7764L14.9533 18H13.3293L12.5395 14.9641H11.4716L10.6707 18H9.04672ZM9.62514 14.9641L9.88098 16.0566H9.94772L10.2369 14.9641H9.62514ZM11.7164 14.0359H12.2948L12.0278 13.0304H11.9722L11.7164 14.0359ZM13.7631 14.9641L14.0523 16.0663H14.119L14.386 14.9641H13.7631Z" fill="#E45659"/>
</svg>
