<svg width="20" height="20" viewBox="0 0 20 20" fill="none" xmlns="http://www.w3.org/2000/svg">
<path d="M13.3334 15L15 16.6666L18.3334 13.3333M18.3334 8.33329H1.66669M18.3334 9.99996V6.83329C18.3334 5.89987 18.3334 5.43316 18.1517 5.07664C17.9919 4.76304 17.7369 4.50807 17.4233 4.34828C17.0668 4.16663 16.6001 4.16663 15.6667 4.16663H4.33335C3.39993 4.16663 2.93322 4.16663 2.5767 4.34828C2.2631 4.50807 2.00813 4.76304 1.84834 5.07664C1.66669 5.43316 1.66669 5.89987 1.66669 6.83329V13.1666C1.66669 14.1 1.66669 14.5668 1.84834 14.9233C2.00813 15.2369 2.2631 15.4918 2.5767 15.6516C2.93322 15.8333 3.39993 15.8333 4.33335 15.8333H10" stroke="#888888" stroke-linecap="round" stroke-linejoin="round"/>
</svg>
