<svg width="16" height="16" viewBox="0 0 16 16" fill="none" xmlns="http://www.w3.org/2000/svg">
<path fill-rule="evenodd" clip-rule="evenodd" d="M10.8672 4.15143C10.5334 4.15143 10.263 4.42187 10.263 4.75564C10.263 5.08942 10.5334 5.35985 10.8672 5.35985C11.201 5.35985 11.4714 5.08942 11.4714 4.75564C11.4714 4.42187 11.201 4.15143 10.8672 4.15143ZM9.4209 4.75564C9.4209 3.95679 10.0684 3.30933 10.8672 3.30933C11.6661 3.30933 12.3135 3.95679 12.3135 4.75564C12.3135 5.5545 11.6661 6.20196 10.8672 6.20196C10.0684 6.20196 9.4209 5.5545 9.4209 4.75564Z" fill="#888888"/>
<path fill-rule="evenodd" clip-rule="evenodd" d="M2.94737 0.842105C1.78466 0.842105 0.842105 1.78466 0.842105 2.94737V13.0526C0.842105 14.2153 1.78466 15.1579 2.94737 15.1579H13.0526C14.2153 15.1579 15.1579 14.2153 15.1579 13.0526V2.94737C15.1579 1.78466 14.2153 0.842105 13.0526 0.842105H2.94737ZM0 2.94737C0 1.31958 1.31958 0 2.94737 0H13.0526C14.6804 0 16 1.31958 16 2.94737V13.0526C16 14.6804 14.6804 16 13.0526 16H2.94737C1.31958 16 0 14.6804 0 13.0526V2.94737Z" fill="#888888"/>
<path d="M13.1811 11.9159L10.7179 8.74954C10.5979 8.59586 10.339 8.59586 10.219 8.74954L9.23584 10.0127L10.7158 11.9159C10.7895 12.0106 10.8043 12.139 10.7495 12.2485C10.6969 12.358 10.5853 12.4253 10.4653 12.4253H12.9285C13.0485 12.4253 13.1601 12.3559 13.2127 12.2485C13.2653 12.1411 13.2527 12.0106 13.179 11.9159H13.1811Z" fill="#888888"/>
<path fill-rule="evenodd" clip-rule="evenodd" d="M10.4686 8.21313C10.671 8.21313 10.8976 8.29513 11.05 8.49032L11.0504 8.49092L13.5136 11.6572C13.5258 11.673 13.5369 11.6894 13.5466 11.7065C13.6885 11.9237 13.7047 12.2015 13.5909 12.4337C13.4673 12.6859 13.2088 12.8463 12.9286 12.8463H10.4655C10.2329 12.8463 10.0444 12.6578 10.0444 12.4252C10.0444 12.2579 10.142 12.1133 10.2835 12.0454L8.90362 10.2711C8.78534 10.119 8.78539 9.90603 8.90372 9.75399L9.88728 8.49032C10.0397 8.29513 10.2662 8.21313 10.4686 8.21313ZM11.1962 12.0042C11.1781 11.8792 11.1278 11.7594 11.0484 11.6573C11.0484 11.6573 11.0484 11.6573 11.0484 11.6573L9.76947 10.0127L10.4686 9.11447L12.7166 12.0042H11.1962Z" fill="#888888"/>
<path d="M10.4696 12.4252H3.13273C3.01273 12.4252 2.90115 12.3557 2.84852 12.2483C2.79589 12.1409 2.80852 12.0104 2.88221 11.9157L6.54957 7.19778C6.66957 7.0441 6.92852 7.0441 7.04852 7.19778L10.718 11.9157C10.7917 12.0104 10.8064 12.1388 10.7517 12.2483C10.699 12.3578 10.5875 12.4252 10.4675 12.4252H10.4696Z" fill="#888888"/>
<path fill-rule="evenodd" clip-rule="evenodd" d="M6.79921 7.56304L3.34691 12.0043H10.2535L6.79921 7.56304ZM10.4676 12.8464C10.4683 12.8464 10.469 12.8464 10.4697 12.8464C10.4718 12.8464 10.474 12.8463 10.4761 12.8463C10.7481 12.8432 11.0055 12.6897 11.1299 12.4338C11.2571 12.1764 11.2206 11.8761 11.0505 11.6573L7.38102 6.93944L7.38053 6.93881C7.22812 6.74362 7.0016 6.66162 6.79919 6.66162C6.59678 6.66162 6.37025 6.74362 6.21785 6.93881L6.21728 6.93953L2.54999 11.6573C2.54996 11.6574 2.54994 11.6574 2.54992 11.6574C2.37628 11.8807 2.348 12.1837 2.47059 12.4338C2.59419 12.6859 2.85274 12.8464 3.13287 12.8464H10.4676Z" fill="#888888"/>
</svg>
