<svg width="16" height="16" viewBox="0 0 16 16" fill="none" xmlns="http://www.w3.org/2000/svg">
<path fill-rule="evenodd" clip-rule="evenodd" d="M10.8675 4.15143C10.5337 4.15143 10.2632 4.42187 10.2632 4.75564C10.2632 5.08942 10.5337 5.35985 10.8675 5.35985C11.2012 5.35985 11.4717 5.08942 11.4717 4.75564C11.4717 4.42187 11.2012 4.15143 10.8675 4.15143ZM9.42114 4.75564C9.42114 3.95679 10.0686 3.30933 10.8675 3.30933C11.6663 3.30933 12.3138 3.95679 12.3138 4.75564C12.3138 5.5545 11.6663 6.20196 10.8675 6.20196C10.0686 6.20196 9.42114 5.5545 9.42114 4.75564Z" fill="#888888"/>
<path fill-rule="evenodd" clip-rule="evenodd" d="M2.94737 0.842105C1.78466 0.842105 0.842105 1.78466 0.842105 2.94737V13.0526C0.842105 14.2153 1.78466 15.1579 2.94737 15.1579H13.0526C14.2153 15.1579 15.1579 14.2153 15.1579 13.0526V2.94737C15.1579 1.78466 14.2153 0.842105 13.0526 0.842105H2.94737ZM0 2.94737C0 1.31958 1.31958 0 2.94737 0H13.0526C14.6804 0 16 1.31958 16 2.94737V13.0526C16 14.6804 14.6804 16 13.0526 16H2.94737C1.31958 16 0 14.6804 0 13.0526V2.94737Z" fill="#888888"/>
<path d="M13.1809 11.9159L10.7177 8.74954C10.5977 8.59586 10.3388 8.59586 10.2188 8.74954L9.2356 10.0127L10.7156 11.9159C10.7893 12.0106 10.804 12.139 10.7493 12.2485C10.6966 12.358 10.5851 12.4253 10.4651 12.4253H12.9282C13.0482 12.4253 13.1598 12.3559 13.2124 12.2485C13.2651 12.1411 13.2524 12.0106 13.1788 11.9159H13.1809Z" fill="#888888"/>
<path fill-rule="evenodd" clip-rule="evenodd" d="M10.4684 8.21313C10.6708 8.21313 10.8973 8.29513 11.0497 8.49032L11.0502 8.49092L13.5133 11.6572C13.5256 11.673 13.5366 11.6894 13.5464 11.7065C13.6882 11.9237 13.7045 12.2015 13.5907 12.4337C13.4671 12.6859 13.2085 12.8463 12.9284 12.8463H10.4652C10.2327 12.8463 10.0442 12.6578 10.0442 12.4252C10.0442 12.2579 10.1418 12.1133 10.2832 12.0454L8.90337 10.2711C8.7851 10.119 8.78514 9.90603 8.90348 9.75399L9.88704 8.49032C10.0394 8.29513 10.266 8.21313 10.4684 8.21313ZM11.1959 12.0042C11.1778 11.8792 11.1275 11.7594 11.0481 11.6573C11.0481 11.6573 11.0481 11.6573 11.0481 11.6573L9.76922 10.0127L10.4684 9.11447L12.7163 12.0042H11.1959Z" fill="#888888"/>
<path d="M10.4693 12.4252H3.13249C3.01249 12.4252 2.90091 12.3557 2.84828 12.2483C2.79565 12.1409 2.80828 12.0104 2.88196 11.9157L6.54933 7.19778C6.66933 7.0441 6.92828 7.0441 7.04828 7.19778L10.7178 11.9157C10.7914 12.0104 10.8062 12.1388 10.7514 12.2483C10.6988 12.3578 10.5872 12.4252 10.4672 12.4252H10.4693Z" fill="#888888"/>
<path fill-rule="evenodd" clip-rule="evenodd" d="M6.79897 7.56304L3.34667 12.0043H10.2532L6.79897 7.56304ZM10.4674 12.8464C10.4681 12.8464 10.4688 12.8464 10.4695 12.8464C10.4716 12.8464 10.4737 12.8463 10.4759 12.8463C10.7479 12.8432 11.0052 12.6897 11.1297 12.4338C11.2569 12.1764 11.2204 11.8761 11.0503 11.6573L7.38078 6.93944L7.38029 6.93881C7.22788 6.74362 7.00136 6.66162 6.79894 6.66162C6.59653 6.66162 6.37001 6.74362 6.2176 6.93881L6.21704 6.93953L2.54974 11.6573C2.54972 11.6574 2.5497 11.6574 2.54967 11.6574C2.37604 11.8807 2.34776 12.1837 2.47035 12.4338C2.59394 12.6859 2.8525 12.8464 3.13263 12.8464H10.4674Z" fill="#888888"/>
</svg>
