<svg width="21" height="20" viewBox="0 0 21 20" fill="none" xmlns="http://www.w3.org/2000/svg">
<path d="M14.9029 8.33333V6.66667C14.9029 4.36548 13.0374 2.5 10.7362 2.5C8.43506 2.5 6.56958 4.36548 6.56958 6.66667V8.33333M10.7362 12.0833V13.75M8.06958 17.5H13.4029C14.803 17.5 15.5031 17.5 16.0379 17.2275C16.5083 16.9878 16.8907 16.6054 17.1304 16.135C17.4029 15.6002 17.4029 14.9001 17.4029 13.5V12.3333C17.4029 10.9332 17.4029 10.2331 17.1304 9.69836C16.8907 9.22795 16.5083 8.8455 16.0379 8.60582C15.5031 8.33333 14.803 8.33333 13.4029 8.33333H8.06958C6.66945 8.33333 5.96938 8.33333 5.4346 8.60582C4.9642 8.8455 4.58175 9.22795 4.34206 9.69836C4.06958 10.2331 4.06958 10.9332 4.06958 12.3333V13.5C4.06958 14.9001 4.06958 15.6002 4.34206 16.135C4.58175 16.6054 4.9642 16.9878 5.4346 17.2275C5.96938 17.5 6.66945 17.5 8.06958 17.5Z" stroke="#333333" stroke-linecap="round" stroke-linejoin="round"/>
</svg>
