<svg width="22" height="20" viewBox="0 0 22 20" fill="none" xmlns="http://www.w3.org/2000/svg">
<path d="M21 8H1M10 17L17.8 17C18.9201 17 19.4802 17 19.908 16.782C20.2843 16.5903 20.5903 16.2843 20.782 15.908C21 15.4802 21 14.9201 21 13.8V6.2C21 5.0799 21 4.51984 20.782 4.09202C20.5903 3.7157 20.2843 3.40974 19.908 3.21799C19.4802 3 18.9201 3 17.8 3H16M10 17L12 19M10 17L12 15M6 17H4.2C3.07989 17 2.51984 17 2.09202 16.782C1.71569 16.5903 1.40973 16.2843 1.21799 15.908C1 15.4802 1 14.9201 1 13.8V6.2C1 5.0799 1 4.51984 1.21799 4.09202C1.40973 3.71569 1.7157 3.40973 2.09202 3.21799C2.51984 3 3.0799 3 4.2 3H12M12 3L10 5M12 3L10 1" stroke="white" stroke-linecap="round" stroke-linejoin="round"/>
</svg>
