<svg width="24" height="24" viewBox="0 0 24 24" fill="none" xmlns="http://www.w3.org/2000/svg">
<path fill-rule="evenodd" clip-rule="evenodd" d="M6.74972 2.50004L6.80001 2.50007L10.5 2.50007H11.5H12.5H13.5L17.2 2.50007L17.2503 2.50004C17.4937 2.49977 17.7081 2.49953 17.9119 2.55774C18.0908 2.60882 18.2586 2.69271 18.4067 2.80514C18.5756 2.93327 18.704 3.10493 18.8499 3.29981L18.88 3.34007L20.44 5.42007L20.4533 5.43775L20.4789 5.47189L20.76 5.84674L20.7875 5.88334L20.7875 5.88338C20.9987 6.1648 21.1449 6.3597 21.2506 6.57831C21.3442 6.77168 21.4124 6.9763 21.4536 7.18711C21.5002 7.42542 21.5001 7.66908 21.5 8.02091V8.02096L21.5 8.06674V15.0001C21.5 15.2762 21.2762 15.5001 21 15.5001C20.7239 15.5001 20.5 15.2762 20.5 15.0001V8.06674C20.5 7.65197 20.4979 7.51054 20.4721 7.37896L20.4719 7.37754C20.3227 7.45026 20.1666 7.47332 20.0417 7.48471C19.8731 7.5001 19.6606 7.50009 19.422 7.50007L19.4 7.50007L13.5 7.50007H12.5H11.5H10.5L4.60001 7.50007L4.578 7.50007H4.57799H4.57799C4.33942 7.50009 4.12697 7.5001 3.95828 7.48471C3.83341 7.47332 3.67729 7.45026 3.52816 7.37754L3.52788 7.37896C3.50216 7.51054 3.50001 7.65197 3.50001 8.06674L3.50001 17.8001C3.50001 18.3684 3.5004 18.7645 3.5256 19.073C3.55032 19.3755 3.59641 19.5494 3.6635 19.6811C3.80731 19.9633 4.03678 20.1928 4.31903 20.3366C4.45071 20.4037 4.62455 20.4498 4.92713 20.4745C5.23555 20.4997 5.63171 20.5001 6.20001 20.5001L14 20.5001C14.2762 20.5001 14.5 20.7239 14.5 21.0001C14.5 21.2762 14.2762 21.5001 14 21.5001L6.20001 21.5001H6.1786C5.63671 21.5001 5.19964 21.5001 4.8457 21.4712C4.48128 21.4414 4.16118 21.3785 3.86504 21.2276C3.39463 20.9879 3.01218 20.6055 2.7725 20.135C2.6216 19.8389 2.5587 19.5188 2.52892 19.1544C2.5 18.8004 2.50001 18.3634 2.50001 17.8215L2.50001 17.8001L2.50001 8.06674L2.50001 8.02096C2.49992 7.6691 2.49987 7.42543 2.54646 7.1871C2.58766 6.9763 2.65587 6.77168 2.74939 6.57831C2.85511 6.35969 3.00136 6.16479 3.21254 5.88336L3.24001 5.84674L3.24621 5.85138L3.24001 5.84674L3.52086 5.47227L3.5468 5.43769L3.56001 5.42007L5.12001 3.34007L5.15016 3.29982C5.29599 3.10494 5.42444 2.93327 5.5933 2.80514C5.74147 2.69271 5.90925 2.60882 6.08809 2.55774C6.29191 2.49953 6.50632 2.49977 6.74972 2.50004ZM6.80001 3.50007L10.5 3.50007V6.50007L4.60001 6.50007C4.33256 6.50007 4.16668 6.49957 4.04911 6.48885L4.02694 6.48661L4.03845 6.46753C4.10041 6.36705 4.19951 6.23407 4.35994 6.02017L4.36001 6.02007L5.92001 3.94007C6.1134 3.68222 6.15512 3.63413 6.19778 3.60176C6.24717 3.56428 6.30309 3.53632 6.36271 3.5193C6.4142 3.50459 6.4777 3.50007 6.80001 3.50007ZM12.5 6.50007H11.5V3.50007H12.5V6.50007ZM13.5 6.50007V3.50007L17.2 3.50007C17.5223 3.50007 17.5858 3.50459 17.6373 3.5193C17.6969 3.53632 17.7529 3.56428 17.8023 3.60176C17.8449 3.63413 17.8866 3.68222 18.08 3.94007L19.64 6.02007C19.8005 6.23403 19.8996 6.36704 19.9616 6.46753L19.9731 6.4866L19.9509 6.48885C19.8333 6.49957 19.6675 6.50007 19.4 6.50007L13.5 6.50007ZM22.3536 17.3536C22.5488 17.1583 22.5488 16.8417 22.3536 16.6464C22.1583 16.4512 21.8417 16.4512 21.6465 16.6464L18 20.2929L16.3536 18.6464C16.1583 18.4512 15.8417 18.4512 15.6465 18.6464C15.4512 18.8417 15.4512 19.1583 15.6465 19.3536L17.6465 21.3536C17.8417 21.5488 18.1583 21.5488 18.3536 21.3536L22.3536 17.3536Z" fill="#E45659"/>
</svg>
