<svg width="24" height="24" viewBox="0 0 24 24" fill="none" xmlns="http://www.w3.org/2000/svg">
<path fill-rule="evenodd" clip-rule="evenodd" d="M6.74972 2.49991L6.80001 2.49995L10.5 2.49995H11.5H12.5H13.5L17.2 2.49995L17.2503 2.49991C17.4937 2.49965 17.7081 2.49941 17.9119 2.55762C18.0908 2.6087 18.2586 2.69259 18.4067 2.80501C18.5756 2.93314 18.704 3.10481 18.8499 3.29969L18.88 3.33995L20.44 5.41995L20.4533 5.43762L20.4789 5.47176L20.76 5.84662L20.7875 5.88322L20.7875 5.88325C20.9987 6.16468 21.1449 6.35958 21.2506 6.57819C21.3442 6.77156 21.4124 6.97618 21.4536 7.18698C21.5002 7.4253 21.5001 7.66896 21.5 8.02079V8.02084L21.5 8.06662V15C21.5 15.2761 21.2762 15.5 21 15.5C20.7239 15.5 20.5 15.2761 20.5 15V8.06662C20.5 7.65185 20.4979 7.51042 20.4721 7.37884L20.4719 7.37742C20.3227 7.45014 20.1666 7.4732 20.0417 7.48459C19.8731 7.49998 19.6606 7.49996 19.422 7.49995L19.4 7.49995L13.5 7.49995H12.5H11.5H10.5L4.60001 7.49995L4.578 7.49995H4.57799H4.57799C4.33942 7.49996 4.12697 7.49998 3.95828 7.48459C3.83341 7.4732 3.67729 7.45014 3.52816 7.37742L3.52788 7.37883C3.50216 7.51042 3.50001 7.65185 3.50001 8.06661L3.50001 17.7999C3.50001 18.3683 3.5004 18.7644 3.5256 19.0728C3.55032 19.3754 3.59641 19.5493 3.6635 19.6809C3.80731 19.9632 4.03678 20.1926 4.31903 20.3365C4.45071 20.4035 4.62455 20.4496 4.92713 20.4744C5.23555 20.4996 5.63171 20.4999 6.20001 20.4999L14 20.4999C14.2762 20.4999 14.5 20.7238 14.5 20.9999C14.5 21.2761 14.2762 21.4999 14 21.4999L6.20001 21.4999H6.1786C5.63671 21.5 5.19964 21.5 4.8457 21.471C4.48128 21.4413 4.16118 21.3784 3.86504 21.2275C3.39463 20.9878 3.01218 20.6053 2.7725 20.1349C2.6216 19.8388 2.5587 19.5187 2.52892 19.1543C2.5 18.8003 2.50001 18.3632 2.50001 17.8214L2.50001 17.7999L2.50001 8.06661L2.50001 8.02083C2.49992 7.66898 2.49987 7.42531 2.54646 7.18698C2.58766 6.97617 2.65587 6.77156 2.74939 6.57819C2.85511 6.35957 3.00136 6.16467 3.21254 5.88323L3.24001 5.84662L3.24621 5.85126L3.24001 5.84662L3.52086 5.47215L3.5468 5.43757L3.56001 5.41995L5.12001 3.33995L5.15016 3.2997C5.29599 3.10481 5.42444 2.93314 5.5933 2.80501C5.74147 2.69259 5.90925 2.6087 6.08809 2.55762C6.29191 2.49941 6.50632 2.49965 6.74972 2.49991ZM6.80001 3.49995L10.5 3.49995V6.49995L4.60001 6.49995C4.33256 6.49995 4.16668 6.49945 4.04911 6.48872L4.02694 6.48648L4.03845 6.46741C4.10041 6.36693 4.19951 6.23395 4.35994 6.02005L4.36001 6.01995L5.92001 3.93995C6.1134 3.6821 6.15512 3.63401 6.19778 3.60164C6.24717 3.56416 6.30309 3.5362 6.36271 3.51917C6.4142 3.50447 6.4777 3.49995 6.80001 3.49995ZM12.5 6.49995H11.5V3.49995H12.5V6.49995ZM13.5 6.49995V3.49995L17.2 3.49995C17.5223 3.49995 17.5858 3.50447 17.6373 3.51917C17.6969 3.5362 17.7529 3.56416 17.8023 3.60164C17.8449 3.63401 17.8866 3.6821 18.08 3.93995L19.64 6.01995C19.8005 6.23391 19.8996 6.36691 19.9616 6.46741L19.9731 6.48648L19.9509 6.48872C19.8333 6.49945 19.6675 6.49995 19.4 6.49995L13.5 6.49995ZM22.3536 17.3534C22.5488 17.1582 22.5488 16.8416 22.3536 16.6463C22.1583 16.4511 21.8417 16.4511 21.6465 16.6463L18 20.2928L16.3536 18.6463C16.1583 18.4511 15.8417 18.4511 15.6465 18.6463C15.4512 18.8416 15.4512 19.1582 15.6465 19.3534L17.6465 21.3534C17.8417 21.5487 18.1583 21.5487 18.3536 21.3534L22.3536 17.3534Z" fill="white"/>
</svg>
