<svg width="24" height="24" viewBox="0 0 24 24" fill="none" xmlns="http://www.w3.org/2000/svg">
<rect width="24" height="24" rx="12" fill="#FA7C21"/>
<path d="M8 17.5V6.5H12.1423C14.4346 6.5 15.5934 7.6709 15.5934 9.32519C15.5934 10.625 14.7903 11.4307 13.7128 11.6831V11.7905C14.892 11.8496 16 12.8325 16 14.4707C16 16.2109 14.7598 17.5 12.4117 17.5H8ZM10.1601 15.6255H11.9848C13.2249 15.6255 13.7687 15.0776 13.7687 14.2451C13.7687 13.3213 13.1029 12.6714 12.0305 12.6714H10.1601V15.6255ZM10.1601 11.1084H11.8221C12.7319 11.1084 13.4079 10.5767 13.4079 9.6958C13.4079 8.89551 12.8488 8.35303 11.8628 8.35303H10.1601V11.1084Z" fill="white"/>
</svg>
