<svg width="24" height="24" viewBox="0 0 24 24" fill="none" xmlns="http://www.w3.org/2000/svg">
<rect width="24" height="24" rx="12" fill="#E8E8E8"/>
<path d="M17.3332 18C17.3332 17.0696 17.3332 16.6044 17.2183 16.2259C16.9598 15.3736 16.2929 14.7067 15.4406 14.4482C15.0621 14.3333 14.5969 14.3333 13.6665 14.3333H10.3332C9.4028 14.3333 8.93761 14.3333 8.55908 14.4482C7.70681 14.7067 7.03986 15.3736 6.78133 16.2259C6.6665 16.6044 6.6665 17.0696 6.6665 18M14.9998 9C14.9998 10.6569 13.6567 12 11.9998 12C10.343 12 8.99984 10.6569 8.99984 9C8.99984 7.34315 10.343 6 11.9998 6C13.6567 6 14.9998 7.34315 14.9998 9Z" stroke="white" stroke-linecap="round" stroke-linejoin="round"/>
</svg>
