<svg width="15" height="18" viewBox="0 0 15 18" fill="none" xmlns="http://www.w3.org/2000/svg">
<path d="M9.16683 0.666687H4.8335C3.43336 0.666687 2.7333 0.666687 2.19852 0.939171C1.72811 1.17885 1.34566 1.56131 1.10598 2.03171C0.833496 2.56649 0.833496 3.26656 0.833496 4.66669V13.3334C0.833496 14.7335 0.833496 15.4336 1.10598 15.9683C1.34566 16.4387 1.72811 16.8212 2.19852 17.0609C2.7333 17.3334 3.43336 17.3334 4.8335 17.3334H10.1668C11.567 17.3334 12.267 17.3334 12.8018 17.0609C13.2722 16.8212 13.6547 16.4387 13.8943 15.9683C14.1668 15.4336 14.1668 14.7335 14.1668 13.3334V5.66669M9.16683 0.666687L14.1668 5.66669M9.16683 0.666687V5.66669H14.1668M8.9585 10.6667V9.20835C8.9585 8.40294 8.30558 7.75002 7.50016 7.75002C6.69475 7.75002 6.04183 8.40294 6.04183 9.20835V10.6667M5.91683 14H9.0835C9.55021 14 9.78356 14 9.96182 13.9092C10.1186 13.8293 10.2461 13.7018 10.326 13.545C10.4168 13.3668 10.4168 13.1334 10.4168 12.6667V12C10.4168 11.5333 10.4168 11.3 10.326 11.1217C10.2461 10.9649 10.1186 10.8374 9.96182 10.7575C9.78356 10.6667 9.55021 10.6667 9.0835 10.6667H5.91683C5.45012 10.6667 5.21676 10.6667 5.0385 10.7575C4.8817 10.8374 4.75422 10.9649 4.67432 11.1217C4.5835 11.3 4.5835 11.5333 4.5835 12V12.6667C4.5835 13.1334 4.5835 13.3668 4.67432 13.545C4.75422 13.7018 4.8817 13.8293 5.0385 13.9092C5.21676 14 5.45012 14 5.91683 14Z" stroke="#575757" stroke-linecap="round" stroke-linejoin="round"/>
</svg>
