<svg width="24" height="34" viewBox="0 0 24 34" fill="none" xmlns="http://www.w3.org/2000/svg">
<rect y="10" width="24" height="24" rx="12" fill="#E45659"/>
<path d="M9.09746 27.3149H6.57812L10.4897 16H13.5118L17.4234 27.3149H14.9041L14.0533 24.7072H9.94829L9.09746 27.3149ZM10.545 22.8674H13.4511L12.0422 18.5525H11.9538L10.545 22.8674Z" fill="white"/>
<g clip-path="url(#clip0_1784_8462)">
<path d="M5.82422 10.1172L6.28845 11.9998H17.798L18.2659 10.1172H5.82422Z" fill="#F6CA2D"/>
<path d="M21 2.41734C21 2.98949 20.5352 3.45312 19.9617 3.45312C19.9482 3.45312 19.9357 3.45156 19.9227 3.45104L18.4207 9.4944H5.67091L4.17932 3.44274C4.133 3.44897 4.08616 3.45312 4.03828 3.45312C3.46475 3.45312 3 2.98949 3 2.41734C3 1.8452 3.46475 1.38104 4.03828 1.38104C4.61181 1.38104 5.07708 1.8452 5.07708 2.41734C5.07708 2.74547 4.92303 3.03777 4.68415 3.22779C7.43833 7.69697 9.85734 7.95656 11.7851 2.02691C11.3588 1.89815 11.0481 1.50357 11.0481 1.03578C11.0481 0.463635 11.5129 0 12.0864 0C12.6599 0 13.1252 0.463635 13.1252 1.03578C13.1252 1.50668 12.8103 1.90334 12.3794 2.02951C14.1276 7.56302 16.469 7.98356 19.4033 3.28958C19.115 3.10578 18.9229 2.78389 18.9229 2.41734C18.9229 1.8452 19.3882 1.38104 19.9617 1.38104C20.5352 1.38104 21 1.8452 21 2.41734Z" fill="#F6CA2D"/>
</g>
<defs>
<clipPath id="clip0_1784_8462">
<rect width="18" height="12" fill="white" transform="translate(3)"/>
</clipPath>
</defs>
</svg>
