<svg width="24" height="34" viewBox="0 0 24 34" fill="none" xmlns="http://www.w3.org/2000/svg">
<rect y="10" width="24" height="24" rx="12" fill="#FA7C21"/>
<path d="M8 27.5V16.5H12.1423C14.4346 16.5 15.5934 17.6709 15.5934 19.3252C15.5934 20.625 14.7903 21.4307 13.7128 21.6831V21.7905C14.892 21.8496 16 22.8325 16 24.4707C16 26.2109 14.7598 27.5 12.4117 27.5H8ZM10.1601 25.6255H11.9848C13.2249 25.6255 13.7687 25.0776 13.7687 24.2451C13.7687 23.3213 13.1029 22.6714 12.0305 22.6714H10.1601V25.6255ZM10.1601 21.1084H11.8221C12.7319 21.1084 13.4079 20.5767 13.4079 19.6958C13.4079 18.8955 12.8488 18.353 11.8628 18.353H10.1601V21.1084Z" fill="white"/>
<g clip-path="url(#clip0_2262_15800)">
<path d="M5.82422 10.1172L6.28845 11.9998H17.798L18.2659 10.1172H5.82422Z" fill="#F6CA2D"/>
<path d="M21 2.41734C21 2.98949 20.5352 3.45312 19.9617 3.45312C19.9482 3.45312 19.9357 3.45156 19.9227 3.45104L18.4207 9.4944H5.67091L4.17932 3.44274C4.133 3.44897 4.08616 3.45312 4.03828 3.45312C3.46475 3.45312 3 2.98949 3 2.41734C3 1.8452 3.46475 1.38104 4.03828 1.38104C4.61181 1.38104 5.07708 1.8452 5.07708 2.41734C5.07708 2.74547 4.92303 3.03777 4.68415 3.22779C7.43833 7.69697 9.85734 7.95656 11.7851 2.02691C11.3588 1.89815 11.0481 1.50357 11.0481 1.03578C11.0481 0.463635 11.5129 0 12.0864 0C12.6599 0 13.1252 0.463635 13.1252 1.03578C13.1252 1.50668 12.8103 1.90334 12.3794 2.02951C14.1276 7.56302 16.469 7.98356 19.4033 3.28958C19.115 3.10578 18.9229 2.78389 18.9229 2.41734C18.9229 1.8452 19.3882 1.38104 19.9617 1.38104C20.5352 1.38104 21 1.8452 21 2.41734Z" fill="#F6CA2D"/>
</g>
<defs>
<clipPath id="clip0_2262_15800">
<rect width="18" height="12" fill="white" transform="translate(3)"/>
</clipPath>
</defs>
</svg>
