<svg width="20" height="20" viewBox="0 0 20 20" fill="none" xmlns="http://www.w3.org/2000/svg">
<rect width="20" height="20" rx="10" fill="#CACACA"/>
<path d="M6 15V5H10.1423C12.4346 5 13.5934 6.06445 13.5934 7.56836C13.5934 8.75 12.7903 9.48242 11.7128 9.71191V9.80957C12.892 9.86328 14 10.7568 14 12.2461C14 13.8281 12.7598 15 10.4117 15H6ZM8.1601 13.2959H9.98475C11.2249 13.2959 11.7687 12.7979 11.7687 12.041C11.7687 11.2012 11.1029 10.6104 10.0305 10.6104H8.1601V13.2959ZM8.1601 9.18945H9.82211C10.7319 9.18945 11.4079 8.70605 11.4079 7.90527C11.4079 7.17773 10.8488 6.68457 9.86277 6.68457H8.1601V9.18945Z" fill="white"/>
</svg>
