<svg width="60" height="61" viewBox="0 0 60 61" fill="none" xmlns="http://www.w3.org/2000/svg">
<circle cx="30" cy="30.7466" r="28.5" stroke="white" stroke-width="3"/>
<g filter="url(#filter0_d_1984_14475)">
<mask id="path-2-outside-1_1984_14475" maskUnits="userSpaceOnUse" x="4.9808" y="18.7739" width="49.9879" height="25.9463" fill="black">
<rect fill="white" x="4.9808" y="18.7739" width="49.9879" height="25.9463"/>
<path d="M15.8865 29.1123L19.1095 41.141L17.4332 41.5902L15.8191 35.5665L13.433 36.2058L13.0639 34.8283L15.45 34.189L14.2101 29.5615L15.8865 29.1123ZM7.95464 40.4714C10.5895 38.1639 11.3351 35.9222 10.8781 33.2269L6.89969 34.2929L6.5456 32.9715L12.2284 31.4487C13.19 35.0748 12.8125 38.354 9.16667 41.558L7.95464 40.4714ZM22.3934 28.63L23.6321 33.2528L20.6903 34.041L21.2684 36.1984C22.4052 35.8837 23.4807 35.5455 24.6609 35.0191L25.138 36.3326C23.631 37.0217 22.3442 37.4115 20.8605 37.8141L20.0246 38.0381L18.7109 33.1351L21.6434 32.3493L21.1279 30.4255L18.1814 31.215L17.8173 29.8561L22.3934 28.63ZM26.3343 38.5745L23.3252 27.3443L24.8708 26.9302L26.0344 31.2728L27.1924 30.9625L25.9725 26.4097L27.5648 25.9831L30.7879 38.0118L29.1956 38.4384L27.554 32.312L26.396 32.6223L27.8799 38.1604L26.3343 38.5745ZM32.3447 25.2378C34.1005 24.7674 35.6312 25.4182 36.0297 26.8679C36.3344 28.0425 35.7107 29.1705 34.4958 29.7914L34.7322 30.6739C35.6592 30.3605 36.5799 30.0237 37.424 29.6624L37.8779 30.852C35.5266 31.9575 32.79 32.7458 30.7774 33.2851L30.2422 31.9971C31.078 31.7732 32.048 31.5082 33.0619 31.2015L32.8079 30.2536C31.4163 30.3462 30.2864 29.6781 29.9779 28.4895C29.5795 27.0398 30.5797 25.7108 32.3447 25.2378ZM33.31 37.0958L32.3928 33.673L34.0925 33.2176L34.6468 35.2862L41.4176 33.4719L41.7805 34.8261L33.31 37.0958ZM31.5422 28.0703C31.7281 28.8013 32.4549 29.067 33.3094 28.838C34.1733 28.6065 34.6372 28.0218 34.4467 27.2921C34.2406 26.5416 33.5455 26.2824 32.6851 26.5079C31.8318 26.7416 31.3315 27.3211 31.5422 28.0703ZM38.9785 32.7742L36.5212 23.6032L38.2069 23.1516L39.2204 26.9339L40.7613 26.521L41.1367 27.9218L39.5957 28.3347L40.6642 32.3225L38.9785 32.7742ZM53.4992 29.0085L53.8683 30.386L42.8763 33.3313L42.5072 31.9538L45.3229 31.1994L44.8287 29.3549L43.2784 29.7703L42.1973 25.7358L48.9915 23.9153L48.6462 22.6265L41.8333 24.452L41.4705 23.0979L49.9504 20.8257L51.0176 24.8088L44.2375 26.6255L44.5953 27.961L51.6556 26.0692L52.0197 27.4281L50.32 27.8835L50.8143 29.728L53.4992 29.0085ZM46.9619 30.7602L49.1566 30.1721L48.6623 28.3277L46.4677 28.9157L46.9619 30.7602Z"/>
</mask>
<path d="M15.8865 29.1123L19.1095 41.141L17.4332 41.5902L15.8191 35.5665L13.433 36.2058L13.0639 34.8283L15.45 34.189L14.2101 29.5615L15.8865 29.1123ZM7.95464 40.4714C10.5895 38.1639 11.3351 35.9222 10.8781 33.2269L6.89969 34.2929L6.5456 32.9715L12.2284 31.4487C13.19 35.0748 12.8125 38.354 9.16667 41.558L7.95464 40.4714ZM22.3934 28.63L23.6321 33.2528L20.6903 34.041L21.2684 36.1984C22.4052 35.8837 23.4807 35.5455 24.6609 35.0191L25.138 36.3326C23.631 37.0217 22.3442 37.4115 20.8605 37.8141L20.0246 38.0381L18.7109 33.1351L21.6434 32.3493L21.1279 30.4255L18.1814 31.215L17.8173 29.8561L22.3934 28.63ZM26.3343 38.5745L23.3252 27.3443L24.8708 26.9302L26.0344 31.2728L27.1924 30.9625L25.9725 26.4097L27.5648 25.9831L30.7879 38.0118L29.1956 38.4384L27.554 32.312L26.396 32.6223L27.8799 38.1604L26.3343 38.5745ZM32.3447 25.2378C34.1005 24.7674 35.6312 25.4182 36.0297 26.8679C36.3344 28.0425 35.7107 29.1705 34.4958 29.7914L34.7322 30.6739C35.6592 30.3605 36.5799 30.0237 37.424 29.6624L37.8779 30.852C35.5266 31.9575 32.79 32.7458 30.7774 33.2851L30.2422 31.9971C31.078 31.7732 32.048 31.5082 33.0619 31.2015L32.8079 30.2536C31.4163 30.3462 30.2864 29.6781 29.9779 28.4895C29.5795 27.0398 30.5797 25.7108 32.3447 25.2378ZM33.31 37.0958L32.3928 33.673L34.0925 33.2176L34.6468 35.2862L41.4176 33.4719L41.7805 34.8261L33.31 37.0958ZM31.5422 28.0703C31.7281 28.8013 32.4549 29.067 33.3094 28.838C34.1733 28.6065 34.6372 28.0218 34.4467 27.2921C34.2406 26.5416 33.5455 26.2824 32.6851 26.5079C31.8318 26.7416 31.3315 27.3211 31.5422 28.0703ZM38.9785 32.7742L36.5212 23.6032L38.2069 23.1516L39.2204 26.9339L40.7613 26.521L41.1367 27.9218L39.5957 28.3347L40.6642 32.3225L38.9785 32.7742ZM53.4992 29.0085L53.8683 30.386L42.8763 33.3313L42.5072 31.9538L45.3229 31.1994L44.8287 29.3549L43.2784 29.7703L42.1973 25.7358L48.9915 23.9153L48.6462 22.6265L41.8333 24.452L41.4705 23.0979L49.9504 20.8257L51.0176 24.8088L44.2375 26.6255L44.5953 27.961L51.6556 26.0692L52.0197 27.4281L50.32 27.8835L50.8143 29.728L53.4992 29.0085ZM46.9619 30.7602L49.1566 30.1721L48.6623 28.3277L46.4677 28.9157L46.9619 30.7602Z" fill="white"/>
<path d="M15.8865 29.1123L16.0797 29.0605L16.0279 28.8673L15.8347 28.9191L15.8865 29.1123ZM19.1095 41.141L19.1613 41.3342L19.3545 41.2824L19.3027 41.0892L19.1095 41.141ZM17.4332 41.5902L17.24 41.6419L17.2918 41.8351L17.485 41.7834L17.4332 41.5902ZM15.8191 35.5665L16.0123 35.5147L15.9606 35.3215L15.7674 35.3733L15.8191 35.5665ZM13.433 36.2058L13.2398 36.2576L13.2916 36.4508L13.4848 36.399L13.433 36.2058ZM13.0639 34.8283L13.0121 34.6351L12.819 34.6869L12.8707 34.8801L13.0639 34.8283ZM15.45 34.189L15.5018 34.3822L15.695 34.3304L15.6432 34.1372L15.45 34.189ZM14.2101 29.5615L14.1583 29.3683L13.9652 29.42L14.0169 29.6132L14.2101 29.5615ZM7.95464 40.4714L7.82288 40.321L7.65308 40.4697L7.82114 40.6204L7.95464 40.4714ZM10.8781 33.2269L11.0753 33.1935L11.0386 32.9769L10.8264 33.0337L10.8781 33.2269ZM6.89969 34.2929L6.70651 34.3447L6.75827 34.5379L6.95145 34.4861L6.89969 34.2929ZM6.5456 32.9715L6.49384 32.7783L6.30065 32.83L6.35242 33.0232L6.5456 32.9715ZM12.2284 31.4487L12.4217 31.3975L12.3703 31.2037L12.1767 31.2556L12.2284 31.4487ZM9.16667 41.558L9.03317 41.7069L9.16535 41.8254L9.2987 41.7083L9.16667 41.558ZM15.6933 29.164L18.9164 41.1928L19.3027 41.0892L16.0797 29.0605L15.6933 29.164ZM19.0578 40.9478L17.3814 41.397L17.485 41.7834L19.1613 41.3342L19.0578 40.9478ZM17.6264 41.5384L16.0123 35.5147L15.626 35.6182L17.24 41.6419L17.6264 41.5384ZM15.7674 35.3733L13.3812 36.0127L13.4848 36.399L15.8709 35.7597L15.7674 35.3733ZM13.6262 36.1541L13.2571 34.7766L12.8707 34.8801L13.2398 36.2576L13.6262 36.1541ZM13.1157 35.0215L15.5018 34.3822L15.3983 33.9958L13.0121 34.6351L13.1157 35.0215ZM15.6432 34.1372L14.4033 29.5097L14.0169 29.6132L15.2569 34.2407L15.6432 34.1372ZM14.2619 29.7546L15.9382 29.3055L15.8347 28.9191L14.1583 29.3683L14.2619 29.7546ZM8.08641 40.6219C9.42063 39.4534 10.2889 38.2908 10.7623 37.0667C11.2364 35.841 11.3086 34.5693 11.0753 33.1935L10.6809 33.2603C10.9046 34.5798 10.8324 35.7766 10.3893 36.9224C9.94542 38.07 9.12347 39.1819 7.82288 40.321L8.08641 40.6219ZM10.8264 33.0337L6.84793 34.0997L6.95145 34.4861L10.9299 33.4201L10.8264 33.0337ZM7.09288 34.2412L6.73879 32.9197L6.35242 33.0232L6.70651 34.3447L7.09288 34.2412ZM6.59737 33.1646L12.2802 31.6419L12.1767 31.2556L6.49384 32.7783L6.59737 33.1646ZM12.0351 31.5C12.5106 33.2931 12.6502 34.9826 12.2316 36.6119C11.8136 38.2391 10.8337 39.8268 9.03465 41.4078L9.2987 41.7083C11.1455 40.0853 12.1772 38.4313 12.619 36.7114C13.0603 34.9936 12.9078 33.2304 12.4217 31.3975L12.0351 31.5ZM9.30018 41.4091L8.08815 40.3225L7.82114 40.6204L9.03317 41.7069L9.30018 41.4091ZM22.3934 28.63L22.5866 28.5782L22.5348 28.385L22.3417 28.4368L22.3934 28.63ZM23.6321 33.2528L23.6839 33.446L23.8771 33.3942L23.8253 33.201L23.6321 33.2528ZM20.6903 34.041L20.6385 33.8479L20.4454 33.8996L20.4971 34.0928L20.6903 34.041ZM21.2684 36.1984L21.0752 36.2501L21.1274 36.4449L21.3217 36.3911L21.2684 36.1984ZM24.6609 35.0191L24.8489 34.9508L24.7756 34.7489L24.5794 34.8364L24.6609 35.0191ZM25.138 36.3326L25.2212 36.5145L25.389 36.4378L25.326 36.2643L25.138 36.3326ZM20.8605 37.8141L20.9123 38.0073L20.9129 38.0071L20.8605 37.8141ZM20.0246 38.0381L19.8315 38.0898L19.8832 38.283L20.0764 38.2312L20.0246 38.0381ZM18.7109 33.1351L18.6591 32.9419L18.4659 32.9936L18.5177 33.1868L18.7109 33.1351ZM21.6434 32.3493L21.6951 32.5425L21.8883 32.4907L21.8365 32.2975L21.6434 32.3493ZM21.1279 30.4255L21.321 30.3737L21.2693 30.1805L21.0761 30.2323L21.1279 30.4255ZM18.1814 31.215L17.9882 31.2667L18.04 31.4599L18.2331 31.4081L18.1814 31.215ZM17.8173 29.8561L17.7655 29.6629L17.5723 29.7147L17.6241 29.9079L17.8173 29.8561ZM26.3343 38.5745L26.1411 38.6263L26.1929 38.8195L26.3861 38.7677L26.3343 38.5745ZM23.3252 27.3443L23.2734 27.1511L23.0802 27.2029L23.132 27.3961L23.3252 27.3443ZM24.8708 26.9302L25.064 26.8784L25.0122 26.6852L24.819 26.737L24.8708 26.9302ZM26.0344 31.2728L25.8412 31.3246L25.893 31.5178L26.0862 31.466L26.0344 31.2728ZM27.1924 30.9625L27.2442 31.1557L27.4374 31.1039L27.3856 30.9108L27.1924 30.9625ZM25.9725 26.4097L25.9208 26.2165L25.7276 26.2683L25.7793 26.4615L25.9725 26.4097ZM27.5648 25.9831L27.758 25.9313L27.7062 25.7381L27.5131 25.7899L27.5648 25.9831ZM30.7879 38.0118L30.8397 38.205L31.0329 38.1532L30.9811 37.96L30.7879 38.0118ZM29.1956 38.4384L29.0024 38.4902L29.0542 38.6834L29.2474 38.6316L29.1956 38.4384ZM27.554 32.312L27.7472 32.2603L27.6954 32.0671L27.5023 32.1188L27.554 32.312ZM26.396 32.6223L26.3442 32.4291L26.151 32.4809L26.2028 32.6741L26.396 32.6223ZM27.8799 38.1604L27.9317 38.3536L28.1249 38.3018L28.0731 38.1086L27.8799 38.1604ZM22.2002 28.6817L23.4389 33.3046L23.8253 33.201L22.5866 28.5782L22.2002 28.6817ZM23.5803 33.0596L20.6385 33.8479L20.7421 34.2342L23.6839 33.446L23.5803 33.0596ZM20.4971 34.0928L21.0752 36.2501L21.4615 36.1466L20.8835 33.9893L20.4971 34.0928ZM21.3217 36.3911C22.4632 36.0752 23.5493 35.7339 24.7424 35.2017L24.5794 34.8364C23.4121 35.3571 22.3473 35.6923 21.215 36.0056L21.3217 36.3911ZM24.4729 35.0874L24.95 36.4009L25.326 36.2643L24.8489 34.9508L24.4729 35.0874ZM25.0548 36.1507C23.5625 36.8331 22.2878 37.2196 20.8081 37.6211L20.9129 38.0071C22.4005 37.6035 23.6995 37.2103 25.2212 36.5145L25.0548 36.1507ZM20.8087 37.6209L19.9729 37.8449L20.0764 38.2312L20.9123 38.0073L20.8087 37.6209ZM20.2178 37.9863L18.9041 33.0833L18.5177 33.1868L19.8315 38.0898L20.2178 37.9863ZM18.7627 33.3282L21.6951 32.5425L21.5916 32.1561L18.6591 32.9419L18.7627 33.3282ZM21.8365 32.2975L21.321 30.3737L20.9347 30.4772L21.4502 32.4011L21.8365 32.2975ZM21.0761 30.2323L18.1296 31.0218L18.2331 31.4081L21.1796 30.6186L21.0761 30.2323ZM18.3746 31.1632L18.0105 29.8044L17.6241 29.9079L17.9882 31.2667L18.3746 31.1632ZM17.8691 30.0493L22.4452 28.8231L22.3417 28.4368L17.7655 29.6629L17.8691 30.0493ZM26.5275 38.5228L23.5183 27.2925L23.132 27.3961L26.1411 38.6263L26.5275 38.5228ZM23.3769 27.5375L24.9225 27.1233L24.819 26.737L23.2734 27.1511L23.3769 27.5375ZM24.6776 26.9819L25.8412 31.3246L26.2276 31.2211L25.064 26.8784L24.6776 26.9819ZM26.0862 31.466L27.2442 31.1557L27.1407 30.7693L25.9826 31.0796L26.0862 31.466ZM27.3856 30.9108L26.1657 26.358L25.7793 26.4615L26.9992 31.0143L27.3856 30.9108ZM26.0243 26.6029L27.6166 26.1763L27.5131 25.7899L25.9208 26.2165L26.0243 26.6029ZM27.3716 26.0348L30.5947 38.0635L30.9811 37.96L27.758 25.9313L27.3716 26.0348ZM30.7361 37.8186L29.1438 38.2453L29.2474 38.6316L30.8397 38.205L30.7361 37.8186ZM29.3888 38.3867L27.7472 32.2603L27.3608 32.3638L29.0024 38.4902L29.3888 38.3867ZM27.5023 32.1188L26.3442 32.4291L26.4477 32.8155L27.6058 32.5052L27.5023 32.1188ZM26.2028 32.6741L27.6867 38.2121L28.0731 38.1086L26.5892 32.5706L26.2028 32.6741ZM27.8281 37.9672L26.2825 38.3813L26.3861 38.7677L27.9317 38.3536L27.8281 37.9672ZM36.0297 26.8679L36.2233 26.8177L36.2225 26.8149L36.0297 26.8679ZM34.4958 29.7914L34.4048 29.6133L34.2607 29.6869L34.3026 29.8431L34.4958 29.7914ZM34.7322 30.6739L34.5391 30.7257L34.5943 30.9317L34.7963 30.8634L34.7322 30.6739ZM37.424 29.6624L37.6109 29.5911L37.5367 29.3966L37.3453 29.4785L37.424 29.6624ZM37.8779 30.852L37.963 31.033L38.1309 30.954L38.0648 30.7807L37.8779 30.852ZM30.7774 33.2851L30.5928 33.3618L30.66 33.5236L30.8292 33.4783L30.7774 33.2851ZM30.2422 31.9971L30.1904 31.8039L29.9698 31.863L30.0575 32.0739L30.2422 31.9971ZM33.0619 31.2015L33.1198 31.393L33.3052 31.3369L33.2551 31.1498L33.0619 31.2015ZM32.8079 30.2536L33.0011 30.2019L32.9586 30.0432L32.7946 30.0541L32.8079 30.2536ZM29.9779 28.4895L30.1715 28.4393L30.1708 28.4365L29.9779 28.4895ZM33.31 37.0958L33.1168 37.1475L33.1685 37.3407L33.3617 37.289L33.31 37.0958ZM32.3928 33.673L32.3411 33.4798L32.1479 33.5316L32.1997 33.7248L32.3928 33.673ZM34.0925 33.2176L34.2857 33.1658L34.234 32.9726L34.0408 33.0244L34.0925 33.2176ZM34.6468 35.2862L34.4536 35.3379L34.5054 35.5311L34.6986 35.4794L34.6468 35.2862ZM41.4176 33.4719L41.6108 33.4202L41.5591 33.227L41.3659 33.2788L41.4176 33.4719ZM41.7805 34.8261L41.8323 35.0193L42.0254 34.9675L41.9737 34.7743L41.7805 34.8261ZM31.5422 28.0703L31.7361 28.021L31.7348 28.0162L31.5422 28.0703ZM34.4467 27.2921L34.6402 27.2416L34.6395 27.2391L34.4467 27.2921ZM32.6851 26.5079L32.6344 26.3144L32.6323 26.315L32.6851 26.5079ZM38.9785 32.7742L38.7853 32.826L38.8371 33.0192L39.0303 32.9674L38.9785 32.7742ZM36.5212 23.6032L36.4694 23.4101L36.2762 23.4618L36.328 23.655L36.5212 23.6032ZM38.2069 23.1516L38.4001 23.0998L38.3483 22.9066L38.1551 22.9584L38.2069 23.1516ZM39.2204 26.9339L39.0272 26.9856L39.0789 27.1788L39.2721 27.1271L39.2204 26.9339ZM40.7613 26.521L40.9545 26.4692L40.9027 26.276L40.7095 26.3278L40.7613 26.521ZM41.1367 27.9218L41.1884 28.115L41.3816 28.0633L41.3298 27.8701L41.1367 27.9218ZM39.5957 28.3347L39.544 28.1416L39.3508 28.1933L39.4025 28.3865L39.5957 28.3347ZM40.6642 32.3225L40.716 32.5157L40.9092 32.4639L40.8574 32.2708L40.6642 32.3225ZM32.3965 25.431C33.2394 25.2051 34.0134 25.2525 34.616 25.5161C35.2152 25.7781 35.6543 26.2568 35.8368 26.921L36.2225 26.8149C36.0066 26.0293 35.4811 25.4578 34.7763 25.1496C34.0751 24.8429 33.2058 24.8 32.293 25.0446L32.3965 25.431ZM35.8361 26.9182C36.1117 27.9807 35.5575 29.0242 34.4048 29.6133L34.5868 29.9695C35.864 29.3168 36.557 28.1043 36.2232 26.8177L35.8361 26.9182ZM34.3026 29.8431L34.5391 30.7257L34.9254 30.6221L34.6889 29.7396L34.3026 29.8431ZM34.7963 30.8634C35.726 30.549 36.6521 30.2103 37.5027 29.8462L37.3453 29.4785C36.5078 29.837 35.5924 30.1719 34.6682 30.4844L34.7963 30.8634ZM37.2372 29.7337L37.6911 30.9233L38.0648 30.7807L37.6109 29.5911L37.2372 29.7337ZM37.7928 30.671C35.4589 31.7683 32.7373 32.5529 30.7257 33.0919L30.8292 33.4783C32.8427 32.9387 35.5943 32.1467 37.963 31.033L37.7928 30.671ZM30.9621 33.2083L30.4268 31.9204L30.0575 32.0739L30.5928 33.3618L30.9621 33.2083ZM30.2939 32.1903C31.1304 31.9662 32.1028 31.7006 33.1198 31.393L33.004 31.0101C31.9932 31.3159 31.0256 31.5801 30.1904 31.8039L30.2939 32.1903ZM33.2551 31.1498L33.0011 30.2019L32.6147 30.3054L32.8687 31.2533L33.2551 31.1498ZM32.7946 30.0541C31.4721 30.1421 30.4497 29.511 30.1715 28.4393L29.7844 28.5397C30.1231 29.8451 31.3606 30.5504 32.8212 30.4532L32.7946 30.0541ZM30.1708 28.4365C29.9885 27.7732 30.1249 27.1413 30.5112 26.6158C30.8999 26.0869 31.5486 25.6582 32.3965 25.431L32.293 25.0446C31.3758 25.2904 30.6418 25.7627 30.1889 26.3789C29.7334 26.9986 29.5689 27.756 29.7851 28.5425L30.1708 28.4365ZM33.5031 37.044L32.586 33.6212L32.1997 33.7248L33.1168 37.1475L33.5031 37.044ZM32.4446 33.8662L34.1443 33.4108L34.0408 33.0244L32.3411 33.4798L32.4446 33.8662ZM33.8994 33.2693L34.4536 35.3379L34.84 35.2344L34.2857 33.1658L33.8994 33.2693ZM34.6986 35.4794L41.4694 33.6651L41.3659 33.2788L34.5951 35.093L34.6986 35.4794ZM41.2245 33.5237L41.5873 34.8779L41.9737 34.7743L41.6108 33.4202L41.2245 33.5237ZM41.7287 34.6329L33.2582 36.9026L33.3617 37.289L41.8323 35.0193L41.7287 34.6329ZM31.3484 28.1196C31.4569 28.5465 31.7287 28.8457 32.0985 28.9989C32.4616 29.1494 32.9041 29.1537 33.3612 29.0312L33.2577 28.6448C32.8602 28.7513 32.512 28.7373 32.2516 28.6294C31.9979 28.5243 31.8134 28.3252 31.7361 28.0211L31.3484 28.1196ZM33.3612 29.0312C33.8228 28.9075 34.199 28.6839 34.4333 28.372C34.6718 28.0548 34.7502 27.6628 34.6402 27.2416L34.2532 27.3426C34.3337 27.6511 34.2754 27.9163 34.1136 28.1317C33.9476 28.3525 33.6599 28.537 33.2577 28.6448L33.3612 29.0312ZM34.6395 27.2391C34.5213 26.8087 34.2563 26.5057 33.8894 26.3499C33.5296 26.1971 33.0928 26.1943 32.6344 26.3145L32.7358 26.7014C33.1378 26.596 33.4787 26.61 33.7331 26.7181C33.9804 26.8231 34.1659 27.0249 34.2538 27.3451L34.6395 27.2391ZM32.6323 26.315C32.1775 26.4395 31.7956 26.6617 31.556 26.974C31.3113 27.2929 31.2276 27.6906 31.3497 28.1245L31.7348 28.0162C31.646 27.7008 31.7072 27.4341 31.8733 27.2175C32.0445 26.9944 32.3394 26.8099 32.7379 26.7008L32.6323 26.315ZM39.1717 32.7224L36.7144 23.5515L36.328 23.655L38.7853 32.826L39.1717 32.7224ZM36.5729 23.7964L38.2586 23.3447L38.1551 22.9584L36.4694 23.4101L36.5729 23.7964ZM38.0137 23.2033L39.0272 26.9856L39.4135 26.8821L38.4001 23.0998L38.0137 23.2033ZM39.2721 27.1271L40.8131 26.7142L40.7095 26.3278L39.1686 26.7407L39.2721 27.1271ZM40.5681 26.5728L40.9435 27.9736L41.3298 27.8701L40.9545 26.4692L40.5681 26.5728ZM41.0849 27.7287L39.544 28.1416L39.6475 28.5279L41.1884 28.115L41.0849 27.7287ZM39.4025 28.3865L40.4711 32.3743L40.8574 32.2708L39.7889 28.283L39.4025 28.3865ZM40.6125 32.1293L38.9268 32.581L39.0303 32.9674L40.716 32.5157L40.6125 32.1293ZM53.4992 29.0085L53.6924 28.9567L53.6407 28.7636L53.4475 28.8153L53.4992 29.0085ZM53.8683 30.386L53.9201 30.5792L54.1133 30.5274L54.0615 30.3343L53.8683 30.386ZM42.8763 33.3313L42.6831 33.3831L42.7348 33.5763L42.928 33.5245L42.8763 33.3313ZM42.5072 31.9538L42.4554 31.7606L42.2622 31.8124L42.314 32.0056L42.5072 31.9538ZM45.3229 31.1994L45.3746 31.3925L45.5678 31.3408L45.5161 31.1476L45.3229 31.1994ZM44.8287 29.3549L45.0218 29.3031L44.9701 29.1099L44.7769 29.1617L44.8287 29.3549ZM43.2784 29.7703L43.0852 29.8221L43.137 30.0152L43.3301 29.9635L43.2784 29.7703ZM42.1973 25.7358L42.1456 25.5426L41.9524 25.5944L42.0042 25.7876L42.1973 25.7358ZM48.9915 23.9153L49.0433 24.1085L49.2365 24.0567L49.1847 23.8636L48.9915 23.9153ZM48.6462 22.6265L48.8394 22.5748L48.7876 22.3816L48.5944 22.4333L48.6462 22.6265ZM41.8333 24.452L41.6401 24.5038L41.6919 24.697L41.8851 24.6452L41.8333 24.452ZM41.4705 23.0979L41.4187 22.9047L41.2255 22.9564L41.2773 23.1496L41.4705 23.0979ZM49.9504 20.8257L50.1435 20.7739L50.0918 20.5807L49.8986 20.6325L49.9504 20.8257ZM51.0176 24.8088L51.0694 25.002L51.2626 24.9502L51.2108 24.757L51.0176 24.8088ZM44.2375 26.6255L44.1857 26.4324L43.9925 26.4841L44.0443 26.6773L44.2375 26.6255ZM44.5953 27.961L44.4021 28.0128L44.4539 28.206L44.6471 28.1542L44.5953 27.961ZM51.6556 26.0692L51.8488 26.0175L51.7971 25.8243L51.6039 25.876L51.6556 26.0692ZM52.0197 27.4281L52.0715 27.6212L52.2647 27.5695L52.2129 27.3763L52.0197 27.4281ZM50.32 27.8835L50.2683 27.6903L50.0751 27.7421L50.1268 27.9353L50.32 27.8835ZM50.8143 29.728L50.6211 29.7797L50.6728 29.9729L50.866 29.9211L50.8143 29.728ZM46.9619 30.7602L46.7687 30.812L46.8205 31.0051L47.0137 30.9534L46.9619 30.7602ZM49.1566 30.1721L49.2083 30.3653L49.4015 30.3135L49.3498 30.1204L49.1566 30.1721ZM48.6623 28.3277L48.8555 28.2759L48.8038 28.0827L48.6106 28.1345L48.6623 28.3277ZM46.4677 28.9157L46.4159 28.7225L46.2227 28.7743L46.2745 28.9675L46.4677 28.9157ZM53.306 29.0603L53.6751 30.4378L54.0615 30.3343L53.6924 28.9567L53.306 29.0603ZM53.8166 30.1928L42.8245 33.1382L42.928 33.5245L53.9201 30.5792L53.8166 30.1928ZM43.0694 33.2796L42.7003 31.9021L42.314 32.0056L42.6831 33.3831L43.0694 33.2796ZM42.5589 32.147L45.3746 31.3925L45.2711 31.0062L42.4554 31.7606L42.5589 32.147ZM45.5161 31.1476L45.0218 29.3031L44.6355 29.4067L45.1297 31.2511L45.5161 31.1476ZM44.7769 29.1617L43.2266 29.5771L43.3301 29.9635L44.8804 29.5481L44.7769 29.1617ZM43.4716 29.7185L42.3905 25.6841L42.0042 25.7876L43.0852 29.8221L43.4716 29.7185ZM42.2491 25.929L49.0433 24.1085L48.9397 23.7221L42.1456 25.5426L42.2491 25.929ZM49.1847 23.8636L48.8394 22.5748L48.453 22.6783L48.7983 23.9671L49.1847 23.8636ZM48.5944 22.4333L41.7816 24.2588L41.8851 24.6452L48.6979 22.8197L48.5944 22.4333ZM42.0265 24.4003L41.6637 23.0461L41.2773 23.1496L41.6401 24.5038L42.0265 24.4003ZM41.5223 23.2911L50.0021 21.0189L49.8986 20.6325L41.4187 22.9047L41.5223 23.2911ZM49.7572 20.8775L50.8244 24.8606L51.2108 24.757L50.1435 20.7739L49.7572 20.8775ZM50.9659 24.6156L44.1857 26.4324L44.2892 26.8187L51.0694 25.002L50.9659 24.6156ZM44.0443 26.6773L44.4021 28.0128L44.7885 27.9093L44.4307 26.5738L44.0443 26.6773ZM44.6471 28.1542L51.7074 26.2624L51.6039 25.876L44.5435 27.7678L44.6471 28.1542ZM51.4625 26.121L51.8266 27.4798L52.2129 27.3763L51.8488 26.0175L51.4625 26.121ZM51.968 27.2349L50.2683 27.6903L50.3718 28.0767L52.0715 27.6212L51.968 27.2349ZM50.1268 27.9353L50.6211 29.7797L51.0074 29.6762L50.5132 27.8317L50.1268 27.9353ZM50.866 29.9211L53.551 29.2017L53.4475 28.8153L50.7625 29.5348L50.866 29.9211ZM47.0137 30.9534L49.2083 30.3653L49.1048 29.9789L46.9101 30.567L47.0137 30.9534ZM49.3498 30.1204L48.8555 28.2759L48.4692 28.3794L48.9634 30.2239L49.3498 30.1204ZM48.6106 28.1345L46.4159 28.7225L46.5194 29.1089L48.7141 28.5208L48.6106 28.1345ZM46.2745 28.9675L46.7687 30.812L47.1551 30.7084L46.6609 28.864L46.2745 28.9675Z" fill="#888888" mask="url(#path-2-outside-1_1984_14475)"/>
</g>
<defs>
<filter id="filter0_d_1984_14475" x="2.64624" y="17.7021" width="56.5825" height="32.1827" filterUnits="userSpaceOnUse" color-interpolation-filters="sRGB">
<feFlood flood-opacity="0" result="BackgroundImageFix"/>
<feColorMatrix in="SourceAlpha" type="matrix" values="0 0 0 0 0 0 0 0 0 0 0 0 0 0 0 0 0 0 127 0" result="hardAlpha"/>
<feOffset dx="1" dy="2"/>
<feGaussianBlur stdDeviation="2"/>
<feComposite in2="hardAlpha" operator="out"/>
<feColorMatrix type="matrix" values="0 0 0 0 0 0 0 0 0 0 0 0 0 0 0 0 0 0 0.4 0"/>
<feBlend mode="normal" in2="BackgroundImageFix" result="effect1_dropShadow_1984_14475"/>
<feBlend mode="normal" in="SourceGraphic" in2="effect1_dropShadow_1984_14475" result="shape"/>
</filter>
</defs>
</svg>
