<svg width="44" height="45" viewBox="0 0 44 45" fill="none" xmlns="http://www.w3.org/2000/svg">
<path d="M24.8041 16.0583C23.7547 16.8064 22.4705 17.2465 21.0834 17.2465C17.5396 17.2465 14.6667 14.3737 14.6667 10.8299C14.6667 7.28605 17.5396 4.41321 21.0834 4.41321C23.3806 4.41321 25.3958 5.62031 26.5293 7.4348M11.0001 37.573H15.7856C16.4096 37.573 17.0297 37.6472 17.6346 37.7957L22.6911 39.0245C23.7882 39.2918 24.9312 39.3178 26.0398 39.1024L31.6305 38.0147C33.1074 37.727 34.466 37.0199 35.5307 35.9841L39.4862 32.1363C40.6158 31.0394 40.6158 29.2593 39.4862 28.1605C38.4692 27.1712 36.8587 27.0598 35.7082 27.8988L31.0982 31.2621C30.438 31.7447 29.6347 32.0046 28.8084 32.0046H24.3568L27.1904 32.0044C28.7875 32.0044 30.0812 30.746 30.0812 29.1924V28.63C30.0812 27.34 29.1786 26.2151 27.8926 25.9033L23.5192 24.8397C22.8074 24.6671 22.0786 24.5799 21.3458 24.5799C19.577 24.5799 16.3752 26.0444 16.3752 26.0444L11.0001 28.2922M36.6667 12.6632C36.6667 16.207 33.7939 19.0799 30.2501 19.0799C26.7063 19.0799 23.8334 16.207 23.8334 12.6632C23.8334 9.11938 26.7063 6.24654 30.2501 6.24654C33.7939 6.24654 36.6667 9.11938 36.6667 12.6632ZM3.66675 27.5132L3.66675 38.1465C3.66675 39.1733 3.66675 39.6867 3.86657 40.0789C4.04234 40.4238 4.3228 40.7043 4.66776 40.88C5.05994 41.0799 5.57332 41.0799 6.60008 41.0799H8.06675C9.09351 41.0799 9.60689 41.0799 9.99906 40.8801C10.344 40.7043 10.6245 40.4238 10.8003 40.0789C11.0001 39.6867 11.0001 39.1733 11.0001 38.1465V27.5132C11.0001 26.4864 11.0001 25.9731 10.8003 25.5809C10.6245 25.2359 10.344 24.9555 9.99906 24.7797C9.60689 24.5799 9.09351 24.5799 8.06675 24.5799L6.60008 24.5799C5.57332 24.5799 5.05994 24.5799 4.66777 24.7797C4.3228 24.9555 4.04234 25.2359 3.86657 25.5809C3.66675 25.9731 3.66675 26.4864 3.66675 27.5132Z" stroke="white" stroke-width="2" stroke-linecap="round" stroke-linejoin="round"/>
</svg>
