<svg width="21" height="21" viewBox="0 0 21 21" fill="none" xmlns="http://www.w3.org/2000/svg">
<path fill-rule="evenodd" clip-rule="evenodd" d="M4.74972 0.499914C4.50632 0.499646 4.29191 0.499409 4.08809 0.557619C3.90925 0.608695 3.74147 0.692587 3.5933 0.805014C3.42444 0.933144 3.29599 1.10481 3.15016 1.2997L1.24001 3.84662L1.21254 3.88323C1.00136 4.16467 0.855111 4.35957 0.749387 4.57819C0.65587 4.77156 0.587665 4.97617 0.546455 5.18698C0.499866 5.42531 0.499924 5.66898 0.500007 6.02083L0.500014 15.8214C0.500009 16.3632 0.500005 16.8003 0.528923 17.1543C0.558697 17.5187 0.621604 17.8388 0.772498 18.1349C1.01218 18.6053 1.39463 18.9878 1.86504 19.2275C2.16118 19.3784 2.48128 19.4413 2.8457 19.471C3.19964 19.5 3.63671 19.5 4.1786 19.4999L12 19.4999C12.2762 19.4999 12.5 19.2761 12.5 18.9999C12.5 18.7238 12.2762 18.4999 12 18.4999L4.20001 18.4999C3.63171 18.4999 3.23555 18.4996 2.92713 18.4744C2.62455 18.4496 2.45071 18.4035 2.31903 18.3365C2.03678 18.1926 1.80731 17.9632 1.6635 17.6809C1.59641 17.5493 1.55032 17.3754 1.5256 17.0728C1.5004 16.7644 1.50001 16.3683 1.50001 15.7999L1.50001 6.06661C1.50001 5.65185 1.50216 5.51042 1.52788 5.37883L1.52816 5.37742C1.67729 5.45014 1.83341 5.4732 1.95828 5.48459C2.12696 5.49998 2.33941 5.49996 2.57798 5.49995H17.422C17.6606 5.49996 17.8731 5.49998 18.0417 5.48459C18.1666 5.4732 18.3227 5.45014 18.4719 5.37742L18.4721 5.37884C18.4979 5.51042 18.5 5.65185 18.5 6.06662V13C18.5 13.2761 18.7239 13.5 19 13.5C19.2762 13.5 19.5 13.2761 19.5 13L19.5 6.02084C19.5001 5.66901 19.5002 5.4253 19.4536 5.18698C19.4124 4.97618 19.3442 4.77156 19.2506 4.57819C19.1449 4.35958 18.9987 4.16468 18.7875 3.88325L16.8499 1.29969C16.704 1.10481 16.5756 0.933143 16.4067 0.805014C16.2586 0.692586 16.0908 0.608695 15.9119 0.557619C15.7081 0.499409 15.4937 0.499646 15.2503 0.499914H4.74972ZM8.50001 1.49995L4.80001 1.49995C4.4777 1.49995 4.4142 1.50447 4.36271 1.51917C4.30309 1.5362 4.24717 1.56416 4.19778 1.60164C4.15512 1.63401 4.1134 1.6821 3.92001 1.93995L2.36001 4.01995C2.19958 4.23385 2.10041 4.36693 2.03845 4.46741L2.02694 4.48648L2.04911 4.48872C2.16668 4.49945 2.33256 4.49995 2.60001 4.49995L8.50001 4.49995V1.49995ZM9.50001 4.49995H10.5V1.49995H9.50001V4.49995ZM11.5 1.49995V4.49995L17.4 4.49995C17.6675 4.49995 17.8333 4.49945 17.9509 4.48872L17.9731 4.48648L17.9616 4.46741C17.8996 4.36691 17.8005 4.23391 17.64 4.01995L16.08 1.93995C15.8866 1.6821 15.8449 1.63401 15.8023 1.60164C15.7529 1.56416 15.6969 1.5362 15.6373 1.51917C15.5858 1.50447 15.5223 1.49995 15.2 1.49995L11.5 1.49995Z" fill="white"/>
<path d="M15.3536 14.6463C15.1583 14.4511 14.8417 14.4511 14.6465 14.6463C14.4512 14.8416 14.4512 15.1582 14.6465 15.3534L16.7929 17.4999L14.6465 19.6463C14.4512 19.8416 14.4512 20.1582 14.6465 20.3534C14.8417 20.5487 15.1583 20.5487 15.3536 20.3534L17.5 18.207L19.6465 20.3534C19.8417 20.5487 20.1583 20.5487 20.3536 20.3534C20.5488 20.1582 20.5488 19.8416 20.3536 19.6463L18.2071 17.4999L20.3536 15.3534C20.5488 15.1582 20.5488 14.8416 20.3536 14.6463C20.1583 14.4511 19.8417 14.4511 19.6465 14.6463L17.5 16.7928L15.3536 14.6463Z" fill="white"/>
<path d="M1.24001 3.84662L1.24621 3.85126M1.24001 3.84662L1.21254 3.88323C1.00136 4.16467 0.855111 4.35957 0.749387 4.57819C0.65587 4.77156 0.587665 4.97617 0.546455 5.18698C0.499866 5.42531 0.499924 5.66898 0.500007 6.02083L0.500014 15.8214C0.500009 16.3632 0.500005 16.8003 0.528923 17.1543C0.558697 17.5187 0.621604 17.8388 0.772498 18.1349C1.01218 18.6053 1.39463 18.9878 1.86504 19.2275C2.16118 19.3784 2.48128 19.4413 2.8457 19.471C3.19964 19.5 3.63671 19.5 4.1786 19.4999L12 19.4999C12.2762 19.4999 12.5 19.2761 12.5 18.9999C12.5 18.7238 12.2762 18.4999 12 18.4999L4.20001 18.4999C3.63171 18.4999 3.23555 18.4996 2.92713 18.4744C2.62455 18.4496 2.45071 18.4035 2.31903 18.3365C2.03678 18.1926 1.80731 17.9632 1.6635 17.6809C1.59641 17.5493 1.55032 17.3754 1.5256 17.0728C1.5004 16.7644 1.50001 16.3683 1.50001 15.7999L1.50001 6.06661C1.50001 5.65185 1.50216 5.51042 1.52788 5.37883L1.52816 5.37742C1.67729 5.45014 1.83341 5.4732 1.95828 5.48459C2.12696 5.49998 2.33941 5.49996 2.57798 5.49995H17.422C17.6606 5.49996 17.8731 5.49998 18.0417 5.48459C18.1666 5.4732 18.3227 5.45014 18.4719 5.37742L18.4721 5.37884C18.4979 5.51042 18.5 5.65185 18.5 6.06662V13C18.5 13.2761 18.7239 13.5 19 13.5C19.2762 13.5 19.5 13.2761 19.5 13L19.5 6.02084C19.5001 5.66901 19.5002 5.4253 19.4536 5.18698C19.4124 4.97618 19.3442 4.77156 19.2506 4.57819C19.1449 4.35958 18.9987 4.16468 18.7875 3.88325L16.8499 1.29969C16.704 1.10481 16.5756 0.933143 16.4067 0.805014C16.2586 0.692586 16.0908 0.608695 15.9119 0.557619C15.7081 0.499409 15.4937 0.499646 15.2503 0.499914H4.74972C4.50632 0.499646 4.29191 0.499409 4.08809 0.557619C3.90925 0.608695 3.74147 0.692587 3.5933 0.805014C3.42444 0.933144 3.29599 1.10481 3.15016 1.2997L1.24001 3.84662ZM8.50001 1.49995L4.80001 1.49995C4.4777 1.49995 4.4142 1.50447 4.36271 1.51917C4.30309 1.5362 4.24717 1.56416 4.19778 1.60164C4.15512 1.63401 4.1134 1.6821 3.92001 1.93995L2.36001 4.01995C2.19958 4.23385 2.10041 4.36693 2.03845 4.46741L2.02694 4.48648L2.04911 4.48872C2.16668 4.49945 2.33256 4.49995 2.60001 4.49995L8.50001 4.49995V1.49995ZM9.50001 4.49995H10.5V1.49995H9.50001V4.49995ZM11.5 1.49995V4.49995L17.4 4.49995C17.6675 4.49995 17.8333 4.49945 17.9509 4.48872L17.9731 4.48648L17.9616 4.46741C17.8996 4.36691 17.8005 4.23391 17.64 4.01995L16.08 1.93995C15.8866 1.6821 15.8449 1.63401 15.8023 1.60164C15.7529 1.56416 15.6969 1.5362 15.6373 1.51917C15.5858 1.50447 15.5223 1.49995 15.2 1.49995L11.5 1.49995ZM15.3536 14.6463C15.1583 14.4511 14.8417 14.4511 14.6465 14.6463C14.4512 14.8416 14.4512 15.1582 14.6465 15.3534L16.7929 17.4999L14.6465 19.6463C14.4512 19.8416 14.4512 20.1582 14.6465 20.3534C14.8417 20.5487 15.1583 20.5487 15.3536 20.3534L17.5 18.207L19.6465 20.3534C19.8417 20.5487 20.1583 20.5487 20.3536 20.3534C20.5488 20.1582 20.5488 19.8416 20.3536 19.6463L18.2071 17.4999L20.3536 15.3534C20.5488 15.1582 20.5488 14.8416 20.3536 14.6463C20.1583 14.4511 19.8417 14.4511 19.6465 14.6463L17.5 16.7928L15.3536 14.6463Z" stroke="white" stroke-width="0.2"/>
</svg>
