<svg width="48" height="48" viewBox="0 0 48 48" fill="none" xmlns="http://www.w3.org/2000/svg">
<g clip-path="url(#clip0_1588_14467)">
<path d="M38.0614 0H9.93859C4.44966 0 0 4.44966 0 9.93859V38.0614C0 43.5503 4.44966 48 9.93859 48H38.0614C43.5503 48 48 43.5503 48 38.0614V9.93859C48 4.44966 43.5503 0 38.0614 0Z" fill="url(#paint0_linear_1588_14467)"/>
<path d="M24.0012 13.9005C22.8248 13.9005 21.6808 14.0492 20.5909 14.3278V11.7911C20.5909 8.94066 18.2814 6.62842 15.4283 6.62842C12.5752 6.62842 10.2656 8.94066 10.2656 11.7911V27.636C10.2656 35.2218 16.4154 41.3716 24.0012 41.3716C31.5869 41.3716 37.7367 35.2218 37.7367 27.636C37.7367 20.0502 31.5869 13.9005 24.0012 13.9005ZM24.0012 39.3054C17.5566 39.3054 12.3318 34.0806 12.3318 27.636V11.7911C12.3318 10.0819 13.7191 8.69456 15.4283 8.69456C17.1374 8.69456 18.5248 10.0819 18.5248 11.7911V27.636C18.5248 30.6595 20.9777 33.1124 24.0012 33.1124C27.0247 33.1124 29.4775 30.6595 29.4775 27.636C29.4775 24.6125 27.0247 22.1597 24.0012 22.1597C22.7112 22.1597 21.5267 22.6059 20.5909 23.3523V20.9102C21.6159 20.3883 22.7734 20.0962 24.0012 20.0962C28.1659 20.0962 31.541 23.4713 31.541 27.636C31.541 31.8008 28.1659 35.1758 24.0012 35.1758C19.8364 35.1758 16.4614 31.8008 16.4614 27.636V11.7911C16.4614 11.2205 15.9989 10.758 15.4283 10.758C14.8577 10.758 14.3952 11.2205 14.3952 11.7911V27.636C14.3952 32.942 18.6952 37.242 24.0012 37.242C29.3071 37.242 33.6071 32.942 33.6071 27.636C33.6071 22.33 29.3071 18.0301 24.0012 18.0301C22.8004 18.0301 21.6511 18.2518 20.5909 18.6548V16.4724C21.67 16.1424 22.8166 15.9639 24.0012 15.9639C30.4457 15.9639 35.6705 21.1888 35.6705 27.6333C35.6705 34.0778 30.4457 39.3027 24.0012 39.3027V39.3054ZM20.5909 27.636C20.5909 25.7511 22.1189 24.2258 24.0012 24.2258C25.8834 24.2258 27.4114 25.7538 27.4114 27.636C27.4114 29.5183 25.8834 31.0462 24.0012 31.0462C22.1189 31.0462 20.5909 29.5183 20.5909 27.636Z" fill="white"/>
</g>
<defs>
<linearGradient id="paint0_linear_1588_14467" x1="24.0014" y1="48" x2="24.0014" y2="0" gradientUnits="userSpaceOnUse">
<stop stop-color="#06A31C"/>
<stop offset="0.25" stop-color="#10B024"/>
<stop offset="0.5" stop-color="#21C531"/>
<stop offset="0.8" stop-color="#3EDF3D"/>
<stop offset="0.93" stop-color="#5BEB3A"/>
<stop offset="1" stop-color="#7AF131"/>
</linearGradient>
<clipPath id="clip0_1588_14467">
<rect width="48" height="48" rx="10" fill="white"/>
</clipPath>
</defs>
</svg>
