<svg width="18" height="18" viewBox="0 0 18 18" fill="none" xmlns="http://www.w3.org/2000/svg">
<path d="M4.14 1.98L2.97 3.54C2.73826 3.84898 2.62239 4.00348 2.62508 4.13279C2.62742 4.24533 2.68019 4.35086 2.76881 4.42026C2.87065 4.5 3.06377 4.5 3.45 4.5H14.55C14.9362 4.5 15.1293 4.5 15.2312 4.42026C15.3198 4.35086 15.3726 4.24533 15.3749 4.13279C15.3776 4.00348 15.2617 3.84898 15.03 3.54L13.86 1.98M4.14 1.98C4.272 1.804 4.338 1.716 4.42164 1.65253C4.49573 1.59632 4.57962 1.55437 4.66904 1.52883C4.77 1.5 4.88 1.5 5.1 1.5H12.9C13.12 1.5 13.23 1.5 13.331 1.52883C13.4204 1.55437 13.5043 1.59632 13.5784 1.65253C13.662 1.716 13.728 1.804 13.86 1.98M4.14 1.98L2.73 3.86C2.5519 4.09746 2.46286 4.21619 2.39962 4.34694C2.34351 4.46296 2.30259 4.58573 2.27786 4.71222C2.25 4.85476 2.25 5.00317 2.25 5.3L2.25 14.1C2.25 14.9401 2.25 15.3601 2.41349 15.681C2.5573 15.9632 2.78677 16.1927 3.06901 16.3365C3.38988 16.5 3.80992 16.5 4.65 16.5L13.35 16.5C14.1901 16.5 14.6101 16.5 14.931 16.3365C15.2132 16.1927 15.4427 15.9632 15.5865 15.681C15.75 15.3601 15.75 14.9401 15.75 14.1V5.3C15.75 5.00317 15.75 4.85476 15.7221 4.71222C15.6974 4.58574 15.6565 4.46297 15.6004 4.34694C15.5371 4.21619 15.4481 4.09746 15.27 3.86L13.86 1.98M12 7.5C12 8.29565 11.6839 9.05871 11.1213 9.62132C10.5587 10.1839 9.79565 10.5 9 10.5C8.20435 10.5 7.44129 10.1839 6.87868 9.62132C6.31607 9.05871 6 8.29565 6 7.5" stroke="#575757" stroke-linecap="round" stroke-linejoin="round"/>
</svg>
