<svg width="18" height="18" viewBox="0 0 18 18" fill="none" xmlns="http://www.w3.org/2000/svg">
<path d="M9.83333 2.33333H12.5C13.9001 2.33333 14.6002 2.33333 15.135 2.60582C15.6054 2.8455 15.9878 3.22795 16.2275 3.69836C16.5 4.23314 16.5 4.9332 16.5 6.33333V10.6667C16.5 11.4416 16.5 11.8291 16.4148 12.147C16.1836 13.0098 15.5098 13.6836 14.647 13.9148C14.3291 14 13.9416 14 13.1667 14V15.9463C13.1667 16.3903 13.1667 16.6123 13.0756 16.7263C12.9965 16.8255 12.8764 16.8832 12.7496 16.8831C12.6036 16.8829 12.4303 16.7442 12.0835 16.4668L10.0957 14.8765C9.68957 14.5517 9.48653 14.3892 9.26043 14.2737C9.05983 14.1712 8.84631 14.0963 8.62565 14.051C8.37694 14 8.11692 14 7.59688 14H6.33333C4.9332 14 4.23314 14 3.69836 13.7275C3.22795 13.4878 2.8455 13.1054 2.60582 12.635C2.33333 12.1002 2.33333 11.4001 2.33333 10V9.83333M2.23223 2.23223C1.25592 3.20854 1.25592 4.79146 2.23223 5.76777C3.20854 6.74408 4.79146 6.74408 5.76777 5.76777C6.74408 4.79146 6.74408 3.20854 5.76777 2.23223C4.79146 1.25592 3.20854 1.25592 2.23223 2.23223Z" stroke="white" stroke-width="1.4" stroke-linecap="round" stroke-linejoin="round"/>
</svg>
