<svg width="17" height="16" fill="none" xmlns="http://www.w3.org/2000/svg"><path d="M11.833 1.333v7.334m3.333-2.133V3.466c0-.747 0-1.12-.145-1.405a1.334 1.334 0 00-.583-.583c-.285-.146-.658-.146-1.405-.146H5.912c-.975 0-1.462 0-1.855.179a2 2 0 00-.85.729c-.236.361-.31.843-.458 1.806L2.4 6.314c-.195 1.27-.293 1.905-.104 2.399a2 2 0 00.88 1.026C3.636 10 4.278 10 5.563 10H6.1c.373 0 .56 0 .702.073a.666.666 0 01.292.291c.072.143.072.33.072.703v1.956c0 .908.736 1.644 1.644 1.644a.548.548 0 00.501-.326l2.24-5.04c.102-.23.153-.345.234-.429a.667.667 0 01.255-.166c.11-.04.235-.04.486-.04h.507c.747 0 1.12 0 1.405-.145.251-.127.455-.331.583-.582.145-.285.145-.659.145-1.405z" stroke="#E45659" stroke-width="1.5" stroke-linecap="round" stroke-linejoin="round"/></svg>