<svg width="17" height="16" fill="none" xmlns="http://www.w3.org/2000/svg"><path d="M11.833 1.333v7.333m3.334-2.133V3.466c0-.746 0-1.12-.146-1.405a1.333 1.333 0 00-.582-.583c-.286-.145-.659-.145-1.406-.145H5.912c-.974 0-1.462 0-1.855.178a2 2 0 00-.85.73c-.236.36-.31.842-.458 1.805L2.4 6.313c-.195 1.27-.293 1.905-.104 2.4a2 2 0 00.88 1.025C3.636 10 4.278 10 5.563 10H6.1c.373 0 .56 0 .703.072a.667.667 0 01.291.292c.073.142.073.329.073.702v1.956c0 .908.736 1.644 1.644 1.644a.548.548 0 00.5-.325l2.24-5.041c.103-.23.154-.344.234-.428a.666.666 0 01.256-.166c.11-.04.235-.04.486-.04h.506c.747 0 1.12 0 1.406-.145.25-.128.454-.332.582-.583.146-.285.146-.658.146-1.405z" stroke="#575757" stroke-linecap="round" stroke-linejoin="round"/></svg>