<svg width="16" height="16" fill="none" xmlns="http://www.w3.org/2000/svg"><g clip-path="url(#clip0_54_2022)"><path d="M4.666 14.667V7.334M1.333 8.666v4.667c0 .736.597 1.333 1.333 1.333h8.951a2 2 0 001.977-1.696l.718-4.667A2 2 0 0012.335 6H10a.667.667 0 01-.667-.667V2.978c0-.908-.736-1.643-1.644-1.643a.548.548 0 00-.5.325L4.841 6.938a.667.667 0 01-.609.396H2.666c-.736 0-1.333.596-1.333 1.333z" stroke="#467DD1" stroke-width="1.5" stroke-linecap="round" stroke-linejoin="round"/></g><defs><clipPath id="clip0_54_2022"><path fill="#fff" d="M0 0h16v16H0z"/></clipPath></defs></svg>