<svg width="16" height="17" viewBox="0 0 16 17" fill="none" xmlns="http://www.w3.org/2000/svg">
<path d="M14 10.4995V7.54337C14 7.16046 14 6.96901 13.9506 6.7927C13.9069 6.63652 13.8351 6.48963 13.7386 6.35924C13.6298 6.21204 13.4786 6.09449 13.1764 5.85942L8.65487 2.34267C8.42065 2.1605 8.30354 2.06941 8.17423 2.0344C8.06013 2.00351 7.93987 2.00351 7.82577 2.0344C7.69646 2.06941 7.57935 2.1605 7.34513 2.34267L2.82359 5.85942C2.52135 6.0945 2.37022 6.21204 2.26135 6.35924C2.16491 6.48963 2.09307 6.63652 2.04935 6.7927C2 6.96901 2 7.16046 2 7.54337V12.3667C2 13.1134 2 13.4868 2.14532 13.772C2.27316 14.0229 2.47713 14.2268 2.72801 14.3547C3.01323 14.5 3.3866 14.5 4.13333 14.5H9.33333M10.6667 12.5L12.6667 14.5M12.6667 14.5L14.6667 12.5M12.6667 14.5V10.5" stroke="#E45659" stroke-linecap="round" stroke-linejoin="round"/>
</svg>
