<svg width="20" height="20" viewBox="0 0 20 20" fill="none" xmlns="http://www.w3.org/2000/svg">
<path d="M17.5 11.6667V8.80421C17.5 8.32558 17.5 8.08627 17.4383 7.86588C17.3837 7.67065 17.2939 7.48704 17.1733 7.32405C17.0372 7.14005 16.8483 6.99311 16.4705 6.69927L10.8186 2.30333C10.5258 2.07562 10.3794 1.96177 10.2178 1.918C10.0752 1.87938 9.92484 1.87938 9.78221 1.918C9.62057 1.96177 9.47418 2.07562 9.18141 2.30333L3.52949 6.69927C3.15168 6.99312 2.96278 7.14005 2.82669 7.32405C2.70614 7.48704 2.61633 7.67065 2.56169 7.86588C2.5 8.08627 2.5 8.32558 2.5 8.80421V14.8333C2.5 15.7667 2.5 16.2335 2.68166 16.59C2.84144 16.9036 3.09641 17.1585 3.41002 17.3183C3.76654 17.5 4.23325 17.5 5.16667 17.5H12.5M12.2217 13.3355H15.6939C16.8445 13.3355 17.7772 14.2682 17.7772 15.4188C17.7772 16.5694 16.8445 17.5022 15.6939 17.5022H12.2217M12.2217 13.3355L13.6106 11.9466M12.2217 13.3355L13.6106 14.7244" stroke="#888888" stroke-linecap="round" stroke-linejoin="round"/>
</svg>
