<svg width="16" height="17" viewBox="0 0 16 17" fill="none" xmlns="http://www.w3.org/2000/svg">
<path d="M9.3335 5.16663H10.8917C11.0547 5.16663 11.1363 5.16663 11.213 5.18505C11.281 5.20138 11.346 5.22831 11.4057 5.26487C11.473 5.30609 11.5306 5.36374 11.6459 5.47905L14.3544 8.18754C14.4697 8.30284 14.5274 8.36049 14.5686 8.42777C14.6051 8.48742 14.6321 8.55245 14.6484 8.62047C14.6668 8.6972 14.6668 8.77873 14.6668 8.94179V10.8333C14.6668 11.1439 14.6668 11.2992 14.6161 11.4217C14.5484 11.5851 14.4186 11.7149 14.2553 11.7825C14.1328 11.8333 13.9775 11.8333 13.6668 11.8333M10.3335 11.8333H9.3335M9.3335 11.8333V5.29996C9.3335 4.55322 9.3335 4.17985 9.18817 3.89464C9.06034 3.64376 8.85637 3.43978 8.60548 3.31195C8.32027 3.16663 7.9469 3.16663 7.20016 3.16663H3.46683C2.72009 3.16663 2.34672 3.16663 2.06151 3.31195C1.81063 3.43978 1.60665 3.64376 1.47882 3.89464C1.3335 4.17985 1.3335 4.55322 1.3335 5.29996V10.5C1.3335 11.2363 1.93045 11.8333 2.66683 11.8333M9.3335 11.8333H6.66683M6.66683 11.8333C6.66683 12.9379 5.7714 13.8333 4.66683 13.8333C3.56226 13.8333 2.66683 12.9379 2.66683 11.8333M6.66683 11.8333C6.66683 10.7287 5.7714 9.83329 4.66683 9.83329C3.56226 9.83329 2.66683 10.7287 2.66683 11.8333M13.6668 12.1666C13.6668 13.0871 12.9206 13.8333 12.0002 13.8333C11.0797 13.8333 10.3335 13.0871 10.3335 12.1666C10.3335 11.2462 11.0797 10.5 12.0002 10.5C12.9206 10.5 13.6668 11.2462 13.6668 12.1666Z" stroke="#E45659" stroke-linecap="round" stroke-linejoin="round"/>
</svg>
