<svg width="32" height="2" viewBox="0 0 32 2" fill="none" xmlns="http://www.w3.org/2000/svg">
<path d="M1 2C1.55228 2 2 1.55228 2 1C2 0.447723 1.55228 0 1 0C0.447716 0 0 0.447723 0 1C0 1.55228 0.447716 2 1 2Z" fill="#E45659"/>
<path d="M7 2C7.55229 2 8 1.55228 8 1C8 0.447723 7.55229 0 7 0C6.44771 0 6 0.447723 6 1C6 1.55228 6.44771 2 7 2Z" fill="#E45659"/>
<path d="M14 1C14 1.55228 13.5523 2 13 2C12.4477 2 12 1.55228 12 1C12 0.447723 12.4477 0 13 0C13.5523 0 14 0.447723 14 1Z" fill="#E45659"/>
<path d="M19 2C19.5523 2 20 1.55228 20 1C20 0.447723 19.5523 0 19 0C18.4477 0 18 0.447723 18 1C18 1.55228 18.4477 2 19 2Z" fill="#E45659"/>
<path d="M26 1C26 1.55228 25.5523 2 25 2C24.4477 2 24 1.55228 24 1C24 0.447723 24.4477 0 25 0C25.5523 0 26 0.447723 26 1Z" fill="#E45659"/>
<path d="M31 2C31.5523 2 32 1.55228 32 1C32 0.447723 31.5523 0 31 0C30.4477 0 30 0.447723 30 1C30 1.55228 30.4477 2 31 2Z" fill="#E45659"/>
</svg>
