<svg width="16" height="16" viewBox="0 0 16 16" fill="none" xmlns="http://www.w3.org/2000/svg">
<path d="M8 10.3333H5.00001C4.06963 10.3333 3.60444 10.3333 3.22591 10.4482C2.37364 10.7067 1.7067 11.3736 1.44816 12.2259C1.33334 12.6044 1.33334 13.0696 1.33334 14M9.66667 5C9.66667 6.65685 8.32352 8 6.66667 8C5.00981 8 3.66667 6.65685 3.66667 5C3.66667 3.34315 5.00981 2 6.66667 2C8.32352 2 9.66667 3.34315 9.66667 5Z" stroke="#FA7C21" stroke-linecap="round" stroke-linejoin="round"/>
<path d="M10.6667 10.6666L9.33333 8.99992M9.33333 8.99992L10.6667 7.33325M9.33333 8.99992H14.6667" stroke="#FA7C21" stroke-width="0.8" stroke-linecap="round" stroke-linejoin="round"/>
<path d="M13.3333 14.0001L14.6667 12.3334M14.6667 12.3334L13.3333 10.6667M14.6667 12.3334H9.33334" stroke="#FA7C21" stroke-width="0.8" stroke-linecap="round" stroke-linejoin="round"/>
</svg>
