<svg width="20" height="20" viewBox="0 0 20 20" fill="none" xmlns="http://www.w3.org/2000/svg">
<path fill-rule="evenodd" clip-rule="evenodd" d="M5.66668 1.99997L5.62163 1.99992C5.42255 1.99963 5.23218 1.99935 5.05053 2.05123C4.89156 2.09663 4.74242 2.1712 4.61072 2.27113C4.46023 2.38533 4.34623 2.53779 4.22701 2.69723L4.20002 2.7333L2.90002 4.46663L2.88744 4.4834L2.86285 4.51619L2.63335 4.82219L2.63843 4.82599L2.63335 4.82219L2.60768 4.8564C2.43444 5.08722 2.30787 5.25588 2.21614 5.44555C2.13509 5.61314 2.07598 5.79047 2.04027 5.97317C1.99985 6.17994 1.99992 6.39081 2.00001 6.67941L2.00002 6.72219L2.00002 14.8333L2.00002 14.8542C2.00001 15.3032 2.00001 15.6703 2.02439 15.9687C2.04962 16.2775 2.10344 16.5564 2.23617 16.8169C2.4439 17.2246 2.77535 17.5561 3.18304 17.7638C3.44353 17.8965 3.72246 17.9504 4.03131 17.9756C4.32968 18 4.69681 18 5.14573 18H5.16668L14.8334 18H14.8543C15.3032 18 15.6704 18 15.9687 17.9756C16.2776 17.9504 16.5565 17.8965 16.817 17.7638C17.2247 17.5561 17.5561 17.2246 17.7639 16.8169C17.8966 16.5564 17.9504 16.2775 17.9756 15.9687C18 15.6703 18 15.3031 18 14.8542V14.8333V6.72219L18 6.67943V6.67942C18.0001 6.39082 18.0002 6.17994 17.9598 5.97317C17.9241 5.79047 17.8649 5.61314 17.7839 5.44555C17.6922 5.25588 17.5656 5.08723 17.3924 4.8564L17.3667 4.82219L17.1369 4.51585L17.1126 4.48341L17.1 4.46663L15.8 2.7333L15.773 2.69723C15.6538 2.53779 15.5398 2.38532 15.3893 2.27113C15.2576 2.1712 15.1085 2.09663 14.9495 2.05123C14.7679 1.99935 14.5775 1.99963 14.3784 1.99992L14.3334 1.99997H5.66668ZM3.70002 5.06663L5.00002 3.3333C5.16407 3.11456 5.19112 3.08602 5.21519 3.06776C5.24812 3.04277 5.2854 3.02413 5.32515 3.01278C5.3542 3.00448 5.39326 2.99997 5.66668 2.99997H8.75002V3.0833V5.24997V5.3333H3.83335C3.69213 5.3333 3.58684 5.3331 3.50494 5.33084C3.55227 5.26396 3.61528 5.17961 3.70002 5.06663ZM11.25 5.3333H16.1667C16.3079 5.3333 16.4132 5.3331 16.4951 5.33083C16.4488 5.26538 16.3874 5.1832 16.3054 5.07382L16.3 5.06663L15 3.3333C14.836 3.11456 14.8089 3.08602 14.7848 3.06776C14.7519 3.04277 14.7146 3.02413 14.6749 3.01278C14.6458 3.00448 14.6068 2.99997 14.3334 2.99997H11.25V3.0833V5.24997V5.3333ZM16.709 6.32016C16.7888 6.31288 16.8886 6.29977 16.9918 6.26531C16.999 6.35336 17 6.47968 17 6.72219V14.8333C17 15.3083 16.9996 15.6344 16.979 15.8872C16.9588 16.1342 16.9218 16.2669 16.8729 16.363C16.761 16.5825 16.5825 16.761 16.363 16.8728C16.267 16.9217 16.1343 16.9587 15.8873 16.9789C15.6345 16.9996 15.3083 17 14.8334 17L5.16668 17C4.69172 17 4.36557 16.9996 4.11274 16.9789C3.86574 16.9587 3.73305 16.9217 3.63703 16.8728C3.41751 16.761 3.23903 16.5825 3.12718 16.363C3.07825 16.2669 3.04124 16.1342 3.02106 15.8872C3.00041 15.6344 3.00002 15.3083 3.00002 14.8333L3.00002 6.72219C3.00002 6.47968 3.00105 6.35336 3.00825 6.26531C3.11147 6.29977 3.21123 6.31288 3.291 6.32016C3.43546 6.33333 3.6159 6.33331 3.81239 6.3333L3.83335 6.3333H16.1667L16.1876 6.3333C16.3841 6.33331 16.5646 6.33333 16.709 6.32016ZM9.75002 3.0833H10.25V5.24997H9.75002V3.0833Z" fill="#575757"/>
<path d="M7.5391 15L6.85315 12.47H5.8335V11.6966H6.63995L5.954 9.16663H7.2332L7.83572 11.6966H8.73487L9.40228 9.16663H10.598L11.2655 11.6966H12.1739L12.7671 9.16663H14.0463L13.3604 11.6966H14.1668V12.47H13.1472L12.4612 15H11.1079L10.4497 12.47H9.55986L8.89245 15H7.5391ZM8.02111 12.47L8.23431 13.3805H8.28993L8.53094 12.47H8.02111ZM9.76379 11.6966H10.2458L10.0233 10.8586H9.97699L9.76379 11.6966ZM11.4694 12.47L11.7104 13.3885H11.766L11.9885 12.47H11.4694Z" fill="#575757"/>
</svg>
