<svg xmlns="http://www.w3.org/2000/svg" width="1082" height="758" overflow="hidden"><defs><clipPath id="a"><path d="M26-1h1082v758H26z"/></clipPath></defs><g clip-path="url(#a)" transform="translate(-26 1)"><path fill="#D0103A" fill-rule="evenodd" d="M762 0h345v756H762Z"/><path fill="#FEDF00" fill-rule="evenodd" d="M373 0h388v756H373Z"/><path fill="#0018A8" fill-rule="evenodd" d="M27 0h346v756H27Z"/><path fill="#C7B37F" fill-rule="evenodd" d="M533.751 204.001c12.997 0 18.312 11.134 31.309 11.134 8.024 0 12.701-2.617 19.695-6.556 4.879-2.759 7.992-4.229 13.595-4.229 5.736 0 9.253 1.732 12.188 6.642 1.658 2.778 3.035 8.215 2.306 11.335-1.383 5.916-2.234 8.488-4.597 13.95-1.125 2.626-2.187 4.198-2.187 7.072 0 6.888 9.388 9.255 15.77 9.353 1.392.022 13.093.213 20.293-7.065-3.907-.172-8.278-3.193-8.278-7.095 0-4.415 3.106-7.402 7.318-8.677.8-.229 2.163.477 2.887.097 1.029-.533.548-1.689 1.463-2.413 2.096-1.674 3.459-2.719 6.146-2.719 1.753 0 2.781.246 4.19 1.255.745.533 1.017 1.192 1.931 1.192 1.926 0 2.88-1.217 4.804-1.217 1.562 0 2.515.209 3.887.913 1.143.59 1.118 2.53 2.414 2.53.648 0 4.075-1.396 5.867-1.396 3.716 0 5.7 1.344 8.102 4.16.647.762 1.062 2.302 1.721 2.302 1.327 0 4.384.853 6.29 2.756.82.818 1.182 1.206 1.812 2.195.438.704 1.111 2.423 1.885 2.72.908.349 1.67.281 2.864 1.046 2.723 1.744 4.819 5.021 4.72 8.197-.032 1.065-.519 2.55-.808 3.565-3.173 11.075-10.721 14.591-18.345 24.105-3.24 4.052-5.797 7.288-5.797 12.482 0 1.257 1.548 3.557 2.235 4.604-.419-2.442.698-5.44 3.283-5.579 3.539-.191 6.273 2.496 6.75 5.997.095.818-.21 2.232-.56 3.069 1.906-1.257 4.419-2.105 6.705-2.371 1.066-.13 2.14-.176 3.213-.14 5.657.14 11.901 3.317 15.69 6.531 11.593 9.832 12.995 24.223 12.362 28.22-1.408 8.88-.522 24.951-23.253 31.358 4.203 1.767 7.064 4.925 7.064 8.808 0 4.225-3.241 7.84-7.471 7.84-2.421 0-4.098-.59-5.794-2.283-4.726 4.718-5.64 9.533-5.64 16.213 0 3.995.761 6.355 2.438 9.97 1.773 3.826 3.049 6.071 6.251 8.831 1.697-2.551 3.488-4.415 6.556-4.415 2.973 0 5.489.951 6.708 3.653.363.819.038 1.485.457 2.283.534 1.029 1.43 1.257 1.983 2.284.857 1.58.019 2.931.762 4.567.476 1.066 1.524 1.219 1.982 2.284.724 1.637.915 2.759.915 4.567 0 5.062-4.613 8.678-9.682 8.678-1.524 0-2.362-.609-3.887-.457 2.897 2.893 5.107 4.149 7.318 7.612 3.201 5.005 4.001 8.563 4.726 14.463.134 1.104.153 1.77.153 2.893 0 7.573-1.182 12.103-4.574 18.877-3.24 6.489-6.003 10.086-11.892 14.31-9.185 6.603-15.876 8.507-26.984 10.657-7.129 1.37-11.206 1.979-18.449 2.436-9.262.59-14.541.608-23.784 1.217-12.12.818-20.524 2.531-29.12 11.114 4.061 2.968 6.862 5.881 6.862 10.885 0 5.137-3.183 8.81-8.081 10.429-1.143.38-1.982.037-3.049.608-1.277.666-1.22 2.131-2.439 2.893-2.154 1.37-3.831 1.675-6.404 1.675-4.535 0-7.623-1.067-10.825-4.264-3.715 3.083-4.974 5.862-9.147 8.222-1.373.761-2.078 1.826-3.659 1.826-2.497 0-3.64-1.579-5.641-3.045-3.183-2.322-4.879-3.863-7.471-6.849-3.792 2.264-6.118 4.11-10.52 4.11-2.706 0-4.422-.382-6.709-1.828-1.2-.742-1.391-1.846-2.591-2.588-1.258-.78-2.306-.494-3.659-1.066-5.088-2.188-8.385-5.956-8.385-11.493 0-4.853 3.068-7.936 7.471-9.973-8.443-8.429-16.752-9.894-28.663-10.655-9.206-.59-14.446-.609-23.632-1.218-7.3-.496-11.358-1.238-18.6-2.436-5.471-.894-8.709-1.18-13.721-3.502-17.247-8.031-28.244-19.048-30.493-37.907-.191-1.618-.153-2.55-.153-4.186 0-9.82 3.869-15.814 10.824-22.76-1.79-.42-2.992.171-4.726-.457-4.345-1.58-7.47-4.587-7.47-9.211 0-1.713.076-2.854.915-4.338.591-1.047 1.715-1.257 1.981-2.436.343-1.561-.114-2.665.611-4.111.476-.969 1.371-1.161 1.829-2.132 1.505-3.12 3.393-5.632 6.86-5.632 2.974 0 4.88 1.56 6.403 4.111 2.897-1.333 3.698-3.503 5.337-6.243 2.726-4.548 3.964-7.726 3.964-13.016 0-3.692-.362-5.861-1.524-9.362-.839-2.513-1.182-4.225-3.049-6.089-1.697 1.693-3.374 2.283-5.794 2.283-4.841 0-8.538-4.149-8.538-8.982 0-3.597 1.772-6.261 5.032-7.765-2.612-2.245-4.88-2.435-7.777-4.262-4.401-2.778-5.945-5.709-8.841-10.048-1.888-2.836-2.384-4.814-3.355-8.069-1.162-3.92-1.83-6.26-1.83-10.352 0-1.066.019-1.694.152-2.74 1.087-8.259 2.573-13.436 7.776-19.944 3.087-3.863 5.184-6.241 9.758-8.221 3.887-1.674 6.212-2.892 10.443-2.892 1.277 0 2.02 0 3.279.153 1.942.247 3.182.417 4.878 1.37.647.361 1.829 1.446 1.829.684 0-.875-.457-1.332-.457-2.207 0-3.501 2.515-6.699 6.023-6.699 2.534 0 3.563 2.227 4.802 4.415.801-1.332 1.219-2.245 1.219-3.806 0-5.785-3.106-8.734-6.709-13.244-7.851-9.801-17.684-14.387-17.684-26.946 0-3.748 1.81-6.3 5.031-8.221.933-.552 2.19 0 3.103-.585.782-.495.693-1.502 1.188-2.301.782-1.237 1.473-1.769 2.559-2.72 1.791-1.56 3.365-1.093 5.346-2.463.991-.685 1.225-1.575 1.988-2.487 2.211-2.665 4.195-3.952 7.682-3.952 1.753 0 2.738.011 4.358.654.552.21 1.585 1.041 1.719.881.348-.419 1.294-1.421 2.419-1.953 1.467-.704 2.063-.977 3.702-.977 1.868 0 3.091 1.046 4.959 1.046.686 0 .844-.684 1.396-1.046 1.658-1.122 2.612-1.757 4.633-1.757 1.944 0 3.017.642 4.657 1.687 1.542.972 1.765 2.271 3.346 3.185.877.514 1.62.285 2.593.609 4.344 1.446 7.623 4.339 7.623 8.906 0 2.474-.591 4.243-2.439 5.861-1.468 1.293-2.859 1.066-4.727 1.675 6.061 4.833 11.334 6.032 19.071 6.032 7.089 0 15.76-2.894 15.76-9.973 0-3.292-1.823-5.062-3.12-8.087-2.325-5.385-3.586-8.553-3.586-14.414 0-4.643.507-7.46 3.213-11.229 2.783-3.881 6.181-4.787 10.966-4.787Z"/><path fill="none" stroke="#703D29" stroke-linejoin="round" stroke-miterlimit="10" stroke-width="1.12325" d="M487.5 241.909c.431 1.886 1.748 3.655 3.811 4.403 1.241.449 4.111.27 5.972-2.518 1.51-2.26 1.394-5.059.832-7.283-.366-1.44-1.368-2.829-2.692-4.011l-7.92 9.319-.002.091Z"/><path fill="none" stroke="#703D29" stroke-linecap="round" stroke-miterlimit="8" stroke-width="1.11895" d="M704.159 371.845c-1.984-4.85-7.108-2.676-7.424 0-.726 6.163 4.614 8.026 8.416 7.021 1.883-.495 3.261-1.695 4.142-3.258.993-1.763 1.294-4.065.649-6.262-.293-.997-.705-1.836-1.41-2.776-.707-.944-1.44-1.591-2.125-2.032-1.462-.944-3.056-1.038-5.554-1.038-9.258 0-17.358 11.064-20.079 22.557-.895 3.785-2.127 12.226-.421 20.232 1.818 8.527 5.463 14.431 9.739 18.91 2.314 2.423 5.471 4.583 9.557 6.919 1.26.721 4.593 2.215 6.906 2.885 2.378.687 4.572.586 6.548.153 5.486-1.204 8.037-6.366 5.274-11.646-2.264-4.322-8.928-6.687-12.069-1.17-.266.469-.681 1.489-.668 2.593.017 1.471.621 3.244 1.66 3.914 2.388 1.536 6.206 1.101 6.03-3.162"/><path fill="none" stroke="#703D29" stroke-miterlimit="8" stroke-width="1.3768" d="M675.152 435.787c1.893-2.216 6.234-5.539 11.2-6.146 5.039-.616 9.419.844 13.89 3.237 8.728 4.671 13.594 9.693 16.837 19.009.823 2.367 1.507 5.933 1.412 9.722-.151 6.038-1.692 12.64-3.348 15.831-1.444 2.784-5.219 15.079-25.929 23.564-12.086 4.95-30.645 6.091-43.442 6.595-17.602.691-33.843 1.34-43.272 12.901"/><path fill="none" stroke="#703D29" stroke-miterlimit="8" stroke-width="1.20955" d="M679.75 455.16c-.506-1.847-.038-3.618 1.433-5.625 1.968-2.685 6.155-3.61 9.95-1.512 1.269.702 2.861 1.627 4.301 3.527.544.718 1.464 1.878 1.939 2.687 1.148 1.954 1.62 3.555 1.847 4.197 4.171 11.801-2.457 24.59-11.122 29.721-6.731 3.984-14.759 5.762-24.369 6.884-4.319.505-6.786.472-11.131.673-3.496.161-6.516.103-9.36.069-2.34-.029-4.561-.017-6.83-.069-3.703-.087-7.537-.173-12.227.167-4.935.358-8.646.484-12.817 1.176-2.724.452-5.917.888-9.265 1.636-1.004.224-2.022.407-3.046.714-.688.207-1.367.417-2.04.621-6.043 1.836-11.914 4.071-16.547 7.042-1.432.918-3.048 1.837-4.205 2.924-.721.677-1.597 1.356-2.304 2.05-3.243 3.176-6.558 6.615-7.334 11.272-.143.858-.143 1.759-.143 2.707 0 3.021 2.471 7.136 9.132 8.479m9.369-287.045c1.393 2.51 2.16 4.037 1.349 6.633-.919 2.94-3.013 4.702-5.987 4.702-6.746 0-10.713-7.953-7.673-13.014 5.397-8.984 15.768-3.938 25.381.512-.464-2.305-1.274-3.054-1.189-5.908.209-7.09 5.489-10.305 7.597-16.852 1.255-3.901 1.755-7.289-1.111-10.06-2.504-2.419-5.404-2.381-8.67-1.107-6.527 2.548-14.366 9.868-28.166 10.071-13.8-.203-21.705-7.523-28.232-10.071-3.266-1.274-6.166-1.311-8.67 1.107-2.866 2.771-2.367 6.159-1.111 10.06 2.108 6.549 7.388 9.762 7.597 16.852.084 2.854-.725 3.603-1.189 5.907 9.613-4.449 20.388-9.947 25.381-.511 2.782 5.258-.927 13.013-7.673 13.013-2.974 0-5.062-1.887-5.987-4.701-.824-2.509 0-4.702 1.35-6.633"/><path fill="none" stroke="#703D29" stroke-linecap="round" stroke-miterlimit="8" stroke-width="1.20955" d="M558.14 243.5c2.723 1.981 4.646 4.42 4.325 8.381-.348 4.297-1.442 5.333-4.965 7.619m4.243-6.395c-.159 2.59-1.28 4.266-4.004 5.332"/><path fill="#C7B37F" fill-rule="evenodd" d="m494.223 232 1.175.817 1.258 1.309.84 1.636.42 1.389.084 1.798-.084 1.227-.42 1.391-.84.98-1.007 1.063-1.426.736-1.845.409-1.595.245-1.679-.736-1.51-1.062-.923-1.309-.671-1.636v-.653l8.225-7.604Z"/><path fill="none" stroke="#703D29" stroke-linecap="round" stroke-miterlimit="8" stroke-width="1.12325" d="M491.947 239.026c-.518-2.776-3.793-3.345-5.062-1.706-1.953 2.526-.526 6.73 3.447 7.96 1.349.42 4.47.252 6.496-2.341 1.64-2.101 1.514-4.704.902-6.772-.397-1.339-1.481-2.506-2.927-3.597-4.614-3.477-12.063-2.676-14.51 3.178-3.156 7.55 3.711 13.212 10.039 17.478 7.964 5.368 17.04 6.345 23.873 6.27 15.523-.166 27.332-7.526 35.009-11.706 1.788-.974 3.629-.775 4.554.334 1.045 1.253 1.028 3.273-.422 4.599"/><path fill="none" stroke="#703D29" stroke-miterlimit="8" stroke-width="1.14047" d="m445.73 447.5-3.435 1.304-3.518 2.783-1.508 2.174-1.927 3.478-.837 2.609-.67 3.217-.335 2.435m32-17.653-.251 3.131-.503 2.174-1.508 3.738-2.345 3.218-2.514 2.086-1.842.957-2.596.609"/><path fill="none" stroke="#703D29" stroke-miterlimit="8" stroke-width="1.29155" d="M566.5 528.5c-.623 3.032-3.229 6.499-8.898 7.752l-1.102.248"/><path fill="none" stroke="#703D29" stroke-miterlimit="8" stroke-width="1.4631" d="M709.938 439.5c3.63 3.349 6.178 7.425 8.137 13.021.826 2.36 1.512 5.921 1.416 9.7-.152 6.026-1.697 12.614-3.359 15.799-1.45 2.779-5.238 15.048-26.022 23.515-12.129 4.941-30.753 6.08-43.596 6.581-17.411.68-33.494 1.319-43.014 12.384"/><path fill="none" stroke="#703D29" stroke-miterlimit="8" stroke-width="1.00241" d="M681.5 450.625c1.307-2.01 6.068-4.554 9.916-2.145 1.266.793 2.768 1.797 4.084 4.02"/><path fill="none" stroke="#703D29" stroke-miterlimit="8" stroke-width="1.4631" d="M705.5 435.174c.827.31 1.65.59 2.374.791 2.365.66 4.588.71 6.514.147 4.679-1.369 7.681-5.632 5.247-11.173-.565-1.284-1.646-2.516-2.874-3.439"/><path fill="none" stroke="#703D29" stroke-linecap="round" stroke-miterlimit="8" stroke-width="1.12325" d="M433.053 310.699c-3.216 1.98-5.612 2.449-8.113 5.329-2.491 4.906-3.469 7.54-4.44 11.472m78-87c0 2.893-2.144 4.72-5.051 5.329"/><path fill="none" stroke="#703D29" stroke-miterlimit="8" stroke-width="1.0758" d="M697.5 297.503c7.896-.161 30.835 6.049 30.999 33.117.16 26.733-16.437 31.101-23.087 32.88"/><path fill="none" stroke="#703D29" stroke-miterlimit="8" stroke-width="1.11895" d="M699.5 297.525c13.954-.595 28.352 9.482 28.987 34.632.495 19.649-13.706 28.561-20.522 30.343"/><path fill="none" stroke="#703D29" stroke-miterlimit="8" stroke-width="0.950551" d="m691.712 392.684.211-2.711.9-4.306 1.272-3.349 1.428-2.764 1.853-2.232m13.124-5.756-.21 2.654-.756 1.812-1.174 1.727-1.342 1.011-2.055.758-1.804.126-1.343-.211m-24.133-89.411.587-2.864 1.258-2.655 1.637-2.653 2.81-3.623 2.223-2.484 3.608-3.665 3.105-3.159 1.971-2.275 2.601-3.158 2.308-3.496 1.384-2.864.756-3.707.228-4.596-.419-1.333m-20.701 217 2.727-.547 2.056-1.096 1.133-1.137.796-1.306.545-2.105.044-1.475M421.5 436.263l2.014.168 2.601-.21 2.6-.926m8.433-61.876-.335 2.359-.546 1.053-.797 1.011-1.09.842-1.217.547-1.594.254-1.091.084m16.695-26.444-.587 3.664-.713 1.601-1.468 2.022-1.972 1.517-2.014 1.009-3.901.969m25.796-67.309-.755 2.189-.923 1.602-1.258 1.768-1.763 1.601-2.096 1.012-1.763.42-1.09-.085m.637-10.49.043 1.685"/><path fill="none" stroke="#703D29" stroke-linecap="round" stroke-miterlimit="8" stroke-width="1.06499" d="M457.016 351.5a11.531 11.531 0 0 1-3.516 2.201m253.254 75.968c.144.157.626.236.796.336 2.385 1.435 7.082-.352 5.701-4.063"/><path fill="none" stroke="#703D29" stroke-miterlimit="8" stroke-width="1.06499" d="M698.587 377.579c1.694 2.226 4.889 2.803 7.416 2.14 1.908-.5 3.305-1.709 4.197-3.282 1.007-1.777 1.312-4.095.657-6.311-.295-1.003-.713-1.848-1.427-2.795-.718-.951-1.608-1.963-2.298-2.416-.183-.12-.365-.284-.558-.415m10.815 57.584c.073-.396.111-.802.111-1.219 0-1.961-.816-3.757-2.165-4.969-.46-.412-.906-1.054-1.465-1.335m.804.795c-.079-3.155-2.647-5.412-5.83-5.973m-7.025 4.803c-.732-.6-1.515-1.111-2.2-1.831-4.123-4.338-7.224-10.752-7.265-18.068-.04-7.012 2.765-14.151 6.032-16.929m-95.127 143.291 3.016-2.78 2.094-1.6 3.938-2.443 3.685-1.768 2.597-.674 5.194-1.18 6.032-.926m-49.68 32.778c-2.179 3.37-7.372 8.424-12.818 10.444-5.446-2.02-10.639-7.074-12.817-10.444"/><path fill="none" stroke="#703D29" stroke-linecap="round" stroke-miterlimit="8" stroke-width="1.06499" d="M558.5 534.5c-.731 2.549-2.059 5.02-4 7"/><path fill="none" stroke="#703D29" stroke-miterlimit="8" stroke-width="1.06499" d="m558.313 531.068-.755 3.691m-3.935 7.048-1.593 1.595-2.85 1.594-3.269 1.008m-9.506-299.91c.41-1.276.827-2.236.765-4.333-.208-7.086-5.455-10.299-7.552-16.844-1.247-3.899-1.744-7.286 1.106-10.055 2.487-2.418 5.37-2.38 8.618-1.107 6.488 2.548 14.348 9.863 28.066 10.066-13.718-.203-21.579-7.52-28.066-10.066-3.248-1.273-6.399-1.646-8.886.771-2.851 2.77-2.085 6.492-.838 10.391 2.096 6.545 7.076 9.758 7.284 16.844.061 2.097-.491 3.057-.899 4.333m31.366-22.753c13.495-.713 25.061-9.791 28.793-10.531 3.327-.661 5.185-.363 7.624 1.857-2.441-2.22-5.22-2.151-8.377-.912-6.488 2.546-14.281 9.863-27.999 10.066M701.5 414.205c-5.616-4.028-10.428-11.718-10.477-20.804-.039-6.987 2.765-14.097 6.034-16.867M579.218 541.095c-2.179 3.357-7.377 8.392-12.825 10.405-5.449-2.013-10.645-7.048-12.824-10.405"/><path fill="none" stroke="#703D29" stroke-linecap="round" stroke-miterlimit="8" stroke-width="1.06499" d="M544.5 249.435c1.47-.813 2.834-1.588 4.092-2.279 1.862-1.023 4.099-.808 5.062.357 1.087 1.315 1.254 3.594-.255 4.987"/><path fill="none" stroke="#703D29" stroke-miterlimit="8" stroke-width="1.06499" d="M524.527 259.259c9.287-1.935 16.853-6.088 22.574-9.284m54.529 277.028c.768.523 1.261 1.612 1.261 1.612.213.505.487.984.564 1.432.436 2.569-1.25 4.168-3.334 4.411-2.864.333-5.013-1.366-5.929-3.423m-70.141-272.251c9.287-1.935 16.854-6.089 22.574-9.284M711.5 429.879c-1.766.68-2.731.587-4.928-.387-.902-.399-1.933-1.018-3.143-1.704-4.304-2.441-9.417-6.289-14.209-15.272a31.734 31.734 0 0 1-2.889-7.551c-.458-1.874-.775-3.726-.844-5.628-.116-3.24.233-6.622 1.043-10.496 1.337-6.4 2.946-9.875 6.895-15.281 1.941-2.659 3.615-4.282 7.23-4.366m-242.796-66.319c3.006 2.551 4.455 5.709 4.455 9.654 0 5.229-4.38 13.768-15.141 16.792-4.124 1.158-8.205.224-10.673-1.274"/><path fill="none" stroke="#703D29" stroke-miterlimit="8" stroke-width="1.06499" d="M459.859 320.5c1.898 1.302 2.641 2.763 2.641 5.307 0 1.741-1.142 4-3.085 6.139-3.183 3.502-8.579 6.479-14.559 6.552-3.245.041-6.613-.628-10.001-2.862-3.623-2.389-5.53-5.616-6.355-8.789"/><path fill="none" stroke="#703D29" stroke-miterlimit="8" stroke-width="1.06499" d="M459.598 331.332c2.193 2.016 2.866 4.539 2.866 7.718 0 4.644-1.885 8.227-6.223 12.023a21.258 21.258 0 0 1-3.282 2.358m218.88-37.341v5.974m-.476-7.447v8.416m.476-26.635v11.026m-.476-13.462v15.067m-3.214 138.634c-2.089 4.152-3.759 6.333-7.068 9.595-3.34 3.292-5.655 4.801-9.846 6.901-4.082 2.046-6.654 2.698-11.107 3.703-4.452 1.006-7.055 1.225-11.614 1.432-4.178.189-6.55.015-10.724-.276-4.467-.309-6.945-.931-11.406-1.323-3.684-.325-5.764-.622-9.462-.613-3.801.011-5.98.034-9.723.696-3.489.618-5.467 1.111-8.751 2.441-4.544 1.841-9.677 5.05-10.771 6.481-1.094-1.431-6.228-4.639-10.772-6.481-3.282-1.33-5.262-1.823-8.75-2.441-3.745-.662-5.921-.686-9.724-.696-3.698-.011-5.778.289-9.462.613-4.46.392-6.938 1.014-11.406 1.323-4.174.289-6.544.465-10.725.276-4.558-.206-7.162-.423-11.611-1.432-4.454-1.007-7.023-1.66-11.108-3.702-4.194-2.097-6.506-3.61-9.846-6.902-.345-.34-.687-.684-1.026-1.032M544.56 546.5l3.029-.379m51.194-3.984 3.058-.291 2.911-1.165 2.039-1.238 2.767-3.277.582-1.238.437-2.84.145-1.31m79.333-231.219c1.312-4.469-.291-9.183-4.618-9.056m-223.144 78.762c-1.097 3.711-3.457 6.246-6.082 7.895m6.158-79.019c-1.082 3.127-3.062 5.362-6.195 6.777-3.124 1.412-6.74.093-8.674-1.399"/><path fill="none" stroke="#703D29" stroke-linecap="round" stroke-miterlimit="8" stroke-width="1.06499" d="M438.5 315.077c2.726 1.332 5.493-.62 4.925-3.928-.266-1.55-2.057-3.507-4.482-3.649"/><path fill="none" stroke="#703D29" stroke-miterlimit="8" stroke-width="1.06499" d="M449.362 457.201c.538.526.653 1.21 1.379 1.35 1.096.21 1.947.632 3.042-.886 1.35-1.871.625-4.784-.779-6.617-1.503-1.961-5.857-3.694-9.508-1.585-1.221.705-2.753 1.634-4.137 3.543-.524.722-1.409 1.887-1.866 2.7-1.106 1.964-1.559 3.572-1.778 4.217-3.339 9.872.626 20.252 6.771 26.577"/><path fill="none" stroke="#703D29" stroke-linecap="round" stroke-miterlimit="8" stroke-width="1.06499" d="M601.894 526.5c.397.403.759.838 1.08 1.301.211.489.383.953.458 1.387.431 2.487-1.237 4.037-3.298 4.271-2.831.323-4.728-1.308-5.634-3.3"/><path fill="none" stroke="#703D29" stroke-miterlimit="8" stroke-width="1.06499" d="M684.27 234.5c5.612.691 10.503 6.094 10.503 11.902 0 7.493-2.502 10.283-6.413 15.643-4.185 5.735-17.86 16.247-17.86 28.201 0 7.24 2.003 11.87 7.177 14.228 3.336 1.52 7.237-.126 9.014-1.744 4.339-3.957 2.604-10.896-1.92-11.726-5.508-1.01-6.543 7.737-1.169 7.157M713.5 415.005c-.494-3-3.019-5.284-6.063-5.284-3.396 0-6.149 2.845-6.149 6.356 0 1.719.66 3.28 1.733 4.423"/><path fill="none" stroke="#703D29" stroke-miterlimit="8" stroke-width="1.06499" d="M675.286 302.5c-3.005 2.548-4.454 5.704-4.454 9.645 0 5.224 4.379 13.755 15.138 16.776 4.123 1.156 8.063 1.047 10.53-.45m-263.59-17.427c-2.571.857-5.783 2.457-8.162 5.821-2.007 2.837-3.177 6.781-3.901 10.233-.318 1.51-.696 6.291.272 11.23.715 3.647 2.224 7.042 3.895 9.501.597.881 1.14 1.474 1.751 2.084.56.559 1.355 1.052 1.918 1.481m108.138 155.158c8.191 3.624 14.196 6.338 19.287 14.359 1.597 2.517 2.018 6.124 2.018 8.221 0 4.528-1.849 9.645-5.633 12.832-3.509 2.958-6.976 3.858-11.263 3.439-3.251-.318-6.304-2.684-6.809-4.362m-78.514-189.648c4.623 3.607 6.556 7.105 6.556 12.666 0 6.375-3.109 10.317-6.725 12.581"/><path fill="none" stroke="#703D29" stroke-linecap="round" stroke-miterlimit="8" stroke-width="1.06499" d="M451.5 372.5c7.041 8.591 10.777 13.691 10.991 23.921.2 9.602-2.92 16.171-8.758 23.079"/><path fill="none" stroke="#703D29" stroke-miterlimit="8" stroke-width="1.06499" d="M583.5 258.838c1.257-.82 2.177-2.136 2.705-3.76.816-2.509.834-4.649-.514-6.578 1.662 2.168 1.815 3.998 1.347 6.628-.297 1.674-1.369 2.556-2.705 3.76m87.095 145.265v27.236h.072c0 .02-.011 2.578-.229 4.194a57.865 57.865 0 0 1-.465 2.917"/><path fill="none" stroke="#703D29" stroke-miterlimit="8" stroke-width="1.06499" d="M671.025 402.029v29.49h.072c0 .019-.009 2.587-.229 4.21-.227 1.693-.471 3.128-.787 4.469m.944-72.693v24.592m.475-22.653v20m0-45.435v14.994m-.475-16.76v18.485m.475-32.047v5.817m-.475-6.998v8.424m-3.11 110.345c-.178.38-.369.769-.572 1.175-2.084 4.154-3.75 6.337-7.051 9.601-3.332 3.294-5.64 4.804-9.822 6.907-4.073 2.047-6.638 2.698-11.082 3.704-4.44 1.008-7.037 1.227-11.585 1.432-4.168.19-6.535.012-10.699-.276-4.457-.309-6.928-.931-11.378-1.324-3.675-.325-5.752-.621-9.44-.613-3.793.011-5.966.034-9.701.698-3.48.617-5.455 1.11-8.731 2.442-4.531 1.841-9.652 5.053-10.744 6.485-1.092-1.432-6.213-4.643-10.746-6.485-3.276-1.332-5.249-1.825-8.731-2.442-3.733-.664-5.906-.688-9.699-.698-3.689-.011-5.766.289-9.44.613-4.451.393-6.921 1.015-11.379 1.324-4.164.289-6.529.466-10.7.276-4.548-.205-7.145-.422-11.585-1.431-4.442-1.01-7.006-1.661-11.081-3.705-4.184-2.1-6.489-3.613-9.821-6.907-1.745-1.725-3.032-3.147-4.166-4.718m-3.393-5.397c.72 5.354-1.525 10.616-3.804 13.036-1.426 1.517-4.534 4.413-8.395 4.463-6.379.085-8.283-4.318-8.67-5.389"/><path fill="none" stroke="#703D29" stroke-miterlimit="8" stroke-width="1.06499" d="M459.104 443.5c1.181 1.174 2.228 2.606 3.114 4.297 1.59 3.033 1.1 8.106-.159 10.447-.139.258-.31.531-.511.812M427.5 489.558c3.783 3.996 9.503 8.336 18.289 11.977 12.014 4.98 30.463 6.127 43.184 6.633 16.916.671 32.501 1.371 41.992 11.918m29.205-6.892c2.797 2.77 5.649 5.738 6.853 9.534m-12.353 19.39c-.366.392-.754.766-1.166 1.116-3.494 2.97-6.946 3.876-11.214 3.454-3.237-.32-6.36-2.761-7.196-4.362m-9.003-4.922c.156.214.319.423.492.625 2.032 2.382 5.24 3.876 8.587 4.154m45.194-.13c-2.176 3.37-7.365 8.425-12.804 10.447-5.44-2.022-10.628-7.077-12.805-10.447l-.508-.788m26.204.766c.387.425.803.826 1.244 1.202 3.494 2.97 6.946 3.876 11.214 3.454 3.237-.319 5.807-2.496 6.846-4.381 0 0 .582-.63.745-1.232"/><path fill="none" stroke="#703D29" stroke-miterlimit="8" stroke-width="1.06499" d="m599.5 541.5-1.301 2.056-1.982 1.611-3 1.223-2.717.11"/><path fill="none" stroke="#703D29" stroke-miterlimit="8" stroke-width="1.06499" d="M606.497 522.429c1.545 1.186 3.063 2.982 3.889 4.898.529 1.233.776 2.588.85 3.995.144 2.666-.794 5.121-2.401 6.993-2.159 2.513-5.525 4.033-9.11 4.177-.266.01-.531.011-.793 0m.313-.478c-3.426.137-6.489-1.33-8.745-3.646m107.52-114.553c-2.673-2.463-5.442-5.877-8.112-10.886a31.746 31.746 0 0 1-2.888-7.553c-.457-1.875-.774-3.728-.843-5.629-.116-3.241.232-6.625 1.042-10.502 1.336-6.401 3.721-11.352 6.89-15.285 1.081-1.342 2.328-3.015 3.513-3.768m-2.325-127.965c4.285.335 8.256 4.947 8.203 9.467-.076 6.566-2.278 9.279-7.446 15.712-4.453 5.543-17.812 15.285-17.476 24.608.059 1.655.951 3.365 1.947 4.742m-5.34 5.845c.949.937 2.097 1.711 3.466 2.329 2.444 1.103 5.189.535 7.191-.478m-35.75-72.952c1.435.977 2.897 2.474 3.69 4.387 3.143 7.583-3.696 13.27-9.998 17.554-4.519 3.07-9.396 4.71-14.015 5.539"/><path fill="none" stroke="#703D29" stroke-miterlimit="8" stroke-width="1.06499" d="M642.5 246.401c-1.5-.016-3.283-.454-5.219-2.545-.446-.48-.969-1.117-1.174-1.687m-24.626 8.331c-.783-.402-1.624-.989-2.188-1.635-1.471-1.686-2.451-3.969-1.318-7.452 1.047-3.222 6.096-12.259 6.344-18.515.377-9.558-3.209-15.198-8.819-17.398"/><path fill="none" stroke="#703D29" stroke-linecap="round" stroke-miterlimit="8" stroke-width="1.06499" d="m613.503 220.5-.222 3.575-.969 3.65-1.863 4.99-1.416 3.202-1.49 3.203-.744 2.235-.299 1.639.224 1.564m64.272 213.443c.294.714 1.009 1.413 1.009 1.413 1.093 1.824 5.346 5.035 9.213 5.085 6.395.084 7.912-4.389 8.077-5.382.807-4.877-.861-6.212-3.365-7.586 0 0-1.473-.763-3.24-.469"/><path fill="none" stroke="#703D29" stroke-miterlimit="8" stroke-width="1.06499" d="M427.053 436.058c-2.275.576-4.412.59-6.28.036-4.825-1.432-8.734-6.005-6.741-11.688m22.817-53.666c.483.481.639 1.196.712 1.803.745 6.186-4.734 7.988-8.635 6.982-1.932-.499-4.235-2.275-5.138-3.843a7.872 7.872 0 0 1-1.05-3.885m37.597-39.911a8.154 8.154 0 0 1 2.106 2.976m-1.932-14.362a6.472 6.472 0 0 1 1.991 2.204"/><path fill="none" stroke="#703D29" stroke-linecap="round" stroke-miterlimit="8" stroke-width="1.06499" d="M462.5 329.043c-.514 1.247-1.402 2.594-2.586 3.896-3.191 3.506-8.603 6.486-14.599 6.559-3.253.04-6.63-.628-10.028-2.866-3.632-2.391-6-5.793-6.787-9.132"/><path fill="none" stroke="#703D29" stroke-miterlimit="8" stroke-width="1.06499" d="M458.5 302.5c1.871 1.667 3.31 3.793 4 6"/><path fill="none" stroke="#703D29" stroke-linecap="round" stroke-miterlimit="8" stroke-width="1.06499" d="M462.5 316.5c-1.509 4.721-6.007 10.56-14.689 12.642-4.148.995-9.488-.249-11.311-1.717"/><path fill="none" stroke="#703D29" stroke-miterlimit="8" stroke-width="1.06499" d="M432.5 315.421c.445 4.554 3.39 7.968 8.972 8.078 7.85.152 12.622-11.687 5.647-19.999"/><path fill="none" stroke="#703D29" stroke-linecap="round" stroke-miterlimit="8" stroke-width="1.06499" d="M414.5 354.11c1.152 1.464 2.506 2.783 3.892 3.952 2.81 2.371 6.124 4.458 9.941 5.6m8.843.838c7.042-.857 11.012-6.178 10.226-12.401-.601-4.742-4.893-8.388-7.811-8.599"/><path fill="none" stroke="#703D29" stroke-miterlimit="8" stroke-width="1.06499" d="M449.5 290.503c2.565-.112 4.023 2.66 4 4.997"/><path fill="none" stroke="#703D29" stroke-linecap="round" stroke-miterlimit="8" stroke-width="1.06499" d="M448.5 248.5c1.684 4.408 4.97 7.853 8.486 9.822m243.231 52.227c2.9 3.971 1.001 11.801-6.887 11.95-3.082.058-5.863-1.65-7.492-4.236"/><path fill="none" stroke="#703D29" stroke-miterlimit="8" stroke-width="1.06499" d="M671.5 258.5v27"/><path fill="none" stroke="#703D29" stroke-linecap="round" stroke-miterlimit="8" stroke-width="1.06499" d="M439.074 314.887c2.436 1.761 5.564-1.213 4.354-4.371-.818-2.132-3.85-4.432-8.05-1.579-4.639 3.151-3.36 13.091 5.543 13.257 7.941.15 12.77-11.412 5.712-19.527-6.787-7.807-19.152-5.981-27.216.428-3.431 2.726-9.912 9.87-11.928 19.603-.627 3.031-1.033 5.518-.985 8.559.032 2.004.216 4.249.818 7.048 1.213 5.656 3.207 9.799 5.191 12.677.761 1.103 1.456 2.018 2.201 2.763 1.382 1.381 1.796 2.112 3.192 3.272 4.562 3.794 10.442 6.767 17.64 6.462 7.896-.336 12.433-5.874 11.592-12.42-.815-6.346-7.228-9.503-11.424-6.544-2.857 2.014-3.873 8.25 1.175 9.733 2.857.839 5.376-2.769 3.36-4.867m218.726-121.332c4.557-2.472 8.071-2.015 10.668 1.586 2.824 3.914 3.227 9.123 2.604 12.174-.924 4.532-2.234 6.413-5.842 9.701"/><path fill="none" stroke="#703D29" stroke-linecap="round" stroke-miterlimit="8" stroke-width="1.06499" d="M669.5 230.375c5.315-3.401 11.072-1.957 14.231 2.572 2.316 3.319 2.907 6.095 2.744 10.205-.28 7.043-4.834 12.626-9.859 15.348"/><path fill="none" stroke="#703D29" stroke-miterlimit="8" stroke-width="1.06499" d="M693.914 242.5c4.205.334 7.586 4.207 7.586 8.722 0 6.457-1.772 9.259-6.845 15.683-4.369 5.535-17.48 15.264-17.149 24.573.124 3.52 3.042 6.837 5.559 7.022"/><path fill="none" stroke="#703D29" stroke-linecap="round" stroke-miterlimit="8" stroke-width="1.06499" d="M694.685 314.9c-2.429 1.76-5.526-1.084-4.186-4.103.925-2.084 3.683-4.696 7.871-1.845 4.623 3.15 3.349 13.086-5.527 13.252-7.916.15-13.266-11.108-5.694-19.519 6.91-7.677 19.726-6.174 27.764.231 3.421 2.726 10.303 10.212 11.778 20.037 1.786 11.889 1.557 26.512-10.702 35.517-4.929 3.621-11.759 5.267-17.789 5.003-7.87-.346-12.392-5.872-11.555-12.414.812-6.344 6.91-9.028 11.389-6.543 4.652 2.581 3.839 9.133-1.172 9.73-2.947.35-5.36-2.769-3.35-4.866"/><path fill="none" stroke="#703D29" stroke-miterlimit="8" stroke-width="1.06499" d="M690.5 310.855c1.292-5.864 6.276-6.41 10.299-6.351 10.979.162 18.572 13.293 18.698 25.994.16 16.044-6.754 25.492-18.385 25.994-3.01.13-8.193-1.313-8.283-5.015"/><path fill="none" stroke="#703D29" stroke-linecap="square" stroke-miterlimit="8" stroke-width="1.06499" d="M697.488 308.5c11.851 2.569 16.012 12.982 16.012 22.92 0 8.107-.823 19.184-17 23.08"/><path fill="none" stroke="#703D29" stroke-miterlimit="8" stroke-width="1.06499" d="M716.388 421.466c.661-3.651-1.664-7.165-5.192-7.85-3.528-.683-6.923 1.722-7.585 5.373-.444 2.454.462 4.96 2.353 6.511"/><path fill="none" stroke="#703D29" stroke-linecap="round" stroke-miterlimit="8" stroke-width="1.06499" d="M692.913 411.5c2.221 3.271 4.909 6.909 10.587 9.966m-2.13 17.781c-5.565-3.624-16.128-8.373-25.678-3.698-3.542 1.734-5.915 3.88-7.255 7.378-2.413 6.301.284 13.243 3.03 16.127 1.436 1.511 4.565 4.395 8.45 4.445 6.424.085 7.95-4.376 8.113-5.367.761-4.613-1.944-6.459-3.38-6.962-1.103-.386-4.687-.287-5.448 2.228-.254.839-.299 2.301.378 3.392"/><path fill="none" stroke="#703D29" stroke-linecap="round" stroke-miterlimit="8" stroke-width="1.06499" d="M601.638 527.702c1.775 3.615-.243 5.433-2.704 5.718-3.633.419-5.576-2.439-5.829-5.046-.412-4.226 3.168-8.057 7.436-7.988 3.841.062 6.97 2.529 8.437 5.924.533 1.233.78 2.59.856 3.998.144 2.669-.798 5.129-2.415 7.002-2.172 2.516-5.557 4.037-9.161 4.181-7.172.287-12.758-6.389-12.758-13.201 0-13.033 19.422-20.142 27.122-21.97 9.463-2.247 15.221-3.088 30.418-3.929 6.083-.336 10.538-.165 17.236-.856 5.994-.619 9.125-.909 15.292-2.338 7.698-1.785 14.872-4.963 21.292-10.764 4.945-4.468 7.774-7.652 10.063-13.79 1.975-5.297 2.884-15.786-2.12-23.545-4.423-6.857-10.562-10.417-17.574-11.426-6.335-.912-11.891 1.808-15.209 8.064-1.605 3.028-1.11 8.09.161 10.426 1.098 2.019 4.235 4.996 8.119 5.046 6.422.085 7.948-4.387 8.112-5.381.76-4.625-1.943-6.476-3.38-6.98-1.102-.387-4.686-.287-5.447 2.234-.253.841-.299 2.307.377 3.4"/><path fill="none" stroke="#703D29" stroke-linecap="round" stroke-miterlimit="8" stroke-width="1.06499" d="M596.171 506.5c-7.947 3.629-13.774 6.347-18.713 14.379-1.55 2.52-1.958 6.131-1.958 8.231 0 4.534 1.794 9.658 5.466 12.849 3.405 2.962 6.768 3.863 10.927 3.444 3.155-.319 6.118-2.688 6.607-4.367"/><path fill="none" stroke="#703D29" stroke-miterlimit="8" stroke-width="1.06499" d="M677.325 351.5c-3.99 1.264-6.825 7.036-6.825 12.542 0 6.312 3.237 10.216 7 12.458"/><path fill="none" stroke="#703D29" stroke-linecap="round" stroke-miterlimit="8" stroke-width="1.06499" d="M681.5 372.5c-7.04 8.591-10.777 13.691-10.991 23.921-.201 9.602 2.92 16.171 8.758 23.079"/><path fill="none" stroke="#703D29" stroke-miterlimit="8" stroke-width="1.06499" d="m644.5 230.265.591-.846c2.856-4.06 7.898-5.129 11.59-2.435 4.45 3.248 5.574 8.775 4.366 14.616-.756 3.655-3.319 6.698-6.832 8.9"/><path fill="none" stroke="#703D29" stroke-linecap="round" stroke-miterlimit="8" stroke-width="1.06499" d="M474.5 227.752c-4.184-2.038-7.628-1.646-10.219 1.606-2.977 3.737-3.09 9.235-2.494 12.323.885 4.587 2.14 6.491 5.596 9.819"/><path fill="none" stroke="#703D29" stroke-miterlimit="8" stroke-width="1.06499" d="M463.5 230.375c-5.002-3.401-10.421-1.957-13.394 2.572-2.179 3.319-2.736 6.095-2.582 10.205.264 7.043 4.55 12.626 9.279 15.348"/><path fill="none" stroke="#703D29" stroke-miterlimit="8" stroke-width="1.06499" d="M448.649 234.5c-5.644.685-10.149 5.444-10.149 11.205 0 7.432 1.839 10.437 6.036 16.115 4.207 5.691 17.964 16.115 17.964 27.972 0 7.18-2.015 11.772-7.219 14.111-3.356 1.507-7.279-.125-9.066-1.73-4.366-3.925-2.62-10.807 1.93-11.63 5.54-1.002 6.582 7.674 1.176 7.098"/><path fill="none" stroke="#703D29" stroke-miterlimit="8" stroke-width="1.06499" d="M439.193 242.5c-4.381.334-8.693 4.006-8.693 8.508 0 6.441 2.636 9.426 7.92 15.833 4.554 5.521 17.417 15.033 17.073 24.318-.129 3.51-2.552 7.803-4.959 7.301"/><path fill="none" stroke="#703D29" stroke-linecap="round" stroke-miterlimit="8" stroke-width="1.06499" d="M429.063 371.838c2.046-4.846 7.332-2.674 7.658 0 .749 6.158-4.76 8.019-8.682 7.015-1.942-.495-3.364-1.694-4.272-3.255-1.025-1.762-1.335-4.061-.669-6.257.301-.996.727-1.834 1.454-2.773.73-.944 1.485-1.591 2.192-2.031 1.508-.943 3.152-1.037 5.729-1.037 9.55 0 17.906 11.055 20.712 22.538.925 3.782 2.195 12.216.435 20.215-1.876 8.52-5.635 14.419-10.046 18.894-2.388 2.422-5.644 4.579-9.859 6.914-1.3.719-4.738 2.213-7.124 2.882-2.453.687-4.757.739-6.754.153-4.85-1.426-7.964-5.866-5.439-11.636 1.965-4.491 9.209-6.682 12.448-1.169.274.468.702 1.487.689 2.59-.017 1.47-.64 3.242-1.712 3.911-2.463 1.535-6.402 1.1-6.219-3.16"/><path fill="none" stroke="#703D29" stroke-miterlimit="8" stroke-width="1.06499" d="M421.685 430.061c1.751.679 2.709.586 4.886-.386.895-.399 1.919-1.016 3.117-1.701 4.268-2.436 9.338-6.276 14.089-15.241a31.807 31.807 0 0 0 2.865-7.535c.454-1.871.768-3.719.836-5.617.116-3.233-.23-6.608-1.033-10.475-1.326-6.386-2.922-9.854-6.837-15.249-1.925-2.654-3.585-4.274-7.169-4.357m-15.826 52.036c-.666-3.57 1.675-7.007 5.228-7.676 3.551-.668 6.97 1.684 7.636 5.254a6.594 6.594 0 0 1-2.369 6.367"/><path fill="none" stroke="#703D29" stroke-miterlimit="8" stroke-width="1.06499" d="M419.5 414.892c.485-3.06 2.967-5.392 5.957-5.392 3.338 0 6.043 2.904 6.043 6.486a6.72 6.72 0 0 1-1.703 4.514"/><path fill="none" stroke="#703D29" stroke-miterlimit="8" stroke-width="1.06499" d="M431.5 414.5c5.36-4.063 9.952-11.82 10-20.985.037-7.049-2.64-14.221-5.76-17.015"/><path fill="none" stroke="#703D29" stroke-linecap="round" stroke-miterlimit="8" stroke-width="1.06499" d="M440.5 411.5c-2.307 3.282-5.1 6.932-11 10"/><path fill="none" stroke="#703D29" stroke-miterlimit="8" stroke-width="1.06499" d="M457.054 435.528c-1.556-3.674-4.648-5.373-9.682-5.913-5.005-.536-9.338.845-13.771 3.239-8.653 4.672-13.477 9.695-16.693 19.014-.816 2.366-1.494 5.935-1.399 9.724.15 6.04 1.678 12.643 3.318 15.836 1.432 2.785 5.174 15.083 25.706 23.57 11.982 4.953 30.381 6.095 43.067 6.597 17.451.692 33.553 1.342 42.9 12.905"/><path fill="none" stroke="#703D29" stroke-linecap="round" stroke-miterlimit="8" stroke-width="1.06499" d="M431.5 439.165c5.587-3.636 16.19-8.401 25.777-3.711 3.556 1.741 5.938 3.894 7.283 7.404 2.422 6.321-.286 13.287-3.042 16.181-1.442 1.516-4.583 4.41-8.484 4.46-6.446.085-7.979-4.39-8.143-5.385-.763-4.629 1.951-6.481 3.394-6.985 1.106-.388 4.705-.288 5.467 2.235.256.842.3 2.309-.378 3.403"/><path fill="none" stroke="#703D29" stroke-miterlimit="8" stroke-width="1.06499" d="M454.079 455.549c.503-1.837.244-3.767-1.422-5.597-1.674-1.838-6.11-3.593-9.876-1.505-1.26.699-2.84 1.62-4.268 3.51-.541.714-1.454 1.869-1.925 2.673-1.141 1.945-1.608 3.538-1.834 4.177-4.139 11.743 2.597 24.213 11.04 29.575 7.364 4.679 14.897 6.016 24.187 6.851 4.298.387 6.734.469 11.047.669 3.47.16 6.468.103 9.29.069 2.322-.029 4.525-.017 6.777-.069 3.677-.086 7.481-.172 12.136.167 4.898.355 8.582.481 12.721 1.17 2.704.449 5.873.883 9.196 1.628.997.222 2.008.405 3.023.71.683.206 1.356.415 2.025.618 5.997 1.827 11.825 4.051 16.423 7.007 1.421.914 3.058 1.795 4.174 2.91.857.855 1.584 1.35 2.285 2.04 3.219 3.16 6.51 6.583 7.28 11.216.142.855.142 1.751.142 2.695 0 3.006-2.452 7.1-9.063 8.437"/><path fill="none" stroke="#703D29" stroke-miterlimit="8" stroke-width="1.06499" d="M531.493 527.702c-1.76 3.615.242 5.433 2.682 5.718 3.603.419 5.531-2.439 5.782-5.046.408-4.226-3.142-8.057-7.375-7.988-3.811.062-6.914 2.529-8.369 5.924-.528 1.233-.774 2.59-.849 3.998-.143 2.669.792 5.129 2.396 7.002 2.152 2.516 5.511 4.037 9.086 4.181 7.114.287 12.654-6.389 12.654-13.201 0-13.033-19.265-20.142-26.901-21.97-9.387-2.247-15.097-3.088-30.171-3.929-6.033-.336-10.452-.165-17.095-.856-5.946-.619-9.051-.909-15.17-2.338-7.634-1.785-14.75-4.963-21.118-10.764-4.904-4.468-7.71-7.652-9.981-13.79-1.959-5.297-2.859-15.786 2.103-23.545 4.387-6.857 10.476-10.417 17.432-11.426 6.284-.912 11.794 1.808 15.085 8.064 1.593 3.028 1.101 8.09-.16 10.426-1.088 2.019-4.2 4.996-8.053 5.046-6.369.085-7.882-4.387-8.045-5.381-.755-4.625 1.927-6.476 3.352-6.98 1.093-.387 4.648-.287 5.403 2.234.251.841.296 2.307-.375 3.4"/><path fill="none" stroke="#703D29" stroke-linecap="round" stroke-miterlimit="8" stroke-width="1.06499" d="m488.5 230.265-.591-.846c-2.856-4.06-7.898-5.129-11.59-2.435-4.45 3.248-5.573 8.775-4.366 14.616.756 3.655 3.32 6.698 6.831 8.9"/><path fill="none" stroke="#703D29" stroke-miterlimit="8" stroke-width="1.06499" d="M646.5 242.538c-6.79 7.301-13.579 9.631-23.723 9.956-3.168.101-9.221-.996-12.742-3.477-2.262-1.594-4.778-4.321-3.185-9.051 1.064-3.16 6.195-12.029 6.448-18.169.382-9.379-3.263-14.518-8.963-16.509-10.538-3.682-21.852 6.627-28.668 8.877-3.563 1.174-5.38 1.314-8.634 1.326-3.254-.012-5.135-.15-8.699-1.326-6.817-2.25-18.13-12.56-28.669-8.878-5.7 1.992-9.345 7.131-8.961 16.51.252 6.139 5.382 15.008 6.447 18.169 1.593 4.729-.924 7.457-3.186 9.05-3.52 2.482-9.574 3.578-12.742 3.478-10.142-.325-16.933-2.655-23.723-9.956"/><path fill="none" stroke="#703D29" stroke-linecap="round" stroke-miterlimit="8" stroke-width="1.06499" d="M529.5 503.5c1.348.532.328-.322 8.868 3.496 8.198 3.667 14.017 6.877 19.113 14.994 1.598 2.545 2.019 6.195 2.019 8.317 0 1.367-.164 2.787-.497 4.193"/><path fill="none" stroke="#703D29" stroke-miterlimit="8" stroke-width="1.06499" d="M529.5 540.102a13.332 13.332 0 0 0 5.437 1.389c7.063.285 12.563-6.364 12.563-13.145 0-4.702-2.543-8.663-6.106-11.846"/><path fill="none" stroke="#703D29" stroke-linecap="round" stroke-miterlimit="8" stroke-width="1.06499" d="M531.096 527.305c-1.779 3.811.755 5.872 3.28 6.154 3.731.417 5.831-2.419 6.091-5.003.283-2.812-1.278-5.546-3.658-6.956"/><path fill="none" stroke="#703D29" stroke-miterlimit="8" stroke-width="1.06499" d="M685.437 234.5c5.375 0 10.063 6.039 10.063 12.237 0 7.141-3.763 11.513-6.521 14.818-2.219 2.66-4.623 5.042-7.479 7.945"/><path fill="none" stroke="#703D29" stroke-linecap="round" stroke-miterlimit="8" stroke-width="1.06499" d="M678.791 229.368c1.841.852 3.459 2.297 4.691 4.122 2.266 3.357 2.843 6.166 2.685 10.323-.269 7.125-5.395 12.058-9.981 15.069m-8.05-29.514a9.32 9.32 0 0 1 1.079 1.094c3.106 3.693 3.347 9.152 2.602 12.178-1.117 4.548-2.62 6.508-6.311 9.228m-8.543-24.368c4.448 3.357 5.771 9.164 4.296 15.141-1.052 4.271-3.738 6.831-7.087 8.87M672.94 320.8c.532 1.562 1.41 2.104 2.517 3.262 2.406 2.521 5.933 4.689 10.388 5.942 4.116 1.158 7.827.288 10.655-1.476M421.553 419.67c2.091-.038 4.177 1.374 5.542 3.743.269.47.69 1.493.677 2.602-.017 1.478-.665 3.056-1.719 3.727-2.424 1.544-6.728.88-6.547-3.4"/><path fill="none" stroke="#703D29" stroke-miterlimit="8" stroke-width="1.06499" d="M434.912 363.5c8.46 1.55 16.605 11.564 19.271 22.489.926 3.794 2.199 12.257.435 20.28-1.878 8.547-5.643 14.465-10.06 18.954-1.047 1.064-2.262 2.078-3.65 3.077l-1.805 1.2M425.5 409.061c3.475 0 6.517 3.268 6.517 6.761a6.322 6.322 0 0 1-1.773 4.403"/><path fill="none" stroke="#703D29" stroke-miterlimit="8" stroke-width="1.06499" d="M423.5 413.5c3.588 0 7 3.363 7 6.932 0 2.054-.985 3.884-2.52 5.068"/><path fill="none" stroke="#703D29" stroke-linecap="round" stroke-miterlimit="8" stroke-width="1.06499" d="M455.734 377.5c3.44 4.386 5.71 8.163 6.766 13.03m-.118 14.315a28.158 28.158 0 0 1-2.573 6.825c-1.446 2.731-3.968 5.774-6.309 7.83"/><path fill="none" stroke="#703D29" stroke-miterlimit="8" stroke-width="1.06499" d="M456.5 351.5c3.184 2.75 5.102 5.592 6 9"/><path fill="none" stroke="#703D29" stroke-linecap="round" stroke-miterlimit="8" stroke-width="1.06499" d="M462.5 343.75c-.823 2.866-2.689 5.036-5.651 7.75M441.5 322.578l3.615-.955 2.14-1.625 1.379-1.958 1.189-3.056.476-2.484"/><path fill="none" stroke="#703D29" stroke-miterlimit="8" stroke-width="1.06499" d="M434.5 309.5c-1.203.29-2.726.719-4.326 1.451-2.142.982-4.416 2.509-6.229 4.981-2.1 2.863-3.324 6.843-4.082 10.325-.332 1.524-.728 6.348.285 11.332.748 3.679 2.327 7.105 4.074 9.587.627.889 1.196 1.657 1.834 2.272 2.288 2.2 4.399 3.554 7.916 2.877"/><path fill="none" stroke="#703D29" stroke-linecap="round" stroke-miterlimit="8" stroke-width="1.06499" d="M454.5 293.5c-.572 2.366-1.702 5.296-5 4.976"/><path fill="none" stroke="#703D29" stroke-miterlimit="8" stroke-width="1.06499" d="M442.5 308.175c-3.355-3.2-10.463-4.034-17.529.327-.909.561-1.817 1.281-2.717 2.013-.972.791-1.747 1.7-2.496 2.688-.816 1.074-1.817 2.901-2.421 4.114-.832 1.673-1.176 2.77-1.636 4.484-1.29 4.824-1.285 9.307-1.132 10.585.196 1.638.355 3.143.63 4.528.937 4.733 2.372 8.055 3.855 10.455 1.562 2.526 5.444 8.326 13.38 9.092 3.119.301 8.446-1.094 8.619-5.051"/><path fill="none" stroke="#703D29" stroke-linecap="round" stroke-miterlimit="8" stroke-width="1.06499" d="M640.987 238.859c.511-2.776 3.843-3.313 5.093-1.673 1.927 2.525.653 6.864-3.266 8.095-1.332.418-4.411.25-6.409-2.342-1.619-2.101-1.496-4.703-.891-6.773.392-1.338 1.46-2.506 2.888-3.595 4.551-3.479 11.903-2.676 14.316 3.177 3.114 7.55-3.661 13.212-9.905 17.477-7.858 5.369-16.813 6.346-23.555 6.271-15.316-.167-26.968-7.525-34.542-11.706-1.764-.975-3.581-.774-4.494.333-1.031 1.253-1.014 3.274.416 4.6"/><path fill="none" stroke="#703D29" stroke-linecap="round" stroke-miterlimit="8" stroke-width="1.06499" d="M644.343 235.5c1.619.076 2.052.717 2.549 1.373 1.922 2.543.518 6.915-3.392 8.153m29.763 87.248c-5.82 6.428-.466 17.459 3.884 19.953 1.506 1.189 2.15.558 3.353 1.273"/><path fill="none" stroke="#703D29" stroke-miterlimit="8" stroke-width="1.06499" d="M673.622 320.26c-1.929 1.34-2.609 2.845-2.684 5.461-.063 2.188.319 4.618 2.377 6.755 3.207 3.331 9.48 6.23 15.559 6.307 3.298.041 6.722-.648 10.166-2.947 3.683-2.458 5.622-5.778 6.46-9.045m-35.169 103.991c0 .019-.009 2.573-.228 4.187-.638 4.699-1.388 7.404-3.523 11.64-2.083 4.132-3.748 6.301-7.046 9.547-3.33 3.275-5.638 4.776-9.816 6.867-4.07 2.036-6.633 2.683-11.073 3.684-4.438 1.001-7.033 1.219-11.578 1.423-4.166.189-6.53.012-10.692-.273-4.453-.308-6.924-.926-11.37-1.317-3.673-.322-5.747-.619-9.434-.61-3.789.011-5.961.033-9.692.694-3.479.614-5.451 1.104-8.725 2.429-4.53 1.831-9.647 5.023-10.738 6.447-1.09-1.424-6.209-4.616-10.738-6.447-3.274-1.325-5.246-1.814-8.724-2.429-3.732-.66-5.903-.684-9.694-.694-3.687-.011-5.762.288-9.433.61-4.447.39-6.917 1.009-11.371 1.317-4.162.286-6.524.463-10.693.273-4.542-.204-7.138-.423-11.575-1.422-4.44-1.002-7.004-1.648-11.074-3.685-4.179-2.091-6.486-3.591-9.815-6.867-3.3-3.247-4.964-5.415-7.046-9.547-2.137-4.236-2.885-6.94-3.524-11.64-.219-1.615-.229-4.167-.229-4.187V259.5h207.76v171.282h.073Z"/><path fill="#C7B37F" fill-rule="evenodd" stroke="#C7B37F" stroke-miterlimit="8" stroke-width="0.553491" d="M445.901 455.26c0-2.342 1.925-4.24 4.299-4.24 2.375 0 4.3 1.898 4.3 4.24 0 2.342-1.925 4.24-4.3 4.24-2.374 0-4.299-1.898-4.299-4.24ZM419.5 425.297c0-2.096 1.36-3.797 3.037-3.797 1.678 0 3.038 1.701 3.038 3.797 0 2.097-1.36 3.797-3.038 3.797-1.677 0-3.037-1.7-3.037-3.797Z"/><path fill="#C7B37F" fill-rule="evenodd" d="M434 349.904c0-1.71 1.289-3.096 2.879-3.096 1.591 0 2.88 1.386 2.88 3.096 0 1.71-1.289 3.096-2.88 3.096-1.59 0-2.879-1.386-2.879-3.096Zm51.708-110.51c-.182-1.716.851-3.23 2.307-3.382 1.455-.151 2.783 1.116 2.964 2.831.183 1.716-.85 3.23-2.306 3.382-1.456.152-2.784-1.116-2.965-2.831Z"/><path fill="none" stroke="#C7B37F" stroke-linecap="round" stroke-miterlimit="8" stroke-width="1.06499" d="M431.203 368.5c-.616.269-.955.491-1.418.98-.442.467-.534.636-.876 1.398-.25.559-.317 1.205-.409 2.002m7.908 45.021c.583-.709.934-1.09 1.493-1.817.466-.606.743-.937 1.152-1.584.369-.58.534-.934.859-1.54.46-.855.687-1.354 1.127-2.219m-2.12 23.458c-.992.458-1.579.659-2.544 1.172-.734.391-1.132.64-1.835 1.081-.832.521-1.296.826-2.087 1.408-.824.605-1.246 1.001-2.044 1.64m25.091-63.772c-.536-.555-.828-.88-1.377-1.423-.573-.569-.885-.904-1.502-1.424-.597-.505-.977-.736-1.601-1.206"/><path fill="none" stroke="#C7B37F" stroke-miterlimit="8" stroke-width="1.06499" d="M456.5 353.5c-.875.248-1.334.446-2.244.638-1.042.218-1.749.333-2.756.362"/><path fill="none" stroke="#C7B37F" stroke-linecap="round" stroke-miterlimit="8" stroke-width="1.06499" d="M428.5 325.29c.275.975.334 1.557.704 2.5.465 1.185.853 1.807 1.559 2.866.736 1.105 1.196 1.714 2.145 2.642.834.815 1.362 1.226 2.339 1.865.927.606 1.529.816 2.506 1.337m-1.664-9.844c.817.436 1.239.765 2.095 1.12.775.32 1.236.456 2.053.643 1.107.254 1.757.317 2.892.344 1.229.028 1.592 0 3.143-.252m12.077-68.302c-1.344-.783-2.165-1.125-3.446-2.007-1.301-.896-2.019-1.446-3.15-2.549-.817-.796-1.273-1.259-1.953-2.174-.607-.817-.838-1.352-1.374-2.215m12.628-7.646c.422 1.125.542 1.811 1.081 2.884.732 1.458 1.297 2.222 2.398 3.428 1.524 1.668 2.816 2.142 4.617 3.51m2.447-9.94c.418 1.011.546 1.632 1.072 2.591.466.848.787 1.299 1.4 2.049.782.954 1.291 1.453 2.263 2.214 1.131.886 1.932 1.148 3.168 1.882"/><path fill="#703D29" fill-rule="evenodd" stroke="#703D29" stroke-miterlimit="8" stroke-width="0.298898" d="M589.497 229.636c-.087-2.841-2.908-3.136-3.99-3.136-3.119 0-3.963 1.93-7.854 4.002-4.878 2.599-6.979 3.176-11.315 3.215-4.335-.039-6.492-.617-11.37-3.215-3.892-2.072-4.546-3.94-7.667-3.94-1.693 0-3.881 1.451-3.797 4.109 0 0-.033.861.1 1.445.051.219.32.15.404.343-.04-1.29.224-1.957.865-2.823.822-1.114 2.189-1.408 2.746-1.408 3.119 0 4.274 1.984 8.166 4.057 4.878 2.599 6.977 3.177 11.313 3.215 4.335-.038 6.494-.616 11.372-3.215 3.892-2.073 5.01-4.223 8.13-4.223 1.081 0 1.844.694 2.197 1.788.219.672.095 1.121.151 1.387.029.129.189.116.224.257.108-.501.36-.679.325-1.858Z"/><path fill="#703D29" fill-rule="evenodd" d="M473.225 468.925c.899-.942 1.579-.588 1.745-1.022.122-.321-.144-.354-.51-.487-.488-.178-1.005-.28-1.494-.458-.507-.183-.965-.437-1.472-.622-.209-.075-.693-.316-.832.043-.253.659 1.777.603 1.096 2.377-.116.303-.405.951-1.413 2.026l-4.594 4.869c-.103.113-.275.352-.38.313-.105-.037-.091-.333-.092-.486l.067-6.903c.004-1.312.119-2.282.336-2.848.305-.793 1.243-.129 1.439-.638.123-.322.029-.335-.529-.538-.28-.101-.814-.21-1.931-.616-.594-.217-1.158-.508-1.734-.718-.261-.095-.745-.443-.918.011-.051.133.132.328.177.366.644.45.807.746.821 1.59l.127 12.571c.01.907.111 1.159.286 1.223.192.07.322-.012.702-.432l9.103-9.62Z"/><path fill="#703D29" fill-rule="evenodd" d="M477.948 471.233c.575-1.81 1.652-.718 1.858-1.366.072-.23-.001-.295-.52-.457-.984-.308-1.63-.426-2.251-.621-.604-.19-1.254-.477-1.928-.688-.156-.049-.569-.241-.672.083-.211.667 1.909.744 1.359 2.479l-2.904 9.149c-.575 1.811-1.661.926-1.872 1.592-.03.097-.039.24.117.289.449.141 1.216.297 1.959.53 1.346.422 1.961.698 2.6.898.397.124.576.097.643-.113.194-.611-2.019-.339-1.274-2.684l2.885-9.091Zm6.233 1.832c.343-1.149.881-.992 1.524-.803 1.753.517 2.302 2.22 1.742 4.099-.337 1.13-.761 2.172-3.4 1.396-.52-.153-1.163-.343-1.02-.821l1.154-3.871Zm-4.781 8.244c-.72 2.414-1.938 1.369-2.12 1.982-.115.383.267.432.458.489.868.255 1.759.434 2.696.71.73.214 1.175.429 1.471.515.399.118.571.043.624-.128.205-.69-1.748-.41-1.137-2.461l.989-3.315c.2-.67.136-.835 1.056-.564.868.255 1.129.519 1.277 1.48l.555 3.457c.207 1.27.403 2.64 1.774 3.044.695.203 1.967.12 2.144-.475.045-.153-.025-.298-.181-.345-.173-.051-.381.012-.555-.038-.14-.041-.469-.138-.533-.491-.53-2.782-1.178-5.994-1.144-6.11.058-.191.613-.215 1.247-.508.641-.311 1.356-.872 1.721-2.099.263-.881.723-3.685-3.08-4.804-1.164-.343-2.367-.613-3.53-.955-1.094-.322-1.21-.44-2.008-.675-.208-.06-.411-.016-.468.175-.205.69 1.898.538 1.258 2.684l-2.514 8.432Zm14.195 4.128c-.559 2.313-2.323.905-2.506 1.663-.104.428.2.479.518.556.704.167 1.304.228 2.483.509 1.18.282 1.742.498 2.447.667.51.121.848.263.961-.204.131-.543-2.258-.517-1.68-2.908l2.122-8.784c.226-.932.426-.987 1.147-.815l1.497.357c2.043.405.959 2.428 1.663 2.595.458.109.447-.694.469-.936l.237-1.834c.03-.198.096-.471-.168-.533-1.637-.391-2.836-.595-5.407-1.207-2.571-.614-3.731-.973-5.368-1.363-.264-.064-.33.209-.395.399l-.901 2.497c-.097.245-.305.647.064.735.792.189.879-2.483 2.869-2.008l1.479.353c.722.172.874.311.648 1.244l-2.178 9.017Zm21.394-5.42c.697-1.071 1.409-.838 1.494-1.29.061-.334-.198-.321-.572-.39-.499-.092-1.012-.105-1.51-.197-.517-.095-1.001-.265-1.517-.361-.213-.039-.719-.193-.789.18-.128.689 1.806.293 1.461 2.139-.058.315-.222.997-1.003 2.214L509 487.838c-.078.127-.201.39-.308.369-.108-.019-.145-.31-.173-.458l-1.134-6.754c-.221-1.28-.28-2.247-.17-2.837.154-.824 1.167-.333 1.267-.864.061-.334-.032-.331-.601-.436-.285-.052-.815-.068-1.955-.278-.605-.112-1.197-.301-1.784-.41-.267-.049-.789-.308-.877.163-.026.138.183.299.234.328.692.332.901.593 1.061 1.415l2.299 12.254c.167.884.308 1.113.486 1.146.196.037.307-.065.599-.541l7.045-10.918Zm1.003 11.258c.01.488-.034.643.392.835.992.429 1.824 1.053 2.913 1.234 2.339.388 4.278-1.092 4.713-3.674.421-2.504-.615-3.547-2.369-4.791-2.197-1.561-3.136-1.982-2.914-3.301.222-1.321 1.153-1.936 2.331-1.74 3.073.51 2.722 4.22 3.133 4.289.392.065.485-.162.524-.602l.248-2.674c.041-.459.145-.746-.124-.79-.232-.039-.732.203-.964.164-.535-.089-1.156-.983-2.62-1.226-2.09-.348-3.797 1.072-4.179 3.338-.349 2.07.575 3.013 1.984 4.017 2.64 1.878 3.723 2.321 3.44 3.997-.266 1.576-1.497 2.345-2.89 2.113-1.982-.33-2.787-2.307-3.041-4.295-.027-.268-.032-.45-.319-.498-.446-.074-.363.527-.356.811l.098 2.793Zm26.657-7.466c.58-1.138 1.312-.98 1.349-1.439.027-.338-.231-.298-.61-.327-.505-.04-1.017 0-1.523-.039-.523-.041-1.022-.161-1.545-.201-.217-.017-.736-.118-.766.26-.055.697 1.827.103 1.678 1.976-.025.318-.116 1.014-.763 2.305l-2.954 5.864c-.065.135-.16.408-.267.401-.108-.011-.177-.295-.22-.44l-1.838-6.598c-.356-1.25-.516-2.206-.469-2.803.067-.836 1.126-.453 1.169-.991.026-.339-.065-.326-.643-.371-.289-.021-.819.017-1.973-.075-.615-.047-1.222-.174-1.817-.221-.271-.022-.819-.225-.856.253-.012.14.214.279.266.303.725.257.96.495 1.206 1.296l3.575 11.947c.259.863.424 1.076.604 1.09.199.015.299-.098.538-.6l5.859-11.59ZM545.937 493.915c-.017 2.078-1.759 1.696-1.765 2.512-.002.346.361.247.561.249.49 0 .981-.073 1.562-.068.636.011 1.252.093 2.141.1.238 0 .691.027.692-.258.009-.958-2.327.407-2.292-3.506l.059-6.925c0-.184.039-.327.148-.326.091 0 .198.104.325.268l8.642 10.671c.126.164.217.287.47.289.218 0 .219-.16.222-.609l.1-11.429c.016-2.138 1.557-1.636 1.563-2.247 0-.061.002-.265-.343-.268-.162 0-.8.075-1.944.065-1.253-.012-1.779-.099-2.069-.1-.236 0-.292.201-.293.343-.006.673 2.212.326 2.195 2.18l-.057 6.785c-.006.508-.044.753-.152.752-.109-.001-.324-.248-.559-.535l-7.222-9.049c-.324-.391-.105-.53-.685-.536-.963-.011-1.435.069-1.908.065-.345 0-.671-.088-1.017-.091-.216 0-.309.159-.311.344-.01.977 2.037-.329 2.003 3.583l-.066 7.742Zm17.584-9.173c.017-1.935 1.373-1.19 1.378-1.882.002-.245-.087-.286-.633-.292-1.035-.011-1.689.067-2.342.061-.636 0-1.344-.094-2.052-.098-.163-.002-.616-.068-.62.28-.005.713 1.949.16 1.934 2.014l.016 9.779c-.016 1.935-1.319 1.395-1.324 2.108-.002.101.033.244.196.245.473.011 1.255-.069 2.035-.063 1.417.012 2.088.1 2.758.106.419 0 .583-.076.584-.3.007-.652-2.035.267-2.013-2.239l.083-9.719Zm7.613 9.468c.022 2.424-2.039 1.464-2.033 2.259.006.448.314.426.64.422.726-.011 1.325-.093 2.542-.104 1.216-.011 1.816.066 2.542.059.527 0 .891.055.887-.436-.006-.57-2.325.041-2.347-2.464l-.079-9.209c-.007-.977.173-1.081.917-1.088l1.543-.012c2.088-.099 1.526 2.167 2.253 2.16.471 0 .265-.797.227-1.04l-.216-1.873c-.02-.205-.022-.489-.295-.487-1.689.015-2.905.107-5.556.131-2.651.022-3.868-.048-5.557-.033-.273 0-.271.287-.287.491l-.267 2.692c-.033.266-.138.714.242.711.818-.011.25-2.671 2.302-2.688l1.524-.016c.747-.011.928.094.937 1.07l.081 9.455Zm10.576-3.855c-.325.026-.577.067-.593-.136-.022-.284.069-.517.14-.768l1.114-3.705c.073-.232.144-.258.18-.26.091-.011.037 0 .158.151l1.771 3.558c.108.236.235.451.257.735.014.204-.239.204-.565.23l-2.462.195Zm3.108.856c.472-.037.578.16 1.298 1.696.242.533.398.888.433 1.335.097 1.239-1.206 1.118-1.161 1.706.022.284.256.225.581.2.525-.041 1.188-.177 1.984-.24 1.195-.095 1.691-.052 2.343-.105.489-.038.654-.011.627-.356-.052-.67-.968.2-1.66-1.197l-5.856-12.042c-.283-.59-.322-.628-.485-.615-.235.02-.296.412-.397.747l-3.949 12.678c-.363 1.173-1.296 1.125-1.259 1.592.021.265.307.2.56.18.524-.041 1.043-.164 1.586-.207.58-.047 1.129-.011 1.709-.055.38-.03.951.068.919-.359-.043-.548-1.972-.068-2.087-1.53-.038-.488.16-1.219.255-1.635.312-1.373.686-1.485.994-1.509l3.567-.284Zm14.033-8.445c-.182-1.394-.112-1.424 2.066-1.714 3.474-.461 2.379 2.088 3.224 1.977.414-.055.238-.71.185-.971l-.332-1.989c-.025-.183-.176-.367-.411-.337-1.584.211-2.816.457-4.094.627-2.754.366-4.061.458-4.799.556-.252.033-.376.214-.352.396.106.808 2.056-.109 2.293 1.708l1.233 9.455c.321 2.463-1.19 1.555-1.069 2.484.018.121.137.207.371.177.991-.131 1.737-.314 2.295-.388.791-.106 1.469-.112 2.152-.203.451-.06.839-.029.786-.433-.07-.546-2.038.229-2.331-2.013l-.39-2.99c-.153-1.172-.256-1.404.571-1.514l1.333-.177c1.873-.249 1.648 1.96 2.223 1.882.433-.058.229-.77.177-1.029l-.594-3.579c-.089-.544-.282-.477-.408-.46-.36.048-.172 1.913-1.72 2.119l-1.135.152c-.773.102-.792-.039-.905-.908l-.368-2.828Zm6.64 4.63c.746 4.066 3.653 6.319 7.242 5.648 5.696-1.066 5.883-6.178 5.369-8.982-.779-4.248-3.914-6.334-7.389-5.641-4.26.837-6.028 4.587-5.222 8.975Zm1.987-1.553c-.534-2.905-.149-5.837 2.858-6.461 2.296-.471 4.901 1.444 5.713 5.872.611 3.326.104 6.198-2.957 6.832-3.184.659-5.078-3.319-5.614-6.243Zm14.083-7.096c-.282-1.189.265-1.321.918-1.479 1.784-.433 3.121.793 3.583 2.735.278 1.168.436 2.304-2.25 2.954-.529.129-1.182.287-1.299-.208l-.952-4.002Zm.01 9.699c.593 2.497-.992 2.189-.842 2.823.094.397.451.247.645.2.883-.214 1.747-.508 2.701-.738.741-.18 1.236-.216 1.537-.29.406-.098.519-.251.476-.429-.169-.714-1.724.522-2.228-1.597l-.814-3.427c-.166-.693-.304-.807.631-1.034.883-.214 1.244-.113 1.857.661l2.228 2.77c.819 1.017 1.681 2.128 3.077 1.791.706-.173 1.768-.891 1.622-1.505-.038-.158-.172-.251-.331-.213-.177.043-.325.204-.502.247-.141.034-.476.116-.711-.163-1.865-2.188-4.048-4.695-4.077-4.815-.047-.198.422-.501.827-1.082.4-.598.737-1.455.435-2.723-.216-.912-1.233-3.619-5.101-2.682-1.183.287-2.365.657-3.548.943-1.112.27-1.273.225-2.085.422-.212.051-.364.193-.318.392.17.713 1.921-.487 2.449 1.732l2.072 8.717Zm14.567-3.289c.602 2.348-1.627 1.92-1.43 2.689.11.434.404.336.721.253.703-.183 1.263-.414 2.441-.721 1.179-.308 1.779-.381 2.482-.564.509-.133.876-.166.755-.639-.141-.553-2.245.607-2.866-1.819l-2.284-8.915c-.242-.947-.092-1.092.628-1.28l1.495-.391c2.001-.606 2 1.73 2.703 1.546.457-.12.066-.837-.029-1.066l-.659-1.763c-.068-.194-.138-.47-.402-.401-1.635.428-2.792.815-5.359 1.485-2.567.67-3.765.898-5.4 1.326-.264.069-.194.345-.16.546l.385 2.677c.031.266.037.728.406.631.791-.207-.398-2.653 1.588-3.172l1.476-.385c.722-.188.923-.136 1.165.811l2.344 9.152Zm9.29-12.514c-.513-1.865.995-1.526.811-2.194-.065-.235-.162-.25-.688-.104-.998.28-1.606.535-2.236.711-.612.172-1.316.284-1.999.475-.158.044-.611.107-.519.443.188.686 2.015-.418 2.505 1.369l2.589 9.424c.512 1.865-.888 1.708-.7 2.395.027.098.101.226.257.182.455-.128 1.187-.417 1.94-.628 1.364-.382 2.033-.485 2.681-.666.402-.113.538-.235.478-.451-.173-.629-1.883.823-2.547-1.592l-2.572-9.364Zm3.871 4.554c1.3 3.922 4.488 5.745 7.951 4.575 5.494-1.856 4.975-6.945 4.078-9.649-1.357-4.096-4.748-5.722-8.094-4.549-4.102 1.43-5.336 5.391-3.935 9.623Zm1.753-1.818c-.927-2.8-.95-5.758 1.94-6.799 2.21-.79 5.053.742 6.467 5.012 1.063 3.207.958 6.122-1.985 7.181-3.064 1.098-5.487-2.573-6.422-5.394Zm12.89-9.244c-.443-1.137.08-1.346.705-1.595 1.707-.679 3.201.348 3.926 2.206.435 1.118.748 2.22-1.82 3.241-.508.202-1.133.45-1.318-.025l-1.493-3.829Zm1.346 9.603c.931 2.388-.681 2.307-.444 2.914.147.379.48.182.666.107.845-.336 1.66-.748 2.572-1.11.71-.283 1.196-.388 1.482-.503.39-.155.48-.322.413-.493-.266-.683-1.635.761-2.426-1.267l-1.28-3.28c-.259-.664-.411-.756.484-1.112.844-.336 1.215-.287 1.929.393l2.588 2.43c.953.891 1.959 1.87 3.294 1.34.676-.269 1.628-1.129 1.399-1.717-.059-.153-.205-.225-.357-.165-.169.068-.294.248-.462.316-.136.053-.457.181-.727-.061-2.148-1.905-4.657-4.082-4.701-4.197-.074-.189.349-.555.67-1.185.312-.651.528-1.546.054-2.759-.339-.874-1.719-3.411-5.42-1.94-1.132.451-2.251.983-3.384 1.434-1.064.424-1.228.401-2.006.71-.203.082-.335.242-.26.432.266.683 1.834-.751 2.662 1.372l3.254 8.341Z"/><path fill="#D52B1E" fill-rule="evenodd" d="M473 269h88v89h-88Z"/><path fill="#FFF" fill-rule="evenodd" d="M514 339.075s-.052 3.12-.928 5.629c-1.013 2.897-1.02 2.897-1.95 4.305-1.25 1.895-2.775 3.282-4.135 4.139-2.126 1.339-4.286 2.01-6.457 1.821-5.959-.518-8.725-6.858-10.076-12.004-1.434-5.462-5.507-8.436-8.101-6.457-1.52 1.16-1.605 3.103-.337 4.968 1.35 1.986 4.449 2.981 4.449 2.981l-3.184 3.973s-6.84-.873-8.179-7.872c-.506-2.649.806-7.596 5.309-9.074 5.75-1.889 9.429 2.133 11.2 5.527 2.438 4.668 3.485 13.239 10.236 11.915 3.673-.721 5.401-5.961 5.401-8.361l2.678-2.815 3.967 1.243.107.083ZM519.996 339.075s.052 3.12.928 5.629c1.013 2.897 1.02 2.897 1.95 4.305 1.25 1.895 2.775 3.282 4.135 4.139 2.125 1.34 4.285 2.01 6.456 1.82 5.96-.517 8.725-6.857 10.077-12.003 1.434-5.462 5.506-8.436 8.1-6.457 1.52 1.16 1.606 3.103.338 4.968-1.35 1.986-4.45 2.981-4.45 2.981l3.184 3.973s6.841-.873 8.18-7.872c.505-2.65-.806-7.596-5.31-9.074-5.75-1.89-9.428 2.133-11.2 5.527-2.437 4.668-3.484 13.24-10.236 11.915-3.673-.721-5.4-5.96-5.4-8.36l-2.679-2.816-3.966 1.243-.107.083Z"/><path fill="#FEDF00" fill-rule="evenodd" d="m525.102 301.092 11.728-12.624s1.771-1.421 1.755-3.688l-2.419.374-.541-1.238-.12-1.244 3.249-.683c.053-.525.008-.921.1-1.5.088-.536.208-.824.339-1.349l-3.558.236c.18-.619.139-.949.337-1.524.169-.485.216-.67.55-1.196.66-.099 1.262-.247 2.079-.33.793-.079 1.245-.043 2.041-.092 1.941-3.601 10.018-6.91 15.756-.98 4.152 4.291 3.256 12.164-2.126 14.246-3.052 1.18-5.509.482-7.48-1.204l2.148-4.191c2.967 1.762 5.423-.43 5.255-2.706-.215-2.877-2.092-4.659-4.747-4.89-2.456-.213-4.22 1.185-5.338 3.372-.683 1.335-.367 2.314-.593 3.795-.247 1.607-.11 2.505-.586 4.13-.348 1.18-1.259 2.639-2.583 3.895l-12.023 12.941L481.518 355 478 351.766l47.102-50.675Z"/><path fill="#FFF" fill-rule="evenodd" d="M491 305.779s2.897 14.488 12.738 36.221c5.005-1.853 7.96-3.034 13.262-3.034 5.303 0 8.257 1.012 13.262 3.034C540.104 320.267 543 305.779 543 305.779L517 272l-26 33.779Z"/><path fill="#FEDF00" fill-rule="evenodd" d="M519.594 283 538 306.445s-2.455 11.398-9.934 28.555c-2.896-.653-5.38-1.222-8.463-1.43l-.009-50.569Zm-5.188 0L496 306.445s2.455 11.398 9.934 28.555c2.896-.653 5.38-1.222 8.463-1.43l.009-50.569ZM571 269h89v89h-89Z"/><path fill="#D52B1E" fill-rule="evenodd" d="M583 269h13.244v89H583Zm25.378 0h13.244v89h-13.244Zm25.378 0H647v89h-13.244Z"/><path fill="#FEDF00" fill-rule="evenodd" d="M473.34 434.683c.25 1.603.814 4.355 2.316 7.174 1.582 2.531.998 2.462 4.578 6.512 1.762 1.995 4.511 3.703 6.667 4.879 2.164 1.182 3.766 1.762 7.326 2.71 6.977 1.856 11.873 1.972 17.745 1.734 4.58-.185 8.077-.756 10.973-1.152 4.129-.563 7.205-.898 11.903-1.097 2.284-.097 4.442-.119 6.576 0 2.575.145 5.119.548 7.825 1.097 5.826 1.182 11.736 3.46 11.736 3.46l.015-92.975-88-.025v63.547s.18 3.105.34 4.136Z"/><path fill="#D52B1E" fill-rule="evenodd" stroke="#D52B1E" stroke-miterlimit="8" stroke-width="0.553491" d="m483.501 450.932 4.158 2.416 5.698 2.048-.005-87.894H483.5Zm49.291 4 .011-87.432h-9.87v88.83s6.755-.865 9.857-1.065Zm19.69-87.422h-9.838v87.736c3.327.351 6.622.958 9.856 1.814l-.018-89.55Zm-39.391 0v89.838c-.098.011-6.586.339-9.903-.004l.002-89.819Z"/><path fill="#FEDF00" fill-rule="evenodd" d="M659.656 434.683c-.252 1.603-.822 4.355-2.34 7.172-1.599 2.533-1.009 2.464-4.626 6.514-1.781 1.994-4.56 3.703-6.739 4.879-2.187 1.182-3.805 1.762-7.403 2.709-7.053 1.856-12.001 1.973-17.934 1.735-4.629-.185-8.163-.757-11.091-1.152-4.174-.563-7.283-.898-12.03-1.097-2.308-.097-4.49-.119-6.646 0-2.603.144-5.174.548-7.909 1.097C577.05 457.722 571 460 571 460l.062-92.975L660 367v63.546s-.182 3.104-.344 4.136Z"/><path fill="#D52B1E" fill-rule="evenodd" d="M593.646 375.002s-.397.184-.645.296c-.323.345-.485.548-.847.856-.481.41-.834.53-1.356.888-.25.172-.456.227-.645.461-.273.337-.086.663-.271 1.053-.202.426-.401.629-.712.988-.397.457-.705.642-1.153 1.053-.454.416-.637.764-1.186 1.053-.146.076-.216.149-.374.197-.234.07-.379-.012-.611.065-.421.141-.553.593-.846.757.12.23.115.392.237.626.171.34.765 1.279.881 1.513.228.321.293.737.577.822.583.177.931.162 1.424.132.859.191 1.388.166 2.203.493.665.268.937.606 1.595.889.514.221.837.358 1.389.46.42.078.66.139 1.085.099.272-.025.409-.126.679-.164.054-.01.087 0 .135 0l-.032.395c-.007 0 .004.029 0 .033v.065h.067l2.237.954a1.844 1.844 0 0 0-.203.395c-.106.337-.123.725-.068.889.684 1.988 1.259 3.231 1.594 3.357.667.248.875.91 1.254 1.579-.133.139-.246.211-.373.329-.666.621-1.25 1.063-1.797 1.909-.808 1.251-1.354 1.266-.338 2.927.595.975.883 1.158 1.66 2.535.394.695.611 1.235.848 2.073.225.792.302 1.253.34 2.073l1.05.395.713-.692.678-1.25.033-.954c-.258-.213-.333-.499-.271-.823.076-.388.558-.305.781-.658.307-.486-.36-.773-.713-1.151-.656-.706-1.552-.877-1.763-1.942-.057-.287.084-.449.407-.757.929-.884 1.226-1.024 2.137-1.908.262.15.662.203 1.051.132.303-.056.575.131 1.525.395.662.182.947.09 1.323.031l.407-.098c.054.222.12.437.135.724.058 1.116-.168 3.153.17 3.685.142.224.202.35.305.593.108.253.232.417.238.691.011.733.05 1.2 0 1.974-.048.728-.113 1.097-.238 1.843-.081.475-.179.752-.475 1.118-.307.383-.645.44-1.051.725l-.101 1.053 1.221.494 1.389.328.746-.296c0-.267.044-.421.17-.658.138-.26.251-.462.509-.559.393-.151.824.136.983-.099.173-.255.065-.356.034-.79-.05-.697-.199-1.042-.306-1.745-.178-1.169-.228-1.775-.169-2.895.034-.649.041-1.007.169-1.645.187-.93.528-1.381.747-2.304.244-1.029.287-1.691.407-2.599 3.439.476 6.301.418 10.139-.395.183-.039.813-.263.813-.263.868.725 1.852 1.331 2.95 1.711-.007.106-.017.89 0 1.019.04.304-.044.508.135.758.115.158.214.252.407.295.286.065.494.025.713-.164.245-.212.2-.478.271-.79.035-.147.008-.594 0-.723.398.058.532.065.95.065.387 0 .575.015.949-.032.006.084.022.388.033.492.03.258-.082.458.034.692.121.242.272.378.543.428a.735.735 0 0 0 .576-.099c.321-.195.287-.525.34-.889a8.046 8.046 0 0 0 0-.822c.23-.071.897-.308 1.119-.395a5.35 5.35 0 0 1-.102.855 5.14 5.14 0 0 1-.272.987c-.223.599-.478.902-.814 1.448-.408.668-.62 1.038-1.117 1.645-.23.28-.389.407-.611.692-.278.355-.371.596-.645.954-.351.461-.553.762-1.017 1.118-.752.579-1.248.116-2.271.889l-.239 1.086 1.56.56 1.391.263.474-.263c-.013-.317.035-.541.238-.79.231-.284.479-.37.847-.428.392-.063.811.035 1.119-.23.38-.328.379-.962.678-1.548.932-1.814 1.759-2.698 3.256-4.112.665-.629 1.234-.798 1.798-1.514.266-.339.564-.494.575-.922.009-.298-.156-.437-.237-.723-.113-.397-.203-1.053-.203-1.053 1.651.783 1.053.68 1.357 1.481.244.647-.036 1.095.067 1.776.12.796.505 1.173.576 1.974.085.953-.155 1.496-.339 2.436-.162.827-.141 1.345-.508 2.106-.35.725-.619 1.134-1.255 1.645-.229.184-.4.263-.644.428l-.136 1.085 1.221.396 1.763.46.407-.361c.178-.69-.06-1.703.44-1.778.441-.065.752 0 .849-.328.039-.139.063-.343.101-.658.24-1.986.458-3.84.678-4.739.25-1.019.233-1.24.442-2.008.19-.699-.094-.297.44-1.776.797-2.208-.225-2.501-1.153-3.85-.502-.73-.675-.994-.746-1.58-.105-.86.178-1.574.136-2.895a42.462 42.462 0 0 1 0-3.028c.125-.056.241-.127.373-.198 1.27-.676 1.775-.88 2.577-2.6a3.522 3.522 0 0 0 .339-1.545c-.006-.35-.071-.687-.102-1.087-.033-.42-.206-.671-.339-.987-.141-.335-.352-.588-.611-.888-.837-.973-1.93-1.192-2.949-1.547-1.61-.559-2.718-.457-4.476-.592-1.815-.139-2.829-.166-4.646-.065-2.177.12-3.394.546-5.561.789-2.078.234-3.23.39-5.323.428-2.453.044-4.796-.484-6.273-.362-2.66.221-2.705.802-6.715 1.119a74.305 74.305 0 0 1-4.17.197l-2.34-.724c.93-.322 1.158-.513 1.595-1.085.294-.386.252-.715.61-1.119.288-.329.48-.655.846-1.021a2.421 2.421 0 0 0-1.017-.46c-.394-.08-.621-.044-1.016 0-.536.059-.838.131-1.323.362-.391.187-.677.376-.916.625 0 0-1.394-.872-2.373-1.283-1.214-.511-1.736-.75-3.255-.955Zm2.136 12.537h.068c-.013.011-.021.023-.033.033l-.035-.033Z"/><path fill="none" stroke="#FEDF00" stroke-linecap="round" stroke-miterlimit="8" stroke-width="1.06499" d="m641.5 388.561-.802.274c-.911.453-1.658.471-2.732.559-2.778.227-4.489-1.19-7.354-.954-1.475.122-2.128 1.34-3.636 1.743a9.135 9.135 0 0 1-1.787.317l.538-1.164s-1.349.295-2.223.297a7.412 7.412 0 0 1-1.6-.146l1.07-1.069s-.856-.15-1.36-.378a4.09 4.09 0 0 1-1.114-.709c.597-.106 1.19-.239 1.776-.398 1.635-.433 2.144-1.291 4.088-1.491 1.208-.125 3.186-.052 8.031.807 3.191.565 4.605.3 5.818-.291.798-.388 1.061-1.136 1.159-2.012.097-.873-.425-1.58-.919-2.037-.129-.12-.466-.377-1.169-.409"/><path fill="#FCD900" fill-rule="evenodd" stroke="#FEDF00" stroke-miterlimit="8" stroke-width="0.553491" d="M594.367 379.513c-.682-.038-1.137.006-1.724.168-.618.17-.696.401-1.143.658.573.058.9.208 1.47.146.446-.048.678-.137.979-.292.407-.209.556-.39.551-.666l-.133-.014Z"/><path fill="none" stroke="#FEDF00" stroke-linecap="round" stroke-miterlimit="8" stroke-width="1.06499" d="M606.017 393.588s.28.483.432.806c.263.558.398.884.555 1.477.212.805.121 1.293.255 2.113.024.144.053.265.082.379l-.053 1.137m7.212-7s-.232.818-.375 1.343c-.374 1.362-.717 2.102-1.001 3.485a8.982 8.982 0 0 0-.11.648m-11.514-4.005c.838.177.577 3.384 1.897 4.119"/><path fill="none" stroke="#FEDF00" stroke-miterlimit="8" stroke-width="1.06499" d="m632.5 399.5.375-.244a7.96 7.96 0 0 0 2.625-1.756"/><path fill="none" stroke="#FEDF00" stroke-linecap="round" stroke-miterlimit="8" stroke-width="1.06499" d="M623.5 397.5h.008c4.192-.923 6.982-2.769 8.992-3"/><path fill="none" stroke="#FEDF00" stroke-linecap="round" stroke-miterlimit="8" stroke-width="1.06499" d="M627.5 393.595c.331-.011.648-.032.92-.065 1.626-.201 1.887.657 3.02 1.203 2.058.993 2.325 2.206 4.766 3.209.128.052.247.102.354.148l.94.41"/><path fill="#FCD900" fill-rule="evenodd" stroke="#FEDF00" stroke-miterlimit="8" stroke-width="0.553491" d="M586.5 383.649c.307.049.494.058.809.039.38-.022.554-.175.934-.183.309-.007.529-.023.783.092.16.073.229.14.32.252.1.122.187.207.142.342-.068.209-.371.308-.702.309-.271 0-.497-.045-.623-.2-.079-.087-.096-.191-.044-.286a1.796 1.796 0 0 1-.889.012c-.313-.057-.577-.193-.73-.377Z"/><path fill="#0065BD" fill-rule="evenodd" d="M593.709 393.305c-.863-.255-2.129-.889-2.129-.889.35-.269.636-.285.935-.597.422-.439.404-.847.642-1.419.233-.559.199-1.026.727-1.444.314-.248.825-.29 1.211-.178.382.122.822.432.918.824.149.604-.173.953-.266 1.564-.093.611-.317.962-.211 1.571.071.403.246.558.383.976 0 0-1.369-.16-2.21-.409Zm-1.072 1.022a.679.679 0 0 1 .669-.687.679.679 0 0 1 .691.665.679.679 0 0 1-.667.687.678.678 0 0 1-.693-.661v-.004Zm-1.907-17.76s-.097-.064-.156-.112c-.414-.333-.454-.702-.651-1.194-.186-.467-.278-.743-.341-1.241-.054-.437 0-.689 0-1.127 0-.397.044-.622 0-1.016-.043-.403-.032-.658-.227-1.015-.105-.194-.427-.363-.34-.452.102-.103.278-.022.455 0 .432.052.682.178 1.021.452.408.329.57.614.728 1.128.18.59.269.966.441 1.579.09.318.141.505.308.79.173.296.346.412.567.676l-.012.025c-.323.352-.481.581-.841.897-.331.291-.607.434-.917.617l-.036-.011Zm3.9 11.445 2.416 1.109c1.244-.683 2.68-2.069 3.788-4.215.954-1.848 1.105-2.851 1.477-4.64l-1.938-.625-.386.079c-.598 1.853-.751 2.909-1.753 4.509-.869 1.389-1.861 2.48-2.869 3.264l-.735.519Zm5.351 19.492c.39-.53.556-.871.999-1.36.494-.543.867-.755 1.421-1.237.168.016.363-.013.52.077-.029.586-.059 1.021-.195 1.657a8.959 8.959 0 0 1-.375 1.302c-.146.417-.172.687-.422 1.053-.167.243-.314.34-.516.557-.552-.798-1.44-1.395-1.432-2.05Zm35.758 1.99c.62.226.996.29 1.591.579.661.322.969.619 1.589 1.015.029.166.113.343.068.52-.575.131-1.004.222-1.657.27-.454.034-.91.034-1.364 0-.444-.025-.713.026-1.135-.113-.282-.093-.416-.207-.683-.338.621-.749.954-1.761 1.591-1.933Zm-10.573-2.194c.621.225.997.29 1.591.578.661.323.97.62 1.59 1.016.029.165.112.343.068.518-.575.133-1.004.224-1.657.271a9.133 9.133 0 0 1-1.364 0c-.444-.024-.713.026-1.135-.113-.282-.092-.416-.206-.683-.337.621-.749.953-1.761 1.59-1.933Zm-18.783 2.291c.621.226.997.29 1.591.579.661.322.97.619 1.591 1.015.028.166.111.343.068.52-.576.131-1.005.222-1.659.27-.53.038-.833.029-1.362 0-.444-.024-.714.025-1.137-.113-.281-.093-.416-.206-.682-.338.621-.749.953-1.761 1.59-1.933Zm-9.727-32.056c-.664-.299-1.138-1.124-.715-1.715.168-.236.446-.187.612-.424.206-.294.154-.547.147-.903-.007-.405-.155-.616-.227-1.015-.077-.436-.15-.684-.147-1.128.006-.675-.041-1.157.374-1.692.266-.341.715-.636.894-.658.159.146-.062.54-.036.884.039.497.142.771.312 1.24.219.606.519.871.762 1.467.225.555.433.869.454 1.466.017.491-.027.792-.227 1.241-.179.398-.325.623-.661.903a2.01 2.01 0 0 1-.862.45 1.255 1.255 0 0 1-.68-.116Z"/><path fill="#D52B1E" fill-rule="evenodd" d="M593.646 414.006s-.397.189-.645.304c-.323.355-.485.563-.847.88-.481.421-.834.544-1.356.912-.25.178-.456.234-.645.474-.273.347-.086.682-.271 1.083-.202.438-.401.646-.712 1.015-.397.469-.705.66-1.153 1.082-.454.428-.637.786-1.186 1.082-.146.078-.216.154-.374.203-.234.072-.379-.012-.611.067-.421.145-.553.609-.846.778.12.236.115.402.237.643.171.349.765 1.315.881 1.555.228.33.293.758.577.845.583.182.931.167 1.424.136.859.196 1.388.171 2.203.507.665.275.937.622 1.595.914.514.227.837.367 1.389.472.42.081.66.143 1.085.102.272-.026.409-.13.679-.169.054-.011.087 0 .135 0l-.032.406c-.007 0 .004.03 0 .034v.067h.067l2.237.98a1.926 1.926 0 0 0-.203.406c-.106.347-.123.746-.068.914.684 2.043 1.259 3.321 1.594 3.45.667.255.875.936 1.254 1.623-.133.143-.246.217-.373.338-.666.638-1.25 1.093-1.797 1.962-.808 1.286-1.354 1.302-.338 3.009.595 1.002.883 1.19 1.66 2.605.394.714.611 1.269.848 2.131.225.813.302 1.287.34 2.131l1.05.405.713-.711.678-1.284.033-.981c-.258-.219-.333-.513-.271-.846.076-.398.558-.314.781-.677.307-.498-.36-.794-.713-1.182-.656-.726-1.552-.902-1.763-1.996-.057-.296.084-.462.407-.778.929-.909 1.226-1.053 2.137-1.961.262.153.662.209 1.051.135.303-.057.575.135 1.525.406.662.187.947.093 1.323.032l.407-.1c.054.228.12.449.135.743.058 1.147-.168 3.242.17 3.788.142.231.202.359.305.609.108.26.232.429.238.71.011.754.05 1.234 0 2.03-.048.747-.113 1.127-.238 1.893-.081.489-.179.773-.475 1.15-.307.394-.645.452-1.051.744l-.101 1.083 1.221.507 1.389.338.746-.304c0-.275.044-.433.17-.677.138-.267.251-.475.509-.574.393-.155.824.139.983-.102.173-.262.065-.366.034-.812-.05-.716-.199-1.071-.306-1.793-.178-1.201-.228-1.825-.169-2.976.034-.667.041-1.035.169-1.691.187-.955.528-1.418.747-2.368.244-1.057.287-1.738.407-2.671 3.439.49 6.301.43 10.139-.405.183-.041.813-.271.813-.271.868.746 1.852 1.368 2.95 1.759-.007.109-.017.914 0 1.047.04.312-.044.522.135.779.115.163.214.259.407.303.286.067.494.025.713-.168.245-.218.2-.492.271-.812.035-.152.008-.61 0-.744.398.06.532.068.95.068.387 0 .575.015.949-.034.006.087.022.399.033.507.03.265-.082.47.034.711.121.248.272.388.543.439.198.05.407.013.576-.102.321-.2.287-.539.34-.913a8.502 8.502 0 0 0 0-.845c.23-.073.897-.316 1.119-.406a5.664 5.664 0 0 1-.102.879 5.414 5.414 0 0 1-.272 1.015c-.223.614-.478.926-.814 1.488-.408.686-.62 1.066-1.117 1.69-.23.288-.389.418-.611.711-.278.365-.371.613-.645.981-.351.474-.553.783-1.017 1.149-.752.595-1.248.119-2.271.914l-.239 1.115 1.56.576 1.391.271.474-.271c-.013-.326.035-.556.238-.812.231-.292.479-.379.847-.44.392-.064.811.037 1.119-.236.38-.337.379-.989.678-1.591.932-1.865 1.759-2.773 3.256-4.226.665-.646 1.234-.82 1.798-1.556.266-.349.564-.508.575-.947.009-.307-.156-.449-.237-.744-.113-.408-.203-1.082-.203-1.082 1.651.805 1.053.699 1.357 1.522.244.665-.036 1.125.067 1.825.12.819.505 1.206.576 2.029.085.98-.155 1.537-.339 2.504-.162.849-.141 1.382-.508 2.164-.35.746-.619 1.166-1.255 1.691-.229.189-.4.27-.644.44l-.136 1.115 1.221.407 1.763.473.407-.371c.178-.709-.06-1.75.44-1.827.441-.067.752 0 .849-.338.039-.143.063-.353.101-.676.24-2.041.458-3.946.678-4.87.25-1.048.233-1.275.442-2.064.19-.719-.094-.306.44-1.826.797-2.27-.225-2.57-1.153-3.957-.502-.75-.675-1.021-.746-1.623-.105-.884.178-1.618.136-2.976a44.85 44.85 0 0 1 0-3.112c.125-.057.241-.131.373-.203 1.27-.695 1.775-.905 2.577-2.672a3.708 3.708 0 0 0 .339-1.589c-.006-.359-.071-.706-.102-1.117-.033-.432-.206-.689-.339-1.014-.141-.344-.352-.605-.611-.913-.837-1-1.93-1.226-2.949-1.59-1.61-.575-2.718-.47-4.476-.609-1.815-.142-2.829-.17-4.646-.067-2.177.124-3.394.562-5.561.812-2.078.24-3.23.4-5.323.439-2.453.046-4.796-.497-6.273-.372-2.66.227-2.705.825-6.715 1.151a72.46 72.46 0 0 1-4.17.202l-2.34-.743c.93-.332 1.158-.529 1.595-1.116.294-.396.252-.735.61-1.151.288-.337.48-.673.846-1.049a2.382 2.382 0 0 0-1.017-.472c-.394-.083-.621-.046-1.016 0-.536.06-.838.134-1.323.372-.391.191-.677.386-.916.642 0 0-1.394-.896-2.373-1.319-1.214-.524-1.736-.77-3.255-.981Zm2.136 12.885h.068c-.013.011-.021.024-.033.034l-.035-.034Z"/><path fill="none" stroke="#FEDF00" stroke-linecap="round" stroke-miterlimit="8" stroke-width="1.06499" d="m641.5 428.565-.802.274c-.911.453-1.658.471-2.732.559-2.778.227-4.489-1.19-7.354-.954-1.475.122-2.128 1.34-3.636 1.743a9.135 9.135 0 0 1-1.787.317l.538-1.164s-1.349.295-2.223.297a7.412 7.412 0 0 1-1.6-.146l1.07-1.069s-.856-.15-1.36-.378a4.07 4.07 0 0 1-1.114-.71c.597-.105 1.19-.238 1.776-.397 1.635-.433 2.144-1.291 4.088-1.491 1.208-.125 3.186-.052 8.031.807 3.191.565 4.605.3 5.818-.291.798-.388 1.061-1.136 1.159-2.012.097-.874-.425-1.58-.919-2.037-.129-.12-.466-.377-1.169-.409"/><path fill="#FCD900" fill-rule="evenodd" stroke="#FEDF00" stroke-miterlimit="8" stroke-width="0.553491" d="M594.367 418.53c-.682-.076-1.137.012-1.724.335-.618.342-.696.804-1.143 1.317.573.115.9.416 1.47.293.446-.097.678-.274.979-.585.407-.418.556-.779.551-1.333l-.133-.027Z"/><path fill="none" stroke="#FEDF00" stroke-linecap="round" stroke-miterlimit="8" stroke-width="1.06499" d="M606.017 432.747s.28.553.432.921c.263.638.398 1.011.555 1.689.212.92.121 1.478.255 2.415.024.164.053.303.082.433l-.053 1.299m7.212-8s-.232.935-.375 1.535c-.374 1.557-.717 2.402-1.001 3.982-.048.265-.083.509-.11.742m-11.514-4.578c.838.202.577 3.867 1.897 4.708"/><path fill="none" stroke="#FEDF00" stroke-miterlimit="8" stroke-width="1.06499" d="m632.5 439.504.375-.245c.983-.404 1.876-1 2.625-1.755"/><path fill="none" stroke="#FEDF00" stroke-linecap="round" stroke-miterlimit="8" stroke-width="1.06499" d="M623.5 437.504h.008c4.192-.923 6.982-2.769 8.992-3"/><path fill="none" stroke="#FEDF00" stroke-linecap="round" stroke-miterlimit="8" stroke-width="1.06499" d="M627.5 432.618c.331-.013.648-.038.92-.078 1.626-.241 1.887.788 3.02 1.443 2.058 1.193 2.325 2.647 4.766 3.851.128.063.247.123.354.178l.94.492"/><path fill="#FCD900" fill-rule="evenodd" stroke="#FEDF00" stroke-miterlimit="8" stroke-width="0.553491" d="M586.5 422.802c.307.099.494.118.809.08.38-.046.554-.35.934-.366.309-.015.529-.047.783.184.16.145.229.279.32.502.1.245.187.415.142.686-.068.417-.371.615-.702.617-.271 0-.497-.091-.623-.4a.856.856 0 0 1-.044-.572c-.325.158-.561.164-.889.024-.313-.113-.577-.385-.73-.755Z"/><path fill="#0065BD" fill-rule="evenodd" d="M593.709 432.309c-.863-.255-2.129-.889-2.129-.889.35-.269.636-.285.935-.597.422-.439.404-.847.642-1.419.233-.559.199-1.026.727-1.444.314-.248.825-.29 1.211-.178.382.122.822.431.918.824.149.604-.173.953-.266 1.564-.093.611-.317.962-.211 1.571.071.403.246.558.383.975 0 0-1.369-.159-2.21-.408Zm-1.072 1.022a.679.679 0 0 1 .669-.687.679.679 0 0 1 .691.665.677.677 0 0 1-.667.686.677.677 0 0 1-.693-.66v-.004Zm-1.907-17.76s-.097-.065-.156-.112c-.414-.333-.454-.702-.651-1.194-.186-.467-.278-.743-.341-1.241-.054-.437 0-.689 0-1.128 0-.397.044-.621 0-1.015-.043-.403-.032-.658-.227-1.016-.105-.193-.427-.362-.34-.451.102-.104.278-.022.455 0 .432.052.682.178 1.021.451.408.33.57.615.728 1.129.18.589.269.966.441 1.579.09.317.141.504.308.789.173.296.346.412.567.677l-.012.025c-.323.352-.481.581-.841.897-.331.29-.607.434-.917.616l-.036-.01Zm3.9 11.445 2.416 1.109c1.244-.683 2.68-2.069 3.788-4.215.954-1.848 1.105-2.851 1.477-4.64l-1.938-.625-.386.079c-.598 1.853-.751 2.908-1.753 4.509-.869 1.389-1.861 2.479-2.869 3.264l-.735.519Zm5.351 19.492c.39-.53.556-.872.999-1.36.494-.543.867-.755 1.421-1.237.168.016.363-.013.52.076-.029.587-.059 1.022-.195 1.658a8.995 8.995 0 0 1-.375 1.302c-.146.417-.172.687-.422 1.053-.167.243-.314.34-.516.557-.552-.798-1.44-1.395-1.432-2.05Zm35.758 1.99c.62.226.996.29 1.591.579.661.322.969.619 1.589 1.015.029.166.113.343.068.52-.575.131-1.004.222-1.657.27-.454.034-.91.034-1.364 0-.444-.025-.713.025-1.135-.113-.282-.093-.416-.207-.683-.338.621-.749.954-1.761 1.591-1.933Zm-10.573-2.195c.621.226.997.291 1.591.579.661.323.97.62 1.59 1.016.029.165.112.343.068.518-.575.132-1.004.224-1.657.271a9.133 9.133 0 0 1-1.364 0c-.444-.025-.713.026-1.135-.113-.282-.092-.416-.206-.683-.338.621-.748.953-1.761 1.59-1.933Zm-18.783 2.292c.621.226.997.29 1.591.578.661.323.97.62 1.591 1.016.028.165.111.343.068.519-.576.132-1.005.223-1.659.27-.53.039-.833.029-1.362 0-.444-.023-.714.026-1.137-.113-.281-.092-.416-.205-.682-.337.621-.749.953-1.761 1.59-1.933Zm-9.727-32.056c-.664-.299-1.138-1.124-.715-1.715.168-.236.446-.187.612-.424.206-.294.154-.547.147-.903-.007-.406-.155-.616-.227-1.015-.077-.436-.15-.685-.147-1.128.006-.675-.041-1.157.374-1.692.266-.341.715-.637.894-.658.159.146-.062.54-.036.884.039.497.142.771.312 1.24.219.606.519.871.762 1.466.225.556.433.87.454 1.467.017.491-.027.791-.227 1.241-.179.398-.325.623-.661.903a2.01 2.01 0 0 1-.862.45 1.255 1.255 0 0 1-.68-.116Z"/><path fill="none" stroke="#703D29" stroke-miterlimit="8" stroke-width="0.859948" d="M473.509 269.5h88.754v88.77h-88.754Zm98.216 0h88.755v88.77h-88.755Zm-97.882 165.758c.252 1.598.821 4.342 2.337 7.152 1.595 2.524 1.006 2.456 4.618 6.494 1.776 1.989 4.55 3.691 6.725 4.865 2.183 1.178 3.798 1.756 7.389 2.701 7.039 1.85 11.978 1.966 17.901 1.729 4.62-.185 8.147-.754 11.069-1.149 4.165-.561 7.268-.895 12.007-1.093 2.304-.098 4.481-.119 6.634 0 2.597.144 5.163.546 7.892 1.093 5.878 1.178 11.84 3.45 11.84 3.45l.015-92.7-88.77-.025v63.359s.182 3.096.343 4.124Zm186.314-.022c-.252 1.599-.821 4.342-2.336 7.152-1.596 2.524-1.007 2.456-4.617 6.494-1.778 1.988-4.552 3.692-6.727 4.865-2.183 1.178-3.797 1.756-7.388 2.7-7.04 1.851-11.979 1.968-17.9 1.731-4.621-.185-8.148-.756-11.07-1.15-4.166-.56-7.269-.895-12.007-1.093-2.304-.097-4.482-.119-6.633 0-2.599.143-5.165.547-7.894 1.093-5.878 1.179-11.916 3.45-11.916 3.45l.062-92.7 88.769-.025v63.359s-.181 3.095-.343 4.123Z"/></g></svg>