<svg xmlns="http://www.w3.org/2000/svg" width="300mm" height="150mm" viewBox="0 0 300 150"><path d="M-332.185 79.88h300v150h-300z" style="opacity:1;fill:#fff;fill-opacity:1;stroke:none;stroke-width:.26178819;stroke-linecap:square;stroke-linejoin:miter;stroke-miterlimit:4;stroke-dasharray:none;stroke-opacity:1" transform="translate(332.185 -79.88)"/><path d="M-229.375-131.7c-2.112.577-5.303 8.246-4.114 10.995.99 2.29 3.089 3.281 5.538 3.808-1.514 5.506-14.237 10.161-16.746 14.852-.181 3.467.033 10.247 6.135 11.254 13.185 2.176 25.026-10.164 29.382-24.587-3.324 3.585-12.032 12.448-16.922 15.679-5.987 3.83-11.706 3.315-15.333 1.558.868-1.402 4.72-3.81 9.98-7.443 5.26-3.632 5.77-4.602 7.283-10.084 3.052 1.152 7.388.555 8.258-.246 1.773-2.327 2.509-5.004 1.962-7.71-.929-1.965-6.53-8.79-9.277-9.388.002-2.378-6.513-5.188-7.766-2.917-.477.922 1.936 2.534 1.62 4.228zm3.988 4.117c.73 1.578.588 3.336-.304 4.264-7.818.348-4.295-5.424.304-4.264zm2.966 2.221c1.838.37 3.79 2.628 5.226 3.962-3.086.423-4.091.29-5.722-.205-.161-1.273.05-2.58.496-3.757z" style="opacity:1;fill:#000;fill-opacity:1;stroke:none;stroke-width:.86746693;stroke-linecap:square;stroke-linejoin:miter;stroke-miterlimit:4;stroke-dasharray:none;stroke-opacity:1" transform="matrix(.31849 0 0 .31765 112.946 73.444)"/><path d="M138.406 9.896c-3.848 1.202-4.743 1.722-10.188 3.97-2.91-4.983-3.654-5.31-5.097-7.071 1.355-1.644 14.005-.81 15.285 3.1zM124.47 70.97c-14.68 6.662-24.835 15.598-24.23 32.323-16.903-6.66-21.387-24.532-23.582-33.597C73.25 55.62 64.734-.693 46.41-11.278l-.443 22.313c6.346 10.606 17.272 40.78 20.953 58.22-6.476 16.03-42.635 44.92-59.25 43.966-11.857-.681-10.403-15.888-2.43-44.276-12.292 12.63-18.947 54.289-1.136 61.415 11.26 3.906 27.176-6.475 42.269-18.462 22.28-17.697 20.055-25.555 22.487-34.85 4.606 20.363 18.319 48.282 59.484 49.107l.323-15.589c-7.428-.685-20.735-11.863-20.905-15.378 4.545-6.21 28.595-19.125 64.072-27.026 4.827-7.486 8.2-11.507 10.054-15.644-8.998 1.698-41.387 2.91-49.844 3.156-24.15-.035-24.728.389-39.625-.092.959-4.118 24.324-23.012 30.791-25.532 1.183 1.718 1.61 5.55 2.422 8.878 7.334-4.604 6.08-11.714 6.224-12.293.144-.58 14.182-5.089 19.246-7.432l6.512-13.856C150.19-3.797 134.615-9.96 128.52-8.086c-19.489 5.986-12.1 18.714-9.447 26.624C99.885 35.726 77.37 41.583 76.706 72.8c8.045-2.056 36.463-1.512 47.763-1.83zM-30.57-13.59l-2.68-.002C-41.258-1.02-43.8 9.738-55.51 12.52c-8.877 2.109-18.38-.474-14.67-23.036-10.63-2.56-38.394 13.912-46.146 15.768-2.273-12.667-9.4-19.795-16.767-24.179-23.845-14.19-36.793 44.224-15.185 44.848 8.224.237 10.907.151 23.625.021 1.79 3.141 5.502 10.567 4.47 16.343-11.525 16.622-43.355 41.835-64.063 39.32-23.92-2.904-37-19.321-26.227-59.07l-1.162-.01c-4.678 12.294-25.655 65.24 18.101 77.542 18.566 3.464 50.34-4.038 75.584-39.612 5.785-8.151 5.673-26.979 5.134-36.85 17.041-5.337 23.92-13.013 32.15-15.906 1.823 21.51 14.39 24.733 21.067 24.494 14.141-.507 21.324-13.721 24.214-20.075 1.949 7.757 8.74 13.325 17.597 11.715 18.26-3.32 24.18-34.15 13.406-47.077l-7.7 15.526c9.051 12.607 2.046 13.431-1.95 14.386C-26.412 9.623-29.688-3.765-30.57-13.594zM-131.668 7.316c-6.924.602-13.576.54-18.481.111-1.117-2.295 1.004-8.068 4.652-9.387 4.542-1.642 10.126 2.307 13.83 9.276zM21.82-130.305c11.235 6.789 23.892 25.426 9.794 53.313l-1.686.003c.984-8.8 7.578-25.408-8.166-38.803z" style="opacity:1;fill:#000;fill-opacity:1;stroke:none;stroke-width:.76666099;stroke-linecap:square;stroke-linejoin:miter;stroke-miterlimit:4;stroke-dasharray:none;stroke-opacity:1" transform="matrix(.31849 0 0 .31765 112.946 73.444)"/><path d="m40.437 14.724-.193 4.811-10.058-4.019c6.472 13.992 13.598 24.84 10.766 41.964-3.08 18.625-59.855 59.301-79.985 64.656-16.194 4.307-37.648 4.594-60.575 4.89C-52.355 115.749 6.5 81.066 37.194 52.956c-4.92-6.259-14.4-19.467-16.078-31.486-3.964-7.445-7.202-12.947-7.202-12.947l2.857-17.528z" style="opacity:1;fill:#000;fill-opacity:1;stroke:none;stroke-width:.76666099;stroke-linecap:square;stroke-linejoin:miter;stroke-miterlimit:4;stroke-dasharray:none;stroke-opacity:1" transform="matrix(.31849 0 0 .31765 112.946 73.444)"/><path d="M396.627 98.278c.26 4.745 10.053 6.323 17.693-1.08.877-.241 2.62-.242 3.573-.355-1.299 6.46-9.628 10.937-12.124 12.506-3.92 2.463-9.42 6.833-14.909 8.295l.075-4.154c1.426-1.017 2.374-1.683 4.74-3.739-6.49-3.404-6.629-7.449-5.218-10.267 3.88-7.75 12.302-16.358 19.227-10.962.852 4.155-2.136 11.861-6.355 5.984-2.984.22-6.178 1.843-6.702 3.772z" style="opacity:1;fill:#000;fill-opacity:1;stroke:none;stroke-width:1.2934202;stroke-linecap:square;stroke-linejoin:miter;stroke-miterlimit:4;stroke-dasharray:none;stroke-opacity:1" transform="matrix(.31849 0 0 .31765 112.946 73.444)"/><path d="M139.208-119.197c-1.864-1.607-9.924-.424-12.701-1.127.086-3.863 1.088-8.112 5.58-10.861 6.558-1.884 18.972 2.037 20.598 4.243 1.626 2.207-4.581 9.307-7.413 11.005-9.801 5.876-16.018 6.686-19.134 7.152-1.433-.395-2.783-1.055-4.134-1.675 8.076-2.047 17.01-6.758 17.204-8.737zM169.571 94.739c-4.579-.108-9.177 14.86-23.28 27.72-15.477 12.492-23.18 15.212-35.791 20.82 22.005-1.222 43.257-13.523 51.372-34.035 1.816 1.55 7.06 4.549 10.521 3.223 7.035-8.985-1.03-17.686-2.822-17.728zm1.714 10.927c-.47.29-4.173-1.07-5.482-2.301.256-1.24 1.871-2.076 2.858-1.703 2.716 1.87 3.634 3.124 2.624 4.004zM-167.574 16.753c-10.827-4.26-13.756 19.14-16.868 31.25-6.296-18.11-13.446-18.959-17.04-17.392-13.678 6.113 1.647 28.004 8.87 14.925 2.306 2.758 3.878 8.034 9.775 19.116 2.014-14.896 4.107-39.443 15.176-29.405 7.146-7.611 2.854-17.265.088-18.494z" style="opacity:1;fill:#000;fill-opacity:1;stroke:none;stroke-width:.76666099;stroke-linecap:square;stroke-linejoin:miter;stroke-miterlimit:4;stroke-dasharray:none;stroke-opacity:1" transform="matrix(.31849 0 0 .31765 112.946 73.444)"/><path d="M-200.01-32.85c-2.36-.188-5.42 4.043-6.968 9.124-1.714 5.627-2.249 8.908 7.99 14.815-7.44 17.485-35.947 36.295-42.85 40.973 24.175-2.096 44.35-27.456 46.046-38.436 2.869 2.517 5.304 2.724 4.282 12.578 1.196-1.854 4.725-5.42 3.52-12.223-2.193-7.352-4.81-7.352-6.057-9.349 1.05-6.811-.777-17.069-5.965-17.482zm1.864 14.532c-.68-.515-4.54-3.589-5.524-5.278.73-1.81 3.137-1.586 4.39-.667 1.251.919 1.222 5.8 1.135 5.945z" style="opacity:1;fill:#000;fill-opacity:1;stroke:none;stroke-width:.9153204;stroke-linecap:square;stroke-linejoin:miter;stroke-miterlimit:4;stroke-dasharray:none;stroke-opacity:1" transform="matrix(.31849 0 0 .31765 112.946 73.444)"/><path d="M69.287-115.36c1.338.592-1.77 12.84 2.85 12.562 4.28-.64 1.701-7.832 1.386-11.468.643-1.44 1.345-2.477 2.278-3.283.968 1.396 1.349 2.418 2.254 4.463-.036 1.553-1.095 7.469 2.625 7.99 3.7.291.454-7.385.247-9.98.63-2.394 2.25-4.154 2.25-4.154 7.565 20.987-1.648 24.306-7.173 18.359-2.78 5.046-4.56 4.733-5.893 4.697-5.34-.141-3.832-10.567-4.209-10.825-.906.504-1.493 1.013-2.372 2.088l-.166-2.983z" style="opacity:1;fill:#000;fill-opacity:1;stroke:none;stroke-width:.59555686;stroke-linecap:square;stroke-linejoin:miter;stroke-miterlimit:4;stroke-dasharray:none;stroke-opacity:1" transform="matrix(.31849 0 0 .31765 112.946 73.444)"/><path d="m-126.958-131.09-6.126 16.219 4.979 16.997 24.483 160.357c-6.826 9.276-43.416 52.952-83.155 49.9-62.885-4.828-33.663-76.986-34.406-83.673l-.75-.024c-34.545 77.06 6.885 102.645 33.281 103.5 35.05 1.136 66.922-21.239 86.55-50.687 12.418-21.43.424-76.634-3.03-98.62-3.206-23.472-8.185-52.27-12.492-78.6 3.516 2.45 7.351 4.066 7.351 4.066v-5.134z" style="fill:#000;fill-opacity:1;stroke:none;stroke-width:.92405963px;stroke-linecap:butt;stroke-linejoin:miter;stroke-opacity:1" transform="matrix(.31849 0 0 .31765 112.946 73.444)"/><path d="m184.092-90.687-7.175-6.693C179.79-77.424 186.3-33.776 193.04 8.18c1.102 13.566 17.223 77.817.646 91.624C195.133 74.027 178.703-7.455 173.9-44.89c-.805-6.72-7.91-56.459-12.101-70.581l5.03-17.77 17.262 35.728z" style="opacity:1;fill:#000;fill-opacity:1;stroke:none;stroke-width:.76666099;stroke-linecap:square;stroke-linejoin:miter;stroke-miterlimit:4;stroke-dasharray:none;stroke-opacity:1" transform="matrix(.31849 0 0 .31765 112.946 73.444)"/><path d="M155.287-73.571 144-74.592c21.774 26.594 34.905 42.873 67.164 77.831 31.424 34.054 37.985 40.971 32.757 69.907-2.882-26.028-19.826-34.433-50.744-69.43-4.226-5.138-43.056-46.05-70.775-88.63l2.556-18.162 30.234 25.885zM301.502-88.47l-7.174-6.691C297.2-75.206 303.896-32.4 310.046 9.646c7.545 51.583 20.182 99.769 7.441 125.388-4.323-39.812-13.621-91.467-18.727-128.904-.804-6.72-15.197-104.036-19.551-119.383l5.03-17.77 17.263 35.728zM411.93-88.43l-7.175-6.692c2.872 19.955 8.602 63.425 15.777 105.674 6.914 40.715 6.278 55.464.054 74.917-4.86-34.746-13.236-88.483-19.137-128.217-.804-6.72-7.4-54.425-11.754-69.772l4.741-18.983 17.493 36.248z" style="opacity:1;fill:#000;fill-opacity:1;stroke:none;stroke-width:.76666099;stroke-linecap:square;stroke-linejoin:miter;stroke-miterlimit:4;stroke-dasharray:none;stroke-opacity:1" transform="matrix(.31849 0 0 .31765 112.946 73.444)"/><path d="m247.732-89.116-6.943-6.375c4.835 33.008 9.348 62.81 16.18 104.75 3.398 20.853 10.34 64.93-14.153 91.285-21.591 23.232-49.237 25.575-64.601 25.963 25.636-14.787 71.966-37 75.07-66.481-1.706-20.748-10.537-67.21-15.803-103.836-.804-6.72-7.574-52.548-11.696-68.935l4.857-18.491 17.089 36.276zM342.816-101.418l-10.633-1.102c30.62 37.023 62.513 70.425 94.35 104.839 31.819 32.929 39.979 45.026 33.778 70.588 1.528-23.745-49.356-63.948-77.237-97.119-30.116-34.705-44.526-47.521-72.816-88.386l2.066-17.834c9.312 5.564 30.56 25.231 30.56 25.231zM342.906-6.454c11.235 6.788 23.892 25.425 9.794 53.312l-1.686.003c.984-8.8 7.578-25.407-8.166-38.802zM429.182-70.81c11.235 6.788 23.892 25.425 9.794 53.312l-1.686.003c.984-8.8 7.577-25.408-8.166-38.803zM-175.9-127.51c11.234 6.789 23.892 25.426 9.794 53.313l-1.686.002c.983-8.8 7.577-25.407-8.167-38.802zM206.383-119.005c-1.864-1.607-9.924-.424-12.702-1.127.087-3.863 1.089-8.112 5.58-10.861 6.559-1.884 18.972 2.037 20.599 4.243 1.626 2.207-4.581 9.307-7.413 11.005-9.801 5.876-16.019 6.686-19.135 7.153-1.432-.395-2.782-1.056-4.133-1.676 8.076-2.047 17.009-6.758 17.204-8.737zM263.905-119.352c-1.863-1.607-9.924-.424-12.7-1.127.086-3.862 1.087-8.111 5.579-10.86 6.558-1.885 18.972 2.036 20.598 4.243 1.627 2.206-4.58 9.306-7.412 11.004-9.802 5.877-16.019 6.686-19.135 7.153-1.432-.395-2.783-1.056-4.133-1.675 8.076-2.047 17.009-6.759 17.203-8.738zM424.692-119.005c-1.864-1.607-9.924-.424-12.701-1.127.086-3.863 1.088-8.112 5.58-10.861 6.558-1.884 18.972 2.037 20.598 4.243 1.626 2.207-4.581 9.307-7.413 11.005-9.801 5.876-16.019 6.686-19.135 7.153-1.432-.395-2.782-1.056-4.133-1.676 8.076-2.047 17.01-6.758 17.204-8.737zM-226.297-2.534c-1.863-1.607-9.924-.424-12.701-1.127.086-3.862 1.088-8.111 5.58-10.86 6.558-1.885 18.972 2.036 20.598 4.243 1.626 2.206-4.581 9.306-7.413 11.004-9.8 5.877-16.018 6.686-19.134 7.153-1.432-.395-2.783-1.056-4.134-1.675 8.077-2.047 17.01-6.759 17.204-8.738z" style="opacity:1;fill:#000;fill-opacity:1;stroke:none;stroke-width:.76666099;stroke-linecap:square;stroke-linejoin:miter;stroke-miterlimit:4;stroke-dasharray:none;stroke-opacity:1" transform="matrix(.31849 0 0 .31765 112.946 73.444)"/><path d="M-107.456-134.277c4.349 6.737 11.84 16.255 16.005 23.723.058 1.965-.171 3.205-.08 5.022-7.381-4.262-2.013-1.21-6.553-3.7 5.349 10.577 16.311 34.378 15.006 49.272-1.724 19.668-22.817 34.326-43.515 25.248-10.977-4.813-15.222-21.784-15.222-21.784s-2.336 8.765-4.722 14.305c-5.835 13.546-31.829 23.072-44.997 8.32-18.368-20.576-4.068-47.2-8.332-57.55-15.279 29.519-6.897 63.134-26.663 63.332-10.774-1.5-24.315-31.927-13.726-60.745-.95 20.521 2.176 43.745 13.994 44.259 2.894.126 4.551-2.487 7.763-9.697 6.919-17.597 8.192-49.95 29.557-60.122 1.506 9.581-.063 23.505-2.365 36.188-3.111 17.138 5.06 38.324 26.445 32.03 3.96-1.167 9.81-3.737 17.923-18.355 2.912-10.916-4.56-33.66-6.828-48.818 1.337-3.385 3.944-11.343 5.745-14.181 1.684 1.625 6.595 11.013 6.745 12.768 2.902 16.179 3.52 52.623 18.606 62.968 7.99 5.479 28.16 1.228 34.062-7.642-4.673-7.243-18.193-33.715-19.558-51.044-.536-3.21-2.35-7.216-2.79-8.631zM464.4-88.692l-6.944-6.375c4.836 33.008 9.348 62.81 16.18 104.75 3.398 20.853 11.092 66.575-14.438 91.927-20.165 20.025-40.685 23.65-65.527 25.107 23.854-12.934 73.249-37.214 76.281-66.268-1.705-20.748-10.537-67.208-15.802-103.835-.804-6.72-7.574-52.548-11.697-68.935l4.858-18.492 17.088 36.277zM376.62-89.02l-6.943-6.374c4.835 33.008 8.94 61.585 15.772 103.525 3.397 20.853 9.513 51.715 3.008 68.428-6.071 15.598-10.602 28.806-31.255 30.077-31.647 1.948-25.875-42.576-44.615-42.173-29.7.638-39.139 80.75-56.435 82.077-22.618 1.298-38.196-47.098-23.86-77.016-3.619 31.415 6.327 57.226 19.977 57.595 18.882.51 26.883-83.36 65.39-82.164 18.316.569 12.097 42.147 40.97 43.035 12.547.386 22.468-8.417 23.611-16.711-1.705-20.748-10.686-75.099-15.952-111.725-.804-6.72-7.492-55.816-11.615-72.202l4.858-18.492 17.088 36.276z" style="opacity:1;fill:#000;fill-opacity:1;stroke:none;stroke-width:.76666099;stroke-linecap:square;stroke-linejoin:miter;stroke-miterlimit:4;stroke-dasharray:none;stroke-opacity:1" transform="matrix(.31849 0 0 .31765 112.946 73.444)"/><path d="M-13.598-130.271c-2.266-.119-5.853 6.41-5.452 8.927.423 2.66 1.01 2.914 3.082 3.674-15.828 15.53-22.306 14.296-38.319 19.56 29.266 2.48 37.525-12.666 41.453-18.119 2.522 1.38 7.837 1.925 8.694 1.332 1.832-1.812 2.809-4.101 2.663-6.53-.569-1.828-4.273-8.376-6.597-9.235.293-2.075-5.047-5.325-6.419-3.498-.53.747 1.38 2.449.895 3.888zm2.975 4.081c.444 1.467.104 2.983-.788 3.684-6.864-.655-3.083-5.26.788-3.684zm2.315 2.302c1.559.549 2.578 2.595 3.666 3.934-2.744-.009-3.197-.083-4.559-.717.012-1.13.36-2.244.893-3.217z" style="opacity:1;fill:#000;fill-opacity:1;stroke:none;stroke-width:.76431906;stroke-linecap:square;stroke-linejoin:miter;stroke-miterlimit:4;stroke-dasharray:none;stroke-opacity:1" transform="matrix(.31849 0 0 .31765 112.946 73.444)"/><path d="M131.25-54.826c-1.93-.153-4.434 3.307-5.7 7.464-1.402 4.602-1.84 7.286 6.536 12.118 1.515 6.644-22.766 23.63-30.892 28.834 22.697-4.3 30.242-16.49 33.506-26.759 2.346 2.059 4.338 2.228 3.502 10.289.979-1.517 3.865-4.433 2.88-9.999-1.794-6.014-3.935-6.014-4.955-7.647.86-5.571-.635-13.962-4.879-14.3zm1.525 11.887c-.557-.421-3.715-2.936-4.519-4.317.597-1.48 2.566-1.297 3.59-.546 1.025.752 1 4.744.929 4.863z" style="opacity:1;fill:#000;fill-opacity:1;stroke:none;stroke-width:.74871653;stroke-linecap:square;stroke-linejoin:miter;stroke-miterlimit:4;stroke-dasharray:none;stroke-opacity:1" transform="matrix(.31849 0 0 .31765 112.946 73.444)"/><path d="M77.048.084c1.202 1.218-2.085 15.13 3.358 14.803 5.043-.754 2.005-9.228 1.633-13.513.759-1.697 1.586-2.919 2.685-3.868 1.14 1.644 1.589 2.85 2.655 5.258-.04 1.831-1.29 8.801 3.094 9.416 4.36.343.534-8.702.29-11.76.743-2.821 2.912-5.068 2.912-5.068 8.913 24.73-2.03 29.13-8.54 22.123-3.275 5.946-5.373 5.577-6.943 5.535-6.292-.167-4.689-12.769-5.133-13.073-1.067.594-1.816 1.57-2.852 2.835l.15-4.41zM200.624-79.595c1.2 1.218-2.086 15.13 3.357 14.803 5.043-.754 2.005-9.228 1.633-13.513.76-1.698 1.586-2.919 2.685-3.868 1.14 1.644 1.59 2.85 2.656 5.258-.042 1.83-1.29 8.801 3.093 9.416 4.36.343.535-8.702.29-11.76.744-2.821 2.913-5.068 2.913-5.068 8.912 24.73-2.03 29.13-8.54 22.123-3.275 5.946-5.374 5.577-6.944 5.535-6.291-.167-4.689-12.769-5.133-13.073-1.067.594-1.816 1.569-2.852 2.835l.151-4.41z" style="opacity:1;fill:#000;fill-opacity:1;stroke:none;stroke-width:.7017433;stroke-linecap:square;stroke-linejoin:miter;stroke-miterlimit:4;stroke-dasharray:none;stroke-opacity:1" transform="matrix(.31849 0 0 .31765 112.946 73.444)"/><path d="m-57.511-91.89-7.175-6.691c2.872 19.955 9.383 63.603 16.123 105.558 1.102 13.566 17.223 77.817.646 91.624C-46.47 72.825-62.9-8.657-67.703-46.092c-.805-6.72-7.91-56.459-12.101-70.581l5.03-17.77 17.262 35.728zM92.636-134.284c4.349 6.737 11.84 16.255 16.005 23.723.058 1.965-.171 3.205-.08 5.022-7.382-4.262-2.013-1.21-6.553-3.7 5.348 10.577 16.31 34.378 15.005 49.272-1.723 19.668-22.816 34.326-43.515 25.248-10.976-4.813-15.221-21.784-15.221-21.784s-2.336 8.765-4.723 14.305c-5.834 13.546-31.828 23.072-44.996 8.32-18.369-20.576-4.069-47.2-8.332-57.55-15.279 29.519-6.897 63.134-26.663 63.332-10.775-1.5-24.256-29.25-13.524-63.768-.95 20.52 1.973 46.768 13.792 47.282 2.894.126 4.55-2.486 7.762-9.697 6.92-17.597 8.192-49.95 29.557-60.122 1.507 9.581-.063 23.505-2.365 36.188-3.11 17.138 5.06 38.324 26.445 32.03 3.961-1.167 9.81-3.737 17.923-18.355 2.913-10.916-4.559-33.66-6.828-48.818 1.338-3.385 3.945-11.343 5.746-14.181 1.684 1.625 6.595 11.013 6.744 12.768 2.902 16.179 3.52 52.623 18.606 62.968 7.99 5.479 28.161 1.228 34.063-7.642-4.673-7.243-18.193-33.715-19.558-51.044-.536-3.21-2.35-7.216-2.79-8.631z" style="opacity:1;fill:#000;fill-opacity:1;stroke:none;stroke-width:.76666099;stroke-linecap:square;stroke-linejoin:miter;stroke-miterlimit:4;stroke-dasharray:none;stroke-opacity:1" transform="matrix(.31849 0 0 .31765 112.946 73.444)"/><path d="M163.79 45.752c-16.751-1.868 5.54-38.927 14.734-39.797-13.62 15.864-12.808 21.611-12.761 23.74.054 2.436 2.807 5.925 6.371 2.194l1.312.874c-.29 1.234-3.21 13.708-9.655 12.99zM217.69-6.929c-16.753-1.868 5.538-38.927 14.732-39.796-13.62 15.863-12.807 21.61-12.76 23.739.053 2.436 2.806 5.926 6.37 2.194l1.312.874c-.29 1.234-3.21 13.708-9.655 12.99z" style="opacity:1;fill:#000;fill-opacity:1;stroke:none;stroke-width:.64611804;stroke-linecap:square;stroke-linejoin:miter;stroke-miterlimit:4;stroke-dasharray:none;stroke-opacity:1" transform="matrix(.31849 0 0 .31765 112.946 73.444)"/><path d="M263.993-25.22c-20.15-2.247 6.663-46.824 17.722-47.87-16.383 19.082-15.406 25.996-15.35 28.555.065 2.931 3.376 7.129 7.664 2.64l1.578 1.051c-.35 1.485-3.861 16.49-11.614 15.625zM275.207 50.4c-20.15-2.248 6.663-46.825 17.722-47.87-16.383 19.08-15.406 25.994-15.35 28.554.065 2.931 3.376 7.128 7.664 2.64l1.578 1.051c-.35 1.485-3.861 16.49-11.614 15.624zM323.293-13.004c-20.151-2.247 6.663-46.824 17.721-47.87-16.383 19.082-15.405 25.995-15.35 28.555.065 2.93 3.377 7.128 7.665 2.64l1.577 1.05c-.35 1.486-3.86 16.49-11.613 15.625zM290.218 136.734c-20.15-2.248 6.663-46.825 17.722-47.87-16.384 19.081-15.406 25.995-15.35 28.555.065 2.93 3.376 7.128 7.664 2.64l1.577 1.05c-.349 1.485-3.86 16.49-11.613 15.625zM-18.077 72.79c-20.151-2.248 6.663-46.825 17.721-47.87C-16.739 44-15.76 50.915-15.706 53.474c.065 2.931 3.377 7.129 7.665 2.64l1.577 1.051c-.35 1.485-3.86 16.49-11.613 15.625z" style="opacity:1;fill:#000;fill-opacity:1;stroke:none;stroke-width:.77718991;stroke-linecap:square;stroke-linejoin:miter;stroke-miterlimit:4;stroke-dasharray:none;stroke-opacity:1" transform="matrix(.31849 0 0 .31765 112.946 73.444)"/><path d="M58.974 140.518c-16.753-1.869 5.539-38.928 14.733-39.797-13.62 15.864-12.808 21.611-12.761 23.74.053 2.436 2.806 5.925 6.371 2.194l1.311.874c-.29 1.234-3.21 13.708-9.654 12.989zM-117.023 141.52c-16.753-1.868 5.539-38.927 14.733-39.797-13.62 15.864-12.808 21.611-12.761 23.74.053 2.436 2.806 5.925 6.371 2.194l1.311.874c-.29 1.234-3.21 13.708-9.654 12.99z" style="opacity:1;fill:#000;fill-opacity:1;stroke:none;stroke-width:.64611804;stroke-linecap:square;stroke-linejoin:miter;stroke-miterlimit:4;stroke-dasharray:none;stroke-opacity:1" transform="matrix(.31849 0 0 .31765 112.946 73.444)"/><path d="M-83.925 107.232c-22.908-2.555 7.574-53.23 20.146-54.419-18.625 21.692-17.513 29.551-17.45 32.461.073 3.332 3.838 8.104 8.713 3.001l1.793 1.195c-.397 1.688-4.389 18.745-13.202 17.762z" style="opacity:1;fill:#000;fill-opacity:1;stroke:none;stroke-width:.88351351;stroke-linecap:square;stroke-linejoin:miter;stroke-miterlimit:4;stroke-dasharray:none;stroke-opacity:1" transform="matrix(.31849 0 0 .31765 112.946 73.444)"/></svg>