<svg xmlns="http://www.w3.org/2000/svg" width="1060" height="758" overflow="hidden"><defs><clipPath id="a"><path d="M37-1h1060v758H37z"/></clipPath></defs><g fill-rule="evenodd" clip-path="url(#a)" transform="translate(-37 1)"><path fill="red" d="M1096 0H38v756h1058Z"/><path d="M595.678 570.649c-6.653-5.755-14.718-17.41-14.604-28.644.595-8.377 6.353-13.244 10.073-3.018 5.26 11.287 16.54 29.952 32.085 19.002 6.792-4.973 6.686-12.296-2.626-11.456-11.499-.786-18.563-7.099-23.709-23.354-.936-8.939 2.791-8.716 7.991-2.965 6.685 7.653 19.989 19.22 34.666 13.021 8.156-3.411 10.458-10.449-1.864-12.181-11.666.169-21.188-7.377-30.668-18.887-5.198-6.369 2.469-12.797 7.072-7.377 4.105 3.519 9.854 10.002 14.782 10.896 5.697 1.116 12.76.561 20.586-3.573 8.435-7.045 5.696-12.128-4.544-13.298-7.938.393-12.261 3.403-22.5-3.411-18.405-12.413-33.037-28.998-35.323-48.947-1.502-13.121 5.569-17.094 11.447-15.584 15.989 4.104 26.448 33.917 37.51 50.294 3.622 4.72 6.95 4.797 9.303 3.342 4.438-3.796 7.982-6.917 12.419-11.161 0 0 32.545 5.835 50.268 11.599l-19.734 6.998c-7.472-4.117-16.489.321-16.489 7.464-7.071 4.878-6.502 10.598-3.451 16.118.93-3.844 1.724-8.836 7.309-9.5 7.972 3.29 17.26-1.405 17.26-7.617l23.278-9.129 23.518 13.285c0 8.98 8.527 11.825 17.4 9.401 4.181 2.591 6.869 7.085 8.285 11.892 2.618-6.932 2.072-11.826-2.028-15.227 2.353-8.962-10.234-17.58-19.977-11.841l-16.919-9.693 28.959-.809c3.361 5.936 15.509 6.263 19.053 0 3.029-.828 5.589-1.355 11.494 3.025-1.861-7.087-5.482-10.117-10.915-10.117-4.128-7.298-19.067-7.264-21.224.952l-30.161.837 17.896-12.713c6.68 3.935 16.053-.44 17.93-7.588 2.663-3.16 5.948-4.644 12.412-2.5-3.332-5.888-8.027-7.645-16.505-3.649-7.735-5.848-17.93 1.245-16.383 7.133l-23.809 16.164c-17.283-5.146-48.582-13.158-48.582-13.158 3.726-3.912 7.507-7.546 11.227-11.511 1.344-2.323-.709-5.028-3.562-5.592-27.927-5.751-43.916-16.984-53.605-45.535-4.052-11.957 4.709-15.53 7.72-8.216 4.165 10.172 8.76 21.29 21.3 29.899 4.325 3.018 17.199.554 9.584-6.653-7.886-6.483-11.28-9.27-15.166-25.031 0-7.985 8.156-11.566 12.706-3.912 4.868 15.7 5.366 22.46 14.179 32.576 6.678 7.655 15.386 12.798 19.71 12.683 7.78-.108 15.612-8.495 5.206-14.584-15.28-6.09-20.864-14.413-23.113-22.352-2.46-13.851.227-20.558 8.603-13.744 11.877 13.467 34.551 38.553 46.429 50.233 13.311 10.172 28.583 10.502 40.739.169 6.958-7.992 4.489-16.592-6.405-14.752-24.584 2.071-43.2-10.11-63.626-43.026-3.999-7.43-5.095-18.102 3.726-10.163 10.18 13.743 25.022 25.423 38.825 30.451 13.853 4.967 25.292 2.224 29.728-2.124 5.347-5.334 3.941-18.773-5.312-15.532-7.613 2.681-18.343 3.35-29.51-.954-11.176-4.358-22.782-13.743-35.103-29.666-4.219-8.994-2.845-16.594 5.695-11.96 20.208 17.103 46.273 30.955 59.575 22.631 9.803-6.09 9.969-21.736-2.46-20.728-25.029 3.403-34.498-2.124-58.54-23.299-5.471-4.081-5.092-14.421 3.614-7.823 20.207 13.021 47.803 18.101 58.646 11.288 9.75-6.091 8.323-24.701-8.103-18.11-13.145 7.992-27.656 7.769-56.73-12.959-7.334-6.09-1.864-14.028 4.158-10.617 23.385 13.298 57.446 18.994 66.313-8.046 3.448-10.334-2.791-16.37-11.938-9.218-20.095 18.549-42.876 9.44-55.627.108-3.652-2.148-10.353-13.02 1.417-11.002 30.448 6.929 60.563.893 66.041-20.62 3.178-6.984-3.072-19.334-14.185-8.993-14.617 14.414-30.116 14.914-49.606 14.806-9.916-2.071-10.021-12.966-1.699-14.583 15.386.33 30.554-6.376 42.711-13.19 11.884-6.814 21.739-16.37 24.863-29.613 1.915-11.843-9.53-24.415-16.428-11.843-10.187 18.38-32.748 35.704-57.831 38.831-1.306-2.18-4.595-7.769-8.648-6.199-7.364 2.85-16.139 6.662-25.174 10.944-19.476 9.228-27.593 13.675-25.254 29.618 2.441 16.637-10.413 27.15-21.03 24.246-9.26-2.486-14.368-10.832-12.708-25.308 1.329-11.534 12.934-25.486 26.012-32.802 8.466-4.728 21.248-7.314 36.634-10.725 9.364-1.84 14.133-5.475 14.677-9.278 0 0-6.401 4.673-16.646 3.972-4.844-.346-8.089-2.472-9.312-4.642 3.562-.723 10.022.116 15.824.116 7.719-.062 25.64-1.787 30.395-12.629 1.478-7.152-3.232-8.437-7.614-3.857-4.709 4.952-6.648 9.402-16.096 11.064-5.749 1.009-11.5 2.18-18.895.394 4.165-4.936 10.783-9.986 16.428-9.056 1.856.309 4.324 2.018 6.3 5.09 1.208-7.823-.935-16.654-21.905-12.966.333-5.921-12.157-8.493-19.656-8.377-4.271.108-12.979 2.626-19.273 5.636-9.967 3.08-19.822 5.313-31.436 6.153 6.74 5.751 8 6.09 14.729 10.948-10.179 3.796-18.065 11.619-21.625 16.763 0 0 11.884-.332 14.896 1.008-12.436 3.627-18.021 5.806-24.592 12.512 2.301.393 5.748 1.062 7.228 1.625 1.54.554 1.139 1.563-.106 2.51-2.678 2.04-13.747 14.868-16.977 17.94-3.23-3.072-14.299-15.9-16.977-17.94-1.245-.947-1.645-1.956-.106-2.51 1.479-.562 4.927-1.232 7.228-1.625-6.571-6.706-12.156-8.885-24.591-12.512 3.011-1.34 14.895-1.008 14.895-1.008-3.562-5.144-11.447-12.967-21.626-16.763 6.731-4.858 7.991-5.197 14.729-10.949-11.613-.839-21.468-3.072-31.436-6.153-6.293-3.009-15.001-5.527-19.272-5.635-7.5-.116-19.989 2.456-19.655 8.376-20.97-3.687-23.113 5.144-21.906 12.967 1.976-3.072 4.444-4.781 6.3-5.089 5.645-.931 12.262 4.119 16.428 9.055-7.395 1.786-13.146.615-18.895-.393-9.447-1.662-11.387-6.113-16.097-11.063-4.382-4.582-9.091-3.297-7.612 3.856 4.754 10.841 22.673 12.566 30.394 12.628 5.802 0 12.262-.84 15.824-.116-1.222 2.172-4.468 4.296-9.312 4.642-10.246.701-16.646-3.972-16.646-3.972.544 3.803 5.311 7.437 14.677 9.278 15.386 3.411 28.168 5.998 36.634 10.726 13.078 7.315 24.683 21.267 26.011 32.801 1.66 14.475-3.448 22.822-12.707 25.308-10.617 2.904-23.471-7.609-21.03-24.246 2.339-15.943-5.777-20.39-25.253-29.618-9.035-4.282-17.811-8.095-25.175-10.945-4.053-1.569-7.342 4.021-8.648 6.2-25.083-3.127-47.644-20.451-57.831-38.831-6.897-12.572-18.344 0-16.428 11.843 3.124 13.244 12.979 22.799 24.864 29.613 12.156 6.814 27.324 13.52 42.71 13.19 8.322 1.617 8.217 12.512-1.699 14.583-19.491.108-34.989-.392-49.606-14.806-11.114-10.341-17.362 2.009-14.185 8.993 5.478 21.512 35.593 27.549 66.04 20.62 11.77-2.019 5.071 8.855 1.418 11.003-12.751 9.331-35.532 18.44-55.627-.108-9.145-7.153-15.387-1.117-11.937 9.217 8.866 27.04 42.927 21.344 66.312 8.046 6.022-3.411 11.493 4.527 4.158 10.617-29.074 20.728-43.584 20.951-56.73 12.959-16.426-6.591-17.853 12.019-8.103 18.11 10.842 6.815 38.438 1.733 58.645-11.288 8.709-6.598 9.085 3.742 3.614 7.823-24.04 21.175-33.51 26.702-58.539 23.299-12.429-1.008-12.263 14.636-2.46 20.728 13.302 8.323 39.365-5.528 59.573-22.63 8.542-4.635 9.915 2.965 5.698 11.959-12.322 15.923-23.929 25.308-35.104 29.666-11.167 4.304-21.897 3.635-29.51.955-9.253-3.242-10.659 10.197-5.313 15.531 4.439 4.348 15.876 7.091 29.73 2.124 13.801-5.028 28.644-16.709 38.824-30.451 8.82-7.939 7.726 2.733 3.726 10.163-20.425 32.916-39.041 45.097-63.626 43.026-10.895-1.84-13.363 6.76-6.406 14.752 12.157 10.333 27.429 10.003 40.739-.169 11.878-11.68 34.552-36.766 46.43-50.233 8.376-6.814 11.063-.107 8.603 13.744-2.25 7.939-7.832 16.262-23.113 22.352-10.407 6.091-2.575 14.475 5.206 14.583 4.324.116 13.032-5.027 19.71-12.681 8.813-10.117 9.312-16.877 14.179-32.577 4.55-7.654 12.706-4.073 12.706 3.911-3.885 15.762-7.281 18.549-15.166 25.031-7.616 7.208 5.26 9.671 9.583 6.654 12.541-8.609 17.135-19.727 21.3-29.899 3.012-7.314 11.773-3.741 7.721 8.216-9.688 28.55-25.678 39.784-53.605 45.536-2.852.562-4.906 3.268-3.563 5.591 3.721 3.965 7.502 7.598 11.228 11.511 0 0-31.3 8.012-48.583 13.158l-23.809-16.164c1.547-5.888-8.647-12.981-16.382-7.135-8.48-3.994-13.174-2.237-16.506 3.651 6.465-2.144 9.749-.66 12.412 2.499 1.877 7.149 11.25 11.524 17.93 7.588l17.896 12.715-30.16-.838c-2.158-8.215-17.097-8.25-21.226-.952-5.431 0-9.054 3.03-10.915 10.117 5.906-4.38 8.467-3.853 11.495-3.025 3.544 6.263 15.692 5.936 19.052 0l28.96.809-16.919 9.693c-9.743-5.739-22.33 2.879-19.977 11.841-4.1 3.4-4.647 8.295-2.028 15.227 1.415-4.807 4.104-9.301 8.286-11.893 8.87 2.425 17.399-.419 17.399-9.401l23.518-13.284 23.279 9.129c0 6.212 9.287 10.907 17.259 7.617 5.585.664 6.379 5.656 7.309 9.499 3.051-5.519 3.62-11.239-3.451-16.117 0-7.143-9.017-11.582-16.489-7.464l-19.733-6.998c17.722-5.764 50.268-11.598 50.268-11.598 4.436 4.242 7.98 7.364 12.419 11.161 2.354 1.454 5.681 1.377 9.303-3.343 11.062-16.377 21.521-46.19 37.51-50.294 5.878-1.511 12.949 2.463 11.447 15.584-2.287 19.949-16.919 36.535-35.322 48.947-10.239 6.814-14.563 3.804-22.501 3.411-10.24 1.17-12.979 6.253-4.544 13.298 7.826 4.134 14.889 4.689 20.586 3.573 4.928-.894 10.677-7.377 14.783-10.896 4.603-5.42 12.269 1.008 7.07 7.377-9.478 11.51-19.001 19.056-30.668 18.887-12.321 1.732-10.019 8.77-1.863 12.181 14.678 6.199 27.98-5.367 34.666-13.021 5.199-5.751 8.927-5.974 7.991 2.965-5.147 16.255-12.209 22.568-23.709 23.354-9.311-.84-9.417 6.483-2.626 11.456 15.545 10.95 26.825-7.715 32.085-19.002 3.72-10.225 9.476-5.359 10.073 3.018.114 11.234-7.951 22.889-14.603 28.644C531.674 576.407 567 613 567 613s35.327-36.595 28.677-42.352Zm47.341-414.418c-5.499 0-8.895 1.921-8.895 4.253 0 2.368 3.396 4.298 8.895 4.298 5.466 0 8.937-2.105 8.937-4.476 0-2.332-3.472-4.076-8.937-4.076Zm-152.036 0c5.499 0 8.896 1.921 8.896 4.253 0 2.368-3.397 4.298-8.896 4.298-5.466 0-8.937-2.105-8.937-4.476 0-2.332 3.472-4.076 8.937-4.076Z"/></g></svg>