<svg xmlns="http://www.w3.org/2000/svg" width="1136" height="568" overflow="hidden"><defs><clipPath id="a"><path d="M-1 94h1136v568H-1z"/></clipPath></defs><g fill-rule="evenodd" clip-path="url(#a)" transform="translate(1 -94)"><path fill="#3F9C35" d="M0 94h1134v567H0Z"/><path fill="#ED2939" d="M0 94h1134v378H0Z"/><path fill="#00B9E4" d="M0 94h1134v189H0Z"/><path fill="#FFF" d="M633 378c0 46.944-38.056 85-85 85s-85-38.056-85-85 38.056-85 85-85 85 38.056 85 85Z"/><path fill="#ED2939" d="M638 378c0 39.212-31.788 71-71 71s-71-31.788-71-71 31.788-71 71-71 71 31.788 71 71Z"/><path fill="#FFF" d="m642.5 331 9.089 25.289 24.498-11.523-11.645 24.241L690 378l-25.558 8.993 11.645 24.241-24.498-11.523L642.5 425l-9.089-25.289-24.498 11.523 11.645-24.241L595 378l25.558-8.993-11.645-24.241 24.498 11.523L642.5 331Z"/></g></svg>