<svg xmlns="http://www.w3.org/2000/svg" width="1136" height="568" overflow="hidden"><defs><clipPath id="a"><path d="M-1 94h1136v568H-1z"/></clipPath></defs><g fill-rule="evenodd" clip-path="url(#a)" transform="translate(1 -94)"><path fill="#002395" d="M0 94h1134v567H0Z"/><path fill="#FECB00" d="M300 94h567v567Z"/><path fill="#FFF" d="M179.025 94h38.95L230 132l-31.5-23.499L167 132ZM218 142.433h39.343L269.5 105l12.157 37.433H321l-31.829 23.134L301.329 203 269.5 179.865 237.671 203l12.158-37.433ZM289 213.051h38.961L340 176l12.039 37.051H391l-31.52 22.898L371.52 273 340 250.101 308.48 273l12.04-37.051ZM360 284.051h38.961L411 247l12.039 37.051H462l-31.52 22.898L442.52 344 411 321.101 379.48 344l12.04-37.051ZM431 355.051h38.961L482 318l12.039 37.051H533l-31.52 22.898L513.52 415 482 392.101 450.48 415l12.04-37.051ZM502 426.051h38.961L553 389l12.039 37.051H604l-31.52 22.898L584.52 486 553 463.101 521.48 486l12.04-37.051ZM572 496.433h39.343L623.5 459l12.157 37.433H675l-31.829 23.134L655.329 557 623.5 533.865 591.671 557l12.158-37.433ZM643 567.433h39.343L694.5 530l12.157 37.433H746l-31.829 23.134L726.329 628 694.5 604.865 662.671 628l12.158-37.433ZM765.5 601l12.157 37.069H817l-31.829 22.91.007.021h-39.356l.007-.021L714 638.069h39.343Z"/></g></svg>