<svg xmlns="http://www.w3.org/2000/svg" width="1136" height="568" overflow="hidden"><defs><clipPath id="a"><path d="M-1 94h1136v568H-1z"/></clipPath></defs><g fill-rule="evenodd" clip-path="url(#a)" transform="translate(1 -94)"><path fill="#F7E017" d="M0 94h1134v567H0Z"/><path fill="#FFF" d="M0 134v251.915L1134 504V370.17Z"/><path d="M0 268v118l1134 236V504Z"/><path fill="#CF1126" d="M547.913 543.05c-15.233-2.037-29.199-6.919-38.901-13.607-1.88-1.3-3.651-2.362-3.926-2.362-.283 0-.511 1.442-.511 3.226 0 5.048-2.015 7.592-7.082 8.915-4.847 1.268-12.243-1.292-18.239-6.3-6.208-5.191-13.376-9.154-19.442-10.738-4.997-1.316-11.63-1.102-16.421.515-2.227.752-4.761 1.814-5.642 2.361-.873.547-1.857.991-2.172.991-.849 0-.731-5.429.158-7.164 1.172-2.275 4.06-4.518 7.428-5.754 1.699-.626 3.092-1.426 3.092-1.783s-.575-1.664-1.275-2.893c-2.282-4.025-1.345-7.925 2.636-10.991 4.076-3.139 10.976-3.678 17.074-1.34 1.534.587 2.967 1.07 3.179 1.07.803 0 .315-1.133-1.896-4.375-2.55-3.756-3.053-5.61-2.738-10.08.409-5.659 4.988-10.287 10.598-10.699 4.579-.333 7.428 1.221 14.187 7.703 20.182 19.385 42.126 30.068 67.722 32.96 6.46.729 19.458.341 27.083-.816 23.03-3.495 46.234-15.161 64.354-32.35 5.02-4.763 7.436-6.023 11.551-6.039 3.58-.015 6.09 1.149 8.655 4.002 2.337 2.616 3.132 5.096 2.88 9.067-.165 2.544-.574 3.796-2.077 6.26-2.219 3.638-1.841 3.971 2.549 2.259 5.933-2.33 13.242-1.252 17.185 2.52 3.469 3.321 3.8 6.641 1.101 11.143-.983 1.648-1.786 3.193-1.786 3.439 0 .452.747.666 4.351 1.252 4.713.761 7.412 4.288 7.412 9.677 0 1.616-.197 2.932-.441 2.932-.236 0-2.022-.658-3.965-1.466-5.492-2.283-8.616-2.869-15.037-2.829-4.886.031-6.57.261-9.976 1.379-5.217 1.719-10.796 5.032-15.344 9.113-5.012 4.502-8.167 5.92-13.045 5.881-4.532-.048-7.633-1.371-9.269-3.979-.874-1.395-.999-2.243-.787-5.397.142-2.052.11-3.732-.055-3.732-.173 0-1.936 1.125-3.926 2.512-5.225 3.614-8.553 5.405-14.533 7.79-18.239 7.267-44.558 10.414-64.709 7.727Z"/><path fill="#CF1126" d="M556.345 507.779c-30.287-2.92-59.267-18.762-76.887-43.88-19.132-26.202-25.161-60.799-19.321-92.432 3.104-14.402 9.365-28.813 20.053-39.068-8.517 18.135-11.395 38.922-6.853 58.57 7.057 39.225 40.066 72.43 79.557 78.175 15.622 4.542 31.784-.256 46.707-5.12 32.921-11.652 57.999-43.033 61.059-78.114 2.619-18.983-.282-38.721-8.798-55.91 4.854 2.577 10.981 12.683 14.594 19.479 12.563 24.443 13.137 53.733 5.74 79.818-10.033 33.189-35.3 62.266-68.7 72.834-15.158 4.973-31.278 6.49-47.149 5.651ZM403.537 464.034c-1.963-.322-4.129 1.699-3.388 3.815 1.416 2.139 3.855 3.184 6.056 4.207 5.275 2.211 11.013 3.072 16.677 2.929-1.952-.005.67.021 1.399-.001 4.484.014 8.944-.831 13.16-2.42 2.344-.862 5.331-1.645 6.292-4.356.937-1.767-.761-3.531-2.475-3.177-2.385.545-4.616 1.677-6.982 2.321-5.104 1.506-10.48 2.088-15.769 1.634-3.867-.494-7.614-1.787-11.192-3.365-1.24-.573-2.405-1.407-3.778-1.587Z"/><path fill="#CF1126" d="M405.144 456.027c-2.026-.309-3.771 2.081-2.926 3.988 1.557 2.315 4.175 3.548 6.623 4.632 4.257 1.746 8.88 2.476 13.454 2.336-1.737-.005.597.021 1.241 0a29.155 29.155 0 0 0 11.354-2.301c2.198-.877 4.89-1.726 5.805-4.207.71-1.363.169-3.345-1.506-3.452-1.528-.077-2.847.92-4.262 1.368-5.14 2.179-10.797 3.103-16.339 2.612-3.453-.455-6.752-1.762-9.884-3.276-1.177-.582-2.235-1.491-3.559-1.7Z"/><path fill="#CF1126" d="M407.661 448.016c-1.722-.214-2.907 1.797-2.617 3.402.257 1.41 1.48 2.358 2.491 3.222 4.191 3.171 9.501 4.522 14.646 4.345-1.998-.008 2.681.034 1.254-.006 3.258-.014 6.477-.839 9.409-2.298 1.956-.881 4.254-1.901 4.914-4.212.315-1.077.513-2.626-.661-3.23-1.23-.712-2.451.382-3.569.826-3.766 1.983-7.961 3.086-12.193 3.066-3.657.127-7.103-1.464-10.275-3.179-1.151-.607-2.1-1.662-3.398-1.936Z"/><path fill="#CF1126" d="M379.323 333c-2.551 2.553-.603 7.258-.741 10.603 1.322 10.301 2.964 20.733 6.811 30.43 4.71 9.475 14.715 14.541 20.778 22.914 2.167 4.035 1.398 8.889 1.855 13.304.358 12.03.247 24.068.036 36.099 5.434 2.726 11.335 5.47 17.586 4.421 3.705-.884 10.581-1.434 11.352-5.123-.299-20.746-.494-41.5-.77-62.243-2.106-6.356-8.576-9.645-13.414-13.712a121.594 121.594 0 0 1-11.11-12.603c-2.054-3.459-10.078-4.705-7.175 1.312 1.702 5.209 6.046 9.089 7.134 14.563.237 3 3.819 8.517.762 10.267-1.945-3.305-4.763-6.118-8.365-7.795-3.471-2.587-9.209-3.664-10.462-8.234-.92-6.482-4.241-12.355-8.526-17.212 1.105-5.823.004-13.104-5.03-16.825l-.721-.166Z"/><path fill="#CF1126" d="M386.93 334c-2.369.376-2.289 3.344-1.192 4.905 1.166 3.371 1.483 7.032.852 10.541 4.212 4.848 7.473 10.647 8.456 17.012.024 2.393 2.585 3.185 4.245 4.368 3.895 2.438 8.274 4.206 11.742 7.258.73.767 1.281 1.593.765.027-.541-2.002-.82-4.212-2.415-5.727-2.187-2.31-4.917-4.373-8.102-5.078-.266-3.234-1.832-6.205-3.28-9.066-1.604-2.735-3.28-5.665-6.029-7.439.111-4.793.031-9.823-2.067-14.246-.616-1.136-1.522-2.487-2.974-2.555Z"/><path fill="#CF1126" d="M393.233 336c-1.652.48-1.336 2.473-.813 3.693.792 3.378.916 6.868.851 10.321 3.035 2.349 4.933 5.754 6.662 9.071 1.083 2.216 2.111 4.503 2.526 6.94 2.462.798 4.617 2.306 6.541 3.975-.763-2.257-2.463-4.003-3.606-6.063-1.242-2.143-2.428-4.377-2.954-6.805-2.368-2.472-3.672-5.974-3.155-9.357.107-3.739-1.128-7.603-3.687-10.421-.644-.621-1.413-1.307-2.364-1.354Z"/><path fill="#CF1126" d="M400.88 337.007c-.865.159-1.391 1.017-1.855 1.717-.179.702.646 1.456.777 2.218a18.188 18.188 0 0 1 1.092 8.38c-.067 2.011.624 3.975 1.606 5.678.284-1.256 1.401-2.159 2.611-2.283.44-.081 1.087.151.831-.549-.308-3.846-.87-7.713-2.159-11.347-.5-1.298-1.067-2.664-2.146-3.553-.218-.162-.48-.301-.757-.261ZM730.425 464.034c1.963-.322 4.129 1.7 3.388 3.815-1.416 2.139-3.855 3.184-6.056 4.207-5.275 2.211-11.013 3.072-16.677 2.929 1.952-.005-.67.02-1.399 0-4.485.013-8.944-.832-13.16-2.421-2.344-.862-5.332-1.645-6.292-4.356-.938-1.767.761-3.53 2.474-3.177 2.386.545 4.616 1.677 6.983 2.321 5.104 1.506 10.48 2.088 15.769 1.634 3.867-.494 7.614-1.787 11.192-3.365 1.24-.573 2.404-1.407 3.778-1.587Z"/><path fill="#CF1126" d="M728.817 456.027c2.026-.309 3.77 2.081 2.926 3.988-1.557 2.315-4.175 3.548-6.623 4.632-4.257 1.746-8.88 2.476-13.454 2.336 1.737-.005-.597.021-1.241 0a29.16 29.16 0 0 1-11.354-2.3c-2.198-.878-4.89-1.727-5.805-4.208-.71-1.363-.169-3.345 1.506-3.452 1.529-.077 2.847.92 4.262 1.368 5.14 2.18 10.797 3.103 16.34 2.612 3.452-.455 6.751-1.762 9.883-3.276 1.177-.582 2.235-1.491 3.56-1.7Z"/><path fill="#CF1126" d="M725.3 448.016c1.723-.214 2.908 1.797 2.618 3.402-.257 1.41-1.48 2.358-2.492 3.222-4.19 3.171-9.5 4.522-14.646 4.345 1.999-.008-2.68.034-1.253-.006-3.259-.014-6.478-.839-9.41-2.298-1.956-.881-4.254-1.9-4.913-4.212-.316-1.077-.513-2.626.66-3.23 1.23-.712 2.452.382 3.57.826 3.765 1.983 7.96 3.086 12.193 3.066 3.656.127 7.102-1.464 10.275-3.18 1.15-.606 2.1-1.66 3.398-1.935Z"/><path fill="#CF1126" d="M754.635 333c2.55 2.553.603 7.258.74 10.603-1.321 10.3-2.964 20.733-6.81 30.43-4.71 9.475-14.716 14.54-20.778 22.914-2.168 4.035-1.398 8.89-1.855 13.304-.359 12.03-.247 24.068-.037 36.099-5.433 2.726-11.334 5.47-17.585 4.421-3.705-.884-10.582-1.434-11.352-5.122.3-20.747.493-41.501.77-62.244 2.106-6.356 8.575-9.645 13.413-13.712a121.721 121.721 0 0 0 11.111-12.603c2.053-3.459 10.077-4.705 7.174 1.312-1.702 5.21-6.046 9.09-7.133 14.563-.238 3-3.82 8.517-.762 10.267 1.945-3.305 4.763-6.118 8.365-7.795 3.471-2.587 9.209-3.664 10.462-8.234.92-6.482 4.24-12.355 8.525-17.212-1.104-5.823-.004-13.104 5.03-16.825l.722-.166Z"/><path fill="#CF1126" d="M747.025 334c2.369.376 2.288 3.344 1.192 4.905-1.166 3.37-1.484 7.032-.853 10.541-4.211 4.848-7.473 10.647-8.456 17.012-.024 2.393-2.584 3.185-4.245 4.367-3.894 2.439-8.273 4.207-11.742 7.259-.73.767-1.28 1.593-.765.027.542-2.002.82-4.212 2.416-5.727 2.186-2.31 4.917-4.373 8.101-5.078.266-3.234 1.832-6.205 3.28-9.066 1.604-2.735 3.28-5.665 6.03-7.439-.111-4.793-.032-9.823 2.067-14.246.615-1.136 1.521-2.487 2.974-2.555Z"/><path fill="#CF1126" d="M740.721 336c1.653.48 1.337 2.473.814 3.693-.792 3.378-.916 6.868-.851 10.321-3.035 2.349-4.934 5.755-6.662 9.07-1.083 2.217-2.11 4.504-2.526 6.941-2.462.798-4.617 2.307-6.541 3.975.762-2.257 2.463-4.003 3.606-6.063 1.242-2.143 2.428-4.377 2.954-6.805 2.368-2.472 3.672-5.974 3.155-9.357-.107-3.74 1.128-7.603 3.687-10.42.644-.622 1.413-1.308 2.364-1.355Z"/><path fill="#CF1126" d="M733.077 337.007c.865.16 1.392 1.017 1.855 1.717.179.702-.646 1.456-.777 2.218a18.183 18.183 0 0 0-1.092 8.38c.067 2.01-.623 3.975-1.606 5.678-.284-1.256-1.4-2.159-2.61-2.283-.441-.08-1.088.151-.832-.548.308-3.846.87-7.714 2.16-11.348.499-1.298 1.066-2.664 2.145-3.553.218-.162.48-.3.757-.261ZM563.672 468.87c-10.708-1.012-20.369-8.767-23.672-18.923.178-1.75 2.37.979 3.406 1.162 1.945 1.073 4.047 1.956 6.286 2.093 2.823 1.205 4.569 3.969 7.263 5.411 1.251.968 5.678 2.871 4.855-.208-1.037-1.609-1.75-3.646-.857-5.489 1.501-3.273 3.811-6.122 6.135-8.852 1.708-.567 2.852 2.781 4.074 3.909 1.691 2.585 3.73 5.739 2.736 8.951-.968 1.189-1.605 4.768.984 3.565 3.192-1.395 5.806-3.739 8.453-5.928 2.316-1.607 5.281-1.72 7.708-3.13 1.125-.283 3.469-2.519 3.957-1.279-1.33 3.538-3.557 6.707-5.938 9.628-3.856 4.376-9.072 7.668-14.908 8.596-3.45.628-6.989.76-10.482.495Z"/><path fill="#CF1126" d="M575.897 456.551c.238-2.116-.255-4.277-1.359-6.2-1.694-3.38-4.087-6.381-6.42-9.346-2.201-1.262-3.422 2.858-4.885 4.04-2.279 3.342-5.142 6.764-5.28 10.968-1.283 1.955-3.675-1.595-4.706-2.762-1.969-2.728-3.46-5.955-3.216-9.367-.233-5.498.844-10.972 2.89-16.082 1.544-4.363 4.05-8.6 3.795-13.366.179-3.587-.564-7.547-3.532-9.959-2.823-2.169 1.829-2.632 3.307-1.507 2.528.166 3.896 4.257 6.206 3.245.92-2.137 1.103-4.686 3-6.353 1.863-2.497 3.809 1.06 4.446 2.726 1.315 1.463-.074 5.084 2.061 5.179 2.558-1.756 4.383-4.706 7.654-5.349 1.327-.741 3.594-.098 1.845 1.395-2.421 2.223-4.49 5.001-4.931 8.307-.74 4.147.319 8.353 2.165 12.089 3.548 7.337 6.293 15.625 4.498 23.789-.833 3.629-3.351 6.755-6.41 8.862-.386.228-.997.212-1.128-.309Z"/><path fill="#CF1126" d="M572.554 400.989c-1.163-2.041-2.576-4.054-4.533-5.442-1.903-.004-3.078 2.333-4.37 3.557-.907 1.642-2.008 4.388-4.24 2.241-3.552-2.017-4.18-6.439-4.157-10.083-.224-5.907 2.219-11.418 4.389-16.798 1.38-3.367 1.04-7.158.198-10.609-1.06-3.962-4.326-6.71-6.841-9.8.171-1.196 3.385-.543 4.594-.315 2.684.662 4.289 2.976 6.29 4.611 1.424-.42.842-3.221 1.505-4.539.049-1.854 2.584-4.298 3.629-1.644 1.565 1.687-.05 5.03 1.973 6.081 1.927-.695 2.878-2.746 4.688-3.673 1.782-1.183 4.298-1.315 6.217-.386.675 1.721-2.11 3.155-2.917 4.651-3.238 3.895-4.376 9.268-2.989 14.094 1.099 3.785 3.047 7.319 3.72 11.231.809 4.399.782 9.018-.387 13.352-.699 2.632-3.039 4.389-5.455 5.482-.596-.54-.911-1.334-1.314-2.01Z"/><path fill="#CF1126" d="M560.517 352.233c-2.644-1.95-3.518-3.812-3.518-7.497 0-1.886.346-2.908 1.582-4.62 1.818-2.535 1.488-3.336-1.086-2.591-4.14 1.197-6.115.103-6.257-3.447-.063-1.736.299-2.473 2.621-5.278 1.857-2.25 2.534-3.431 2.164-3.804-.362-.364-2.558 1.554-7.067 6.174-3.597 3.684-7.643 7.449-8.988 8.368-7.745 5.262-15.143 6.078-18.519 2.028-1.732-2.068-1.637-3.233.362-4.485.921-.57 2.471-1.886 3.455-2.924 2.322-2.433 9.24-7.457 12.671-9.2 2.786-1.419 3.447-2.378 1.637-2.378-2.345 0-9.869 4.929-15.575 10.207-1.677 1.561-4.093 3.297-5.36 3.859-2.849 1.268-8.445 1.736-10.932.912-1.755-.587-4.958-3.63-4.958-4.715 0-.286.732-.92 1.621-1.403.889-.475 2.487-1.64 3.542-2.568 4.565-4.033 13.214-8.186 20.077-9.636 2.18-.459 1.377-1.569-1.055-1.458-4.714.206-14.072 4.62-19.66 9.264-6.548 5.436-16.425 4.921-19.605-1.022-.551-1.023-.873-1.982-.716-2.132.15-.151 2.093-.737 4.321-1.308 2.408-.61 7.178-2.599 11.734-4.889 7.17-3.598 9.295-4.366 14.23-5.167 2.22-.356 2.338-1.45.181-1.704-2.778-.332-7.036 1.07-14.56 4.795-9.665 4.786-12.372 5.61-17.464 5.309-4.644-.285-7.265-1.482-11.035-5.071-2.463-2.354-5.957-8.329-5.273-9.019.166-.166 1.299 0 2.519.357 1.353.404 5.234.674 9.909.682 6.54.015 8.279-.159 11.766-1.173 5.832-1.696 13.584-5.666 18.889-9.652 10.144-7.639 18.416-10.706 28.962-10.754 9.736-.04 15.93 2.227 21.416 7.83 1.857 1.893 3.439 3.122 3.699 2.86.244-.245.511-3.558.59-7.362 0 0 2.865-.277 3.471.531 0 6.174.071 6.657.96 6.657.583 0 1.204-.602 1.59-1.537.834-2.021 3.919-4.787 7.217-6.467 7.123-3.637 19.448-3.748 29.349-.269 4.171 1.474 8.799 4.105 13.206 7.528 4.423 3.423 13.466 8.004 18.81 9.533 5.407 1.545 14.938 1.934 19.826.816 2.014-.459 3.903-.84 4.203-.84 1.802 0-1.268 6.047-4.872 9.589-6.588 6.482-15.159 6.451-27.216-.095-7.516-4.073-16.504-6.3-16.504-4.081 0 .459.472.769 1.172.769 2.613 0 7.658 1.767 14.694 5.127 7.611 3.645 11.885 5.182 14.419 5.182 1.842 0 1.897 1.149.181 3.685-1.818 2.703-4.903 4.042-9.263 4.034-4.164-.016-6.478-.935-10.2-4.05-6.226-5.214-21.738-11.031-21.14-7.924.118.618.865.998 2.463 1.244 5.399.832 11.735 3.875 18.22 8.765 1.999 1.513 4.077 3.003 4.604 3.32.89.523.905.681.205 2.005-1.165 2.187-4.101 3.883-7.28 4.216-4.116.428-7.697-.809-11.404-3.931-7.823-6.593-15.198-11.364-17.559-11.364-1.928 0-1.063 1.07 2.337 2.885 4.471 2.385 9.067 5.61 12.451 8.74 1.598 1.49 3.4 2.964 3.998 3.289 1.417.761 1.362 1.878-.196 3.931-1.59 2.092-4.219 3.011-7.627 2.646-6.8-.721-12.104-4.025-20.439-12.734-3.258-3.4-6.163-6.181-6.462-6.181-1.109 0-.456 1.513 1.693 3.938 2.66 2.996 3.171 4.684 2.164 7.116-.889 2.156-2.369 2.655-5.407 1.831-3.109-.848-3.597-.079-1.558 2.472 3.038 3.812 2.589 8.48-1.134 11.689-1.157.991-2.369 1.807-2.699 1.807-.323 0-1.141-.848-1.826-1.886-2.393-3.661-4.494-3.637-6.824.063-.81 1.292-1.495 2.338-1.519 2.33-.031-.008-1.125-.8-2.424-1.767Z"/><path fill="#CF1126" d="m572 278-3.691 3.14-3.309-2.684v21.451l7 .093Z"/><path fill="#CF1126" d="M547.073 255.388c-.804 10.379-3.426 17.624-7.073 25.612l8.743-8.147 6.08 7.26 6.585-7.386 6.718 6.238 6.458-6.492 6.711 7.894 5.828-6.492L597 281c-3.584-7.988-8.435-14.758-7.829-26-9.569 7.149-32.308 8.44-42.098.388Z"/><path fill="#CF1126" d="M564.748 250c-3.524.061-7.237.106-10.578.735-2.315.439-4.416 1.158-6.17 2.347.284 6.46 32.389 9.155 41 .121-1.809-1.264-4.021-2.014-6.454-2.468-3.215-.599-6.77-.659-10.143-.712 0 1.772.015 3.551.015 5.331l-7.67-.023V250Z"/><path fill="#CF1126" d="m570.899 216-4.899.039v38.937l5 .024Z"/><path fill="#CF1126" d="M570.923 217 569 235.635 588.409 245l-9.824-12.975L592 227.729ZM569.008 212c-2.879 0-5.008 1.141-5.008 2.496s2.129 2.504 5.008 2.504c2.878 0 4.992-1.149 4.992-2.504S571.886 212 569.008 212Z"/><path fill="#F7E017" d="M559.805 538.165c3.144-.994 4.932-2.816 6.217-6.325.638-1.747 1.071-3.561.961-4.036-.268-1.122-1.623-1.061-3.12.128-1.025.821-1.151 1.235-.859 2.907.748 4.216-.82 5.263-9.172 6.121-.827.083-3.223-.053-5.334-.301-3.971-.475-5.39-.098-3.948 1.046.434.347 1.537.813 2.451 1.032 2.23.549 10.416.181 12.804-.572ZM577.043 537.273c.468-.415 2.075-1.133 3.572-1.601 1.997-.619 3.027-1.284 3.869-2.5 2.425-3.498 1.973-6.512-1.591-10.576-1.934-2.205-2.792-2.145-4.337.303-1.333 2.115-1.302 2.251.617 2.734a4.22 4.22 0 0 1 2.503 1.851c2.09 3.505 1.474 5.673-1.622 5.695-2.808.023-3.58.408-4.336 2.168-.398.914-.718 1.889-.718 2.168 0 .74 1.061.612 2.043-.242ZM571.427 533.664c.456-1.496.617-4.189.563-9.68-.033-4.182-.167-7.729-.302-7.891-.402-.489-2.387 1.065-2.649 2.066-.134.52.087 1.725.49 2.668.617 1.456.697 2.815.509 8.518-.241 7.207.148 8.42 1.389 4.319Z"/><path fill="#F7E017" d="M557.946 530.146c.291-1.306.664-3.981.834-5.936.17-1.955.583-4.424.907-5.493.826-2.739-.008-3.459-2.219-1.923l-1.645 1.147.34 3.934c.316 3.546-.259 10.155-1.093 12.72-.227.68.097.506 1.012-.539.738-.839 1.58-2.604 1.864-3.91ZM546.046 532.51c2.867-2.411 2.537-6.528 3.172-9.882-.066-2.23 1.416-4.903.46-6.853-2.679.493-4.33 3.043-2.959 5.584.114 2.95.01 6.162-1.498 8.771-1.233 1.706-5.136 1.281-4.957-1.137.98-3.636-3.353-1.867-5.045-.913-1.308.915-4.069.983-3.109-1.308-.633-3.052-4.538-1.143-6.659-1.156-2.003-.037-.165-4.082-3.041-3.371-5.343-.424-11.241.047-15.866-3.198-2.708-1.309-2.306-4.582-.896-6.7 1.683-2.893 2.163-6.511 4.835-8.756 2.645-2.55-2.495-1.473-3.652-.614-2.577 1.418-.183 5.07-2.292 7.095-1.232 2.1-2.855 5.001-5.707 4.601-4.114-.782-6.486-4.629-9.435-7.207-2.526-.507-1.106 4.121.199 5.094 2.581 1.943 5.597 3.359 8.708 4.198 3.096-.498 3.197 3.578 5.844 4.217 4.858 2.276 10.272 2.958 15.571 3.235 2.081.175.911 3.901 3.647 3.165 1.529.399 4.984-.572 5.157 1.214-2.318 2.767 2.225 2.705 3.906 2.21 2.153-.331 4.904-1.158 5.473 1.809 1.797 1.905 5.097 1.624 7.285.534.307-.179.596-.391.859-.632Z"/><path fill="#F7E017" d="M498.894 508.03c.892-1.094 2.226-3.304 2.965-4.917.731-1.621 1.832-3.459 2.434-4.087 1.415-1.474.627-2.382-1.655-1.893-1.205.256-1.695.683-1.896 1.691-.683 3.288-1.921 6.654-3.021 8.221-1.993 2.839-2.041 2.955-1.222 2.955.426 0 1.503-.884 2.395-1.97ZM469.736 490c-2.24 0-2.336 1.406-.152 2.161 1.055.365 1.951 1.247 2.671 2.685 2.127 4.203 3.375 4.95 9.021 5.435l3.623.326.176 2.184c.088 1.208.376 2.209.656 2.209s1.679-.604 3.095-1.319c2.655-1.334 5.174-4.449 5.174-6.38 0-1.263-2.119-2.629-4.047-2.629-.855 0-2.487.683-3.774 1.612-4.031 2.9-8.342 2.312-10.701-1.461-1.935-3.115-3.959-4.823-5.742-4.823Zm19.562 7.746c1.071 0 1.335.787.751 2.288-.4 1.033-1.703 1.065-2.095.048-.464-1.2.184-2.336 1.344-2.336ZM638.35 493.003c-1.437.056-1.861.372-2.772 1.732-1.492 2.229-1.641 7.06-.267 8.767.856 1.06.981 1.083 2.796.324 2.528-1.067 2.952-1.027 2.944.34-.015 3.494-4.994 10.23-10.208 13.811-1.406.965-2.662 2.04-2.796 2.396-.377.996 1.555.774 3.927-.443 3.235-1.66 7.483-6.024 9.226-9.463 1.383-2.743 1.579-3.676 1.744-8.475.149-4.419.031-5.716-.715-7.186-.832-1.652-1.099-1.803-3.188-1.803-.251 0-.479-.007-.691 0Zm.173 3.084c1.083 0 1.272.245 1.398 1.81.109 1.297-.118 2.087-.833 2.735-.974.886-1.052.878-1.916-.442-1.209-1.866-.463-4.103 1.351-4.103ZM614.67 529.242c4.499-2.28 7.153-4.845 8.861-8.557.808-1.766 1.469-3.428 1.469-3.713 0-.641-2.215-1.702-3.546-1.702-1.323 0-1.592-.942-1.023-3.547.554-2.541-.115-5.723-1.2-5.723-.392 0-1.085.594-1.546 1.314-.708 1.116-.746 1.591-.223 3.214.769 2.407.161 4.204-1.931 5.739-.992.729-1.538 1.568-1.538 2.383 0 .689.084 1.251.184 1.251.108 0 1.2-.586 2.431-1.29l2.246-1.291 1.323 1.069c.723.586 1.323 1.543 1.323 2.129 0 2.819-7.807 7.552-13.169 7.996-2.854.237-3.338.134-4.33-.879-.808-.831-1.039-1.528-.839-2.509.154-.753.431-2.122.615-3.04.493-2.454-.53-2.122-2.299.744-1.454 2.367-1.885 4.892-1.07 6.222.67 1.084 5.116 2.122 8.262 1.924 1.977-.119 3.93-.689 6-1.734ZM645.257 511.819c2.931-2.828 4.173-6.273 4.189-11.597l.008-4 2.421-1.109c3.146-1.449 6.125-4.331 6.125-5.934 0-1.649-.757-1.565-2.126.231-.996 1.302-2.326 2.088-7.192 4.254-1.227.547-1.306.84-1.585 5.818-.327 5.741-1.131 7.891-4.444 11.813-2.031 2.389-2.103 2.705-.693 2.705.581 0 2.063-.979 3.297-2.181ZM613.973 509.139c.237-.91-1.136-1.557-1.731-.817-.25.315-.318.86-.149 1.209.392.792 1.636.528 1.88-.392ZM656.971 497.567c.244-.453-1.135-.775-1.723-.407-.257.162-.324.433-.155.607.392.394 1.635.263 1.878-.2ZM605.43 467.004c-1.129.534-1.715 1.743-2.5 2.667-.565.381-.113.737.213 1.096 1.993 2.129 2.836 5.005 3.783 7.687.929 3.166 2.1 6.566 1.128 9.865-.383 1.263-1.385 2.571-2.881 2.152-2.394-.149-4.75-.779-7.151-.754-2.137.111-3.788 2.04-5.973 1.829-1.396.091-1.337-2.835-2.634-2.053-.643 1.526-.326 3.229-.403 4.843.242.231.921.029 1.327.097h4.302c.304 1.473.266 3.163 1.333 4.335 1.493.526 3.173.071 4.592-.504 1.521-.702 1.725-2.517 2.154-3.931.457-1.519 2.463-1.121 3.646-1.717 2.896-.838 4.793-3.823 4.624-6.761-.188-4.484-1.912-8.702-3.221-12.947-.658-1.869-1.114-3.82-1.877-5.646-.09-.157-.274-.289-.462-.257Zm-7.166 25.642c1.609-.104 2.308 1.857 1.968 3.157-.603 1.768-2.793.635-3.236-.639-.814-1.138-.311-2.668 1.268-2.518Z"/><path fill="#F7E017" d="M538.434 478.001c-.72-.016-1.527.258-2.325.83-4.199 2.999-5.274 6.546-2.42 7.933 2.096 1.024 1.566 2.225-1.732 3.91-4.72 2.402-8.888 2.104-16.803-1.234-1.945-.822-2.451-.507-2.001 1.307.435 1.781 2.033 2.757 6.002 3.676 4.27.999 9.434.677 12.755-.782 1.621-.71 3.542-2.201 5.163-3.999l2.57-2.878 2.989.379c3.685.459 3.756.5 3.756 2.297 0 1.427.079 1.46 3.464 1.782 1.906.186 4.412.355 5.583.355 1.494.008 2.34.274 2.838.983.665.944 1.06.992 6.627.484 5.203-.484 6.223-.443 8.571.371 1.669.58 3.503.814 4.895.661 3.986-.459 9.481-3.781 10.28-6.224.095-.298 1.542-.822 3.21-1.161 4.025-.822 4.199-1.717.443-2.192-1.629-.21-4.072-.815-5.432-1.363-1.368-.548-3.234-1.008-4.152-1.008-2.024 0-3.93 1.29-3.93 2.62 0 .871.301.96 2.697.71 2.253-.234 2.91-.105 4.096.855.783.628 1.304 1.37 1.138 1.636-.529.879-5.234 3.064-7.314 3.402-1.392.226-2.515.073-3.606-.5-1.826-.967-4.515-1.112-5.021-.282-.213.363-.791.129-1.581-.629l-1.234-1.185-2.791 1.185c-2.839 1.201-3.883 1.153-3.883-.225 0-.629-.83-.702-5.013-.428-4.61.307-5.093.226-5.955-.758-.798-.902-.814-1.217-.245-2.144.522-.854.522-1.225.024-1.733s-1.147-.5-2.965 0c-4.587 1.249-5.883.548-5.883-3.104 0-2.193-1.234-3.523-2.815-3.547Zm-1.139 3.353c.245 0 .451.154.767.476.403.411.617 1.129.443 1.588-.411 1.089-2.357 1.048-2.768-.048-.198-.532.055-1.129.641-1.564.411-.306.672-.46.917-.452Z"/><path fill="#F7E017" d="M528.742 484.493c2.774-1.722 2.711-1.592 3.111-6.373.275-3.375.228-3.628-.707-3.628-1.359 0-2.066 1.46-2.066 4.243 0 1.783-.283 2.583-1.257 3.528-2.31 2.26-8.045 1.23-8.767-1.575-.244-.961.07-1.83 1.272-3.498 2.506-3.482 1.941-4.336-1.131-1.691-2.113 1.806-2.49 1.86-2.09.299.37-1.437-.4-2.006-2.121-1.583-.88.215-1.359.753-1.571 1.799-.204 1.022-.684 1.591-1.516 1.791-1.391.346-3.764-.946-3.764-2.045 0-.815 3.551-5.058 8.108-9.686 1.721-1.753 3.127-3.382 3.127-3.628s-.919-.446-2.043-.446c-1.642 0-2.042.177-2.042.922 0 .508-2.294 3.452-5.107 6.55-5.861 6.457-6.348 7.802-3.449 9.524 2.334 1.399 5.327 1.292 7.676-.269l1.901-1.268v2.298c0 2.937.597 3.99 2.954 5.212 2.962 1.53 6.544 1.346 9.482-.476ZM652.006 444c-2.164 1.308-.47 4.056-.142 5.882-.884 2.49-4.047 3.161-6.352 3.624-3.266.547-5.58 3.311-6.822 6.248-.673 1.907-2.298 4.865-4.068 1.961-1.539-1.578-4.368-2.829-6.187-.987-1.383 1.332-1.733 3.291-2.249 5.069-.816-1.366-1.181-3.401-2.91-3.833-2.76.392-1.763 3.914-.465 5.366 1.179 1.692 2.312 3.925 1.156 5.935-1.019 2.416-4.545 4.046-6.616 1.979-1.935-1.033-.641-4.722-2.546-4.925-.943.688-1.02 4.549-2.528 2.456-1.088-1.788-.511-4.237-1.842-5.846-1.573.197-2.838 2.938-2.315 4.41 2.099 2.865 2.961 6.458 3.78 9.871.51 1.367-.074 4.138 1.189 4.679.876-2.199.062-4.695.752-6.916 2.048-.26 4.327.686 6.475.183 3.074-.404 5.45-3.029 6.528-5.824.325-2.101-.062-4.234-.12-6.347 2.428.381 4.951.373 7.287 1.171 1.159 1.798-.367 4.314-.688 6.278-1.219 4-4.316 6.903-7.328 9.578-1.26.754-1.429 2.753.432 1.676 4.048-1.751 7.065-5.461 8.801-9.476 1.266-3.089.248-6.53 1.075-9.689 1.222-2.372 4.164-1.872 6.34-1.865 2.253-.087 4.176-2.742 3.423-4.958-.716-2.57 1.971-3.808 3.808-4.727 2.434-1.243 4.302-3.768 4.113-6.618-.1-1.457-.029-4.221-1.98-4.354Zm-8.63 14.845c2.608.701-.473 5.742-1.859 2.548-.426-1.218.587-2.592 1.859-2.548Zm-12.105 3.61c3.395-.2 2.176 4.815-.692 2.538-1.487-.756-.995-2.631.692-2.538ZM507.979 481.878c.102-.512-.169-.878-.652-.878-1.025 0-1.643.862-1.16 1.609.499.772 1.6.334 1.812-.731ZM548 476.926c0-.74-.279-1.019-.901-.899-1.355.254-1.507 1.973-.175 1.973.741 0 1.076-.334 1.076-1.074ZM498.633 453.049c-1.605-.322-2.615 1.003-3.165 2.267-1.2 1.968-2.667 3.981-4.821 5.023-1.549.421-3.238-.154-4.574-.933-1.594-.775-1.232-2.645-1.915-3.937-1.153-.883-3.197.38-3.151 1.753-.128 1.842 1.638 2.905 3.104 3.617 1.246.745 3.052 1.159 3.55 2.665-.034 1.28.494 2.746 2.092 2.251 1.788-.028 2.251 2.096 1.529 3.371-.735 1.436-1.232 3.119-.88 4.719.855.702 1.727-1.181 2.346-1.718l1.261-1.641c3.164.168 6.324.561 9.495.452 2.256-.04 4.176-1.398 5.61-2.991 2.028-2.069 3.695-4.499 6.011-6.284 1.649-.392.763-3.422-.959-2.547-1.552.568-2.04 2.278-3.115 3.368-1.831 2.163-3.7 4.358-6.008 6.053-1.681.68-3.617.383-5.343 0-.721-.615 1.431-1.115 1.731-1.798.99-.966 2.166-1.882 2.74-3.15-.549-1.17-2.228-1.264-3.412-1.288-2.916.342-5.143 2.73-8.088 2.955-2.235.076-1.072-2.286-.064-3.091 1.971-2.284 4.102-4.435 6.16-6.643.584-.686 2.697-1.337 1.345-2.3-.472-.166-.983-.166-1.479-.173Zm1.434 11.553c1.47.806-.938 2.127-1.953 1.947-1.331.389-1.355-.935-.172-1.199.664-.337 1.366-.689 2.125-.748Zm-4.525 3.014c.837-.015 2.591.769.944 1.271-1.146.867-2.442-.882-.944-1.271ZM531 469.872c0-1.28-1.77-1.098-1.966.2-.126.835.077 1.035.903.88.587-.109 1.063-.59 1.063-1.08Z"/><path fill="#F7E017" d="M618.984 462.1c.17-.884-1.061-1.473-1.71-.825-.649.648-.053 1.879.825 1.709.407-.079.806-.478.885-.884ZM481.539 450.809c1.385-1.169 1.4-1.246.803-3.814-.85-3.598-.795-3.985.597-4.325 1.763-.441 6.239 1.918 7.23 3.806.771 1.462.747 1.563-.559 2.754-1.408 1.277-1.4 2.77.008 2.77 1.165 0 4.382-2.994 4.382-4.069 0-1.493-3.571-5.021-6.396-6.313-1.746-.805-3.493-1.176-5.514-1.184-3.619 0-4.107.766-3.131 4.905 1.148 4.851-.409 5.508-4.382 1.849-2.95-2.716-4.114-5.539-4.099-9.988.008-4.773 1.865-7.133 6.05-7.69 2.777-.364 2.706-1.006-.15-1.423-4.169-.619-7.693 2.119-9.031 7.009-1.487 5.423 1.92 12.03 7.946 15.434 3.154 1.78 4.413 1.834 6.246.279ZM646.086 445.395c.311-.336.564-1.094.564-1.68 0-.586.528-1.844 1.171-2.79.651-.945 1.179-1.915 1.179-2.149 0-.961-1.468-.93-2.625.063-1.186 1-2.076 1.023-2.076.046 0-.242.564-.742 1.259-1.109 1.721-.907 1.866-1.806.412-2.525-1.866-.914-3.739.758-3.934 3.517-.123 1.844.014 2.165 1.33 3.001 1.201.766 1.425 1.172 1.223 2.267-.348 1.899.383 2.563 1.497 1.359ZM661.376 443.193c1.137-.992 2.061-2.123 2.061-2.499 0-.377.98-1.377 2.18-2.215 3.405-2.384 4.155-4.791 2.63-8.49-.592-1.454-2.456-3.461-6.508-7.013-3.112-2.738-5.979-4.976-6.351-4.976-1.105 0-.908 3.96.214 4.306 2.022.631 3.246 1.439 6.429 4.23 3.697 3.253 5.403 6.291 4.471 7.982-.893 1.638-2.077 1.131-5.34-2.276-1.714-1.792-3.412-3.253-3.759-3.253-.38.008-.648.654-.648 1.561 0 1.138.624 2.223 2.314 4.053 2.757 2.984 3.025 4.776.956 6.36-.743.569-1.509 1.038-1.698 1.038-.182 0-.79-.892-1.343-1.977-1.153-2.276-8.207-9.528-9.265-9.528-.482 0-.719.585-.719 1.738 0 1.392.284 1.885 1.422 2.454 1.398.707 4.857 4.098 8.333 8.19.995 1.168 1.975 2.114 2.188 2.122.205 0 1.303-.815 2.433-1.807ZM668.816 423.477C668.344 421.966 658.6 412 657.6 412c-.521 0-.683.614-.561 2.198.138 1.924.349 2.255 1.683 2.603.83.218 3.4 2.223 5.702 4.445 2.293 2.223 4.31 3.912 4.473 3.742.163-.161.13-.84-.081-1.511ZM612 533c0 .552-.672 1-1.5 1s-1.5-.448-1.5-1 .672-1 1.5-1 1.5.448 1.5 1ZM617 531.5a1.5 1.5 0 1 1-3.001-.001 1.5 1.5 0 0 1 3.001.001Z"/></g></svg>