<svg xmlns="http://www.w3.org/2000/svg" width="1136" height="568" overflow="hidden"><defs><clipPath id="a"><path d="M-1 94h1136v568H-1z"/></clipPath></defs><g fill-rule="evenodd" clip-path="url(#a)" transform="translate(1 -94)"><path fill="#CE1720" d="M0 94h1134v567H0Z"/><path fill="#FFF" d="M6 94h126v567H6Z"/><path fill="#CE1720" d="M71.972 93.893v20.554h-5.558V93.893Zm-71 35.939h9.98v-8.197h5.054v-9.962h7.075v-8.701h5.811v-9.08h17.56v9.08h5.686v8.701h7.075v9.962h5.053v8.197h7.706v12.736h-7.706v8.197h-5.053v9.962h-7.075v8.701h-5.685v9.332H42.41v7.818h-9.475v-7.818h-4.043v-9.332h-5.811v-8.701h-7.075v-9.962h-5.053v-8.197H.973m0-44.388h9.98v11.349H.973m39.163 3.405h-5.18v7.692H30.03v9.71h-4.8v11.98h4.8v9.71h4.927v7.566h5.18v-7.566h4.927v-9.71h4.927v-11.98h-4.927v-9.71h-4.927Zm.505 17.528v11.35h-6.19v-11.35ZM.973 160.223h9.98v12.231H.973m71-11.097v17.277h-5.558v-17.277Zm-13.644 19.168v8.575h6.064v8.827h7.58v11.602h-7.58v8.953h-6.064v8.575h-7.074v-8.575H45.19v-8.953h-5.054v-11.602h5.053V189.1h6.065v-8.575ZM.972 197.927h9.98V189.1h6.065v-8.575h6.948v8.575h6.064v8.827h5.054v11.602h-5.054v8.953h-6.064v8.575h-6.948v-8.575h-6.064v-8.953H.973m56.47-11.35h-5.179v10.971h5.18Zm-34.236 0h-5.18v10.971h5.18Zm2.022 181.714v-5.927h-4.296v-8.953h-5.685v-5.423h-4.295v-8.701H.973v-20.176h9.98v5.801h4.295v8.448h5.685v10.089h8.086v-9.08h5.937v-6.683h4.296v-7.945h5.685v-8.448h4.169v-8.575h4.043v-8.828h5.432v-11.853H51.38V282.92h-7.833v-6.431H30.408v9.332h7.58v8.448h-5.053v10.341h-5.938v9.079h-7.453v-9.079h-6.19v-10.341h-3.79v-8.448H.971v-16.016h9.98v-10.34h3.79v-7.944h3.538v-9.08h5.054v-8.953h4.927v-5.927h5.937v-8.953H41.4v8.953h5.937v5.927h5.053v8.953h4.928v9.08h4.042v7.818h4.043v6.81h6.57v50.062h-7.454v8.449H62.37v8.827h-5.559v8.575h-3.41v6.305h-3.538v6.684H43.8v6.557h-8.717v18.285m36.89-152.962v17.276h-5.56v-17.276Zm-71 3.278h9.98v12.232H.973m0 61.286h9.98v12.232H.973Zm70.747 31.021v11.097h-5.306v-11.097Zm-7.328 45.145v-6.936h-3.284v-5.422h-4.801v-16.267h4.8v6.557h5.054v9.584h5.559v12.358m-27.036 0v-8.071h5.306v8.071"/><path fill="#CE1720" d="M67.032 93.893v20.554h5.56V93.893Zm71 35.939h-9.98v-8.197H123v-9.962h-7.075v-8.7h-5.811v-9.08h-17.56v9.08h-5.686v8.7h-7.075v9.962H74.74v8.197h-7.707v12.736h7.707v8.197h5.053v9.962h7.075v8.701h5.685v9.332h4.043v7.818h9.475v-7.818h4.043v-9.332h5.811v-8.701h7.075v-9.962h5.053v-8.197h9.98m0-44.388h-9.98v11.35h9.98m-39.163 3.404h5.18v7.693h4.927v9.71h4.8v11.979h-4.8v9.71h-4.927v7.566h-5.18v-7.566h-4.927v-9.71h-4.927v-11.98h4.927v-9.71h4.927Zm-.505 17.528v11.35h6.19v-11.35Zm39.669 29.76h-9.98v12.232h9.98m-71-11.097v17.277h5.558v-17.277Zm13.644 19.168v8.575h-6.064v8.827h-7.58v11.602h7.58v8.953h6.064v8.575h7.074v-8.575h6.064v-8.953h5.054v-11.602h-5.054V189.1h-6.064v-8.575Zm57.356 17.402h-9.98V189.1h-6.065v-8.575h-6.948v8.575h-6.064v8.827h-5.054v11.602h5.054v8.953h6.064v8.575h6.948v-8.575h6.064v-8.953h9.98m-56.471-11.35h5.18v10.971h-5.18Zm34.237 0h5.18v10.971h-5.18Zm-2.022 181.714v-5.927h4.296v-8.953h5.685v-5.423h4.295v-8.701h9.98v-20.176h-9.98v5.801h-4.295v8.448h-5.685v10.089h-8.086v-9.08h-5.937v-6.683h-4.296v-7.945h-5.685v-8.448H89.9v-8.575h-4.043v-8.828h-5.432v-11.853h7.201V282.92h7.833v-6.431h13.139v9.332h-7.58v8.448h5.053v10.341h5.938v9.079h7.453v-9.079h6.19v-10.341h3.79v-8.448h8.592v-16.016h-9.98v-10.34h-3.79v-7.944h-3.538v-9.08h-5.054v-8.953h-4.927v-5.927h-5.937v-8.953h-7.201v8.953h-5.938v5.927h-5.054v8.953h-4.927v9.08h-4.042v7.818h-4.043v6.81h-6.57v50.062h7.454v8.449h2.148v8.827h5.559v8.575h3.41v6.305h3.538v6.684h6.064v6.557h8.717v18.285m-36.89-152.962v17.276h5.56v-17.276Zm71 3.278h-9.98v12.232h9.98m0 61.286h-9.98v12.232h9.98Zm-70.747 31.021v11.097h5.306v-11.097Zm7.328 45.145v-6.936h3.284v-5.422h4.801v-16.267h-4.8v6.557h-5.054v9.584h-5.559v12.358m27.036 0v-8.071h-5.306v8.071"/><path fill="#CE1720" d="M71.972 661.083v-20.482h-5.558v20.482Zm-71-35.813h9.98v8.168h5.054v9.927h7.075v8.67h5.811v9.048h17.56v-9.047h5.686v-8.67h7.075v-9.928h5.053v-8.168h7.706v-12.692h-7.706v-8.168h-5.053v-9.927h-7.075v-8.67h-5.685v-9.3H42.41v-7.79h-9.475v7.79h-4.043v9.3h-5.811v8.67h-7.075v9.927h-5.053v8.168H.973m0 44.233h9.98v-11.31H.973m39.163-3.392h-5.18v-7.666H30.03v-9.676h-4.8V612.83h4.8v-9.675h4.927v-7.54h5.18v7.54h4.927v9.676h4.927v11.937h-4.927v9.676h-4.927Zm.505-17.467v-11.31h-6.19v11.31ZM.973 594.986h9.98v-12.19H.973m71 11.059v-17.216h-5.558v17.216Zm-13.644-19.1v-8.546h6.064v-8.796h7.58v-11.561h-7.58v-8.922h-6.064v-8.545h-7.074v8.545H45.19v8.922h-5.054v11.561h5.053v8.796h6.065v8.545ZM.972 557.412h9.98v8.796h6.065v8.545h6.948v-8.545h6.064v-8.796h5.054v-11.561h-5.054v-8.922h-6.064v-8.545h-6.948v8.545h-6.064v8.922H.973m56.47 11.31h-5.179v-10.933h5.18Zm-34.236 0h-5.18v-10.933h5.18Zm2.022-181.079v5.907h-4.296v8.922h-5.685v5.403h-4.295v8.671H.973v20.105h9.98v-5.78h4.295v-8.419h5.685v-10.053h8.086v9.047h5.937v6.66h4.296v7.917h5.685v8.419h4.169v8.545h4.043v8.797h5.432v11.812H51.38v10.681h-7.833v6.409H30.408v-9.299h7.58v-8.419h-5.053v-10.305h-5.938v-9.047h-7.453v9.047h-6.19v10.305h-3.79v8.419H.971v15.959h9.98v10.304h3.79v7.917h3.538v9.047h5.054v8.922h4.927v5.906h5.937v8.922H41.4v-8.922h5.937v-5.906h5.053v-8.922h4.928v-9.047h4.042v-7.791h4.043v-6.786h6.57v-49.888h-7.454v-8.419H62.37v-8.796h-5.559v-8.545h-3.41v-6.283h-3.538v-6.66H43.8v-6.535h-8.717v-18.221m36.89 152.428v-17.216h-5.56v17.216Zm-71-3.267h9.98v-12.19H.973m0-61.071h9.98v-12.189H.973ZM71.72 421.07v-11.058h-5.306v11.058Zm-7.328-44.987v6.912h-3.284v5.403h-4.801v16.211h4.8v-6.535h5.054v-9.55h5.559v-12.315m-27.036 0v8.042h5.306v-8.042"/><path fill="#CE1720" d="M67.032 661.083v-20.482h5.56v20.482Zm71.001-35.813h-9.981v8.168h-5.053v9.927h-7.075v8.671h-5.811v9.047h-17.56v-9.047h-5.686v-8.671h-7.075v-9.927H74.74v-8.168h-7.707v-12.692h7.707v-8.168h5.053v-9.927h7.075v-8.671h5.685v-9.299h4.043v-7.791h9.475v7.791h4.043v9.299h5.811v8.671h7.075v9.927h5.053v8.168h9.981m0 44.233h-9.981v-11.309h9.981m-39.164-3.393h5.18v-7.666h4.927v-9.676h4.8v-11.938h-4.8v-9.675h-4.927v-7.54h-5.18v7.54h-4.927v9.675h-4.927v11.938h4.927v9.676h4.927Zm-.506-17.467v-11.31h6.191v11.31Zm39.67-29.656h-9.981v-12.189h9.981m-71 11.058v-17.216h5.558v17.216Zm13.644-19.101v-8.545h-6.064v-8.796h-7.58v-11.561h7.58v-8.922h6.064v-8.545h7.074v8.545h6.064v8.922h5.054v11.561h-5.054v8.796h-6.064v8.545Zm57.356-17.341h-9.981v8.796h-6.064v8.545h-6.948v-8.545h-6.064v-8.796h-5.054v-11.561h5.054v-8.922h6.064v-8.545h6.948v8.545h6.064v8.922h9.981m-56.472 11.309h5.18v-10.932h-5.18Zm34.237 0h5.179v-10.932h-5.179Zm-2.022-181.078v5.907h4.296v8.922h5.685v5.403h4.295v8.671h9.981v20.105h-9.981v-5.78h-4.295v-8.419h-5.685v-10.053h-8.086v9.047h-5.937v6.66h-4.296v7.917h-5.685v8.419H89.9v8.545h-4.043v8.797h-5.432v11.812h7.201v10.681h7.833v6.409h13.139v-9.299h-7.58v-8.419h5.053v-10.305h5.938v-9.047h7.453v9.047h6.191v10.305h3.79v8.419h8.591v15.959h-9.981v10.304h-3.79v7.917h-3.537v9.047h-5.054v8.922h-4.927v5.906h-5.937v8.922h-7.201v-8.922h-5.938v-5.906h-5.054v-8.922h-4.927v-9.047h-4.042v-7.791h-4.043v-6.786h-6.57v-49.888h7.454v-8.419h2.148v-8.796h5.559v-8.545h3.41v-6.283h3.538v-6.66h6.064v-6.535h8.717v-18.221m-36.89 152.428v-17.216h5.56v17.216Zm71.001-3.267h-9.981v-12.19h9.981m0-61.071h-9.981v-12.189h9.981ZM67.285 421.07v-11.058h5.306v11.058Zm7.328-44.987v6.912h3.284v5.403h4.801v16.211h-4.8v-6.535h-5.054v-9.55h-5.559v-12.315m27.036 0v8.042h-5.306v-8.042"/><path fill="#007C30" d="M132 472h1002v189H132Z"/></g></svg>