<svg xmlns="http://www.w3.org/2000/svg" width="1136" height="682" overflow="hidden"><defs><clipPath id="a"><path d="M-1 37h1136v682H-1z"/></clipPath></defs><g clip-path="url(#a)" transform="translate(1 -37)"><path fill="#D90F19" fill-rule="evenodd" d="M.021 38.013H1134.02v680H.021Z"/><path fill="#171696" fill-rule="evenodd" d="M.021 106.013H1134.02v544H.021Z"/><path fill="#FFF" fill-rule="evenodd" d="M765.009 377.5c0 109.628-88.871 198.5-198.5 198.5s-198.5-88.872-198.5-198.5c0-109.629 88.871-198.5 198.5-198.5s198.5 88.871 198.5 198.5Z"/><path fill="#AD7D5A" fill-rule="evenodd" stroke="#000" stroke-miterlimit="8" stroke-width="0.538268" d="M463.68 454.4c-.325 1.413-.866 3.372-1.086 5.875 0 .544-.541 3.481 1.086 3.588 1.196.109 1.522-3.047 1.522-3.047s-1.089 3.481.324 3.918c1.956.43 2.171-3.809 2.171-3.809-.217 1.198-1.521 4.245.327 4.565 1.953.33 2.498-4.133 2.498-4.133s-1.629 4.463.324 4.571c1.847.107 1.847-4.351 1.847-4.351s-.979 5.331 1.628 4.896c1.409-.218 1.738-2.069 2.063-3.156.434-1.629 1.412-3.696.218-7.069-.867-2.501-.541-3.154-.541-3.154s-3.042 2.285-5.43 3.806c-1.089.652-6.954-2.501-6.954-2.501Zm31.715-4.683c-.542-.328-.433 1.959-.651 3.043-.109 1.09.219 3.482 3.911 3.266 3.581-.328 7.168-1.089 9.447-.545 2.282.652 5.647.761 7.496.761 1.847 0 3.042-.216 3.907-.545.762-.323 2.391.438 3.149.438.762 0 1.955-1.198 1.846-1.96-.108-1.415-1.409-1.415-3.258-1.522-1.738-.217-4.126-.545-5.32-.979-1.195-.437-3.367-1.633-6.082-2.176 0 0-5.213.219-6.296.219-1.089 0-7.496.324-8.149 0Z"/><path fill="none" stroke="#060" stroke-miterlimit="8" stroke-width="0.538478" d="m478.721 457.032-.216-4.996 2.046 1.74.538-3.804c.861-.217 2.262 1.523 2.262 1.523l-.217-3.801 3.122 3.475s-.215-2.934.859-4.671c0 0 2.368 2.064 2.368 4.454 0 2.068 2.045-2.934 2.045-2.934.54 1.741 1.724 5.542 1.724 5.542l1.396-2.066 1.186 4.342 2.582-3.8 2.045 4.454 4.63-.328.541 2.609 2.044-2.281 2.692 1.737s2.26-.651 3.445-.651c1.186 0 2.584 1.52 2.584 1.52s.86-1.516 1.723-2.061c.86-.545 2.046.867 2.366 1.736l1.724-3.15s2.262 2.283 2.582 3.15c0 0 .324-2.605.863-3.476.54-.868 1.397.327 2.046 1.413l1.398-4.671s1.507.323 2.582 2.063c1.186 1.736 1.186-2.61 1.186-2.61s2.582 3.479 3.232 5.867m64.814-.869s.859-2.386 2.046-3.583c0 0 2.26 2.718 2.26 3.585 0 0 .646-.326 1.831-1.193l1.722 1.735 2.047-1.409 1.938 1.738 3.554-1.521 1.397 1.52 5.488-.65 2.05.867 1.936-2.495 1.831 1.952 2.906-2.93s1.398 1.191 1.722 2.063c0 0 2.369-1.196 2.907-2.063 0 0 2.26-.869 2.582.539 0 0 1.397-1.087 1.292-2.28-.11-1.194 1.613-.325 2.151 1.198 0 0 .647-2.392 2.372-2.611 0 0 1.181 1.414.857 4.022 0 0 2.583-2.063 3.769-2.282 0 0 .539 2.931-.322 5.542 0 0 2.692-4.456 3.23-2.935.215.868.861 3.804.215 5.865l2.369-1.52.86 2.936 2.582-.544m-120.968 8.846s1.938-3.256 3.122-4.127c0 0 2.582 2.066 3.444 4.672 0 0 .324-1.737 1.185-3.257 0 0 3.23 1.516 3.767 3.584 0 0 1.186-2.065 2.046-2.605.861-.656 1.723 2.278 1.723 4.017 0 0 2.046-2.174 3.232-2.282 0 0 2.26 1.085 2.905 4.89 0 0 2.155-2.064 2.907-1.741 0 0 2.584 1.741 1.936 4.129-.321 1.302 2.586-1.518 6.138-2.388l3.122 2.388s2.906-3.91 3.767-5.216c0 0 2.37.869 2.37 2.283 0 0 1.078-4.132 1.937-4.562.86-.543 2.045 1.302 2.045 2.498 0 0 .323-3.15 2.047-3.803 0 0 1.723 1.194 1.723 2.392 0 0 1.83-3.585 3.23-4.458"/><path fill="#5AC800" fill-rule="evenodd" d="m478.225 456.569-.216-5.012 2.046 1.746.538-3.815c.86-.221 2.262 1.526 2.262 1.526l-.217-3.816 3.122 3.488s-.216-2.943.859-4.688c0 0 2.367 2.072 2.367 4.469 0 2.074 2.046-2.944 2.046-2.944.54 1.746 1.723 5.558 1.723 5.558l1.397-2.07 1.185 4.358 2.586-3.815 2.042 4.47 4.63-.329.54 2.613 2.044-2.286 2.692 1.743s2.262-.654 3.446-.654c1.186 0 2.584 1.528 2.584 1.528s.86-1.528 1.723-2.077c.858-.541 2.047.874 2.366 1.745l1.724-3.159s2.261 2.29 2.583 3.159c0 0 .321-2.613.86-3.486.54-.871 1.397.328 2.046 1.418l1.396-4.685s1.51.323 2.584 2.07c1.182 1.742 1.182-2.613 1.182-2.613s2.583 3.486 3.228 5.881c0 0-17.826 6.193-30.397 4.5-14.798-1.993-26.985-4.826-26.985-4.826m122.207-.543s.86-2.399 2.048-3.599c0 0 2.259 2.728 2.259 3.599 0 0 .644-.327 1.831-1.2l1.721 1.742 2.048-1.413 1.939 1.74 3.55-1.526 1.399 1.526 5.49-.651 2.046.87 1.939-2.505 1.83 1.959 2.906-2.942s1.399 1.198 1.722 2.072c0 0 2.369-1.196 2.908-2.072 0 0 2.261-.87 2.582.546 0 0 1.399-1.092 1.293-2.287-.107-1.198 1.614-.328 2.153 1.196 0 0 .645-2.395 2.366-2.613 0 0 1.183 1.412.861 4.034 0 0 2.582-2.076 3.767-2.292 0 0 .54 2.941-.322 5.559 0 0 2.691-4.47 3.231-2.943.216.87.862 3.813.216 5.881l2.367-1.524.859 2.943 2.582-.546s-15.283 2.369-29.683.98c-14.401-1.39-27.912-6.536-27.911-6.536m-10.644 10.818c.7-.438-4.809 11.467-18.168 12.101-18.586.881-34.475-8.503-34.475-8.503s1.939-3.268 3.122-4.142c0 0 2.582 2.073 3.445 4.685 0 0 .324-1.743 1.185-3.267 0 0 3.23 1.521 3.767 3.595 0 0 1.185-2.07 2.048-2.613.86-.657 1.723 2.285 1.723 4.032 0 0 2.044-2.183 3.229-2.292 0 0 2.262 1.091 2.908 4.905 0 0 2.153-2.069 2.905-1.746 0 0 2.584 1.746 1.937 4.141-.322 1.31 2.584-1.521 6.138-2.394l3.121 2.394s2.906-3.919 3.768-5.231c0 0 2.37.874 2.37 2.292 0 0 1.078-4.142 1.937-4.577.86-.544 2.044 1.307 2.044 2.508 0 0 .325-3.161 2.047-3.814 0 0 1.724 1.196 1.724 2.399-.004-.002 1.826-3.599 3.227-4.473Z"/><path fill="#6F6" fill-rule="evenodd" d="M603.005 246.004s-1.564-.111-3-1l3 .996"/><path fill="none" stroke="#060" stroke-miterlimit="8" stroke-width="0.538268" d="M603.505 246.504s-1.564-.111-3-1"/><path fill="#D67C59" fill-rule="evenodd" stroke="#000" stroke-miterlimit="8" stroke-width="0.538268" d="M600.471 247.411s.649-1.502 1.839-.643c1.081.856 1.402 4.612 1.402 4.612l-1.729.856s.974-1.391-1.512-4.825Zm-9.829 33.679s.864-1.178-.324-3.755l1.729-.536s.648 2.037-.217 4.293h-1.19m29.946-5.905-4.107 2.468 2.054.966 4.972-2.897-2.922-.538m-55.028 15.982c-1.084.859-1.19 2.361-1.838 3.217-.538.857-2.162 2.035-2.269 3.323-.217 1.286-.324 2.145.215 3.863.646 1.714 3.35 9.329 2.269 15.124-1.19 5.79-.755 8.257-.322 9.118.43.857 1.729 3.215 2.487 3.215 1.728-.214.972-.748 1.619-1.823 1.621-2.789 0-24.348-.758-30.354-.538-4.614-2.704-8.798-2.916-9.224-.216-.54-.648-1.932-.974-2.791-1.621-3.863-3.567-7.184-3.567-15.232 0 0-5.299 1.18-9.838-9.011-2.377-5.148-5.838-4.612-9.945-6.325l1.839-1.183s3.459 1.718 5.189 1.718 1.191-3.432 1.191-3.432l1.729-1.718v7.51c0 3.433 4.756 8.152 7.565 9.546 1.732.856 4.003-2.683 3.463-6.114-.542-3.431 0-8.043 0-8.043l2.377 1.392s-.864 1.502-.648 2.361c.322.859 1.512-.858 2.377-1.718 0 0 .215.216 1.081.216 0 0-1.73 2.893-2.593 4.397-.862 1.396-.862 6.867-.862 8.905 0 2.038.756 6.755.756 8.256 0 1.075 2.051 5.47 3.676 8.154.54 1.072 1.837 3.858 1.837 3.858 1.296 2.039 1.403 3.434 2.162 5.152.431.856 1.19 3.323 1.73 7.616.217 1.071.432 5.148.758 7.827.323 2.574 2.487.538 5.078-1.286 2.594-1.929 2.594-6.542 2.594-6.542s2.055-1.719 1.73-.752c-.216 1.073 1.084 2.146 1.084 2.146-1.621 3.645-.648 3.216.973 3.109 1.62-.217 7.24-4.398 7.24-4.398.757-.216 4.109-.216 3.569 0-.649.323-1.514 1.932-1.514 1.932l3.675-.431c-1.296.966-6.163 3.753-7.241 4.399-1.19.752-7.024 3.541-9.512 4.504-2.487 1.072-7.353 3.433-7.568 5.9-.108 2.468.324 9.118 0 11.261-.216 2.144-1.082 11.692-1.082 11.692h-11.567s2.271-8.367-.109-10.618c-2.27-2.361-7.568-9.227-11.026-11.589-3.462-2.25 2.268-.532 2.268-.532v-2.361l5.297 6.332s9.188-8.046 0-18.985c-2.918-3.434-5.838-8.688-8.107-9.227-2.378-.643-3.568-1.181-7.569 0-4.107 1.179-13.945 1.179-18.053-5.259l3.462-.535 2.915-1.18s-1.188 4.076 7.027 4.076c8.107 0 9.297 0 8.649-7.508l2.377-1.181 1.732 1.718s-1.19 4.076-.542 5.791c.542 1.716 3.461 2.897 5.731 4.612.974.752 1.73.859 2.378.859.972-.107 1.188-.107 2.487-1.395 1.944-2.145 1.511-2.038 3.458-3.753 0 0 .973-1.502 1.19-1.718l1.19 3.112Z"/><path fill="#D67C59" fill-rule="evenodd" stroke="#000" stroke-miterlimit="8" stroke-width="0.538268" d="M567.18 286.114c.43-.43 1.293-2.06 2.048-3.469 1.292-2.167 2.803-3.469 4.525-6.181 1.614-2.493 2.262-6.177 1.614-8.779l1.508.868.11 4.12s2.049-1.738 2.911-2.167l.86.431s-6.466 6.724-12.5 17.566l-1.079-2.384Zm-56.674-22.547c.862 1.513 1.726 4.446 4.31 6.721l1.724-.542s-3.986-4.661-3.986-6.72l-2.048.54m10.125-2.609s.538 5.53-.86 7.59l1.723-.863s1.184-3.795.86-5.857l-1.724-.866Zm56.792-17.454s-.326 7.805 1.186 12.577l2.044-.648s-.321-1.414 1.401-2.064c1.727-.541 5.819-2.275 7.866-4.011l-.644-1.733s-3.125 2.493-4.634 3.143c-1.4.544-2.262 1.191-3.448.869-1.187-.328-2.585-2.28-1.725-6.726Zm22.835 36.431s-.537 5.53-.214 7.917l1.832.434s-.429-6.614.752-7.157l-2.37-1.192m8.198 4.121s-2.047 3.579-4.417 3.905l3.771-.76s1.08-.541 2.696-2.274l-2.051-.869"/><path fill="#338A00" fill-rule="evenodd" stroke="#030" stroke-miterlimit="8" stroke-width="0.538268" d="m575.226 267.304 1.402.86 1.513.22s1.619 1.511 3.458 2.912c1.401 1.188 1.401-.216 1.401-.216l.863 3.454h1.19s-.325 2.267-.325 3.455l2.054-1.729 2.378 2.051s1.728-1.51 2.591-1.51c.863 0 1.19-.862 1.19-.862h.108c-5.727-2.701-8.209-5.506-6.483-8.421 2.811-4.857 7.456-1.729 8.968-1.078l20.962 11.224s1.404-.862.432-1.73c-1.084-.859-1.516-3.02-1.19-3.882.324-.863 2.7 2.696 3.887 3.02 1.19.326 3.889.759 3.889.759l-.108-1.08s3.458 2.373 3.458 3.562c0 0 2.485-1.294 1.62-2.051-.863-.754 3.783 1.837 4.106 3.241l.972-1.082c-.109 0 .325-3.455 1.513-5.074 1.083-1.616 2.269-2.05 2.269-2.05s1.083-1.836 2.161-1.836c0 0-1.084-.753-1.514-1.618-.54-.866-1.837-1.296-1.837-1.296s1.62-1.186 2.055-1.727c.431-.645.865-.758.865-.758s-2.486-2.047-4.217-2.369c0 0-.106-2.809-2.267-3.023h.973s-1.62-3.024-3.133-3.13c0 0 .972-1.079 1.837-1.189 0 0-1.838-2.373-4.321-1.509l1.62-.646s-1.189-1.294-4.861-.647c0 0 .324-1.511-1.295-2.7 0 0-1.404.107-1.404 1.187 0 0-1.296-1.187-2.916-1.187-1.621 0 .54 1.73.54 1.73s-2.161-1.406-3.459-.973c0 0 .54-2.482-.865-3.78 0 0-1.617.864-2.053 1.944l-.43-1.079s-2.162 2.591-2.592 1.835c-.324-.431-.648-2.265-.648-2.265l-1.294 1.944.214-2.702s-1.511.865-2.7 3.669c0 0-1.512 1.405-1.512 2.697 0 0-1.19-1.401-2.27 0-.973 1.511 0 1.19 0 1.19s-.433.536-1.513.754l.216.861s-1.404-.754-2.486-.429l.54 1.294s-2.81.217-2.916-2.047c0 0-2.377-1.19-2.702.106l-1.729 1.08s-.542-1.08-1.514-1.294c-1.083-.325-.216 1.4-.216 1.4s-.322-1.294-1.619-1.943c-1.295-.536-.216 1.19-.216 1.19s-1.728-1.405-.862-2.483c0 0-1.619 1.511-.863 2.916l-1.081.753s-.542-.538-.435-.97c.111-.434-1.836 1.294-1.836 1.294s-1.19-2.805 0-2.805c.108 0-2.053-.109-2.376 2.376 0 0-1.404.106-2.702.536-1.402.433.974 1.405.974 1.405s-2.054-.434-3.242.215l.757.973s-.757-.757-2.594-.111c-1.946.54.431.864.431.864s-1.943-.431-2.916 0c-.973.433.324 1.188.324 1.188s-3.567-1.08-4.107-.753c-.539.321 1.189 2.051 1.189 2.051s-2.161.538-2.591 2.158l1.943.753s-.86.431-1.296 1.297c-.428.863 1.296.43 1.296.43s-2.374 1.729-2.374 3.023c0 0 1.728.538 3.025-.756 1.295-1.294.431-.863.431-.863l.109.864s2.486-1.077 2.486-1.724c0-.542-.43.859-.43.859l2.485-1.295 1.619 1.083v-.003Z"/><path fill="#338A00" fill-rule="evenodd" stroke="#030" stroke-miterlimit="8" stroke-width="0.538268" d="m573.065 233.469-.539-2.356 5.497.639.969-2.248s2.585 1.177 3.449 2.032c0 0 5.063-1.285 6.574-.748l-.646 2.359s4.634.318 6.144.853c1.401.537-.646 1.716-.646 1.716s5.28.642 7.545 2.035c2.37 1.39 2.37 2.571 1.187 2.891l2.906 4.606s-4.632.535-5.495 1.712c-.862 1.179-1.724-1.176-1.724-1.176l-.862 3.213s-2.909-1.501-4.094-2.57c0 0-1.398 1.716-.538 2.57l-5.282-3.428s-2.265-.321-2.265 1.717c0 0-2.585-2.896-3.231-3.753l-2.913.858s-.858-1.176-1.938-1.5c-1.187-.211-.323 1.501-.323 1.501l-1.724-2.036-1.725-2.031s-1.51 2.032-2.695 2.032c-1.08 0-1.08-1.39-.862-2.356.323-.857-3.449-1.069-3.771 0 0 0-1.08-4.285 2.908-5.462l4.094-1.072Zm-20.898 14.677-1.833 1.717-1.079-.537-2.153 2.356-.432-1.288-1.187 1.93-1.83-.643-.862 1.393-1.615-.322s-1.401 1.288-2.264 1.608c-.86.217 0-1.927 0-1.927s-1.293 2.143-2.263 2.143c-.86 0-.537-.965-.537-.965s-.538 1.39-1.615 1.606c-.971.108-.54-1.07-.54-1.07l-1.727 1.285v-1.072l-.752-.32s.429-1.929 1.187-2.357c.752-.43-.756-1.712-.756-1.712l.752-.858s-2.156-.535-2.156-.105c0 0 1.081-2.891 2.585-3.433l.11-3.211s1.509-1.284 2.909-1.394c1.508-.215-.43-2.464-.43-2.464l3.448-2.032.43-2.464 5.28.425 1.079-2.248 4.205 1.07 3.554-1.822 2.585 3.001 3.879.322s-.105 2.676-.105 3.428c0 0 4.631 1.39 5.171 1.821 0 0-.862 2.785-.862 3.321 0 0 3.235-.859 4.205-.643 0 0 .324 3.001.429 3.749 0 0 5.495 1.716 5.82 2.68 0 0-1.186.748-1.832 1.712 0 0 .646 3.324.646 4.393l-.432.643s-1.616-1.5-2.909-1.714l-1.081 2.356-1.938-1.285-1.185.107s-.97-1.179-1.727-1.179l-.107-1.07-1.509.963s-2.371-1.179-2.371-1.929c0-.643.109-1.717.109-1.717l-2.479 1.717s-.538-1.285-.429-1.822c.108-.535-.971 1.287-.971 1.287s-1.294-2.251-1.186-2.68l-.324 1.821s-2.585-.853-2.908-2.569v-.003Z"/><path fill="#338A00" fill-rule="evenodd" stroke="#030" stroke-miterlimit="8" stroke-width="0.538268" d="M518.338 259.121s4.513 2.272 4.513 3.352c0 0 1.182-2.379.537-3.244l1.72 1.19s.533-2.16-.11-2.81c-.539-.54 3.865-2.374 4.833.542 0 0 2.687-2.81-2.471-5.189 0 0-.427-1.728 2.687-1.296 0 0-.215-1.081-.968-1.513h3.009s-1.826-1.514-4.512-1.946c-2.576-.433-.968-.754-1.075-1.299-.216-.54 0-2.485 0-2.485s-1.504-.54-2.687.108l.431-.542s-2.795-.754-3.865-.106c0 0-1.613-.648-1.397-2.379 0 0-1.612-.106-2.361 1.62 0 0-1.505 1.731-3.546 1.731-.427 0-1.932-.868-1.932-.868l-1.291 3.027-2.04-.106.644 1.187s-3.115-.86-4.083 0c0 0 1.182 1.84.859 3.133 0 0-2.471.436-3.008.868-.644.427.859.753.859.753s-2.793.865-3.44 1.731l1.077.86-1.29 1.734 1.077.213s-1.827.541-2.793.866c-.966.323 1.719.542 1.719.542l-1.288 1.186 2.042.322s-1.61 4.325-1.719 6.379c0 0 2.471-3.027 3.115-3.241l-1.932 3.241s3.654-1.187 3.976-1.731c.319-.648.642-1.187.642-1.187l.108 1.837s1.397-1.946 1.611-2.703c.11-.754 2.256.757 2.256.757v-1.084s1.935.648 2.576.759c.753.106.86-.325.86-.325l1.827-.216-.324 1.511s1.288-.863 1.608-1.729c.216-.865.859 0 .859 0l.857-3.458h1.825Zm-14.72 15.347 1.718 3.567c-1.395.106-3.437 1.727-3.437 1.727.321 5.946-1.18 5.62-1.18 5.62.425 1.081-.275 3.086-.275 3.086l8.545-5.138.109-.54 10.099-4.757.32.54 2.902-1.62 2.041 5.401-2.04 1.189c.109 1.838 2.256 5.082 2.256 5.082l2.686-.646 2.9-1.083s.109 1.62.109 1.083c0-.435 3.113-1.513 3.113-1.513l1.396 1.405c1.077-.107 3.007-2.704 3.007-2.704l2.256.867s.752-1.297.752-2.269c0-.865 2.793-.865 2.793-.865l1.935 1.402 2.471-2.05s.751 1.513 1.718 1.727c1.077.109 3.759 2.16 3.759 1.731 0-.431 1.183-2.81 1.183-2.81l4.511 1.837c-.642-2.053-2.146-4.537-2.146-4.537s2.146-1.726 1.719-2.16c-.429-.434-1.72 0-1.72 0l1.289-2.593h-1.719l.535-.646-2.792-1.188 1.503-3.027c-.644-.76-8.057-2.273-8.057-2.273l1.719-1.62s-.859-1.295-1.719-1.295c-.859 0-5.372.109-5.586-.321-.11-.434-1.936-2.057-1.936-2.057l-2.793 2.057-1.394-.434-2.471.974s0 1.404-.326.431c-.319-.867-2.576-3.133-2.576-3.133-.429.754-3.329 4.212-3.329 4.212s-.43 1.839-1.397.54c-1.077-1.296-3.331-2.7-3.654-1.62-.322 1.191-2.361 2.269-2.794 1.947-.426-.327-2.792-.109-3.007.539-.108.755-2.686 2.7-2.686 2.7-1.612-.754-4.192-.32-4.192-.32s-.75 1.186-.855 2.159l-5.264 1.403h.004v-.004Zm48.562 43.769v-2.27l2.577 1.728 1.504-1.731 1.933 1.944 1.182-1.944v3.137l2.901-2.592 1.716.754v-2.485s2.044-3.459 1.183-4.105l1.719-.54s-2.9-2.918-3.759-3.461c-.859-.647-2.041-.647-2.041-.647s-2.256-2.272-3.759-2.918c-1.397-.54-2.26.646-2.26.646s-.857-1.725-2.361-2.051c-1.394-.322-1.394 1.189-1.394 1.189s-1.077-1.083-2.471-1.622c-1.395-.644-.429 1.296-.429 1.296l-4.942-1.508.643 1.508-4.617-1.184.534 1.729-3.221-.544-.215 1.41-4.62.862.86 1.511-2.902-1.189v2.055l-3.223 1.187 1.183 1.083s-4.298 2.054-5.158 2.702c-.858.538 1.721 1.725 1.721 1.725l-4.621-.647 1.72 1.514-4.083 3.785 2.9 2.053-1.719 2.592 4.297.862 1.718 2.918 3.545-.648v3.239l5.157-4.103s3.761 3.349 4.083 2.376c.213-.863.213-3.781.213-3.781h1.827v-2.916l1.394 1.188 2.365-3.461 3.113 4.325 2.362-5.51 3.439.54Zm21.055-13.074-.536-4.971-1.503 1.513.641-4.646-2.36-.434.857-4.537-1.717-.866.426-2.16 1.721-1.297 3.115-3.027 7.194.114.859-2.379 5.158.865c.857.973 3.543-1.946 3.543-1.946h1.077l1.182 2.267s3.759-.542 5.477.647l-2.041 2.81 3.759.323 2.576.541 2.688-.865 3.438-.219.859 1.405h3.223l-1.074 1.296 4.189 1.943-.857.868s2.362.863 4.081.863h.858s.859 2.049-.323 2.915c0 0 1.182 2.919 3.759 3.461 2.578.54 2.578.54 2.9 1.186.325.541 0 3.46-2.899 3.46v2.921s-2.256 2.052-2.577 2.914l-1.721-1.19s-1.5 1.731-1.5 2.921c0 0-3.761-4.974-5.159-5.191-1.503-.322-1.182 2.811-1.182 2.811l-4.08-3.458-.539 2.376-3.437-2.916-2.042 1.4-3.654-3.781-3.543.436 1.393-1.839h-4.295l-.858-3.782-.644 3.134-2.576-1.728-3.331 3.673s-.428-.435-.967-2.162c-.535-1.73-2.041 2.051-2.041 2.051l-1.182-2.699-1.394 2.699s-1.182-2.051-2.365-2.699c-1.074-.54-2.254 3.239-2.575 4.97Zm.644 11.343.214-1.726 6.123-2.38 5.158-1.944 2.577-1.189 1.182 2.053 1.503-2.915 2.363 3.023 1.291-1.621 2.039 1.512h1.72l.322 2.273s4.297.321 4.618-.54c.324-.865.859 2.916.859 2.916l4.081.539.859 4.647s2.038 4.325 1.396 6.054c-.539 1.838-2.257-2.27-2.257-2.27s-.321 3.242-.644 4.107c-.214.862-5.478-.865-5.478-.865l-2.256 4.323s-2.363-3.459-3.437-3.459c-1.183 0-1.183 3.459-1.183 3.459s-3.438-4.107-4.941-5.838c-1.398-1.726-1.722 1.731-1.722 1.731s-2.254-3.784-2.254-4.864c0-1.187-2.042-2.38-2.042-2.38s-3.548 4.109-6.126 5.191c0 0 .323-2.595-.536-3.459-.857-.866-3.438 1.727-3.438 1.727s-1.827-3.998 0-8.106Z"/><path fill="none" stroke="#004B00" stroke-miterlimit="8" stroke-width="0.538268" d="m602.382 251.706.543 2.157s1.948-.432 3.248-.323c0 0-.324 1.725-.757 2.481 0 0 2.597-.431 3.789.322l-.541 1.293 3.034 1.296-2.817 2.265s4.546 1.615 5.415 2.912c0 0-2.923 2.049-3.357 1.943-.432-.218-.109.858.65 1.83l-2.491-.106s.974 2.266.864 3.127c-.108.863-4.116.645-4.116.645m15.59-5.817s.757-4.314-.431-5.393c0 0 2.815 2.374 4.656 2.48 1.949.111-.11-3.56-.11-3.56s2.708 1.402 4.007 1.726c1.299.215-.975-2.697-.975-2.697s.756-1.404 2.922-.109m-50.348-17.147s.106-.971-.328-1.509c-2.597-3.56 2.709 2.698 3.789 2.913m4.98-.005s1.732 1.294 2.599 1.294c.866 0-.541-3.453-.975-3.882-.432-.433 3.14 1.399 4.441 1.618 1.298.322 1.515-2.156 1.515-2.156s4.007.646 4.875 1.187m-27.836-.753s-.325-2.264-.431-3.235m-26.851 14.026c-.217-.432 1.086-2.374.543-3.236 0 0 .756.648 1.514.756.649.106.43-2.482.43-2.482l.868.322s2.275-1.081 1.841-1.943c-.436-.861 1.515 1.293 1.515 1.293s1.301-1.293 1.301-1.832c0-.545 1.514 1.291 1.514 1.291s1.623-.324 1.623-1.293c0-.97 2.058.322 2.058.322s.866-1.185.759-1.941m-21.875 10.789s.973-2.263-.11-3.773m-26.203 10.887c.109-1.077.649-3.99.109-4.423-.541-.427 1.086.433 2.383.757m10.28-.426c-1.297-1.296-2.058-1.942-4.112-1.942m-17.868 9.161c.326-.753.865-2.587.542-3.666m27.72 57.168 1.406-2.912 1.734 4.097 1.189-2.588.433.863 2.597-2.804 2.818 4.206m45.163-18.226 1.842-3.666 2.491 1.294 1.192-3.559 2.597 1.618 1.516-3.343 2.924.752.214-2.372s2.058 1.184 2.599 2.046c.648.866 0-2.908 0-2.908l2.381 1.077s1.733-1.728-.649-2.698"/><path fill="none" stroke="#004B00" stroke-miterlimit="8" stroke-width="0.538268" d="m594 294.648 2.581 3.717 2.152-2.441 1.939 4.138 2.476-1.486 3.55 2.017 1.614-1.273 3.876 2.761 1.614-3.289 3.444 1.061 2.259-3.819m-93-9.984s1.508-2.551.969-3.718c-.645-1.168 3.122 2.017 3.122 2.017s.858-2.548.321-3.714c-.645-1.169 4.307 3.398 4.307 3.398s.862-3.928 0-4.779c-.862-.85 4.736 1.169 4.736 1.169s2.263-.635 1.401-1.805c-.862-1.167 3.766 1.697 3.766 1.697s1.076-2.863 0-3.929c-1.185-1.165 3.444 1.382 3.444 1.382l-1.722-3.081 3.767.213-.321-3.398m33.367 49.044 2.476-1.169 2.153 2.125 2.367-3.714 2.905 2.758.431-2.758 3.122 1.275.645-1.702 3.444 1.808.322-2.549 1.721.532.324-1.701"/><path fill="#9DC9E2" fill-rule="evenodd" d="M526.628 442.996a76.064 76.064 0 0 1-6.623-14.227l47-40.77 47 40.659c-1.628 4.706-3.8 9.738-6.838 14.554l-.374.592c-1.18-.442-2.358-.889-3.535-1.341 0 0-1.519 1.39-2.71 1.496-1.628.215-3.04-1.389-3.04-1.389s-2.063 1.712-4.124 1.389c-2.062-.211-2.932-1.497-2.932-1.497s-2.169 1.711-3.691 1.39c-1.409-.326-2.387-1.288-2.387-1.288s-1.301 1.609-3.147 1.288c-1.735-.326-3.364-1.288-3.364-1.288s-2.71 1.175-4.449 1.391c-1.736.324-3.257-1.498-3.257-1.498s-2.279 1.498-3.147 1.498c-.868 0-4.124-1.498-4.124-1.498s-3.366 1.07-4.559 1.07c-1.088 0-4.449-1.388-4.449-1.388s-3.147.852-4.557.852c-1.521 0-3.692-.852-3.692-.852s-2.6 1.176-4.015.852a14.892 14.892 0 0 1-2.714-.852s-2.822 1.176-4.668.852c-1.736-.317-3.798-1.493-3.798-1.493s-.326.855-3.691 1.493h-.11"/><path fill="#FFF" fill-rule="evenodd" stroke="#000" stroke-miterlimit="8" stroke-width="0.752966" d="M567.505 340.5v47.479l-46.2 41.521c-4.478-13.225-4.799-25.039-4.799-30.134v-58.864h51"/><path fill="#FFE682" fill-rule="evenodd" stroke="#000" stroke-miterlimit="8" stroke-width="0.752966" d="M567.505 340.5v47.479l46.189 41.521c4.489-13.225 4.811-25.039 4.811-30.134v-58.864h-51"/><path fill="#D67C59" fill-rule="evenodd" stroke="#000" stroke-miterlimit="8" stroke-width="0.538268" d="M537.505 433.5c3.476 1.878 2.299 1.287 9.504 3.83 5.873 2.027 12.705 2.981 22.635 2.981 8.689 0 13.58-.687 16.331-1.443 2.855-.817 3.53-1.965 3.53-1.965l-7.152 7.24s-28.752 1.546-33.958-1.81c-2.026-1.067-6.406-4.577-10.89-8.834Z"/><path fill="none" stroke="#000" stroke-linecap="round" stroke-miterlimit="8" stroke-width="0.538268" d="M580.37 420.197s9.305 5.208 0 15.203m-41.864-1.17 13.414-12.55-1.515 16.801m7.028 1.261V411.9m22.937 28.066v-29.769m-11.58 30.302v-32"/><path fill="#D90F19" fill-rule="evenodd" stroke="#000" stroke-linejoin="round" stroke-miterlimit="10" stroke-width="0.538268" d="m557.549 412.877-6.044 1.919 6.044.639v-2.559m11.326-4.377-6.363 2.346 6.363.213Zm11.55 1.707-6.366 2.346 6.366.318v-2.666Zm3.775 13.541c-.323-1.279 3.778-1.17 3.778-1.17s1.187 4.259 0 6.922l-3.453-.639s.325-2.874-.324-5.114Z"/><path fill="#FFF" fill-rule="evenodd" stroke="#000" stroke-linejoin="round" stroke-miterlimit="10" stroke-width="0.538268" d="m540.506 432.524 11.171-10.949-.534 6.549s-5.743 3.754-5.743 6.438l-4.894-2.039m5.949 2.258s1.172-3.434 4.361-5.15l-.318 6.868-4.041-1.719Zm16.072-18.996s4.573-.644 7.979 0c0 0-.534 4.614 0 5.472 0 0-6.278-1.503-8.829.856 0 0-.851-4.293.851-6.328Zm-9.683 1.181s4.575-.643 7.979 0c0 0-.851 5.154-.32 6.012 0 0-5.108-2.9-7.659-.54 0 0-1.704-3.539 0-5.472Z"/><path fill="#FFF" fill-rule="evenodd" stroke="#000" stroke-linecap="round" stroke-linejoin="round" stroke-miterlimit="10" stroke-width="0.538268" d="M552.104 422.956s4.667-.536 8.142 0c0 0-.543 4.607 0 5.465 0 0-6.08-1.392-8.687.857 0 0-1.195-4.286.545-6.322Zm9.337-.853s6.731-.853 10.203-.319c0 0-1.41 3.749.328 6.32 0 0-7.274-1.928-9.988.32-.002 0-2.28-4.286-.544-6.322Zm-9.871 7.182 9.008.642s-.866 6.536-.325 7.393c0 0-7.272-1.717-8.686.64 0 0-2.388-5.998 0-8.677h.003Zm10.202 0s7.813-.537 11.398 0c0 0-2.066 4.931.218 9.214 0 0-10.207-2.889-11.621-.537 0 0-2.383-5.999 0-8.677Zm11.941-13.501s4.665-.642 8.142 0c0 0-.542 4.608 0 5.464 0 0-6.406-1.501-9.009.855-.002 0-.871-4.286.867-6.319Zm0 6.319s4.665-.536 8.142 0c0 0-.542 4.607 0 5.465 0 0-6.406-1.392-9.009.858 0 0-.871-4.286.867-6.321Zm.544 6.645s4.666-.639 8.248 0c0 0-1.195 7.178-.65 8.035 0 0-5.315-2.465-7.815-.318 0 0-1.517-5.678.218-7.717Z"/><path fill="#FFF" fill-rule="evenodd" stroke="#000" stroke-miterlimit="8" stroke-width="0.538268" d="M584.078 429.499s1.497 5.336 3.427 5.966l-2.57 3.034s-3.107-2.198-3.43-4.706c0 0 2.035-2.305 2.572-4.293Z"/><path fill="#006AC8" fill-rule="evenodd" d="M607.005 443.192c-7.458 12.616-19.674 24.458-39.782 31.806-20.435-7.456-32.865-19.849-40.218-32.355l.108-.11c3.351-.661 3.677-1.535 3.677-1.535s2.054 1.207 3.783 1.536c1.838.327 4.648-.878 4.648-.878s1.19.55 2.703.879c1.403.327 3.999-.877 3.999-.877s2.162.879 3.675.879c1.405 0 4.541-.878 4.541-.878s3.35 1.423 4.431 1.423c1.19 0 4.539-1.096 4.539-1.096s3.245 1.536 4.109 1.536c.863 0 3.135-1.538 3.135-1.538s1.512 1.865 3.241 1.537c1.731-.219 4.433-1.424 4.433-1.424s1.621.988 3.351 1.315c1.837.33 3.135-1.315 3.135-1.315s.972.988 2.378 1.315c1.513.33 3.674-1.425 3.674-1.425s.864 1.317 2.92 1.534c2.055.331 4.109-1.423 4.109-1.423s1.402 1.644 3.025 1.423c1.19-.109 2.701-1.534 2.701-1.534s2.703.875 3.675 1.207"/><path fill="none" stroke="#000" stroke-miterlimit="8" stroke-width="0.538268" d="M605.505 446.836c-1.622.126-1.841-1.11-1.841-1.11s-2.16 2.1-4.221 1.728c-2.163-.367-3.139-1.971-3.139-1.971s-2.274 2.096-3.79 1.725c-1.514-.247-2.596-1.482-2.596-1.482s-1.405 1.854-3.248 1.483c-1.841-.247-3.466-1.482-3.466-1.482s-2.922 1.362-4.764 1.729c-1.841.372-3.356-1.972-3.356-1.972s-4.222 1.603-5.086 1.603c-.976 0-4.008-1.604-4.008-1.604s-2.056 1.48-3.246 1.48c-1.298 0-4.764-1.727-4.764-1.727s-3.25.988-4.766.988-3.788-.989-3.788-.989-2.815 1.358-4.331.99c-1.515-.373-2.707-.99-2.707-.99s-3.03 1.358-4.87.99c-1.841-.373-4.007-1.727-4.007-1.727s-.324.862-3.895 1.727h-.111"/><path fill="#006AC8" fill-rule="evenodd" stroke="#000" stroke-miterlimit="8" stroke-width="0.645144" d="M538.493 451.498s-.302.707-3.124 1.33c-.06-.004-.765.166-.765.166.26-.047.472-.085.699-.133-.263.097-.529.186-.798.266 3.191 4.609 7.97 8.794 12.95 12.149 4.982 3.357 10.706 7.363 20.451 10.222 10.247-4.001 12.981-5.523 19.678-10.009 6.697-4.893 10.186-7.94 13.921-12.958-2.924 1.661-2.504 1.679-4.02 1.462-1.515-.322-2.626-1.429-2.626-1.429s-1.383 1.649-3.223 1.43c-1.84-.322-3.456-1.429-3.456-1.429s-2.404 1.635-4.786 1.528c-1.84-.11-3.358-1.728-3.358-1.728s-4.222 1.396-5.085 1.396c-.975 0-3.988-1.397-3.988-1.397s-2.068 1.296-3.256 1.296c-1.298 0-4.754-1.529-4.754-1.529s-3.238.865-4.752.865c-1.516 0-3.788-.863-3.788-.863s-2.699 1.188-4.321.864c-1.517-.322-2.726-.863-2.726-.863s-3.015 1.188-4.853.864c-1.839-.322-4.02-1.496-4.02-1.496Z"/><path fill="#006AC8" fill-rule="evenodd" stroke="#000" stroke-miterlimit="8" stroke-width="0.645144" d="M567.716 475.498c10.524-4.458 12.424-5.671 18.789-9.63-1.11.03-4.338-1.032-3.17-1.37 0 0-1.294 1.187-2.584 1.187-1.184 0-4.626-1.528-4.626-1.528s-3.225.871-4.731.871c-1.507 0-3.765-.871-3.765-.871s-2.798 1.201-4.303.871c-1.507-.324-2.691-.871-2.691-.871s-3.119 1.201-4.838.871c-1.83-.324-3.983-1.53-3.983-1.53s-2.647 1.428-4.309 1.592c5.086 3.79 10.438 7.491 20.212 10.408Z"/><path fill="#D67C59" fill-rule="evenodd" stroke="#000" stroke-miterlimit="8" stroke-width="0.538268" d="M524.431 344.513c-.738-.019-1.622.422-2.983 1.679-2.148 1.974-2.921 4.009-.102 6.469l13.963 12.931c2.038 2.019 4.89 2.388 6.086 3.435l14.193 14.781c1.788 1.573 2.645 2.689 1.633 4.033-1.121 2.211.08 2.51.336 2.577 1.942.445.887-.793 1.137-1.433.336-1.352 1.787-2.52 2.818-3.085.67-.266 1.037-.125 1.205.24.612.25 1.259-.683.357-1.667-.776-1.101-1.99.687-3.358.267 0 0-2.065-1.303-2.63-2.236-1.205-1.365-2.757-2.59-3.65-3.762-.946-1.086-4.505-5.88-9.923-11.397-1.557-1.036-1.203-4.953-2.319-6.169-.094-.848-10.832-11.671-14.663-15.586-.774-.58-1.362-1.058-2.1-1.077Z"/><path fill="none" stroke="#000" stroke-miterlimit="8" stroke-width="0.528714" d="m524.506 350.501 15 15"/><path fill="#E8E8E6" fill-rule="evenodd" stroke="#000" stroke-miterlimit="8" stroke-width="0.603885" d="M544.519 357.233c.231-.437.735-1.55 1.268-2.764.212-.48 4.226-6.783 6.226-6.968 0 0 12.483 8.941 12.493 9.059.042.482-5.415 8.518-5.891 7.908 0 0-14.624-6.045-14.095-7.235Z"/><path fill="#CCB8C8" fill-rule="evenodd" d="M551.897 359.228c-1.721-1.355-4.563-2.676-6.858-4.227l-1.033 2.181c.83.942 11.283 5.87 13 6.819 0 0-1.99-2.315-5.11-4.773Z"/><path fill="none" stroke="#000" stroke-miterlimit="8" stroke-width="0.422992" d="M545.506 355.501c1.368.913 3.968 2.478 5.611 3.391 3.147 2.087 5.139 4.386 7.389 5.609"/><path fill="#D67C59" fill-rule="evenodd" stroke="#000" stroke-miterlimit="8" stroke-width="0.538268" d="m520.506 393.793 28.469-35.041c.535-.486 3.174-.511 3.531 2.202L525.544 397.5c.002 0-3.069-.302-5.037-3.707ZM615.512 393.56c-.98.747-2.644.94-2.644.94-1.846-2.125-3.372-4.357-5.981-7.119l-28.382-34.118 2.934-2.763 25.553 29.228c.761.743 5.222 5.317 9.463 10.733.003.002.372 2.123-.944 3.103Z"/><path fill="#E8E8E6" fill-rule="evenodd" stroke="#000" stroke-miterlimit="8" stroke-width="0.538268" d="m588.503 357.733-4.61-5.232s-3.511.416-4.169 2.197c0 0-2.524 3.977-9.219 4.396 0 0 1.864 7.431 9.656 11.407 0 0 2.854-7.642 5.597-9.002 0 0 2.852-1.989 2.744-3.764Z"/><path fill="#D67C59" fill-rule="evenodd" stroke="#000" stroke-miterlimit="8" stroke-width="0.538268" d="M576.654 381.67c-.653-.218-1.307 0-2.289.545-.869.544-1.96.323-1.853-.763.111-.978 0-.867 1.2-1.626 1.745-.978 4.031-1.088 5.448-.544l-2.506 2.39m31.045-30.841c-.219-.758-.434-1.515.327-2.494.762-.868.762-2.39-1.093-1.63-1.852.762-2.505 2.824-.979 5.973l1.741-1.85Z"/><path fill="#E8E8E6" fill-rule="evenodd" stroke="#000" stroke-miterlimit="8" stroke-width="0.538268" d="m576.505 382.119 31.286-31.619 7.714 8.39s-1.585-.648-2.22-.219c-.528.431.634 2.044.634 2.044s-1.479-.537-2.113-.108c-.74.428 0 2.258 0 2.258s-1.267-.967-1.904-.539c-.526.433 0 2.473 0 2.473s-1.69-.535-2.11-.107c-.424.431 0 2.259 0 2.259s-1.694-.861-2.537 0c-.844.859.422 2.044.422 2.044s-2.114-.861-2.959.428c-.845 1.291.105 2.473.105 2.473s-1.69-.857-2.112-.431c-.423.431 0 2.473 0 2.473s-1.479-.86-2.43.219c-.953 1.183.105 2.15.105 2.15s-1.371-.863-2.115-.433c-.741.433.212 2.473.212 2.473s-1.372-.968-2.325 0c-.952 1.078 0 2.149 0 2.149s-1.164-1.075-2.325 0c-1.059 1.184 0 2.368 0 2.368s-1.689-.86-2.323 0c-.74.856.21 2.044.21 2.044s-1.267-.753-2.112-.327c-.842.433 0 2.367 0 2.367s-1.268-1.398-1.795-.643c-.634.752.106 2.58.106 2.58s-1.164-1.399-1.798-.643c-.739.645.422 2.258.422 2.258s-2.112-.968-1.584-.968Z"/><path fill="#4D4D4D" fill-rule="evenodd" d="m605.897 353.001-2.503 2.421.544 8.316s.544-2.421 1.304-.74c0 0 .219-1.998.763-1.681-.439-.213-.109-8.317-.107-8.317m-4.675 4.521-1.85 1.683.652 8.316s.546-3.157 1.305-.631c0 0-.11-2.104-.11-2.843.003.528.003-6.525.003-6.525m-19.477 18.639-1.741 1.787.436 5.053s.544-3.261 1.305-.738c0 0-.218-2.1-.218-2.84 0 .527.218-3.264.218-3.264"/><path fill="none" stroke="#4D4D4D" stroke-miterlimit="8" stroke-width="0.968609" d="M579.927 355.501c1.199 1.168 4.578 5.409 4.578 5.409m-3.046-3.073c-.217.638-.651 2.44-1.632 3.396m2.167-2.979c-.11.424-.11 1.804-1.632 3.185m2.178-2.538c-.218.74-.326 1.272-.87 1.803m1.202-1.168c0 .531-.324.637-.433.956m-3.594-2.979c-.435.423-3.597 2.439-5.34 3.077m4.461-1.909c-.434.426-2.397 1.911-3.487 2.336m3.166-1.063c-.653.427-1.744 1.486-2.613 1.804m1.96-.532c-.435.53-1.091.956-1.634 1.275"/><path fill="none" stroke="#4D4D4D" stroke-linecap="square" stroke-miterlimit="8" stroke-width="0.968609" d="M558.506 362.501c.374-.608 1.027-1.801 1.882-2.893 1.084-1.385 1.55-1.62 2.118-2.107"/><path fill="#358B03" fill-rule="evenodd" stroke="#060" stroke-miterlimit="8" stroke-width="0.538268" d="M454.237 449.677c1.617.75 0-5.263.537-7.517.647-2.363 5.284 5.799 7.551 6.875 2.373 1.18 16.822-5.694 16.822-5.694l3.451-6.443 1.834 5.26s3.989-4.618 5.176-6.335c1.187-1.717 0 3.438-1.187 5.155-1.187 1.721 3.451 2.365 2.91 5.8-.54 3.439 4.637-2.362 4.637-2.362l13.371 1.182s2.262-8.057 5.821-12.675l1.08 5.159 5.498-5.584c6.148 16.111 19.09 33.618 45.616 43.175 24.909-9.021 37.744-25.026 44.427-40.278l7.441 7.631s5.824-1.722 6.902-2.364c1.185-.539 13.695 4.404 13.695 4.404s2.264.859 3.452 1.721c1.184.857.321-3.761.321-3.761s6.363 1.18 5.823 4.618c0 0 1.403-3.221 2.59-3.758 1.187-.538 3.988 2.899 4.637 4.08.539 1.076 14.235 2.792 16.175 3.974 0 0 1.511 1.72 1.511 2.9 0 0 2.912-.323 5.177-.323 0 0-1.725.855-1.725 2.684 0 1.721-.863 3.118-2.589 3.973-1.725.861 0 1.502 2.265 1.721 2.373.319 0 3.219-4.637 4.941 0 0-1.079 2.576.863 3.433 0 0-3.993.326-4.637-.857 0 0-1.4 2.684-1.4 4.081 0 0-4.314-1.398-5.501-2.04 0 0-1.726 1.715-.54 2.575 0 0-7.87-.858-9.381-3.758 0 0-2.805.858-2.266 1.826 0 0-5.498-3.757-7.223-3.757l-1.188 1.928s-3.773-2.254-4.96-2.254c-1.081 0-.216 1.718-.216 1.718l-5.282-3.223-2.047 3.223s-4.314-2.042-5.5-2.899c-1.081-.859-1.399 1.717-2.264 2.037 0 0-1.726-2.359-4.098-2.037 0 0-.862 2.897-.538 3.758 0 0-6.687-1.395-7.871-1.721-1.188-.32-.539 1.397 0 2.58 0 0-4.961-1.396-6.041-2.259l-.323 2.259s-4.094-.324-4.958-1.182l-2.588 3.541h-3.774l-.862 3.114s-6.519-2.388-7.118-.757c-.539 1.179-.43 2.796-.43 2.796l-5.356-.357-1.643 2.876s-7.235-2.756-8.96-1.683c0 0-3.421 2.165-4.931 2.701-1.909-1.919-3.356-2.603-5.206-3.213-1.901-.298-6.038 2.252-7.549 1.393 0 0 0-2.043-1.184-2.578-1.081-.539-3.127-.539-3.993.86 0 0-.858-1.182-2.369-3.438-1.401-2.364-3.452.215-3.452.215l-.324-2.794-3.99-.323c-2.373-.322-2.911-2.365-2.911-2.365s-6.146.644-7.009.326l1.509-1.399s-8.41 1.722-10.133 1.078c-1.834-.537 1.939-2.901 1.939-2.901s-7.765-1.929-9.274-2.254c-1.4-.322-9.814 1.392-11.001 1.392-1.187 0-1.725-1.934-1.725-1.934s-2.051 1.72-3.776 2.258c0 0-1.401-3.435-.537-3.759 0 0-5.5 1.504-5.824 2.903 0 0-1.399-2.256-1.187-3.223 0 0-2.587 4.081-3.774 4.94-1.187.859-.216-2.041-.216-2.041s-3.233 4.08-4.42 4.403v-2.901s-9.275 4.94-11.861 4.299c0 0 0-2.045.861-2.579l-5.824-.323c-1.399-.213-3.127-.855-4.635-1.18-1.399-.217 2.05-1.717 4.422-1.074 0 0-6.47-2.363-8.413-1.182 0 0-.863-2.362 2.586-3.223 0 0-4.422-4.293-7.01-3.973 0 0 2.914-1.717 5.286-.861 0 0-2.697-7.299-4.423-8.159 0 0 6.148-1.074 7.873-.211Z"/><path fill="#D67C59" fill-rule="evenodd" stroke="#000" stroke-miterlimit="8" stroke-width="0.538268" d="m445.319 322.461 79.118-40.575c.379-2.098-.823-3.744-2.065-5.384-22.625 10.988-43.216 24.321-68.357 32.399-1.413.539-13.911 5.703-20.324 13.347-2.034 2.019-2.183 4.997-2.183 4.997s.156 3.417.881 4.34c0 0 .189.938 1.371 1.688-.013 0 .73.36 1.245.178.574.105 1.508.099 2.813-2.164 1.306-2.154 5.545-7.103 7.5-8.827Z"/><path fill="#E8E8E6" fill-rule="evenodd" stroke="#000" stroke-miterlimit="8" stroke-width="0.538268" d="m508.796 282.484 10.311-4.981s3.513 2.655 3.181 5.644c0 0 .769 6.86 9.219 11.618 0 0-7.134 8.961-19.638 9.738 0 0 1.434-11.829-1.197-15.261 0 0-.439.424-.248-.163.373-1.151-.254-5.098-1.855-5.967-.197-.109.126-.431.227-.629Z"/><path fill="none" stroke="#4D4B4D" stroke-miterlimit="8" stroke-width="0.860997" d="M520.522 284.502c-2.12.858-9.015 4.499-9.015 4.499m5.731-2.36c-.107 1.07-.743 3.642 0 5.464m-.959-5.139c0 .536-.848 2.464.107 5.037m-1.16-4.5c-.213 1.074-.423 1.717 0 2.896m-.855-2.253c-.212.642 0 .965 0 1.39m6.256-1.717c.317.856 3.182 5.356 4.88 7.178m-4.452-5.146c.319.858 1.909 3.965 3.075 5.146m-3.284-3.324c.423 1.072 1.272 3.001 2.12 4.071m-2.12-1.923c.213.858.636 1.93 1.272 2.681"/><path fill="#D67C59" fill-rule="evenodd" stroke="#000" stroke-miterlimit="8" stroke-width="0.538268" d="M591.054 263.538c-1.435.173-2.729 1.156-4.185 3.641-2.544 4.874-1.925 7.533 5.761 10.87h.003l28.838 14.148c5.78 2.814 7.861.21 11.122 1.63l56.918 29.044c4.882 2.138 7.616 2.822 6.914 5.352-.096 3.262 1.054 3.71 1.846 3.864 1.227.514 2.176.805 2.435-.616.187-.282-.155-.739-.518-1.337-.363-.599-.748-1.34-.654-2.185.094-.845.162-1.243.444-1.689.281-.446.774-.938 1.711-1.971.469-.516.911-.744 1.331-.785.421-.041.821.103 1.202.326.525.308.983.665 1.453.997 1.897-.154.207-2.852-1.109-3.878-2.864-1.345-3.191 1.707-6.208 1.385 0 0-5.393-2.051-7.335-3.456-3.576-1.95-8.57-4.264-9.705-5.533-3.634-.683-30.989-16.097-46.485-23.833-1.663-1.393-2.568-6.548-5.834-8.274-.96-1.391-21.938-10.987-32.909-16.481-2.021-.756-3.6-1.392-5.035-1.219Z"/><path fill="#AD7C59" fill-opacity="0.988235" fill-rule="evenodd" stroke="#000" stroke-miterlimit="8" stroke-width="0.538268" d="M499.123 289.51c-.216.649-.756.216-.756.434-.431 2.27-.324 3.459-.864 4.758-.757 1.515-3.46 2.923-3.351 2.813-2.161.649-4.754 3.247-8.968.866-.218-.107-.432-.326-.648-.541 0 0 1.186 4.435-3.135 6.597-1.514.759-16.755 8.767-16.755 8.767s-1.623 2.922-.542 6.924c.109.649.324 1.189-.324 1.623-.974.755-2.812 2.922-3.891 6.384 0 0-3.244-1.408-3.244-3.462 0-2.057 1.296-3.137 1.621-4.655.323-1.404 1.187-4.977.757-6.059-.432-1.191-2.378-1.623-3.135-2.056-.648-.436-1.514.431-1.404 1.404.109 1.084.863.864 1.729 1.084 0 0-.973 2.053-.863 3.568l-9.836 5.086s1.296 1.729 1.729 2.488c.43.757 1.402 10.82 4.324 15.582 2.918 4.761 3.891 3.463 4.539 4.112.54.54 1.403 1.403 2.161 2.056.757.542 4.107.863 4.757-.973.757-1.733 1.296-2.815 3.351-4.438 2.054-1.62 6.269-5.732 6.269-7.574 0 0 2.486 7.142 2.16 13.093 0 0 9.08 1.842 17.189 2.056 8.109.112 12.215-1.621 12.215-1.621s1.082-6.816.646-8.115c0 0 1.297 4.436 2.271 5.95 1.082 1.837 2.268 5.623 4.646 5.841 2.271.107 4.218-2.27 4.431-3.243v-7.142h9.189c0-.107 4.108 1.514 5.405 1.297 1.296-.109 2.053-1.297.863-1.731l-.43-.322c1.187 0 2.702.755 2.702.755h4.537c.111-.109 0-.436-.108-.543-.324-1.297-2.703-2.382-4.431-3.137-1.732-.646-3.676-1.406-4.973-1.513-2.053-.219-3.46-.106-6.595.434-.865.106-4.107.431-6.162 1.404-.542.326-1.084.432-.864-.973.325-1.517.217-8.332-1.403-11.254-1.19-2.054-1.081-3.787-.864-5.516.11-1.734.216-7.684 0-9.416-.326-1.73-2.704-4.112-7.024-4.653-4.108-.542-7.569-3.896-7.784-6.6-.324-2.703.434-7.68.865-9.843"/><path fill="#B68A6A" fill-rule="evenodd" stroke="#000" stroke-miterlimit="8" stroke-width="0.538268" d="M481.196 277.847c-.738 3.387-.738 6.355-.632 9.637.106 2.223 1.16 4.765 2.108 6.991.633 1.484 1.477 3.177 2.846 4.025 3.692 2.436 7.171-.212 9.174-1.059.95-.321 2.425-1.693 2.847-2.543.526-1.27.314-2.222.841-4.658-.106.104.843-.425.738-.425.949-1.589.738-2.117 1.264-3.179.529-1.06-.63-2.224-1.896-2.01.63-2.013 1.055-4.24.419-6.147-.21-.633.528-2.327-.63-1.907-4.746 1.907-10.332 1.484-15.393 1.484-.421 0-.738-.848-1.368-.739-.108 0-.213.316-.319.526"/><path fill-rule="evenodd" stroke="#000" stroke-miterlimit="8" stroke-width="0.538268" d="M479.965 279.193c-.545-.437-.655-1.422 0-3.506.764-2.076 0-2.19 1.202-3.394 1.201-1.207.872-1.756 1.636-2.081.762-.222 3.056-.222 3.82-.547.655-.332 1.638-.769 3.164-.986 1.637-.332 4.914-.222 6.441.654 1.639.875 2.731 3.069 3.713 3.834 1.095.764 1.749 3.943 1.531 8.55-.329 4.598-1.202 3.723-1.202 3.723s-1.311-2.191-2.401-.332c0 0 0-1.752.218-3.069.109-1.311-.655-3.723.109-5.367 0 0-6.224 1.973-9.389 1.863-3.275-.219-7.858-.987-8.077-1.752l-.766 2.409"/><path fill="#FFF" fill-rule="evenodd" stroke="#FFF" stroke-miterlimit="8" stroke-width="0.538268" d="M483.407 275.792c-.253-.719-1.524-3.36-.507-4.198.932-.722.338 3.236 1.611 4.076 0 0-.425 1.799-1.099.121Z"/><path fill="none" stroke="#000" stroke-miterlimit="8" stroke-width="0.538268" d="M487.441 284.506c-.515 1.67-.721 2.061-.928 3.043m10.718 1.566c.207.588.409.292.926.391m.411-3.824c.516-.588 1.235-.292.823 1.179"/><path fill="none" stroke="#000" stroke-miterlimit="8" stroke-width="0.538268" d="M480.514 281.506c.986.329 1.971.66 2.957 1.107 1.642.662.657 3.086.22 4.632-.22.776-1.098 2.099-.657 2.764.549.878 1.206.328 2.191.437 0-.329.657-.551.875-.551.766-.109 1.205.55 1.751.333.656-.334.549-1.328.329-1.877m-.112-4.859c.11-.438 1.096-.879 1.643-.993 2.298-.44 3.938-.773 5.803.553m-6.133 12.027c-1.861.442-3.831.77-5.583-.224m-.002-.872c.875-.443 1.205-.886 2.3-.334 0-.111 1.205-.441 1.205-.441.875 0 1.424.33 2.3.881m-5.912.328c.985-.332 3.613-.332 5.804.11"/><path fill="#FFF" fill-rule="evenodd" stroke="#000" stroke-linecap="round" stroke-linejoin="round" stroke-miterlimit="10" stroke-width="0.321155" d="M480.608 284.021c.774-.143 1.656-1.307 3.422.436 1.215 1.016-1.988 2.034-1.434 1.889-1.432.288-1.877-.725-1.984-1.601 0-.288-.221-.724 0-.724Zm9.048 1.155c.772-2.034 1.988-1.598 3.092-1.164 1.104.438.772.151 1.766.876-1.215.289-.883.432-1.768 1.012-.993.583-1.875.871-2.539.294-.221-.294-.772-.724-.772-1.306 0 .142.11.289.221.289Z"/><path fill-rule="evenodd" stroke="#000" stroke-miterlimit="8" stroke-width="0.322625" d="M482.392 285.298c.439 0 .77-.421.77-.843 0-.527-.331-.949-.77-.949-.548 0-.878.422-.878.949 0 .422.328.843.878.843Zm9.352.207c.438 0 .77-.418.77-.949 0-.525-.44-.839-.879-.839-.438 0-.77.314-.77.839 0 .534.441.95.88.95Z"/><path fill="none" stroke="#000" stroke-miterlimit="8" stroke-width="0.538268" d="M537.514 340.828c-.647-.736-1.083-1.051-1.946-1.364-.649-.311-1.515-.73-2.166-1.045-.757-.421-1.84-.523-2.489-.943m.432 2.724c-.325-.209-.54-.313-.863-.526-.326-.102-.758-.102-1.085-.208-.109 0-.109-.21-.216-.21-.974-.105-1.949-.526-2.595-1.359m-66.766-9.639c.972.73 3.352 2.306 3.569 5.343.217 1.57 1.085 3.14 1.085 3.14m-13.96-8.061c.542 1.778.649 7.644 6.384 13.826m-5.299-22c-.434 1.153-.975 2.2.215 3.037m15.366 11.005c1.191-2.62 4.869-2.411 4.869-4.923"/><path fill="none" stroke="#000" stroke-miterlimit="8" stroke-width="0.538268" d="M472.771 334.041c-.32-3.059-.959-4.804-.424-9.283.211-1.313.423-6.334 0-8.739 0 0 1.704 8.408-3.833 10.051m35.988 13.436c0-4.262.959-6.667.959-6.667 1.277-6.004-1.172-8.299-.213-9.828.85-1.309 2.13-4.043.426-9.505 0 0 2.98 11.254-4.686 11.254-7.771 0-7.451-2.95-7.451-2.95"/><path fill="none" stroke="#000" stroke-miterlimit="8" stroke-width="0.538268" d="M472.514 316.09c0 2.259 0 8.939 9.621 8.939 2.917 0 6.053-2.046 7.781-3.446m2.382-2.911c-.325-2.047-.325-4.63-.325-7.324m-14.487-3.651c2.593-.326 4.65-.645 9.516-.645m.324-6.689c.542 2.371-.323 6.138 4.108 6.678m4.647-7.535c-.648 1.725-.648 3.446-.865 4.63m.217 2.916c1.838 0 5.297-1.186 9.62-.324m1.515 24.115c.864 1.725 1.082 3.984 3.783 6.569m-33.725-12.062c.217 1.401-1.838 6.03-.325 9.802 1.404 3.765 1.19 8.075-1.19 11.735m7.029-20.13c-.863 1.721-2.378 3.446-2.703 4.953m7.017-1.725c0 1.078-2.915 9.261-4.972 11.521 0 0 3.782 1.507 3.24 7m7.789-22.288c0 1.401-.217 1.725.973 2.582m2.597 0c1.403 1.723 5.836 6.894 4.862 9.8m-7.784-6.89c.325 1.078.325 6.678-.648 9.478m-2.263-.217c-1.19 0-2.918.861-3.243 2.907m9.289-3.236c1.188-.323 3.564 1.721 3.564 7.539m16.656-10.872c-2.27.645-3.243 1.833-2.593 1.185-1.19.968-2.271 1.614-2.271 1.614"/><path fill-rule="evenodd" stroke="#000" stroke-miterlimit="8" stroke-width="0.322625" d="M477.609 324.201c.653 0 1.201-.4 1.201-.897 0-.402-.544-.799-1.201-.799-.547 0-1.095.397-1.095.8 0 .495.546.898 1.095.898Zm24.81.303c.547 0 1.095-.396 1.095-.897 0-.493-.546-.793-1.095-.793-.652 0-1.201.3-1.201.793 0 .502.548.898 1.201.898Z"/><path fill="#E8E8E6" fill-rule="evenodd" stroke="#000" stroke-miterlimit="8" stroke-width="0.538268" d="M468.383 368.506c1.278-8.376 5.219-15.355 5.325-16.001 0 0 4.046.861 11.076 1.503 6.922.749 8.84.429 12.035.211 3.089-.319 7.135-.855 7.135-.855s1.279 2.575 1.385 5.153c.319 5.476 2.341 29.209 2.554 35.544 0 0 .852 3.757.852 12.991 0 10.098 2.769 30.605 2.769 41.561l-2.768.539s-15.124 1.182-15.124-.859c0-2.252-.851-28.563 1.384-44.456 0 0-.532-3.114-1.384-5.8-.851-2.579-4.58-10.632-4.58-12.348 0 0-5.962 16.962-6.282 19.867-.319 2.683-1.172 40.479-1.706 43.598 0 0-8.627 6.657-9.799 7.303-1.169.538-9.478-3.546-9.691-4.617-.321-1.18.852-13.962 4.793-35.012 1.491-7.517.638-8.907.638-10.949 0-2.04.108-28.993 1.384-37.37Z"/><path fill="none" stroke="#000" stroke-miterlimit="8" stroke-width="0.538268" d="M482.559 405.795c-.637 2.355-1.702 4.6-3.722 6.101m-2.876-56.391c-.318 1.39-2.34 7.702-7.447 11.447m14.892-10.269c-1.171 3.745-5.744 23.86-6.598 47.717m-.314 7.493c-.213 2.245-1.382 18.938-1.702 21.824m-.849 3.211c-.533 1.174-2.872 10.908-2.872 19.577m33.72-37.767c-.213 2.032-1.067 16.474 3.723 29.419m-19.356-90.402c-.319 2.352-.85 17.546-.85 18.722 0 1.174 1.704 2.888 2.553 3.211 0 0-1.702.536-2.021 6.312m-4.262-13.588c-.322 1.816-2.023 8.987-3.194 11.876m13.724-26.743s5.107 1.07 5.425 0c0 0 1.702 31.03 4.043 48.25m-11.696-44.297c0 2.034-.637 17.333-.637 17.333m2.551 2.245s2.018 2.886 1.49 4.275m-18.618-29.52c1.704.534 3.192.854 3.192.854m5.424 1.712c-.321.856-.638 4.815-.638 4.815m9.15 40.869c.638.856 1.49 2.036.851 4.602"/><path fill="#D67C59" fill-rule="evenodd" stroke="#000" stroke-miterlimit="8" stroke-width="0.538268" d="M472.514 352.394s0-3.258 1.29-4.889c0 0 3.656.716 8.823 1.224 5.271.508 9.466.917 13.342.508 3.876-.405 7.859-1.32 7.859-1.32s1.074 4.786.534 5.498c0 0-4.197.815-8.821 1.017-4.736.304-12.589-.408-15.279-.811-3.554-.41-6.674-1.021-7.748-1.224Z"/><path fill="#FFF" fill-rule="evenodd" stroke="#000" stroke-miterlimit="8" stroke-width="0.538268" d="m476.513 352.924.624-5.418 1.046.111-.209 5.645Zm22.644-4.516.105 6.098 1.251-.229-.102-6.21Zm-16.07 0-.416 5.869h.731l.731-5.869Z"/><path fill="#653024" fill-rule="evenodd" stroke="#000" stroke-miterlimit="8" stroke-width="0.538268" d="M463.687 454.407c-.326 1.413-.867 3.372-1.087 5.875 0 .543-.541 3.481 1.087 3.588 1.195.109 1.521-3.047 1.521-3.047s-1.089 3.481.325 3.917c1.955.431 2.171-3.808 2.171-3.808-.218 1.198-1.521 4.245.326 4.565 1.954.33 2.498-4.133 2.498-4.133s-1.629 4.463.325 4.571c1.846.106 1.846-4.352 1.846-4.352s-.978 5.332 1.628 4.897c1.41-.218 1.738-2.069 2.064-3.156.433-1.629 1.411-3.696.218-7.069-.867-2.502-.542-3.154-.542-3.154s-3.042 2.285-5.43 3.806c-1.089.652-6.953-2.501-6.953-2.501Zm31.714-4.683c-.542-.328-.433 1.959-.651 3.043-.109 1.09.219 3.482 3.911 3.266 3.582-.329 7.168-1.089 9.448-.546 2.282.653 5.646.762 7.495.762 1.847 0 3.043-.216 3.907-.546.762-.322 2.391.439 3.149.439.762 0 1.956-1.198 1.847-1.96-.109-1.415-1.409-1.415-3.259-1.522-1.738-.217-4.126-.545-5.319-.979-1.196-.437-3.367-1.633-6.083-2.176 0 0-5.212.219-6.296.219-1.088 0-7.495.324-8.149 0Z"/><path fill="#AD7C59" fill-rule="evenodd" stroke="#000" stroke-linecap="round" stroke-linejoin="round" stroke-miterlimit="10" stroke-width="0.538268" d="M442.105 315.497c-.534.303-1.18-2.019.428-2.927 0 0 .428-1.917 2.144-2.12 0 0 1.391-1.817 3.432-1.613 0 0 2.355-1.513 3.214-1.313.857.101 3.003 2.119 3.108 2.827.216.704 0 1.917-.537 2.422-.643.604-1.073-.101-1.18-.908 0 0 .43 1.512-.856 2.118-1.285.709-1.18.205-1.285-.605 0 0-.324 1.617-1.18 1.818-.857.302-1.391-.405-2.038-.405 0 0 1.075.81.323 1.415-.751.506-1.608.301-2.145-.099-.537-.506-1.18-1.819-3.432-.605Z"/><path fill="#AD7C59" fill-rule="evenodd" stroke="#000" stroke-linecap="round" stroke-miterlimit="8" stroke-width="0.538268" d="M452.514 311.413c-.55-1.652-2.307-3.096-4.394-2.887m2.418 4.428c-.33-.413-.44-.827-.768-1.237-.99-1.549-3.078-1.443-4.835-1.857m2.634 4.646c-.659-.412-.878-1.239-1.539-1.545-1.101-.414-2.197-.929-3.516-.724"/><path fill="#653024" fill-rule="evenodd" stroke="#000" stroke-miterlimit="8" stroke-width="0.538268" d="M635.941 289.571c.756-.325.541.648.648.973.325 1.403.325 2.92.863 4.215.645 1.189.862 1.621 1.943 2.161 1.727.973 6.803 3.784 10.37 1.513.217-.106.539-.325.756-.54 0 0-1.295 4.432 3.132 6.594 1.402.754 16.636 8.755 16.636 8.755s1.619 2.919.647 6.918c-.217.648-.431 1.187.216 1.621 1.083.754 2.807 2.919 3.999 6.378 0 0 3.127-1.407 3.127-3.459 0-2.055-1.295-3.134-1.619-4.648-.212-1.406-1.078-4.973-.644-6.052.43-1.188 2.267-1.621 3.023-2.057.758-.436 1.62.43 1.403 1.402-.108 1.084-.862.868-1.728 1.084 0 0 1.083 2.05.864 3.564l9.936 5.08s-1.295 1.732-1.729 2.486c-.541.76-1.513 10.809-4.427 15.566-2.92 4.757-3.891 3.46-4.43 4.108-.648.539-1.512 1.406-2.269 2.054-.648.542-3.997.866-4.753-.972-.756-1.729-1.296-2.812-3.348-4.434-2.053-1.618-6.264-5.726-6.264-7.565 0 0-2.485 7.138-2.161 13.079 0 0-8.964 1.84-17.175 2.058-8.103.108-12.208-1.623-12.208-1.623s-1.081-6.809-.648-8.107c0 0-1.295 4.431-2.158 5.944-1.189 1.835-2.375 5.62-4.646 5.835-2.375.111-4.213-2.268-4.534-3.24v-7.135h-9.181c0-.106-3.999 1.513-5.401 1.299-1.296-.111-1.945-1.299-.863-1.731l.432-.323c-1.189 0-2.701.754-2.701.754h-4.536c0-.109.109-.436.109-.542.327-1.294 2.703-2.379 4.537-3.134 1.729-.645 3.563-1.405 4.861-1.511 2.053-.216 3.458-.106 6.59.433.862.106 4.212.434 6.156 1.404.539.323 1.187.431.863-.971-.324-1.515-1.295-5.947.326-8.866 1.081-2.054.973-3.782.863-5.514-.216-1.835-1.187-5.945-1.187-7.78 0-6.055 4.646-8.54 8.749-9.838 4.536-1.403 7.56-2.92 7.348-5.618-.111-2.811.645-7.457.214-9.622"/><path fill="#653024" fill-rule="evenodd" stroke="#000" stroke-miterlimit="8" stroke-width="0.538268" d="M654.25 277.854c.961 3.515 1.175 4.368 1.175 5.541 0 1.277-.535 1.492-.109 2.88.747 2.555-.747 5.327-2.559 8.311-.854 1.383-1.495 3.197-2.881 4.049-3.521 2.236-7.79-.427-10.03-1.39-1.171-.529-1.814-1.382-2.132-2.236-.427-1.277-.535-2.45-.853-4.154 0-.321.108-1.278-.639-.96-1.28-1.491-1.067-2.13-1.598-3.194-.534-1.07.961-2.241 2.134-2.027-.64-2.024-.96-4.264-.32-6.183.213-.637-.533-2.341.534-1.919 4.8 1.919 10.456 1.494 15.578 1.494.423 0 .745-.851 1.384-.744.102 0 .21.32.315.532"/><path fill-rule="evenodd" stroke="#000" stroke-miterlimit="8" stroke-width="0.538268" d="M654.242 279.199c.526-.437.211-2.518-.317-4.708-.21-1.094-1.054-1.532-2.212-2.735-1.161-1.207-1.58-1.207-2.317-1.532-.631-.223-2.106-.223-2.844-.549-.632-.33-2.318-.112-3.901.11-2.109.327-3.265.217-4.847 1.095-1.58.876-2.843 1.862-3.372 3.504-.42 1.203-1.16 2.735-.843 7.335.213 4.596 1.057 3.721 1.057 3.721s1.16-1.751 1.897-.657c0 0-.106-2.41-.316-3.83-.106-1.315 0-2.957.529-4.928 0 0 4.845 1.863 9.377 1.863 3.162 0 7.271-.329 7.378-1.094l.735 2.405Z"/><path fill="none" stroke="#000" stroke-miterlimit="8" stroke-width="0.538268" d="M648.08 284.506c.647 1.731.11 1.221.433 2.339m-10.917 2.029c0 .811-.648.609-1.083.609"/><path fill="none" stroke="#000" stroke-miterlimit="8" stroke-width="0.538268" d="M654.513 282.896c-.952-.769-2.747-.22-3.593.11-1.583.766-.739 2.416-.212 3.951.212.766 1.059 1.862.53 2.631-.422.877-.739.442-1.691.55.108-.331-.843 0-1.159 0-.634-.108-.95.436-1.48.219-.631-.329-.527-1.316-.318-1.865m.104-4.83c0-.435-1.37-.874-2.85-.987-2.323-.11-2.535.112-4.331 1.426m11.937 9.654c-.421-.656-1.057-.988-2.219-.437 0-.22-1.583-.438-1.583-.438-.844 0-1.372.326-2.218.766m5.802.659c-.952-.658-3.381-.216-5.811-.216m.214.873c1.796.552 3.593.88 5.387 0"/><path fill="#FFF" fill-rule="evenodd" stroke="#000" stroke-linecap="round" stroke-linejoin="round" stroke-miterlimit="10" stroke-width="0.322625" d="M654.414 283.999c-.779-.136-1.113-1.253-3.448.419-1.224.835 2.004 1.952 1.558 1.812 1.335.277 1.781-.695 1.892-1.535-.002-.278.221-.696-.002-.696Zm-9.119 1.109c0-1.117-2.001-1.533-3.113-1.117-1.116.419-.667.144-1.669.839 1.115.278.779.415 1.669.972.999.558 1.224 1.114 2.558.282.334-.144.777-.695.888-1.254-.109.137-.221.278-.333.278Z"/><path fill-rule="evenodd" stroke="#000" stroke-miterlimit="8" stroke-width="0.322625" d="M652.743 285.299c-.479.006-.872-.361-.879-.82v-.024c0-.526.332-.949.879-.949.438 0 .77.423.77.949 0 .423-.332.844-.77.844Zm-9.46.207c-.439 0-.77-.418-.77-.949 0-.527.436-.84.878-.84.443 0 .77.313.77.84 0 .532-.328.949-.878.949Z"/><path fill="none" stroke="#000" stroke-miterlimit="8" stroke-width="0.538268" d="M597.472 340.827c.647-.735 1.083-1.05 1.947-1.363.649-.311 1.514-.73 2.165-1.046.758-.42 1.84-.522 2.489-.942m-.432 2.724c.326-.21.54-.313.864-.526.325-.102.757-.102 1.085-.209.108 0 .108-.21.215-.21.975-.104 1.949-.525 2.596-1.358m66.765-9.64c-.972.731-3.352 2.306-3.569 5.344-.217 1.57-1.085 3.14-1.085 3.14m13.96-8.061c-.542 1.777-.648 7.643-6.384 13.825m5.3-22c.434 1.153.974 2.2-.215 3.038m-15.367 11.005c-1.19-2.62-4.869-2.411-4.869-4.923"/><path fill="none" stroke="#000" stroke-miterlimit="8" stroke-width="0.538268" d="M662.214 334.041c.32-3.06.959-4.804.424-9.283-.211-1.313-.422-6.334 0-8.739 0 0-1.703 8.408 3.834 10.05m-35.989 13.437c0-4.262-.958-6.667-.958-6.667-1.277-6.004 1.172-8.299.212-9.828-.85-1.31-2.13-4.043-.426-9.505 0 0-2.98 11.254 4.686 11.254 7.771 0 7.452-2.95 7.452-2.95"/><path fill="none" stroke="#000" stroke-miterlimit="8" stroke-width="0.538268" d="M662.473 316.09c0 2.26 0 8.94-9.622 8.94-2.916 0-6.053-2.047-7.78-3.447m-2.383-2.911c.325-2.047.325-4.63.325-7.324m14.487-3.65c-2.593-.327-4.65-.646-9.515-.646m-.324-6.69c-.542 2.372.323 6.14-4.108 6.679m-4.648-7.535c.649 1.725.649 3.446.865 4.63m-.216 2.916c-1.839 0-5.297-1.186-9.62-.324m-1.516 24.115c-.864 1.724-1.082 3.984-3.783 6.568m33.726-12.061c-.217 1.401 1.838 6.03.325 9.802-1.405 3.765-1.19 8.075 1.19 11.735m-7.03-20.13c.864 1.721 2.378 3.446 2.703 4.953m-7.017-1.725c0 1.078 2.916 9.26 4.973 11.521 0 0-3.783 1.507-3.241 7m-7.788-22.288c0 1.4.216 1.725-.974 2.582m-2.597 0c-1.402 1.723-5.835 6.894-4.862 9.8m7.784-6.89c-.325 1.078-.325 6.678.649 9.478m2.263-.217c1.19 0 2.918.861 3.243 2.907m-9.29-3.236c-1.187-.323-3.564 1.721-3.564 7.539m-16.655-10.872c2.27.645 3.243 1.833 2.592 1.185a21.486 21.486 0 0 0 2.272 1.614"/><path fill-rule="evenodd" stroke="#000" stroke-miterlimit="8" stroke-width="0.322625" d="M657.376 324.2c-.653 0-1.2-.399-1.2-.897 0-.401.544-.798 1.2-.798.548 0 1.096.397 1.096.8 0 .495-.546.898-1.096.898Zm-24.809.304c-.548 0-1.095-.396-1.095-.897 0-.493.545-.793 1.095-.793.652 0 1.2.3 1.2.793 0 .502-.547.898-1.2.898Z"/><path fill="#E8E8E6" fill-rule="evenodd" stroke="#000" stroke-miterlimit="8" stroke-width="0.538268" d="M666.602 368.506c-1.277-8.376-5.219-15.355-5.325-16 0 0-4.046.86-11.076 1.502-6.922.75-8.84.43-12.035.211-3.089-.319-7.135-.855-7.135-.855s-1.28 2.575-1.385 5.153c-.32 5.476-2.34 29.209-2.554 35.544 0 0-.851 3.757-.851 12.991 0 10.098-2.77 30.605-2.77 41.561l2.769.538s15.123 1.183 15.123-.858c0-2.252.851-28.563-1.384-44.456 0 0 .532-3.114 1.384-5.8.851-2.579 4.58-10.632 4.58-12.348 0 0 5.962 16.962 6.282 19.867.32 2.683 1.172 40.48 1.706 43.598 0 0 8.627 6.657 9.8 7.303 1.169.538 9.477-3.546 9.69-4.618.32-1.18-.852-13.962-4.792-35.011-1.492-7.517-.639-8.907-.639-10.95 0-2.04-.108-28.993-1.384-37.369Z"/><path fill="none" stroke="#000" stroke-miterlimit="8" stroke-width="0.538268" d="M652.426 405.795c.638 2.355 1.703 4.6 3.723 6.101m2.876-56.39c.317 1.39 2.34 7.7 7.447 11.446m-14.893-10.27c1.171 3.746 5.744 23.86 6.599 47.718m.313 7.493c.214 2.245 1.383 18.938 1.703 21.824m.849 3.21c.533 1.175 2.871 10.91 2.871 19.578m-33.72-37.767c.214 2.032 1.067 16.474-3.722 29.419m19.356-90.402c.319 2.352.85 17.546.85 18.722 0 1.174-1.704 2.888-2.554 3.211 0 0 1.703.536 2.022 6.312m4.262-13.588c.322 1.816 2.022 8.987 3.194 11.876m-13.724-26.743s-5.107 1.07-5.425 0c0 0-1.703 31.03-4.043 48.25m11.695-44.297c0 2.034.638 17.333.638 17.333m-2.551 2.245s-2.019 2.886-1.49 4.275m18.618-29.52a40.279 40.279 0 0 1-3.192.854m-5.425 1.712c.322.855.638 4.815.638 4.815m-9.15 40.87c-.637.855-1.49 2.035-.85 4.601"/><path fill="#D67C59" fill-rule="evenodd" stroke="#000" stroke-miterlimit="8" stroke-width="0.538268" d="M662.472 352.394s0-3.258-1.29-4.889c0 0-3.657.716-8.823 1.224-5.272.508-9.467.917-13.343.508-3.875-.405-7.858-1.32-7.858-1.32s-1.075 4.786-.534 5.498c0 0 4.196.814 8.82 1.017 4.737.304 12.59-.408 15.28-.81 3.553-.411 6.673-1.022 7.748-1.225Z"/><path fill="#FFF" fill-rule="evenodd" stroke="#000" stroke-miterlimit="8" stroke-width="0.538268" d="m658.473 352.924-.624-5.418-1.046.11.21 5.646Zm-22.644-4.516-.105 6.098-1.252-.229.103-6.21Zm16.07 0 .416 5.87h-.73l-.732-5.87Z"/><path fill="#653024" fill-rule="evenodd" stroke="#000" stroke-miterlimit="8" stroke-width="0.538268" d="M670.319 454.407c.32 1.413.853 3.371 1.069 5.875 0 .543.532 3.481-1.07 3.588-1.175.11-1.496-3.047-1.496-3.047s1.071 3.481-.32 3.917c-1.923.431-2.135-3.808-2.135-3.808.214 1.198 1.496 4.244-.322 4.565-1.922.33-2.457-4.133-2.457-4.133s1.602 4.463-.32 4.57c-1.817.107-1.817-4.35-1.817-4.35s.964 5.33-1.601 4.896c-1.387-.218-1.71-2.069-2.03-3.156-.427-1.63-1.389-3.696-.215-7.069.853-2.502.533-3.154.533-3.154s2.993 2.285 5.343 3.806c1.07.652 6.841-2.501 6.841-2.501Zm-31.203-4.683c.533-.328.426 1.959.64 3.043.108 1.09-.215 3.482-3.848 3.266-3.523-.329-7.052-1.089-9.294-.546-2.246.653-5.556.762-7.375.762-1.817 0-2.994-.216-3.844-.546-.75-.322-2.353.439-3.098.439-.75 0-1.924-1.198-1.817-1.96.107-1.415 1.386-1.415 3.206-1.522 1.71-.217 4.06-.546 5.233-.98 1.177-.436 3.313-1.632 5.985-2.175 0 0 5.128.219 6.194.219 1.072 0 7.375.324 8.018 0Z"/><path fill="#653024" fill-rule="evenodd" stroke="#000" stroke-linecap="round" stroke-miterlimit="8" stroke-width="0.538268" d="M691.299 319.455c.548.226 2.087-2.235.548-3.353 0 0-.548-2.125-2.305-2.237 0 0-1.426-2.125-3.515-1.792 0 0-2.305-1.676-3.181-1.561-.989.22-3.184 2.458-3.295 3.243-.11.668 0 2.012.548 2.682.659.561 1.101-.114 1.209-1.121 0 0-.438 1.682.876 2.462 1.317.781 1.209.11 1.317-.78 0 0 .331 1.787 1.209 2.124.877.333 1.426-.449 2.088-.449 0 0-1.101.895-.33 1.455.769.67 1.645.333 2.196-.115.658-.445.329-1.899 2.633-.56Z"/><path fill="#653024" fill-rule="evenodd" stroke="#000" stroke-linecap="round" stroke-linejoin="round" stroke-miterlimit="10" stroke-width="0.538268" d="M681.513 315.475c.547-1.777 2.415-3.239 4.396-2.927m-2.31 4.499c.219-.421.329-.838.659-1.257.989-1.566 3.186-1.566 4.946-1.882m-2.752 4.598c.66-.419.88-1.149 1.541-1.459 1.101-.527 2.309-.942 3.52-.734"/><path fill="#653024" fill-rule="evenodd" d="M681.127 312.006c-.975.766-1.999 1.924-2.074 2.44-.112.652-.009 1.956.544 2.61.599.493 1.034-.019 1.192-.836-.065.495-.078 1.567.917 2.14 1.328.759 1.217.101 1.328-.771 0 0 .338 1.751 1.224 2.076.884.327 1.441-.435 2.109-.435 0 0-1.117.861-.34 1.405.775.652 1.656.331 2.209-.101.664-.439.327-1.844 2.656-.535.289.112.874-.485 1.121-1.238l-8.367-5.917Z"/><path fill="#653024" fill-rule="evenodd" stroke="#000" stroke-miterlimit="8" stroke-width="0.538268" d="M680.093 313.602c-1.597 2.948.532 4.717 1.238 2.991-.205 2.722 1.708 2.614 2.431 1.754.698 2.868 1.946 1.593 3.092 1.329-1.3 2.614 1.575 1.838 2.255 1.235.983-1.554 1.442-.316 2.166-.475l1.238-1.423m-8.484-6.507c-1.794 1.023-2.672 2.44-2.697 4.224m5.175-2.511c-1.795 1.022-2.672 2.439-2.697 4.223m5.749-1.998c-1.794 1.024-1.877 1.966-2.651 3.226"/><path fill="#FFE682" fill-rule="evenodd" d="M567.059 512.993c24.113.214 38.367-8.472 46.189-13.662 18.325-12.177 22.184-12.6 25.186-12.391 3.429.322 8.462 1.484 8.679 4.451.322 4.554-7.18 6.565-11.468 6.565-4.392 0-15.861-2.86-15.861-2.86l-3.003 2.015c2.037.954 25.507 8.682 30.008 1.377 4.605-7.414 9.216-19.383 9.216-19.383s-5.144-9.107-16.613-9.107c-11.573 0-22.826 7.202-30.325 12.599-7.505 5.402-16.933 12.815-42.012 12.815-25.076 0-34.613-7.413-42.113-12.815-7.499-5.399-18.755-12.6-30.22-12.6-11.572 0-16.717 9.107-16.717 9.107s4.607 11.969 9.215 19.383c4.5 7.304 27.972-.425 30.005-1.378l-2.893-2.015s-11.573 2.86-15.862 2.86c-4.394 0-11.896-2.011-11.574-6.564.215-2.966 5.25-4.132 8.68-4.45 3.002-.209 6.86.215 25.184 12.391 7.826 5.189 22.079 13.557 46.298 13.662"/><path fill="#FFE682" fill-rule="evenodd" d="M527.821 484.835s0-2.031-.328-5.014c-.433-3.84-2.708-4.8-4.55-4.265-1.193.421-3.576 3.306-3.576 3.306v.107a34.688 34.688 0 0 0-3.362-2.026c.868-.961 5.854-3.946 7.046-3.946 1.086 0 16.043 5.971 20.81 10.023 1.193 1.069 2.062 7.681 1.408 9.811-8.02-2.025-13.222-5.01-17.452-7.891v-.107m-7.156 14.939s-3.253 3.197-3.359 9.065c-.11 6.932 4.986 7.254 8.346 7.146 4.012-.109 7.261-2.346 7.155-9.705 0 0-6.615-2.775-12.143-6.507m85.534-14.936s.109-2.031.435-5.014c.429-3.84 2.599-4.8 4.442-4.265 1.193.421 3.577 3.306 3.577 3.306v.107a34.295 34.295 0 0 1 3.357-2.026c-.864-.961-5.849-3.946-6.936-3.946-1.191 0-16.148 5.971-20.918 10.023-1.087 1.069-1.953 7.681-1.409 9.811 8.13-2.025 13.222-5.01 17.452-7.891v-.107m7.149 14.939s3.252 3.197 3.361 9.065c.216 6.932-4.989 7.254-8.346 7.146-4.013-.109-7.155-2.346-7.155-9.705 0 0 6.613-2.775 12.142-6.507"/><path fill="#171696" fill-rule="evenodd" d="M513.471 494.89s-11.521 2.924-15.827 2.924c-4.413 0-11.952-2.053-11.629-6.712.217-3.032 5.277-4.22 8.723-4.545 2.583-.22 5.922.107 18.735 8.333m106.066 0s11.52 2.924 15.937 2.924c4.307 0 11.842-2.053 11.519-6.712-.213-3.032-5.274-4.22-8.72-4.545-2.585-.22-5.924.107-18.736 8.333m-91.959-10.289c-1.185-.865-2.369-1.734-3.448-2.596-1.614-1.193-3.23-2.277-4.953-3.465 0 0 2.368-3.032 3.551-3.358 1.831-.648 4.091.322 4.519 4.221.326 3.032.326 5.201.326 5.201m-7.858 30.534c2.048 1.191 4.307 1.085 5.708.975 3.985-.109 7.214-2.382 7.107-9.851 0 0 4.951 2.49 13.028 4.439 0 0 1.292 1.622 1.506 4.869.326 2.71-1.507 5.629-3.659 5.416 0 0-11.307-2.058-18.196-3.245-3.985-.758-5.493-2.601-5.493-2.601m85.714-30.539c1.182-.865 2.368-1.734 3.55-2.596 1.508-1.193 3.122-2.277 4.845-3.465 0 0-2.367-3.032-3.552-3.358-1.831-.648-3.984.322-4.413 4.221-.325 3.031-.432 5.2-.432 5.2m7.854 30.535c-2.046 1.191-4.307 1.085-5.707.975-3.984-.109-7.106-2.382-7.106-9.851 0 0-4.953 2.49-12.923 4.439 0 0-1.397 1.622-1.614 4.869-.214 2.71 1.617 5.629 3.662 5.416 0 0 11.413-2.058 18.197-3.245 3.984-.758 5.491-2.601 5.491-2.601"/><path fill="none" stroke="#000" stroke-miterlimit="8" stroke-width="0.752966" d="M567.56 513.493c24.114.212 38.368-8.474 46.19-13.661 18.325-12.177 22.184-12.599 25.184-12.389 3.431.317 8.469 1.483 8.679 4.447.324 4.553-7.178 6.563-11.467 6.563-4.393 0-15.86-2.855-15.86-2.855l-3.001 2.013c2.037.954 25.504 8.683 30.005 1.374 4.609-7.412 9.215-19.379 9.215-19.379s-5.143-9.109-16.611-9.109c-11.573 0-22.826 7.204-30.328 12.604-7.501 5.401-16.929 12.813-42.009 12.813-25.077 0-34.614-7.414-42.114-12.813-7.501-5.4-18.757-12.604-30.221-12.604-11.573 0-16.717 9.11-16.717 9.11s4.606 11.966 9.216 19.379c4.5 7.306 27.972-.422 30.006-1.374l-2.892-2.014s-11.577 2.855-15.86 2.855c-4.396 0-11.897-2.007-11.577-6.563.216-2.967 5.251-4.13 8.682-4.45 2.998-.21 6.857.215 25.182 12.39 7.827 5.191 22.079 13.558 46.298 13.662Z"/><path fill="none" stroke="#000" stroke-miterlimit="8" stroke-width="0.752966" d="M513.974 495.55s-11.524 2.947-15.827 2.947c-4.415 0-11.953-2.073-11.632-6.765.217-3.057 5.277-4.258 8.723-4.582 2.583-.221 5.922.108 18.737 8.4Zm106.062 0s11.523 2.947 15.938 2.947c4.307 0 11.843-2.073 11.521-6.765-.216-3.057-5.274-4.258-8.719-4.582-2.584-.221-5.925.109-18.735 8.4Zm-91.953-10.371c-1.185-.873-2.369-1.749-3.449-2.617-1.611-1.203-3.228-2.295-4.953-3.493 0 0 2.371-3.057 3.554-3.385 1.831-.654 4.09.325 4.519 4.258.328 3.051.328 5.238.328 5.238Z"/><path fill="none" stroke="#000" stroke-miterlimit="8" stroke-width="0.752966" d="M528.528 485.335s0-2.029-.334-5.014c-.439-3.84-2.755-4.8-4.629-4.265-1.214.425-3.641 3.306-3.641 3.306v.107a36.286 36.286 0 0 0-3.417-2.026c.881-.961 5.954-3.946 7.168-3.946 1.105 0 16.32 5.971 21.172 10.026 1.214 1.07 2.095 7.679 1.432 9.813-8.161-2.031-13.453-5.016-17.758-7.893m-7.277 14.829s-3.306 3.197-3.417 9.066c-.111 6.928 5.073 7.252 8.491 7.145 4.08-.108 7.385-2.345 7.28-9.709 0 0-6.728-2.774-12.352-6.507Z"/><path fill="none" stroke="#000" stroke-miterlimit="8" stroke-width="0.752966" d="M524.359 501.497s-2.433 2.847-2.84 7.516c-.202 3.646 1.928 5.694 4.667 5.466 3.854-.223 5.378-6.147 3.55-9.451Z"/><path fill="none" stroke="#000" stroke-miterlimit="8" stroke-width="0.752966" d="M520.505 515.64c2.046 1.191 4.301 1.083 5.701.975 3.979-.111 7.202-2.383 7.099-9.853 0 0 4.948 2.49 13.013 4.439 0 0 1.292 1.623 1.504 4.873.325 2.706-1.504 5.629-3.653 5.412 0 0-11.294-2.057-18.175-3.246-3.982-.76-5.488-2.599-5.488-2.599Zm85.611-30.538c1.184-.865 2.365-1.734 3.548-2.596 1.507-1.194 3.118-2.277 4.841-3.466 0 0-2.365-3.032-3.55-3.357-1.827-.65-3.978.321-4.407 4.224a100.3 100.3 0 0 0-.429 5.196h-.002Z"/><path fill="none" stroke="#000" stroke-miterlimit="8" stroke-width="0.752966" d="M606.464 485.335s.111-2.029.443-5.014c.439-3.84 2.649-4.8 4.528-4.265 1.216.425 3.645 3.306 3.645 3.306v.107a36.286 36.286 0 0 1 3.425-2.026c-.884-.961-5.965-3.946-7.072-3.946-1.216 0-16.46 5.971-21.322 10.026-1.108 1.07-1.991 7.679-1.436 9.813 8.286-2.031 13.477-5.016 17.789-7.893m7.287 14.829s3.315 3.197 3.425 9.066c.221 6.928-5.085 7.252-8.509 7.145-4.088-.108-7.29-2.345-7.29-9.709 0 0 6.738-2.774 12.374-6.507Z"/><path fill="none" stroke="#000" stroke-miterlimit="8" stroke-width="0.752966" d="M610.625 501.497s2.443 2.847 2.851 7.516c.306 3.646-1.936 5.694-4.684 5.466-3.866-.223-5.291-6.147-3.561-9.451Z"/><path fill="none" stroke="#000" stroke-miterlimit="8" stroke-width="0.752966" d="M614.504 515.534c-2.094 1.213-4.408 1.103-5.841.993-4.074-.113-7.268-2.427-7.268-10.03 0 0-5.071 2.534-13.22 4.518 0 0-1.432 1.652-1.653 4.961-.22 2.755 1.653 5.73 3.747 5.509 0 0 11.678-2.094 18.615-3.304 4.079-.774 5.621-2.645 5.621-2.645Z"/><path fill="none" stroke="#FFF" stroke-miterlimit="8" stroke-width="0.752546" d="M545.177 513.326s3.557 2.745-.755 6.17m-9.917-8 10.89 5.027m-9.066-2.4 7.975 3.653m-5.167-5.818 6.036 2.858m43.768-1.49s-3.667 2.745.646 6.17m9.918-8-10.888 5.027m9.161-2.4-7.976 3.653m5.073-5.818-5.93 2.858"/><path fill-rule="evenodd" stroke="#000" stroke-miterlimit="8" stroke-width="0.740262" d="M502.948 480.199c.154.251.253.513.301.781.039.274.029.58-.032.918-.154.802-.581 1.402-1.276 1.816-.697.412-1.496.525-2.38.355a4.057 4.057 0 0 1-1.197-.426 4.763 4.763 0 0 1-.976-.658c-.118.142-.243.276-.367.417l-.516-.099c.166-1.044.33-2.089.502-3.133.169.032.345.063.523.101.032.404.098.771.184 1.111.081.339.222.661.407.981.176.292.398.546.675.752.269.205.603.35.999.423.297.059.563.069.805.031a1.35 1.35 0 0 0 .597-.222c.162-.117.3-.264.406-.442a1.95 1.95 0 0 0 .221-.638 1.887 1.887 0 0 0-.116-1.076c-.143-.356-.416-.65-.792-.891a51.128 51.128 0 0 0-.893-.555c-.296-.173-.585-.36-.866-.557-.471-.329-.821-.7-1.031-1.139-.216-.426-.272-.94-.157-1.544.062-.334.199-.649.399-.923.197-.279.45-.499.758-.687.303-.181.638-.303.987-.358a3.165 3.165 0 0 1 1.102.018c.42.079.793.217 1.101.409.307.195.588.395.829.623l.348-.382c.174.032.343.064.518.1l-.52 3.027c-.174-.035-.349-.066-.526-.102a12.025 12.025 0 0 0-.127-1.054 3.931 3.931 0 0 0-.302-.947 2.158 2.158 0 0 0-.566-.726c-.235-.199-.553-.332-.945-.408a1.514 1.514 0 0 0-1.122.194c-.335.212-.544.494-.614.87-.074.39-.041.734.096 1.029.134.299.364.559.687.796.285.212.575.394.859.564.282.169.549.339.813.52.236.157.469.328.68.519.204.187.384.393.521.612m13.185 1.856a3.893 3.893 0 0 0-.512-.192 1.524 1.524 0 0 0-.613-.094c-.179.015-.366.148-.565.392-.239.302-.45.625-.63.966-.644 1.174-1.294 2.348-1.937 3.525-.247.447-.555.785-.928 1.013-.369.23-.771.361-1.193.403a3.561 3.561 0 0 1-1.205-.081 4.562 4.562 0 0 1-1.038-.407c-.49-.271-.898-.573-1.211-.916-.314-.347-.55-.695-.683-1.058a2.466 2.466 0 0 1-.172-1.074c.02-.344.118-.678.285-.979l2.636-4.795a.997.997 0 0 0 .119-.377c.002-.108-.047-.243-.137-.392a1.644 1.644 0 0 0-.296-.338c-.135-.11-.241-.199-.338-.26l.222-.407c1.141.631 2.273 1.26 3.412 1.888l-.224.403a3.504 3.504 0 0 0-.433-.17 2.145 2.145 0 0 0-.409-.116c-.155-.023-.285 0-.386.088a1.01 1.01 0 0 0-.259.308c-.82 1.495-1.643 2.988-2.462 4.482a3.69 3.69 0 0 0-.296.722 1.958 1.958 0 0 0-.087.824c.031.297.148.572.331.848.185.276.505.538.952.785.419.234.813.368 1.172.395.358.021.68-.021.965-.148.256-.109.489-.265.687-.462.185-.185.343-.395.47-.624l1.827-3.327c.232-.424.395-.787.479-1.093.088-.302.091-.519.021-.674-.077-.173-.226-.35-.425-.528a3.984 3.984 0 0 0-.488-.389l.222-.403c1.116.615 2.231 1.233 3.348 1.853l-.221.407m4.742 8.244c.143.296.226.619.232.962.006.345-.093.702-.304 1.072-.211.371-.477.647-.803.83a2.398 2.398 0 0 1-1.03.307 3.205 3.205 0 0 1-1.085-.101 4.374 4.374 0 0 1-1.077-.44l-3.837-2.219.232-.403c.095.049.233.106.426.181.19.078.332.121.424.133a.587.587 0 0 0 .376-.071.785.785 0 0 0 .269-.297c1.103-1.92 2.206-3.847 3.308-5.768a1.05 1.05 0 0 0 .133-.376.616.616 0 0 0-.126-.388 1.81 1.81 0 0 0-.308-.352c-.126-.11-.228-.2-.322-.262.074-.132.154-.266.23-.399 1.245.718 2.491 1.438 3.739 2.162.29.168.549.354.785.562.228.212.423.456.581.736.148.263.237.551.245.859.011.309-.069.631-.254.955a1.99 1.99 0 0 1-.587.657 1.842 1.842 0 0 1-.761.322 2.81 2.81 0 0 1-.817.032 3.63 3.63 0 0 1-.874-.184l-.032.053c.221.164.447.369.684.621.237.259.426.53.556.816Zm-.689-2.008c.239-.083.436-.2.6-.361.185-.19.345-.404.476-.636.25-.442.327-.859.228-1.252-.095-.399-.411-.742-.935-1.046a29.02 29.02 0 0 0-.461-.259c-.19-.106-.348-.189-.466-.251l-1.775 3.09.72.414c.315.183.602.297.871.347a1.4 1.4 0 0 0 .744-.048Zm-.673 3.02c.265-.434.334-.959.191-1.447-.145-.495-.52-.908-1.122-1.257-.204-.119-.41-.236-.617-.35-.169-.091-.298-.156-.384-.202-.544.949-1.081 1.888-1.623 2.83a.689.689 0 0 0-.021.705c.124.233.359.447.71.647.563.329 1.093.421 1.582.265.49-.159.915-.548 1.284-1.19Zm20.808 4.77a3.734 3.734 0 0 0-.528-.14 1.566 1.566 0 0 0-.617-.032c-.176.032-.349.185-.527.447a6.575 6.575 0 0 0-.53 1.024l-1.578 3.702c-.201.47-.475.838-.82 1.103a2.816 2.816 0 0 1-1.149.52 3.54 3.54 0 0 1-1.206.035 4.518 4.518 0 0 1-1.077-.297c-.511-.222-.946-.483-1.294-.793-.347-.315-.613-.637-.786-.984a2.48 2.48 0 0 1-.275-1.05 2.32 2.32 0 0 1 .185-1.008l2.148-5.033a.983.983 0 0 0 .084-.382.786.786 0 0 0-.174-.378 1.752 1.752 0 0 0-.331-.307c-.144-.096-.258-.175-.359-.227.061-.141.12-.286.18-.424l3.58 1.54c-.063.14-.121.283-.184.422a3.84 3.84 0 0 0-.446-.127 2.577 2.577 0 0 0-.418-.074c-.159-.011-.285.027-.377.124a1.037 1.037 0 0 0-.225.333c-.669 1.568-1.338 3.135-2.005 4.705a3.714 3.714 0 0 0-.229.743 1.978 1.978 0 0 0 0 .832c.062.292.201.555.413.811.213.255.554.486 1.026.687.442.193.849.284 1.21.276.354-.014.673-.088.94-.244.254-.147.476-.319.642-.525.165-.204.304-.429.407-.669.496-1.167.993-2.327 1.489-3.491.19-.447.314-.822.37-1.134.052-.313.038-.528-.049-.673-.095-.166-.258-.326-.475-.483a4.054 4.054 0 0 0-.522-.339l.18-.423 3.512 1.511a14.46 14.46 0 0 0-.184.421m10.107 11.924c-1.32-.382-2.645-.769-3.966-1.152l.127-.446c.147.036.333.074.567.117.229.036.398.048.497.03a.898.898 0 0 0 .368-.195.775.775 0 0 0 .2-.356l1.864-6.474a1.066 1.066 0 0 0-.097-.026c-1.735 2.241-3.51 4.449-5.248 6.693-.104-.029-.206-.062-.315-.091-.211-2.864-.478-5.724-.689-8.584a.605.605 0 0 0-.083-.024c-.509 1.771-1.021 3.54-1.528 5.314-.148.509-.227.905-.238 1.199-.015.289.034.507.131.664.067.116.237.252.507.419.266.167.443.26.531.291l-.128.445-3.626-1.05c.042-.151.087-.301.13-.447.195.035.406.065.628.078.222.018.399-.001.542-.066.18-.077.33-.219.461-.452.123-.226.266-.621.429-1.188l1.31-4.555c.076-.262.106-.484.091-.672a1.042 1.042 0 0 0-.154-.487 1.348 1.348 0 0 0-.41-.389 2.284 2.284 0 0 0-.538-.26l.126-.445 3.057.888c.201 2.478.457 4.954.655 7.433 1.255-1.658 2.546-3.291 3.803-4.951.14-.183.274-.375.395-.588.084-.135.157-.276.22-.422.974.283 1.954.567 2.926.851l-.127.443a4.277 4.277 0 0 0-.465-.071 2.591 2.591 0 0 0-.431-.025.483.483 0 0 0-.364.17 1.033 1.033 0 0 0-.184.358l-1.849 6.418a.884.884 0 0 0-.032.389c.024.115.096.228.216.348.065.065.19.141.374.23.186.096.329.157.444.197-.044.144-.088.294-.131.442m9.605-2.929c.243.217.447.482.584.798.137.316.19.683.136 1.103a2.242 2.242 0 0 1-.419 1.08 2.544 2.544 0 0 1-.831.684c-.328.167-.68.279-1.043.331-.385.053-.771.06-1.165.011-1.464-.185-2.926-.371-4.39-.554l.058-.462c.105.007.257.007.464 0 .203-.002.354-.018.444-.042a.576.576 0 0 0 .319-.212.805.805 0 0 0 .134-.375l.826-6.606a1.066 1.066 0 0 0-.021-.398.632.632 0 0 0-.267-.31 1.833 1.833 0 0 0-.42-.204c-.161-.052-.287-.098-.397-.117l.057-.46 4.284.542c.329.043.64.113.942.218.291.106.564.252.816.45.235.184.433.418.56.697.127.283.172.606.127.978a1.918 1.918 0 0 1-.861 1.43 2.913 2.913 0 0 1-.742.346c-.284.092-.579.15-.877.172l-.01.058c.264.067.552.166.871.308.312.143.591.318.821.532Zm-1.409-1.584c.187-.168.328-.355.418-.566.097-.249.161-.509.19-.774.064-.503-.026-.913-.27-1.241-.243-.331-.662-.524-1.266-.6a29.515 29.515 0 0 0-.52-.062l-.537-.05c-.148 1.179-.293 2.359-.443 3.538.278.033.552.068.824.103.312.047.631.041.941-.019.263-.059.484-.168.662-.331Zm.543 3.047c.066-.544-.063-1.008-.38-1.408-.326-.401-.83-.637-1.518-.724a26.649 26.649 0 0 0-.705-.083c-.195-.021-.337-.031-.437-.039-.137 1.084-.27 2.162-.405 3.243a.693.693 0 0 0 .253.658c.204.165.507.272.905.321.646.085 1.167-.035 1.558-.371.392-.339.635-.863.728-1.595Zm12.58 2.918h-2.522c-.549-.875-1.061-1.61-1.502-2.249-.452-.633-.946-1.27-1.47-1.948h-.957v2.938c0 .149.028.286.072.396.048.117.153.207.312.269.077.032.217.056.414.085.199.024.366.039.501.046v.465h-3.95v-.465c.104-.007.255-.025.462-.046.198-.022.335-.053.415-.085a.568.568 0 0 0 .288-.248.825.825 0 0 0 .084-.418v-6.698c0-.148-.019-.286-.063-.406-.048-.115-.148-.205-.312-.265a2.339 2.339 0 0 0-.428-.11 3.202 3.202 0 0 0-.447-.061v-.463h4.315c.394 0 .764.035 1.114.116.349.087.659.213.94.393.27.177.493.394.652.679.161.28.243.618.243 1.018 0 .361-.055.67-.162.946-.109.27-.276.513-.49.711-.193.194-.436.343-.71.485a5.684 5.684 0 0 1-.914.352c.454.609.847 1.11 1.152 1.526.297.413.683.91 1.119 1.506.254.37.594.673.99.884.11.062.256.099.426.129.174.032.317.047.429.053-.002.152-.002.307-.002.463Zm-3.464-6.901c0-.559-.169-.998-.486-1.337-.321-.329-.784-.49-1.377-.49h-1.119v3.969h.862c.606 0 1.118-.183 1.515-.574.398-.391.607-.906.607-1.567Zm14.227 6.211-3.876.297c-.011-.155-.021-.311-.034-.466.341-.045.621-.109.847-.195.217-.084.324-.169.317-.265-.003-.04-.016-.084-.024-.143a.524.524 0 0 0-.05-.149c-.304-.671-.625-1.336-.932-2.009l-3.271.247c-.1.316-.181.584-.236.818-.06.236-.116.447-.161.642a4.065 4.065 0 0 0-.084.464c-.011.121-.02.217-.011.289.011.173.159.292.444.371.282.078.596.106.946.099l.035.465-3.51.267c-.011-.154-.021-.31-.035-.464a2.11 2.11 0 0 0 .42-.109c.147-.042.285-.109.409-.198.169-.133.292-.265.38-.404.107-.17.188-.355.241-.549.37-1.195.81-2.531 1.256-4.022.445-1.489.871-2.812 1.218-3.974l.526-.039c1.217 2.586 2.487 5.143 3.708 7.725.078.166.165.294.253.395.095.101.215.194.373.279.106.055.238.095.405.121.166.032.3.042.412.039.014.159.026.316.036.471Zm-4.033-3.491c-.552-1.157-1.13-2.308-1.685-3.469-.364 1.23-.755 2.454-1.122 3.683Zm17.289-7.307-.471.127c-.182-.309-.464-.606-.845-.912-.382-.303-.712-.435-.982-.407a6.408 6.408 0 0 0-.475.09c-.185.045-.387.096-.621.157l-1.51.413c.323 1.197.644 2.396.968 3.589.343-.095.691-.191 1.036-.284.31-.085.553-.181.708-.297.151-.109.274-.253.359-.418.06-.12.102-.287.118-.502.018-.22.008-.443-.03-.661l.475-.13c.32 1.176.637 2.346.951 3.517-.155.042-.317.085-.476.13a3.078 3.078 0 0 0-.299-.596c-.144-.212-.271-.361-.384-.442a.952.952 0 0 0-.559-.195c-.246 0-.49.037-.725.109l-1.035.283.831 3.078c.033.13.098.251.188.35.081.094.201.148.36.182.073.018.221.011.443-.011.22-.01.391-.039.499-.063l.121.448-3.908 1.065-.122-.449c.127-.041.294-.104.499-.182.201-.08.336-.134.393-.184a.56.56 0 0 0 .211-.318.91.91 0 0 0-.017-.412l-1.743-6.449a1.215 1.215 0 0 0-.169-.354c-.074-.09-.199-.147-.365-.177a2.634 2.634 0 0 0-.494-.022c-.164.002-.328.02-.488.053l-.121-.45c2.359-.642 4.722-1.283 7.073-1.925l.604 2.245m10.417-.792c.342.856.676 1.713 1.018 2.567l-6.58 3.191-.201-.419c.093-.053.222-.132.396-.244.165-.104.28-.191.333-.254a.566.566 0 0 0 .156-.354.86.86 0 0 0-.106-.409c-.956-1.99-1.912-3.981-2.87-5.972a1.012 1.012 0 0 0-.236-.321.558.558 0 0 0-.393-.111 1.746 1.746 0 0 0-.449.043 2.19 2.19 0 0 0-.443.116c-.063-.137-.135-.281-.199-.418l3.551-1.723.2.42a3 3 0 0 0-.397.263 2.3 2.3 0 0 0-.338.284.452.452 0 0 0-.159.374c0 .138.035.271.1.399l2.693 5.605c.122.254.229.45.327.578.08.122.202.211.343.247.119.033.277.012.468-.063.193-.063.449-.173.771-.332.148-.069.293-.15.453-.233.156-.081.295-.175.426-.262a3.19 3.19 0 0 0 .336-.289.649.649 0 0 0 .182-.278c.071-.26.139-.62.175-1.097.032-.467.049-.836.021-1.104.141-.066.282-.135.421-.201m4.923-9.178a4.6 4.6 0 0 1 1.613.832c.529.432.975.957 1.318 1.549.374.636.602 1.269.708 1.906a4.613 4.613 0 0 1-.074 1.827 4.363 4.363 0 0 1-.737 1.559 4.28 4.28 0 0 1-1.313 1.175c-.56.331-1.134.541-1.734.606-.603.064-1.175.031-1.733-.146a4.448 4.448 0 0 1-1.581-.849 5.533 5.533 0 0 1-1.271-1.488 5.499 5.499 0 0 1-.716-1.922 4.836 4.836 0 0 1 .066-1.818c.142-.57.397-1.106.749-1.575.353-.48.786-.863 1.301-1.169a4.398 4.398 0 0 1 1.683-.596 4.205 4.205 0 0 1 1.722.106Zm2.479 6.16a4.372 4.372 0 0 0-.217-1.436 7.563 7.563 0 0 0-.703-1.526 8 8 0 0 0-1.046-1.415 4.337 4.337 0 0 0-1.166-.883 2.623 2.623 0 0 0-1.223-.281c-.412.002-.831.133-1.235.371-.449.268-.779.597-.969.998-.195.4-.295.84-.292 1.286.009.443.088.908.259 1.405.169.5.394.992.681 1.481.286.492.622.952 1.004 1.374.348.376.739.668 1.142.882.404.212.806.305 1.229.311.418 0 .845-.12 1.278-.376.385-.224.705-.546.928-.933.208-.382.327-.805.33-1.258Zm11.59-6.32c-.684.488-1.373.979-2.057 1.464-.947-.394-1.793-.695-2.518-.957-.735-.261-1.51-.488-2.318-.737-.264.185-.521.371-.785.556l1.692 2.397c.085.119.19.21.285.279.111.068.246.075.41.038.084-.018.208-.078.388-.172.179-.092.317-.177.433-.255l.268.381-3.221 2.294c-.09-.123-.18-.252-.27-.377.085-.065.199-.166.352-.304.11-.092.207-.197.29-.313a.542.542 0 0 0 .088-.367.819.819 0 0 0-.165-.389c-1.289-1.822-2.574-3.646-3.857-5.466a1.172 1.172 0 0 0-.286-.289c-.105-.07-.24-.087-.404-.039a3.394 3.394 0 0 0-.813.371l-.269-.38c1.172-.835 2.345-1.667 3.517-2.504.304-.219.631-.403.976-.549.316-.133.651-.211.993-.229.316-.019.631.04.919.172.299.134.56.367.787.69.209.294.348.579.412.869.07.287.074.57.016.861-.048.27-.159.529-.303.806a5.216 5.216 0 0 1-.546.817c.725.236 1.334.414 1.822.575.479.166 1.083.346 1.78.581a2.76 2.76 0 0 0 1.317.145c.126-.015.264-.07.422-.144.16-.07.287-.148.38-.205.087.128.18.255.266.382Zm-6.797-3.617c-.324-.458-.718-.718-1.168-.808-.454-.08-.924.053-1.408.398l-.915.652 2.288 3.241.708-.504c.495-.35.803-.801.899-1.347.1-.552-.024-1.096-.404-1.632Zm14.497-2.217c.257.873.515 1.749.777 2.62l-7.279 2.711c-.053-.144-.11-.29-.161-.435a4.8 4.8 0 0 0 .475-.237c.193-.105.321-.174.373-.23a.659.659 0 0 0 .187-.34.834.834 0 0 0-.06-.404c-.771-2.081-1.536-4.159-2.307-6.244a1.064 1.064 0 0 0-.201-.334c-.084-.085-.211-.127-.379-.144-.128-.013-.295 0-.492.026a2.44 2.44 0 0 0-.48.093c-.053-.143-.11-.291-.16-.435l6.783-2.528.771 2.095c-.154.06-.312.118-.462.174-.195-.286-.503-.541-.897-.788-.41-.255-.738-.342-.999-.283a3.945 3.945 0 0 0-.464.131c-.187.063-.386.131-.616.215-.459.17-.916.342-1.374.513.422 1.148.851 2.301 1.273 3.448.329-.122.655-.245.991-.369.313-.117.539-.23.666-.35a.974.974 0 0 0 .273-.433c.051-.184.071-.375.058-.566a3.248 3.248 0 0 0-.081-.604c.153-.056.308-.113.464-.172l1.257 3.405c-.156.061-.313.117-.464.173a3.632 3.632 0 0 0-.361-.578c-.153-.185-.285-.318-.405-.387a.948.948 0 0 0-.548-.148c-.231.02-.458.076-.673.166l-.993.369c.323.872.641 1.74.964 2.61.097.26.193.456.285.596a.6.6 0 0 0 .341.262c.133.042.302.032.492-.015.195-.053.465-.138.804-.263.138-.054.314-.117.539-.199a3.88 3.88 0 0 0 .552-.239c.148-.077.306-.166.456-.27.149-.111.249-.207.285-.308.12-.265.214-.64.27-1.114.058-.475.092-.815.074-1.018.148-.059.294-.113.446-.17m7.817-6.43c.478.383.873.859 1.162 1.4.303.577.51 1.218.604 1.945a5.398 5.398 0 0 1-.091 2.03 4.61 4.61 0 0 1-.778 1.655c-.344.467-.782.84-1.285 1.14a4.362 4.362 0 0 1-1.664.563c-.65.086-1.258.053-1.831-.124-.578-.174-1.098-.431-1.542-.813a4.521 4.521 0 0 1-1.12-1.401 5.404 5.404 0 0 1-.594-1.871c-.097-.748-.063-1.428.09-2.049a4.796 4.796 0 0 1 .775-1.646 4.374 4.374 0 0 1 2.958-1.718 4.454 4.454 0 0 1 1.78.112 4.253 4.253 0 0 1 1.536.778Zm-.12 6.643c.2-.446.323-.922.365-1.409a8.07 8.07 0 0 0-.059-1.68 7.75 7.75 0 0 0-.412-1.711 4.267 4.267 0 0 0-.72-1.271 2.656 2.656 0 0 0-1.017-.739 2.482 2.482 0 0 0-1.28-.146c-.523.069-.954.242-1.287.538-.337.29-.601.655-.771 1.067-.158.41-.275.87-.306 1.393a7.736 7.736 0 0 0 .046 1.631c.081.617.215 1.171.391 1.656.169.485.421.904.71 1.26.281.358.616.596 1.003.771.386.165.831.222 1.326.154.44-.053.858-.222 1.213-.49.347-.27.622-.623.798-1.027Z"/><path fill="none" stroke="#000" stroke-miterlimit="8" stroke-width="1.07507" d="M532.268 340.499h70.545m5.774 0h9.918v58.736c0 11.682-1.601 58.198-50.947 76.264-49.451-18.066-51.053-64.578-51.053-76.264v-58.736h9.989"/><path fill="#338A00" fill-rule="evenodd" stroke="#075400" stroke-miterlimit="8" stroke-width="0.56273" d="M560.799 188.513c-3.858.031-8.126 1.883-12.51 6.584v.004c10.545-3.095 15.199 3.898 19.598 8.36a174.956 174.956 0 0 0-37.977 4.222c-4.078-9.015-18.498-19.987-29.697-3.381 10.203-4.819 15.94 1.863 21.092 5.536a173.28 173.28 0 0 0-30.346 11.623c-.035-.07-.057-.162-.093-.229-4.207-8.039-26.104-17.847-31.258 4.344 10.79-11.193 21.523 1.185 27.925-2.377a174.759 174.759 0 0 0-27.7 17.996c-.045-.056-.084-.134-.129-.188-5.85-6.951-29.366-11.856-29.583 10.917 7.948-12.974 20.744-3.841 26.408-8.038a175.59 175.59 0 0 0-25.09 25.706c-.134-.148-.263-.333-.399-.465-6.522-6.334-30.414-8.874-28.331 13.804 6.781-14.072 21.03-5.399 25.898-11.002-.743.855-1.132 1.933-1.34 3.14a174.395 174.395 0 0 0-17.74 30.202c-8.048-4.307-31.638-.314-23.459 20.92l.004.003c2.685-15.37 18.772-10.851 21.926-17.549-.032.07-.04.147-.07.217a173.153 173.153 0 0 0-10.948 35.325c-9.917.242-26.088 9.627-14.36 26.249-.838-11.212 7.566-14.088 12.879-17.535a175.843 175.843 0 0 0-1.79 25.02c0 2.52.064 5.024.17 7.518-8.952 3.889-20.705 20.161-2.149 30.29-5.25-8.871-.457-14.86 2.88-19.97a173.576 173.576 0 0 0 6.367 32.095c-8.38 5.394-16.928 20.482.694 29.338-5.619-8.792-.863-14.98 2.296-20.241a173.683 173.683 0 0 0 14.334 30.283c-6.722 7.264-11.166 25.095 8.878 28.457-8.175-6.891-5.185-14.377-3.773-20.4a175.416 175.416 0 0 0 22.614 27.15c-6.334 7.558-9.828 25.982 10.601 28.013-9.839-7.219-5.202-16.224-4.835-22.602a174.99 174.99 0 0 0 32.532 23.067c-1.78 9.75 3.508 26.368 22.104 19.576-10.059-1.86-11.563-9.212-13.234-15.029a173.188 173.188 0 0 0 36.386 12.619c-.174 9.873 6.526 23.746 23.522 16.21-10.342-1.203-12.237-8.664-14.341-14.398a175.526 175.526 0 0 0 29.446 2.488c1.908 0 3.805-.043 5.699-.104 2.155 9.668 13.629 23.033 28.103 9.464-10.98 2.447-15.078-5.247-19.255-9.969a173.715 173.715 0 0 0 38.062-7.474c5.972 7.944 20.477 15.094 28.93-1.838-8.221 5.274-14.255 1.529-19.354-1.506a173.818 173.818 0 0 0 28.937-14.243c7.453 6.073 28.402 8.699 28.095-12.759-5.439 9.371-13.569 7.605-19.834 7.356a175.529 175.529 0 0 0 27.671-23.846c8.772 4.691 26.846 4.707 25.64-15.184-4.994 9.595-13.183 8.218-19.45 8.249a174.875 174.875 0 0 0 20.531-30.132c9.763 1.661 27.606-4.563 19.136-23.134h-.003c-1.184 10.464-8.956 12.254-14.762 14.42a173.144 173.144 0 0 0 12.288-36.269c9.752-2.113 23.245-13.424 9.687-27.833 1.997 9.102-3.121 13.399-7.653 16.974a175.62 175.62 0 0 0 2.023-26.636c0-1.245-.022-2.486-.048-3.724 9.499-3.034 21.878-15.663 6.892-28.681 3.266 9.952-2.968 14.778-7.346 19.114a173.915 173.915 0 0 0-4.717-29.168c8.381-4.993 17.936-22.594-1.75-30.309 6.743 8.662 1.805 15.514-.786 21.207a173.386 173.386 0 0 0-12.186-29.456c7.08-6.866 12.461-24.917-7.707-28.958 8.031 7.218 4.657 14.682 3.071 20.687a175.097 175.097 0 0 0-18.261-25.189c3.75-9.185 2.017-26.459-17.556-23.647 8.273 3.402 9.22 9.578 9.616 15.117a175.526 175.526 0 0 0-22.462-19.081c2.703-9.356-2.2-28.458-21.872-21.09v.004c10.428 1.839 11.746 9.622 13.547 15.505a173.86 173.86 0 0 0-31.21-15.549c1.657-9.617-5.175-27.909-23.913-18.668 11.665.875 12.998 10.128 15.81 15.83a173.838 173.838 0 0 0-44.581-8.179c-1.505-6.575-7.973-15.242-16.434-15.173Zm7.402 19.284c.866 0 1.728.02 2.591.033-5.863 3.516-10.909 15.087-23.518 11.859 13.583 15.343 28.494-2.152 30.14-11.641a169.646 169.646 0 0 1 43.706 8.146c-6.556 2.008-14.939 9.438-24.868 2.469 7.104 18.858 26.857 8.34 32.148.096a169.54 169.54 0 0 1 33.798 17.332c-6.839.381-16.676 8.768-26.607.195 5.132 19.346 25.629 11.078 31.871 3.44a171.012 171.012 0 0 1 25.467 22.481c.383 1.068.932 1.993 1.816 2.672-5.9-4.527-19.772 5.529-28.833-6.603.862 21.176 25.275 15.759 31.583 9.043a170.496 170.496 0 0 1 18.634 26.481c-5.943-3.38-18.929-1.335-22.779-13.922-6.157 19.564 16.835 23.052 25.791 19.447a168.968 168.968 0 0 1 12.463 31.032c-5.581-3.95-17.844-4.644-19.347-17.243-9.255 17.656 11.256 25.204 21.111 23.809a170.057 170.057 0 0 1 4.784 32.882c-2.187-6.543-16.591-10.866-13.415-24.629-15.637 14.401 4.315 29.265 13.574 29.689.017 1.017.037 2.034.037 3.056 0 10.899-1.037 21.552-2.994 31.881-.38.697-.642 1.428-.683 2.233.379-7.387-15.855-12.953-10.989-27.26-16.989 12.755 1.279 29.501 10.461 30.884a168.836 168.836 0 0 1-13.521 37.945c-.401-6.789-10.127-16.189-1.942-26.832-19.618 6.483-8.995 27.071-.808 32.147a170.502 170.502 0 0 1-22.056 31.527c2.218-6.44-3.674-18.811 7.899-25.913-21.16-.914-18.001 23.24-11.886 30.279a170.865 170.865 0 0 1-29.432 24.802c1.464-6.646-2.412-18.039 8.671-24.167-19.557-1.735-19.218 19.003-14.455 27.862a169.473 169.473 0 0 1-31.716 15.051c-1.027-.243-2.033-.285-3.027.029 7.102-2.247 6.636-19.283 21.845-19.797-18.223-11.423-27.616 12.134-25.4 20.919.076.301.218.621.332.934a169.616 169.616 0 0 1-38.305 7.16c6.124-3.056 11.951-14.403 24.37-10.331-12.972-16.822-29.82 1.576-31.085 10.671-1.803.056-3.61.096-5.426.096a171.238 171.238 0 0 1-31.927-2.997c-.571-.654-1.229-1.181-2.045-1.506 6.917 2.758 17.496-10.667 29.549-1.451-6.71-20.323-29.079-8.101-33.008.07a10.315 10.315 0 0 0-.598 1.617 168.958 168.958 0 0 1-41.1-15.21c-.023-.011-.039-.033-.063-.044 6.717 3.216 18.181-9.471 29.58.535-5.282-20.603-28.163-10.165-32.835-2.288a170.535 170.535 0 0 1-29.897-21.071c6.697 1.303 16.766.273 21.159 10.748 4.178-20.115-19.156-21.283-27.663-16.779a170.785 170.785 0 0 1-24.503-30.039c5.843 3.562 19.272.691 23.628 13.453 5.595-19.985-18.124-22.569-26.711-18.476a169.192 169.192 0 0 1-15.681-34.893c2.395 6.917 19.311 6.724 19.694 21.713 11.657-17.959-11.927-27.483-20.823-25.389a169.524 169.524 0 0 1-6.427-35.251c4.69 4.954 17.613 6.888 17.493 19.997 11.405-16.315-7.86-26.363-17.833-26.264-.083-2.189-.14-4.385-.14-6.595 0-8.924.692-17.689 2.016-26.242 2.469 6.345 12.296 13.63 6.555 24.957 18.176-10.024 3.632-28.457-5.348-31.796a168.839 168.839 0 0 1 7.803-27.286c2.158 5.993 5.076 13.168-1.247 20.443 17.926-4.763 12.207-22.328 5.16-29.895a169.759 169.759 0 0 1 14.319-25.61c.406 5.987.499 12.81-6.873 17.653 18.104.226 17.861-17.314 13.458-26.696a171.14 171.14 0 0 1 20.886-22.344c-.287 6.553.337 14.956-8.763 19.709 18.323 2.063 19.577-16.1 15.899-25.754a170.465 170.465 0 0 1 21.93-14.926c-1.689 6.327-2.937 14.6-12.805 17.284 17.426 5.921 22.595-11.507 21.111-21.724a168.982 168.982 0 0 1 32.13-12.165c-5.145 4.491-8.374 16.442-21.207 15.221 16.23 13.374 28.403-7.538 27.925-16.867a170.831 170.831 0 0 1 37.202-4.086Z"/><path fill="#AD7D5A" fill-rule="evenodd" stroke="#000" stroke-miterlimit="8" stroke-width="0.538268" d="M463.68 454.4c-.325 1.413-.866 3.372-1.086 5.875 0 .544-.541 3.481 1.086 3.588 1.196.109 1.522-3.047 1.522-3.047s-1.089 3.481.324 3.918c1.956.43 2.171-3.809 2.171-3.809-.217 1.198-1.521 4.245.327 4.565 1.953.33 2.498-4.133 2.498-4.133s-1.629 4.463.324 4.571c1.847.107 1.847-4.351 1.847-4.351s-.979 5.331 1.628 4.896c1.409-.218 1.738-2.069 2.063-3.156.434-1.629 1.412-3.696.218-7.069-.867-2.501-.541-3.154-.541-3.154s-3.042 2.285-5.43 3.806c-1.089.652-6.954-2.501-6.954-2.501Zm31.715-4.683c-.542-.328-.433 1.959-.651 3.043-.109 1.09.219 3.482 3.911 3.266 3.581-.328 7.168-1.089 9.447-.545 2.282.652 5.647.761 7.496.761 1.847 0 3.042-.216 3.907-.545.762-.323 2.391.438 3.149.438.762 0 1.955-1.198 1.846-1.96-.108-1.415-1.409-1.415-3.258-1.522-1.738-.217-4.126-.545-5.32-.979-1.195-.437-3.367-1.633-6.082-2.176 0 0-5.213.219-6.296.219-1.089 0-7.496.324-8.149 0Z"/><path fill="none" stroke="#060" stroke-miterlimit="8" stroke-width="0.538478" d="m478.721 457.032-.216-4.996 2.046 1.74.538-3.804c.861-.217 2.262 1.523 2.262 1.523l-.217-3.801 3.122 3.475s-.215-2.934.859-4.671c0 0 2.368 2.064 2.368 4.454 0 2.068 2.045-2.934 2.045-2.934.54 1.741 1.724 5.542 1.724 5.542l1.396-2.066 1.186 4.342 2.582-3.8 2.045 4.454 4.63-.328.541 2.609 2.044-2.281 2.692 1.737s2.26-.651 3.445-.651c1.186 0 2.584 1.52 2.584 1.52s.86-1.516 1.723-2.061c.86-.545 2.046.867 2.366 1.736l1.724-3.15s2.262 2.283 2.582 3.15c0 0 .324-2.605.863-3.476.54-.868 1.397.327 2.046 1.413l1.398-4.671s1.507.323 2.582 2.063c1.186 1.736 1.186-2.61 1.186-2.61s2.582 3.479 3.232 5.867m64.814-.869s.859-2.386 2.046-3.583c0 0 2.26 2.718 2.26 3.585 0 0 .646-.326 1.831-1.193l1.722 1.735 2.047-1.409 1.938 1.738 3.554-1.521 1.397 1.52 5.488-.65 2.05.867 1.936-2.495 1.831 1.952 2.906-2.93s1.398 1.191 1.722 2.063c0 0 2.369-1.196 2.907-2.063 0 0 2.26-.869 2.582.539 0 0 1.397-1.087 1.292-2.28-.11-1.194 1.613-.325 2.151 1.198 0 0 .647-2.392 2.372-2.611 0 0 1.181 1.414.857 4.022 0 0 2.583-2.063 3.769-2.282 0 0 .539 2.931-.322 5.542 0 0 2.692-4.456 3.23-2.935.215.868.861 3.804.215 5.865l2.369-1.52.86 2.936 2.582-.544m-120.968 8.846s1.938-3.256 3.122-4.127c0 0 2.582 2.066 3.444 4.672 0 0 .324-1.737 1.185-3.257 0 0 3.23 1.516 3.767 3.584 0 0 1.186-2.065 2.046-2.605.861-.656 1.723 2.278 1.723 4.017 0 0 2.046-2.174 3.232-2.282 0 0 2.26 1.085 2.905 4.89 0 0 2.155-2.064 2.907-1.741 0 0 2.584 1.741 1.936 4.129-.321 1.302 2.586-1.518 6.138-2.388l3.122 2.388s2.906-3.91 3.767-5.216c0 0 2.37.869 2.37 2.283 0 0 1.078-4.132 1.937-4.562.86-.543 2.045 1.302 2.045 2.498 0 0 .323-3.15 2.047-3.803 0 0 1.723 1.194 1.723 2.392 0 0 1.83-3.585 3.23-4.458"/><path fill="#5AC800" fill-rule="evenodd" d="m478.225 456.569-.216-5.012 2.046 1.746.538-3.815c.86-.221 2.262 1.526 2.262 1.526l-.217-3.816 3.122 3.488s-.216-2.943.859-4.688c0 0 2.367 2.072 2.367 4.469 0 2.074 2.046-2.944 2.046-2.944.54 1.746 1.723 5.558 1.723 5.558l1.397-2.07 1.185 4.358 2.586-3.815 2.042 4.47 4.63-.329.54 2.613 2.044-2.286 2.692 1.743s2.262-.654 3.446-.654c1.186 0 2.584 1.528 2.584 1.528s.86-1.528 1.723-2.077c.858-.541 2.047.874 2.366 1.745l1.724-3.159s2.261 2.29 2.583 3.159c0 0 .321-2.613.86-3.486.54-.871 1.397.328 2.046 1.418l1.396-4.685s1.51.323 2.584 2.07c1.182 1.742 1.182-2.613 1.182-2.613s2.583 3.486 3.228 5.881c0 0-17.826 6.193-30.397 4.5-14.798-1.993-26.985-4.826-26.985-4.826m122.207-.543s.86-2.399 2.048-3.599c0 0 2.259 2.728 2.259 3.599 0 0 .644-.327 1.831-1.2l1.721 1.742 2.048-1.413 1.939 1.74 3.55-1.526 1.399 1.526 5.49-.651 2.046.87 1.939-2.505 1.83 1.959 2.906-2.942s1.399 1.198 1.722 2.072c0 0 2.369-1.196 2.908-2.072 0 0 2.261-.87 2.582.546 0 0 1.399-1.092 1.293-2.287-.107-1.198 1.614-.328 2.153 1.196 0 0 .645-2.395 2.366-2.613 0 0 1.183 1.412.861 4.034 0 0 2.582-2.076 3.767-2.292 0 0 .54 2.941-.322 5.559 0 0 2.691-4.47 3.231-2.943.216.87.862 3.813.216 5.881l2.367-1.524.859 2.943 2.582-.546s-15.283 2.369-29.683.98c-14.401-1.39-27.912-6.536-27.911-6.536m-10.644 10.818c.7-.438-4.809 11.467-18.168 12.101-18.586.881-34.475-8.503-34.475-8.503s1.939-3.268 3.122-4.142c0 0 2.582 2.073 3.445 4.685 0 0 .324-1.743 1.185-3.267 0 0 3.23 1.521 3.767 3.595 0 0 1.185-2.07 2.048-2.613.86-.657 1.723 2.285 1.723 4.032 0 0 2.044-2.183 3.229-2.292 0 0 2.262 1.091 2.908 4.905 0 0 2.153-2.069 2.905-1.746 0 0 2.584 1.746 1.937 4.141-.322 1.31 2.584-1.521 6.138-2.394l3.121 2.394s2.906-3.919 3.768-5.231c0 0 2.37.874 2.37 2.292 0 0 1.078-4.142 1.937-4.577.86-.544 2.044 1.307 2.044 2.508 0 0 .325-3.161 2.047-3.814 0 0 1.724 1.196 1.724 2.399-.004-.002 1.826-3.599 3.227-4.473Z"/></g></svg>