<svg xmlns="http://www.w3.org/2000/svg" width="1136" height="568" overflow="hidden"><defs><clipPath id="a"><path d="M-1 94h1136v568H-1z"/></clipPath></defs><g fill-rule="evenodd" clip-path="url(#a)" transform="translate(1 -94)"><path fill="#DA291C" d="M0 94h283.5l11.694 11.694h543.612L850.5 94H1134v567H850.5l-11.694-11.694H295.194L283.5 661H0Z"/><path fill="#FFF" d="M283 94h567v567H283Zm294.131 523.294-5.315-101.942c-.286-6.191 4.502-11.441 10.693-11.727a11.19 11.19 0 0 1 2.418.151l101.47 17.836-13.703-37.799a7.682 7.682 0 0 1 2.363-8.624l111.156-90.011-25.043-11.694a7.678 7.678 0 0 1-4.016-9.332l21.971-67.568-64.024 13.585a7.68 7.68 0 0 1-8.623-4.489l-12.403-29.177-49.967 53.629a7.678 7.678 0 0 1-13.112-6.733l24.098-124.268-38.627 22.326a7.679 7.679 0 0 1-10.749-3.19L566.5 141.25l-39.217 77.017a7.679 7.679 0 0 1-10.75 3.19l-38.627-22.326 24.098 124.268a7.678 7.678 0 0 1-13.112 6.733l-49.967-53.629-12.403 29.177a7.68 7.68 0 0 1-8.623 4.489l-64.024-13.585 21.971 67.568a7.679 7.679 0 0 1-4.016 9.332l-25.042 11.694 111.155 90.011a7.679 7.679 0 0 1 2.363 8.624l-13.703 37.799 101.47-17.836c6.108-1.051 11.911 3.049 12.961 9.157.137.799.188 1.61.15 2.419l-5.315 101.942Z"/></g></svg>