<svg xmlns="http://www.w3.org/2000/svg" width="1136" height="568" overflow="hidden"><defs><clipPath id="a"><path d="M-1 94h1136v568H-1z"/></clipPath><clipPath id="b"><path d="M0 94h567v284H0z"/></clipPath><clipPath id="c"><path d="M0 94h567v284H0z"/></clipPath><clipPath id="d"><path d="M0 94h567v284H0z"/></clipPath><clipPath id="e"><path d="M0 94h568v284H0z"/></clipPath><clipPath id="f"><path d="M283.5 236H567v142Zm0 0v142H0Zm0 0H0V94Zm0 0V94H567Z"/></clipPath></defs><g clip-path="url(#a)" transform="translate(1 -94)"><path fill="#012169" fill-rule="evenodd" d="M.503 94.252H1134.5v567H.503Z"/><path fill="#012169" fill-rule="evenodd" d="M.503 377.752h567v-283.5H1134.5v567H.503Z"/><path fill="#FFF" fill-rule="evenodd" d="m851.258 143.252 9.592 29.452h30.908l-24.987 18.097 9.592 29.451-25.105-18.096-25.105 18.096 9.592-29.451-24.987-18.097h30.908ZM946.715 163.567l-3.222 30.757 28.161 12.538-30.116 6.372-3.222 30.758-15.524-26.693-30.224 6.324 20.701-22.975-15.416-26.644 28.161 12.538ZM1025.58 221.356l-15.46 26.787 20.63 22.909-30.1-6.428-15.457 26.787-3.326-30.699-30.183-6.516 28.257-12.569-3.247-30.611 20.627 22.908ZM1074.06 306.206l-25.01 18.187 9.52 29.317-24.88-18.117-25.02 18.186 9.45-29.397-24.922-18.229 30.922.01 9.49-29.285 9.53 29.318ZM1083.82 403.387l-30.25 6.441-3.22 30.657-15.37-26.673-30.25 6.44 20.59-23.013-15.35-26.79 28.24 12.588 20.58-22.895-3.22 30.657ZM1053.23 496.08l-30.26-6.419-15.41 26.696-3.19-30.617-30.251-6.419 28.171-12.649-3.132-30.72 20.682 22.99 28.11-12.547-15.41 26.696ZM987.635 568.299l-25.026-18.169-24.939 18.119 9.54-29.267-25.026-18.169 30.878-.098 9.636-29.337 9.546 29.415 30.786-.028-24.942 18.119ZM898.391 607.625l-15.472-26.777-30.153 6.409 20.62-22.857-15.473-26.777 28.249 12.47 20.735-22.881-3.243 30.755 28.133 12.494-30.153 6.409ZM800.88 607.311l-3.243-30.755-30.153-6.409 28.133-12.494-3.243-30.756 20.735 22.882 28.249-12.47-15.472 26.777 20.619 22.857-30.153-6.409ZM711.892 567.41l9.547-29.415-24.939-18.119 30.783.029 9.546-29.416 9.635 29.337 30.879.098-25.026 18.169 9.54 29.268-24.939-18.12ZM646.768 494.771l20.686-22.989-15.413-26.696 28.109 12.546 20.686-22.989-3.13 30.719 28.169 12.649-30.253 6.42-3.189 30.617-15.413-26.696ZM616.775 401.884l28.248-12.589-3.222-30.657 20.576 22.895 28.248-12.588-15.354 26.791 20.589 23.012-30.248-6.44-15.367 26.673-3.222-30.657ZM627.156 304.769l30.926-.011 9.526-29.317 9.485 29.285 30.926-.011-24.924 18.229 9.449 29.398-25.013-18.187-24.887 18.117 9.525-29.317ZM676.184 220.232l28.256 12.569 20.627-22.908-3.246 30.611 28.256 12.569-30.183 6.516-3.325 30.699-15.454-26.788-30.104 6.428 20.627-22.908ZM755.416 162.952l20.701 22.975 28.161-12.538-15.416 26.644 20.701 22.975-30.224-6.324-15.524 26.693-3.222-30.758-30.116-6.372 28.161-12.538Z"/><g clip-path="url(#b)"><g clip-path="url(#c)"><g clip-path="url(#d)"><g clip-path="url(#e)"><path fill="#012169" d="M0 94v283.999h567V94Z"/><path stroke="#FFF" stroke-width="56.7" d="m0 0 567 283.5M567 0 0 283.5" transform="matrix(1 0 0 1.00176 0 94)"/><g clip-path="url(#f)"><path stroke="#C8102E" stroke-width="37.8" d="m0 0 567 283.5M567 0 0 283.5" transform="matrix(1 0 0 1.00176 0 94)"/></g><path stroke="#FFF" stroke-width="94.5" d="M283.5 0v283.5M0 141.75h567" transform="matrix(1 0 0 1.00176 0 94)"/><path stroke="#C8102E" stroke-width="56.7" d="M283.5 0v283.5M0 141.75h567" transform="matrix(1 0 0 1.00176 0 94)"/></g></g></g></g></g></svg>