<svg xmlns="http://www.w3.org/2000/svg" width="1136" height="758" overflow="hidden"><defs><clipPath id="a"><path d="M-1-1h1136v758H-1z"/></clipPath></defs><g fill-rule="evenodd" clip-path="url(#a)" transform="translate(1 1)"><path fill="#FFF" d="M0 0h1134v756H0Z"/><path fill="#4E5B31" d="M583.391 637.999a1.284 1.284 0 0 1-.437-.309l-.158-.147a27.232 27.232 0 0 1-1.993-2.07c-1.679-1.906-3.931-4.697-5.91-7.162a647.673 647.673 0 0 1-7.78-9.9l-.999-1.3-9.788-3.017-7.146-3.331 3.818-4.291 13.116 5.614 9.787 2.008L594 627.402l-.014.012c-.036.03-2.632 2.189-5.212 4.535-1.15 1.046-2.601 2.394-3.625 3.506a14.12 14.12 0 0 0-1.172 1.436c-.215.358-.411.729-.586 1.109m-67.215-20.182a49.96 49.96 0 0 1-25.07-7.013h-.008v-.01a12.894 12.894 0 0 1 3.626-3.906c2.446-1.795 6.858-3.94 13.987-3.968h.148c8.443 0 18.776 2.87 30.713 8.53a45.402 45.402 0 0 1-23.396 6.367l.013.013-.013-.013Zm-37.009-8.201a5.345 5.345 0 0 1-3.995-1.68 8.111 8.111 0 0 1-1.789-3.627 18.462 18.462 0 0 1-.443-5.312 5.458 5.458 0 0 1 1.969-.446h.141c3.164 0 5.658 2.744 6.726 5.464a5.474 5.474 0 0 1 .346 3.863 3.046 3.046 0 0 1-2.949 1.726l-.006.012Zm65.123-7.547c-21.875-3.123-31.147-11.029-35.073-17.112a19.77 19.77 0 0 1-3.319-12.547v-.018h.016a14.525 14.525 0 0 1 3.349-.369c5.82 0 20.704 2.927 35.032 30.036l.008.018-.025-.013.012.005Zm-44.835-4.333c-9.345 0-16.46-1.613-21.148-4.788a12.989 12.989 0 0 1-4.645-5.196 8.538 8.538 0 0 1-.748-2.549 28.641 28.641 0 0 1 9.785-2.079 33.63 33.63 0 0 1 1.479-.037c7.223 0 18.206 2.355 29.797 13.58l.011.012h-.014a113.52 113.52 0 0 1-14.529 1.058l.012-.001Zm-45.251-1.739c-9.854 0-23.392-3.008-31.835-11.448l-.008-.01h.025a98.916 98.916 0 0 1 19.561-2.597 76.211 76.211 0 0 1 1.858-.024c9.239 0 16.311 1.791 21.022 5.322a6.228 6.228 0 0 1 2.744 3.506 2.873 2.873 0 0 1-1.331 2.709c-2.12 1.601-5.912 2.455-11.271 2.541l-.756.025-.009-.024Zm-31.932-16.377a4.041 4.041 0 0 1-3.124-1.471 7.404 7.404 0 0 1-1.396-3.177 17.978 17.978 0 0 1-.366-4.628v-.023a3.762 3.762 0 0 1 1.533-.346 4.771 4.771 0 0 1 3.263 1.458 8.762 8.762 0 0 1 2.127 3.333 5.08 5.08 0 0 1 .227 3.319 2.413 2.413 0 0 1-2.269 1.525l.005.01Zm73.755-1.663a5.345 5.345 0 0 1-3.995-1.68 8.123 8.123 0 0 1-1.791-3.625 18.43 18.43 0 0 1-.443-5.313 5.458 5.458 0 0 1 1.969-.446h.141c3.164 0 5.658 2.744 6.726 5.464a5.481 5.481 0 0 1 .346 3.864 3.042 3.042 0 0 1-2.949 1.726l-.004.01Zm-35.926-1.487c-19.83-.698-30.117-6.333-35.263-10.939a23.048 23.048 0 0 1-5.343-6.862 14.68 14.68 0 0 1-1.144-3.071l.026-.012a16.963 16.963 0 0 1 4.896-.729h.464c6.687 0 20.301 2.808 36.357 21.609v.013l.007-.009Zm21.536-2.003c-15.955-2.429-24.994-9.276-29.767-14.595a30.464 30.464 0 0 1-6.569-11.008 23.501 23.501 0 0 1 4.914-.591c.213 0 .435-.009.661-.009.225 0 .46 0 .697.009 8.024.175 22.599 3.809 30.06 26.185h.012l-.008.009Zm-81.908-7.66a62.128 62.128 0 0 1-15.071-1.804c-8.354-2.088-11.937-5.277-13.472-7.585a7.947 7.947 0 0 1-1.299-3.192 5.367 5.367 0 0 1-.039-1.352l.039-.014a57.068 57.068 0 0 1 13.186-1.673c.301 0 .604-.007.913-.007a55.144 55.144 0 0 1 10.792 1.045 34.208 34.208 0 0 1 20.228 12.775v.011h-.016a62.56 62.56 0 0 1-15.272 1.789l.011.007Zm37.035-13.454a5.35 5.35 0 0 1-3.997-1.638 8.172 8.172 0 0 1-1.79-3.664 18.144 18.144 0 0 1-.442-5.272 5.469 5.469 0 0 1 1.968-.446h.141c3.158 0 5.656 2.745 6.728 5.465a5.352 5.352 0 0 1 .306 3.822 2.967 2.967 0 0 1-2.91 1.739l-.004-.006Zm-27.849-3.817a60.834 60.834 0 0 1-15.08-6.583c-6.986-4.3-15.532-11.905-16.574-23.722h.018a8.987 8.987 0 0 1 1.61-.194c.126 0 .273-.008.421-.008 2.087 0 6.358.587 11.526 4.516 6.578 5.014 12.652 13.757 18.083 26.014l-.004-.023Zm18.184-.668a49.153 49.153 0 0 1-11.932-7.665 76.535 76.535 0 0 1-21.065-29.391 9.715 9.715 0 0 1 4.606-.905c3.038.086 7.665 1.348 12.795 6.883 5.893 6.358 11.152 16.806 15.626 31.055l.012.04-.037-.012-.005-.005Zm-47.116-1.373c-6.075 0-8.154-3.295-8.767-4.712a9.804 9.804 0 0 1-.698-4.67v-.025c.989-.247 2.005-.38 3.024-.396h.208a12.498 12.498 0 0 1 10.187 4.839c.321.477 1.307 2.134.492 3.428-.656 1.02-2.143 1.537-4.449 1.537l.003-.001Zm-13.458-16.971a80.663 80.663 0 0 1-14.039-1.199c-5.411-.984-8.478-5.584-10.098-9.268a32.204 32.204 0 0 1-2.268-7.878h.015c16.737.491 24.642 5.38 28.325 9.394a14.755 14.755 0 0 1 4.04 8.72h-.011c-.025 0-2.382.227-5.973.227l.009.004Zm17.427-17.411a67.902 67.902 0 0 1-3.822-5.326c-1.982-3.08-3.815-6.299-3.815-8.925 0-2.539-.598-7.894-.954-10.858-.451-3.76-.908-6.979-.945-7.253h.016c.425.155 10.469 3.923 10.469 13.343s-.93 18.915-.939 19.009v.014h-.012l.002-.004Zm-13.017-.894c-.106 0-.21-.01-.315-.027-2.969-.495-8.191-2.764-13.953-6.069-6.404-3.671-11.605-7.605-14.643-11.075-2.772-3.165-4.41-8.135-4.889-14.773a54.823 54.823 0 0 1 .11-9.024 5.235 5.235 0 0 1 1.657-.252c2.223.037 4.595 1.037 7.799 3.243a62.72 62.72 0 0 1 8.178 6.947 125.265 125.265 0 0 1 9.073 10.042l.04.05c.334.598 3.197 5.758 5.427 10.781a34.755 34.755 0 0 1 2.551 7.239 3.914 3.914 0 0 1 0 2.244 1.138 1.138 0 0 1-.485.564 1.382 1.382 0 0 1-.555.114l.005-.004Z"/><path fill="#4E5B31" d="M550.592 637.999c.166-.071.315-.177.437-.309l.158-.147c.7-.654 1.366-1.346 1.993-2.07 1.679-1.906 3.931-4.697 5.91-7.162a640.807 640.807 0 0 0 7.78-9.9l.999-1.3 9.788-3.017 7.146-3.331-3.818-4.291-13.116 5.614-9.787 2.008-18.099 13.308.014.012c.037.03 2.632 2.189 5.212 4.535 1.15 1.046 2.601 2.394 3.625 3.506.422.453.814.933 1.172 1.436.216.358.411.729.586 1.109m67.215-20.182a49.96 49.96 0 0 0 25.07-7.013h.009v-.01a12.91 12.91 0 0 0-3.627-3.906c-2.446-1.795-6.858-3.94-13.987-3.968h-.148c-8.443 0-18.776 2.87-30.713 8.53a45.402 45.402 0 0 0 23.396 6.367l-.013.013.013-.013Zm37.009-8.201a5.345 5.345 0 0 0 3.995-1.68 8.111 8.111 0 0 0 1.789-3.627c.404-1.74.554-3.53.443-5.312a5.458 5.458 0 0 0-1.969-.446h-.141c-3.164 0-5.658 2.744-6.726 5.463a5.482 5.482 0 0 0-.346 3.864 3.046 3.046 0 0 0 2.949 1.726l.006.012Zm-65.122-7.547c21.874-3.123 31.146-11.029 35.072-17.112a19.778 19.778 0 0 0 3.32-12.547v-.018h-.017a14.525 14.525 0 0 0-3.349-.369c-5.819 0-20.704 2.927-35.032 30.036l-.008.018.025-.013-.011.005Zm44.834-4.333c9.345 0 16.46-1.613 21.148-4.788a12.989 12.989 0 0 0 4.645-5.196 8.538 8.538 0 0 0 .748-2.549 28.636 28.636 0 0 0-9.785-2.079 33.63 33.63 0 0 0-1.479-.037c-7.223 0-18.206 2.355-29.797 13.58l-.011.012h.014c4.815.664 9.669 1.016 14.529 1.058l-.012-.001Zm45.251-1.739c9.854 0 23.392-3.008 31.835-11.448l.009-.01h-.026a98.917 98.917 0 0 0-19.561-2.597 76.08 76.08 0 0 0-1.858-.024c-9.239 0-16.311 1.791-21.021 5.322a6.226 6.226 0 0 0-2.745 3.506 2.873 2.873 0 0 0 1.331 2.709c2.12 1.601 5.912 2.455 11.271 2.541l.757.025.008-.024Zm31.932-16.377a4.04 4.04 0 0 0 3.124-1.471 7.391 7.391 0 0 0 1.396-3.177c.321-1.52.445-3.076.366-4.628v-.023a3.776 3.776 0 0 0-1.533-.346 4.77 4.77 0 0 0-3.263 1.458 8.764 8.764 0 0 0-2.127 3.333 5.073 5.073 0 0 0-.226 3.319 2.413 2.413 0 0 0 2.268 1.525l-.005.01Zm-73.755-1.663a5.345 5.345 0 0 0 3.995-1.68 8.123 8.123 0 0 0 1.791-3.625c.404-1.74.554-3.53.443-5.313a5.47 5.47 0 0 0-1.968-.446h-.142c-3.164 0-5.658 2.744-6.726 5.464a5.476 5.476 0 0 0-.345 3.864 3.04 3.04 0 0 0 2.948 1.726l.004.01Zm35.926-1.487c19.83-.698 30.117-6.333 35.263-10.939a23.057 23.057 0 0 0 5.343-6.862c.495-.977.878-2.008 1.144-3.071l-.026-.012a16.961 16.961 0 0 0-4.896-.729h-.464c-6.687 0-20.301 2.808-36.356 21.609v.013l-.008-.009Zm-21.535-2.003c15.954-2.429 24.993-9.276 29.766-14.595a30.464 30.464 0 0 0 6.569-11.008 23.468 23.468 0 0 0-4.914-.59c-.213 0-.435-.01-.661-.01-.225 0-.46 0-.697.01-8.024.174-22.598 3.808-30.06 26.184h-.012l.009.009Zm81.907-7.66a62.19 62.19 0 0 0 15.071-1.804c8.354-2.088 11.937-5.277 13.472-7.585a7.958 7.958 0 0 0 1.3-3.192c.069-.447.082-.901.038-1.352l-.039-.014a57.018 57.018 0 0 0-13.186-1.673c-.3 0-.604-.008-.913-.008a55.215 55.215 0 0 0-10.792 1.046 34.208 34.208 0 0 0-20.228 12.775v.01h.016a62.557 62.557 0 0 0 15.272 1.79l-.01.007Zm-37.035-13.454a5.348 5.348 0 0 0 3.997-1.638 8.176 8.176 0 0 0 1.79-3.663c.404-1.726.553-3.503.442-5.273a5.465 5.465 0 0 0-1.968-.446h-.141c-3.158 0-5.656 2.745-6.728 5.465a5.353 5.353 0 0 0-.306 3.822 2.968 2.968 0 0 0 2.91 1.74l.004-.007Zm27.849-3.817a60.784 60.784 0 0 0 15.08-6.583c6.986-4.3 15.532-11.905 16.574-23.722h-.017a9.008 9.008 0 0 0-1.61-.194c-.127 0-.274-.008-.422-.008-2.087 0-6.358.588-11.526 4.515-6.578 5.014-12.652 13.758-18.083 26.015l.004-.023Zm-18.183-.668a49.183 49.183 0 0 0 11.932-7.665 76.545 76.545 0 0 0 21.064-29.391 9.702 9.702 0 0 0-4.023-.916c-.189 0-.384 0-.583.011-3.038.086-7.665 1.348-12.795 6.883-5.893 6.358-11.152 16.805-15.626 31.055l-.012.04.037-.012.005-.005ZM754 547.496c6.075 0 8.155-3.295 8.767-4.712.61-1.477.85-3.08.698-4.67v-.025c-.99-.247-2.005-.38-3.024-.396h-.208a12.5 12.5 0 0 0-10.187 4.839c-.321.477-1.307 2.134-.491 3.428.655 1.02 2.142 1.537 4.448 1.537l-.003-.001Zm13.458-16.971c4.706.011 9.403-.39 14.04-1.2 5.41-.983 8.477-5.583 10.097-9.267a32.183 32.183 0 0 0 2.268-7.879h-.015c-16.737.492-24.642 5.381-28.325 9.395a14.755 14.755 0 0 0-4.04 8.72h.011c.025 0 2.382.227 5.973.227l-.009.004Zm-17.427-17.41a67.832 67.832 0 0 0 3.822-5.327c1.982-3.08 3.815-6.3 3.815-8.925 0-2.54.598-7.894.954-10.858.452-3.76.908-6.98.946-7.253h-.017c-.425.155-10.469 3.923-10.469 13.343s.93 18.915.939 19.01v.013h.012l-.002-.004Zm13.017-.895c.106 0 .21-.01.315-.027 2.969-.495 8.19-2.764 13.953-6.07 6.404-3.67 11.605-7.603 14.643-11.074 2.772-3.165 4.41-8.135 4.889-14.773a54.907 54.907 0 0 0-.11-9.024 5.211 5.211 0 0 0-1.657-.252c-2.222.037-4.595 1.037-7.799 3.243a62.707 62.707 0 0 0-8.178 6.947 125.198 125.198 0 0 0-9.072 10.041l-.04.05c-.335.6-3.198 5.76-5.428 10.782a34.704 34.704 0 0 0-2.55 7.24 3.91 3.91 0 0 0 0 2.243c.093.237.264.436.485.564.175.076.364.115.554.114l-.005-.004Z"/><path fill="#D57800" d="m915.763 131.039-2.964 1.183-1.162.464-3.592-.198-3.365 1.617-5.966 4.083-.263.189-2.224.581-2.066-.892-1.173.534-.404 2.421-1.117 1.738-1.374.967-4.762.488-4.015 2.074-5.224-1.401-2.427.952-5.161 4.655-2.637 1.25-.921-.053-3.497-.18-1.476.484-2.205 2.134-4.173.325-1.3.902-2.037 4.11-2.207 2.279-1.258.267-1.369-.504-1.028.181-.466 2.63-.998 1.102-2.793.963-2.232 1.862-1.958 1.009-2.623-.066h-.603l-2.613 1.445-4.909.431-2.045 1.953-.45.417-.954.577-1.561.933-.378.232-1.888-.336-2.203.873-.891-1.373-1.524.917-2.014.087-2.517-1.121-1.916-.855-1.401.203-.487 2.446-.05.26-1.472 1.963-2.749 1.667-.378.488-3.128 4.044-5.944 6.261-5.026 2.557-5.209 1.587-3.651 3-9.566 4.749-15.099 7.53-3.087.991-4.431.708-7.902 2.915-6.972 2.106-.388.119-1.385.418-9.83 2.979-4.576-.484-2.71.986-7.055-.784-4.909.097-3.105.647-5.837 2.803-9.852 4.743-3.255 2.983-5.069 2.647-5.935 1.882.014-2.497-.035-.106-2.06.652-1.486.47-4.815.744h-2.678l-1.663-.484-.252.087-9.84 3.238-10.975 1.062-5.492 1.765-4.104-.066-2.565.764-5.035.617-1.797-.481-.406-.111-14.79.643-6.761-.765-3.228.735-5.412-1.823-7.891-.916-1.844-.554-4.154-1.233-1.877 1.083-1.405.15-3.357-1.219-1.208-.03-2.769 1.008-1.595-.409-1.482-1.183-3.475-.518-2.117-1.783-11.832 1.571-3.211-.945-10.767-3.142-1.713.087-2.14 1.602-3.207 1.172-2.785.724-3.791.127-4.406-1.158-4.539-2.203-1.677-.4-3.744.378-1.145.104-6.881-3.697-8.863-5.546-6.015-2.9-2.258-.367-.303 1.075 1.12 3.53.378 3.497-.115 3.231-.061 2.001.561 1.796 2.171 2.411.905 2.42.662 6.662-.007 6.759-1.056 10.78-.357 1.639-1.258 5.585-1.151 5.129-4.463 13.657-1.226 1.693-3.01 2.056-6.821 4.65-5.022 2.899-1.59.659-4.077.309-2.54-.126-3.163-1.716-3.106-.8-4.068-2.93-4.531-.938-4.961-2.872-1.291-1.554-2.702-.252-3.745-1.126v-.006l-1.376-.412-.951-.278-4.783-.126-4.456-2.06-2.346-.567-3.206-.163-3.356 1.562-1.7.793-2.149-.855-1.554.098-1.763 2.666-.216.407-1.213.643-1.511-.021-1.182-.032-1.279.56-1.722.747-1.52.665-.743.321-.012-.012-.457.092-.812.141-1.007.193-1.775-1.039-.944-.557-1.582-.323-.852.616-.168 2.9-.778 1.737-2.468 2.186-2.509 2.213-1.748 2.58-4.627 10.577-2.895 4.267-.9.995-3.044 3.353-2.689 2.089-6.195 4.81-5.864 2.194-5.052 1.034-2.455.01-4.658-.62-4.182-1.286-4.595-2.877-5.035-4.055-7.293-7.216-1.032-.622-.215-.143-2.297-1.472-1.705.045-.667 1.101-.365 1.593-.308 1.412-.836 8.026.062.465.439 3.306 5.538 7.753 1.71 4.118.28.471 1.143 1.922.87 1.466.087.149 1.888 5.658-1.33 3.194.672 2.143-1.682 1.308-.308 1.847 4.973 6.244 1.085 2.754-1.212 3.819-1.934 2.106-.54.576.272 1.614 2.289 2.061 3.888 3.467 2.073 5.151 1.577 1.387 1.833-.391 1.019.779 1.546-.026 1.521 1.522.984.478 1.556.777 1.23 1.603.271 4.931 2.294 6.126.035 3.322.013.472 1.427 2.456.448 1.938-.755 5.13 1.819 1.646 1.972-.403 1.274.202 2.047 1.707 2.478 3.782 2.424-.356 1.539.743 7.426 6.724 1.686.852.093.053 1.212.609 1.51 1.523 2.337-1.553.259-.027 2.54-.224 1.115.756 2.14 1.449 2.812-.037 6.097 1.872 2.668.685 5.363 3.338 2.28 1.412 1.349 1.098 1.792 1.464 3.581 1.543 3.072.736 1.664.396 1.258.484.032-.078h.018l-.031.079 6.651 2.55 3.603.843 3.333 1.229 2.426.882 1.779.029 2.518-2.12 2.438-.141 2.025.504 1.977-.332 3.127-1.93.611-.906 2.218-1.058 7.482-.93 2.186.711 5.614-2.446 3.761 1.048 3.329-1.183 7.275 1.619 1.933 1.363 2.161 2.477.265.011 2.406.047-1.007 1.678 3.176 3.337 2.869 4.343.193.573 2.086 6.132 1.551 2.172 1.085 3.032.053 1.977-1.687 1.288-.277.735-.095.272.342.826.637-.348 1.212-.672 1.475-.229 2.601.277 1.717.18 2.711-1.347 1.796-.895 2.886 1.244 3.172-.035 1.332.593 3.776 1.712 1.925.182.711-.468.453-1.079-.233-1.26-1.448-1.663-3.186-3.704-1.304-1.904-.993-2.755-.308-3.525-.219-2.377.396-3.122.856-1.115.629-2.481h.011l.163-.649 1.769-2.352 4.688-3.017 5.035-4.516 3.98-2.628 4.103-1.78.11-.504.457.184 10.437-3.554.173-.02 4.647-.811 31.367 2.212 1.163-.351v-.008l1.045-2.937.563-.545.377-.355 3.449-1.521 1.613-.23 4.476 1.107 1.832.452 2.936-1.648 2.082.036 4.301-2.353 2.657.067 1.007-.404 5.176-3.726 4.986-1.431 1.296-.69.457-.253 5.11-2.702 3.247-2.498 2.802-1.491 3.068-.793 8.031-.566 1.615-2.695 3.454-.462 2.086-2.357 2.391-.972 1.711-2.468 1.434-2.069 2.002-1.161 6.42-.404 7.609.945 1.007-.612 1.719-6.146 1.8-1.153 4.847-7.075.017-2.578v-2.153l.797-3.066-.542-5.536.642-5.604 3.014-7.123 2.654-2.873 4.28-2.9 2.176-.949 3.083-.519v.001l.453-.077.786-.135 10.614-.146c.148-.11 3.861-.053 3.861-.053l3.539-.048 8.958 1.593.636.111 3.021.982 3.492 2.72 3.698 3.617.694.674 2.391 1.008.724.317 1.978-.317 2.815-1.468 2.125-1.799 2.895-1.585.071-.101 1.63-2.455.049-.051.035.009v-.014h-.028l.644-.977 5.597-2.185 6.583-.378.74-.401.412-.22 1.74-2.046 1.63-.013 3.946 1.43 2.769-.553 2.203.883 1.712-.203 3.228-.378 3.467 2.442 2.02.252 7.122 4.173.37.06.191.035.408.069.845-.253 1.258-.364.167-.049.158.22.809 1.144 1.111.159 1.314-1.756-.523-.797-.197-.29-2.544-.518-2.285-3.908 2.175-2.346-3.412-4.193-.566-.695-.193-.295-1.179-1.794-5.974-9.121-7.782-6.221-2.725-2.183-.017-.013-.955-.756-4.153-4.234-2.969-3.946-.388-.849-.613-1.339-1.779-3.88-3.099-2.396-2.525-2.762-.126-.162-5.211-7.093-.856-1.189-1.231-.712-2.601-.017-.251-.253-.146-.152.088-.093 1.247-1.242 1.391-.351.599-1.373-2.653-7.69-.018-.268-.197-2.458 2.162-11.163.277-1.361 3.686-7.511 2.283-1.873 2.492-4.906 2.14-3.137 2.045-1.994.358-.212 3.693-2.239 3.103-.437 2.955-.418 5.161 1.594 4.909-.096.958-.102 2.228-.252 3.664-1.156 1.73-1.069.897-1.378 1.872-6.287.601-2.001 1.155-2.173 6.679-7.7 5.048-4.677 11.353-8.337 5.557-3.327 2.837-1.698 25.333-11.278 6.583-6.681 3.43-3.477 6.069-4.079 7.1-2.913 6.11-4.843 1.334-1.682 1.682-5.421 1.401-.339 1.259-2.741.36-.779 4.986-3.519.563-.282 19.37-9.719 2.814.387 1.511-2.261 5.635-.946 1.037-.177 1.385-.694 1.182-2.018v-.398l.162-5.387 1.203-1.456.656-3.55.618-.819.646-.852 1.596-1.124-.277-.669.04.039Z"/></g></svg>