<svg xmlns="http://www.w3.org/2000/svg" width="1136" height="758" overflow="hidden"><defs><clipPath id="a"><path d="M-1-1h1136v758H-1z"/></clipPath></defs><g clip-path="url(#a)" transform="translate(1 1)"><path fill-rule="evenodd" d="M0 504h1134v252H0Z"/><path fill="#FFF" fill-rule="evenodd" d="M0 252h1134v252H0Z"/><path fill="#CE1126" fill-rule="evenodd" d="M0 0h1134v252H0Z"/><path fill="#FFF" fill-rule="evenodd" stroke="#C09300" stroke-linejoin="round" stroke-miterlimit="10" stroke-width="1.59927" d="M568.01 380.985 654 460.94l-6.122-145.21c-.899-22.008-19.993-16.959-33.863-9.02-14.051 9.02-30.081 9.02-47.015 3.064-16.931 5.955-32.962 5.955-47.013-3.064-13.869-7.938-32.96-12.988-33.862 9.019L480 460.94Z"/><path fill="#C09300" fill-rule="evenodd" d="m496.039 310-5.946 141.942L480 461l6.128-145.922c2.882-1.995 7.93-5.077 9.911-5.077Zm12.084 10.16-5.046 118.734-10.089 10.387 6.126-137.101c1.984 1.993 7.931 6.887 9.009 7.974Zm10.991 9.061-3.963 99.028-8.108 7.974 5.047-112.984c1.977 1.994 5.941 4.895 7.024 5.982Zm11.895 5.08-3.964 84.401-7.93 6.47 3.964-93.952c1.984.907 5.948 3.081 7.93 3.081Zm10.991 0-2.885 70.336-8.108 7.978 3.065-77.406c1.978 0 7.025 0 7.928-.908ZM637.95 311l5.947 141.002L653.99 461l-6.129-144.956c-2.881-1.981-7.93-5.043-9.91-5.043Zm-12.083 10.093 5.046 117.947 10.089 10.319-6.126-136.193c-1.984 1.98-7.931 6.841-9.01 7.92Zm-10.991 9.001 3.963 98.372 8.108 7.922-5.047-112.237c-1.977 1.981-5.941 4.863-7.024 5.943Zm-11.895 5.047 3.964 83.841 7.93 6.427-3.965-93.329c-1.983.9-5.947 3.06-7.93 3.06Zm-10.991 0 2.885 69.869 8.108 7.925-3.065-76.893c-1.978 0-7.025 0-7.928-.901Z"/><path fill="#C09300" fill-rule="evenodd" stroke="#C09300" stroke-miterlimit="8" stroke-width="1.35192" d="m571.454 397.427 12.046 55.047-3.957 3.969-4.134-3.068-6.832-49.087 2.877 49.087-3.956 5.052-3.955-5.052 2.877-49.087-6.83 49.087-4.138 3.068-3.952-3.969 12.043-55.047h7.911Z"/><path fill="#FFF" fill-rule="evenodd" stroke="#C09300" stroke-linejoin="round" stroke-miterlimit="10" stroke-width="1.4968" d="m540.434 373.522-23.95 84.958 32.956 5.042 14.044-63.901-23.051-26.099Z"/><path fill="none" stroke="#C09300" stroke-linejoin="round" stroke-miterlimit="10" stroke-width="1.59864" d="m531.983 401.946 2.811 7.081 15.189-15.001"/><path fill="none" stroke="#C09300" stroke-linejoin="round" stroke-miterlimit="10" stroke-width="1.59864" d="m542.201 384.022 3.268 30.716 9.934-13.03m-3.974 5.061 5.426 18.768m2.128-6.895-10.975 16.706m3.423 16.674-3.513-16.651-3.066-16.936-7.353 9.978-3.225-11.505-10.291 10.579 5.234 19.242 7.223-11.904 3.973 12.128 7.415-11.56M522.985 456.146l6.687-9.135 4.356 14.06 5.973-9.857 3.984 11.797"/><path fill="#FFF" fill-rule="evenodd" stroke="#C09300" stroke-linejoin="round" stroke-miterlimit="10" stroke-width="1.4968" d="m594.562 373.522 23.95 84.958-32.956 5.042-14.044-63.901 23.05-26.1Z"/><path fill="none" stroke="#C09300" stroke-linejoin="round" stroke-miterlimit="10" stroke-width="1.59864" d="m602.013 401.946-2.967 7.08-16.033-15"/><path fill="none" stroke="#C09300" stroke-linejoin="round" stroke-miterlimit="10" stroke-width="1.59864" d="m590.795 384.022-3.268 30.716-9.934-13.03m3.974 5.061-5.426 18.768m-2.128-6.895 10.975 16.706m-3.423 16.674 3.513-16.651 3.066-16.936 7.353 9.978 3.225-11.505 10.291 10.579-5.234 19.242-7.223-11.904-3.973 12.128-7.415-11.56M611.01 456.146l-6.687-9.135-4.357 14.06-5.973-9.857-3.984 11.798"/><path fill="#FFF" fill-rule="evenodd" stroke="#C09300" stroke-linecap="round" stroke-linejoin="round" stroke-miterlimit="10" stroke-width="2.9937" d="M567.474 496.505c25.036 0 48.989-1.988 63.035-5.967 5.944-1.083 5.944-4.157 5.944-8.138 5.945-1.988 2.881-9.039 7.023-9.039-4.142 1.088-5.041-7.052-10.084-5.964 0-7.055-7.024-7.958-12.968-5.972-11.887 3.98-32.958 4.885-52.95 4.885-19.99-.905-40.882-.905-52.949-4.885-5.943-1.986-12.964-1.083-12.964 5.972-5.044-1.087-5.944 7.052-10.085 5.965 4.141 0 1.079 7.05 7.023 9.038 0 3.981 0 7.055 6.123 8.138 13.865 3.979 37.821 5.967 62.852 5.967Z"/><path fill="#FFF" fill-rule="evenodd" stroke="#C09300" stroke-linecap="round" stroke-linejoin="round" stroke-miterlimit="10" stroke-width="1.59864" d="M532.661 457.963c8.168 1.044 17.247 1.912 24.33 1.044 3.991 0 6.897 6.603-1.091 7.648-7.079.867-18.155 0-24.148-1.045-5.083-.869-16.158-2.78-23.241-4.695-7.08-2.951-1.994-8.684 1.996-7.817 6.175 1.911 14.165 3.824 22.154 4.866Zm68.632 0c-8.172 1.044-17.248 1.912-24.149 1.044-4.177 0-7.082 6.603.908 7.648 7.081.867 18.157 0 24.145-1.045 5.086-.869 16.16-2.78 23.241-4.695 7.083-2.951 2-8.684-1.996-7.817-6.174 1.911-14.162 3.824-22.149 4.866Z"/><path fill="#FFF" fill-rule="evenodd" stroke="#C09300" stroke-linecap="round" stroke-linejoin="round" stroke-miterlimit="10" stroke-width="1.59864" d="M507.671 454.121c-6.165-1.08-9.067 5.934-7.07 9.892.905-1.979 5.077-1.979 5.985-3.958 1.085-3.056-.908-3.056 1.085-5.934Zm24.121 18.4c0-3.955 3.988-3.469 3.988-7.427 0-1.978-1.086-5.039-3.081-5.039-1.995 0-3.991 1.979-3.991 3.957-.908 3.96 3.084 4.555 3.084 8.509Zm28.71-11.389c5.98 0 5.387 7.919 2.485 11.877 0-2.878-5.078-3.958-5.078-5.934 0-3.063 4.584-3.063 2.593-5.943Zm65.776-7.011c6.166-1.08 9.069 5.934 7.073 9.892-.907-1.979-5.078-1.979-5.985-3.958-1.088-3.056.908-3.056-1.088-5.934Zm-24.121 18.4c0-3.955-3.986-3.469-3.986-7.427 0-1.978 1.086-5.039 3.082-5.039 1.994 0 3.99 1.979 3.99 3.957.907 3.96-3.086 4.555-3.086 8.509Zm-28.71-11.389c-5.982 0-5.389 7.919-2.487 11.877 0-2.878 5.077-3.958 5.077-5.934.001-3.063-4.584-3.063-2.59-5.943Z"/><path fill="#FFF" fill-rule="evenodd" stroke="#C09300" stroke-linecap="round" stroke-linejoin="round" stroke-miterlimit="10" stroke-width="1.12147" d="M510.482 456.514c1.986 0 5.051.911 5.953 2l-5.959-2.004Zm9.907 3.095c1.083 0 5.052.908 7.035 1.997l-7.041-2.004Zm36.083 3.995c-1.984 0-5.952 0-7.032.906l7.028-.913Zm-11.001 0c-1.08-1.094-5.05-1.094-7.033 0h7.028Zm79.005-7.09c-1.984 0-4.871.911-5.954 2Zm-9.92 3.095c-1.081 0-5.05.908-7.034 1.997l7.04-2.004Zm-36.082 3.995c1.985 0 5.953 0 7.034.906l-7.04-.913Zm11 0c1.082-1.094 5.052-1.094 7.035 0h-7.041Z"/><path fill="#C09300" fill-rule="evenodd" d="M507.878 472.236c-.67-.122-1.022-.629-.854-1.229.206-.731.819-1.149 1.397-.953.368.124 1.042.773 1.045 1.006.003.267-.353.903-.506.905-.066 0-.168.055-.227.122-.126.141-.519.21-.855.149Zm68.97 4.703c-.249-.089-.647-.622-.646-.869.002-.464.721-1.221 1.166-1.225.22-.001.822.298 1.047.521.408.406.319 1.071-.194 1.449-.252.187-1.004.254-1.373.123Zm.452 2.975c-.527-.171-.72-.417-.763-.976-.045-.583.014-.673.658-1.009l.459-.239.435.185c.603.257.871.534.892.921.023.417-.301.844-.804 1.059-.441.189-.467.191-.877.059Z"/><path fill="#C09300" fill-rule="evenodd" d="M513.261 466.006c-.439-.014-1.042.383-1.387.584-.824.19-1.782.688-2.577.156-.783-.238-1.825-.05-1.943.897.201.813 1.36 1.278 2.062.741.521-.671 1.942-1.064 2.101.077-.58.864-.514 2.007-.991 2.924-.078.571-.32 1.114-.635 1.599-.586.057-1.209-.011-1.704.35-.794.043-1.605.431-2.062 1.092-.511.721-1 1.454-1.15 2.339.137.904 1.19 1.163 1.983 1.208.845.229 1.692.529 2.537.78 1.377.303 2.666.792 4.044 1.091 2.009.596 4.12.87 6.144 1.404.212.069.411.129.634.156.841.171 1.279-.727 1.348-1.404.417-1.446.735-2.917 1.15-4.366.285-.58.63-1.892-.515-1.598-.654.385-1.208.965-2.022 1.013-1.109.064-.476 1.18-.04 1.638.097.733-.139 1.608-.634 2.183-.66.411-1.486-.07-2.181-.234-.728.012-2.186-.353-1.506-1.326.241-.719.263-1.507.555-2.221.372-.767.426-1.604.595-2.417-.459-.97-1.242.319-1.863.428-.429.293-2.037.417-1.19 1.17.73.545.17 1.493.04 2.183-.047.961-1.063 1.19-1.864.975-.796-.038-1.904-.621-1.228-1.482.153-.717.408-1.422.555-2.144.301-.87.554-1.7.872-2.573.137-.773.42-1.506.792-2.183.022-.855.606-1.59.595-2.456-.059-.422-.252-.576-.515-.584Zm-4.559 9.043a.464.464 0 0 1 .278.039c.316.133.326.386 0 .663-.143.121-.305.238-.357.234-.594-.05-.769-.137-.793-.351-.022-.188.039-.243.436-.429a1.81 1.81 0 0 1 .436-.156Zm-1.315 6.263c-.629-.582-.527-1.006.403-1.688.398-.292.64-.259 1.095.149.701.629.729 1.027.11 1.566-.306.266-.439.321-.795.324-.372.004-.478-.042-.813-.351Zm3.87 1.148a1.073 1.073 0 0 1-.808-1.293l.018-.064c.163-.543.257-.596 1.066-.604.907-.009 1.083.141 1.091.926.005.442-.029.544-.253.749-.263.24-.768.369-1.114.285Zm113.042.099c-.288-.235-.346-.342-.349-.642-.004-.512.296-.888.946-1.177.865-.386 1.218-.333 1.544.231.433.751.412 1.057-.107 1.562-.286.279-.34.295-.996.302-.643.004-.717-.013-1.038-.276Zm-107.905 1.435c-.461-.121-.7-.462-.706-1.006-.006-.417.025-.483.321-.711.192-.148.495-.275.734-.306.339-.046.462-.017.735.171.698.483.847.96.442 1.424-.431.493-.839.608-1.526.428Zm27.808 1.222c-.103-.125-.329-.199-.353-.358.041-.692.075-1.393.299-2.056.122-.652.015-1.334.246-1.969.238-1.156.237-2.349.51-3.497.013-.592.07-1.184.245-1.754.2-.9.017-1.841.287-2.731-.029-.334.362-1.226.705-.698.499.72 1.157 1.304 1.803 1.89.555.316.046.78-.338.936-.527.204-.655.774-.618 1.275-.074.517-.284 1.006-.306 1.534-.111.777-.09 1.566-.192 2.341-.231.76-.143 1.572-.22 2.355.01.497-.23.948-.197 1.447-.061.506-.084 1.116-.516 1.463-.417.207-1.021.171-1.356-.178Zm37.676-12.225c-.612.455-1.159.992-1.705 1.521-.751.56.618.885.793 1.364.2.731.188 1.51.238 2.261a5.61 5.61 0 0 1 .278 2.144c-.066.777-1.096.613-1.546 1.053-.624.258-.873.861-1.348 1.286-.313.602-.396 1.343-.436 2.027.044.559-.384 1.184 0 1.677.049.069.108.164.158.233.129.182.435.037.635.078.638-.035 1.304.059 1.902-.195 1.535-.261 3.084-.282 4.639-.35.95.029 1.864-.296 2.814-.273.745.162 1.08-.632 1.071-1.209-.422-.815-.058-1.782-.397-2.612-.298-.839-.18-1.781-.317-2.65-.019-.685-.902-.938-1.348-.429-.433.43-1.132.516-1.467 1.052-.376.752.796.753.991 1.326.224.579.151 1.223.198 1.832.145.739-.671.781-1.189.858-.681.251-1.636.418-2.022-.39-.242-.598-.209-1.239-.277-1.871-.017-1.113-.289-2.207-.357-3.314-.065-1.368-.305-2.728-.396-4.093-.013-.568-.09-1.495-.912-1.325Zm-.793 10.292.397.039.039.467.04.468-.516.156a4.04 4.04 0 0 1-.515.117 3.356 3.356 0 0 1-.238-.156c-.278-.198-.207-.48.159-.857.206-.213.303-.254.634-.234Zm-38.013-11.577c-.482.169-1.094.865-1.585.858-1.117.078-.961 1.147-.159 1.52.106.325.007.734.04 1.092.156.985-.476 1.777-.357 2.768-.056 1.085-.389 2.143-.436 3.235-.313 1.127-.317 2.286-.515 3.431-.133 1.027-.888.664-1.547.39-.005-.445-.034-.88-.039-1.326.274-1.019-.56-1.317-1.388-1.442-.87.081-1.297-.653-1.11-1.403.374-.438 1.315-.316 1.903-.39 1.245.254 1.195-1.387.555-1.949-.437-.793-1.52-1.134-1.823-1.949.121-1.081-.609-2.161-1.507-2.69-1.381-.095-2.423 1.076-2.933 2.222-.575.163-1.147.332-1.705.546-.899.221-2.182 1.755-.952 2.338.691.187 2.792.659 1.864 1.599-.523.882-1.524.897-2.419.663-.917 0-1.939-.44-1.902-1.482-.188-.935-.157-1.944-.595-2.807-.188-1.047-1.396-.802-1.467.156-.93.667-.806 1.744-.158 2.534.404.909.004 1.968-.396 2.807-.243 1.091-1.467 1.128-2.34 1.481-.428.164-2.065-.097-1.466.819.955.331 2.096.63 3.092.389 1.044-.127 1.95-.829 2.458-1.715.701-.698 1.905-.333 2.814-.351.981-.002 1.983.677 2.934.234.275-.703 1.55-1.865 1.942-.662-.066 1.076.9 1.653 1.903 1.52 1.096-.061.691.762.674 1.404.073 1.165.837 1.777 1.824 2.261.336.089.691.059 1.03 0 .949-.294 1.971-.71 2.26-1.755.385-.849.394-1.809.674-2.689.225-1.41.515-2.82.555-4.249.35-1.296.25-2.665.515-3.977.168-.975.293-1.95.397-2.923-.117-.521-.345-.608-.635-.507Zm-8.602 5.185c.192.023.299.255.317.663.02.454.262.824.555.896.232.057.212.298-.039.468-.146.099-.407.159-.873.156-.733-.004-1.187-.19-1.585-.585l-.238-.233.357-.235c.25-.194.488-.402.713-.623.362-.363.601-.53.793-.507Zm83.765-9.825c-.719.032-1.442.147-2.1.312-1.32-.081-1.983 1.281-.714 1.949.763 1.914 1.954-.395 3.171-.234 1.824.349 1.978 2.286 2.26 3.742.103 1.443.525 2.847.951 4.211 1.221 1.334-.914 2.17-1.823 1.13-.776-.829-2.437-1.846-3.37-.702-1.146.478-1.193 1.984-2.141 2.417-1.533.46-1.726-1.396-2.537-2.183-.745-1.028-2.169-1.118-3.33-1.481-.544-1.084-.26-2.926-1.387-3.664-.946.379-2.681 2.123-1.229 2.923 1.418 1.199-.619 1.748-1.269 2.573-.928 1.016-1.076 2.415-1.229 3.704-1.597.867-1.908-.983-2.101-2.145-.124-1.386-1.314-.979-2.141-.467-1.208.481-1.811 1.609-2.656 2.494-.101.808.048 1.693.04 2.534.274 1.012 1.525.537 2.299.468 1.242-.511 1.75.783.754 1.521-.675.843-2.816.402-2.617 1.754.69.079 1.409.053 2.101 0 1.383-.372 2.869-1.332 3.013-2.846.182-1.32 2.115-1.08 3.171-1.364 1.321-.375 2.911-.471 3.212 1.169.899.929 2.852 1.976 3.845.702 1.008-.606 1.492-1.669 1.427-2.807-.206-.979 1.609-1.014 2.061-.468.662 1.07 2.729.755 3.727.156 1.06-.77 1.291-2.127 2.815-2.144 2.26-.666 4.609-1.05 6.818-1.871 1.789-.384-.266-1.494-.714-2.144-1.362-.663-2.547 2.048-4.083.701-1.187-.893-1.106-2.59-1.546-3.898-.301-1.693-.225-3.646-1.467-4.99-.853-.891-2.011-1.106-3.211-1.052Zm-8.642 11.812c.16-.004.34.074.635.234.556.301.952.802.951 1.208 0 .265-.069.283-.476.468-.25.113-.534.235-.634.234-.23-.003-.792-.445-.793-.624-.001-.074-.073-.357-.158-.584-.15-.401-.127-.395.079-.663.131-.172.237-.269.396-.273Zm8.286.428c.472-.03.753.115.951.469.231.41.074.724-.515.974-.258.11-.517.199-.555.195-.039-.004-.252-.128-.476-.273-.343-.222-.393-.329-.396-.585-.004-.393.443-.744.99-.78Zm-11.338.117c.138-.021.264.05.436.195.228.193.3.348.357.741.039.273.033.626 0 .78-.062.282-.068.269-.714.273-.812.007-.888-.08-.872-.819.01-.47.015-.597.278-.858.203-.202.377-.291.515-.312Zm-6.977 1.794a.718.718 0 0 1 .555.545c.083.397.01.577-.318.741-.281.141-.931.188-1.11.078a.763.763 0 0 1-.237-.234c-.087-.151-.071-.224.039-.312.077-.061.159-.149.159-.195-.001-.045.085-.203.198-.351a.694.694 0 0 1 .713-.272Zm11.734 1.481a.835.835 0 0 1 .555.195c.235.202.227.499-.04.702-.171.13-1.106.118-1.427 0-.143-.053-.197-.124-.198-.273-.003-.176.047-.284.357-.429.259-.122.527-.194.753-.195Zm-21.783 6.011c-.121-.078-.302-.146-.12-.276.219-.378.657-.508 1.046-.649a4.344 4.344 0 0 0 1.742-1.395c.063-.415.538-.641.536-1.075.003-.592.039-1.199-.108-1.779-.162-.531-.573-.938-1.048-1.214-.326-.252-.855-.321-.975-.767-.067-.427.321-.753.457-1.134.283-.526.522-1.077.826-1.59.328-.359.835-.02 1.006.327.24.346.452.718.571 1.119.384.414.724.9.862 1.45.188.387.486.751.468 1.205 0 .52.298.982.28 1.505.017.699.016 1.428-.244 2.088-.177.366-.533.586-.769.914-.404.369-.85.722-1.37.918-.366.115-.579.531-1.039.43-.653.011-1.315.099-1.963-.005.041.068-.198-.114-.158-.071Zm-8.69.562c-.308-.312-.374-.444-.378-.749-.003-.309.057-.432.358-.731.556-.552.828-.566 1.788-.088.917.457 1.227.498 1.309.175.08-.312.608-.598 1.109-.6.318-.003.497.06.751.254.319.244.335.282.343.847.005.578-.003.6-.369.919-.352.304-.408.323-.844.28-.555-.055-.887-.304-.978-.734-.065-.312-.177-.386-.26-.175-.027.069-.163.153-.303.187-.258.064-.696.335-1.007.624-.118.109-.324.161-.658.164-.452.003-.514-.023-.861-.373Zm-25.143-11.103c-.843.009-1.751.707-1.863 1.52.193.939.986 1.859.476 2.846.352 1.264-.966 1.743-1.864 1.014-.542-1.212-.816-2.54-1.625-3.625-1.02-.285-1.465 1.318-2.18 1.871.354.942 1.39 1.786 1.506 2.962.248 1.142-.458 2.409-1.467 3.002-.87.817-2.062.525-3.131.702-1.3.746.953 1.019 1.546 1.052 1.329.133 2.708-.039 3.686-1.013.976-.458.901-2.118 2.062-2.3 2.015-.089 4.012.303 6.025.351 1.078.253 2.745-.127 3.489.662.002 1.382 1.193 2.234 2.339 2.768.633.173 1.299-.598 1.942-.741 1.225-.384.853-1.873 1.586-2.456 2.094-.111 4.207-.087 6.303-.117.399.01.517-.548.793-.779-.046-.797-.075-1.588-.198-2.378-.404-1.006.065-2.301-.674-3.158-1.053-.282-1.949.666-3.013.741-1.175.515-2.164 1.582-2.22 2.885-.695 1.118-1.811-.199-1.427-1.131-.044-.406.089-.878-.04-1.247-.643-.759-1.769-.511-2.655-.624-1.293.051-2.554-.224-3.846-.195-1.133-.084-2.311.097-3.409-.194-1.309-.037-1.129-1.296-1.348-2.184a1.308 1.308 0 0 0-.793-.234Zm2.537 4.6c.435.009.846.065 1.269.117.546.089 1.129-.185 1.665 0 1.239.207 2.478.158 3.726.273.33-.005.566.23.793.429.003.852.001 1.72 0 2.573-.038.321.097.746-.198.974a.895.895 0 0 1-.317.156c-.344-.087-.707-.309-.873-.624-.052-.446.023-.878.04-1.325-.009-.116.052-.296 0-.39a1.606 1.606 0 0 0-.912-.312c-1.077-.036-2.133-.114-3.211-.156-.896-.055-1.818.076-2.695-.155-.341-.122-.784-.081-.991-.429-.297-.34.131-.745.436-.897.404-.18.833-.242 1.268-.234Zm14.311.312c.201-.003.265.062.357.429.058.234.126.52.158.624.046.147-.027.195-.237.272-.627.233-1.251.21-1.467-.077-.099-.131.016-.543.198-.702.367-.323.774-.545.991-.546Z"/><path fill="#FFF" fill-rule="evenodd" stroke="#C09300" stroke-miterlimit="8" stroke-width="1.53333" d="M582.514 318.623c.84.05-1.137-4.48-1.137-4.48 2.224 2.265 10.623 2.806 10.623 2.806-5.04-2.217-10.078-18.954-9.486-32.294.544-13.389-1.926-18.658-3.903-20.626-2.52-2.511-10.622-4.726-15.958-5.022-3.014-.147-2.52 2.264-2.52 2.264-5.582-1.427-11.165-1.968-13.685-.295-2.373 1.576-2.867 9.452-1.136 8.074 4.198-3.348 7.855-.295 10.374 3.347 2.223 3.2 2.075 12.258-1.137 22.841C551.19 306.363 542 317.489 542 317.489c4.99 0 12.006-4.43 12.006-4.43L552.327 320c5.286-2.511 9.486-6.4 9.486-6.4l5.039 5.268c1.68-2.215 5.04-5.268 5.04-5.268s4.199 4.431 10.622 5.023Z"/><path fill="none" stroke="#C09300" stroke-miterlimit="8" stroke-width="1.59874" d="M561.995 286.538s-2.779 20.545-7.995 26.38M566.384 286s-1.074 20.789-4.68 27.459m8.571-26.621s0 22.751 1.365 26.624m3.559-25.499S576.32 307.087 581 314"/><path fill="#C09300" fill-rule="evenodd" stroke="#C09300" stroke-miterlimit="8" stroke-width="0.445669" d="M557.211 277.5c-.246-1.953-.691-3.486-1.334-4.489-2.521-3.908-6.176-7.183-10.377-3.591 0 0 1.433-4.754 4.497-4.912 2.372-.158 7.758 1.901 12.503 10.562 0 0-3.509-.844-4.348-.052-1.583 1.479-.941 2.482-.941 2.482Z"/><path fill="#C09300" fill-rule="evenodd" stroke="#C09300" stroke-miterlimit="8" stroke-width="0.445669" d="M545.598 264.04c.338-1.121.871-2.145 1.549-2.584 2.47-1.657 7.939-1.121 13.409.292 0 0-.484-2.388 2.469-2.241 5.228.292 13.167 2.486 15.635 4.972.581.634 1.26 1.561 1.84 2.973h-.096c-1.21-1.706-4.648-1.608-5.471-1.511-1.308.147-2.13.097-3.873.536-.823.196-2.082.439-2.76.975-.531.439-.968 2.048-1.79 2.048-1.308 0-1.21-.341-1.55-.731-.436-.536-.678-1.317-1.114-1.268-1.354.245-3.533-.828-6.292-3.022-2.759-2.195-3.825-2.731-7.407-2.487-3.533.292-4.647 2.292-4.647 2.292Z"/><path fill="#FFF" fill-rule="evenodd" d="M567 265.5a1.5 1.5 0 1 1-3.001-.001 1.5 1.5 0 0 1 3.001.001Z"/><path fill="#FFF" fill-rule="evenodd" stroke="#C09300" stroke-miterlimit="8" stroke-width="1.44777" d="M567.475 412.5c41.508-31.686 37.949-78.103 37.949-78.103a16.247 16.247 0 0 1-3.231.326c-8.707 0-29.474-4.943-34.319-11.223-5.19 5.684-26.412 11.223-35.064 11.223-1.095 0-2.19-.108-3.23-.326 0 0-3.615 46.415 37.894 78.103Z"/><path fill="#C09300" fill-rule="evenodd" d="M555 333v64l-7.526-9.994c-4.998-7.852-8.791-16.539-11.281-25.932-1.582-5.968-2.624-12.171-3.016-18.351-.104-1.654-.192-3.472-.175-5.226.34.065.683.109 1.03.109 3.701 0 9.991-1.118 16.238-2.932Z"/><path fill="#FFF" fill-rule="evenodd" d="M566.687 328c1.75 1.498 4.197 2.872 7.005 4.089L578 333.57v63.32l-1.067 1.357A92.881 92.881 0 0 1 566.408 408a92.8 92.8 0 0 1-10.515-9.745L555 397.12v-63.716l4.445-1.508c2.882-1.196 5.41-2.512 7.242-3.896Z"/><path fill="#C09300" fill-rule="evenodd" d="m578 333 4.924 1.69c6.468 1.767 13.039 2.777 16.995 2.777.363 0 .723-.011 1.081-.033.006 1.272-.091 3.404-.189 5.145-.415 6.218-1.515 12.459-3.181 18.464-2.624 9.458-6.62 18.206-11.881 26.114L578 397Z"/><path fill="none" stroke="#C09300" stroke-miterlimit="8" stroke-width="1.15318" d="M601.5 338.457c-.351.022-.704.033-1.059.033-7.75 0-25.75-3.997-32.688-9.99-7.268 5.536-25.565 9.99-33.19 9.99-.357 0-.711-.044-1.061-.109-.017 1.747.073 3.556.181 5.203.403 6.152 1.477 12.327 3.106 18.269 5.131 18.7 15.631 34.592 30.687 46.647 15.068-12.065 25.581-27.972 30.723-46.686 1.632-5.941 2.709-12.115 3.116-18.267.096-1.722.191-3.831.185-5.09Z"/></g></svg>