<svg xmlns="http://www.w3.org/2000/svg" width="1000" height="500" version="1.0"><path fill="#ea0437" d="M0 0h1000v500H0z"/><path fill="#4189dd" d="M0 500h1000V250"/><path fill="#12ad2b" d="M0 0h1000v250"/><path fill="#ffc726" d="M230.25 371.496c-10.81 2.985-17.008 11.372-16.85 19.285l53.211-.214c.478-8.503-6.517-16.367-17.166-19.464 52.097-1.076 97.357-20.59 105.58-33.112-8.138-3.532-17.548 2.153-24.257.845 15.928-7.362 63.647-38.248 55.889-71.36-6.031 18.391-24.3 33.608-32.081 37.694 17.826-27.067 42.166-55.247 21.049-77.07 1.066 12.648-8.037 26.568-12.058 27.613 10.34-28.599 20.206-64.507-2.197-88.178 2.942 8.556 1.754 32.69-2.297 33.775-1.248-19.447-4.566-60.352-25.047-59.77 6.505 5.79 9.351 21.596 9.496 37.56-4.668-10.936-9.972-19.17-21.318-27.246-9.178-17.602-25.508-32.187-41.84-42.635 1.833 12.813 3.35 22.92 21.24 36.21-9.328-.58-18.652-18.262-28.62-18.752-7.93-.383-14.151 7.184-27.108 2.83 1.434 4.277 7.48 6.171 8.755 9.335-2.775 1.917-9.364-.3-14.84-3.152 7.534 10.263 19.208 16.298 29.12 14.261 11.786-2.266 24.424-1.068 36.477 5.79-3.079 1.582-15.06 1.572-22.75.61 6.99 7.076 11.677 11.766 23.83 11.688 10.855-.07 16.546-5.79 19.334-2.248 6.808 8.068 11.39 16.131 17.085 25.629-12.58 1.39-8.788-14.229-22.799-22.217-7.872 16.294 9.055 35.609 20.577 43.638.155 12.246 1.945 22.493 7.14 31.818 3.501 6.574 8.028 13.303 6.321 28.14-6.897-5.024-13.638-21.967-11.158-35.416-8.633 2.354-12.008 17.535-7.94 25.177 3.04 5.817 5.07 16.95 1.564 21.928-3.417 4.637-3.775 4.118-3.73 14.07.122 5.955-3.205 12.997-8.623 17.907 1.131-4.196 2.421-11.415 1.168-15.928-4.283 7.266-15.028 14.784-18.412 22.595-3.322 7.83-4.165 21.39-20.245 24.518-20.686 4.106-27.826 7.69-41.137 13.138-1.477-10.11 2.945-31.194 11.399-29.991 8.254 1.469 33.28-8.623 24.328-29.706-1.768 6.645-7.666 13.13-14.043 13.416 6.89-8.938 19.185-18.194 13.197-33.171-3.329 6.366-8.564 14.007-16.503 18.306 8.51-16.31.988-21.19-9.118-7.756-3.817 5.182-6.122 15.567-8.547 28.756-3.97-10.727-3.708-24.848-8.412-36.313-4.914-12.4 6.521-15.673 11.903-14.678 13.177 3.518 35.198 3.516 33.562-18.253-5.691 7.363-15.671 9.638-26.449 6.987 12.104-8.839 21.661-25.464 8.173-34.144-.45 9.205-7.573 19.525-17.083 24.278-2.226-7.767-2.226-16.009-.317-25.045-5.31 5.59-9.189 17.22-12.273 30.44-.232-13.068 2.24-22.484 4.073-29.514 2.78-10.27 9.687-3.587 20.262-2.83 10.183.577 24.204-5.05 21.524-18.86-3.477 5.463-10.615 7.59-17.907 7.012 8.78-5.319 24.076-14.77 15.687-29.308-3.524 5.506-4.665 10.216-14.865 11.905 2.672-6.145 3.115-14.833 11.032-18.275-14.123-2.812-22.208 6.456-26.318 20.971-1.667-10.063-3.65-13.768-4.045-21.13 7.634-8.478 8.433-25.065-8.094-28.774-.98 8.556-.69 10.594 1.19 17.561-7.758-4.609-18.692-7.152-25.972-.635 4.932 5.323 12.566 10.009 24.332 4.204-2.78 9.093-10.008 7.536-19.942 4.07 6.072 11.403 13.734 13.43 22.19 12.116 4.428 11.673 4.623 20.542-8.315 37.541.598-10.564-.153-18.434-8.546-26.975-7.192-7.044-13.038.3-1.798 15.962-6.819-5.022-14.536-15.214-16.86-25.403-2.248 12.588-.224 27.425 6.745 35.743-3.296 3.522-7.044-.375-12.588-8.991 2.097 27.575 13.862 32.896 29.673 26.75.45 15.135.45 29.15 1.35 47.434-9.22-13.262-20.907-23.155-27.428-25.627-2.022 7.418 5.622 17.083 9.893 22.479-6.52-1.349-20.683-12.139-20.683-12.139-1.424 12.29 14.465 23.68 24.73 28.774-12.064-.524-17.387-5.094-25.18-12.588.151 34.095 36.942 28.174 43.837 22.929.9 16.786 2.182 36.19 3.08 52.976-10.4-1.815-9.582-4.942-18.482-5.766-24.7-.962-44.295-29.651-50.783-50.755-1.862 3.473-.385 7.107-2.088 11.374-4.01-10.358-9.134-23.736-16.005-29.962 1.75 6.038 1.935 12.175 1.327 23.461-2.358-7.312-4.552-9.554-4.71-18.139.15-6.59 6.358-11.453 6.014-20.723-.254-6.767-6.427-21.435-7.335-32.79-2.989 11.687-4.865 24.006-9.443 31.242 2.275-12.48 1.546-21.094 5.394-29.493 4.446-8.842 8.226-16.737 5.266-25.661-2.838 3.447-1.862 6.578-8.993 14.953-1.55-9.107 9.22-23.684 19.673-29.544 7.372-3.884 16.664-17.777 10.61-27.299-6.931 4.979-10.044 11.706-19.837 23.2 6.985-27.306 25.134-34.45 46.862-34.543 4.808-.022 14.501-1.758 17.222-8.12-6.125 2.364-13.366 2.665-19.81 1.375 4.69-6.885 14.566-5.99 23.77-6.03 7.218-.035 18.488-1.014 23.044-11.295-8.806 3.815-22.54 4.608-31.188 1.906 13.753-7.125 35.294-7.892 46.342-17.244-12.593-9.398-44.104 2.19-64.007 15.84 5.563-5.086 14.355-14.11 19.206-21.394-10.886-5.22-38.415 25.279-47.899 43.4-9.007 5.086-12.61 13.06-16.108 18.625 4.8-16.219 5.308-27.987 9.313-41.343-30.877 10.63-18.043 67.68-24.76 81.328.791-15.069.151-34.427-6.053-44.409-9.51 7.256-10.278 49.96-1.349 85.511-3.224-9.514-9.31-18.395-11.262-29.974-14.076 25.671 8.251 55.957 26.92 79.88-14.055-7.32-27.951-23.066-37.08-36.267 2.52 45.947 50.501 55.493 57.95 66.786-10.11-4.706-29.439-14.02-37.64-4.26 13.351 3.082 24.002 6.644 32.584 12.27 12.452 15.547 36.032 22.347 77.098 24.064z"/></svg>