<svg xmlns="http://www.w3.org/2000/svg" width="1136" height="758" overflow="hidden"><defs><clipPath id="a"><path d="M-1-1h1136v758H-1z"/></clipPath></defs><g clip-path="url(#a)" transform="translate(1 1)"><path fill="#C60B1E" fill-rule="evenodd" d="M0 0h1134v756H0Z"/><path fill="#FFC400" fill-rule="evenodd" d="M0 189h1134v378H0Z"/><path fill="#AD1519" fill-rule="evenodd" stroke="#000" stroke-linejoin="round" stroke-miterlimit="10" stroke-width="0.392756" d="M254.143 336.493s-.777 0-1.203-.237c-.427-.238-1.721-1.427-1.721-1.427l-1.035-.728-.944-1.263s-1.112-1.753-.61-3.105c.518-1.352 1.386-1.827 2.163-2.228.776-.387 2.406-.877 2.406-.877s1.294-.55 1.72-.624c.427-.089 1.98-.475 1.98-.475s.426-.238.853-.402c.441-.163 1.035-.163 1.385-.237.335-.089 1.203-.357 1.721-.387.792-.029 2.071.149 2.497.149.427 0 1.889.074 2.498.074.594 0 2.741-.163 3.35-.163.594 0 1.035-.075 1.72 0 .686.089 1.889.475 2.239.639.35.163 2.406.876 3.182 1.114.777.238 2.665.55 3.533.951.853.401 1.386 1.07 1.812 1.634.427.55.518 1.159.686 1.56.167.386.167 1.248 0 1.649-.168.387-.777 1.204-.777 1.204l-.944 1.515-1.203.951s-.868.802-1.553.713c-.686-.059-7.66-1.277-12.137-1.277s-11.633 1.277-11.633 1.277h.015Z"/><path fill="#C8B100" fill-rule="evenodd" stroke="#000" stroke-miterlimit="8" stroke-width="0.392756" d="M268.5 326.5c0 2.209-1.119 4-2.5 4s-2.5-1.791-2.5-4 1.119-4 2.5-4 2.5 1.791 2.5 4Z"/><path fill="#C8B100" fill-rule="evenodd" stroke="#000" stroke-miterlimit="8" stroke-width="0.392756" d="M267.5 327c0 1.933-.448 3.5-1 3.5s-1-1.567-1-3.5.448-3.5 1-3.5 1 1.567 1 3.5Z"/><path fill="#C8B100" fill-rule="evenodd" d="M267 322c0 .552-.672 1-1.5 1s-1.5-.448-1.5-1 .672-1 1.5-1 1.5.448 1.5 1Z"/><path fill="#C8B100" fill-rule="evenodd" stroke="#000" stroke-miterlimit="8" stroke-width="0.453228" d="M268.5 321.737v.763h-4v-.763h1.486V320h-.98v-.75h.98v-.75h.949v.75h.98v.75h-.98v1.737h1.565"/><path fill="none" stroke="#000" stroke-miterlimit="8" stroke-width="0.392756" d="M266.403 321.5c.798.151 1.264.713 1.042 1.255-.223.542-1.05.859-1.848.707-.798-.151-1.264-.713-1.041-1.255.141-.343.536-.611 1.041-.707"/><path fill="#C8B100" fill-rule="evenodd" stroke="#000" stroke-miterlimit="8" stroke-width="0.392756" d="M265.985 336.5h-7.201l-.164-1.898-.344-1.979-.345-2.462c-1.991-2.815-3.817-4.665-4.431-4.263.15-.515.329-.901.704-1.142 1.766-1.127 5.404 1.576 8.143 6.017.24.402.479.804.689 1.206h5.943c.21-.402.449-.804.689-1.206 2.724-4.441 6.377-7.144 8.129-6.017.389.241.553.627.703 1.142-.614-.386-2.425 1.448-4.431 4.263l-.344 2.462-.345 1.979-.149 1.898h-7.246Z"/><path fill="none" stroke="#000" stroke-miterlimit="8" stroke-width="0.392756" d="M253.5 326.628c1.397-.691 4.638 1.485 7.264 4.872m17.736-4.872c-1.397-.691-4.622 1.485-7.263 4.872"/><path fill="#C8B100" fill-rule="evenodd" stroke="#000" stroke-miterlimit="8" stroke-width="0.392756" d="M255.369 339.493c-.3-.845-.869-1.6-.869-1.6 2.92-.845 6.978-1.378 11.485-1.393 4.507.015 8.61.548 11.515 1.393 0 0-.329.563-.778 1.348-.255.444-.585 1.2-.57 1.2-2.62-.8-6.019-1.2-10.182-1.215-4.178.015-8.176.519-10.272 1.274.03 0-.15-.474-.344-1.007h.015"/><path fill="#C8B100" fill-rule="evenodd" stroke="#000" stroke-miterlimit="8" stroke-width="0.392756" d="M266.007 343.5c3.598-.015 7.565-.573 9.03-.951.977-.302 1.555-.739 1.451-1.268-.059-.241-.266-.453-.548-.573-2.161-.71-6.025-1.208-9.933-1.208-3.893 0-7.801.498-9.947 1.208-.282.12-.489.332-.548.573-.104.529.474.966 1.451 1.268 1.465.378 5.447.936 9.044.951ZM277.485 336.505l-.874-.977s-.845.627-1.897.442c-1.037-.203-1.378-1.788-1.378-1.788s-1.171 1.235-2.134 1.143c-.964-.111-1.586-1.143-1.586-1.143s-1.052.94-1.971.848c-.919-.111-1.793-1.53-1.793-1.53s-.934 1.475-1.853 1.585c-.918.093-1.674-.995-1.674-.995s-.415 1.088-1.586 1.327c-1.171.24-2.178-1.143-2.178-1.143s-.667 1.346-1.467 1.696c-.801.332-1.838-.497-1.838-.497s-.178.497-.296.792c-.119.295-.46.35-.46.35l.267.867c2.86-1.033 6.758-1.678 11.159-1.678 4.401 0 8.403.645 11.278 1.696l.296-.995h-.015Z"/><path fill="#C8B100" fill-rule="evenodd" stroke="#000" stroke-miterlimit="8" stroke-width="0.392756" d="m266.053 332.5.419.066c-.075.158-.09.317-.09.501 0 .765.75 1.385 1.679 1.385.734 0 1.364-.409 1.588-.963.015.013.165-.501.225-.501.045 0 .045.541.075.541.105.699.824 1.174 1.649 1.174.929 0 1.663-.62 1.663-1.398 0-.053 0-.106-.015-.159l.525-.461.285.58c-.105.185-.15.383-.15.607 0 .738.704 1.332 1.588 1.332.555 0 1.035-.238 1.319-.594l.345-.382v.475c0 .448.21.87.734.936 0 0 .57.04 1.364-.501.779-.541 1.199-.989 1.199-.989l.045.554s-.764 1.107-1.454 1.45c-.374.198-.959.409-1.423.33-.48-.066-.825-.409-1.005-.804-.344.184-.764.29-1.199.29-.944 0-1.798-.462-2.128-1.135-.434.409-1.034.66-1.738.66-.765 0-1.454-.303-1.889-.765-.419.356-1.004.567-1.633.567-.824 0-1.574-.369-1.993-.91-.435.541-1.169.91-2.009.91-.629 0-1.214-.211-1.633-.567-.435.462-1.124.765-1.874.765-.719 0-1.319-.251-1.753-.66-.33.673-1.184 1.135-2.128 1.135-.435 0-.84-.106-1.184-.29-.18.395-.525.738-1.02.804-.449.079-1.034-.132-1.408-.33-.705-.343-1.529-1.45-1.529-1.45l.105-.554s.435.448 1.214.989c.779.541 1.364.501 1.364.501.509-.066.734-.488.734-.936v-.475l.33.382c.285.356.764.594 1.319.594.884 0 1.588-.594 1.588-1.332 0-.224-.03-.422-.15-.607l.285-.58.525.461c-.015.053-.015.106-.015.159 0 .778.734 1.398 1.663 1.398.825 0 1.544-.475 1.664-1.174.015 0 .015-.541.06-.541.075 0 .21.514.24.501.209.554.839.963 1.588.963.915 0 1.664-.62 1.664-1.385 0-.184 0-.343-.075-.501l.435-.066h.015Z"/><path fill="#C8B100" fill-rule="evenodd" stroke="#000" stroke-linejoin="round" stroke-miterlimit="10" stroke-width="0.392756" d="M265.992 336.217c-4.694.013-8.921.5-11.962 1.271-.203.054-.453-.081-.515-.23-.062-.176.078-.379.281-.433 3.041-.811 7.377-1.325 12.196-1.325 4.82 0 9.171.514 12.212 1.325.203.054.343.257.281.433-.062.149-.312.284-.515.23-3.041-.771-7.283-1.258-11.978-1.271Z"/><path fill="#C8B100" fill-rule="evenodd" stroke="#000" stroke-miterlimit="8" stroke-width="0.392756" d="M250.285 334.5c-.014.015-.51-.716-.872-1.09-.269-.268-.913-.492-.913-.492 0-.119.376-.418.778-.418.242 0 .47.105.604.299l.054-.299s.322.075.47.478c.161.432.067 1.074.067 1.074s-.067.299-.188.448ZM253.5 333.172l-.192 1.082-2.442.246-.366-.197.07-.377 1.849-1.426 1.081.672"/><path fill="#C8B100" fill-rule="evenodd" stroke="#000" stroke-miterlimit="8" stroke-width="0.392756" d="M250.581 334.604c.155-.168.464-.126.684.083.232.21.309.532.155.699-.155.182-.465.14-.684-.084-.233-.209-.31-.531-.155-.698ZM254.543 334.105c-.11-.257 0-.527.238-.598.256-.043.548.128.677.384.109.271 0 .541-.256.598-.238.057-.531-.114-.659-.384ZM255.5 333.086l.841.414 2.011-.569.148-.181-.28-.146-2.308-.104-.412.586M257.359 329.5l-.859 1.027 1.103 1.829.294.144.218-.289.385-2.198-1.141-.513M261.5 331.952l-.424.548-2.282-.113-.294-.139.163-.191 1.989-.557.848.452"/><path fill="#C8B100" fill-rule="evenodd" stroke="#000" stroke-miterlimit="8" stroke-width="0.392756" d="M259.5 332.5a1 1 0 1 1-2 0 1 1 0 0 1 2 0ZM261.51 333.049a.45.45 0 0 1 .404-.546.546.546 0 0 1 .576.462.439.439 0 0 1-.403.533.547.547 0 0 1-.577-.449ZM263.5 331.542l.638.958 2.139-.706.223-.302-.239-.337-2.123-.655-.638 1.042"/><path fill="#C8B100" fill-rule="evenodd" stroke="#000" stroke-miterlimit="8" stroke-width="0.392756" d="m266 328.5-1.5.765 1.116 2.029.384.206.384-.206 1.116-2.029-1.5-.765M268.5 331.542l-.417.958-1.433-.706-.15-.302.15-.337 1.433-.655.417 1.042"/><path fill="#C8B100" fill-rule="evenodd" stroke="#000" stroke-miterlimit="8" stroke-width="0.392756" d="M266.5 332a.5.5 0 1 1-1 0 .5.5 0 0 1 1 0ZM270.495 333.049a.473.473 0 0 0-.418-.546.542.542 0 0 0-.572.462c-.038.266.134.519.4.533.267.028.533-.183.59-.449ZM271.5 331.952l.283.548 1.521-.113.196-.139-.109-.191-1.326-.557-.565.452M274.641 329.5l.859 1.027-1.102 1.829-.295.144-.218-.289-.385-2.198 1.141-.513M276.5 333.086l-.836.414-2-.569-.164-.181.312-.146 2.295-.104.393.586"/><path fill="#C8B100" fill-rule="evenodd" stroke="#000" stroke-miterlimit="8" stroke-width="0.392756" d="M274.5 332.5c0 .552-.224 1-.5 1s-.5-.448-.5-1 .224-1 .5-1 .5.448.5 1ZM277.457 334.105c.11-.257 0-.527-.238-.598-.256-.043-.548.128-.676.384-.11.271 0 .541.256.598.237.057.53-.114.658-.384ZM281.713 334.5c.013.015.51-.716.887-1.09.255-.268.9-.492.9-.492 0-.119-.376-.418-.779-.418a.726.726 0 0 0-.605.299l-.054-.299s-.323.075-.484.478c-.148.432-.04 1.074-.04 1.074s.054.299.175.448ZM278.5 333.172l.192 1.082 2.442.246.366-.197-.087-.377-1.832-1.426-1.081.672"/><path fill="#C8B100" fill-rule="evenodd" stroke="#000" stroke-miterlimit="8" stroke-width="0.392756" d="M281.416 334.604c-.141-.168-.45-.126-.681.083-.232.21-.309.532-.155.699.155.182.463.14.695-.084.231-.209.295-.531.141-.698Z"/><path fill="#AD1519" fill-rule="evenodd" stroke="#000" stroke-miterlimit="8" stroke-width="0.392756" d="m254.5 339.225.646-.725 1.354.188-.792.812-1.208-.275"/><path fill="#058E6E" fill-rule="evenodd" stroke="#000" stroke-miterlimit="8" stroke-width="0.392756" d="m259.066 338.364-1.008.133c-.263.025-.511-.109-.555-.315-.029-.206.146-.388.395-.424l1.022-.122 1.037-.133c.263-.024.496.109.54.303.029.206-.146.4-.394.424l-1.037.134"/><path fill="#FFF" fill-rule="evenodd" stroke="#000" stroke-miterlimit="8" stroke-width="0.392756" d="M263.5 338c0 .276-.448.5-1 .5s-1-.224-1-.5.448-.5 1-.5 1 .224 1 .5Z"/><path fill="#AD1519" fill-rule="evenodd" stroke="#000" stroke-miterlimit="8" stroke-width="0.392756" d="M266.477 338.5h-1.471a.507.507 0 0 1-.506-.5c0-.274.215-.5.49-.5h3.004c.292 0 .506.226.506.5s-.23.5-.506.5h-1.517"/><path fill="#FFF" fill-rule="evenodd" stroke="#000" stroke-miterlimit="8" stroke-width="0.392756" d="M270.5 338a.5.5 0 1 1-1 0 .5.5 0 0 1 1 0Z"/><path fill="#058E6E" fill-rule="evenodd" stroke="#000" stroke-miterlimit="8" stroke-width="0.392756" d="m273.415 338.364 1.342.133c.35.025.68-.109.739-.315.039-.206-.175-.388-.525-.424l-1.362-.122-1.38-.133c-.35-.024-.681.109-.72.303-.058.206.175.4.525.424l1.381.134"/><path fill="#AD1519" fill-rule="evenodd" stroke="#000" stroke-miterlimit="8" stroke-width="0.392756" d="m277.5 339.315-.272-.815-.728.092.348.908.652-.185"/><path fill="#AD1519" fill-rule="evenodd" stroke="#000" stroke-linejoin="round" stroke-miterlimit="10" stroke-width="0.392756" d="M265.977 342.5c-3.655 0-6.965-.326-9.477-.963 2.512-.637 5.822-1.022 9.477-1.037 3.671 0 6.996.4 9.523 1.037-2.527.637-5.852.963-9.523.963Z"/><path fill="none" stroke="#000" stroke-miterlimit="8" stroke-width="0.0151181" d="M267.5 342.405v-1.841m-.58 1.904.01-1.952m-.43 1.984v-2"/><path fill="none" stroke="#000" stroke-miterlimit="8" stroke-width="0.0302362" d="M265.5 342.5v-2"/><path fill="none" stroke="#000" stroke-miterlimit="8" stroke-width="0.0453543" d="M265.5 342.5v-2"/><path fill="none" stroke="#000" stroke-miterlimit="8" stroke-width="0.0604724" d="M264.5 342.5v-2M264.5 342.5v-2"/><path fill="none" stroke="#000" stroke-miterlimit="8" stroke-width="0.0754856" d="M263.5 342.5v-2"/><path fill="none" stroke="#000" stroke-miterlimit="8" stroke-width="0.0906037" d="m262.537 342.467-.037-1.901m1 1.934v-2"/><path fill="none" stroke="#000" stroke-miterlimit="8" stroke-width="0.105722" d="M262.5 342.447v-1.876m1 1.929-.038-2"/><path fill="none" stroke="#000" stroke-miterlimit="8" stroke-width="0.12084" d="M261.5 342.402v-1.824m.5 1.844V340.5m.5 2v-2"/><path fill="none" stroke="#000" stroke-miterlimit="8" stroke-width="0.135958" d="M260.5 342.5v-2"/><path fill="none" stroke="#000" stroke-miterlimit="8" stroke-width="0.151076" d="M260.5 342.5v-2"/><path fill="none" stroke="#000" stroke-miterlimit="8" stroke-width="0.166194" d="M260.5 341.5v-1"/><path fill="none" stroke="#000" stroke-miterlimit="8" stroke-width="0.181312" d="m259.539 341.443-.039-.886m1 .943v-1M259.5 341.5v-1"/><path fill="none" stroke="#000" stroke-miterlimit="8" stroke-width="0.19643" d="M258.5 342.5v-1"/><path fill="none" stroke="#000" stroke-miterlimit="8" stroke-width="0.211444" d="M258.5 342.5v-1"/><path fill="none" stroke="#000" stroke-miterlimit="8" stroke-width="0.226562" d="M257.5 342.5v-1"/><path fill="none" stroke="#000" stroke-miterlimit="8" stroke-width="0.271916" d="M257.5 342.501V341.5"/><path fill="#005BBF" fill-rule="evenodd" stroke="#000" stroke-miterlimit="8" stroke-width="0.589186" d="M289.5 500.385c-2.324 0-4.391-.563-5.93-1.485-1.508-.871-3.56-1.4-5.824-1.4-2.278 0-4.375.546-5.899 1.417-1.524.905-3.621 1.468-5.915 1.468-2.323 0-4.406-.614-5.93-1.536-1.508-.837-3.515-1.349-5.718-1.349-2.293 0-4.315.495-5.824 1.383-1.539.922-3.651 1.502-5.96 1.502v4.115c2.309 0 4.421-.597 5.96-1.502 1.509-.888 3.531-1.4 5.824-1.4 2.188 0 4.21.529 5.718 1.366 1.524.904 3.607 1.536 5.93 1.536 2.294 0 4.391-.563 5.915-1.468 1.524-.888 3.621-1.434 5.899-1.434 2.264 0 4.316.546 5.824 1.417 1.539.922 3.576 1.485 5.9 1.485l.03-4.115Z"/><path fill="#CCC" fill-rule="evenodd" stroke="#000" stroke-miterlimit="8" stroke-width="0.589186" d="M289.5 503.982c-2.324 0-4.391-.482-5.93-1.27-1.508-.745-3.56-1.212-5.824-1.212-2.278 0-4.375.467-5.899 1.226-1.524.774-3.621 1.256-5.915 1.256-2.323 0-4.406-.54-5.93-1.314-1.508-.715-3.515-1.168-5.718-1.168-2.293 0-4.315.438-5.824 1.197-1.539.774-3.651 1.285-5.96 1.285v3.518c2.309 0 4.421-.511 5.96-1.285 1.509-.759 3.531-1.197 5.824-1.197 2.188 0 4.21.453 5.718 1.168 1.524.789 3.607 1.314 5.93 1.314 2.294 0 4.391-.496 5.915-1.255 1.524-.76 3.621-1.227 5.899-1.227 2.264 0 4.316.467 5.824 1.227 1.539.773 3.576 1.255 5.9 1.255l.03-3.518"/><path fill="#005BBF" fill-rule="evenodd" stroke="#000" stroke-miterlimit="8" stroke-width="0.589186" d="M289.5 507.988c-2.324 0-4.391-.483-5.93-1.259-1.508-.761-3.56-1.229-5.824-1.229-2.278 0-4.375.468-5.899 1.229-1.524.761-3.621 1.259-5.915 1.259-2.323 0-4.406-.527-5.93-1.317-1.508-.717-3.515-1.171-5.718-1.171-2.293 0-4.315.439-5.824 1.2-1.539.776-3.651 1.288-5.96 1.288v3.512c2.309 0 4.421-.497 5.96-1.288 1.509-.746 3.531-1.17 5.824-1.17 2.188 0 4.21.439 5.718 1.156 1.524.79 3.607 1.302 5.93 1.302 2.294 0 4.391-.468 5.915-1.244 1.524-.761 3.621-1.214 5.899-1.214 2.264 0 4.316.453 5.824 1.2 1.539.804 3.576 1.258 5.9 1.258l.03-3.512"/><path fill="#CCC" fill-rule="evenodd" stroke="#000" stroke-miterlimit="8" stroke-width="0.589186" d="M289.47 514.5c-2.324 0-4.361-.483-5.9-1.273-1.508-.746-3.56-1.2-5.824-1.2-2.278 0-4.375.454-5.899 1.215-1.524.761-3.621 1.258-5.915 1.258-2.323 0-4.406-.541-5.93-1.317-1.508-.732-3.515-1.156-5.718-1.156-2.293 0-4.315.424-5.824 1.185-1.539.776-3.651 1.288-5.96 1.288v-3.512c2.309 0 4.421-.527 5.96-1.317 1.509-.747 3.531-1.171 5.824-1.171 2.188 0 4.21.439 5.718 1.156 1.524.79 3.607 1.303 5.93 1.303 2.294 0 4.391-.469 5.915-1.244 1.524-.761 3.621-1.215 5.899-1.215 2.264 0 4.316.454 5.824 1.2 1.539.805 3.606 1.259 5.93 1.259l-.03 3.541"/><path fill="#005BBF" fill-rule="evenodd" stroke="#000" stroke-miterlimit="8" stroke-width="0.589186" d="M289.47 518.5c-2.324 0-4.361-.483-5.9-1.258-1.508-.761-3.56-1.23-5.824-1.23-2.278 0-4.375.469-5.899 1.23s-3.621 1.258-5.915 1.258c-2.323 0-4.406-.541-5.93-1.317-1.508-.732-3.515-1.171-5.718-1.171-2.293 0-4.315.439-5.824 1.2-1.539.776-3.651 1.288-5.96 1.288v-3.497c2.309 0 4.421-.542 5.96-1.318 1.509-.761 3.531-1.185 5.824-1.185 2.188 0 4.21.439 5.718 1.156 1.524.776 3.607 1.317 5.93 1.317 2.294 0 4.391-.497 5.915-1.258s3.621-1.215 5.899-1.215c2.264 0 4.316.454 5.824 1.2 1.539.79 3.591 1.273 5.93 1.273l-.03 3.527Z"/><path fill="#C8B100" fill-rule="evenodd" stroke="#000" stroke-linejoin="round" stroke-miterlimit="10" stroke-width="0.589186" d="M252.589 485.5c.076.323.198.615.198.954 0 2.246-1.937 4.046-4.287 4.046h35c-2.365 0-4.287-1.8-4.287-4.046 0-.323.061-.631.137-.954-.198.077-.442.092-.671.092h-25.464c-.199 0-.443-.03-.626-.092Z"/><path fill="#C8B100" fill-rule="evenodd" stroke="#000" stroke-miterlimit="8" stroke-width="0.589186" d="M253.079 483.5h25.842c.882 0 1.579.446 1.579.994s-.697 1.006-1.579 1.006h-25.842c-.867 0-1.579-.458-1.579-1.006s.712-.994 1.579-.994ZM248.5 499.5h35v-9h-35v9Z"/><path fill="#CCC" fill-rule="evenodd" stroke="#000" stroke-miterlimit="8" stroke-width="0.589186" d="M253.5 481.5h25v-120h-25v120Z"/><path fill="none" stroke="#000" stroke-miterlimit="8" stroke-width="0.589186" d="M271.5 361.5v120m3-120v120"/><path fill="#C8B100" fill-rule="evenodd" stroke="#000" stroke-miterlimit="8" stroke-width="0.589186" d="M249.5 351.5h34v-9h-34v9Z"/><path fill="#C8B100" fill-rule="evenodd" stroke="#000" stroke-linejoin="round" stroke-miterlimit="10" stroke-width="0.589186" d="M252.592 357.485c.214-.091.367-.106.627-.106h25.517c.26 0 .489.046.703.121-.887-.287-1.514-1.072-1.514-1.992 0-.921.688-1.721 1.575-2.008a3 3 0 0 1-.749.121h-25.532c-.26 0-.505-.015-.719-.091l.138.03c.917.272 1.437 1.072 1.437 1.948a2.11 2.11 0 0 1-1.483 1.977Z"/><path fill="#C8B100" fill-rule="evenodd" stroke="#000" stroke-miterlimit="8" stroke-width="0.589186" d="M253.079 357.5h25.842c.882 0 1.579.446 1.579.994 0 .56-.697 1.006-1.579 1.006h-25.842c-.867 0-1.579-.446-1.579-1.006 0-.548.712-.994 1.579-.994ZM253.078 351.5h25.829c.882 0 1.593.451 1.593.993 0 .556-.711 1.007-1.593 1.007h-25.829c-.867 0-1.578-.451-1.578-1.007 0-.542.711-.993 1.578-.993Z"/><path fill="#AD1519" fill-rule="evenodd" stroke="#000" stroke-miterlimit="8" stroke-width="0.589186" d="M245.941 451.5c-3.438 1.993-5.781 4.048-5.401 5.076.183.935 1.278 1.64 2.845 2.683 2.464 1.733 3.955 4.815 2.784 6.241 2.038-1.656 3.331-4.125 3.331-6.885 0-2.867-1.369-5.459-3.559-7.115Z"/><path fill="#AD1519" fill-rule="evenodd" stroke="#000" stroke-linejoin="round" stroke-miterlimit="10" stroke-width="0.589186" d="M303.5 406.353c-5.329-2.162-14.407-3.777-24.824-4.118-3.598.03-7.587.371-11.727 1.037-14.633 2.415-25.788 8.162-24.9 12.843.015.089.06.296.075.385 0 0-5.479-12.161-5.57-12.62-.978-5.2 11.381-11.584 27.625-14.25a84.159 84.159 0 0 1 14.391-1.126c10.388 0 19.42 1.318 24.87 3.303l.06 14.546"/><path fill="#AD1519" fill-rule="evenodd" stroke="#000" stroke-miterlimit="8" stroke-width="0.589186" d="M253.455 421.5c-6.763-.475-11.366-2.269-11.906-5.058-.42-2.225 1.875-4.702 5.953-6.942 1.815.208 3.869.445 5.998.445l-.045 11.555M278.544 412.5c4.111.659 7.186 1.732 8.717 3.05l.146.26c.729 1.579-2.872 4.935-8.907 8.69l.044-12"/><path fill="#AD1519" fill-rule="evenodd" stroke="#000" stroke-linejoin="round" stroke-miterlimit="10" stroke-width="0.589186" d="M238.544 444.446c-.651-1.905 6.012-5.745 15.415-9.138 4.301-1.503 7.845-3.081 12.251-4.985 13.069-5.685 22.715-12.204 21.534-14.57l-.137-.253c.697.566 1.787 12.263 1.787 12.263 1.181 2.173-7.647 8.602-19.686 14.257-3.846 1.816-11.978 4.762-15.809 6.087-6.875 2.336-13.689 6.756-13.068 8.393l-2.287-12.039v-.015Z"/><path fill="#AD1519" fill-rule="evenodd" stroke="#000" stroke-miterlimit="8" stroke-width="0.407874" d="M491.508 333.665s-1.117 1.249-1.931 1.426c-.8.16-1.826-.785-1.826-.785s-.724.817-1.629 1.025c-.89.224-2.127-1.057-2.127-1.057s-.86 1.281-1.614 1.585c-.769.288-1.705-.384-1.705-.384s-.347.625-.98.977c-.272.144-.724-.08-.724-.08l-.905-.609-1.026-1.153-.935-.384s-.423-1.457-.468-1.714c-.03-.256-.121-.912-.121-.912-.196-1.041 1.313-2.242 3.47-2.755 1.237-.304 2.323-.288 3.107-.032.86-.769 2.686-1.313 4.828-1.313 1.946 0 3.65.432 4.586 1.121.92-.689 2.625-1.121 4.571-1.121 2.142 0 3.952.544 4.812 1.313.799-.256 1.87-.272 3.123.032 2.142.513 3.665 1.714 3.469 2.755 0 0-.09.656-.121.912-.045.257-.482 1.714-.482 1.714l-.936.384-1.025 1.153-.875.609s-.453.224-.724.08c-.649-.337-.996-.977-.996-.977s-.935.672-1.705.384c-.769-.304-1.614-1.585-1.614-1.585s-1.237 1.281-2.142 1.057c-.89-.208-1.614-1.025-1.614-1.025s-1.026.945-1.825.785c-.815-.177-1.916-1.426-1.916-1.426Z"/><path fill="#C8B100" fill-rule="evenodd" stroke="#000" stroke-miterlimit="8" stroke-width="0.392756" d="M493.5 327.5c0 1.657-.895 3-2 3s-2-1.343-2-3 .895-3 2-3 2 1.343 2 3Z"/><path fill="#C8B100" fill-rule="evenodd" stroke="#000" stroke-miterlimit="8" stroke-width="0.392756" d="M492.5 327.5c0 1.657-.448 3-1 3s-1-1.343-1-3 .448-3 1-3 1 1.343 1 3Z"/><path fill="#C8B100" fill-rule="evenodd" d="M492 323.5c0 .829-.448 1.5-1 1.5s-1-.671-1-1.5c0-.828.448-1.5 1-1.5s1 .672 1 1.5Z"/><path fill="#C8B100" fill-rule="evenodd" stroke="#000" stroke-miterlimit="8" stroke-width="0.453228" d="M493.5 323.546v.954h-4v-.954h1.486v-2.138h-.98v-.954h.98v-.954h.965v.954h.964v.954h-.964v2.138h1.549"/><path fill="none" stroke="#000" stroke-miterlimit="8" stroke-width="0.392756" d="M491.794 322.517c.528.248.824 1.101.662 1.906-.163.805-.722 1.257-1.25 1.009-.528-.247-.824-1.101-.661-1.906.101-.504.366-.892.701-1.026"/><path fill="none" stroke="#000" stroke-linecap="round" stroke-miterlimit="8" stroke-width="0.392756" d="M475.814 333.5a4.76 4.76 0 0 1-.314-1.636c0-2.409 1.8-4.364 4.043-4.364.714 0 1.371.197 1.957.561"/><path fill="none" stroke="#000" stroke-miterlimit="8" stroke-width="0.392756" d="M483.906 329.5c-.21-.356-.406-.74-.406-1.151 0-1.575 1.664-2.849 3.692-2.849.868 0 1.679.233 2.308.617M500.091 329.5c.245-.353.409-.773.409-1.18 0-1.559-1.93-2.82-4.318-2.82-1.014 0-1.946.231-2.682.61"/><path fill="none" stroke="#000" stroke-linecap="round" stroke-miterlimit="8" stroke-width="0.392756" d="M507.2 333.5c.186-.5.3-1.061.3-1.636 0-2.409-1.8-4.364-4.029-4.364-.714 0-1.385.197-1.971.561"/><path fill="none" stroke="#000" stroke-miterlimit="8" stroke-width="0.31727" d="M475.5 331c0 .276-.448.5-1 .5s-1-.224-1-.5.448-.5 1-.5 1 .224 1 .5ZM475.5 329a.5.5 0 1 1-1 0 .5.5 0 0 1 1 0ZM477.5 327c0 .276-.448.5-1 .5s-1-.224-1-.5.448-.5 1-.5 1 .224 1 .5ZM479.5 326c0 .276-.448.5-1 .5s-1-.224-1-.5.448-.5 1-.5 1 .224 1 .5ZM481.5 326c0 .276-.448.5-1 .5s-1-.224-1-.5.448-.5 1-.5 1 .224 1 .5Z"/><path fill="#FFF" fill-rule="evenodd" stroke="#000" stroke-miterlimit="8" stroke-width="0.31727" d="M482.5 329a.5.5 0 1 1-1 0 .5.5 0 0 1 1 0Z"/><path fill="none" stroke="#000" stroke-miterlimit="8" stroke-width="0.31727" d="M482.5 326.5c0 .552-.224 1-.5 1s-.5-.448-.5-1 .224-1 .5-1 .5.448.5 1ZM484.5 325a.5.5 0 1 1-1 0 .5.5 0 0 1 1 0ZM486.5 324a.5.5 0 1 1-1 0 .5.5 0 0 1 1 0ZM488.5 324.5c0 .552-.224 1-.5 1s-.5-.448-.5-1 .224-1 .5-1 .5.448.5 1ZM495.5 324.5c0 .552-.224 1-.5 1s-.5-.448-.5-1 .224-1 .5-1 .5.448.5 1ZM497.5 324a.5.5 0 1 1-1 0 .5.5 0 0 1 1 0ZM499.5 325a.5.5 0 1 1-1 0 .5.5 0 0 1 1 0ZM501.5 326.5c0 .552-.224 1-.5 1s-.5-.448-.5-1 .224-1 .5-1 .5.448.5 1Z"/><path fill="#FFF" fill-rule="evenodd" stroke="#000" stroke-miterlimit="8" stroke-width="0.31727" d="M501.5 329a.5.5 0 1 1-1 0 .5.5 0 0 1 1 0Z"/><path fill="none" stroke="#000" stroke-miterlimit="8" stroke-width="0.31727" d="M503.5 326c0 .276-.448.5-1 .5s-1-.224-1-.5.448-.5 1-.5 1 .224 1 .5ZM505.5 326a.5.5 0 1 1-1 0 .5.5 0 0 1 1 0ZM507.5 327a.5.5 0 1 1-1 0 .5.5 0 0 1 1 0ZM508.5 329a.5.5 0 1 1-1 0 .5.5 0 0 1 1 0ZM509.5 331c0 .276-.448.5-1 .5s-1-.224-1-.5.448-.5 1-.5 1 .224 1 .5Z"/><path fill="#C8B100" fill-rule="evenodd" stroke="#000" stroke-miterlimit="8" stroke-width="0.392756" d="M480.422 339.493c-.312-.845-.906-1.6-.906-1.6 3.047-.845 7.282-1.378 11.985-1.393 4.703.015 8.984.548 12.015 1.393 0 0-.343.563-.812 1.348-.266.444-.61 1.2-.594 1.2-2.734-.8-6.281-1.2-10.625-1.215-4.359.015-8.531.519-10.719 1.274.031 0-.156-.474-.359-1.007h.015"/><path fill="#C8B100" fill-rule="evenodd" stroke="#000" stroke-miterlimit="8" stroke-width="0.392756" d="M491.524 343.5c3.768-.015 7.925-.573 9.46-.951 1.023-.302 1.628-.739 1.52-1.268-.062-.241-.28-.453-.574-.573-2.264-.71-6.312-1.208-10.406-1.208-4.079 0-8.173.498-10.422 1.208-.294.12-.511.332-.573.573-.109.529.496.966 1.519 1.268 1.536.378 5.707.936 9.476.951ZM503.501 336.505l-.913-.977s-.881.627-1.979.442c-1.083-.203-1.438-1.788-1.438-1.788s-1.222 1.235-2.227 1.143c-1.005-.111-1.655-1.143-1.655-1.143s-1.098.94-2.056.848c-.959-.111-1.871-1.53-1.871-1.53s-.975 1.475-1.934 1.585c-.958.093-1.747-.995-1.747-.995s-.433 1.088-1.655 1.327c-1.221.24-2.273-1.143-2.273-1.143s-.696 1.346-1.531 1.696c-.835.332-1.917-.497-1.917-.497s-.186.497-.31.792c-.123.295-.479.35-.479.35l.278.867c2.985-1.033 7.052-1.678 11.645-1.678s8.768.645 11.768 1.696l.309-.995h-.015Z"/><path fill="#C8B100" fill-rule="evenodd" stroke="#000" stroke-miterlimit="8" stroke-width="0.392756" d="m491.57 332.5.435.066c-.078.158-.093.317-.093.501 0 .765.775 1.385 1.736 1.385.76 0 1.411-.409 1.643-.963.016.013.171-.501.233-.501.046 0 .046.541.077.541.109.699.853 1.174 1.706 1.174.961 0 1.721-.62 1.721-1.398 0-.053 0-.106-.016-.159l.543-.461.295.58a1.157 1.157 0 0 0-.156.607c0 .738.729 1.332 1.644 1.332.574 0 1.07-.238 1.364-.594l.357-.382v.475c0 .448.217.87.759.936 0 0 .59.04 1.411-.501.807-.541 1.241-.989 1.241-.989l.046.554s-.791 1.107-1.504 1.45c-.387.198-.992.409-1.473.33-.496-.066-.852-.409-1.038-.804-.357.184-.791.29-1.241.29-.976 0-1.86-.462-2.201-1.135-.45.409-1.07.66-1.799.66-.79 0-1.504-.303-1.953-.765-.434.356-1.039.567-1.69.567-.853 0-1.628-.369-2.062-.91-.45.541-1.209.91-2.078.91-.651 0-1.255-.211-1.69-.567-.449.462-1.162.765-1.938.765-.744 0-1.364-.251-1.813-.66-.342.673-1.225 1.135-2.202 1.135a2.67 2.67 0 0 1-1.225-.29c-.186.395-.542.738-1.054.804-.465.079-1.07-.132-1.457-.33-.729-.343-1.582-1.45-1.582-1.45l.109-.554s.449.448 1.255.989c.807.541 1.411.501 1.411.501.527-.066.76-.488.76-.936v-.475l.341.382c.295.356.791.594 1.365.594.914 0 1.643-.594 1.643-1.332 0-.224-.031-.422-.155-.607l.294-.58.543.461c-.015.053-.015.106-.015.159 0 .778.759 1.398 1.72 1.398.853 0 1.597-.475 1.721-1.174.016 0 .016-.541.062-.541.078 0 .217.514.248.501.218.554.869.963 1.644.963.946 0 1.721-.62 1.721-1.385 0-.184 0-.343-.078-.501l.45-.066h.015Z"/><path fill="#C8B100" fill-rule="evenodd" stroke="#000" stroke-linejoin="round" stroke-miterlimit="10" stroke-width="0.392756" d="M491.508 336.217c-4.507.013-8.564.5-11.484 1.271-.195.054-.434-.081-.494-.23-.06-.176.075-.379.269-.433 2.92-.811 7.082-1.325 11.709-1.325s8.804.514 11.724 1.325c.194.054.329.257.269.433-.06.149-.299.284-.494.23-2.92-.771-6.992-1.258-11.499-1.271Z"/><path fill="#C8B100" fill-rule="evenodd" stroke="#000" stroke-miterlimit="8" stroke-width="0.392756" d="M476.299 334.5c-.014.015-.51-.716-.872-1.09-.269-.268-.913-.492-.913-.492 0-.119.376-.418.778-.418.242 0 .47.105.604.299l.054-.299s.322.075.47.478c.161.432.067 1.074.067 1.074s-.067.299-.188.448ZM478.512 333.172l-.128 1.082-1.628.246-.244-.197.047-.377 1.232-1.426.721.672"/><path fill="#C8B100" fill-rule="evenodd" stroke="#000" stroke-miterlimit="8" stroke-width="0.392756" d="M476.594 334.604c.155-.168.465-.126.684.083.232.21.31.532.155.699-.155.182-.465.14-.684-.084-.232-.209-.31-.531-.155-.698ZM479.562 334.105c-.11-.257 0-.527.238-.598.256-.043.549.128.677.384.109.271 0 .541-.257.598-.237.057-.53-.114-.658-.384ZM481.511 333.086l.561.414 1.341-.569.099-.181-.187-.146-1.539-.104-.275.586M483.372 329.5l-.859 1.027 1.103 1.829.295.144.218-.289.384-2.198-1.141-.513"/><path fill="#C8B100" fill-rule="evenodd" stroke="#000" stroke-miterlimit="8" stroke-width="0.392756" d="m486.517 331.952-.424.548-2.283-.113-.293-.139.163-.191 1.989-.557.848.452"/><path fill="#C8B100" fill-rule="evenodd" stroke="#000" stroke-miterlimit="8" stroke-width="0.392756" d="M484.511 332.5c0 .552-.224 1-.5 1-.277 0-.5-.448-.5-1s.223-1 .5-1c.276 0 .5.448.5 1ZM487.53 333.049a.45.45 0 0 1 .404-.546.546.546 0 0 1 .576.462.44.44 0 0 1-.404.533.547.547 0 0 1-.576-.449ZM488.517 331.542l.638.958 2.138-.706.224-.302-.24-.337-2.122-.655-.638 1.042"/><path fill="#C8B100" fill-rule="evenodd" stroke="#000" stroke-miterlimit="8" stroke-width="0.392756" d="m491.512 328.5-1 .765.744 2.029.256.206.256-.206.744-2.029-1-.765"/><path fill="#C8B100" fill-rule="evenodd" stroke="#000" stroke-miterlimit="8" stroke-width="0.392756" d="m494.517 331.542-.626.958-2.15-.706-.224-.302.224-.337 2.15-.655.626 1.042"/><path fill="#C8B100" fill-rule="evenodd" stroke="#000" stroke-miterlimit="8" stroke-width="0.392756" d="M492.521 332c0 .276-.447.5-1 .5-.552 0-1-.224-1-.5s.448-.5 1-.5c.553 0 1 .224 1 .5ZM496.515 333.049a.473.473 0 0 0-.419-.546.541.541 0 0 0-.571.462c-.038.266.133.519.4.533.266.028.533-.183.59-.449ZM496.517 331.952l.424.548 2.283-.113.293-.139-.163-.191-1.989-.557-.848.452"/><path fill="#C8B100" fill-rule="evenodd" stroke="#000" stroke-miterlimit="8" stroke-width="0.392756" d="m500.232 329.5 1.288 1.027-1.654 1.829-.442.144-.327-.289-.577-2.198 1.712-.513M502.517 333.086l-.836.414-2-.569-.164-.181.312-.146 2.295-.104.393.586"/><path fill="#C8B100" fill-rule="evenodd" stroke="#000" stroke-miterlimit="8" stroke-width="0.392756" d="M500.521 332.5a1 1 0 1 1-2 0 1 1 0 0 1 2 0ZM503.476 334.105c.11-.257 0-.527-.238-.598-.256-.043-.548.128-.677.384-.109.271 0 .541.257.598.237.057.53-.114.658-.384ZM506.726 334.5c.014.015.511-.716.888-1.09.255-.268.9-.492.9-.492 0-.119-.376-.418-.78-.418a.725.725 0 0 0-.604.299l-.054-.299s-.323.075-.484.478c-.148.432-.04 1.074-.04 1.074s.054.299.174.448ZM503.518 333.172l.192 1.082 2.442.246.366-.197-.087-.377-1.831-1.426-1.082.672"/><path fill="#C8B100" fill-rule="evenodd" stroke="#000" stroke-miterlimit="8" stroke-width="0.392756" d="M506.429 334.604c-.141-.168-.45-.126-.681.083-.232.21-.309.532-.154.699.154.182.463.14.694-.084.231-.209.296-.531.141-.698Z"/><path fill="#AD1519" fill-rule="evenodd" stroke="#000" stroke-miterlimit="8" stroke-width="0.392756" d="m480.511 339.225.323-.725.677.188-.396.812-.604-.275"/><path fill="#058E6E" fill-rule="evenodd" stroke="#000" stroke-miterlimit="8" stroke-width="0.392756" d="m484.081 338.364-1.008.133c-.263.025-.511-.109-.555-.315-.029-.206.146-.388.395-.424l1.022-.122 1.037-.133c.263-.024.496.109.54.303.029.206-.146.4-.394.424l-1.037.134"/><path fill="#FFF" fill-rule="evenodd" stroke="#000" stroke-miterlimit="8" stroke-width="0.392756" d="M488.512 338a.5.5 0 1 1-1 0 .5.5 0 0 1 1 0Z"/><path fill="#AD1519" fill-rule="evenodd" stroke="#000" stroke-miterlimit="8" stroke-width="0.392756" d="M491.493 338.5h-1.471a.507.507 0 0 1-.506-.5c0-.274.214-.5.49-.5h3.004c.291 0 .506.226.506.5s-.23.5-.506.5h-1.517"/><path fill="#FFF" fill-rule="evenodd" stroke="#000" stroke-miterlimit="8" stroke-width="0.392756" d="M496.524 338c0 .276-.448.5-1 .5-.553 0-1-.224-1-.5s.447-.5 1-.5c.552 0 1 .224 1 .5Z"/><path fill="#058E6E" fill-rule="evenodd" stroke="#000" stroke-miterlimit="8" stroke-width="0.392756" d="m498.951 338.364 1.007.133c.262.025.51-.109.554-.315.029-.206-.131-.388-.394-.424l-1.021-.122-1.035-.133c-.263-.024-.511.109-.54.303-.044.206.131.4.394.424l1.035.134"/><path fill="#AD1519" fill-rule="evenodd" stroke="#000" stroke-miterlimit="8" stroke-width="0.392756" d="m503.523 339.315-.544-.815-1.456.092.695.908 1.305-.185"/><path fill="#AD1519" fill-rule="evenodd" stroke="#000" stroke-linejoin="round" stroke-miterlimit="10" stroke-width="0.392756" d="M491.993 342.5c-3.655 0-6.965-.326-9.477-.963 2.512-.637 5.822-1.022 9.477-1.037 3.671 0 6.995.4 9.523 1.037-2.528.637-5.852.963-9.523.963Z"/><path fill="none" stroke="#000" stroke-miterlimit="8" stroke-width="0.0151181" d="M493.521 342.405v-1.841m-1.16 1.904.02-1.952m-.86 1.984v-2"/><path fill="none" stroke="#000" stroke-miterlimit="8" stroke-width="0.0302362" d="M491.51 342.5v-2"/><path fill="none" stroke="#000" stroke-miterlimit="8" stroke-width="0.0453543" d="M490.521 342.5v-2"/><path fill="none" stroke="#000" stroke-miterlimit="8" stroke-width="0.0604724" d="M490.51 342.5v-2M489.521 342.5v-2"/><path fill="none" stroke="#000" stroke-miterlimit="8" stroke-width="0.0754856" d="M489.51 342.5v-2"/><path fill="none" stroke="#000" stroke-miterlimit="8" stroke-width="0.0906037" d="m488.575 342.467-.037-1.901m1.001 1.934v-2"/><path fill="none" stroke="#000" stroke-miterlimit="8" stroke-width="0.105722" d="M487.54 342.447v-1.876m1 1.929-.038-2"/><path fill="none" stroke="#000" stroke-miterlimit="8" stroke-width="0.12084" d="M486.523 342.402v-1.824m.5 1.844V340.5m.5 2v-2"/><path fill="none" stroke="#000" stroke-miterlimit="8" stroke-width="0.135958" d="M486.51 342.5v-2"/><path fill="none" stroke="#000" stroke-miterlimit="8" stroke-width="0.151076" d="M485.521 342.5v-2"/><path fill="none" stroke="#000" stroke-miterlimit="8" stroke-width="0.166194" d="M485.521 341.5v-1"/><path fill="none" stroke="#000" stroke-miterlimit="8" stroke-width="0.181312" d="m484.578 341.443-.038-.886m1 .943v-1M484.521 341.5v-1"/><path fill="none" stroke="#000" stroke-miterlimit="8" stroke-width="0.19643" d="M484.51 342.5v-1"/><path fill="none" stroke="#000" stroke-miterlimit="8" stroke-width="0.211444" d="M483.521 342.5v-1"/><path fill="none" stroke="#000" stroke-miterlimit="8" stroke-width="0.226562" d="M483.51 342.5v-1"/><path fill="none" stroke="#000" stroke-miterlimit="8" stroke-width="0.271916" d="M483.51 342.501V341.5"/><path fill="#005BBF" fill-rule="evenodd" stroke="#000" stroke-miterlimit="8" stroke-width="0.589186" d="M515.516 500.385c-2.324 0-4.391-.563-5.93-1.485-1.509-.871-3.561-1.4-5.824-1.4-2.278 0-4.376.546-5.9 1.417-1.523.905-3.621 1.468-5.914 1.468-2.324 0-4.406-.614-5.93-1.536-1.509-.837-3.515-1.349-5.718-1.349-2.294 0-4.316.495-5.824 1.383-1.539.922-3.652 1.502-5.96 1.502v4.115c2.308 0 4.421-.597 5.96-1.502 1.508-.888 3.53-1.4 5.824-1.4 2.187 0 4.209.529 5.718 1.366 1.524.904 3.606 1.536 5.93 1.536 2.293 0 4.391-.563 5.914-1.468 1.524-.888 3.622-1.434 5.9-1.434 2.263 0 4.315.546 5.824 1.417 1.539.922 3.576 1.485 5.899 1.485l.031-4.115Z"/><path fill="#CCC" fill-rule="evenodd" stroke="#000" stroke-miterlimit="8" stroke-width="0.589186" d="M515.516 503.982c-2.324 0-4.391-.482-5.93-1.27-1.509-.745-3.561-1.212-5.824-1.212-2.278 0-4.376.467-5.9 1.226-1.523.774-3.621 1.256-5.914 1.256-2.324 0-4.406-.54-5.93-1.314-1.509-.715-3.515-1.168-5.718-1.168-2.294 0-4.316.438-5.824 1.197-1.539.774-3.652 1.285-5.96 1.285v3.518c2.308 0 4.421-.511 5.96-1.285 1.508-.759 3.53-1.197 5.824-1.197 2.187 0 4.209.453 5.718 1.168 1.524.789 3.606 1.314 5.93 1.314 2.293 0 4.391-.496 5.914-1.255 1.524-.76 3.622-1.227 5.9-1.227 2.263 0 4.315.467 5.824 1.227 1.539.773 3.576 1.255 5.899 1.255l.031-3.518"/><path fill="#005BBF" fill-rule="evenodd" stroke="#000" stroke-miterlimit="8" stroke-width="0.589186" d="M515.516 507.988c-2.324 0-4.391-.483-5.93-1.259-1.509-.761-3.561-1.229-5.824-1.229-2.278 0-4.376.468-5.9 1.229-1.523.761-3.621 1.259-5.914 1.259-2.324 0-4.406-.527-5.93-1.317-1.509-.717-3.515-1.171-5.718-1.171-2.294 0-4.316.439-5.824 1.2-1.539.776-3.652 1.288-5.96 1.288v3.512c2.308 0 4.421-.497 5.96-1.288 1.508-.746 3.53-1.17 5.824-1.17 2.187 0 4.209.439 5.718 1.156 1.524.79 3.606 1.302 5.93 1.302 2.293 0 4.391-.468 5.914-1.244 1.524-.761 3.622-1.214 5.9-1.214 2.263 0 4.315.453 5.824 1.2 1.539.804 3.576 1.258 5.899 1.258l.031-3.512"/><path fill="#CCC" fill-rule="evenodd" stroke="#000" stroke-miterlimit="8" stroke-width="0.589186" d="M515.485 514.5c-2.323 0-4.36-.483-5.899-1.273-1.509-.746-3.561-1.2-5.824-1.2-2.278 0-4.376.454-5.9 1.215-1.523.761-3.621 1.258-5.914 1.258-2.324 0-4.406-.541-5.93-1.317-1.509-.732-3.515-1.156-5.718-1.156-2.294 0-4.316.424-5.824 1.185-1.539.776-3.652 1.288-5.96 1.288v-3.512c2.308 0 4.421-.527 5.96-1.317 1.508-.747 3.53-1.171 5.824-1.171 2.187 0 4.209.439 5.718 1.156 1.524.79 3.606 1.303 5.93 1.303 2.293 0 4.391-.469 5.914-1.244 1.524-.761 3.622-1.215 5.9-1.215 2.263 0 4.315.454 5.824 1.2 1.539.805 3.606 1.259 5.93 1.259l-.031 3.541"/><path fill="#005BBF" fill-rule="evenodd" stroke="#000" stroke-miterlimit="8" stroke-width="0.589186" d="M515.485 518.5c-2.323 0-4.36-.483-5.899-1.258-1.509-.761-3.561-1.23-5.824-1.23-2.278 0-4.376.469-5.9 1.23-1.523.761-3.621 1.258-5.914 1.258-2.324 0-4.406-.541-5.93-1.317-1.509-.732-3.515-1.171-5.718-1.171-2.294 0-4.316.439-5.824 1.2-1.539.776-3.652 1.288-5.96 1.288v-3.497c2.308 0 4.421-.542 5.96-1.318 1.508-.761 3.53-1.185 5.824-1.185 2.187 0 4.209.439 5.718 1.156 1.524.776 3.606 1.317 5.93 1.317 2.293 0 4.391-.497 5.914-1.258 1.524-.761 3.622-1.215 5.9-1.215 2.263 0 4.315.454 5.824 1.2 1.539.79 3.591 1.273 5.93 1.273l-.031 3.527Z"/><path fill="#C8B100" fill-rule="evenodd" stroke="#000" stroke-linejoin="round" stroke-miterlimit="10" stroke-width="0.589186" d="M478.487 485.5c.075.323.193.615.193.954 0 2.246-1.882 4.046-4.165 4.046h34c-2.297 0-4.164-1.8-4.164-4.046 0-.323.059-.631.133-.954-.193.077-.43.092-.652.092h-24.737c-.193 0-.43-.03-.608-.092Z"/><path fill="#C8B100" fill-rule="evenodd" stroke="#000" stroke-miterlimit="8" stroke-width="0.589186" d="M479.04 483.5h24.951c.852 0 1.525.446 1.525.994s-.673 1.006-1.525 1.006H479.04c-.837 0-1.524-.458-1.524-1.006s.687-.994 1.524-.994ZM474.515 499.5h34.001v-9h-34.001v9Z"/><path fill="#CCC" fill-rule="evenodd" stroke="#000" stroke-miterlimit="8" stroke-width="0.589186" d="M479.515 481.5h24v-120h-24v120Z"/><path fill="none" stroke="#000" stroke-miterlimit="8" stroke-width="0.589186" d="M496.517 361.5v120m3-120v120"/><path fill="#C8B100" fill-rule="evenodd" stroke="#000" stroke-miterlimit="8" stroke-width="0.589186" d="M474.516 351.5h34v-9h-34v9Z"/><path fill="#C8B100" fill-rule="evenodd" stroke="#000" stroke-linejoin="round" stroke-miterlimit="10" stroke-width="0.589186" d="M478.604 357.485c.206-.091.353-.106.603-.106h24.572c.251 0 .471.046.678.121-.854-.287-1.458-1.072-1.458-1.992 0-.921.662-1.721 1.516-2.008-.206.06-.485.121-.721.121h-24.587c-.25 0-.486-.015-.692-.091l.133.03c.883.272 1.384 1.072 1.384 1.948 0 .845-.56 1.705-1.428 1.977Z"/><path fill="#C8B100" fill-rule="evenodd" stroke="#000" stroke-miterlimit="8" stroke-width="0.589186" d="M479.04 357.5h24.951c.852 0 1.525.446 1.525.994 0 .56-.673 1.006-1.525 1.006H479.04c-.837 0-1.524-.446-1.524-1.006 0-.548.687-.994 1.524-.994ZM479.039 351.5h24.938c.852 0 1.539.451 1.539.993 0 .556-.687 1.007-1.539 1.007h-24.938c-.836 0-1.523-.451-1.523-1.007 0-.542.687-.993 1.523-.993Z"/><path fill="#AD1519" fill-rule="evenodd" stroke="#000" stroke-miterlimit="8" stroke-width="0.589186" d="M512.04 451.5c3.439 1.993 5.781 4.048 5.4 5.076-.182.935-1.277 1.64-2.844 2.683-2.464 1.733-3.955 4.815-2.783 6.241-2.039-1.656-3.332-4.125-3.332-6.885 0-2.867 1.37-5.459 3.56-7.115Z"/><path fill="#AD1519" fill-rule="evenodd" stroke="#000" stroke-linejoin="round" stroke-miterlimit="10" stroke-width="0.589186" d="M454.485 406.353c5.329-2.162 14.407-3.777 24.824-4.118 3.598.03 7.587.37 11.727 1.037 14.633 2.415 25.788 8.162 24.9 12.843-.015.089-.06.296-.075.385 0 0 5.48-12.161 5.57-12.62.978-5.2-11.381-11.584-27.625-14.25a84.188 84.188 0 0 0-14.391-1.126c-10.388 0-19.42 1.318-24.87 3.303l-.06 14.546"/><path fill="#AD1519" fill-rule="evenodd" stroke="#000" stroke-miterlimit="8" stroke-width="0.589186" d="M503.53 421.5c7.325-.475 12.312-2.27 12.897-5.058.455-2.225-2.03-4.702-6.449-6.942-1.965.208-4.19.445-6.498.445l.05 11.555M479.443 412.5c-4.11.659-7.186 1.732-8.717 3.05l-.146.26c-.729 1.579 2.872 4.935 8.907 8.69l-.044-12"/><path fill="#AD1519" fill-rule="evenodd" stroke="#000" stroke-linejoin="round" stroke-miterlimit="10" stroke-width="0.589186" d="M519.44 444.446c.651-1.905-6.012-5.745-15.416-9.138-4.3-1.503-7.844-3.08-12.25-4.986-13.069-5.684-22.715-12.203-21.534-14.569l.137-.253c-.697.566-1.787 12.263-1.787 12.263-1.181 2.173 7.647 8.602 19.686 14.257 3.846 1.816 11.978 4.762 15.81 6.087 6.874 2.336 13.688 6.756 13.068 8.393l2.286-12.04v-.014Z"/><path fill="#C8B100" fill-rule="evenodd" d="M251.654 400.123c3.067-1.08 5.07-2.371 4.099-4.712-.631-1.5-2.203-1.785-4.577-.945L247 395.952l3.76 9.048c.416-.18.832-.36 1.249-.51.431-.15.878-.27 1.309-.39l-1.664-3.962v-.015Zm-1.818-4.367 1.063-.375c.878-.315 1.865.15 2.311 1.201.324.795.247 1.695-.77 2.326-.324.195-.709.345-1.079.495l-1.525-3.647M261.404 392c-.401.121-.787.242-1.188.332a16.99 16.99 0 0 1-1.216.182l1.948 9.486 6.052-1.329c-.069-.182-.166-.393-.193-.574-.042-.212-.042-.423-.056-.62-1.064.333-2.224.695-3.606.997L261.404 392M274.474 399.911c1.321-3.388 2.931-6.627 4.526-9.911-.29.045-.58.089-.87.104-.29.015-.596.015-.87 0-.853 2.392-1.9 4.77-3.012 7.132-1.32-2.243-2.786-4.443-3.914-6.701-.547.059-1.111.134-1.659.178-.547.03-1.127.015-1.675.03 2.03 3.061 3.995 6.107 5.863 9.257.258-.044.516-.089.805-.119.258-.015.532.015.806.03M288.274 392.315c.227-.464.469-.898.726-1.333-.363-.329-1.452-.824-2.737-.944-2.707-.269-4.25.914-4.431 2.532-.393 3.386 5.006 3.101 4.748 5.348-.105.959-1.134 1.348-2.238 1.243-1.225-.119-2.132-.794-2.283-1.782l-.333-.03c-.182.584-.439 1.153-.726 1.722.801.51 1.83.794 2.798.884 2.767.285 4.869-.809 5.066-2.606.348-3.221-5.096-3.401-4.885-5.303.091-.794.711-1.319 2.117-1.184 1.014.105 1.634.644 1.906 1.423l.272.03M468.736 400.765c.924-3.651 2.101-7.177 3.264-10.765a4.446 4.446 0 0 1-.79.172c-.253.047-.536.063-.805.079-.551 2.57-1.311 5.155-2.116 7.74-1.431-2.256-2.981-4.45-4.218-6.737-.507.109-1.014.235-1.521.313-.507.078-1.028.11-1.55.172a215.348 215.348 0 0 1 6.26 9.261c.239-.063.477-.157.746-.188.238-.031.491-.031.73-.047M478.52 390.046c-.387.016-.787.062-1.173.046-.4 0-.8-.061-1.187-.092l-.16 9.877 5.987.123c-.04-.2-.08-.431-.08-.632 0-.2.053-.416.093-.616-1.08.077-2.24.154-3.613.123l.133-8.829M488.81 391.611c1.053.098 2.063.309 3.073.504-.015-.211-.044-.439-.029-.667.014-.211.088-.423.146-.634l-8.883-.814c.015.228.044.439.029.651-.014.228-.087.439-.146.651a25 25 0 0 1 3.234.081l-.775 9.389c.424 0 .863 0 1.287.049.439.033.864.114 1.288.179l.776-9.389M493 401.092c.444.072.903.13 1.347.217.429.087.873.217 1.301.332l1.102-4.249.123.014c.245.593.582 1.301.75 1.72l1.378 3.209c.551.087 1.087.159 1.607.26.551.116 1.071.261 1.592.405l-.475-.968c-.734-1.446-1.515-2.906-2.158-4.366 1.715.058 3.031-.52 3.368-1.821.229-.896-.153-1.604-1.041-2.212-.674-.448-1.96-.679-2.802-.867l-3.735-.766-2.357 9.092m4.807-7.834c1.086.231 2.434.39 2.434 1.546a3.589 3.589 0 0 1-.092.694c-.352 1.359-1.439 1.821-3.261 1.315l.919-3.555M510.137 404.206c-.07 1.081-.251 2.147-.433 3.29.419.219.852.423 1.257.689.419.251.796.533 1.201.815l.838-11.326a10.126 10.126 0 0 1-.573-.298 4.087 4.087 0 0 1-.516-.376L503 403.345c.237.125.489.25.712.391.238.141.433.298.657.439.754-.705 1.536-1.285 2.43-2.037l3.338 2.053v.015Zm-2.528-2.6 2.975-2.146-.349 3.759-2.626-1.613"/><path fill="#AD1519" fill-rule="evenodd" stroke="#000" stroke-miterlimit="8" stroke-width="0.392756" d="M377.751 276.5c10.043 0 18.997 1.503 24.821 3.812 3.327 1.518 7.805 2.627 12.705 3.295 3.736.501 7.276.592 10.361.364 4.13-.091 10.089 1.124 16.064 3.767 4.931 2.202 9.06 4.874 11.798 7.456l-2.375 2.126-.68 6.013-6.504 7.472-3.252 2.779-7.699 6.18-3.933.319-1.195 3.417-49.779-5.862-49.945 5.862-1.195-3.417-3.948-.319-7.684-6.18-3.252-2.779-6.504-7.472-.665-6.013-2.39-2.126c2.753-2.582 6.867-5.254 11.798-7.456 5.975-2.643 11.934-3.858 16.064-3.767 3.085.228 6.625.137 10.361-.364 4.9-.668 9.378-1.777 12.705-3.295 5.839-2.309 14.279-3.812 24.323-3.812Z"/><path fill="#C8B100" fill-rule="evenodd" stroke="#000" stroke-miterlimit="8" stroke-width="0.589186" d="m340.769 289.813 2.088 1.687 3.147-5.166c-3.404-2.098-5.75-5.745-5.75-9.893 0-.471.03-.927.091-1.383.318-6.595 8.322-12.035 18.461-12.035 5.266 0 10.032 1.443 13.376 3.768.091-1.018.182-1.899.318-2.826-3.677-2.158-8.474-3.465-13.694-3.465-11.667 0-20.791 6.671-21.23 14.543-.046.471-.076.927-.076 1.398 0 4.194 1.907 7.993 4.933 10.622l-1.664 2.75"/><path fill="#C8B100" fill-rule="evenodd" stroke="#000" stroke-miterlimit="8" stroke-width="0.589186" d="M341.387 289.5c-4.242-2.957-6.887-6.964-6.887-11.377 0-5.073 3.581-9.606 9-12.623-3.339 2.507-5.371 5.749-5.661 9.351a13.05 13.05 0 0 0-.081 1.381c0 4.142 2.032 7.895 5.258 10.491l-1.629 2.777"/><path fill="#C8B100" fill-rule="evenodd" stroke="#000" stroke-miterlimit="8" stroke-width="0.589186" d="M306.099 295.4c-2.238-2.516-3.599-5.779-3.599-9.332 0-2.151.499-4.194 1.376-6.024 3.22-6.679 13.336-11.544 25.341-11.544 3.265 0 6.395.351 9.283 1.022-.635.701-1.134 1.479-1.633 2.257a39.703 39.703 0 0 0-7.65-.732c-10.992 0-20.2 4.315-22.861 10.141a11.252 11.252 0 0 0-1.104 4.88c0 3.537 1.648 6.709 4.218 8.875l-3.976 6.557-2.132-1.708 2.737-4.392Z"/><path fill="#C8B100" fill-rule="evenodd" stroke="#000" stroke-miterlimit="8" stroke-width="0.589186" d="M310.5 273.5c-2.846 1.851-5.007 4.114-6.2 6.638a14.155 14.155 0 0 0-1.356 6.041c0 3.564 1.341 6.836 3.547 9.36l-2.384 3.961c-2.281-2.998-3.607-6.515-3.607-10.247 0-6.423 3.979-12.036 10-15.753ZM378.552 259.5c2.61 0 4.864 1.729 5.398 4.069.341 2.057.563 4.397.608 6.886.014.269-.015.522-.015.775 0 .299.059.612.074.91.089 5.246.83 9.867 1.883 12.699l-7.948 7.661-8.052-7.661c1.068-2.832 1.809-7.453 1.913-12.699 0-.298.059-.611.059-.91 0-.253-.015-.506-.015-.775.045-2.489.267-4.829.608-6.886.534-2.34 2.877-4.069 5.487-4.069Z"/><path fill="#C8B100" fill-rule="evenodd" stroke="#000" stroke-miterlimit="8" stroke-width="0.589186" d="M378.542 261.5c1.286 0 2.373.89 2.642 2.134.325 2.011.522 4.298.565 6.724 0 .245-.014.491-.014.736 0 .307.042.599.056.906.071 5.097.749 9.594 1.709 12.358l-5 5.142-5-5.142c.946-2.764 1.624-7.261 1.709-12.358 0-.307.057-.599.057-.906 0-.245-.015-.491-.015-.736.043-2.426.241-4.713.565-6.724.255-1.244 1.441-2.134 2.726-2.134ZM416.233 289.813l-2.102 1.687-3.146-5.166c3.418-2.098 5.762-5.745 5.762-9.893 0-.471-.03-.927-.09-1.383-.318-6.595-8.319-12.035-18.453-12.035-5.279 0-10.028 1.443-13.371 3.768a38.422 38.422 0 0 0-.333-2.826c3.691-2.158 8.47-3.465 13.704-3.465 11.661 0 20.782 6.671 21.221 14.543.045.471.075.927.075 1.398 0 4.194-1.921 7.993-4.946 10.622l1.679 2.75"/><path fill="#C8B100" fill-rule="evenodd" stroke="#000" stroke-miterlimit="8" stroke-width="0.589186" d="M415.613 289.5c4.242-2.957 6.887-6.964 6.887-11.377 0-5.073-3.581-9.606-9-12.623 3.339 2.507 5.371 5.749 5.661 9.351.049.465.081.916.081 1.381 0 4.142-2.048 7.895-5.274 10.491l1.645 2.777"/><path fill="#C8B100" fill-rule="evenodd" stroke="#000" stroke-miterlimit="8" stroke-width="0.589186" d="M450.903 295.4c2.222-2.516 3.597-5.779 3.597-9.332 0-2.151-.499-4.194-1.375-6.024-3.234-6.679-13.33-11.544-25.33-11.544-3.265 0-6.393.351-9.295 1.022.65.701 1.149 1.479 1.647 2.257a39.566 39.566 0 0 1 7.648-.732c10.987 0 20.176 4.315 22.836 10.141a11.265 11.265 0 0 1 1.103 4.88c0 3.537-1.647 6.709-4.216 8.875l3.975 6.557 2.146-1.708-2.736-4.392Z"/><path fill="#C8B100" fill-rule="evenodd" stroke="#000" stroke-miterlimit="8" stroke-width="0.589186" d="M446.5 273.5c2.851 1.851 5.015 4.114 6.209 6.638a14.127 14.127 0 0 1 1.358 6.041c0 3.564-1.358 6.836-3.552 9.36l2.388 3.961c2.284-2.998 3.597-6.515 3.597-10.247 0-6.423-3.985-12.036-10-15.753Z"/><path fill="#005BBF" fill-rule="evenodd" stroke="#000" stroke-miterlimit="8" stroke-width="0.392756" d="M385.5 253.5c0 3.314-3.134 6-7 6s-7-2.686-7-6 3.134-6 7-6 7 2.686 7 6Z"/><path fill="#C8B100" fill-rule="evenodd" stroke="#000" stroke-miterlimit="8" stroke-width="0.392756" d="M376.656 235.5v3.366h-3.816v3.425h3.816v9.844h-4.809c-.047.312-.347.55-.347.878 0 .864.189 1.698.552 2.442 0 .03.031.03.047.045h12.802c0-.015.032-.015.047-.045a5.793 5.793 0 0 0 .552-2.442c0-.328-.299-.566-.347-.878h-4.666V242.291h3.815v-3.425h-3.815V235.5h-3.831Z"/><path fill="#FFF" fill-rule="evenodd" stroke="#000" stroke-miterlimit="8" stroke-width="0.589186" d="M381.5 286c0 1.381-1.343 2.5-3 2.5s-3-1.119-3-2.5 1.343-2.5 3-2.5 3 1.119 3 2.5ZM381.5 281c0 1.381-1.343 2.5-3 2.5s-3-1.119-3-2.5 1.343-2.5 3-2.5 3 1.119 3 2.5ZM380.5 275c0 1.381-.895 2.5-2 2.5s-2-1.119-2-2.5.895-2.5 2-2.5 2 1.119 2 2.5ZM380.5 270c0 .829-.895 1.5-2 1.5-1.104 0-2-.671-2-1.5 0-.828.896-1.5 2-1.5 1.105 0 2 .672 2 1.5ZM379.5 265.5a1 1 0 1 1-2 0 1 1 0 0 1 2 0ZM302.5 301a1.5 1.5 0 1 1-2.999.001A1.5 1.5 0 0 1 302.5 301ZM300.5 297a1.5 1.5 0 1 1-2.999.001A1.5 1.5 0 0 1 300.5 297ZM299.5 292c0 .829-.895 1.5-2 1.5-1.104 0-2-.671-2-1.5 0-.828.896-1.5 2-1.5 1.105 0 2 .672 2 1.5ZM298.5 287a1.5 1.5 0 1 1-2.999.001A1.5 1.5 0 0 1 298.5 287ZM300.5 282c0 .829-.895 1.5-2 1.5-1.104 0-2-.671-2-1.5 0-.828.896-1.5 2-1.5 1.105 0 2 .672 2 1.5ZM302.5 278a1.5 1.5 0 1 1-2.999.001A1.5 1.5 0 0 1 302.5 278ZM306.5 274c0 .829-.895 1.5-2 1.5-1.104 0-2-.671-2-1.5 0-.828.896-1.5 2-1.5 1.105 0 2 .672 2 1.5ZM310.5 271c0 .829-.895 1.5-2 1.5-1.104 0-2-.671-2-1.5 0-.828.896-1.5 2-1.5 1.105 0 2 .672 2 1.5ZM314.5 269a1.5 1.5 0 1 1-2.999.001A1.5 1.5 0 0 1 314.5 269ZM319.5 267a1.5 1.5 0 1 1-2.999.001A1.5 1.5 0 0 1 319.5 267ZM325.5 266c0 .829-.895 1.5-2 1.5-1.104 0-2-.671-2-1.5 0-.828.896-1.5 2-1.5 1.105 0 2 .672 2 1.5ZM330.5 266a1.5 1.5 0 1 1-2.999.001A1.5 1.5 0 0 1 330.5 266ZM335.5 266a1.5 1.5 0 1 1-2.999.001A1.5 1.5 0 0 1 335.5 266ZM341.5 288c0 .829-.895 1.5-2 1.5-1.104 0-2-.671-2-1.5 0-.828.896-1.5 2-1.5 1.105 0 2 .672 2 1.5ZM338.5 284c0 .829-.895 1.5-2 1.5-1.104 0-2-.671-2-1.5 0-.828.896-1.5 2-1.5 1.105 0 2 .672 2 1.5ZM336.5 280a1.5 1.5 0 1 1-2.999.001A1.5 1.5 0 0 1 336.5 280ZM336.5 275a1.5 1.5 0 1 1-2.999.001A1.5 1.5 0 0 1 336.5 275ZM338.5 270c0 .829-.895 1.5-2 1.5-1.104 0-2-.671-2-1.5 0-.828.896-1.5 2-1.5 1.105 0 2 .672 2 1.5ZM340.5 266a1.5 1.5 0 1 1-2.999.001A1.5 1.5 0 0 1 340.5 266ZM344.5 263a1.5 1.5 0 1 1-2.999.001A1.5 1.5 0 0 1 344.5 263ZM348.5 260a1.5 1.5 0 1 1-2.999.001A1.5 1.5 0 0 1 348.5 260ZM353.5 259a1.5 1.5 0 1 1-2.999.001A1.5 1.5 0 0 1 353.5 259ZM359.5 258c0 .829-.895 1.5-2 1.5-1.104 0-2-.671-2-1.5 0-.828.896-1.5 2-1.5 1.105 0 2 .672 2 1.5ZM364.5 258c0 .829-.895 1.5-2 1.5-1.104 0-2-.671-2-1.5 0-.828.896-1.5 2-1.5 1.105 0 2 .672 2 1.5ZM369.5 259a1.5 1.5 0 1 1-2.999.001A1.5 1.5 0 0 1 369.5 259ZM374.5 260.5c0 1.105-.671 2-1.5 2-.828 0-1.5-.895-1.5-2s.672-2 1.5-2c.829 0 1.5.895 1.5 2ZM385.5 260.5c0 1.105-.671 2-1.5 2-.828 0-1.5-.895-1.5-2s.672-2 1.5-2c.829 0 1.5.895 1.5 2ZM390.5 259a1.5 1.5 0 1 1-2.999.001A1.5 1.5 0 0 1 390.5 259ZM396.5 258c0 .829-.895 1.5-2 1.5-1.104 0-2-.671-2-1.5 0-.828.896-1.5 2-1.5 1.105 0 2 .672 2 1.5ZM401.5 258c0 .829-.895 1.5-2 1.5-1.104 0-2-.671-2-1.5 0-.828.896-1.5 2-1.5 1.105 0 2 .672 2 1.5ZM406.5 259a1.5 1.5 0 1 1-2.999.001A1.5 1.5 0 0 1 406.5 259ZM411.5 260c0 .829-.895 1.5-2 1.5-1.104 0-2-.671-2-1.5 0-.828.896-1.5 2-1.5 1.105 0 2 .672 2 1.5ZM415.5 263a1.5 1.5 0 1 1-2.999.001A1.5 1.5 0 0 1 415.5 263ZM419.5 266a1.5 1.5 0 1 1-2.999.001A1.5 1.5 0 0 1 419.5 266ZM422.5 270c0 .829-.895 1.5-2 1.5-1.104 0-2-.671-2-1.5 0-.828.896-1.5 2-1.5 1.105 0 2 .672 2 1.5ZM423.5 275c0 .829-.895 1.5-2 1.5-1.104 0-2-.671-2-1.5 0-.828.896-1.5 2-1.5 1.105 0 2 .672 2 1.5ZM423.5 280a1.5 1.5 0 1 1-2.999.001A1.5 1.5 0 0 1 423.5 280ZM421.5 284a1.5 1.5 0 1 1-2.999.001A1.5 1.5 0 0 1 421.5 284ZM419.5 288c0 .829-.895 1.5-2 1.5-1.104 0-2-.671-2-1.5 0-.828.896-1.5 2-1.5 1.105 0 2 .672 2 1.5ZM424.5 266a1.5 1.5 0 1 1-2.999.001A1.5 1.5 0 0 1 424.5 266ZM429.5 266a1.5 1.5 0 1 1-2.999.001A1.5 1.5 0 0 1 429.5 266ZM435.5 266c0 .829-.895 1.5-2 1.5-1.104 0-2-.671-2-1.5 0-.828.896-1.5 2-1.5 1.105 0 2 .672 2 1.5ZM440.5 267a1.5 1.5 0 1 1-2.999.001A1.5 1.5 0 0 1 440.5 267ZM445.5 269a1.5 1.5 0 1 1-2.999.001A1.5 1.5 0 0 1 445.5 269ZM450.5 271c0 .829-.895 1.5-2 1.5-1.104 0-2-.671-2-1.5 0-.828.896-1.5 2-1.5 1.105 0 2 .672 2 1.5ZM454.5 274c0 .829-.895 1.5-2 1.5-1.104 0-2-.671-2-1.5 0-.828.896-1.5 2-1.5 1.105 0 2 .672 2 1.5ZM457.5 278a1.5 1.5 0 1 1-2.999.001A1.5 1.5 0 0 1 457.5 278ZM460.5 282c0 .829-.895 1.5-2 1.5-1.104 0-2-.671-2-1.5 0-.828.896-1.5 2-1.5 1.105 0 2 .672 2 1.5ZM461.5 287a1.5 1.5 0 1 1-2.999.001A1.5 1.5 0 0 1 461.5 287ZM461.5 292c0 .829-.895 1.5-2 1.5-1.104 0-2-.671-2-1.5 0-.828.896-1.5 2-1.5 1.105 0 2 .672 2 1.5ZM459.5 297a1.5 1.5 0 1 1-2.999.001A1.5 1.5 0 0 1 459.5 297ZM457.5 301a1.5 1.5 0 1 1-2.999.001A1.5 1.5 0 0 1 457.5 301Z"/><path fill="#C8B100" fill-rule="evenodd" stroke="#000" stroke-miterlimit="8" stroke-width="0.589186" d="M378.508 342.5c-18.432-.03-34.955-2.187-46.742-5.699-.857-.268-1.308-1.042-1.263-1.86-.015-.774.436-1.489 1.263-1.741 11.787-3.512 28.31-5.67 46.742-5.7 18.447.03 34.954 2.188 46.741 5.7.827.252 1.263.967 1.248 1.741.045.818-.406 1.592-1.248 1.86-11.787 3.512-28.294 5.669-46.741 5.699"/><path fill="#C8B100" fill-rule="evenodd" stroke="#000" stroke-miterlimit="8" stroke-width="0.589186" d="M378.842 327.378c-18.679.046-35.447 2.418-47.248 6.122.979-.474.888-1.714-.331-4.898-1.475-3.872-3.763-3.704-3.763-3.704 13.035-3.918 31.203-6.367 51.417-6.398 20.23.031 38.533 2.48 51.583 6.398 0 0-2.303-.168-3.778 3.704-1.219 3.184-1.309 4.424-.316 4.898-11.801-3.704-28.885-6.076-47.564-6.122"/><path fill="#C8B100" fill-rule="evenodd" stroke="#000" stroke-miterlimit="8" stroke-width="0.589186" d="M378.455 318.53c-20.357.028-38.652 2.283-51.779 5.891-.879.239-1.803-.071-2.091-.846-.288-.775.182-1.663 1.061-1.902 13.202-3.763 31.952-6.131 52.809-6.173 20.872.042 39.697 2.41 52.899 6.173.88.239 1.349 1.127 1.061 1.902-.287.775-1.212 1.085-2.091.846-13.142-3.608-31.498-5.863-51.869-5.891"/><path fill="#C8B100" fill-rule="evenodd" stroke="#000" stroke-miterlimit="8" stroke-width="0.589186" d="m379.045 302.5 1.86.331c-.287.753-.363 1.581-.363 2.454 0 3.869 3.341 7 7.437 7 3.295 0 6.107-2.032 7.059-4.832.121.075.711-2.529 1.028-2.499.257.03.227 2.709.333 2.664.468 3.523 3.718 5.916 7.361 5.916 4.097 0 7.422-3.131 7.422-7 0-.286-.015-.572-.06-.858l2.327-2.288 1.255 2.921c-.499.918-.695 1.957-.695 3.055 0 3.704 3.174 6.684 7.089 6.684 2.464 0 4.626-1.174 5.895-2.965l1.497-1.882-.015 2.303c0 2.333.997 4.411 3.265 4.787 0 0 2.615.151 6.092-2.559 3.461-2.71 5.366-4.953 5.366-4.953l.302 2.71s-2.872 4.441-6.001 6.247c-1.723.994-4.323 2.032-6.394 1.701-2.177-.361-3.749-2.107-4.55-4.124a10.564 10.564 0 0 1-5.366 1.46c-4.248 0-8.057-2.318-9.553-5.811-1.95 2.108-4.671 3.387-7.861 3.387-3.386 0-6.485-1.52-8.419-3.853-1.92 1.746-4.505 2.815-7.377 2.815-3.749 0-7.089-1.837-8.979-4.592-1.889 2.755-5.23 4.592-8.979 4.592-2.857 0-5.457-1.069-7.361-2.815-1.935 2.333-5.049 3.853-8.435 3.853-3.19 0-5.895-1.279-7.845-3.387-1.512 3.493-5.321 5.811-9.554 5.811-1.98 0-3.809-.542-5.366-1.46-.816 2.017-2.373 3.763-4.565 4.124-2.056.331-4.656-.707-6.379-1.701-3.144-1.806-6.016-6.247-6.016-6.247l.302-2.71s1.92 2.243 5.382 4.953c3.461 2.725 6.076 2.559 6.076 2.559 2.283-.376 3.265-2.454 3.265-4.787l-.015-2.303 1.497 1.882c1.27 1.791 3.446 2.965 5.895 2.965 3.915 0 7.089-2.98 7.089-6.684 0-1.098-.196-2.137-.695-3.055l1.255-2.921 2.328 2.288a7.982 7.982 0 0 0-.061.858c0 3.869 3.326 7 7.422 7 3.658 0 6.893-2.393 7.377-5.916.09.045.075-2.634.332-2.664.303-.03.907 2.574 1.013 2.499.967 2.8 3.764 4.832 7.074 4.832 4.097 0 7.422-3.131 7.422-7 0-.873-.045-1.701-.363-2.454l1.95-.331"/><path fill="#C8B100" fill-rule="evenodd" stroke="#000" stroke-miterlimit="8" stroke-width="0.589186" d="M315.62 312.162c-.169-.544-.54-1.103-1.111-1.559-1.219-1-2.839-1.162-3.642-.367-.108.102-.2.249-.262.367 0 0-1.713-3.059-3.719-4.088-1.991-1.03-5.386-.765-5.386-.765 0-2.353 2.006-4.25 4.614-4.25 1.528 0 2.963.603 3.827 1.632l.355-1.573s2.099.397 3.056 2.676c.957 2.28-.093 5.589-.093 5.589s.525-1.412 1.312-2.368c.787-.941 2.793-1.971 3.843-2.441 1.034-.456 2.114-1.162 2.114-1.162s.046.265.077.897c.046.75-.015 1.221-.015 1.221 1.913-.25 4.151.059 5.91.706-.756 1.397-2.176 2.705-4.043 3.382 0 0 .679.529 1.281 1.103.525.5.679.721.679.721s-1.312.191-1.96.279c-.664.074-2.84.412-4.151.324a25.402 25.402 0 0 1-2.686-.324"/><path fill="#AD1519" fill-rule="evenodd" stroke="#000" stroke-miterlimit="8" stroke-width="0.589186" d="M310.897 310.048c.762-.864 2.299-.688 3.455.401 1.172 1.073 1.494 2.659.747 3.508-.747.865-2.298.672-3.455-.401-1.156-1.089-1.493-2.659-.747-3.508"/><path fill="#FFF" fill-rule="evenodd" stroke="#000" stroke-miterlimit="8" stroke-width="0.589186" d="M327.691 311.54c-.467-1.35-.05-2.684.95-2.976 1.001-.309 2.201.536 2.668 1.886.467 1.35.05 2.683-.95 2.992-1.001.293-2.185-.553-2.668-1.902"/><path fill="#C8B100" fill-rule="evenodd" stroke="#000" stroke-miterlimit="8" stroke-width="0.589186" d="M342.5 305.486c-.492-.416-.88-.988-1-1.667a2.774 2.774 0 0 1 .343-1.899s-1.313-.679-2.731-1.065c-1.075-.293-2.97-.309-3.537-.309-.567-.03-1.717-.046-1.717-.046s.105.263.418.849c.403.71.746 1.158.746 1.158-1.895.448-3.507 1.729-4.522 3.226 1.478 1.05 3.433 1.698 5.373 1.498 0 0-.179.525-.298 1.327-.09.664-.09.942-.09.942s1.06-.401 1.597-.602c.523-.201 2.299-.849 3.209-1.482 1.194-.834 2.209-1.93 2.209-1.93"/><path fill="#C8B100" fill-rule="evenodd" stroke="#000" stroke-miterlimit="8" stroke-width="0.589186" d="M341.774 290.5c1.48 1.014 2.765 2.709 3.212 4.585 0 0 .182-.378.992-.893.824-.499 1.522-.484 1.522-.484s-.237 1.468-.349 1.998c-.126.514-.126 2.088-.447 3.51a12.946 12.946 0 0 1-.88 2.543 2.615 2.615 0 0 0-2.207-.621c-.81.151-1.48.666-1.843 1.362 0 0-.922-.878-1.69-2.088-.768-1.226-1.299-2.694-1.578-3.148-.294-.454-1.006-1.74-1.006-1.74s.656-.272 1.592-.076c.936.182 1.229.485 1.229.485-.195-1.937.391-3.965 1.453-5.433M347.127 305.067a2.75 2.75 0 0 0 .358-1.896 2.677 2.677 0 0 0-.985-1.649s1-1.094 2.194-1.941c.896-.632 2.687-1.264 3.209-1.465.537-.2 1.597-.616 1.597-.616s0 .277-.09.94c-.119.802-.298 1.341-.298 1.341 1.94-.216 3.91.447 5.388 1.51-1.03 1.495-2.642 2.759-4.537 3.206 0 0 .343.431.746 1.14.313.601.418.863.418.863l-1.717-.046c-.567 0-2.462-.015-3.537-.308-1.418-.386-2.746-1.064-2.746-1.064"/><path fill="#AD1519" fill-rule="evenodd" stroke="#000" stroke-miterlimit="8" stroke-width="0.589186" d="M347.5 303.5c0 1.657-1.567 3-3.5 3s-3.5-1.343-3.5-3 1.567-3 3.5-3 3.5 1.343 3.5 3Z"/><path fill="#FFF" fill-rule="evenodd" stroke="#000" stroke-miterlimit="8" stroke-width="0.589186" d="M359.53 305.206c-.19-1.38.538-2.587 1.614-2.698 1.093-.111 2.134.905 2.325 2.286.191 1.365-.52 2.587-1.614 2.698-1.075.111-2.116-.905-2.325-2.286"/><path fill="#C8B100" fill-rule="evenodd" stroke="#000" stroke-miterlimit="8" stroke-width="0.589186" d="M376.5 302.475c-.498-.537-.824-1.222-.824-1.982 0-.746.295-1.446.793-1.968 0 0-1.384-.998-2.94-1.669-1.198-.521-3.391-.879-4.044-.998-.669-.119-1.992-.358-1.992-.358s.063.298.312.999c.311.834.622 1.386.622 1.386-2.287.119-4.434 1.207-5.927 2.623 1.493 1.4 3.64 2.473 5.927 2.608 0 0-.311.536-.622 1.386-.249.685-.312.998-.312.998l1.992-.358c.653-.119 2.846-.476 4.044-.998 1.556-.686 2.971-1.654 2.971-1.654"/><path fill="#C8B100" fill-rule="evenodd" stroke="#000" stroke-miterlimit="8" stroke-width="0.589186" d="M378.464 285.5c1.531 1.397 2.697 3.471 2.843 5.618 0 0 .277-.397 1.327-.78 1.064-.382 1.866-.235 1.866-.235s-.569 1.544-.802 2.088c-.248.544-.568 2.25-1.225 3.721-.641 1.471-1.531 2.588-1.531 2.588a3.253 3.253 0 0 0-2.435-1.103c-.991 0-1.851.441-2.435 1.103 0 0-.889-1.117-1.531-2.588-.656-1.471-.977-3.177-1.224-3.721-.248-.544-.817-2.088-.817-2.088s.817-.147 1.866.235c1.05.383 1.342.78 1.342.78.146-2.147 1.254-4.221 2.756-5.618M381.5 302.475a2.975 2.975 0 0 0 .029-3.95s1.286-.998 2.744-1.669c1.098-.521 3.135-.879 3.756-.998l1.82-.358s-.029.298-.274.999c-.289.834-.578 1.386-.578 1.386 2.123.119 4.131 1.207 5.503 2.623-1.372 1.4-3.365 2.473-5.503 2.608 0 0 .289.536.578 1.386.231.685.274.998.274.998l-1.82-.358c-.621-.119-2.658-.476-3.756-.998-1.458-.686-2.773-1.654-2.773-1.654"/><path fill="#AD1519" fill-rule="evenodd" stroke="#000" stroke-miterlimit="8" stroke-width="0.589186" d="M381.5 300.5a3 3 0 1 1-6 0 3 3 0 0 1 6 0Z"/><path fill="#FFF" fill-rule="evenodd" stroke="#000" stroke-miterlimit="8" stroke-width="0.589186" d="M397.477 305.206c.143-1.38-.391-2.587-1.21-2.698-.82-.111-1.601.905-1.744 2.286-.143 1.365.403 2.587 1.21 2.698.82.111 1.601-.905 1.744-2.286"/><path fill="#C8B100" fill-rule="evenodd" stroke="#000" stroke-miterlimit="8" stroke-width="0.589186" d="M410.873 305.067a2.845 2.845 0 0 1-.373-1.896 2.77 2.77 0 0 1 1-1.649s-1-1.094-2.194-1.941c-.91-.632-2.687-1.264-3.224-1.465-.522-.2-1.582-.616-1.582-.616s-.015.277.09.94c.119.802.283 1.341.283 1.341-1.925-.216-3.895.447-5.373 1.51 1.015 1.495 2.642 2.759 4.522 3.206 0 0-.343.431-.731 1.14-.328.601-.418.863-.418.863l1.702-.046c.567 0 2.477-.015 3.537-.308 1.418-.386 2.746-1.064 2.746-1.064"/><path fill="#C8B100" fill-rule="evenodd" stroke="#000" stroke-miterlimit="8" stroke-width="0.589186" d="M415.814 290.5c-1.628 1.014-3.042 2.709-3.549 4.585 0 0-.184-.378-1.09-.893-.891-.499-1.675-.484-1.675-.484s.261 1.468.4 1.998c.138.514.138 2.088.476 3.51.353 1.408.983 2.543.983 2.543a3.059 3.059 0 0 1 2.412-.621c.906.151 1.629.666 2.043 1.362 0 0 1.014-.878 1.859-2.088.83-1.226 1.414-2.694 1.721-3.148.323-.454 1.106-1.74 1.106-1.74s-.722-.272-1.751-.076c-1.03.182-1.352.485-1.352.485.23-1.937-.43-3.965-1.583-5.433"/><path fill="#C8B100" fill-rule="evenodd" stroke="#000" stroke-miterlimit="8" stroke-width="0.589186" d="M415.5 305.486c.507-.416.894-.988.999-1.667.134-.679 0-1.343-.328-1.899 0 0 1.312-.679 2.728-1.065 1.073-.293 2.966-.309 3.518-.309.581-.03 1.714-.046 1.714-.046s-.089.263-.417.849a9.893 9.893 0 0 1-.731 1.158c1.879.448 3.489 1.729 4.517 3.226-1.476 1.05-3.443 1.698-5.366 1.498 0 0 .164.525.283 1.327.089.664.089.942.089.942s-1.058-.401-1.58-.602c-.537-.201-2.31-.849-3.22-1.482-1.177-.834-2.206-1.93-2.206-1.93"/><path fill="#AD1519" fill-rule="evenodd" stroke="#000" stroke-miterlimit="8" stroke-width="0.589186" d="M416.5 303.5c0 1.657-1.567 3-3.5 3s-3.5-1.343-3.5-3 1.567-3 3.5-3 3.5 1.343 3.5 3Z"/><path fill="#FFF" fill-rule="evenodd" stroke="#000" stroke-miterlimit="8" stroke-width="0.589186" d="M429.358 311.54c.348-1.35.037-2.684-.71-2.976-.748-.309-1.644.536-2.005 1.886-.349 1.35-.038 2.683.71 2.992.747.293 1.643-.553 2.005-1.902"/><path fill="#C8B100" fill-rule="evenodd" stroke="#000" stroke-miterlimit="8" stroke-width="0.589186" d="M441.93 312.162c.163-.544.533-1.103 1.066-1.559 1.171-1 2.741-1.162 3.497-.367.103.102.207.249.266.367 0 0 1.63-3.059 3.556-4.088 1.926-1.03 5.185-.765 5.185-.765 0-2.353-1.941-4.25-4.444-4.25-1.467 0-2.845.603-3.66 1.632l-.34-1.573s-2.015.397-2.934 2.676c-.918 2.28.074 5.589.074 5.589s-.488-1.412-1.244-2.368c-.756-.941-2.682-1.971-3.689-2.441-1.007-.456-2.03-1.162-2.03-1.162s-.044.265-.088.897c-.03.75.029 1.221.029 1.221-1.852-.25-4 .059-5.674.706.711 1.397 2.074 2.705 3.867 3.382 0 0-.637.529-1.23 1.103-.489.5-.637.721-.637.721s1.259.191 1.882.279c.637.074 2.726.412 3.97.324a22.997 22.997 0 0 0 2.578-.324"/><path fill="#AD1519" fill-rule="evenodd" stroke="#000" stroke-miterlimit="8" stroke-width="0.589186" d="M446.102 310.048c-.747-.864-2.3-.688-3.457.401-1.157 1.073-1.494 2.659-.747 3.508.747.865 2.3.672 3.457-.401 1.158-1.089 1.495-2.659.747-3.508"/><path fill="#AD1519" fill-rule="evenodd" stroke="#000" stroke-linejoin="round" stroke-miterlimit="10" stroke-width="0.589186" d="M378.955 339.5c-16.758-.014-31.925-1.8-43.455-4.549 11.53-2.749 26.697-4.423 43.455-4.451 16.772.028 32.015 1.702 43.545 4.451-11.53 2.749-26.773 4.535-43.545 4.549Z"/><path fill="none" stroke="#000" stroke-miterlimit="8" stroke-width="0.0754856" d="M390.5 339.112v-8.335m-4.628 8.612.061-8.833M382.5 339.5v-9"/><path fill="none" stroke="#000" stroke-miterlimit="8" stroke-width="0.135958" d="M379.5 340.5v-10"/><path fill="none" stroke="#000" stroke-miterlimit="8" stroke-width="0.211444" d="M377.5 340.5v-10"/><path fill="none" stroke="#000" stroke-miterlimit="8" stroke-width="0.271916" d="M374.5 340.5v-10"/><path fill="none" stroke="#000" stroke-miterlimit="8" stroke-width="0.347402" d="M372.5 340.5v-10"/><path fill="none" stroke="#000" stroke-miterlimit="8" stroke-width="0.422992" d="M369.5 340.5v-10"/><path fill="none" stroke="#000" stroke-miterlimit="8" stroke-width="0.498478" d="m365.558 339.385-.058-8.597m2 8.712v-9"/><path fill="none" stroke="#000" stroke-miterlimit="8" stroke-width="0.55895" d="M361.5 339.254v-8.447m2 8.693-.06-9"/><path fill="none" stroke="#000" stroke-miterlimit="8" stroke-width="0.634436" d="M356.5 339.137v-7.334m1.474 7.455v-7.697m1.526 7.939v-8"/><path fill="none" stroke="#000" stroke-miterlimit="8" stroke-width="0.694908" d="M354.5 338.5v-7"/><path fill="none" stroke="#000" stroke-miterlimit="8" stroke-width="0.770394" d="M352.5 338.5v-7"/><path fill="none" stroke="#000" stroke-miterlimit="8" stroke-width="0.845984" d="M350.5 338.5v-7"/><path fill="none" stroke="#000" stroke-miterlimit="8" stroke-width="0.906352" d="m346.56 337.279-.06-4.447m2 4.668v-5"/><path fill="none" stroke="#000" stroke-miterlimit="8" stroke-width="0.951706" d="M345.5 337.5v-5"/><path fill="none" stroke="#000" stroke-miterlimit="8" stroke-width="1.0273" d="M343.5 336.5v-3"/><path fill="none" stroke="#000" stroke-miterlimit="8" stroke-width="1.10278" d="M341.5 336.5v-3"/><path fill="none" stroke="#000" stroke-miterlimit="8" stroke-width="1.16325" d="M339.5 336.5v-3"/><path fill="none" stroke="#000" stroke-miterlimit="8" stroke-width="1.3747" d="M337.5 335.5v-1"/><path fill="none" stroke="#000" stroke-miterlimit="8" stroke-width="0.589186" d="M333.5 335.5c11.742-3.079 27.712-4.972 45.455-5 17.757.028 33.803 1.921 45.545 5"/><path fill="#AD1519" fill-rule="evenodd" stroke="#000" stroke-miterlimit="8" stroke-width="0.589186" d="m328.5 328.496 1.861-1.996 5.139.54-4.102 2.46-2.898-1.004"/><path fill="#FFF" fill-rule="evenodd" stroke="#000" stroke-miterlimit="8" stroke-width="0.589186" d="M339.5 326c0-.837.668-1.5 1.5-1.5s1.5.663 1.5 1.5c0 .822-.668 1.5-1.5 1.5s-1.5-.678-1.5-1.5"/><path fill="#058E6E" fill-rule="evenodd" stroke="#000" stroke-miterlimit="8" stroke-width="0.589186" d="m353.666 326.077-3.378.411c-.873.107-1.674-.503-1.774-1.371a1.55 1.55 0 0 1 1.374-1.752l3.392-.426 3.463-.427a1.562 1.562 0 0 1 1.746 1.371 1.592 1.592 0 0 1-1.373 1.767l-3.45.427"/><path fill="#FFF" fill-rule="evenodd" stroke="#000" stroke-miterlimit="8" stroke-width="0.589186" d="M364.5 323a1.501 1.501 0 0 1 3 0c0 .822-.682 1.5-1.5 1.5-.832 0-1.5-.678-1.5-1.5"/><path fill="#AD1519" fill-rule="evenodd" stroke="#000" stroke-miterlimit="8" stroke-width="0.589186" d="M378.971 324.5h-4.839c-.882 0-1.632-.667-1.632-1.493 0-.84.721-1.507 1.618-1.507h9.764c.898 0 1.618.667 1.618 1.507 0 .826-.75 1.493-1.632 1.493h-4.897"/><path fill="#FFF" fill-rule="evenodd" stroke="#000" stroke-miterlimit="8" stroke-width="0.589186" d="M389.5 323c0-.837.909-1.5 2-1.5 1.109 0 2 .663 2 1.5 0 .822-.891 1.5-2 1.5-1.091 0-2-.678-2-1.5"/><path fill="#058E6E" fill-rule="evenodd" stroke="#000" stroke-miterlimit="8" stroke-width="0.589186" d="m403.821 326.077 3.715.411c.945.107 1.842-.503 1.952-1.371.11-.868-.566-1.66-1.511-1.752l-3.731-.426-3.81-.427c-.961-.106-1.811.503-1.921 1.371-.126.868.567 1.661 1.511 1.767l3.795.427"/><path fill="#FFF" fill-rule="evenodd" stroke="#000" stroke-miterlimit="8" stroke-width="0.589186" d="M414.5 326c0-.837.891-1.5 2-1.5s2 .663 2 1.5c0 .822-.891 1.5-2 1.5s-2-.678-2-1.5"/><path fill="#AD1519" fill-rule="evenodd" stroke="#000" stroke-miterlimit="8" stroke-width="0.589186" d="m429.5 328.496-1.849-1.996-5.151.54 4.111 2.46 2.889-1.004"/><path fill="#CCC" fill-rule="evenodd" stroke="#000" stroke-miterlimit="8" stroke-width="0.785512" d="M379.15 521.5c-19.668 0-39.171-4.874-55.561-13.007-12.074-6.062-20.089-18.277-20.089-32.274V425.5h151v50.719c0 13.997-8 26.212-20.089 32.274-16.39 8.133-35.577 13.007-55.261 13.007Z"/><path fill="#FFD691" fill-rule="evenodd" stroke="#000" stroke-miterlimit="8" stroke-width="0.785512" d="M382.799 498.5c3.119 1 4.701 3.476 4.701 6.365 0 3.778-3.433 6.635-7.91 6.635-4.463 0-8.09-2.857-8.09-6.635 0-2.841 1.493-6.032 4.597-6.254 0 0-.089-.301-.358-.793-.328-.366-.955-1.048-.955-1.048s1.179-.238 1.865.032c.687.285 1.15.746 1.15.746s.313-.683.776-1.207c.447-.524 1.045-.841 1.045-.841s.686.603.91 1.016c.224.429.373.936.373.936s.627-.555 1.179-.777c.552-.238 1.254-.413 1.254-.413s-.194.73-.328 1.095c-.135.365-.209 1.143-.209 1.143"/><path fill="#058E6E" fill-rule="evenodd" stroke="#000" stroke-miterlimit="8" stroke-width="0.785512" d="M378.5 514.686s-5.904-4.239-8.455-4.809c-3.279-.743-6.958-.142-8.545-.237.045.048 1.914 1.471 2.73 2.341.815.87 3.545 2.61 5.088 3.022 4.776 1.281 9.182-.317 9.182-.317M380.5 515.465s3.924-4.178 8.049-4.743c4.867-.691 8.065.408 9.95.911.047 0-1.56.769-2.41 1.366-.85.581-3.044 2.466-6.396 2.497-3.368.047-7.076-.361-7.679-.267-.618.095-1.514.236-1.514.236"/><path fill="#AD1519" fill-rule="evenodd" stroke="#000" stroke-miterlimit="8" stroke-width="0.785512" d="M379.5 510.5c-1.234-1.377-2-3.331-2-5.507 0-2.162.766-4.116 2.012-5.493 1.223 1.377 1.988 3.331 1.988 5.493 0 2.176-.765 4.13-2 5.507"/><path fill="#058E6E" fill-rule="evenodd" stroke="#000" stroke-miterlimit="8" stroke-width="0.785512" d="M377.5 518.5s1.07-2.128 1.176-3.962c.105-1.526-.264-3.038-.264-3.038h1.404s.684 1.624.684 3.038c0 1.428-.316 3.318-.316 3.318s-.965.112-1.28.238c-.334.126-1.404.406-1.404.406"/><path fill="#AD1519" fill-rule="evenodd" stroke="#000" stroke-miterlimit="8" stroke-width="0.785512" d="M378.5 476.251c0 20.027-16.673 36.249-37.425 36.249S303.5 496.278 303.5 476.251V425.5h75v50.751"/><path fill="#C8B100" fill-rule="evenodd" stroke="#000" stroke-miterlimit="8" stroke-width="0.785512" d="M302.5 475.743c.236 10.643 4.634 18.572 9 23.757v-75h-8.89l-.11 51.243ZM319.5 505.318c2.343 1.253 5.552 3.352 9 4.182l-.224-86H319.5v81.818ZM336.5 512.259c3.527.351 6.148.29 9 0V423.5h-9v88.759ZM353.5 509.5c3.433-.694 7.314-2.853 9-3.971V423.5h-8.776l-.224 86ZM370.715 498.5c3.756-3.323 7.283-10.854 8.57-19.451l.215-55.549h-9l.215 75Z"/><path fill="#AD1519" fill-rule="evenodd" stroke="#000" stroke-miterlimit="8" stroke-width="0.785512" d="M455.5 425.5v50.751c0 20.027-17.257 36.249-38.508 36.249-21.265 0-38.492-16.222-38.492-36.249V425.5h77"/><path fill="#C8B100" fill-rule="evenodd" stroke="#C8B100" stroke-miterlimit="8" stroke-width="0.392756" d="M412.734 462.996c.074-.211.178-.406.282-.602l-6.316-7.127-2.476 1.082-4.537-5.097 1.483-2.196-7.917-9.007c-.104.03-.297.03-.401.06l.045 6.045 2.594.752v6.706l-2.594.722-.045 6.136c1.246.391 2.195 1.323 2.58 2.511l4.759.015.756-2.511h6.998l.742 2.511Zm-10.348-27.819v2.421h4.092v-2.421Zm-10.824 30.631c.949 0 1.72-.737 1.72-1.654 0-.918-.771-1.67-1.72-1.67-.963 0-1.734.752-1.734 1.67 0 .917.771 1.654 1.734 1.654Zm23.707-14.631-2.609-.722v-6.707l2.609-.752-.014-2.887c-1.261-.376-2.239-1.308-2.654-2.511h-3.974l-.756 2.511h-6.983l-.756-2.511h-4.581a4.728 4.728 0 0 1-.43.917l7.976 8.962 2.476-1.067 4.537 5.112-1.483 2.181 6.198 6.977c.133-.06.267-.12.415-.18Zm-10.748-2.091-1.913 1.564 2.624 2.978 1.913-1.579Zm11.867 54.414c-1.839-.098-3.344-1.357-3.728-3.031-2.476-.346-4.818-.993-7.013-1.955l1.246-2.15c1.912.827 3.943 1.368 6.049 1.669a3.937 3.937 0 0 1 2.342-2.106l.015-8.45-2.609-.737v-6.707l2.609-.722v-11.488a1.242 1.242 0 0 1-.296-.136l-5.901 6.647 1.482 2.165-4.536 5.113-2.476-1.068-4.893 5.519a3.706 3.706 0 0 1-.163 4.286 23.198 23.198 0 0 0 4.804 4.135l-1.246 2.165a26.07 26.07 0 0 1-5.619-4.842c-1.29.391-2.758.166-3.855-.752-1.705-1.398-1.912-3.849-.445-5.473l.208-.241c-1.023-2.346-1.72-4.872-1.957-7.518l2.535.015a21.28 21.28 0 0 0 1.616 6.421 4.586 4.586 0 0 1 2.165.24l4.922-5.534-1.482-2.18 4.536-5.113 2.476 1.083 5.916-6.662a3.276 3.276 0 0 1-.311-.691l-4.092.015-.742 2.511h-6.998l-.756-2.511-4.803-.015c-.401 1.143-1.335 2.045-2.506 2.436l-.015 6.075-2.535-.015v-6.03c-1.631-.496-2.832-1.97-2.832-3.714 0-1.73 1.216-3.233 2.847-3.73l.014-6.09-2.609-.722v-6.706l2.609-.752v-6.09c-1.601-.526-2.727-1.985-2.727-3.684 0-2.151 1.808-3.88 4.047-3.88 1.809 0 3.336 1.113 3.87 2.677h4.581l.756-2.512h6.983l.756 2.512h3.974c.529-1.551 2.02-2.658 3.794-2.677l.105 12.586h-1.26v3.925h1.253l-.032 32.466h-1.162v3.924h1.156Zm-8.768-27.527-1.913-1.564-2.639 2.977 1.913 1.564Zm-14.767-27.729h-2.506l-.015 3.925h2.521Zm13.581 17.158v-2.406h-4.226v2.406Zm-15.716 14.571-2.61-.587-.37-6.691 2.594-.872v3.849c0 1.489.134 2.887.386 4.301Zm2.164-8.301 2.595.617s.133 4.315.074 3.338c-.059-1.113.282 3.368.282 3.368l-2.61.872c-.266-1.353-.355-2.766-.355-4.195Zm16.028 25.458.578-2.556c-2.254-.722-4.344-1.774-6.183-3.143l-1.868 1.669a24.471 24.471 0 0 0 7.473 4.03Zm-1.261 2.166-1.927 1.834a28.423 28.423 0 0 1-6.109-3.173l.564-2.661a26.982 26.982 0 0 0 7.472 4Z"/><path fill="#C8B100" fill-rule="evenodd" stroke="#C8B100" stroke-miterlimit="8" stroke-width="0.392756" d="M420.394 462.996a4.36 4.36 0 0 0-.292-.602l6.534-7.127 2.561 1.082 4.694-5.097-1.534-2.196 8.19-9.007c.107.03.307.03.414.06l-.046 6.045-2.684.752v6.706l2.684.722.046 6.135c-1.288.392-2.27 1.324-2.669 2.512l-4.923.015-.782-2.511h-7.24l-.766 2.51Zm10.705-27.82v2.422h-4.233v-2.421Zm11.196 30.632c-.981 0-1.779-.737-1.779-1.654 0-.918.798-1.67 1.78-1.67.996 0 1.794.752 1.794 1.67 0 .917-.798 1.654-1.795 1.654Zm-24.524-14.632 2.7-.721v-6.707l-2.7-.752.015-2.887c1.304-.376 2.316-1.308 2.746-2.511h4.11l.782 2.511h7.224l.782-2.511h4.74c.122.33.26.631.445.917l-8.252 8.962-2.561-1.067-4.694 5.112 1.534 2.18-6.41 6.978a12.2 12.2 0 0 0-.43-.18Zm11.12-2.09 1.978 1.564-2.715 2.978-1.978-1.58ZM416.613 503.5c1.902-.098 3.459-1.357 3.856-3.031 2.562-.346 4.985-.993 7.255-1.955l-1.288-2.15c-1.979.827-4.08 1.368-6.258 1.669a4.029 4.029 0 0 0-2.423-2.106l-.016-8.45 2.7-.737v-6.707l-2.7-.722v-11.488c.108-.03.2-.075.307-.136l6.104 6.647-1.533 2.165 4.693 5.113 2.561-1.068 5.061 5.519c-.874 1.308-.843 3.007.17 4.286a23.774 23.774 0 0 1-4.97 4.135l1.288 2.165a26.75 26.75 0 0 0 5.813-4.842c1.335.391 2.853.166 3.988-.752 1.764-1.398 1.978-3.85.46-5.473l-.215-.24c1.059-2.347 1.78-4.873 2.025-7.52l-2.623.015a20.694 20.694 0 0 1-1.672 6.421 4.912 4.912 0 0 0-2.239.241l-5.092-5.534 1.534-2.18-4.693-5.113-2.562 1.083-6.12-6.662c.139-.21.23-.436.323-.691l4.233.015.767 2.51h7.239l.782-2.51 4.97-.015c.414 1.142 1.38 2.045 2.591 2.436l.016 6.075 2.622-.015v-6.03c1.688-.497 2.93-1.97 2.93-3.714 0-1.73-1.258-3.233-2.945-3.73l-.015-6.09 2.7-.722v-6.706l-2.7-.752v-6.09c1.656-.526 2.822-1.985 2.822-3.684 0-2.15-1.871-3.88-4.187-3.88-1.871 0-3.451 1.113-4.003 2.677h-4.74l-.782-2.512h-7.224l-.782 2.512h-4.11c-.548-1.55-2.09-2.658-3.925-2.677l-.11 12.586h1.304v3.925h-1.296l.033 32.465h1.202v3.925h-1.195Zm9.07-27.527 1.98-1.564 2.73 2.977-1.98 1.564Zm15.277-27.729h2.592l.015 3.925h-2.607Zm-14.05 17.157v-2.406h4.372v2.406Zm16.258 14.572 2.7-.587.383-6.691-2.684-.873v3.85c0 1.489-.138 2.887-.399 4.3Zm-2.239-8.3-2.684.616s-.138 4.315-.077 3.338c.062-1.113-.291 3.368-.291 3.368l2.7.872c.275-1.353.367-2.767.367-4.195Zm-16.58 25.457-.598-2.556c2.331-.722 4.494-1.774 6.396-3.143l1.932 1.67a25.63 25.63 0 0 1-7.73 4.03Zm1.304 2.166 1.994 1.834a29.798 29.798 0 0 0 6.319-3.173l-.583-2.661c-2.3 1.699-4.923 3.052-7.73 4Z"/><path fill="#058E6E" fill-rule="evenodd" d="M412 464.016a4.01 4.01 0 0 1 4.007-4.016 3.998 3.998 0 0 1 3.993 4.016 3.981 3.981 0 0 1-3.993 3.984c-2.208 0-4.007-1.776-4.007-3.984"/><path fill="#AD1519" fill-rule="evenodd" stroke="#000" stroke-miterlimit="8" stroke-width="0.785512" d="M303.5 425.5h75v-84h-75v84Z"/><path fill="#C8B100" fill-rule="evenodd" stroke="#000" stroke-miterlimit="8" stroke-width="0.694908" d="M328.941 361.298h-1.392v-1.393h-2.451v5.588h2.451v3.862h-5.25v11.192h2.799v22.398H319.5V414.5h43v-11.555h-5.583v-22.398h2.799v-11.192h-5.25v-3.862h2.451v-5.588h-2.451v1.393h-1.407v-1.393h-2.436v1.393h-1.755v-1.393h-2.451v5.588h2.451v3.862h-5.235v-12.252h2.784V351.5h-2.784v1.409h-1.407V351.5h-2.451v1.409h-1.392V351.5h-2.8v5.603h2.8v12.252h-5.251v-3.862h2.451v-5.588h-2.451v1.393h-1.392v-1.393h-2.799v1.393ZM319.5 414.5h43m-43-2.802h43m-43-2.801h43m-43-2.802h43m-43-3.15h43m-37.402-2.453h31.819m-31.819-2.802h31.819m-31.819-3.15h31.819m-31.819-2.787h31.819m-31.819-2.801h31.819m-31.819-2.802h31.819m-31.819-2.802h31.819m-34.618-2.801h37.417m-37.417-2.802h37.417m-37.417-2.802h37.417m-37.417-2.786h37.417m-32.167-2.802h26.917m-16.083-2.802h5.25m-5.25-2.801h5.25m-5.25-2.802h5.25m-5.25-2.802h5.25m-8.05-3.498h10.834m-18.868 11.903h5.583m-8.034-3.498h10.485M325.098 414.5v-2.802m0-2.801v-2.802m-2.799 2.802v2.801m5.25 0v-2.801m2.784 5.603v-2.802m0-2.801v-2.802m0-3.15v-2.453m0-2.802v-3.15m-2.784 11.555v-3.15m-5.25 3.15v-3.15m10.833 0v3.15m2.451-3.15v-2.453m-8.034-2.802v2.802m5.583-2.802v2.802m5.251-2.802v2.802m-2.8-2.802v-3.15m2.8-2.787v2.787m0-8.39v2.802m-2.8-5.604v2.802m2.8-5.603v2.801m-5.251-2.801v2.801m-5.583-2.801v2.801m-2.451-5.603v2.802m5.235-2.802v2.802m5.25-2.802v2.802m2.8-5.604v2.802m-5.251-2.802v2.802m-5.583-2.802v2.802m-2.451-5.588v2.786m10.485-2.786v2.786m-5.25-8.39v2.802m24.133-2.802h-5.598m8.049-3.498h-10.5m10.5 51.445v-2.802m0-2.801v-2.802m2.799 2.802v2.801m-5.25 0v-2.801m-2.799 5.603v-2.802m0-2.801v-2.802m0-3.15v-2.453m0-2.802v-3.15m2.799 11.555v-3.15m5.25 3.15v-3.15m-10.848 0v3.15m-2.451-3.15v-2.453m8.049-2.802v2.802m-5.598-2.802v2.802m-5.235-2.802v2.802m2.784-2.802v-3.15m-2.784-2.787v2.787m0-8.39v2.802m2.784-5.604v2.802m-2.784-5.603v2.801m5.235-2.801v2.801m5.598-2.801v2.801m2.451-5.603v2.802m-5.25-2.802v2.802m-5.25-2.802v2.802m-2.784-5.604v2.802m5.235-2.802v2.802m5.598-2.802v2.802m2.451-5.588v2.786m-10.5-2.786v2.786m5.25-8.39v2.802m-10.833 28.335v-3.15m0-8.39v-2.802m0 8.405v-2.801m0-8.405v-2.802m0-2.802v-2.786m0-5.604v-2.801m0-2.802v-2.802m-13.285 7.345h5.583m5.251-8.39h5.25m5.235 8.39h5.598"/><path fill="#C8B100" fill-rule="evenodd" stroke="#000" stroke-miterlimit="8" stroke-width="0.694908" d="M348.5 414.5v-7.381c0-1.397-.728-5.619-7.682-5.619-6.589 0-7.318 4.222-7.318 5.619v7.381h15Z"/><path fill="#C8B100" fill-rule="evenodd" stroke="#000" stroke-miterlimit="8" stroke-width="0.694908" d="m336.337 407.5-3.837-.383c0-1.533.382-3.85 1.545-4.617l3.455 2.7c-.382.384-1.163 1.534-1.163 2.3ZM342.729 403.5l1.771-3.276c-.702-.362-2.122-.724-3.176-.724-.702 0-2.122.362-2.824.724l1.756 3.276h2.473ZM345.65 407.5l3.85-.383c0-1.533-.383-3.85-1.533-4.617l-3.467 2.7c.383.384 1.15 1.534 1.15 2.3ZM335.5 394.5v-7.338c0-1.99-1.268-3.662-3.5-3.662s-3.5 1.672-3.5 3.662v7.338h7ZM346.5 394.5v-7.338c0-1.99 1.462-3.662 4.008-3.662 2.53 0 3.992 1.672 3.992 3.662v7.338h-8ZM333.133 375.5l.367-7h-7l.749 7h5.884ZM343.767 375.5l.733-7h-7l.367 7h5.9ZM349.197 375.5l-.697-7h7l-.697 7h-5.606Z"/><path fill="#0039F0" fill-rule="evenodd" d="M345 414v-6.594c0-1.109-.663-4.406-4.659-4.406-3.663 0-4.341 3.297-4.341 4.406V414h9ZM335 394v-7.207c0-1.889-1.161-3.793-3.5-3.793s-3.5 1.904-3.5 3.793V394h7ZM347 394v-7.207c0-1.889.995-3.793 3-3.793 1.99 0 3 1.904 3 3.793V394h-6Z"/><path fill="#CCC" fill-rule="evenodd" stroke="#000" stroke-miterlimit="8" stroke-width="0.785512" d="M378.5 425.5h76v-84h-76v84Z"/><path fill="#DB4446" fill-rule="evenodd" stroke="#000" stroke-miterlimit="8" stroke-width="0.589186" d="m417.296 362.5.073-1.049.131-.575s-2.344.22-3.581-.186c-1.238-.406-2.344-.998-3.494-2.114-1.15-1.15-1.601-1.861-2.431-1.996-1.98-.372-3.494.677-3.494.677s1.485.625 2.591 2.215c1.107 1.59 2.315 2.385 2.839 2.588.859.305 3.872.085 4.688.119.83.051 2.678.321 2.678.321Z"/><path fill="#ED72AA" fill-rule="evenodd" stroke="#000" stroke-miterlimit="8" stroke-width="0.589186" d="M429.368 358.772s.015 1.08.121 2.101c.091 1.005-.333 1.86-.167 2.415.167.556.243.991.455 1.396.212.39.319 1.41.319 1.41s-.577-.42-1.122-.81c-.531-.405-.91-.66-.91-.66l.152 1.545c.06.465.333 1.336.773 1.861.439.495 1.319 1.335 1.592 1.995.273.676.212 2.161.212 2.161s-.697-1.125-1.319-1.335c-.591-.21-1.911-.931-1.911-.931s1.198 1.186 1.198 2.326c0 1.125-.485 2.401-.485 2.401s-.546-1.021-1.258-1.681c-.713-.675-1.714-1.35-1.714-1.35s.789 1.755.789 2.926c0 1.185-.228 3.706-.228 3.706s-.591-.96-1.197-1.441c-.607-.465-1.32-.87-1.547-1.17-.212-.315.728.96.819 1.741.106.765.485 3.526 2.911 7.037 1.425 2.055 3.624 5.656 8.339 4.471 4.715-1.17 2.972-7.457 1.971-10.383-.985-2.926-1.486-6.167-1.425-7.307.06-1.126.879-4.457.773-5.087-.106-.615-.364-3.001.212-4.921.607-1.996 1.107-2.776 1.441-3.601.318-.826.591-1.291.697-2.011.106-.72.106-2.056.106-2.056s.88 1.591 1.107 2.161c.212.57.212 2.251.212 2.251s.167-1.681 1.486-2.506c1.319-.825 2.851-1.696 3.23-2.161.379-.465.5-.765.5-.765s-.121 2.881-.94 4.006c-.546.735-2.684 3.136-2.684 3.136s1.107-.42 1.865-.45a7.81 7.81 0 0 1 1.319 0s-.94.72-2.138 2.461c-1.212 1.74-.712 1.89-1.591 3.331-.88 1.44-1.593 1.5-2.699 2.371-1.638 1.305-.758 6.511-.546 7.292.227.765 3.078 7.142 3.138 8.687.046 1.546.319 4.997-2.426 7.203-1.758 1.425-4.654 1.44-5.321 1.845-.652.42-1.956 1.696-1.956 4.366 0 2.686.97 3.091 1.743 3.767.774.66 1.759.3 1.971.825.228.51.334.81.668 1.125.318.3.545.66.439 1.231-.121.57-1.379 1.845-1.819 2.775-.44.916-1.319 3.346-1.319 3.706 0 .361-.106 1.486.273 2.056 0 0 1.379 1.591.439 1.891-.606.21-1.182-.375-1.47-.3-.819.21-1.259.705-1.486.675-.546-.105-.546-.375-.607-1.141-.045-.765-.015-1.08-.257-1.08-.334 0-.501.27-.561.675-.061.405-.061 1.336-.44 1.336s-.925-.675-1.259-.825c-.333-.151-1.258-.301-1.319-.721-.045-.405.546-1.275 1.153-1.44.606-.15 1.152-.45.773-.765-.394-.3-.773-.3-1.152 0-.379.315-1.198.06-1.153-.406.061-.465.167-1.035.106-1.29-.045-.255-.712-.765.152-1.23.895-.465 1.274.405 2.153.255.879-.15 1.304-.465 1.638-.975.333-.511.272-1.591-.334-2.251-.591-.675-1.198-.78-1.425-1.201-.212-.405-.546-1.38-.546-1.38s.167 1.801.061 2.056c-.107.255-.061 1.335-.061 1.335s-.591-.675-1.092-1.185c-.485-.51-.985-2.056-.985-2.056s-.046 1.441-.046 2.011c0 .555.652 1.08.44 1.29-.227.195-1.258-1.08-1.547-1.29-.273-.21-1.152-.871-1.531-1.591s-.667-1.74-.773-2.115c-.106-.361-.288-1.966-.106-2.371.273-.6.712-1.696.712-1.696h-2.137c-1.153 0-1.972-.345-2.411.42-.44.766-.228 2.311.318 4.322.561 1.995.879 2.971.728 3.331-.167.36-.88 1.185-1.152 1.335-.288.165-1.047.105-1.38-.045-.319-.15-.864-.405-1.911-.405-1.046 0-1.698.045-2.077-.045-.394-.105-1.334-.57-1.774-.465-.439.105-1.197.48-.985 1.08.333.916-.319 1.126-.773 1.081-.44-.06-.804-.211-1.365-.361-.546-.165-1.365 0-1.258-.63.106-.615.333-.66.606-1.11.273-.48.379-.78.061-.81-.379-.03-.774-.075-1.062.165-.303.24-.773.765-1.152.57-.394-.21-.697-.645-.697-1.621 0-.96-1.031-1.8-.076-1.755.94.045 2.138.72 2.35.195.212-.525.091-.765-.425-1.17-.515-.406-1.152-.646-.47-1.156.683-.525.849-.525 1.122-.81.258-.27.622-1.185 1.107-.96.94.45.03 1.095.986 2.13.94 1.036 1.531 1.411 3.123 1.246 1.577-.165 2.016-.36 2.016-.811 0-.435-.136-1.23-.181-1.56-.031-.315.227-1.485.227-1.485s-.728.45-.955.885c-.197.435-.637 1.2-.637 1.2s-.167-.9-.121-1.635c.03-.435.182-1.186.167-1.336-.046-.405-.349-1.41-.349-1.41s-.243 1.095-.425 1.41c-.166.315-.242 1.606-.242 1.606s-1.016-.87-.728-2.326c.197-1.125-.182-2.611.167-3.091.333-.495 1.137-2.461 3.123-2.536 1.971-.075 3.502.075 4.2.045.682-.045 3.123-.495 3.123-.495s-4.503-2.28-5.519-2.971c-1.031-.675-2.623-2.445-3.138-3.241-.516-.81-.986-2.37-.986-2.37s-.803.03-1.546.435c-.728.405-1.456 1.005-1.88 1.485-.425.48-1.107 1.576-1.107 1.576s.121-1.411.121-1.846c0-.435-.091-1.29-.091-1.29s-.5 1.92-1.531 2.641c-1.031.735-2.229 1.725-2.229 1.725s.121-1.065.121-1.32c0-.24.258-1.486.258-1.486s-.728 1.081-1.835 1.291c-1.122.195-2.744.165-2.88.84-.122.675.303 1.605.045 2.085-.258.481-.819.811-.819.811s-.636-.525-1.197-.57c-.546-.045-1.077.24-1.077.24s-.47-.601-.288-1.006c.167-.39 1.016-.99.819-1.245-.228-.24-.91.09-1.334.285-.425.21-1.335.405-1.244-.285.076-.675.304-1.08.076-1.561-.212-.48-.076-.795.273-.915.334-.12 1.698.03 1.835-.285.121-.315-.334-.72-1.244-.915-.894-.21-1.334-.735-.864-1.171.485-.45.607-.57.819-.96.212-.405.303-1.14 1.122-.765.803.36.637 1.245 1.501 1.515.849.285 2.865-.12 3.29-.36.425-.24 1.804-1.245 2.274-1.485.47-.225 2.441-1.681 2.441-1.681s-1.152-.795-1.592-1.2c-.424-.405-1.182-1.365-1.577-1.576-.379-.195-2.274-.915-2.911-.96-.636-.03-2.607-.72-2.607-.72s.894-.285 1.197-.525c.288-.24.971-.84 1.319-.795.334.03.425.03.425.03s-1.835-.075-2.229-.195c-.379-.121-1.501-.811-1.925-.811-.425 0-1.274.165-1.274.165s1.152-.72 2.092-.885c.94-.15 1.668-.12 1.668-.12s-1.455-.405-1.804-.87c-.334-.495-.682-1.201-.94-1.531-.258-.315-.425-.84-.895-.885-.47-.045-1.288.57-1.758.525-.471-.045-.819-.33-.865-1.005-.03-.69 0-.45-.151-.81-.182-.36-.865-1.201-.228-1.396.652-.21 2.017.12 2.153-.12.122-.24-.727-.975-1.289-1.245-.561-.285-1.455-.765-.985-1.171.47-.39.94-.555 1.198-.915s.561-1.365 1.122-1.05c.546.315 1.319 1.89 1.758 1.77.425-.12.455-1.245.38-1.725-.091-.48 0-1.32.424-1.245.425.075.773.645 1.456.69.682.03 1.713-.165 1.622.315-.076.48-.47 1.065-.94 1.59-.455.541-.682 1.576-.379 2.251.303.69 1.076 1.785 1.759 2.221.682.435 1.971.765 2.789 1.275.804.525 2.699 2.011 3.336 2.176.637.165 1.289.48 1.289.48s.728-.315 1.713-.315c.986 0 3.245.15 4.109-.21.864-.36 1.971-.961 1.638-1.726-.349-.765-2.229-1.44-2.062-2.04.166-.601.864-.646 2.016-.691 1.152-.03 2.729.21 3.032-1.41.304-1.591.395-2.521-1.228-2.881-1.637-.36-2.835-.405-3.138-1.56-.304-1.171-.592-1.456-.258-1.771.349-.315.94-.48 2.138-.555 1.213-.09 2.577-.09 2.972-.375.379-.27.454-1.036.924-1.366.471-.315 2.32-.6 2.32-.6s2.214 1.066 4.246 2.566c1.834 1.35 3.487 3.346 3.487 3.346"/><path fill="none" stroke="#000" stroke-miterlimit="8" stroke-width="0.589186" d="M407.579 368.5s-1.155.359-1.587 1.047c-.534.828-.491 1.672-.491 1.672s.981-.875 2.251-.516c1.256.375 1.385.516 1.919.469.534-.047 1.833-.547 1.833-.547s-1.068 1.344-.938 2.266c.115.906.274 1.328.245 1.797-.086 1.125-.866 2.515-.866 2.515s.448-.297 1.516-.547a6.429 6.429 0 0 0 2.525-1.265c.563-.453 1.299-1.594 1.299-1.594s-.231 1.562 0 2.219c.245.687.332 2.609.332 2.609s.678-.656 1.226-.969c.274-.172 1.01-.593 1.299-1.093.202-.344.462-1.657.462-1.657s.159 1.407.563 2.094c.404.656 1.01 2.719 1.01 2.719s.418-1.344.866-1.891c.447-.547.981-1.25 1.01-1.672.043-.422-.116-1.328-.116-1.328l.563 1.328m-16.465.953s.692-1.296 1.342-1.718c.664-.407 1.558-1.157 1.804-1.25.231-.078 1.298-.719 1.298-.719m1.429 8.078s1.573-.859 2.035-1.172c.981-.625 1.674-1.75 1.674-1.75"/><path fill="none" stroke="#000" stroke-miterlimit="8" stroke-width="0.392756" d="M427.5 364.5s-.523-.849-.646-1.15a10.21 10.21 0 0 1-.354-.85"/><path fill="none" stroke="#000" stroke-miterlimit="8" stroke-width="0.589186" d="M421.5 389.5s3.089 1.869 2.998 3.426c-.091 1.542-1.711 3.574-1.711 3.574"/><path fill-rule="evenodd" stroke="#000" stroke-miterlimit="8" stroke-width="0.392756" d="M413.252 357.5s-.399-.527-.47-.681c-.07-.143-.282-.319-.282-.319s2.069 0 1.998.297c-.047.296-.658.296-.799.406-.118.121-.447.297-.447.297Z"/><path fill-rule="evenodd" stroke="#000" stroke-miterlimit="8" stroke-width="0.0754856" d="m419.588 355.15-.088-.65s1.132 0 1.661.393c.838.604 1.367 1.54 1.338 1.585-.147.136-.794-.407-1.25-.558 0 0-.338.075-.661.075-.338 0-.5-.166-.544-.317-.044-.181.044-.453.044-.453l-.5-.075Z"/><path fill-rule="evenodd" stroke="#000" stroke-miterlimit="8" stroke-width="0.392756" d="m413.5 363.5.493-1 .507.925-1 .075M414.5 363.5l.482-1 .518.906-1 .094M414.5 358.5l1 .433-.902.567-.098-1M415.5 358.5l1 .281-.808.719-.192-1"/><path fill="#DB4446" fill-rule="evenodd" stroke="#000" stroke-miterlimit="8" stroke-width="0.589186" d="M396.5 357.744s.802.571 1.42.672c.617.084 1.269.084 1.369.084.084 0 .284-.907.184-1.529-.334-2.017-2.171-2.471-2.171-2.471s.551 1.227.284 1.798c-.385.807-1.086 1.446-1.086 1.446ZM392.5 358.626s-.608-1.277-1.88-1.111c-1.272.182-2.12 1.343-2.12 1.343s1.414-.049 1.767.216c.523.398.678 1.426.678 1.426s.764-.531 1.004-.895c.226-.349.551-.979.551-.979ZM391.441 363.5s-1.457.166-2.252.889c-.813.739-.681 2.111-.681 2.111s.946-.814 1.798-.814c.87 0 2.194.241 2.194.241s-.416-.844-.416-1.206-.643-1.221-.643-1.221ZM395.5 379.004s-.706-.66-1.95-.469c-1.243.205-2.05 1.422-2.05 1.422s1.059-.249 1.681-.117c.605.117 1.042.66 1.042.66s.571-.425.756-.66c.185-.235.521-.836.521-.836ZM394.203 383.513s-.974-.126-1.823.415c-.833.541-.88 1.572-.88 1.572s.802-.541 1.43-.465c.613.063 1.367.339 1.367.339s.126-.641.173-.805c.142-.478-.267-1.056-.267-1.056ZM396.503 387.593s-.066 1.228.434 1.99c.525.793 1.484.917 1.484.917s-.315-.824-.368-1.243c-.078-.622.447-1.166.447-1.166s-.486-.591-.959-.591c-.486 0-1.038.093-1.038.093ZM407.5 398.285s-.767-.81-1.819-.784c-1.068.038-2.181.873-2.181.873s1.323-.089 1.669.278c.346.38.677.848.677.848s.601-.266.857-.443c.256-.164.797-.772.797-.772ZM404.026 402.532s-1.298-.243-1.939.608c-.628.833-.586 2.36-.586 2.36s.781-1.059 1.492-.972c.712.087 1.507.555 1.507.555s-.126-.919-.209-1.353a21.573 21.573 0 0 0-.265-1.198ZM406.932 406.5s-.81 1.011-.212 1.816c.599.805 1.848 1.184 1.848 1.184s-.458-.584-.247-1.263c.159-.537 1.179-1.263 1.179-1.263l-2.568-.474ZM425.284 408.627s-1.079-.371-1.692.156c-.599.509-1.092 2.717-1.092 2.717s.986-1.212 1.705-1.055a3.355 3.355 0 0 1 1.239.586s.106-.899.026-1.524c-.04-.372-.186-.88-.186-.88ZM426.189 413.5s-.955.842-.616 1.553c.354.71.955 1.447.955 1.447s-.031-1.053.354-1.342c.57-.421 1.618-.487 1.618-.487s-.832-.631-1.094-.71c-.262-.066-1.217-.461-1.217-.461ZM430.644 414.945s-.549 1.078.497 1.768c1.047.718 1.969.787 1.969.787s-.816-1.118-.568-1.698c.266-.622.958-.995.958-.995s-1.312-.345-1.508-.303c-.195.027-1.348.441-1.348.441Z"/><path fill="#C8B100" fill-rule="evenodd" stroke="#000" stroke-miterlimit="8" stroke-width="0.392756" d="m428.504 352.28-.431.032a2.41 2.41 0 0 1-.387.565c-.387.404-.967.453-1.279.114a.829.829 0 0 1-.208-.663c-.253.146-.52.146-.758-.016-.387-.242-.476-.808-.209-1.276.045-.097.09-.226.164-.291l-.03-.517-.52.13-.149.307c-.327.403-.803.5-1.041.274-.119-.113-.208-.42-.193-.436a.557.557 0 0 1-.253.178c-.803.21-1.115-1.696-1.145-2.181l-.253.404s.238 1.131.119 2.1c-.119.953-.431 1.922-.431 1.922 1.1.307 2.766 1.292 4.416 2.665 1.651 1.373 2.945 2.875 3.48 3.909 0 0 .863-.517 1.755-.824.892-.307 2.022-.323 2.022-.323l.327-.339c-.476.081-2.349.162-2.32-.694 0-.13.105-.291.119-.291-.014.016-.312-.016-.446-.097-.267-.21-.267-.695.03-1.115l.268-.21.015-.549-.506.081c-.045.064-.164.145-.223.21-.402.371-.967.404-1.279.048a.711.711 0 0 1-.163-.743c-.238.065-.476.049-.67-.08-.386-.243-.461-.84-.163-1.293.134-.226.416-.5.461-.517l-.104-.484h-.015Z"/><path fill-rule="evenodd" stroke="#000" stroke-miterlimit="8" stroke-width="0.0754856" d="M424.574 353.661c.149-.231.448-.198.687 0 .239.199.299.529.179.694-.149.199-.448.199-.717-.033-.209-.165-.298-.495-.149-.661ZM425.922 354.103l-.36-.343c-.066-.054-.077-.164-.044-.219.044-.055.131-.055.197 0l.36.356.361.343c.055.055.088.164.044.219-.044.055-.131.055-.197 0l-.361-.356M423.939 353.176l-.334-.278c-.09-.074-.129-.222-.09-.315.039-.093.141-.111.218-.037l.335.296.334.279c.077.055.116.204.09.296-.038.093-.141.112-.218.037l-.335-.278M421.559 351.649c.149-.199.475-.199.712 0 .237.233.297.532.148.731-.148.166-.444.166-.682-.033-.237-.2-.296-.498-.178-.698ZM428.419 356.35c.148-.166.089-.467-.148-.7-.237-.2-.563-.2-.712 0-.118.167-.059.5.178.7.238.2.534.2.682 0ZM428.871 357.1l.323.322c.073.076.19.107.264.046.058-.062.058-.169-.015-.246l-.308-.322-.323-.321c-.073-.077-.205-.108-.264-.046-.073.046-.058.168.015.245l.308.322M430.419 358.365c.149-.197.089-.492-.15-.689-.239-.229-.538-.229-.688-.032-.149.196-.089.491.15.721.239.164.538.197.688 0Z"/><path fill="#C8B100" fill-rule="evenodd" stroke="#000" stroke-miterlimit="8" stroke-width="0.392756" d="m425.943 348.5-1.216.02-.227 1.706.124.274.309-.019 1.567-1.001-.557-.98"/><path fill="#C8B100" fill-rule="evenodd" stroke="#000" stroke-miterlimit="8" stroke-width="0.392756" d="m425.943 348.5-1.216.02-.227 1.706.124.274.309-.019 1.567-1.001-.557-.98"/><path fill="#C8B100" fill-rule="evenodd" stroke="#000" stroke-miterlimit="8" stroke-width="0.392756" d="m423.537 349.79-.037.581 1.72.129.28-.075-.037-.161-.991-.764-.935.29M426.444 351.207l-.916.293-1.009-.772-.019-.163.262-.065 1.738.12-.056.587"/><path fill="#C8B100" fill-rule="evenodd" stroke="#000" stroke-miterlimit="8" stroke-width="0.392756" d="M424.571 349.742a.489.489 0 0 1 .683-.166c.245.129.315.443.175.682a.489.489 0 0 1-.683.166.492.492 0 0 1-.175-.682ZM421.13 348.5c-.019.016-.126-.754-.252-1.165-.077-.311-.378-.705-.378-.705.029-.082.407-.311.844.148.368.508-.03 1.427-.03 1.427s-.087.229-.184.295ZM422.5 349.089l-.382.411-.618-.667.055-.088.027-.167.836-.078.082.589"/><path fill="#C8B100" fill-rule="evenodd" stroke="#000" stroke-miterlimit="8" stroke-width="0.392756" d="M421.565 348.88c.116-.276.419-.424.652-.368.257.073.35.331.234.608a.62.62 0 0 1-.676.369c-.257-.074-.35-.332-.21-.609ZM429.316 350.62l-.573-.12-.243 1.7.049.28.145.02.806-.82-.184-1.06M426.689 350.913l-.189 1.113 1.698.474.283-.082.019-.289-.811-1.629-1 .413M429.405 353.292l-.505.208-.4-.812.01-.157.142-.031.848.24-.095.552"/><path fill="#C8B100" fill-rule="evenodd" stroke="#000" stroke-miterlimit="8" stroke-width="0.392756" d="M427.611 351.685a.488.488 0 0 1 .693-.074c.225.167.26.482.086.704-.173.222-.485.241-.71.074a.506.506 0 0 1-.069-.704ZM432.289 353.642l.211.555-1.673.303-.308-.04-.019-.142.692-.818 1.097.142M432.173 356.24l-1.077.26-.596-1.66.077-.3.289-.04 1.634.7-.327 1.04"/><path fill="#C8B100" fill-rule="evenodd" stroke="#000" stroke-miterlimit="8" stroke-width="0.392756" d="m429.846 353.763-.346 1.05 1.635.687.307-.04.058-.283-.577-1.677-1.077.263"/><path fill="#C8B100" fill-rule="evenodd" stroke="#000" stroke-miterlimit="8" stroke-width="0.392756" d="M431.338 355.373a.517.517 0 0 0 .035-.716.537.537 0 0 0-.719-.037.515.515 0 0 0-.018.716.499.499 0 0 0 .702.037ZM433.5 358.089c0 .011.739.034 1.168.103.295.045.768.308.768.308.089-.046.177-.48-.414-.903-.576-.32-1.3.252-1.3.252s-.178.137-.222.24ZM432.796 356.56l-.296.92.776 1.02.091-.16.133-.08-.122-1.76-.582.06"/><path fill="#C8B100" fill-rule="evenodd" stroke="#000" stroke-miterlimit="8" stroke-width="0.392756" d="M433.185 358.376c.257-.159.386-.501.276-.707-.111-.205-.404-.228-.661-.045-.257.182-.368.502-.257.707.091.205.385.228.642.045Z"/><path fill="#AD1519" fill-rule="evenodd" stroke="#000" stroke-miterlimit="8" stroke-width="0.92147" d="M403.5 425c0 15.188-10.969 27.5-24.5 27.5s-24.5-12.312-24.5-27.5 10.969-27.5 24.5-27.5 24.5 12.312 24.5 27.5Z"/><path fill="#005BBF" fill-rule="evenodd" stroke="#000" stroke-miterlimit="8" stroke-width="0.92147" d="M396.5 425c0 11.322-7.835 20.5-17.5 20.5s-17.5-9.178-17.5-20.5 7.835-20.5 17.5-20.5 17.5 9.178 17.5 20.5Z"/><path fill="#C8B100" fill-rule="evenodd" stroke="#000" stroke-linejoin="round" stroke-miterlimit="10" stroke-width="0.513596" d="M370.978 411.5s-2.004 2.194-2.004 4.239c0 2.06.846 3.765.846 3.765-.312-.816-1.128-1.394-2.093-1.394-1.232 0-2.227.934-2.227 2.105 0 .326.208.86.356 1.141l.728 1.468c.237-.549.801-.845 1.455-.845.875 0 1.603.667 1.603 1.497 0 .133-.015.252-.06.37l-1.811.015v1.527h1.618l-1.202 2.386 1.588-.623 1.203 1.349 1.247-1.349 1.588.623-1.187-2.386h1.603v-1.527l-1.811-.015c-.03-.118-.03-.237-.03-.37 0-.83.698-1.497 1.574-1.497.653 0 1.217.296 1.454.845l.728-1.468c.148-.281.356-.815.356-1.141 0-1.171-.994-2.105-2.212-2.105-.979 0-1.796.578-2.093 1.394 0 0 .846-1.705.846-3.765 0-2.045-2.063-4.239-2.063-4.239Z"/><path fill="#C8B100" fill-rule="evenodd" stroke="#000" stroke-miterlimit="8" stroke-width="0.513596" d="M367.5 425.5h7v-2h-7v2Z"/><path fill="#C8B100" fill-rule="evenodd" stroke="#000" stroke-linejoin="round" stroke-miterlimit="10" stroke-width="0.513596" d="M386.979 411.5s-2.004 2.194-2.004 4.239c0 2.06.846 3.765.846 3.765-.312-.816-1.128-1.394-2.093-1.394-1.232 0-2.227.934-2.227 2.105 0 .326.208.86.356 1.141l.728 1.468c.237-.549.801-.845 1.455-.845.876 0 1.603.667 1.603 1.497 0 .133-.015.252-.059.37l-1.812.015v1.527h1.619l-1.203 2.386 1.589-.623 1.202 1.349 1.247-1.349 1.588.623-1.187-2.386h1.603v-1.527l-1.811-.015c-.03-.118-.03-.237-.03-.37 0-.83.698-1.497 1.574-1.497.653 0 1.217.296 1.455.845l.727-1.468c.148-.281.356-.815.356-1.141 0-1.171-.994-2.105-2.212-2.105-.979 0-1.796.578-2.093 1.394 0 0 .846-1.705.846-3.765 0-2.045-2.063-4.239-2.063-4.239Z"/><path fill="#C8B100" fill-rule="evenodd" stroke="#000" stroke-miterlimit="8" stroke-width="0.513596" d="M383.501 425.5h7v-2h-7v2Z"/><path fill="#C8B100" fill-rule="evenodd" stroke="#000" stroke-linejoin="round" stroke-miterlimit="10" stroke-width="0.513596" d="M378.978 425.501s-2.004 2.194-2.004 4.239c0 2.06.846 3.765.846 3.765-.311-.816-1.128-1.394-2.093-1.394-1.232 0-2.226.934-2.226 2.105 0 .326.207.86.356 1.141l.727 1.467c.238-.548.802-.844 1.455-.844.876 0 1.603.667 1.603 1.497 0 .133-.015.252-.059.37l-1.811.015v1.527h1.618l-1.202 2.386 1.588-.623 1.202 1.349 1.247-1.349 1.589.623-1.188-2.386h1.603v-1.527l-1.811-.015c-.029-.118-.029-.237-.029-.37 0-.83.697-1.497 1.573-1.497.653 0 1.217.296 1.455.844l.727-1.467c.149-.281.357-.815.357-1.141 0-1.171-.995-2.105-2.212-2.105-.98 0-1.796.578-2.093 1.394 0 0 .846-1.705.846-3.765 0-2.045-2.064-4.239-2.064-4.239Z"/><path fill="#C8B100" fill-rule="evenodd" stroke="#000" stroke-miterlimit="8" stroke-width="0.513596" d="M375.501 439.501h7v-2h-7v2Z"/></g></svg>