<svg xmlns="http://www.w3.org/2000/svg" width="1136" height="758" overflow="hidden"><defs><clipPath id="a"><path d="M-1-1h1136v758H-1z"/></clipPath></defs><g fill-rule="evenodd" clip-path="url(#a)" transform="translate(1 1)"><path fill="#FFF" d="M-.004-.002H1134v756H-.004Z"/><path fill="red" d="M490.999-.003H643v756H490.999ZM218.323 75.999a427.22 427.22 0 0 1 6.153 54.478 427.229 427.229 0 0 1-54.478-6.153c1.054 8.921 1.666 17.973 1.666 27.175 0 9.202-.612 18.254-1.666 27.175a427.229 427.229 0 0 1 54.478-6.153 427.229 427.229 0 0 1-6.153 54.478c8.921-1.054 17.973-1.666 27.175-1.666 9.203 0 18.255.612 27.175 1.666a427.229 427.229 0 0 1-6.153-54.478 427.208 427.208 0 0 1 54.478 6.153c-1.054-8.921-1.666-17.973-1.666-27.175 0-9.202.612-18.254 1.666-27.175a427.208 427.208 0 0 1-54.478 6.153 427.22 427.22 0 0 1 6.153-54.478c-8.92 1.054-17.972 1.666-27.175 1.666-9.202 0-18.254-.612-27.175-1.666Z"/><path fill="red" d="M-.004 302H1134v151H-.004ZM861.323 75.999a427.22 427.22 0 0 1 6.153 54.478 427.229 427.229 0 0 1-54.478-6.153c1.054 8.921 1.666 17.973 1.666 27.175 0 9.202-.612 18.254-1.666 27.175a427.229 427.229 0 0 1 54.478-6.153 427.229 427.229 0 0 1-6.153 54.478c8.921-1.054 17.973-1.666 27.175-1.666 9.203 0 18.255.612 27.175 1.666a427.229 427.229 0 0 1-6.153-54.478 427.208 427.208 0 0 1 54.478 6.153c-1.054-8.921-1.666-17.973-1.666-27.175 0-9.202.612-18.254 1.666-27.175a427.208 427.208 0 0 1-54.478 6.153 427.22 427.22 0 0 1 6.153-54.478c-8.92 1.054-17.972 1.666-27.175 1.666-9.202 0-18.254-.612-27.175-1.666ZM218.323 528.999a427.208 427.208 0 0 1 6.153 54.478 427.229 427.229 0 0 1-54.478-6.153c1.054 8.921 1.666 17.973 1.666 27.175 0 9.202-.612 18.254-1.666 27.175a427.229 427.229 0 0 1 54.478-6.153 427.229 427.229 0 0 1-6.153 54.478c8.921-1.054 17.973-1.666 27.175-1.666 9.203 0 18.255.612 27.175 1.666a427.229 427.229 0 0 1-6.153-54.478 427.208 427.208 0 0 1 54.478 6.153c-1.054-8.921-1.666-17.973-1.666-27.175 0-9.202.612-18.254 1.666-27.175a427.208 427.208 0 0 1-54.478 6.153 427.208 427.208 0 0 1 6.153-54.478c-8.92 1.054-17.972 1.666-27.175 1.666-9.202 0-18.254-.612-27.175-1.666ZM860.323 528.999a427.208 427.208 0 0 1 6.153 54.478 427.229 427.229 0 0 1-54.478-6.153c1.054 8.921 1.666 17.973 1.666 27.175 0 9.202-.612 18.254-1.666 27.175a427.229 427.229 0 0 1 54.478-6.153 427.229 427.229 0 0 1-6.153 54.478c8.921-1.054 17.973-1.666 27.175-1.666 9.203 0 18.255.612 27.175 1.666a427.229 427.229 0 0 1-6.153-54.478 427.208 427.208 0 0 1 54.478 6.153c-1.054-8.921-1.666-17.973-1.666-27.175 0-9.202.612-18.254 1.666-27.175a427.208 427.208 0 0 1-54.478 6.153 427.208 427.208 0 0 1 6.153-54.478c-8.92 1.054-17.972 1.666-27.175 1.666-9.202 0-18.254-.612-27.175-1.666Z"/></g></svg>