<svg xmlns="http://www.w3.org/2000/svg" width="1136" height="568" overflow="hidden"><defs><clipPath id="a"><path d="M-1 94h1136v568H-1z"/></clipPath></defs><g clip-path="url(#a)" transform="translate(1 -94)"><path fill="#DA000C" fill-rule="evenodd" d="M0 94h1134v567H0Z"/><path fill="#FFF" fill-rule="evenodd" d="M0 94h1134v380H0Z"/><path fill-rule="evenodd" d="M435 352h142v97H435Z"/><path fill="#DA000C" fill-rule="evenodd" stroke="#000" stroke-linecap="square" stroke-miterlimit="8" stroke-width="2.21291" d="M509 435h-86.767L403 447.624V461h106M472.76 379.089c12.568 0 22.832 10.384 22.832 23.181V435H512V311h-90v124h27.929v-32.73c0-12.297 10.087-23.181 22.831-23.181Z"/><path fill-rule="evenodd" d="M453 227h41v75h-41Z"/><path fill="#DA000C" fill-rule="evenodd" stroke="#000" stroke-linecap="square" stroke-miterlimit="8" stroke-width="2.21291" d="M494 290.703h-36.003V278h-26.399v12.703H413.69V278H403v23.059h91m-80.31-.084h77.676V311H413.69ZM444 200v78h13.534v-21.417c0-8.024 5.711-14.59 13.7-14.992.258-.013.505 0 .766 0 8.35 0 15.114 6.709 15.114 14.992V278H500v-78ZM440 189v11h64v-11ZM431 169v20h78v-20h-12.016v10.171h-14.517V169h-22.156v10.171h-14.517V169Z"/><path fill="none" stroke="#000" stroke-linecap="square" stroke-miterlimit="8" stroke-width="2.21291" d="M403 448h106"/><path fill="#DA000C" fill-rule="evenodd" stroke="#000" stroke-linecap="square" stroke-miterlimit="8" stroke-width="2.21291" d="M578 442h-72.222L484 452.441V468h94"/><path fill="none" stroke="#000" stroke-miterlimit="8" stroke-width="2.21291" d="M484 452h96"/><path fill-rule="evenodd" d="M698.994 352h-142v97h142Z"/><path fill="#DA000C" fill-rule="evenodd" stroke="#000" stroke-linecap="square" stroke-miterlimit="8" stroke-width="2.21291" d="M624.989 435h86.767l19.233 12.624V461h-106M660.794 379.09c-12.428 0-22.578 10.383-22.578 23.18V435H621.99V311h89v124h-27.618v-32.73c0-12.297-9.975-23.18-22.578-23.18Z"/><path fill-rule="evenodd" d="M680.991 227h-41v75h41Z"/><path fill="#DA000C" fill-rule="evenodd" stroke="#000" stroke-linecap="square" stroke-miterlimit="8" stroke-width="2.21291" d="M639.989 290.703h36.003V278h26.399v12.703h17.908V278h10.69v23.059h-91m80.31-.084h-77.676V311h77.676ZM688.991 200v78h-13.293v-21.417c0-8.024-5.608-14.59-13.454-14.992-.254-.013-.497 0-.753 0-8.2 0-14.844 6.71-14.844 14.992V278H633.99v-78ZM693.99 189v11h-65v-11ZM701.991 169v20h-77v-20h11.862v10.17h14.33V169h21.873v10.17h14.33V169Z"/><path fill="none" stroke="#000" stroke-linecap="square" stroke-miterlimit="8" stroke-width="2.21291" d="M730.99 448H623.988"/><path fill="#DA000C" fill-rule="evenodd" stroke="#000" stroke-linecap="square" stroke-miterlimit="8" stroke-width="2.21291" d="M555.997 442h71.453l21.547 10.442V468h-93"/><path fill="none" stroke="#000" stroke-miterlimit="8" stroke-width="2.21291" d="M648.997 452h-95"/><path fill="#F8D80E" fill-rule="evenodd" stroke="#000" stroke-linecap="round" stroke-miterlimit="8" stroke-width="1.69953" d="M604.814 427c-5.803 1.956-11.048 5.246-16.329 8.31-6.778 4.055-13.351 8.474-19.468 13.504-2.152 1.437-4.218 3.013-5.879 5.034-2.242 1.943-4.514 4.55-4.086 7.778.114 1.425 1.91-1.672 3.092-1.822 2.06-1.198 4.556-1.584 6.869-1.043 2.78-2.964 6.362-4.951 9.456-7.542 6.569-4.965 13.635-9.229 20.824-13.199 2.51-1.303 5.031-2.625 7.707-3.547L604.814 427Z"/><path fill="none" stroke="#000" stroke-linecap="round" stroke-miterlimit="8" stroke-width="2.21291" d="M577 443v9M582 439v9M587 436v8M593 433v8"/><path fill="#F8D80E" fill-rule="evenodd" stroke="#000" stroke-linecap="round" stroke-miterlimit="8" stroke-width="1.69953" d="M528.647 427 526 434.298c12.344 4.628 24.098 10.749 35.221 17.759 3.769 2.535 7.73 4.993 10.692 8.474.652 1.786-1.146 3.28-2.93 2.74-1.632-.548-3.24-1.171-4.963-.008-2.467 1.108-4.695 4.718-.949 5.929 5.161 3.426 13.558 1.937 16.039-4.066 1.297-3.087 1.38-7.04-1.131-9.572-4.599-5.208-10.695-8.83-16.546-12.496-10.454-6.214-21.342-11.84-32.785-16.057Z"/><path fill="#F8D80E" fill-rule="evenodd" stroke="#000" stroke-linecap="round" stroke-miterlimit="8" stroke-width="2.21291" d="m563 444-1 8M569 448l-2 7M575 453l-4 6M577 467l-5-3M579 461l-6 1M571 470l-1-5M568 464l-5 4"/><path fill="none" stroke="#000" stroke-linecap="round" stroke-miterlimit="8" stroke-width="2.21291" d="M542 433v7M556 440v8M549 437v7"/><path fill="#F8D80E" fill-rule="evenodd" stroke="#000" stroke-miterlimit="8" stroke-width="2.21291" d="M522 598v18.057h11.063v-9.064h15.049v9.064H560V598Zm0 24.873V641h38v-18.127h-11.888v9.063h-15.049v-9.063ZM560 523h11v129h-11Z"/><path fill="#F8D80E" fill-rule="evenodd" stroke="#000" stroke-miterlimit="8" stroke-width="2.21291" d="M560 534h11v111h-11Z"/><path fill="#F8D80E" fill-rule="evenodd" stroke="#000" stroke-miterlimit="8" stroke-width="2.26604" d="m566 491.611 23.75 13.889L566 519.319 542.25 505.5Zm-31.783 8.908H528v9.962h6.217L566 529l31.783-18.519H604v-9.962h-6.217L566 482Z"/><path fill="#F8D80E" fill-rule="evenodd" stroke="#000" stroke-miterlimit="8" stroke-width="2.26604" d="M565.423 458.021c-5.558.76-9.711 6.12-9.407 11.509.02 8.38-.043 16.761.032 25.139.295 5.399 5.13 10.237 10.742 10.286 4.561.422 9.144-2.179 11.057-6.231l-3.95-2.312c-1.02 2.654-3.96 4.299-6.822 3.993-3.757.104-6.8-3.461-6.463-7.026.023-8.325-.044-16.652.033-24.976.207-3.396 3.528-6.176 7.005-5.829 1.439-.403 3.418 1.518 4.308-.139 1.341-1.86-.953-3.312-2.226-4.344-1.41-.188-2.883-.018-4.309-.07Zm13.286 8.757c-.911 1.672-2.795 2.666-4.309 3.543v16.843l4.596 2.593c-.018-7.183.035-14.366-.027-21.548-.072-.442-.018-1.117-.26-1.431Z"/><path fill-rule="evenodd" d="M533 179h65v118h-65Z"/><path fill="#DA000C" fill-rule="evenodd" stroke="#000" stroke-miterlimit="8" stroke-width="2.21291" d="M529 179v99h20.514v-29.367c0-6.773 4.302-16.176 17.486-16.176 13.184 0 17.486 9.403 17.486 16.176V278H605v-99Zm34.833 11.108h6.334v33.879h-6.334Zm-18.174 6.665h6.403v24.784h-6.403Zm36.279 0h6.403v24.784h-6.403ZM522 165v14h90v-14ZM513 149v16h108v-16h-13.57v8.814h-15.309V149h-17.466v8.814h-15.31V149h-17.466v8.814H526.57V149ZM493 311v10h148v-10ZM487 278v33h160v-33h-15.152v12.703h-20.156V278h-27.038v12.703h-35.308V278h-27.038v12.703h-20.156V278Z"/><path fill="#DA000C" fill-rule="evenodd" stroke="#000" stroke-linejoin="round" stroke-miterlimit="10" stroke-width="2.21291" d="M506 321v121h28.45v-45.297c0-21.336 14.169-31.38 32.05-31.38 17.187 0 32.05 10.044 32.05 31.38V442H627V321Z"/></g></svg>