<svg xmlns="http://www.w3.org/2000/svg" width="1136" height="568" overflow="hidden"><defs><clipPath id="a"><path d="M-1 94h1136v568H-1z"/></clipPath></defs><g clip-path="url(#a)" transform="translate(1 -94)"><path fill="#CF142B" fill-rule="evenodd" d="M0 94h1134v567H0Z"/><path fill="#F9DD16" fill-rule="evenodd" stroke="#000" stroke-miterlimit="8" stroke-width="1.88829" d="M420.967 303.576c.412.43 5.357 3.471 5.443 3.303.086-.168 12.944-3.187 12.858-3.019-.086.168-7.204 8.782-6.873 8.956.329.175 7.438 8.839 7.604 8.927.164.086-13.462-1.141-13.462-1.141L417.524 328l-2.019-9.602s-11.337-4.072-11.503-4.159c-.164-.087 9.703-3.407 9.703-3.407l2.946-7.832s3.816.737 4.316.576Z"/><path fill="#FFF" fill-rule="evenodd" stroke="#000" stroke-miterlimit="8" stroke-width="2.4548" d="M588 322.035c.027-7.981-15.76-44.089-18.359-49.641-4.836-6.025-9.952-15.565-12.151-23.805-1.425-8.318-5.894-14.841-12.194-17.053-7.27-3.842-14.371-2.336-21.205-1.744-3.351.708-6.218 2.51-7.837 5.165-3.69 5.254-5.697 4.854-8.249 7.119-21.014 3.259-40.885 14.053-56.004 21.41-8.006 5.533-14.801 8.745-17.95 9.422-8.535.03-14.743-3.995-17.708-6.136l-28.998-26.25c-8.379-6.225-10.451 2.761-8.842 4.134 2.797 5.984-3.259 9.627 19.736 31.189l8.71 17.813s-.483 4.871-.079 5.08c4.199 9.956 10.868 7.475 14.016 4.682l6.832-6.195s13.539-4.266 13.75-4.669c14.519 2.151 51.931-4.944 58.1-7.858 5.56-3.099 5.914-.474 10.731-4.379 4.026-2.653 1.812-.542 9.251-7.309 2.29-1.96 4.101 1.215 4.528 3.435.415 21.022 3.002 34.455 4.927 55.417L560.644 348Z"/><path fill="#F9DD16" fill-rule="evenodd" d="M405.988 257.803c.31.256-5.594 18.197-5.594 18.197s-5.44-5.066-5.394-5.149L398.81 252l7.178 5.803Z"/><path fill="none" stroke="#000" stroke-miterlimit="8" stroke-width="2.13386" d="M406 257.308c-.262 1.225-1.376 6.687-1.894 8.18a60.62 60.62 0 0 0-1.11 4.975c-.532 1.809-.763 2.992-1.355 4.852-.188 1.594-.534 3.089-.954 4.685m-3.647-31c.117.234.541 1.879.604 2.939-.2 1.11-.519 5.09-.959 6.435a49.905 49.905 0 0 0-.859 4.509c-.439 1.635-.611 2.708-1.106 4.387-.112 1.451-.383 2.806-.72 4.249"/><path fill="none" stroke="#000" stroke-miterlimit="8" stroke-width="1.88829" d="M489 247c6.792 7.637 8.898 20.05 7.668 27M463.385 291.884l.113-.238c-.353.745-.08.32-.747-1.332-.708-.856-1.205-5.017-.117-7.317.417-1.171 1.116-2.938 1.642-4.049.15-.317.574-.63.724-.948M415 266l-.119.244-.475.975c-.616 1.265-1.446 2.417-2.011 3.533-.595 1.22-1.513 2.26-2.108 3.48-.763 1.141-1.433 2.654-2.223 3.833-.741 1.404-1.564 2.404-2.288 3.89-.627 1.175-1.129 1.717-1.776 3.045l1.776-3.045c-.627 1.175-1.129 1.717-1.776 3.045M390.273 243c.128.224.623 1.779.727 2.774-.164 1.034-.343 4.753-.742 5.999a41.349 41.349 0 0 0-.712 4.196c-.388 1.518-.524 2.518-.967 4.073-.062 1.358-.288 2.618-.579 3.958M420 287.178c-1.645-1.662-2.612-1.054-3.669-1.13-1.171.201-3.301 1.142-5.461 3.229-.788.827-1.452 1.434-2.496 2.326-.469.701-.856.968-1.374 1.397M539.083 230.113l-.083.235c.261-.739.072-.32.308 1.432.311 1.209.349 2.049.692 3.22M514.101 237c-.09.158-.315 17.348.46 19.564.23 1.418.648 2.608.864 4.302.002 1.022.262 1.878.342 2.871.633 1.097.767 2.199 1.415 3.081.317 1.213 1.375 1.262 1.943 2.394.793.785 2.094 2.168 2.875 2.788M503 284c-.547-.177-1.952-1.238-3.152-1.806-1.353-.728-4.689-4.523-4.848-7.194"/><path fill="none" stroke="#000" stroke-miterlimit="8" stroke-width="1.88829" d="M515 259c-.041.079-1.784 1.791-4.636 4.683-3.649 3.37-13.576 9.168-14.77 9.635-1.143.516-2.571 1.76-3.7 1.935-1.298.516-2.59.717-3.819 1.009-1.497.316-2.767.588-3.931.651-3.488 1.515-21.878.925-22.827.72a40.899 40.899 0 0 1-3.206-.167c-.874.209-1.91.122-3.093.19-1.428-.116-2.249.158-3.451.304-.948.498-2.524 1.014-3.591 1.724-1.461.589-2.349 1.393-3.356 1.846-1.05.864-15.358 9.194-16.051 9.566-1.501.66-6.893 2.258-8.243-1.524-.347-1.488-1.034-3.021-1.076-4.16-.433-1.363-.187-2.819-.116-4.091 1.252-6.443 3.326-8.981 3.897-10.079l.613-1.177M556.962 247.083l-.122.233c.331-.628.177-.299-.727.809-.924.734-2.061 1.895-2.899 2.651-.844.825-1.657 1.991-2.417 2.306-.762.983-1.724 1.293-2.767 1.834-1.41.518-2.38.966-3.598 1.703-1.556.813-2.525 1.59-3.968 2.402-.888 1.116-1.792 1.809-2.547 3.124-.748 1.219-1.495 2.264-2.199 3.6L534 269l1.718-3.255L534 269M544.695 336.963l.234-.468c-.432.864-.28.638.125-.821.004-1.749.404-3.866.42-5.408.253-1.634.51-3.399.526-5.053-.095-1.936-.092-3.67-.371-5.537-.021-1.719-.215-3.5-.264-5.184-.03-1.667-.15-3.096-.497-4.715-.033-1.212-.105-2.876-.388-4.361.152-1.17-.169-2.247-.408-3.184-.436-1.804-.605-2.856-1.063-4.726-.275-1.001-.547-2.281-.962-3.781-.15-1.421-.882-3.266-1.18-4.491-.406-.901-.816-2.121-.973-3.193-.426-.989-1.032-2.196-1.197-3.315-.449-.854-.926-2.18-1.422-3.437-.427-1.031-.741-2.303-1.196-3.313-.459-1.277-1.019-2.368-1.305-3.67-.439-.441-.538-.926-.774-1.306"/><path fill="#F9DD16" fill-rule="evenodd" stroke="#000" stroke-miterlimit="8" stroke-width="1.88829" d="M541.763 237.553c-1.63 3.715-5.828 9.141-5.89 9.261l-3.995 7.964c-1.76 4.359-.638 6.104.131 7.363 1.59 2.799 1.87 4.312 3.047 6.442.443 2.661-4.29 3.556-4.353 3.676-9.855 3.409-14.854-6.019-14.907-6.502-1.337-4.948-1.162-5.77 1.859-6.789 3.462-.793 4.853-.832 6.566-2.072 3.244-2.425 5.535-9.751 5.598-9.872.062-.12.486-4.155.486-4.155.253-1.947-.649-3.732.347-6.812 1.296-2.977 2.075-3.791 5.144-4.026 3.999-.361 7.104 2.461 5.967 5.522ZM669.472 249.256c-.575.147-5.676 2.958-5.574 3.116.1.159-3.79 12.876-3.891 12.718-.101-.159-3.899-10.635-4.216-10.433-.315.201-11.327 2.117-11.485 2.218-.157.1 7.761-11.185 7.761-11.185l-1.8-11.529 9.25 2.991s9.204-7.881 9.363-7.982c.157-.1-1.969 10.156-1.969 10.156l5.231 6.448s-2.556 2.966-2.67 3.482Z"/><path fill="#FFF" fill-rule="evenodd" stroke="#000" stroke-miterlimit="8" stroke-width="2.4548" d="M569.72 384.764c6.926 4.03 46.21 8.492 52.336 9.029 7.655-1.16 18.507-.8 26.77 1.433 7.944 2.943 15.849 2.349 20.92-1.993 6.974-4.364 9.212-11.266 12.114-17.478 1.058-3.256.924-6.642-.575-9.375-2.725-5.832-1.374-7.367-2.068-10.714 7.666-19.824 8.211-42.441 9.369-59.22-.809-9.706-.207-17.2.778-20.265 4.238-7.403 10.841-10.755 14.184-12.246l37.314-11.922c9.599-4.127 2.822-10.431.824-9.728-6.601-.583-6.742-7.653-36.98 1.425l-19.841-1.403s-3.993-2.864-4.378-2.618c-10.754-1.364-11.929 5.654-11.074 9.78l1.973 9.023s-3.057 13.86-2.812 14.244c-9.125 11.487-21.651 47.429-22.2 54.232-.083 6.368-2.543 5.357-1.555 11.486.295 4.816-.434 1.84 1.732 11.675.56 2.966-3.105 2.941-5.249 2.196-18.486-10.195-31.458-14.699-50.646-23.555l-29.842 19.283Z"/><path fill="#F9DD16" fill-rule="evenodd" d="M716.532 258.689c-.366.122-13.15-13.624-13.15-13.624s6.928-1.866 6.979-1.787l14.549 12.507-8.378 2.904Z"/><path fill="none" stroke="#000" stroke-miterlimit="8" stroke-width="2.13386" d="M717.031 259.158c-.924-.824-5.075-4.453-6.107-5.623a61.694 61.694 0 0 0-3.735-3.385c-1.296-1.338-2.201-2.116-3.512-3.528-1.276-.946-2.393-1.974-3.56-3.112m28.336 12.321c-.257-.019-1.871-.481-2.81-.953-.856-.716-4.116-2.952-5.06-3.983a50.211 50.211 0 0 0-3.455-2.946c-1.191-1.174-2.03-1.849-3.232-3.091-1.191-.812-2.224-1.708-3.299-2.702"/><path fill="none" stroke="#000" stroke-miterlimit="8" stroke-width="1.88829" d="M683.832 336.658c-9.896 2.094-21.537-2.205-26.854-6.69M658.313 291.72l.143.224c-.447-.7-.231-.233 1.546-.043 1.117-.242 4.95 1.348 6.329 3.508.778.971 1.912 2.501 2.578 3.545.19.297.229.849.42 1.148M704.49 262.551l-.143-.223-.57-.893c-.74-1.159-1.276-2.454-1.918-3.495-.713-1.117-1.11-2.437-1.824-3.555-.56-1.229-1.48-2.555-2.059-3.828-.791-1.336-1.204-2.551-2.073-3.913-.66-1.124-.855-1.833-1.632-3.049l1.632 3.049c-.66-1.124-.855-1.833-1.632-3.049M736.601 252.742c-.251-.008-1.808-.381-2.706-.788-.807-.641-3.903-2.619-4.784-3.552a43.743 43.743 0 0 0-3.257-2.638c-1.119-1.058-1.91-1.66-3.036-2.781-1.131-.719-2.104-1.521-3.115-2.414M684.4 256.618c2.239-.54 2.177-1.653 2.752-2.497.391-1.079.6-3.33-.173-6.182-.339-1.074-.547-1.933-.818-3.253-.384-.744-.429-1.201-.552-1.849M673.551 387.997l-.142-.223c.447.7.224.251-1.466-.324-1.274-.207-2.028-.579-3.294-.726M680.232 363.364c-.095-.149-14.778-8.864-17.037-9.352-1.326-.522-2.54-.783-4.095-1.454-.88-.506-1.735-.725-2.626-1.156-1.232-.044-2.241-.485-3.296-.411-1.188-.353-1.712.459-2.945.346-1.037.236-2.82.578-3.709.887M645.686 329.722c.417-.365 2.017-.999 3.088-1.711 1.285-.758 6.197-1.62 8.604-.407"/><path fill="none" stroke="#000" stroke-miterlimit="8" stroke-width="1.88829" d="M660.284 352.904c-.048-.075-.662-2.437-1.743-6.349-1.099-4.839-1.168-16.317-.977-17.583.124-1.246-.241-3.102.171-4.165.2-1.38.671-2.597 1.031-3.805.474-1.452.872-2.686 1.397-3.723.429-3.772 10.116-19.37 10.767-20.088a40.318 40.318 0 0 1 1.744-2.687c.255-.86.848-1.712 1.379-2.768.813-1.177.985-2.023 1.459-3.135.041-1.068.381-2.688.298-3.965.219-1.558-.034-2.726.076-3.824-.225-1.34-.301-17.871-.278-18.655.178-1.628 1.484-7.087 5.433-6.362 1.462.444 3.134.617 4.141 1.15 1.397.307 2.535 1.249 3.601 1.945 4.956 4.305 6.12 7.366 6.786 8.41l.714 1.117M650.465 395.19a27.79 27.79 0 0 0-.143-.223c.386.604.174.304-.348-1.037-.182-1.167-.634-2.735-.88-3.841-.302-1.146-.92-2.437-.818-3.253-.481-1.154-.275-2.141-.229-3.314.248-1.478.338-2.542.298-3.965.063-1.754-.136-2.983-.129-4.638-.536-1.331-.693-2.462-1.47-3.778-.696-1.262-1.241-2.435-2.06-3.719l-1.999-3.129 1.999 3.129-1.999-3.129M578.231 339.709l.286.447c-.528-.826-.41-.575.651.528 1.524.884 3.162 2.313 4.499 3.105 1.293 1.053 2.699 2.174 4.134 3.023 1.739.888 3.25 1.765 5.025 2.453 1.511.846 3.167 1.568 4.661 2.372 1.471.813 2.781 1.424 4.375 1.924 1.075.581 2.564 1.353 4.009 1.845.941.727 2.049.979 2.992 1.234 1.802.514 2.809.89 4.68 1.417 1.017.254 2.277.653 3.803 1.032 1.319.579 3.312.845 4.537 1.192.999.085 2.278.328 3.295.726 1.086.112 2.457.17 3.52.584.979.023 2.387.259 3.743.442 1.124.132 2.398.488 3.517.584 1.355.228 2.6.269 3.886.665.615-.175 1.09-.021 1.545-.044"/><path fill="#F9DD16" fill-rule="evenodd" stroke="#000" stroke-miterlimit="8" stroke-width="1.88829" d="M665.711 386.556c-2.363-3.209-4.925-9.437-4.996-9.549l-4.821-7.303c-2.848-3.636-4.883-3.541-6.331-3.507-3.161-.026-4.586-.532-6.975-.58-2.482-.931-.925-5.388-.996-5.5 1.927-10.038 12.4-9.647 12.837-9.454 4.866 1.296 5.48 1.848 4.868 4.912-1.022 3.328-1.67 4.527-1.454 6.591.474 3.944 5.587 9.487 5.659 9.6.072.112 3.298 2.455 3.298 2.455 1.534 1.171 3.494 1.282 5.628 3.642 1.899 2.562 2.209 3.623.906 6.343-1.652 3.571-5.575 4.819-7.623 2.35ZM592.057 491.537c.161-.572.276-6.394.089-6.386-.188.008-9.256-9.72-9.068-9.728.187-.008 11.159 1.941 11.143 1.565-.017-.373 3.829-10.868 3.821-11.055-.008-.186 5.806 12.314 5.806 12.314l10.885 4.205-7.216 6.515s2.223 11.912 2.231 12.1c.009.186-7.81-6.783-7.81-6.783l-8.2 1.306s-1.291-3.696-1.681-4.053Z"/><path fill="#FFF" fill-rule="evenodd" stroke="#000" stroke-miterlimit="8" stroke-width="2.4548" d="M524.576 337.4c-6.953 3.983-30.46 35.773-33.988 40.81-2.822 7.21-8.56 16.427-14.625 22.467-6.521 5.408-9.959 12.551-8.735 19.114.293 8.222 5.151 13.611 9.08 19.23 2.291 2.544 5.29 4.121 8.407 4.189 6.413.556 7.067 2.494 10.312 3.567 13.335 16.551 32.65 28.331 46.602 37.724 8.81 4.151 14.999 8.42 17.161 10.805 4.291 7.373 3.893 14.766 3.514 18.408l-8.334 38.275c-1.225 10.377 7.624 7.659 8.013 5.578 3.805-5.425 9.999-2.012 17.257-32.739l11.135-16.48s4.477-2.027 4.456-2.483c6.558-8.631 1.068-13.158-2.932-14.48l-8.801-2.804s-10.475-9.577-10.93-9.557c-5.385-13.646-30.249-42.465-35.866-46.342-5.473-3.255-3.367-4.88-9.17-7.089-4.318-2.153-1.376-1.296-10.977-4.338-2.849-.998-.994-4.159.723-5.643 18.072-10.912 28.459-19.895 45.722-32.083l-1.778-35.486Z"/><path fill="#F9DD16" fill-rule="evenodd" d="M560.362 527.579c.078-.378 18.374-4.576 18.374-4.576s-1.848 6.933-1.942 6.937l-18.106 6.346 1.674-8.707Z"/><path fill="none" stroke="#000" stroke-miterlimit="8" stroke-width="2.13386" d="M559.706 527.777c1.176-.389 6.395-2.169 7.924-2.478a61.728 61.728 0 0 0 4.799-1.542c1.806-.454 2.932-.848 4.811-1.277 1.458-.633 2.906-1.086 4.476-1.528m-24.839 18.38c.144-.213 1.352-1.38 2.231-1.957 1.048-.383 4.614-2.089 5.979-2.391 1.45-.45 2.891-.946 4.279-1.518 1.612-.446 2.615-.834 4.292-1.255 1.299-.625 2.591-1.071 3.99-1.505"/><path fill="none" stroke="#000" stroke-miterlimit="8" stroke-width="1.88829" d="M509.181 460.28c3.135-9.618 12.678-17.549 19.221-19.912M560.859 460.646l-.264.012c.829-.038.317-.084-.736 1.36-.349 1.088-3.643 3.613-6.203 3.727-1.229.188-3.122.405-4.359.46-.352.016-.85-.227-1.204-.211M563.037 515.218l.265-.012 1.058-.047c1.374-.061 2.764.121 3.986.087 1.325-.059 2.666.257 3.99.197 1.346.13 2.954-.004 4.346.131 1.553-.017 2.811.234 4.425.161 1.304-.009 2.015.177 3.456.112l-3.456-.112c1.304-.009 2.015.177 3.456.112M555.479 547.933c.133-.213 1.234-1.375 2.036-1.949.959-.379 4.219-2.071 5.468-2.367a43.627 43.627 0 0 0 3.913-1.503c1.476-.439 2.393-.824 3.926-1.238 1.189-.62 2.37-1.061 3.649-1.49M578.219 500.786c-.652 2.209.344 2.711.787 3.632.739.878 2.584 2.184 5.441 2.941 1.099.244 1.947.493 3.226.918.835.039 1.254.229 1.877.446M469.859 425.712l.264-.012c-.83.037-.33.069 1.013-1.107.817-1 1.516-1.468 2.276-2.49M487.852 443.812c.177-.008 15.065-8.367 16.618-10.08 1.115-.886 1.948-1.807 3.307-2.819.878-.509 1.495-1.14 2.313-1.696.655-1.045 1.541-1.698 2.004-2.648.899-.853.459-1.714 1.173-2.724.314-1.016.909-2.731 1.087-3.656M534.26 430.711c.108.544-.143 2.247-.062 3.53.014 1.492-1.696 6.177-3.949 7.655"/><path fill="none" stroke="#000" stroke-miterlimit="8" stroke-width="1.88829" d="M506.888 431.761c.089-.004 2.441.646 6.37 1.665 4.739 1.468 14.714 7.148 15.715 7.946 1.018.73 2.807 1.342 3.522 2.23 1.094.864 1.914 1.88 2.779 2.796 1.021 1.136 1.89 2.098 2.526 3.071 3.053 2.258 11.718 18.446 12.013 19.368a40.405 40.405 0 0 1 1.455 2.855c.618.65 1.059 1.589 1.708 2.578.613 1.292 1.26 1.864 1.986 2.831.904.57 2.137 1.674 3.285 2.24 1.239.968 2.378 1.334 3.273 1.978 1.273.475 15.627 8.675 16.295 9.087 1.321.968 5.395 4.829 2.793 7.886-1.116 1.045-2.101 2.405-3.067 3.011-.964 1.056-2.348 1.571-3.485 2.146-6.206 2.14-9.439 1.617-10.676 1.673l-1.324.059M475.17 402.12l.265-.012c-.715.032-.35-.001 1.072.217 1.103.426 2.686.819 3.767 1.159 1.144.311 2.57.421 3.226.918 1.24.16 1.992.832 2.984 1.458 1.156.954 2.033 1.563 3.286 2.241 1.487.931 2.651 1.374 4.08 2.207 1.421.201 2.479.63 4.008.616 1.441.028 2.728.143 4.25.075l3.709-.166-3.709.166 3.709-.166M559.334 367.3l-.531.024c.98-.044.703-.067-.782.3-1.528.878-3.584 1.582-4.939 2.344-1.558.594-3.232 1.25-4.684 2.068-1.639 1.062-3.154 1.933-4.637 3.126-1.489.885-2.942 1.958-4.385 2.851-1.439.867-2.623 1.696-3.853 2.827-1.042.64-2.455 1.543-3.603 2.549-1.1.451-1.873 1.284-2.565 1.973-1.346 1.305-2.175 1.988-3.567 3.345-.729.754-1.703 1.645-2.795 2.778-1.161.852-2.388 2.445-3.301 3.332-.573.823-1.423 1.809-2.276 2.492-.64.884-1.376 2.042-2.266 2.755-.51.837-1.418 1.938-2.254 3.021-.676.907-1.621 1.833-2.265 2.754-.874 1.06-1.533 2.118-2.519 3.033-.155.62-.526.954-.734 1.36"/><path fill="#F9DD16" fill-rule="evenodd" stroke="#000" stroke-miterlimit="8" stroke-width="1.88829" d="M475.027 419.64c3.96-.442 10.635.454 10.767.448l8.736-.523c4.572-.649 5.507-2.459 6.202-3.729 1.603-2.725 2.754-3.706 3.99-5.752 2.047-1.684 5.128 1.894 5.261 1.888 7.729 6.688 2.154 15.562 1.769 15.844-3.555 3.566-4.341 3.822-6.688 1.759-2.371-2.548-3.086-3.709-4.981-4.554-3.652-1.561-11.01.095-11.144.101-.132.006-3.775 1.629-3.775 1.629-1.781.742-2.857 2.385-5.967 3.052-3.169.364-4.243.102-5.946-2.386-2.267-3.216-1.386-7.237 1.776-7.777Z"/><path fill="#F9DD16" fill-rule="evenodd" stroke="#000" stroke-miterlimit="8" stroke-width="2.4548" d="M569.353 385c-3.305-1.718-5.828-2.061-7.033-1.229-1.915-10.933-3.6-21.879-6.06-32.779-20.306-8.632-24.597-10.603-31.26-13.56 3.11-2.064 4.662-4.123 4.559-5.604 10.231 3.773 20.359 7.756 30.834 11.031 17.476-13.638 21.293-16.447 27.133-20.859.196 3.782 1.166 6.184 2.474 6.833-8.316 7.159-16.759 14.123-24.774 21.747 2.83 22.271 3.304 27.051 4.127 34.42Z"/></g></svg>