<svg xmlns="http://www.w3.org/2000/svg" width="1136" height="568" overflow="hidden"><defs><clipPath id="a"><path d="M-1 94h1136v568H-1z"/></clipPath><clipPath id="b"><path d="M0 94h567v284H0z"/></clipPath><clipPath id="c"><path d="M0 94h567v284H0z"/></clipPath><clipPath id="d"><path d="M0 94h567v284H0z"/></clipPath><clipPath id="e"><path d="M0 94h568v284H0z"/></clipPath><clipPath id="f"><path d="M283.5 236H567v142Zm0 0v142H0Zm0 0H0V94Zm0 0V94H567Z"/></clipPath></defs><g clip-path="url(#a)" transform="translate(1 -94)"><path fill="#FFF" fill-rule="evenodd" d="M0 94h1134v567H0Z"/><path fill="#012169" fill-rule="evenodd" d="M1134 587.098c-12.71 7.642-23.62 25.5-57.38 25.5-67.49 0-84.372-37.598-134.997-37.598-33.748 0-50.624 37.598-84.372 37.598-67.501 0-84.375-37.598-135.001-37.598-33.749 0-50.625 37.598-84.375 37.598-67.499 0-84.375-37.598-134.999-37.598-33.752 0-50.625 37.598-84.375 37.598-67.5 0-84.376-37.598-135.001-37.598-33.752 0-50.626 37.598-84.375 37.598-67.5 0-84.376-37.598-135-37.598C30.376 575 20.25 601.792 0 601.792v48.402c20.25 0 30.374-26.79 64.126-26.79 50.623 0 67.499 37.596 134.999 37.596 33.749 0 50.623-37.596 84.375-37.596 50.624 0 67.501 37.596 135.001 37.596 33.75 0 50.623-37.596 84.375-37.596 50.624 0 67.5 37.596 134.999 37.596 33.75 0 50.626-37.596 84.375-37.596 50.626 0 67.5 37.596 135.001 37.596 33.748 0 50.624-37.596 84.372-37.596 50.625 0 67.507 37.596 134.997 37.596 33.76 0 44.67-10.655 57.38-18.295ZM1134 493.093c-12.71 7.642-23.62 25.5-57.38 25.5-67.49 0-84.372-37.598-134.997-37.598-33.748 0-50.624 37.598-84.372 37.598-67.501 0-84.375-37.598-135.001-37.598-33.749 0-50.625 37.598-84.375 37.598-67.499 0-84.375-37.598-134.999-37.598-33.752 0-50.625 37.598-84.375 37.598-67.5 0-84.376-37.598-135.001-37.598-33.752 0-50.626 37.598-84.375 37.598-67.5 0-84.376-37.598-135-37.598-33.75 0-43.876 26.792-64.125 26.792v48.402c20.25 0 30.374-26.79 64.126-26.79 50.623 0 67.499 37.596 134.999 37.596 33.749 0 50.623-37.596 84.375-37.596 50.624 0 67.501 37.596 135.001 37.596 33.75 0 50.623-37.596 84.375-37.596 50.624 0 67.5 37.596 134.999 37.596 33.75 0 50.626-37.596 84.375-37.596 50.626 0 67.5 37.596 135.001 37.596 33.748 0 50.624-37.596 84.372-37.596 50.625 0 67.507 37.596 134.997 37.596 33.76 0 44.67-10.655 57.38-18.295ZM1134 399.088c-12.71 7.641-23.62 25.5-57.38 25.5-67.49 0-84.372-37.598-134.997-37.598-33.748 0-50.624 37.598-84.372 37.598-67.501 0-84.375-37.598-135.001-37.598-33.749 0-50.625 37.598-84.375 37.598-67.499 0-84.375-37.598-134.999-37.598-33.752 0-50.625 37.598-84.375 37.598-67.5 0-84.376-37.598-135.001-37.598-33.752 0-50.626 37.598-84.375 37.598-67.5 0-84.376-37.598-135-37.598-33.75 0-43.876 26.792-64.125 26.792v48.402c20.25 0 30.374-26.791 64.126-26.791 50.623 0 67.499 37.597 134.999 37.597 33.749 0 50.623-37.597 84.375-37.597 50.624 0 67.501 37.597 135.001 37.597 33.75 0 50.623-37.597 84.375-37.597 50.624 0 67.5 37.597 134.999 37.597 33.75 0 50.626-37.597 84.375-37.597 50.626 0 67.5 37.597 135.001 37.597 33.748 0 50.624-37.597 84.372-37.597 50.625 0 67.507 37.597 134.997 37.597 33.76 0 44.67-10.655 57.38-18.295ZM1134 305.082c-12.71 7.642-23.62 25.5-57.38 25.5-67.49 0-84.372-37.598-134.997-37.598-33.748 0-50.624 37.598-84.372 37.598-67.501 0-84.375-37.598-135.001-37.598-33.749 0-50.625 37.598-84.375 37.598-67.499 0-84.375-37.598-134.999-37.598-33.752 0-50.625 37.598-84.375 37.598-67.5 0-84.376-37.598-135.001-37.598-33.752 0-50.626 37.598-84.375 37.598-67.5 0-84.376-37.598-135-37.598-33.75 0-43.876 26.792-64.125 26.792v48.402c20.25 0 30.374-26.79 64.126-26.79 50.623 0 67.499 37.596 134.999 37.596 33.749 0 50.623-37.596 84.375-37.596 50.624 0 67.501 37.596 135.001 37.596 33.75 0 50.623-37.596 84.375-37.596 50.624 0 67.5 37.596 134.999 37.596 33.75 0 50.626-37.596 84.375-37.596 50.626 0 67.5 37.596 135.001 37.596 33.748 0 50.624-37.596 84.372-37.596 50.625 0 67.507 37.596 134.997 37.596 33.76 0 44.67-10.655 57.38-18.294ZM1134 211.077c-12.71 7.642-23.62 25.5-57.38 25.5-67.49 0-84.372-37.598-134.997-37.598-33.748 0-50.624 37.598-84.372 37.598-67.501 0-84.375-37.598-135.001-37.598-33.749 0-50.625 37.598-84.375 37.598-67.499 0-84.375-37.598-134.999-37.598-33.752 0-50.625 37.598-84.375 37.598-67.5 0-84.376-37.598-135.001-37.598-33.752 0-50.626 37.598-84.375 37.598-67.5 0-84.376-37.598-135-37.598-33.75 0-43.876 26.792-64.125 26.792v48.402c20.25 0 30.374-26.79 64.126-26.79 50.623 0 67.499 37.596 134.999 37.596 33.749 0 50.623-37.596 84.375-37.596 50.624 0 67.501 37.596 135.001 37.596 33.75 0 50.623-37.596 84.375-37.596 50.624 0 67.5 37.596 134.999 37.596 33.75 0 50.626-37.596 84.375-37.596 50.626 0 67.5 37.596 135.001 37.596 33.748 0 50.624-37.596 84.372-37.596 50.625 0 67.507 37.596 134.997 37.596 33.76 0 44.67-10.655 57.38-18.294ZM1134 117.072c-12.71 7.642-23.62 25.5-57.38 25.5-67.49 0-84.372-37.598-134.997-37.598-33.748 0-50.624 37.598-84.372 37.598-67.501 0-84.375-37.598-135.001-37.598-33.749 0-50.625 37.598-84.375 37.598-67.499 0-84.375-37.598-134.999-37.598-33.752 0-50.625 37.598-84.375 37.598-67.5 0-84.376-37.598-135.001-37.598-33.752 0-50.626 37.598-84.375 37.598-67.5 0-84.376-37.598-135-37.598-33.75 0-43.876 26.792-64.125 26.792v48.402c20.25 0 30.374-26.79 64.126-26.79 50.623 0 67.499 37.596 134.999 37.596 33.749 0 50.623-37.596 84.375-37.596 50.624 0 67.501 37.596 135.001 37.596 33.75 0 50.623-37.596 84.375-37.596 50.624 0 67.5 37.596 134.999 37.596 33.75 0 50.626-37.596 84.375-37.596 50.626 0 67.5 37.596 135.001 37.596 33.748 0 50.624-37.596 84.372-37.596 50.625 0 67.507 37.596 134.997 37.596 33.76 0 44.67-10.655 57.38-18.295Z"/><path fill="#A24300" fill-rule="evenodd" stroke="#000" stroke-miterlimit="8" stroke-width="1.41627" d="m844.308 244.5-3.798 385.559c-.514 21.878 18.99 21.965 18.99 0L855.702 244.5Z"/><path fill="#006D00" fill-rule="evenodd" stroke="#000" stroke-miterlimit="8" stroke-width="1.14173" d="m885.989 388.196-12.768-14.016-3.151 14.159-5.546-20.503-5.186 10.323-.919-21.829-5.186 10.323-.919-21.829-5.186 10.323-2.953-25.665-5.186 10.323-2.954-25.664-5.186 10.323-2.953-25.665-1.477-12.832 2.592-5.162 6.664 2.51 10.732 10.18 21.465 20.36-13.325-5.019 21.465 20.36-13.326-5.018 21.465 20.359-13.325-5.018 19.43 16.525-13.325-5.019 19.43 16.524-13.326-5.018 14.803 17.851-15.361-8.854Z"/><path fill="none" stroke="#000" stroke-miterlimit="8" stroke-width="0.256378" d="m885.5 388.5-56-107M867.5 314.087l-30.576-17.38-6.272 27.793"/><path fill="none" stroke="#000" stroke-miterlimit="8" stroke-width="0.256378" d="m876.5 329.087-31.2-17.38-6.4 27.793"/><path fill="none" stroke="#000" stroke-miterlimit="8" stroke-width="0.256378" d="m884.5 344.771-30.576-17.907-6.272 28.636"/><path fill="none" stroke="#000" stroke-miterlimit="8" stroke-width="0.256378" d="m890.5 356.171-28.566-13.506-8.302 23.835"/><path fill="none" stroke="#000" stroke-miterlimit="8" stroke-width="0.256378" d="m896.5 367.815-28.566-13.972-8.302 24.657"/><path fill="none" stroke="#000" stroke-miterlimit="8" stroke-width="0.256378" d="m897.5 380.535-26.108-19.052-1.675 27.017"/><path fill="#006D00" fill-rule="evenodd" stroke="#000" stroke-miterlimit="8" stroke-width="1.27108" d="m736.386 205.743 20.79 7.941-6.045-15.748 18.176 17.938-1.716-12.872 14.704 21.499-1.716-12.873 14.705 21.499-1.716-12.872 19.034 24.374-1.716-12.872 19.034 24.374-1.716-12.872 19.034 24.374 9.517 12.188.859 6.436-7.802.685-16.461-5.066-32.92-10.132 15.602-1.37-32.92-10.132 15.602-1.37-32.92-10.132 15.602-1.37-28.59-7.256 15.602-1.371-28.591-7.256 15.602-1.37-25.119-10.817 19.932 1.505Z"/><path fill="none" stroke="#000" stroke-miterlimit="8" stroke-width="0.285459" d="m736.5 205.5 122 81M800.5 271.526l40.049 2.961-12.147-30.987"/><path fill="none" stroke="#000" stroke-miterlimit="8" stroke-width="0.285459" d="m783.5 260.148 40.049 3.028-12.147-31.676"/><path fill="none" stroke="#000" stroke-miterlimit="8" stroke-width="0.285459" d="m766.5 248.526 39.307 2.961-11.922-30.987"/><path fill="none" stroke="#000" stroke-miterlimit="8" stroke-width="0.285459" d="m753.5 240.077 35.232.135-7.695-28.712"/><path fill="none" stroke="#000" stroke-miterlimit="8" stroke-width="0.285459" d="m740.5 231.077 35.232.135-7.695-28.712"/><path fill="none" stroke="#000" stroke-miterlimit="8" stroke-width="0.285459" d="m730.5 219.076 36.542 6.636-15.626-28.212"/><path fill="#006D00" fill-rule="evenodd" stroke="#000" stroke-miterlimit="8" stroke-width="1.26803" d="m978.575 232.429-17.361 12.681 19.157 2.128-26.722 6.329 14.258 4.24-28.953 2.096 14.259 4.241-28.953 2.096 14.258 4.24-33.851 4.209 14.259 4.24-33.852 4.209 14.259 4.24-33.852 4.208-16.926 2.105-7.13-2.12 2.668-6.345 12.464-10.569 24.926-21.138-5.334 12.689 24.927-21.137-5.334 12.689 24.927-21.138-5.334 12.689 20.028-19.026-5.334 12.689 20.029-19.025-5.334 12.689 22.26-14.794-10.233 14.802Z"/><path fill="none" stroke="#000" stroke-miterlimit="8" stroke-width="0.284724" d="m978.5 232.5-137 59M881.741 253.5l-20.361 29.9 38.12 4.299"/><path fill="none" stroke="#000" stroke-miterlimit="8" stroke-width="0.284724" d="m900.741 245.5-20.361 29.264 38.12 4.208"/><path fill="none" stroke="#000" stroke-miterlimit="8" stroke-width="0.284724" d="m920.741 236.5-20.361 29.9 38.12 4.299"/><path fill="none" stroke="#000" stroke-miterlimit="8" stroke-width="0.284724" d="m935.372 230.5-15.808 27.231 33.936 6.308"/><path fill="none" stroke="#000" stroke-miterlimit="8" stroke-width="0.284724" d="m949.794 224.5-15.441 27.231 33.147 6.308"/><path fill="none" stroke="#000" stroke-miterlimit="8" stroke-width="0.284724" d="m967.043 221.5-22.814 25.326 36.271.023"/><path fill="#006D00" fill-rule="evenodd" stroke="#000" stroke-miterlimit="8" stroke-width="1.27097" d="m975.194 360.234-21.56-6.25 7.71 15.183-20.029-16.4 3.089 12.666-16.951-20.216 3.088 12.667-16.951-20.217 3.089 12.666-21.573-22.733 3.089 12.667-21.573-22.733 3.089 12.666-21.573-22.733-10.787-11.367-1.545-6.334 7.699-1.299 16.939 3.734 33.879 7.466-15.395 2.6 33.879 7.467-15.395 2.6 33.879 7.467-15.395 2.6 29.258 4.95-15.395 2.6 29.257 4.95-15.395 2.6 26.182 8.766-20.016.083Z"/><path fill="none" stroke="#000" stroke-miterlimit="8" stroke-width="0.285459" d="m975.5 360.5-129-70M904.5 299.722l-39.773.167 15.32 30.611"/><path fill="none" stroke="#000" stroke-miterlimit="8" stroke-width="0.285459" d="m923.5 309.722-40.538.167 15.615 30.611"/><path fill="none" stroke="#000" stroke-miterlimit="8" stroke-width="0.285459" d="m941.5 319.722-39.773.167 15.32 30.611"/><path fill="none" stroke="#000" stroke-miterlimit="8" stroke-width="0.285459" d="m955.5 328.05-35.621 2.675 10.863 27.775"/><path fill="none" stroke="#000" stroke-miterlimit="8" stroke-width="0.285459" d="m969.5 335.05-35.621 2.675 10.863 27.775"/><path fill="none" stroke="#000" stroke-miterlimit="8" stroke-width="0.285459" d="m980.5 346.6-36.807-3.65 18.422 26.55"/><path fill="#006D00" fill-rule="evenodd" stroke="#000" stroke-miterlimit="8" stroke-width="1.13344" d="m752.363 369.621 10.279-15.732-16.097 2.834 19.712-12.33-12.765-.283 22.762-9.071-12.765-.283 22.762-9.071-12.764-.283 26.094-12.189-12.765-.283 26.094-12.189-12.764-.283 26.094-12.189 13.047-6.094 6.383.141-.282 6.379-6.948 12.613-13.894 25.228.564-12.756-13.894 25.228.565-12.756-13.894 25.228.564-12.756-10.562 22.11.565-12.756-10.562 22.11.565-12.756-13.612 18.85 3.897-15.874Z"/><path fill="none" stroke="#000" stroke-miterlimit="8" stroke-width="0.254488" d="m753.953 370.31 93.308-87.304M825.482 327.604l7.794-31.747-32.194 5.669"/><path fill="none" stroke="#000" stroke-miterlimit="8" stroke-width="0.254488" d="m811.617 339.465 7.795-31.747-32.195 5.669"/><path fill="none" stroke="#000" stroke-miterlimit="8" stroke-width="0.254488" d="m797.753 351.327 7.794-31.747-32.194 5.669"/><path fill="none" stroke="#000" stroke-miterlimit="8" stroke-width="0.254488" d="m787.287 360.147 4.462-28.629-28.862 2.551"/><path fill="none" stroke="#000" stroke-miterlimit="8" stroke-width="0.254488" d="m776.889 369.043 4.462-28.628-28.862 2.55"/><path fill="none" stroke="#000" stroke-miterlimit="8" stroke-width="0.254488" d="m763.507 374.756 10.845-28.487-29.145 8.929"/><path fill="#006D00" fill-rule="evenodd" stroke="#000" stroke-miterlimit="8" stroke-width="0.973333" d="m947.56 168.997-20.901 13.945-3.429-14.952-12.335 20.674-2.212-9.95-10.076 21.206-1.417-9.763-7.817 21.736-4.47-10.481-7.841 26.446-4.471-10.481-7.841 26.446-4.47-10.482-7.841 26.447-3.921 13.223 2.235 5.241 8.392-2.742 14.547-10.724 29.093-21.449-16.782 5.484 29.094-21.448-16.782 5.483 29.093-21.448-16.782 5.483 29.07-16.738-19.836 4.765 31.329-16.208-19.042 4.952 22.962-18.175-19.86 9.475Z"/><path fill="none" stroke="#000" stroke-miterlimit="8" stroke-width="0.291758" d="m939.5 176.539-30.308 25.95-58.692 75.972"/><path fill="none" stroke="#000" stroke-miterlimit="8" stroke-width="0.291758" d="m896.5 246.162-33.636 16.037-2.835-24.699"/><path fill="none" stroke="#000" stroke-miterlimit="8" stroke-width="0.291758" d="m908.5 230.248-33.816 15.848-2.807-24.596"/><path fill="none" stroke="#000" stroke-miterlimit="8" stroke-width="0.291758" d="m920.5 214.162-33.241 15.976-2.528-24.638"/><path fill="none" stroke="#000" stroke-miterlimit="8" stroke-width="0.291758" d="m930.5 202.649-31.132 11.424-3.612-19.573"/><path fill="none" stroke="#000" stroke-miterlimit="8" stroke-width="0.291758" d="m942.5 190.984-33.435 11.345-1.301-19.829"/><path fill="none" stroke="#000" stroke-miterlimit="8" stroke-width="0.291758" d="m947.012 180.455-30.947 15.398 5.976-23.353"/><path fill="#006D00" fill-rule="evenodd" stroke="#000" stroke-miterlimit="8" stroke-width="0.967034" d="m833.66 142.434 9.497 21.291 12.246-11.253-2.11 23.21 8.088-7.521-4.401 22.653 7.283-7.717-6.691 22.095 10.379-6.963-9.59 26.134 10.379-6.963-9.59 26.134 10.378-6.963-9.59 26.134-4.794 13.068-5.19 3.482-5.584-6.105-5.978-15.69-11.956-31.379 11.167 12.208-11.956-31.379 11.168 12.208-11.956-31.379 11.167 12.208-14.855-27.34 14.263 12.962-17.145-27.898 13.458 12.766-8.663-25.833 11.364 17.001Z"/><path fill="none" stroke="#000" stroke-miterlimit="8" stroke-width="0.289869" d="m836.5 152.5 9.496 35.756L849.5 279.5"/><path fill="none" stroke="#000" stroke-miterlimit="8" stroke-width="0.289869" d="m830.5 231.5 18.858 28.493 17.173-19.541"/><path fill="none" stroke="#000" stroke-miterlimit="8" stroke-width="0.289869" d="m828.5 212.5 19.62 28.51 17.398-19.467"/><path fill="none" stroke="#000" stroke-miterlimit="8" stroke-width="0.289869" d="m828.5 193.5 19.112 28.556 16.919-19.604"/><path fill="none" stroke="#000" stroke-miterlimit="8" stroke-width="0.289869" d="m827.5 178.5 19.364 24.036 14.873-15.356"/><path fill="none" stroke="#000" stroke-miterlimit="8" stroke-width="0.289869" d="m824.5 163.5 21.63 24.612 12.606-15.937"/><path fill="none" stroke="#000" stroke-miterlimit="8" stroke-width="0.289869" d="m826.596 152.797 17.149 27.119 9.691-22.944"/><path fill="#006D00" fill-rule="evenodd" stroke="#000" stroke-miterlimit="8" stroke-width="0.944567" d="m707.665 300.354 27.409-19.471-13.736-6.724 24.022 3.536-8.254-10.617 23.345 8.138-8.254-10.618 23.345 8.138-8.254-10.618 28.149 8.845-8.254-10.618 27.472 13.447-8.254-10.618 28.149 8.845 13.736 6.723 4.128 5.309-5.482 3.895-15.092 2.479-24.349 10.52 4.455-8.747-30.182 4.96 10.964-7.789-30.859 9.562 10.964-7.789-26.055 10.269 11.641-12.391-26.731 14.87 11.64-12.39-21.927 15.578 12.318-16.992Z"/><path fill="none" stroke="#000" stroke-miterlimit="8" stroke-width="0.268136" d="m716.326 295.183 28.342-12.798 15.091-2.48 12.597-.497 21.711.846 19.574.409 38.758 3.476"/><path fill="none" stroke="#000" stroke-miterlimit="8" stroke-width="0.268136" d="m811.113 297.681 21.652-13.707-22.082-16.717"/><path fill="none" stroke="#000" stroke-miterlimit="8" stroke-width="0.268136" d="m786.857 295.814 26.721-14.796-22.082-16.717"/><path fill="none" stroke="#000" stroke-miterlimit="8" stroke-width="0.268136" d="m769.614 295.372 24.468-15.204-22.266-15.47M737.295 299.282l22.605-20.179-18.23-9.538"/><path fill="none" stroke="#000" stroke-miterlimit="8" stroke-width="0.268136" d="m727.298 300.559 17.56-19.253-14.011-4.853M752.327 297.133l22.319-18.235-17.92-11.645"/><path fill="#FFF" fill-rule="evenodd" d="M854 462h53.758s3.537-8.115 3.935-11.709c.479-4.318.464-5.704-.523-9.681-1.023-4.121-2.508-6.953-5.063-9.706-2.409-2.597-5.804-4.205-9.281-5.082-3.1-.783-6.604-1.117-9.324-.507-5.167 1.159-8.523 2.995-14.14 4.924-4.051 1.391-7.148 1.869-11.245 2.122-2.505.154-5.402-.526-8.117-1.156ZM846 462h-53.758s-3.537-8.115-3.935-11.709c-.479-4.318-.464-5.704.523-9.681 1.023-4.121 2.508-6.953 5.063-9.706 2.409-2.597 5.804-4.205 9.281-5.082 3.101-.783 6.604-1.117 9.324-.507 5.167 1.159 8.524 2.995 14.14 4.924 4.052 1.391 7.148 1.869 11.245 2.122 2.506.154 5.402-.526 8.117-1.156ZM842.626 510.938c-7.623.096-15.245.257-22.808.77-5.581.45-11.944.963-17.375 1.798l-1.381.256c-3.421.707-3.901 5.071-2.1 7.446 3.661 4.911 25.358 8.73 50.986 8.73 25.598 0 47.295-3.819 50.956-8.73 1.801-2.375 1.321-6.739-2.1-7.446l-1.381-.256c-5.401-.835-11.793-1.348-17.375-1.798-7.563-.513-15.185-.674-22.808-.77h-7.292Z"/><path fill-rule="evenodd" d="M854.934 515.455a53.622 53.622 0 0 1-5.191-1.179 61.767 61.767 0 0 1-4.042-1.337c.384.669.944 1.337 2.301 1.847-1.091-.032-2.537.414-3.068.669.531.223 2.036.669 3.127.637-1.327.509-1.829 1.178-2.124 1.847 1.151-.446 2.39-.86 3.688-1.242a53.48 53.48 0 0 1 5.309-1.242ZM834.935 515.168a46.556 46.556 0 0 1-5.207-1.019 42.385 42.385 0 0 1-4.083-1.21c.355.669.947 1.306 2.338 1.783-1.125 0-2.545.51-3.048.765.533.223 2.042.605 3.136.541-1.301.541-1.804 1.242-2.1 1.911 1.154-.478 2.367-.956 3.668-1.37 1.657-.541 3.403-.987 5.296-1.401ZM814.936 516.477a51.941 51.941 0 0 1-5.311-.641c-1.454-.257-2.849-.545-4.154-.898.415.641 1.038 1.25 2.462 1.603-1.097.096-2.492.705-2.997.994.564.16 2.078.448 3.175.32-1.275.641-1.721 1.378-1.958 2.083 1.128-.577 2.315-1.153 3.591-1.666a42.2 42.2 0 0 1 5.192-1.795ZM874.926 515.692c-2.044.285-3.959.602-5.743 1.013-1.59.348-3.083.76-4.478 1.234.422-.664 1.038-1.329 2.563-1.772-1.2-.032-2.79-.506-3.342-.759.584-.222 2.239-.602 3.44-.57-1.428-.538-1.98-1.203-2.272-1.899 1.266.507 2.596.95 4.024 1.393 1.785.506 3.699.981 5.808 1.36ZM893.931 517.4c-1.869.128-3.62.321-5.282.609a51.241 51.241 0 0 0-4.184.929c.445-.641 1.068-1.25 2.493-1.602-1.128-.096-2.522-.705-3.027-.994.564-.192 2.077-.48 3.205-.32-1.276-.641-1.751-1.378-1.988-2.084a56.89 56.89 0 0 0 3.59 1.667 56.633 56.633 0 0 0 5.193 1.795Z"/><path fill="#CCC" fill-rule="evenodd" d="M849.448 519.936c-30.48 0-48.954 1.953-47.427 3.444 10.689 4.933 31.738 6.523 47.427 6.556 15.66-.033 36.708-1.623 47.397-6.556 1.527-1.491-16.946-3.444-47.397-3.444Z"/><path fill="none" stroke="#000" stroke-miterlimit="8" stroke-width="0.540997" d="M897.395 524.428c.27-.897-.931-1.159-2.191-1.346-4.892-.785-10.324-1.308-15.155-1.757-7.563-.598-15.186-.785-22.808-.897h-14.616c-7.622.112-15.245.299-22.807.897-4.832.449-10.264.972-15.156 1.757-1.26.187-2.461.449-2.191 1.346"/><path fill="none" stroke="#000" stroke-miterlimit="8" stroke-width="0.540997" d="M843.126 511.438c-7.623.096-15.245.257-22.808.77-5.581.45-11.943.963-17.375 1.798l-1.381.256c-3.421.707-3.901 5.071-2.1 7.446 3.661 4.911 25.358 8.73 50.986 8.73 25.598 0 47.295-3.819 50.956-8.73 1.801-2.375 1.321-6.739-2.1-7.446l-1.381-.256c-5.401-.835-11.793-1.348-17.375-1.798-7.563-.513-15.185-.674-22.808-.77h-7.292Z"/><path fill="#C8102E" fill-rule="evenodd" d="m890.377 503.96 3.668-11.759 1.482-4.868 3.672-2.504 3.719-9.277 1.752-2.427.27-8.547s-2.569-6.063-6.545-8.241c-5.688-3.115-13.409-2.686-13.409-2.686s-1.783-5.177-5.055-7.191c-3.271-2.015-6.903-2.5-10.715-2.5-3.812 0-10.654 3.741-14.354 4.841-1.923.571-6.267 2.5-6.267 2.5s-4.344-1.929-6.268-2.5c-3.699-1.1-10.541-4.841-14.353-4.841-3.813 0-7.326.412-10.716 2.5-3.152 1.941-7.48 7.191-7.48 7.191s-4.955-.738-8.436 1.56c-4.342 2.868-7.402 8.899-7.402 8.899l.3 9.339.684 3.57 2.805 3.539 3.658 7.149 2.621 7.051 2.804 9.202Z"/><path fill="none" stroke="#000" stroke-miterlimit="8" stroke-width="0.541942" d="m890.877 504.46 3.669-11.759 1.481-4.868 3.672-2.504 3.719-9.277 1.752-2.427.27-8.547s-2.569-6.063-6.545-8.241c-5.688-3.114-13.409-2.686-13.409-2.686s-1.783-5.177-5.054-7.191c-3.271-2.015-6.904-2.5-10.716-2.5-3.812 0-10.654 3.741-14.354 4.841-1.923.571-6.267 2.5-6.267 2.5s-4.344-1.929-6.268-2.5c-3.699-1.1-10.541-4.841-14.353-4.841-3.813 0-7.326.412-10.716 2.5-3.152 1.941-7.48 7.191-7.48 7.191s-4.955-.738-8.436 1.561c-4.342 2.867-7.402 8.898-7.402 8.898l.3 9.339.684 3.57 2.805 3.539 3.658 7.149 2.621 7.051 2.805 9.202Z"/><path fill="#FED100" fill-rule="evenodd" d="M895.317 422.952c3.954.951 8.15 2.84 11.454 6.39 3.064 3.288 5.101 7.171 6.276 11.887 1.099 4.413 1.132 7.038.644 11.433-.629 5.655-3.837 11.33-3.837 11.33l-5.529-1.07s3.332-7.615 3.707-10.988c.45-4.053.437-5.353-.493-9.086-.963-3.867-2.362-6.524-4.768-9.109-2.27-2.437-5.467-3.946-8.742-4.77-2.92-.733-6.22-1.047-8.783-.475-4.866 1.088-8.027 2.811-13.318 4.621-3.816 1.306-6.732 1.754-10.59 1.991-2.361.146-5.089-.493-7.646-1.084-2.558-.592-4.7-1.204-4.7-1.204l1.439-5.988s2.043.587 4.453 1.144c2.409.557 5.418 1.01 6.124.966 3.638-.224 5.774-.553 9.194-1.724 4.897-1.675 8.363-3.533 13.894-4.784 3.726-.843 7.548-.364 11.221.52Z"/><path fill="none" stroke="#000" stroke-miterlimit="8" stroke-width="0.541207" d="M895.817 423.452c3.954.951 8.15 2.84 11.454 6.39 3.064 3.288 5.101 7.171 6.276 11.887 1.099 4.413 1.132 7.038.644 11.433-.629 5.655-3.837 11.33-3.837 11.33l-5.529-1.07s3.332-7.615 3.707-10.988c.45-4.053.437-5.353-.493-9.086-.963-3.867-2.362-6.524-4.768-9.109-2.27-2.437-5.467-3.946-8.742-4.77-2.92-.733-6.22-1.047-8.783-.475-4.866 1.088-8.027 2.811-13.318 4.621-3.816 1.306-6.732 1.754-10.59 1.991-2.361.146-5.089-.493-7.646-1.084-2.558-.592-4.7-1.204-4.7-1.204l1.439-5.988s2.043.587 4.453 1.144c2.409.557 5.418 1.01 6.124.966 3.638-.224 5.774-.553 9.194-1.724 4.897-1.675 8.363-3.533 13.894-4.784 3.726-.843 7.548-.364 11.221.52Z"/><path fill="#FFF" fill-rule="evenodd" stroke="#000" stroke-miterlimit="8" stroke-width="0.541207" d="M911.724 457.936c-.002 1.93 1.34 3.497 2.996 3.5 1.657.002 3.002-1.56 3.005-3.49v-.01c.002-1.93-1.34-3.498-2.996-3.5-1.657-.003-3.002 1.56-3.005 3.49v.01ZM913.724 449.935c-.002 1.93 1.34 3.498 2.996 3.5 1.657.003 3.002-1.56 3.004-3.49v-.01c.003-1.93-1.339-3.497-2.995-3.5-1.657-.002-3.002 1.56-3.005 3.49v.01ZM912.724 441.444a2.998 2.998 0 0 0 2.996 3 2.998 2.998 0 0 0 3.004-2.992v-.008a2.998 2.998 0 0 0-2.995-3 2.998 2.998 0 0 0-3.005 2.992v.008ZM909.725 433.444a2.998 2.998 0 0 0 2.995 3 2.998 2.998 0 0 0 3.005-2.992v-.008a2.998 2.998 0 0 0-2.996-3 2.998 2.998 0 0 0-3.004 2.992v.008ZM903.762 426.934a3.498 3.498 0 0 0 3.496 3.5 3.498 3.498 0 0 0 3.504-3.49v-.01a3.497 3.497 0 0 0-3.495-3.5 3.498 3.498 0 0 0-3.505 3.49v.01ZM896.763 422.934a3.498 3.498 0 0 0 3.495 3.5 3.498 3.498 0 0 0 3.505-3.49v-.01a3.498 3.498 0 0 0-3.495-3.5 3.498 3.498 0 0 0-3.505 3.49v.01ZM888.763 420.934a3.498 3.498 0 0 0 3.496 3.5 3.498 3.498 0 0 0 3.504-3.49v-.01a3.498 3.498 0 0 0-3.495-3.5 3.498 3.498 0 0 0-3.505 3.49v.01ZM880.726 420.934c-.002 1.93 1.34 3.497 2.996 3.5 1.657.002 3.002-1.56 3.004-3.49v-.01c.003-1.93-1.339-3.498-2.996-3.5-1.657-.003-3.002 1.56-3.004 3.49v.01ZM858.727 427.444a2.998 2.998 0 0 0 2.996 3 2.998 2.998 0 0 0 3.004-2.992v-.009a2.998 2.998 0 0 0-2.996-3 2.998 2.998 0 0 0-3.004 2.992v.009ZM872.727 423.934c-.003 1.93 1.339 3.497 2.996 3.5 1.656.003 3.001-1.56 3.004-3.49v-.01c.002-1.93-1.34-3.497-2.996-3.5-1.657-.003-3.002 1.56-3.004 3.49v.01ZM865.727 425.934c-.002 1.93 1.339 3.497 2.996 3.5 1.657.003 3.002-1.56 3.004-3.49v-.01c.002-1.93-1.339-3.497-2.996-3.5-1.657-.003-3.002 1.56-3.004 3.49v.01Z"/><path fill="#FED100" fill-rule="evenodd" d="M803.967 422.952c-4.015.951-8.275 2.841-11.631 6.389-3.11 3.289-5.179 7.172-6.372 11.887-1.116 4.414-1.15 7.039-.654 11.434.639 5.655 3.896 11.331 3.896 11.331l5.614-1.07s-3.383-7.616-3.764-10.989c-.457-4.053-.443-5.353.501-9.086.978-3.867 2.398-6.524 4.842-9.109 2.304-2.437 5.551-3.946 8.876-4.769 2.965-.734 6.316-1.048 8.918-.476 4.941 1.088 8.151 2.811 13.522 4.621 3.875 1.306 6.837 1.754 10.754 1.992 2.397.145 5.167-.494 7.764-1.085 2.596-.592 4.772-1.204 4.772-1.204l-1.461-5.988s-2.076.587-4.522 1.144c-2.446.557-5.502 1.009-6.219.966-3.693-.224-5.862-.553-9.335-1.724-4.972-1.675-8.492-3.533-14.107-4.784-3.784-.843-7.665-.364-11.394.52Z"/><path fill="none" stroke="#000" stroke-miterlimit="8" stroke-width="0.541207" d="M804.467 423.452c-4.015.951-8.275 2.841-11.631 6.389-3.11 3.289-5.179 7.172-6.372 11.888-1.116 4.413-1.15 7.038-.654 11.433.639 5.655 3.896 11.331 3.896 11.331l5.614-1.07s-3.383-7.616-3.764-10.989c-.457-4.053-.443-5.353.501-9.086.978-3.867 2.398-6.524 4.842-9.108 2.304-2.438 5.551-3.947 8.876-4.77 2.965-.734 6.316-1.048 8.918-.476 4.941 1.088 8.151 2.811 13.522 4.621 3.875 1.306 6.837 1.754 10.755 1.992 2.396.145 5.166-.494 7.763-1.085 2.596-.592 4.772-1.204 4.772-1.204l-1.461-5.988s-2.075.587-4.522 1.144c-2.446.557-5.501 1.01-6.219.966-3.693-.224-5.862-.553-9.335-1.724-4.972-1.675-8.492-3.533-14.107-4.784-3.784-.843-7.665-.364-11.394.52Z"/><path fill="#FFF" fill-rule="evenodd" stroke="#000" stroke-miterlimit="8" stroke-width="0.541207" d="M788.269 457.936c.002 1.93-1.339 3.497-2.996 3.5-1.657.003-3.002-1.56-3.004-3.49v-.01c-.003-1.93 1.339-3.497 2.996-3.5 1.656-.003 3.001 1.56 3.004 3.49v.01ZM787.269 449.935c.002 1.931-1.339 3.498-2.996 3.5-1.657.003-3.002-1.56-3.005-3.49v-.01c-.002-1.93 1.34-3.497 2.996-3.5 1.657-.002 3.002 1.56 3.005 3.491v.009ZM787.269 441.444a2.998 2.998 0 0 1-2.996 3 2.999 2.999 0 0 1-3.005-2.992v-.008a3 3 0 0 1 2.996-3 3 3 0 0 1 3.005 2.992v.008ZM790.269 433.444a2.998 2.998 0 0 1-2.996 3 2.998 2.998 0 0 1-3.004-2.992v-.008a2.997 2.997 0 0 1 2.996-3 2.998 2.998 0 0 1 3.004 2.992v.008ZM796.269 426.934c.002 1.93-1.339 3.497-2.996 3.5-1.657.003-3.002-1.56-3.004-3.49v-.01c-.002-1.93 1.339-3.497 2.996-3.5 1.657-.003 3.002 1.56 3.004 3.49v.01ZM803.269 422.934c.003 1.93-1.339 3.497-2.996 3.5-1.656.002-3.001-1.56-3.004-3.491v-.009c-.002-1.93 1.339-3.498 2.996-3.5 1.657-.003 3.002 1.56 3.004 3.49v.01ZM811.27 420.934c.002 1.93-1.339 3.497-2.996 3.5-1.657.002-3.002-1.56-3.004-3.491v-.009c-.003-1.931 1.339-3.498 2.996-3.5 1.657-.003 3.002 1.56 3.004 3.49v.01ZM819.27 420.934c.003 1.93-1.339 3.497-2.996 3.5-1.657.002-3.001-1.56-3.004-3.491v-.009c-.002-1.931 1.339-3.498 2.996-3.5 1.657-.003 3.002 1.56 3.004 3.49v.01ZM842.233 427.444c.003 1.654-1.562 2.997-3.495 3-1.933.002-3.502-1.338-3.505-2.992v-.008c-.002-1.655 1.563-2.998 3.496-3 1.933-.003 3.502 1.337 3.504 2.991v.009ZM827.271 423.934c.002 1.93-1.339 3.497-2.996 3.5-1.657.003-3.002-1.56-3.004-3.49v-.01c-.003-1.93 1.339-3.497 2.996-3.5 1.656-.003 3.001 1.56 3.004 3.49v.01ZM834.271 425.934c.002 1.93-1.339 3.497-2.996 3.5-1.657.003-3.002-1.56-3.004-3.49v-.01c-.002-1.93 1.339-3.497 2.996-3.5 1.657-.003 3.002 1.56 3.004 3.49v.01Z"/><path fill="#FED100" fill-rule="evenodd" stroke="#000" stroke-miterlimit="8" stroke-width="0.541207" d="M843.01 412.515c.837-1.152 1.837-2.007 2.647-3.178.851-1.23 1.5-2.785 1.834-4.356-1.48.401-2.91 1.107-4.041 2.033-1.078.88-1.864 1.967-2.924 2.877v-14.752c1.06.91 1.846 1.997 2.924 2.878 1.131.925 2.561 1.631 4.041 2.032-.334-1.57-.983-3.125-1.834-4.355-.81-1.172-1.81-2.027-2.647-3.179h15.032c-.837 1.152-1.836 2.007-2.646 3.179-.852 1.23-1.501 2.785-1.835 4.355 1.48-.401 2.91-1.107 4.042-2.032 1.077-.881 1.864-1.968 2.923-2.878v14.752c-1.059-.91-1.846-1.997-2.923-2.877-1.132-.926-2.562-1.632-4.042-2.033.334 1.571.983 3.126 1.835 4.356.81 1.171 1.809 2.026 2.646 3.178Z"/><path fill="#FFF" fill-rule="evenodd" stroke="#000" stroke-miterlimit="8" stroke-width="0.541207" d="M853.28 402.436c.003 2.206-1.562 3.997-3.495 4-1.933.003-3.502-1.782-3.505-3.989v-.011c-.002-2.206 1.562-3.997 3.495-4 1.933-.003 3.503 1.783 3.505 3.989v.011Z"/><path fill="#FED100" fill-rule="evenodd" d="M857.765 420.937c.006 4.964-3.794 8.993-8.489 9-4.694.007-8.505-4.012-8.511-8.975v-.025c-.007-4.964 3.794-8.993 8.488-9 4.695-.007 8.505 4.011 8.512 8.975v.025Z"/><path fill="none" stroke="#000" stroke-miterlimit="8" stroke-width="0.541102" d="M858.265 421.437c.006 4.964-3.794 8.993-8.488 9-4.695.007-8.506-4.011-8.512-8.975v-.025c-.007-4.964 3.794-8.993 8.488-9 4.695-.007 8.505 4.011 8.512 8.975v.025Z"/><path fill="#FED100" fill-rule="evenodd" d="M848.2 411.014v7.952h-7.174v4.048h18v-4.048h-7.187v-7.952Z"/><path fill="none" stroke="#000" stroke-miterlimit="8" stroke-width="0.541312" d="M848.7 411.514v7.952h-7.174v4.048h18v-4.048h-7.186v-7.952Z"/><path fill="#FED100" fill-rule="evenodd" d="M855.026 428.012v34h-11v-34Z"/><path fill="none" stroke="#000" stroke-miterlimit="8" stroke-width="0.541207" d="M855.526 428.512v34h-11v-34Z"/><path fill="#FED100" fill-rule="evenodd" d="M845.02 427.917v34h-3v-34Z"/><path fill="none" stroke="#000" stroke-miterlimit="8" stroke-width="0.542572" d="M844.02 428.417c.831 0 1.5.727 1.5 1.63v30.74c0 .903-.669 1.63-1.5 1.63s-1.5-.727-1.5-1.63v-30.74c0-.903.669-1.63 1.5-1.63Z"/><path fill="#FED100" fill-rule="evenodd" d="M857.018 427.917v34h-3v-34Z"/><path fill="none" stroke="#000" stroke-miterlimit="8" stroke-width="0.542572" d="M857.519 428.417v34h-3.001v-34Z"/><path fill="#FFF" fill-rule="evenodd" stroke="#000" stroke-miterlimit="8" stroke-width="0.541207" d="M853.272 428.934c.002 1.93-1.339 3.497-2.996 3.5-1.657.003-3.002-1.56-3.004-3.49v-.01c-.002-1.93 1.339-3.497 2.996-3.5 1.657-.003 3.002 1.56 3.004 3.49v.01ZM853.272 435.935c.002 1.93-1.339 3.497-2.996 3.5-1.657.002-3.002-1.56-3.004-3.491v-.009c-.002-1.931 1.339-3.498 2.996-3.5 1.657-.003 3.002 1.56 3.004 3.49v.01Z"/><path fill="#FFF" fill-rule="evenodd" stroke="#000" stroke-miterlimit="8" stroke-width="0.541207" d="M853.272 442.935c.002 1.93-1.339 3.497-2.996 3.5-1.657.003-3.002-1.56-3.004-3.49v-.01c-.002-1.93 1.339-3.497 2.996-3.5 1.657-.003 3.002 1.56 3.004 3.49v.01ZM853.272 449.445a2.999 2.999 0 0 1-2.996 3 2.998 2.998 0 0 1-3.004-2.992v-.008a2.998 2.998 0 0 1 2.996-3 2.997 2.997 0 0 1 3.004 2.991v.009Z"/><path fill="#FFF" fill-rule="evenodd" stroke="#000" stroke-miterlimit="8" stroke-width="0.541207" d="M853.272 455.936c.002 1.93-1.339 3.497-2.996 3.5-1.657.002-3.002-1.56-3.004-3.491v-.009c-.002-1.931 1.339-3.498 2.996-3.5 1.657-.003 3.002 1.56 3.004 3.49v.01Z"/><path fill="#FED100" fill-rule="evenodd" d="M905.076 477.449c-2.975 7.198-5.358 14.225-7.693 21.456h-95.91c-2.257-6.99-4.559-14.509-7.397-21.456 0 0 5.969 9.038 10.439 11.224 2.483 1.214 5.589 1.576 8.156.589 3.383-1.302 7.884-7.944 7.884-7.944s4.047 5.126 6.796 6.473c2.581 1.263 5.599 1.315 8.428 1.176 2.504-.122 5.278-.224 7.341-1.765 3.123-2.333 6.252-10.297 6.252-10.297s3.028 6.266 5.438 8.532c1.988 1.87 4.485 3.266 7.068 3.825 2.583.559 5.406.378 7.884-.589 3.36-1.311 8.7-6.766 8.7-6.766s3.675 4.933 6.253 6.178c2.494 1.205 5.496 1.56 8.155.882 2.815-.716 5.18-2.922 7.341-5.001 1.929-1.855 4.865-6.517 4.865-6.517Z"/><path fill="none" stroke="#000" stroke-miterlimit="8" stroke-width="0.541207" d="M905.576 477.949c-2.975 7.198-5.358 14.225-7.693 21.456h-95.91c-2.257-6.99-4.559-14.509-7.397-21.456 0 0 5.969 9.039 10.439 11.224 2.483 1.214 5.589 1.576 8.156.589 3.383-1.302 7.884-7.944 7.884-7.944s4.047 5.126 6.797 6.473c2.58 1.264 5.598 1.315 8.427 1.176 2.504-.122 5.278-.224 7.341-1.765 3.123-2.333 6.252-10.297 6.252-10.297s3.028 6.266 5.438 8.532c1.988 1.87 4.485 3.266 7.068 3.825 2.583.559 5.406.378 7.884-.589 3.36-1.31 8.7-6.766 8.7-6.766s3.675 4.933 6.253 6.178c2.495 1.205 5.496 1.56 8.156.882 2.814-.716 5.179-2.922 7.34-5.001 1.929-1.855 4.865-6.517 4.865-6.517Z"/><path fill="#FED100" fill-rule="evenodd" d="M849.576 481.394s-2.184 3.593-3.526 4.82c-1.865 1.705-3.091 2.732-5.486 3.539-2.391.806-5.726 1.259-8.229 1.113-2.421-.142-4.911-.892-7.093-2.023-1.897-.982-4.919-3.842-4.919-3.842-1.469 2.038-3.339 3.469-5.119 4.526-2.277 1.353-4.527 1.475-6.89 1.339-4.803-.277-9.284-3.485-12.879-9.989-2.331-5.893-5.011-11.861-8.359-18.119 3.858-1.459 8.355-2.237 13.343-2.49-2.029 6.11-4.133 12.063-3.389 16.982 4.191-3.356 5.546-7.923 6.989-12.454l4.872 18.341c-2.957-.554-1.384-1.207-9.149-2.781 1.556 3.136 5.117 7.009 9.044 7.39 2.641.256 4.558-.616 6.236-2.172 1.206-1.118 2.305-2.596 2.291-4.262l-.025-2.862c-.006-.613-.713-1.48-1.286-1.489-.546-.008-.698.94-.843 1.503-.292 1.126.294 2.38 0 3.505-.325 1.241-.947 2.221-1.968 2.905-.851.57-2.904.701-2.904.701l.656-2.704c.462-1.908-1.27-3.389-1.687-5.309-.268-1.236-.416-2.618 0-3.806.45-1.285 1.361-2.536 2.53-3.105.426-.207.938-.236 1.405-.2.661.05 1.968.5 1.968.5s-.375-1.933-.282-3.105c.114-1.421 1.24-4.053 1.874-5.308 1.053-2.084 2.727-3.962 2.918-4.163.183.197 1.998 2.002 3.183 4.003.714 1.205 1.447 2.946 1.653 4.355.17 1.162.109 3.619.109 3.619s1.93-.847 2.586-.946c.464-.071.976-.08 1.415.095 1.203.48 2.193 1.66 2.726 2.909.492 1.155.434 2.544.247 3.797-.291 1.946-1.36 3.452-.775 5.321l.831 2.649s-2.058.022-2.943-.483c-1.064-.607-1.748-1.538-2.152-2.752-.367-1.1-.154-2.449-.79-3.397-.282-.419-.676-.883-1.22-.835-.572.051-.973 1.049-.997 1.662l-.101 2.576c-.031.791.306 1.614.703 2.254.971 1.569 2.417 2.521 4.048 3.228 1.766.765 3.36 1.059 5.266 1.083 1.59.02 4.353-.258 5.86-.803 1.856-.67 2.948-1.522 4.384-2.947.809-.803 1.35-1.969 1.706-3.087.411-1.287.263-3.508.263-3.508-1.847.749-3.453 1.755-4.9 2.93-1.636 1.329-3.069 2.874-4.42 4.507l-.131-22.171c1.924 2.269 3.323 4.301 5.247 6.01 1.62 1.439 2.452 1.988 4.073 2.55-.463-1.784-.62-2.866-1.814-4.65-1.656-2.472-3.269-5.128-5.275-7.601 3.693-.657 7.383-.834 11.125-.834 3.741 0 7.432.177 11.124.834-2.005 2.473-3.618 5.129-5.275 7.601-1.194 1.784-1.35 2.866-1.813 4.65 1.62-.562 2.452-1.111 4.073-2.55 1.924-1.709 3.322-3.741 5.246-6.01l-.131 22.171c-1.35-1.633-2.784-3.178-4.419-4.507-1.448-1.175-3.053-2.181-4.9-2.93 0 0-.148 2.221.262 3.508.356 1.118.897 2.284 1.706 3.087 1.436 1.425 2.528 2.277 4.384 2.947 1.507.545 4.271.823 5.861.803 1.906-.024 3.499-.318 5.266-1.083 1.631-.707 3.076-1.659 4.047-3.228.397-.64.734-1.463.703-2.254l-.101-2.576c-.024-.613-.425-1.611-.996-1.662-.545-.048-.939.416-1.22.835-.637.948-.424 2.297-.791 3.397-.404 1.214-1.088 2.145-2.151 2.752-.886.505-2.943.483-2.943.483l.83-2.649c.586-1.869-.484-3.375-.775-5.321-.187-1.253-.245-2.642.248-3.797.533-1.249 1.523-2.429 2.725-2.909.439-.175.952-.166 1.415-.095.656.099 2.586.946 2.586.946s-.06-2.457.109-3.619c.207-1.409.939-3.15 1.653-4.355 1.186-2.001 3-3.806 3.184-4.003.19.201 1.864 2.079 2.917 4.163.634 1.255 1.76 3.887 1.874 5.308.094 1.172-.281 3.105-.281 3.105s1.306-.45 1.967-.5c.468-.036.979-.007 1.406.2 1.168.569 2.079 1.82 2.529 3.105.416 1.188.269 2.57 0 3.806-.417 1.92-2.149 3.401-1.686 5.309l.656 2.704s-2.054-.131-2.905-.701c-1.021-.684-1.643-1.664-1.967-2.905-.294-1.125.291-2.379 0-3.505-.146-.563-.297-1.511-.844-1.503-.573.009-1.28.876-1.286 1.489l-.024 2.862c-.015 1.666 1.085 3.144 2.29 4.262 1.679 1.556 3.595 2.428 6.236 2.172 3.927-.381 7.489-4.254 9.045-7.39-7.765 1.574-6.193 2.227-9.15 2.781l4.872-18.341c1.443 4.531 2.799 9.098 6.989 12.454.745-4.919-1.36-10.872-3.389-16.982 4.988.253 9.485 1.031 13.344 2.49-3.348 6.258-6.029 12.226-8.36 18.119-3.594 6.504-8.075 9.712-12.879 9.989-2.363.136-4.613.014-6.889-1.339-1.781-1.057-3.651-2.488-5.12-4.526 0 0-3.022 2.86-4.918 3.842-2.182 1.131-4.673 1.881-7.094 2.023-2.503.146-5.838-.307-8.229-1.113-2.395-.807-3.621-1.834-5.485-3.539-1.343-1.227-3.526-4.82-3.526-4.82Z"/><path fill="#FED100" fill-rule="evenodd" d="M808.314 490.725c-4.803-.278-9.284-3.509-12.879-10.06-2.331-5.936-5.011-11.946-8.359-18.249 3.858-1.47 8.355-2.254 13.343-2.508-2.029 6.154-4.133 12.15-3.389 17.104 4.191-3.38 5.546-7.98 6.989-12.543l4.872 18.472c-2.957-.558-1.384-1.216-9.149-2.801 1.556 3.159 5.117 7.059 9.044 7.443Zm82.051-3.142c3.927-.384 7.489-4.284 9.045-7.443-7.765 1.585-6.193 2.243-9.15 2.801l4.872-18.472c1.443 4.563 2.799 9.163 6.989 12.543.745-4.954-1.36-10.95-3.389-17.104 4.988.254 9.485 1.038 13.344 2.508-3.348 6.303-6.029 12.313-8.36 18.249-3.594 6.551-8.075 9.782-12.879 10.06l-.092.183Z"/><path fill="#FED100" fill-rule="evenodd" d="M831.968 491.005c-2.399-.144-4.868-.909-7.03-2.06-1.88-1.001-4.874-3.914-4.874-3.914-1.456 2.076-3.31 3.534-5.074 4.611-2.257 1.378-4.486 1.502-6.828 1.363l-.082.902.55-4.08c2.617.262 4.516-.627 6.18-2.212 1.195-1.139 2.284-2.645 2.27-4.342l-.025-2.915c-.005-.625-.706-1.508-1.274-1.517-.542-.008-.691.957-.836 1.53-.289 1.148.292 2.425 0 3.572-.321 1.264-.938 2.262-1.95 2.958-.843.581-2.878.715-2.878.715l.65-2.755c.458-1.944-1.258-3.452-1.671-5.408-.266-1.259-.413-2.667 0-3.877.446-1.31 1.349-2.584 2.507-3.163.422-.212.929-.241 1.392-.204.655.051 1.95.51 1.95.51s-.372-1.97-.278-3.163c.113-1.448 1.228-4.13 1.857-5.408 1.043-2.123 2.702-4.036 2.891-4.241.182.201 1.98 2.04 3.155 4.078.708 1.227 1.433 3.001 1.638 4.436.168 1.184.108 3.687.108 3.687s1.912-.863 2.563-.964c.459-.072.967-.081 1.402.097 1.192.489 2.173 1.692 2.701 2.964.488 1.176.431 2.591.245 3.868-.288 1.982-1.348 3.516-.767 5.42l.822 2.699s-2.039.022-2.916-.493c-1.054-.618-1.732-1.566-2.133-2.802-.363-1.122-.152-2.495-.783-3.461-.279-.427-.669-.9-1.209-.851-.566.052-.964 1.069-.987 1.693l-.101 2.624c-.03.806.304 1.644.697 2.297.962 1.598 2.395 2.567 4.011 3.287 1.751.78 3.33 1.08 5.219 1.104Z"/><path fill-rule="evenodd" d="m880.56 481.491-.055-.101c-.067-1.225.318-3.322.318-3.322.215-1.045 1.047-2.162 2.077-2.563.556-.217 1.23-.3 1.828.015.364.191.658.34.9.611.242.27.392.625.554 1.132.237.741.134 1.513.014 2.175-.198 1.092-.176 2.047.11 2.786.203.522.611.914 1.136 1.252-.098-.373-.168-.554-.222-.968a3.692 3.692 0 0 1 .236-1.803c.38-.967.905-1.73 1.26-2.578.338-.809.515-1.726.457-2.592-.048-.715-.245-1.454-.623-1.967-.411-.557-1.037-1.019-1.662-1.148-.556-.114-1.469.09-2.202.343-.732.254-1.287.537-1.287.537l-.651.327.111-.759c.38-2.556.717-3.854 0-6.243-.295-.983-.788-2.067-1.62-3.323-.405-.61-.857-1.339-1.371-2.012-1.342 1.644-2.277 3.309-2.811 4.992-.585 1.842-.608 4.291-.471 6.258l.055.789-.623-.402s-.708-.467-1.565-.909c-.856-.441-1.899-.831-2.34-.789-.83.078-1.384.505-1.924 1.251-.459.633-.558 1.183-.651 2.056-.059.552.07 1.59.152 2.265.096.791.529 1.623.651 2.622.04.331.135.59.208.909.072.319.108.694.027 1.133-.055.303-.139.522-.249.894.212-.111.358-.167.471-.254.411-.317.577-.881.845-1.564.143-.368.175-.698.193-1.088.019-.389.037-.847.222-1.356.316-.868.689-1.899 1.509-2.533a2.566 2.566 0 0 1 2.354-.402c.466.154.799.464 1.039.82.239.355.4.744.568 1.132.214.496.342 1.238.443 1.892.1.654.152 1.207.152 1.207l.014.06-.014.074-.572 2.046-.73-.176.554-1.957a31.059 31.059 0 0 0-.152-1.118c-.097-.63-.243-1.381-.374-1.684-.171-.396-.326-.741-.498-.998-.173-.257-.349-.421-.651-.521-.542-.18-1.246-.07-1.703.283-.581.448-.934 1.316-1.247 2.175-.136.373-.147.709-.166 1.103-.019.393-.038.851-.235 1.356-.245.625-.447 1.396-1.108 1.907-.487.376-1.371.745-1.371.745l-.775.342.277-.849s.39-1.246.47-1.683a1.798 1.798 0 0 0-.027-.79c-.061-.268-.171-.579-.222-.998-.096-.791-.529-1.623-.651-2.623-.079-.651-.235-1.681-.152-2.458.097-.907.238-1.693.803-2.474.619-.854 1.403-1.45 2.451-1.549.829-.078 1.848.403 2.742.864.575.297.75.433 1.038.611-.093-1.888-.065-4.065.513-5.885.612-1.93 1.661-3.832 3.254-5.677l.277-.313.277.313c.74.857 1.246 1.798 1.703 2.488.871 1.315 1.411 2.48 1.731 3.546.685 2.283.434 3.841.111 5.945.252-.114.34-.177.775-.328.783-.271 1.738-.527 2.562-.357.842.173 1.601.728 2.118 1.43.514.697.734 1.588.789 2.414.07 1.025-.141 2.074-.526 2.995-.398.952-.925 1.711-1.26 2.562-.168.429-.251.927-.194 1.371.086.666.416 1.743.416 1.743l.235.76-.72-.253c-1.149-.42-1.902-1.18-2.271-2.131-.369-.951-.367-2.061-.152-3.248.113-.623.173-1.246.014-1.743-.148-.46-.255-.685-.388-.834-.133-.149-.338-.261-.692-.447-.328-.173-.834-.146-1.247.014-.684.267-1.504 1.253-1.578 1.952-.131 1.235-.457 2.49-1.011 3.273Zm21.601-1.455.194-.418-.415-.149c-3.093-1.053-5.948-.256-8.641.969a68.052 68.052 0 0 0 2.507-9.595c2.935 5.675 5.426 7.531 7.768 8.686l.429.209.097-.507c.699-3.875.753-9.037-2.202-16.717 3.311.185 6.603.612 9.873 2.175l.305-.745c-3.59-1.716-7.176-2.143-10.718-2.309l-.609-.03.249.596c3.034 7.579 3.035 12.512 2.423 16.315-2.25-1.178-4.528-2.958-7.435-8.925l-.513-1.043-.194 1.162c-.631 3.762-1.617 7.529-2.949 11.294l-.332.924.83-.417c2.72-1.328 5.469-2.192 8.433-1.356l.073.049Zm-103.271.119c2.96-.831 5.703.029 8.419 1.356l.831.417-.318-.924a67.158 67.158 0 0 1-2.95-11.294l-.194-1.162-.512 1.043c-2.909 5.969-5.198 7.747-7.45 8.925-.611-3.803-.597-8.736 2.437-16.315l.236-.596-.596.03c-3.542.166-7.127.593-10.717 2.309l.304.745c3.274-1.565 6.558-1.991 9.873-2.175-2.954 7.68-2.9 12.842-2.201 16.717l.083.507.443-.209c2.34-1.154 4.835-3.006 7.768-8.672a67.933 67.933 0 0 0 2.506 9.581c-2.692-1.225-5.548-2.022-8.64-.969l-.416.149.194.418-.08.043.98.076Zm24.319 1.801-.433-1.741c.008-.074.049-.492.139-1.073.097-.63.257-1.382.387-1.684.172-.397.326-.741.499-.998s.349-.421.651-.522c.542-.179 1.232-.07 1.689.284.581.448.947 1.316 1.26 2.175.136.373.148.709.167 1.102.018.394.037.851.235 1.356.244.626.447 1.397 1.108 1.907.487.377 1.37.745 1.37.745l.762.343-.263-.849s-.39-1.246-.471-1.684a1.778 1.778 0 0 1 .028-.789c.06-.268.156-.579.207-.999.097-.791.53-1.622.651-2.622.08-.652.25-1.681.166-2.459-.096-.906-.238-1.693-.803-2.473-.618-.854-1.402-1.451-2.451-1.549-.828-.079-1.847.403-2.741.864-.575.296-.75.433-1.039.611.094-1.888.066-4.066-.512-5.886-.612-1.929-1.662-3.831-3.254-5.676l-.277-.313-.277.313c-.74.857-1.26 1.798-1.717 2.488-.872 1.314-1.397 2.48-1.717 3.546-.685 2.283-.434 3.841-.111 5.945-.252-.115-.336-.176-.775-.328-.783-.271-1.738-.527-2.562-.358-.842.174-1.601.729-2.119 1.431-.513.697-.733 1.587-.789 2.414-.069 1.025.141 2.074.526 2.994.399.953.926 1.712 1.26 2.563.169.429.238.926.18 1.371-.086.665-.401 1.743-.401 1.743l-.236.76.72-.253c1.15-.42 1.902-1.18 2.271-2.131.369-.951.368-2.061.153-3.248-.113-.623-.173-1.246-.014-1.743.147-.461.255-.686.388-.835.133-.149.323-.26.678-.447.328-.172.847-.146 1.26.015.685.267 1.432 1.264 1.579 1.952v.015c.003.02.357 2.149.304 3.114l.889.169c-.074-1.349-.459-3.447-.459-3.447-.215-1.044-1.033-2.161-2.064-2.563-.555-.216-1.244-.299-1.841.015-.365.192-.645.341-.886.611-.242.27-.406.626-.568 1.132-.237.741-.134 1.514-.014 2.176.198 1.092.176 2.047-.111 2.786-.202.522-.596.913-1.121 1.251.097-.373.168-.554.221-.968a3.704 3.704 0 0 0-.235-1.803c-.381-.967-.905-1.729-1.26-2.577-.339-.81-.53-1.726-.471-2.593.048-.715.244-1.453.623-1.967.411-.557 1.051-1.019 1.676-1.147.555-.114 1.455.089 2.187.343.733.253 1.302.536 1.302.536l.651.328-.125-.76c-.381-2.556-.703-3.853.014-6.243.295-.982.773-2.066 1.606-3.323.405-.61.87-1.338 1.385-2.011 1.341 1.643 2.277 3.309 2.811 4.991.584 1.842.594 4.291.457 6.258l-.042.79.623-.402s.695-.468 1.551-.909c.857-.442 1.914-.831 2.354-.79.831.078 1.385.505 1.925 1.252.459.633.557 1.182.651 2.056.059.552-.084 1.59-.166 2.264-.097.791-.516 1.623-.637 2.623-.041.33-.136.59-.208.909a2.75 2.75 0 0 0-.042 1.132c.056.303.14.523.25.894-.213-.111-.359-.166-.471-.253-.411-.318-.578-.881-.845-1.565-.143-.367-.161-.698-.18-1.087-.018-.39-.036-.848-.221-1.356-.317-.869-.689-1.9-1.51-2.533a2.56 2.56 0 0 0-2.354-.402 2.045 2.045 0 0 0-1.052.819c-.24.356-.387.745-.554 1.132-.214.497-.342 1.239-.443 1.893-.101.654-.166 1.207-.166 1.207v.059l.014.075.446 1.786.221.026.513-.205Zm28.66-6.599.014-.506.457.119c2.107.568 3.718 1.336 5.054 2.19 1.696 1.083 2.948 2.299 4.265 3.472l.221-13.455c-1.122 1.334-2.175 2.762-3.724 3.904-1.266.933-3.638 2.159-5.858 2.429l-.526.059.111-.551c.312-1.516.303-2.569 1.011-4.365.671-1.705 2.086-4.176 4.902-8.315-2.435-.289-4.557-.61-7.727-.61-3.169 0-5.279.321-7.713.61 2.816 4.139 4.231 6.61 4.902 8.315.707 1.796.698 2.849 1.011 4.365l.111.551-.527-.059c-2.219-.27-4.592-1.496-5.857-2.429-1.543-1.138-2.607-2.56-3.725-3.889l.222 13.425c1.311-1.169 2.575-2.378 4.265-3.457 1.336-.854 2.933-1.622 5.04-2.19l.471-.119v.506l-.759.571c-1.779.54-3.202 1.19-4.365 1.933-1.862 1.189-3.208 2.578-4.791 3.933l-.595.507-.014-.82-.235-15.347-.028-1.013.665.716c1.461 1.585 2.556 3.314 4.264 4.574 1.054.776 3.118 1.815 5.013 2.175-.211-1.222-.304-2.178-.872-3.621-.666-1.69-2.036-4.167-5.165-8.716l-.388-.566.651-.074c2.696-.301 4.921-.701 8.419-.701s5.723.4 8.419.701l.665.074-.388.566c-3.129 4.55-4.513 7.027-5.179 8.717-.57 1.448-.646 2.406-.859 3.635 1.896-.36 3.946-1.413 4.999-2.19 1.708-1.259 2.818-2.988 4.279-4.574l.651-.715-.014 1.013-.249 15.346v.82l-.61-.507c-1.582-1.355-2.914-2.744-4.777-3.933-1.163-.743-2.585-1.393-4.362-1.922Z"/><path fill="none" stroke="#000" stroke-miterlimit="8" stroke-width="0.541207" d="M850.076 481.894s-2.184 3.593-3.526 4.82c-1.865 1.705-3.091 2.732-5.486 3.539-2.391.806-5.726 1.259-8.229 1.113-2.421-.142-4.911-.892-7.093-2.023-1.897-.982-4.919-3.842-4.919-3.842-1.469 2.038-3.339 3.469-5.119 4.526-2.277 1.353-4.527 1.475-6.89 1.339-4.803-.277-9.284-3.485-12.879-9.989-2.331-5.893-5.011-11.861-8.359-18.118 3.858-1.46 8.355-2.238 13.343-2.491-2.029 6.111-4.133 12.063-3.389 16.982 4.191-3.355 5.546-7.923 6.989-12.454l4.872 18.341c-2.957-.554-1.384-1.207-9.149-2.781 1.556 3.136 5.118 7.009 9.044 7.39 2.641.257 4.558-.615 6.236-2.172 1.206-1.118 2.305-2.596 2.291-4.262l-.025-2.862c-.005-.613-.713-1.48-1.286-1.489-.546-.008-.698.94-.843 1.503-.292 1.126.294 2.38 0 3.505-.325 1.241-.947 2.221-1.968 2.905-.85.57-2.904.701-2.904.701l.656-2.704c.462-1.908-1.27-3.389-1.687-5.309-.268-1.236-.416-2.618 0-3.806.45-1.285 1.361-2.536 2.53-3.105.426-.207.938-.236 1.405-.2.661.05 1.968.501 1.968.501s-.375-1.934-.281-3.105c.113-1.422 1.239-4.054 1.873-5.309 1.053-2.084 2.727-3.962 2.918-4.163.183.197 1.998 2.002 3.183 4.003.714 1.205 1.447 2.946 1.653 4.355.17 1.162.109 3.619.109 3.619s1.93-.847 2.586-.946c.464-.07.976-.08 1.415.095 1.203.48 2.193 1.66 2.726 2.909.492 1.155.434 2.544.247 3.797-.291 1.946-1.36 3.452-.775 5.321l.831 2.649s-2.058.022-2.943-.483c-1.064-.607-1.748-1.538-2.152-2.752-.367-1.1-.154-2.449-.79-3.396-.282-.42-.676-.884-1.22-.836-.572.052-.973 1.049-.997 1.662l-.101 2.576c-.031.791.306 1.614.703 2.254.971 1.569 2.417 2.521 4.048 3.228 1.766.765 3.36 1.059 5.266 1.083 1.59.02 4.354-.258 5.86-.803 1.856-.67 2.948-1.522 4.384-2.946.809-.804 1.35-1.97 1.706-3.088.411-1.287.263-3.508.263-3.508-1.847.749-3.453 1.755-4.9 2.93-1.636 1.329-3.069 2.874-4.42 4.507l-.131-22.171c1.924 2.269 3.323 4.301 5.247 6.01 1.62 1.439 2.452 1.988 4.073 2.55-.463-1.784-.62-2.866-1.814-4.649-1.656-2.473-3.269-5.129-5.275-7.602 3.693-.657 7.383-.834 11.125-.834 3.741 0 7.432.177 11.124.834-2.005 2.473-3.618 5.129-5.274 7.602-1.195 1.783-1.351 2.865-1.814 4.649 1.62-.562 2.453-1.111 4.073-2.55 1.924-1.709 3.323-3.741 5.247-6.01l-.132 22.171c-1.35-1.633-2.784-3.178-4.419-4.507-1.448-1.175-3.053-2.181-4.9-2.93 0 0-.148 2.221.262 3.508.356 1.118.897 2.284 1.707 3.088 1.435 1.424 2.527 2.276 4.383 2.946 1.507.545 4.271.823 5.861.803 1.906-.023 3.499-.318 5.266-1.083 1.631-.707 3.076-1.659 4.048-3.228.396-.64.733-1.463.702-2.254l-.101-2.576c-.024-.613-.425-1.61-.996-1.662-.545-.048-.939.416-1.22.836-.637.947-.424 2.296-.791 3.396-.404 1.214-1.088 2.145-2.151 2.752-.886.505-2.943.483-2.943.483l.83-2.649c.586-1.869-.484-3.375-.775-5.321-.187-1.253-.245-2.642.248-3.797.533-1.249 1.523-2.429 2.725-2.909.439-.175.952-.165 1.415-.095.656.099 2.586.946 2.586.946s-.06-2.457.109-3.619c.207-1.409.939-3.15 1.653-4.355 1.186-2.001 3-3.806 3.184-4.003.191.201 1.864 2.079 2.917 4.163.634 1.255 1.76 3.887 1.874 5.309.094 1.171-.281 3.105-.281 3.105s1.306-.451 1.967-.501c.468-.036.979-.007 1.406.2 1.168.569 2.079 1.82 2.529 3.105.417 1.188.269 2.57 0 3.806-.416 1.92-2.149 3.401-1.686 5.309l.656 2.704s-2.054-.131-2.905-.701c-1.021-.684-1.643-1.664-1.967-2.905-.294-1.125.292-2.379 0-3.505-.146-.563-.297-1.511-.843-1.503-.574.009-1.281.876-1.286 1.489l-.025 2.862c-.015 1.666 1.085 3.144 2.29 4.262 1.679 1.557 3.595 2.429 6.236 2.172 3.927-.381 7.489-4.254 9.045-7.39-7.765 1.574-6.193 2.227-9.15 2.781l4.872-18.341c1.443 4.531 2.799 9.099 6.989 12.454.745-4.919-1.36-10.871-3.389-16.982 4.988.253 9.485 1.031 13.344 2.491-3.348 6.257-6.029 12.225-8.36 18.118-3.594 6.504-8.075 9.712-12.879 9.989-2.363.136-4.612.014-6.889-1.339-1.781-1.057-3.651-2.488-5.12-4.526 0 0-3.022 2.86-4.918 3.842-2.182 1.131-4.673 1.881-7.094 2.023-2.503.146-5.838-.307-8.229-1.113-2.395-.807-3.621-1.834-5.485-3.539-1.343-1.227-3.526-4.82-3.526-4.82Z"/><path fill="#FFF" fill-rule="evenodd" stroke="#000" stroke-miterlimit="8" stroke-width="0.541312" d="M853.258 474.434c.003 2.206-1.562 3.997-3.495 4-1.933.003-3.502-1.782-3.505-3.989v-.011c-.002-2.206 1.562-3.997 3.495-4 1.934-.003 3.503 1.783 3.505 3.989v.011ZM799.255 479.435c.003 2.206-1.562 3.997-3.495 4-1.933.003-3.502-1.783-3.505-3.989v-.011c-.002-2.206 1.562-3.997 3.495-4 1.933-.003 3.503 1.782 3.505 3.989v.011ZM900.739 479.435c-.003 2.206 1.562 3.997 3.495 4 1.933.003 3.502-1.783 3.505-3.99v-.01c.002-2.207-1.562-3.997-3.495-4-1.933-.004-3.503 1.782-3.505 3.989v.01Z"/><path fill="#FED100" fill-rule="evenodd" d="m816.945 479.194 7.481-.437 1.08 1.757-.867 1.871-7.482.437-1.304-1.744Z"/><path fill="none" stroke="#000" stroke-miterlimit="8" stroke-width="0.541207" d="m816.945 479.194 7.481-.437 1.08 1.757-.867 1.871-7.482.437-1.304-1.744Z"/><path fill="#F6E078" fill-rule="evenodd" d="m882.38 479.194-7.482-.438-1.08 1.758.868 1.87 7.482.438 1.304-1.744Z"/><path fill="#FED100" fill-rule="evenodd" stroke="#000" stroke-miterlimit="8" stroke-width="0.541207" d="m882.38 479.194-7.482-.438-1.08 1.758.868 1.87 7.482.438 1.304-1.744Z"/><path fill="#FED100" fill-rule="evenodd" d="M802.167 510.927s5.353-.422 14.784-.994c9.43-.572 19.534-.872 24.688-.872h15.712c4.992 0 15.334.3 24.689.872 9.354.572 14.675 1.052 14.675 1.052l3.28-15.742s-33.609-3.258-50.5-3.258-50.5 3.258-50.5 3.258Z"/><path fill="none" stroke="#000" stroke-miterlimit="8" stroke-width="0.541207" d="M849.788 492.485a424.91 424.91 0 0 1 50.707 2.995l-3.085 16.005c-16.763-1.624-30.484-2.058-47.432-2.201m.224-16.799a424.91 424.91 0 0 0-50.707 2.995l3.085 16.005c16.763-1.624 30.484-2.058 47.432-2.201"/><path fill="#FED100" fill-rule="evenodd" d="m816.81 491.932-.014.013h-.014c-6.021.488-12.989 1.021-19.07 1.955-.859 1.159-.931 2.216.634 3.061 5.837-.897 12.72-1.443 18.745-1.931a455.704 455.704 0 0 1 24.629-.96h15.762c4.915 0 15.297.338 24.628.972 9.288.63 18.774 1.919 18.774 1.919 1.618-.932 1.442-1.975.563-3.061 0 0-9.574-1.324-19.056-1.968-9.439-.64-19.808-.971-24.909-.971H841.72c-8.316.028-16.618.47-24.91.971Z"/><path fill="none" stroke="#000" stroke-miterlimit="8" stroke-width="0.543412" d="m817.31 492.433-.014.012h-.014c-6.021.488-12.989 1.021-19.069 1.955-.86 1.159-.932 2.216.633 3.061 5.837-.897 12.72-1.443 18.745-1.931a456.73 456.73 0 0 1 24.629-.96h15.762c4.915 0 15.297.338 24.628.972 9.288.63 18.774 1.919 18.774 1.919 1.618-.932 1.443-1.975.563-3.061 0 0-9.574-1.324-19.056-1.967-9.439-.641-19.808-.972-24.909-.972H842.22c-8.316.028-16.618.47-24.91.972Z"/><path fill="#FED100" fill-rule="evenodd" d="m819.308 508.778-.013.01h-.013c-5.562.407-11.999.851-17.616 1.629-.794.966-.86 1.847.585 2.551 5.393-.747 11.751-1.202 17.317-1.609 7.549-.445 15.16-.723 22.752-.8h14.561c4.541 0 14.132.282 22.752.81 8.58.525 17.343 1.599 17.343 1.599 1.495-.777 1.333-1.645.52-2.551 0 0-8.844-1.103-17.603-1.639-8.72-.534-18.299-.81-23.012-.81H842.32c-7.682.023-15.352.392-23.012.81Z"/><path fill="none" stroke="#000" stroke-miterlimit="8" stroke-width="0.541837" d="m819.808 509.15-.013.01h-.013c-5.562.419-11.999.877-17.616 1.679-.794.995-.86 1.903.585 2.628 5.393-.77 11.751-1.238 17.317-1.658 7.549-.459 15.16-.593 22.752-.672h14.561c4.541 0 14.132.139 22.752.682 8.58.542 17.343 1.648 17.343 1.648 1.496-.8 1.333-1.695.52-2.628 0 0-8.844-1.137-17.603-1.689-8.72-.551-18.299-.683-23.012-.683H842.82c-7.682.024-15.352.252-23.012.683Z"/><path fill="none" stroke="#000" stroke-miterlimit="8" stroke-width="0.543412" d="M860.245 495.433V506.433h-20V495.433Z"/><path fill="#012169" fill-rule="evenodd" stroke="#A0892C" stroke-miterlimit="8" stroke-width="0.543412" d="M858.24 497.434v8h-16v-8Z"/><path fill="#2B96F6" fill-rule="evenodd" stroke="#A0892C" stroke-miterlimit="8" stroke-width="0.543412" d="M857.249 505.144a1.212 1.212 0 0 1-.799.287h-13.069c-.313 0-.595-.109-.8-.287a.921.921 0 0 1-.33-.696v-6.318c0-.272.126-.518.33-.696.205-.178 14.872 7.532 14.668 7.71Z"/><path fill="#012169" fill-rule="evenodd" stroke="#000" stroke-miterlimit="8" stroke-width="0.543412" d="M857.249 505.144a1.212 1.212 0 0 1-.799.287h-13.069c-.313 0-.595-.109-.8-.287a.921.921 0 0 1-.33-.696v-6.318c0-.272.126-.518.33-.696.104-.09 3.936 1.853 7.657 3.811 3.608 1.899 7.112 3.812 7.011 3.899Z"/><path fill="#012169" fill-rule="evenodd" stroke="#000" stroke-miterlimit="8" stroke-width="0.543412" d="M857.883 497.434a.903.903 0 0 1 .352.696v6.318a.902.902 0 0 1-.352.696 1.349 1.349 0 0 1-.853.287h-13.941c-.333 0-.635-.109-.852-.287-.218-.178 15.428-7.888 15.646-7.71Z"/><path fill="#012169" fill-rule="evenodd" stroke="#000" stroke-miterlimit="8" stroke-width="0.543412" d="M857.242 505.173a1.334 1.334 0 0 1-.818.263h-13.359c-.32 0-.609-.1-.817-.263-.106-.083 3.702-1.944 7.506-3.737 0 0 7.696 3.574 7.488 3.737Z"/><path fill="none" stroke="#000" stroke-miterlimit="8" stroke-width="0.543412" d="M858.24 497.434v8h-16v-8Z"/><path fill="#012169" fill-rule="evenodd" stroke="#000" stroke-miterlimit="8" stroke-width="0.543412" d="M845.239 499.435h9v4h-9Z"/><path fill="#FED100" fill-rule="evenodd" stroke="#000" stroke-miterlimit="8" stroke-width="0.541312" d="m830.144 497.5.644 3.64.068.383.644 3.64-13.644 1.337-.644-3.64-.068-.383-.644-3.64Z"/><path fill="#306947" fill-rule="evenodd" d="m828.963 498 .518 2.917.519 2.916L818.038 505l-.519-2.917-.519-2.916Z"/><path fill="none" stroke="#000" stroke-miterlimit="8" stroke-width="0.541312" d="m829.463 498.5.518 2.917.519 2.916-11.962 1.167-.519-2.917-.519-2.916Z"/><path fill="#FED100" fill-rule="evenodd" stroke="#000" stroke-miterlimit="8" stroke-width="0.542467" d="m801.408 509.309 8.166-6.833-9.969-3.402-.151 5.605Z"/><path fill="#C8102E" fill-rule="evenodd" d="m801.108 507.622 5.292-4.989-6.46-2.484-1.384 3.936Z"/><path fill="#C8102E" fill-rule="evenodd" d="m800.674 507.595 5.682-5.512-8.356 1.591Z"/><path fill="none" stroke="#000" stroke-miterlimit="8" stroke-width="0.542467" d="m807.5 502.513-9 1.974M801.648 508.11l5.256-4.982-6.416-2.481-1.447 3.869Z"/><path fill="#FFF" fill-rule="evenodd" stroke="#000" stroke-miterlimit="8" stroke-width="0.541207" d="M836.291 498.435c.001 1.104-.669 1.999-1.498 2.001-.828.001-1.501-.892-1.502-1.995v-.006c-.001-1.103.67-1.998 1.498-1.999.829-.002 1.501.891 1.502 1.994v.005Z"/><path fill="#FFF" fill-rule="evenodd" stroke="#000" stroke-miterlimit="8" stroke-width="0.540997" d="M837.222 504.436a2 2 0 0 1-4 .005v-.005a1.998 1.998 0 0 1 1.997-2 1.999 1.999 0 0 1 2.003 1.994v.006Z"/><path fill="#FFF" fill-rule="evenodd" stroke="#000" stroke-miterlimit="8" stroke-width="0.541207" d="M814.22 499.436a2 2 0 0 1-4 .005v-.005a1.998 1.998 0 0 1 1.997-2 1.998 1.998 0 0 1 2.003 1.994v.006ZM814.29 505.436c.001 1.103-.669 1.999-1.498 2-.828.001-1.501-.891-1.502-1.995v-.005c-.001-1.103.67-1.999 1.498-2 .828-.002 1.501.891 1.502 1.994v.006Z"/><path fill="#FED100" fill-rule="evenodd" stroke="#000" stroke-miterlimit="8" stroke-width="0.541312" d="m869.856 497.5-.644 3.64-.068.383-.644 3.64 13.644 1.337.644-3.64.068-.383.644-3.64Z"/><path fill="#306947" fill-rule="evenodd" d="m870.038 498-.519 2.917-.519 2.916L880.963 505l.518-2.917.519-2.916Z"/><path fill="none" stroke="#000" stroke-miterlimit="8" stroke-width="0.541312" d="m870.538 498.5-.519 2.917-.519 2.916 11.963 1.167.518-2.917.519-2.916Z"/><path fill="#FED100" fill-rule="evenodd" stroke="#000" stroke-miterlimit="8" stroke-width="0.542467" d="m898.835 509.309-7.486-6.833 9.138-3.402.139 5.605Z"/><path fill="#C8102E" fill-rule="evenodd" d="m898.547 507.622-5.88-4.989 7.178-2.484 1.537 3.936Z"/><path fill="#C8102E" fill-rule="evenodd" d="m898.326 507.595-5.682-5.512 8.356 1.591Z"/><path fill="none" stroke="#000" stroke-miterlimit="8" stroke-width="0.542467" d="m893.5 502.513 8 1.974M899.002 508.11l-5.84-4.982 7.129-2.481 1.608 3.869Z"/><path fill="#FFF" fill-rule="evenodd" stroke="#000" stroke-miterlimit="8" stroke-width="0.541207" d="M863.707 498.435c0 1.104.67 1.999 1.498 2 .829.002 1.501-.89 1.502-1.994v-.006c.002-1.103-.67-1.998-1.498-2-.828-.001-1.5.892-1.502 1.995v.005ZM862.777 504.436a1.999 1.999 0 0 0 1.997 2 1.999 1.999 0 0 0 2.003-1.995v-.005a1.999 1.999 0 0 0-1.998-2 1.999 1.999 0 0 0-2.002 1.994v.006ZM886.706 499.436c0 1.103.67 1.998 1.498 2 .829.001 1.501-.892 1.502-1.995v-.005c.001-1.104-.67-1.999-1.498-2-.828-.002-1.5.891-1.502 1.994v.006ZM885.775 505.436a1.999 1.999 0 0 0 1.997 2 1.999 1.999 0 0 0 2.003-1.995v-.005a1.999 1.999 0 0 0-1.997-2 1.999 1.999 0 0 0-2.003 1.994v.006Z"/><path fill="#FFF" fill-rule="evenodd" d="M0 94h548v288H0Z"/><g clip-path="url(#b)"><g clip-path="url(#c)"><g clip-path="url(#d)"><g clip-path="url(#e)"><path fill="#012169" d="M0 94v283.999h567V94Z"/><path stroke="#FFF" stroke-width="56.7" d="m0 0 567 283.5M567 0 0 283.5" transform="matrix(1 0 0 1.00176 0 94)"/><g clip-path="url(#f)"><path stroke="#C8102E" stroke-width="37.8" d="m0 0 567 283.5M567 0 0 283.5" transform="matrix(1 0 0 1.00176 0 94)"/></g><path stroke="#FFF" stroke-width="94.5" d="M283.5 0v283.5M0 141.75h567" transform="matrix(1 0 0 1.00176 0 94)"/><path stroke="#C8102E" stroke-width="56.7" d="M283.5 0v283.5M0 141.75h567" transform="matrix(1 0 0 1.00176 0 94)"/></g></g></g></g></g></svg>