<svg xmlns="http://www.w3.org/2000/svg" width="1136" height="650" overflow="hidden"><defs><clipPath id="a"><path d="M-1 53h1136v650H-1z"/></clipPath></defs><g clip-path="url(#a)" transform="translate(1 -53)"><path fill="#DA0000" fill-rule="evenodd" d="M0 54h1134v648H0Z"/><path fill="#FFF" fill-rule="evenodd" d="M0 54h1134v432H0Z"/><path fill="#239F40" fill-rule="evenodd" d="M0 54h1134v216H0Z"/><path fill="none" stroke="#FFF" stroke-miterlimit="8" stroke-width="5.03559" d="M15.502 238.011h65.351m-62.838 22.5v-12.5h20.108v10h20.108v-10H45.664m-20.108 10h5.027m50.27 0H68.286v-10h20.108m0-12.5v22.5h20.108v-22.5m-10.054 0v22.5"/><path fill="none" stroke="#FFF" stroke-miterlimit="8" stroke-width="10.0712" d="M15.003 270.013h45.473m5.053 0h45.474M15.003 486.027h45.473m5.053 0h45.474"/><path fill="none" stroke="#FFF" stroke-miterlimit="8" stroke-width="5.03559" d="M15.502 499.026h65.351m-62.838 22.5v-12.5h20.108v10h20.108v-10H45.664m-20.108 10h5.027m50.27 0H68.286v-10h20.108m0-12.5v22.5h20.108v-22.5m-10.054 0v22.5M116.508 238.011h65.351m-62.838 22.5v-12.5h20.108v10h20.108v-10H146.67m-20.108 10h5.027m50.27 0h-12.568v-10h20.108m0-12.5v22.5h20.109v-22.5m-10.054 0v22.5"/><path fill="none" stroke="#FFF" stroke-miterlimit="8" stroke-width="10.0712" d="M116.009 270.013h45.473m5.053 0h45.474M116.009 486.027h45.473m5.053 0h45.474"/><path fill="none" stroke="#FFF" stroke-miterlimit="8" stroke-width="5.03559" d="M116.508 499.026h65.351m-62.838 22.5v-12.5h20.108v10h20.108v-10H146.67m-20.108 10h5.027m50.27 0h-12.568v-10h20.108m0-12.5v22.5h20.109v-22.5m-10.054 0v22.5M217.513 238.011h65.352m-62.838 22.5v-12.5h20.108v10h20.108v-10h-12.567m-20.108 10h5.027m50.27 0h-12.568v-10h20.108m0-12.5v22.5h20.108v-22.5m-10.054 0v22.5"/><path fill="none" stroke="#FFF" stroke-miterlimit="8" stroke-width="10.0712" d="M217.014 270.013h45m5 0h45M217.014 486.027h45m5 0h45"/><path fill="none" stroke="#FFF" stroke-miterlimit="8" stroke-width="5.03559" d="M217.513 499.026h65.352m-62.838 22.5v-12.5h20.108v10h20.108v-10h-12.567m-20.108 10h5.027m50.27 0h-12.568v-10h20.108m0-12.5v22.5h20.108v-22.5m-10.054 0v22.5M317.52 238.011h66.054m-63.514 22.5v-12.5h20.324v10h20.325v-10h-12.703m-20.324 10h5.081m50.811 0h-12.703v-10h20.324m0-12.5v22.5h20.325v-22.5m-10.163 0v22.5"/><path fill="none" stroke="#FFF" stroke-miterlimit="8" stroke-width="10.0712" d="M317.02 270.013h45.474m5.053 0h45.473M317.02 486.027h45.474m5.053 0h45.473"/><path fill="none" stroke="#FFF" stroke-miterlimit="8" stroke-width="5.03559" d="M317.52 499.026h66.054m-63.514 22.5v-12.5h20.324v10h20.325v-10h-12.703m-20.324 10h5.081m50.811 0h-12.703v-10h20.324m0-12.5v22.5h20.325v-22.5m-10.163 0v22.5M418.525 238.011h65.352m-62.838 22.5v-12.5h20.108v10h20.108v-10h-12.568m-20.108 10h5.027m50.271 0h-12.568v-10h20.108m0-12.5v22.5h20.108v-22.5m-10.054 0v22.5"/><path fill="none" stroke="#FFF" stroke-miterlimit="8" stroke-width="10.0712" d="M418.026 270.013H463.5m5.053 0h45.473M418.026 486.027H463.5m5.053 0h45.473"/><path fill="none" stroke="#FFF" stroke-miterlimit="8" stroke-width="5.03559" d="M418.525 499.026h65.352m-62.838 22.5v-12.5h20.108v10h20.108v-10h-12.568m-20.108 10h5.027m50.271 0h-12.568v-10h20.108m0-12.5v22.5h20.108v-22.5m-10.054 0v22.5M519.531 238.011h65.351m-62.837 22.5v-12.5h20.108v10h20.108v-10h-12.568m-20.108 10h5.027m50.27 0h-12.567v-10h20.108m0-12.5v22.5h20.108v-22.5m-10.054 0v22.5"/><path fill="none" stroke="#FFF" stroke-miterlimit="8" stroke-width="10.0712" d="M519.032 270.013h45.474m5.053 0h45.473M519.032 486.027h45.474m5.053 0h45.473"/><path fill="none" stroke="#FFF" stroke-miterlimit="8" stroke-width="5.03559" d="M519.531 499.026h65.351m-62.837 22.5v-12.5h20.108v10h20.108v-10h-12.568m-20.108 10h5.027m50.27 0h-12.567v-10h20.108m0-12.5v22.5h20.108v-22.5m-10.054 0v22.5M620.537 238.011h65.351m-62.838 22.5v-12.5h20.109v10h20.108v-10h-12.568m-20.108 10h5.027m50.27 0h-12.567v-10h20.108m0-12.5v22.5h20.108v-22.5m-10.054 0v22.5"/><path fill="none" stroke="#FFF" stroke-miterlimit="8" stroke-width="10.0712" d="M620.038 270.013h45.474m5.052 0h45.474M620.038 486.027h45.474m5.052 0h45.474"/><path fill="none" stroke="#FFF" stroke-miterlimit="8" stroke-width="5.03559" d="M620.537 499.026h65.351m-62.838 22.5v-12.5h20.109v10h20.108v-10h-12.568m-20.108 10h5.027m50.27 0h-12.567v-10h20.108m0-12.5v22.5h20.108v-22.5m-10.054 0v22.5M721.543 238.011h65.351m-62.838 22.5v-12.5h20.108v10h20.109v-10h-12.568m-20.108 10h5.027m50.27 0h-12.567v-10h20.108m0-12.5v22.5h20.108v-22.5m-10.054 0v22.5"/><path fill="none" stroke="#FFF" stroke-miterlimit="8" stroke-width="10.0712" d="M721.044 270.013h45m5 0h45M721.044 486.027h45m5 0h45"/><path fill="none" stroke="#FFF" stroke-miterlimit="8" stroke-width="5.03559" d="M721.543 499.026h65.351m-62.838 22.5v-12.5h20.108v10h20.109v-10h-12.568m-20.108 10h5.027m50.27 0h-12.567v-10h20.108m0-12.5v22.5h20.108v-22.5m-10.054 0v22.5M821.549 238.011h66.054m-63.513 22.5v-12.5h20.324v10h20.324v-10h-12.702m-20.325 10h5.081m50.811 0h-12.702v-10h20.324m0-12.5v22.5h20.324v-22.5m-10.162 0v22.5"/><path fill="none" stroke="#FFF" stroke-miterlimit="8" stroke-width="10.0712" d="M821.05 270.013h45.474m5.052 0h45.474M821.05 486.027h45.474m5.052 0h45.474"/><path fill="none" stroke="#FFF" stroke-miterlimit="8" stroke-width="5.03559" d="M821.549 499.026h66.054m-63.513 22.5v-12.5h20.324v10h20.324v-10h-12.702m-20.325 10h5.081m50.811 0h-12.702v-10h20.324m0-12.5v22.5h20.324v-22.5m-10.162 0v22.5M922.555 238.011h65.351m-62.838 22.5v-12.5h20.108v10h20.108v-10h-12.567m-20.108 10h5.027m50.27 0h-12.568v-10h20.108m0-12.5v22.5h20.104v-22.5m-10.05 0v22.5"/><path fill="none" stroke="#FFF" stroke-miterlimit="8" stroke-width="10.0712" d="M922.056 270.013h45.473m5.053 0h45.478M922.056 486.027h45.473m5.053 0h45.478"/><path fill="none" stroke="#FFF" stroke-miterlimit="8" stroke-width="5.03559" d="M922.555 499.026h65.351m-62.838 22.5v-12.5h20.108v10h20.108v-10h-12.567m-20.108 10h5.027m50.27 0h-12.568v-10h20.108m0-12.5v22.5h20.104v-22.5m-10.05 0v22.5M1023.56 238.011h65.35m-62.84 22.5v-12.5h20.11v10h20.11v-10h-12.57m-20.11 10h5.03m50.27 0h-12.57v-10h20.11m0-12.5v22.5h20.11v-22.5m-10.05 0v22.5"/><path fill="none" stroke="#FFF" stroke-miterlimit="8" stroke-width="10.0712" d="M1023.06 270.013h45.48m5.05 0h45.47M1023.06 486.027h45.48m5.05 0h45.47"/><path fill="none" stroke="#FFF" stroke-miterlimit="8" stroke-width="5.03559" d="M1023.56 499.026h65.35m-62.84 22.5v-12.5h20.11v10h20.11v-10h-12.57m-20.11 10h5.03m50.27 0h-12.57v-10h20.11m0-12.5v22.5h20.11v-22.5m-10.05 0v22.5"/><path fill="#DA0000" fill-rule="evenodd" d="M523.033 445.381c38.52 12.618 79.892-8.635 92.408-47.47 9.135-28.346.495-59.452-21.915-78.892 24.864 37.095 15.194 87.488-21.599 112.557a79.93 79.93 0 0 1-48.894 13.805"/><path fill="#DA0000" fill-rule="evenodd" d="M617.017 431.019c29.679-17.011 39.832-54.66 22.679-84.092-8.409-14.429-22.358-24.86-38.66-28.908 35.866 26.74 43.082 77.252 16.118 112.82l-.137.18M566.9 459.019l-3.868-81.129 3.868-63.871c2.35 3.443 5.491 6.208 9.132 8.039v47.687l-3.112 80.586ZM565.034 309.537l1.629 1.519c3.735 5.274 11.068 6.542 16.378 2.832 4.453-3.11 6.173-8.851 4.155-13.873-1.138 5.988-6.949 9.927-12.979 8.796a11.107 11.107 0 0 1-7.554-5.312"/><path fill="#DA0000" fill-rule="evenodd" d="M610.967 445.381c-38.52 12.618-79.891-8.635-92.407-47.47-9.136-28.346-.495-59.452 21.915-78.892-24.865 37.095-15.195 87.488 21.599 112.557a79.927 79.927 0 0 0 48.893 13.805"/><path fill="#DA0000" fill-rule="evenodd" d="M516.99 431.019c-29.679-17.011-39.833-54.66-22.68-84.092 8.41-14.43 22.359-24.86 38.66-28.908-35.865 26.74-43.082 77.252-16.117 112.82l.136.18M566.8 459.019l4.166-81.129-4.166-63.87a25.673 25.673 0 0 1-9.834 8.038v47.687l3.351 80.586ZM568.967 309.537l-1.629 1.52c-3.735 5.273-11.067 6.54-16.378 2.831-4.453-3.11-6.172-8.851-4.155-13.873 1.138 5.988 6.95 9.927 12.98 8.796a11.11 11.11 0 0 0 7.553-5.312"/></g></svg>