<svg xmlns="http://www.w3.org/2000/svg" width="1136" height="682" overflow="hidden"><defs><clipPath id="a"><path d="M-1 37h1136v682H-1z"/></clipPath><clipPath id="b"><path d="M0 38h1134v680H0z"/></clipPath><clipPath id="c"><path d="M0 38h1135v680H0z"/></clipPath><clipPath id="d"><path d="M0 38h1135v680H0z"/></clipPath></defs><g clip-path="url(#a)" transform="translate(1 -37)"><g clip-path="url(#b)"><g clip-path="url(#c)"><g clip-path="url(#d)"><path fill="#FFF" d="M0 38h1133.999v680H0Z"/><path stroke="#DF112D" stroke-width="75.5556" d="m0 0 1133.33 680M0 680 1133.33 0" transform="matrix(1.00059 0 0 1 0 38)"/><path fill="#E8112D" stroke="#000" stroke-width="0.578" d="M625.97 101.734c14.564 58.974 6.577 131.809-59.209 172.221-65.79-40.412-73.776-113.247-59.209-172.221 15.507-14.097 85.99-22.79 118.416 0Z" transform="matrix(1.00059 0 0 1 0 38)"/><path fill="#F9DD16" stroke="#000" stroke-width="0.578" d="M566.667 89.894c24.119 0 46.58 6.384 59.821 14.66 2.599-20.334 11.82-40.668 22.698-56.036-11.349-.237-16.435 5.792-16.55 12.058-2.839-8.039-13.952-7.566-17.381-3.192 12.415 8.394 2.838 23.29-8.39 20.216-5.276-1.443-8.063-5.122-9.051-10.462a6.102 6.102 0 0 0 5.704-6.476 6.102 6.102 0 1 0-8.307 6.072c-3.549 5.792-9.913 7.531-14.473 6.255-5.912-1.655-8.395-6.975-8.395-11.704 0-12.294 11.819-14.186 15.368-12.058-.23-8.275-13.237-14.895-17.256-8.038 4.491-8.04 4.257-19.388-3.786-26.954-8.035 7.566-8.273 18.915-3.778 26.953-4.019-6.856-17.025-.236-17.26 8.04 3.544-2.128 15.368-.237 15.368 12.058 0 4.728-2.483 10.048-8.395 11.703-4.56 1.277-10.924-.462-14.478-6.255a6.103 6.103 0 1 0-2.603.405c-.989 5.34-3.781 9.018-9.051 10.461-11.228 3.073-20.804-11.822-8.394-20.216-3.427-4.374-14.537-4.846-17.378 3.192-.121-6.265-5.202-12.295-16.551-12.058 10.874 15.369 20.095 35.702 22.698 56.036 13.241-8.276 35.702-14.66 59.817-14.66Z" transform="matrix(1.00059 0 0 1 0 38)"/><path fill="#F9DD16" stroke="#000" stroke-width="0.578" d="M616.696 147.733c-1.454.346-1.454 2.22-2.216 2.22 3.78-.104 5.617-1.145 6.762-3.053-.831.763-.106 2.22-.383 2.567 2.773-.971 4.093-3.329 3.124-4.925.623.901 2.428 1.387 2.982 1.457-1.943-1.527-.554-4.995-3.679-6.798 1.043-.069 3.055 1.11 3.609 2.497-.485-3.121-.974-5.133-3.54-6.867.276.312 1.736.589 2.359 0-1.662-1.041-2.151-2.775-2.008-3.885.193-1.553-.835-1.873-2.778-1.387-1.749.437-5.755.694-8.113.694-4.855 0-9.088 0-13.112-2.775 6.037 2.497 13.735-2.775 13.735-7.145 0-4.856-5.968-8.809-18.036-6.173-12.069 2.635-26.773 1.525-26.773-2.498s10.541-4.578 15.955-3.745c5.409.832 9.29 1.387 19.42-2.22-2.496.971-10.545 1.248-16.923-.555-6.383-1.803-22.061-1.803-22.199 6.659-.14 8.463 16.693 7.692 31.217 5.55 8.459-1.249 12.899-.417 12.899 2.358 0 2.636-7.767 3.746-13.735 3.052-5.963-.693-12.068-.555-19.143 1.526-5.908 1.737-9.988 0-16.509 1.11-3.161.537-10.822 0-14.602-6.243-2.326 1.665-9.332 5.15-10.509 8.549-1.666 3.122-.554 6.226 1.662 9.278 2.796 3.841-1.385 3.26-4.366 3.399-4.089.19-9.563-.434-12.42-3.676-2.529-2.873-5.898-5.176-8.588-3.046-1.385 1.096-.057 2.539 1.038 2.135 1.085-.399 2.368.404 3.526.911-1.851-.796-3.886-.179-4.68.531-1.094.981.234 2.854 1.56 2.192 1.038-.519 3.171-.865 4.555.404-1.5-.289-3.06-.227-3.807.577-.748.804-.17 1.976 1.444 1.904 2.594-.116 3.258 1.702 5.857 1.328-1.597.208-2.501 1.041-2.917 1.665 2.428-1.11 5.109 1.882 8.256 1.179-1.227.506-3.207 1.712-3.189 2.636 1.87-2.15 14.427 1.665 14.704-3.052.348.971.276 2.428-.692 3.677 1.606-.972 6.798-1.318 8.39-5.064.14 1.109-.067 2.566-1.038 2.913 1.666.545 3.858-.696 6.101-4.023.891-1.32 1.103-2.197.951-3.189 2.224.083 3.835-.475 5.571-1.944 1.804-1.526 3.747 1.248 6.798-.694 3.055-1.942 5.69-.277 7.352-1.248 1.666-.972 3.955.346 5.759-.763 1.805-1.11 4.602.543 7.588-1.816 4.698 1.722 10.181 4.911 23.629 2.44 7.708-1.417 10.126 1.179 10.126 4.717 0 2.427-1.422 2.639-2.497 2.705-4.287.264-6.129-1.605-7.823-1.006-1.135.404-1.827 2.25-.185 2.885-1.357.692-1.181 1.991-.489 2.466.692.476 2.478.044 3.692-.519-1.56.707-3.175 1.976-2.252 3.303.558.805 1.97 1.488 3.29-.231 1.325-1.731 3.748-3.173 5.289-2.944ZM531.276 111.107c-3.885-1.595-5.196-1.638-4.301 1.527.383 1.352 1.316 3.26 2.252 4.127.037-1.318.522-4.959 2.049-5.654Z" transform="matrix(1.00059 0 0 1 0 38)"/><path fill="#F9DD16" stroke="#000" stroke-width="0.578" d="M543.414 111.107c3.886-1.595 5.197-1.638 4.302 1.527-.383 1.352-1.32 3.26-2.257 4.127-.032-1.318-.517-4.959-2.045-5.654Z" transform="matrix(1.00059 0 0 1 0 38)"/><path fill="#F9DD16" stroke="#000" stroke-width="0.578" d="M537.362 108.975c7.352 0 8.271 3.451 8.234 7.751-.032 4.648-2.529 3.052-3.951 9.018-.554 2.333-2.413 2.463-4.283 2.463-1.873 0-3.729-.131-4.287-2.463-1.413-5.966-3.914-4.37-3.948-9.018-.034-4.3.884-7.751 8.24-7.751Z" transform="matrix(1.00059 0 0 1 0 38)"/><path fill="#F9DD16" stroke="#000" stroke-width="0.578" d="M518.409 126.021c-1.873-1.11-3.083-.342-3.844-.133 2.427.624 2.524 3.74 8.076 5.197-1.25-.347-1.942.347-3.124-.278 2.289 1.804 4.855 3.892 10.269 3.954 3.018.035.932 1.596-1.044.694 2.05 2.116 6.106.382 8.672 4.232.485-2.983-4.786-7.7-2.358-11.099-7.486-.319-8.1-4.468-12.415-7.769-3.512-2.684-3.826-5.413-5.377-10.521-.706-2.313-3.415-3.756-4.915-3.208-1.31.479-1.79 1.616-.664 2.467s2.566.966 2.875 3.122c-1.463-1.752-3.655-2.387-4.707-1.291-.642.668-.383 2.225.997 2.366 2.247.231.632 2.423 3.189 4.568-2.266-2.549-4.228-2.78-5.441-1.395-.725.829 0 2.307 1.559 2.149 2.257-.229 4.874 5.495 8.252 6.945ZM578.756 147.455c-1.182.209-.831 2.151-2.428 2.29 3.817 0 5.755-.902 7.56-2.359-.831.486-1.177 1.734-1.247 2.428 2.012-1.734 6.798-1.873 9.295-1.387 2.497.485 2.913-.694 3.812-2.289.905-1.596-.347-2.498-1.592-3.746-1.251-1.249-1.528-2.983-1.251-5.896-6.659-8.879-18.59-4.578-18.728-.694 4.301 4.994 4.855 4.439 8.464 5.133 3.604.694 5.815.692 3.397 2.705-.831.694-4.302.368-7.006.486-6.051.263-8.82-4.179-10.606-1.872-1.472 1.898.046 2.736 3.046 2.635-2.077.015-4.832-.098-4.361 1.837.794 3.259 3.909-.606 5.123.735-1.039-.245-2.654.389-2.714 1.37-.056.981 2.308 2.25 4.906.187 1.422-1.13 3.235-1.553 4.329-1.563Z" transform="matrix(1.00059 0 0 1 0 38)"/><path fill="#F9DD16" stroke="#000" stroke-width="0.578" d="M583.916 133.918c-2.165-.792-4.149-1.276-6.687-.752M551.287 132.889c-1.781 3.827-.701 5.717-.438 7.493M532.319 114.744c1.223.611 1.911-1.117 3.706.718-.494-.535-1.108 1.423-2.483.123M542.3 114.744c-1.223.611-1.911-1.117-3.706.718.494-.535 1.108 1.423 2.483.123" transform="matrix(1.00059 0 0 1 0 38)"/><path fill="#F9DD16" stroke="#000" stroke-width="0.578" d="M538.594 115.462c-.42.347-.462-.276-.143 1.361.59 3.006 1.287 4.412-1.145 4.412-2.483 0-1.731-1.406-1.145-4.412.325-1.637.283-1.014-.14-1.361" transform="matrix(1.00059 0 0 1 0 38)"/><path fill="#FF0016" stroke="#000" stroke-width="0.289" d="M537.344 126.993c1.975 0 3.119-.035 2.81-2.81-.128-1.113 1.352-1.557.831-3.364.554 2.219-3.641 2.008-3.641 1.001 0 1.007-4.196 1.218-3.642-1.001-.521 1.807.956 2.251.831 3.364-.31 2.775.835 2.81 2.811 2.81ZM535.568 121.38l-4.745-1.324M535.568 121.626l-5.298-.044M535.617 121.898l-4.518 1.21M539.123 121.38l4.744-1.324M539.123 121.626l5.298-.044M539.07 121.898l4.518 1.21" transform="matrix(1.00059 0 0 1 0 38)"/><path fill="#0051BA" stroke="#000" stroke-width="0.0600667" d="M512.769 107.184c-1.38-1.718-4.837-.267-4.906 1.865 1.168-1.382 3.074.609 4.112.19.72-.29 1.353-1.356.794-2.055ZM510.978 111.252c-1.38-1.718-4.832-.267-4.901 1.864 1.163-1.381 3.069.609 4.112.19.72-.289 1.353-1.355.789-2.054ZM510.079 116.716c-1.564-1.552-4.832.278-4.661 2.404 1.006-1.504 3.12.26 4.108-.274.683-.369 1.19-1.498.553-2.13ZM511.726 133.649c-1.735-1.361-4.767.832-4.356 2.925.826-1.61 3.129-.102 4.047-.744.637-.446 1.016-1.626.31-2.181ZM511.64 137.355c-2.068-.762-4.283 2.259-3.245 4.123.287-1.785 2.945-1.059 3.623-1.954.471-.62.462-1.858-.378-2.169ZM514.292 140.125c-2.068-.763-4.283 2.258-3.25 4.122.291-1.785 2.949-1.059 3.628-1.954.47-.62.461-1.858-.379-2.168ZM568.465 145.49c-2.068-.763-4.283 2.258-3.244 4.123.29-1.786 2.944-1.059 3.622-1.955.471-.619.462-1.858-.378-2.168ZM571.257 148.003c-2.142-.522-3.997 2.731-2.755 4.465.083-1.807 2.806-1.387 3.378-2.354.397-.669.249-1.899-.623-2.111ZM569.292 141.931c-1.911-1.103-4.606 1.498-3.9 3.511.591-1.71 3.083-.542 3.905-1.309.568-.53.771-1.752-.005-2.201ZM607.833 146.272c-2.141-.522-3.997 2.731-2.755 4.466.087-1.807 2.811-1.388 3.378-2.354.398-.669.25-1.899-.623-2.112ZM607.897 142.87c-1.943-1.037-4.546 1.655-3.775 3.643.531-1.729 3.065-.648 3.859-1.443.549-.55.71-1.778-.084-2.2ZM609.401 149.313c-2.16-.428-3.872 2.903-2.557 4.581.009-1.808 2.746-1.509 3.272-2.499.371-.686.167-1.908-.715-2.082ZM537.502 125.329c1.357 0 1.906.396 1.906 2.847 0 5.193-.06 7.426-1.73 7.426-1.676 0-1.56-2.121-1.56-5.934 0-1.989 0-2.984-.402-2.818 0-1.298.577-1.521 1.786-1.521Z" transform="matrix(1.00059 0 0 1 0 38)"/><path fill="#F9DD16" stroke="#000" stroke-width="0.5202" d="M555.026 132.96c-1.308.311-1.308 1.998-1.994 1.998 3.402-.094 5.055-1.03 6.086-2.748-.748.687-.096 1.998-.345 2.31 2.496-.874 3.684-2.996 2.812-4.432.561.811 2.185 1.248 2.683 1.311-1.748-1.374-.498-4.495-3.31-6.118.938-.063 2.749.998 3.248 2.247-.437-2.809-.877-4.62-3.186-6.18.248.281 1.561.53 2.122 0-1.495-.937-1.935-2.497-1.806-3.496.173-1.398-.752-1.686-2.501-1.249-1.574.393-5.179.624-7.302.624-4.369 0-8.178 0-11.8-2.497 5.433 2.247 12.361-2.497 12.361-6.43 0-4.37-5.371-7.929-16.232-5.556-10.862 2.372-24.096 1.373-24.096-2.248 0-3.621 9.487-4.12 14.359-3.37 4.869.748 8.362 1.248 17.479-1.999-2.247.874-9.491 1.124-15.231-.5-5.745-1.622-19.855-1.622-19.979 5.994-.126 7.616 15.023 6.923 28.095 4.995 7.613-1.124 11.609-.375 11.609 2.122 0 2.372-6.99 3.371-12.361 2.747-5.367-.624-10.862-.499-17.229 1.373-5.317 1.564-8.989 0-14.858.999-2.845.484-9.74 0-13.142-5.619-2.093 1.499-8.399 4.636-9.458 7.695-1.499 2.809-.498 5.603 1.495 8.35 2.517 3.457-1.246 2.934-3.929 3.059-3.68.171-8.606-.391-11.177-3.309-2.277-2.585-5.309-4.658-7.73-2.741-1.246.986-.051 2.285.934 1.921.977-.359 2.131.364 3.174.82-1.666-.716-3.498-.16-4.212.478-.984.883.211 2.569 1.404 1.973.934-.467 2.853-.778 4.099.364-1.349-.26-2.754-.205-3.426.519-.673.724-.153 1.778 1.3 1.713 2.334-.103 2.932 1.532 5.271 1.196-1.437.188-2.251.937-2.625 1.499 2.184-.999 4.598 1.693 7.43 1.061-1.105.455-2.886 1.541-2.87 2.372 1.682-1.935 12.984 1.499 13.234-2.746.312.873.248 2.184-.623 3.308 1.445-.874 6.118-1.186 7.551-4.558.126.999-.061 2.311-.935 2.623 1.5.49 3.473-.627 5.492-3.621.801-1.188.992-1.978.855-2.871 2.002.076 3.452-.427 5.014-1.749 1.624-1.373 3.373 1.124 6.118-.624 2.75-1.748 5.122-.25 6.617-1.124 1.499-.874 3.559.312 5.184-.687 1.624-.999 4.141.489 6.828-1.633 4.229 1.549 9.163 4.419 21.267 2.195 6.936-1.275 9.113 1.061 9.113 4.245 0 2.185-1.28 2.375-2.247 2.435-3.859.238-5.516-1.444-7.041-.905-1.021.364-1.645 2.025-.166 2.596-1.222.623-1.064 1.792-.441 2.22.623.428 2.231.039 3.323-.467-1.404.636-2.857 1.778-2.027 2.972.503.725 1.774 1.339 2.962-.207 1.192-1.558 3.372-2.856 4.76-2.65ZM478.149 99.997c-3.498-1.436-4.677-1.475-3.871 1.373.344 1.218 1.183 2.934 2.027 3.715.033-1.186.469-4.464 1.844-5.088Z" transform="matrix(1.00059 0 0 1 54.94 101.14)"/><path fill="#F9DD16" stroke="#000" stroke-width="0.5202" d="M489.073 99.997c3.497-1.436 4.677-1.475 3.871 1.373-.345 1.218-1.188 2.934-2.031 3.715-.029-1.186-.465-4.464-1.84-5.088Z" transform="matrix(1.00059 0 0 1 54.94 101.14)"/><path fill="#F9DD16" stroke="#000" stroke-width="0.5202" d="M483.626 98.078c6.617 0 7.444 3.105 7.41 6.976-.029 4.183-2.276 2.747-3.555 8.116-.499 2.099-2.172 2.216-3.855 2.216-1.686 0-3.356-.117-3.859-2.216-1.271-5.37-3.522-3.934-3.553-8.117-.03-3.87.796-6.975 7.416-6.975Z" transform="matrix(1.00059 0 0 1 54.94 101.14)"/><path fill="#F9DD16" stroke="#000" stroke-width="0.5202" d="M466.568 113.419c-1.686-.999-2.774-.308-3.46-.12 2.185.561 2.272 3.366 7.269 4.677-1.125-.311-1.748.313-2.812-.249 2.06 1.623 4.37 3.502 9.242 3.558 2.717.031.839 1.436-.939.624 1.844 1.904 5.495.344 7.805 3.809.436-2.685-4.307-6.93-2.123-9.989-6.737-.287-7.289-4.021-11.173-6.992-3.161-2.416-3.443-4.871-4.839-9.469-.635-2.082-3.074-3.38-4.424-2.887-1.179.431-1.611 1.454-.598 2.22 1.014.766 2.31.87 2.588 2.81-1.317-1.577-3.289-2.148-4.237-1.162-.577.601-.344 2.002.898 2.13 2.023.207.569 2.18 2.87 4.11-2.039-2.293-3.805-2.501-4.897-1.255-.652.747 0 2.077 1.404 1.935 2.031-.207 4.386 4.945 7.426 6.25ZM520.88 132.71c-1.063.187-.748 1.935-2.185 2.06 3.435 0 5.18-.812 6.804-2.123-.748.437-1.059 1.561-1.122 2.185 1.811-1.56 6.118-1.685 8.366-1.248 2.247.437 2.621-.624 3.431-2.06.814-1.436-.313-2.248-1.434-3.371-1.125-1.124-1.375-2.685-1.125-5.307-5.994-7.991-16.731-4.12-16.856-.624 3.871 4.494 4.37 3.995 7.618 4.62 3.244.624 5.234.622 3.057 2.434-.748.625-3.871.332-6.305.437-5.446.237-7.938-3.761-9.545-1.684-1.325 1.708.04 2.462 2.741 2.371-1.869.013-4.349-.088-3.925 1.653.714 2.933 3.518-.545 4.61.662-.934-.221-2.388.35-2.442 1.233-.051.883 2.077 2.025 4.415.169 1.28-1.018 2.912-1.399 3.897-1.407Z" transform="matrix(1.00059 0 0 1 54.94 101.14)"/><path fill="#F9DD16" stroke="#000" stroke-width="0.5202" d="M525.524 120.526c-1.948-.713-3.734-1.149-6.018-.677M496.159 119.6c-1.604 3.445-.632 5.145-.395 6.744M479.087 103.27c1.101.55 1.72-1.006 3.336.646-.445-.482-.997 1.28-2.235.111M488.07 103.27c-1.101.55-1.72-1.006-3.335.646.444-.482.996 1.28 2.234.111" transform="matrix(1.00059 0 0 1 54.94 101.14)"/><path fill="#F9DD16" stroke="#000" stroke-width="0.5202" d="M484.735 103.916c-.378.312-.416-.249-.13 1.224.532 2.706 1.159 3.971-1.03 3.971-2.235 0-1.557-1.265-1.03-3.971.292-1.473.255-.912-.126-1.224" transform="matrix(1.00059 0 0 1 54.94 101.14)"/><path fill="#FF0016" stroke="#000" stroke-width="0.2601" d="M483.609 114.293c1.778 0 2.808-.031 2.53-2.528-.116-1.002 1.217-1.401.747-3.028.499 1.998-3.277 1.807-3.277.901 0 .906-3.775 1.097-3.277-.901-.469 1.627.86 2.026.748 3.028-.279 2.497.751 2.528 2.529 2.528ZM482.011 109.242l-4.27-1.191M482.011 109.464l-4.768-.04M482.055 109.708l-4.066 1.089M485.211 109.242l4.27-1.192M485.211 109.464l4.768-.04M485.163 109.708l4.066 1.089" transform="matrix(1.00059 0 0 1 54.94 101.14)"/><path fill="#0051BA" stroke="#000" stroke-width="0.05406" d="M461.492 96.466c-1.242-1.547-4.353-.24-4.415 1.678 1.051-1.244 2.766.548 3.701.17.648-.26 1.217-1.219.714-1.848ZM459.881 100.127c-1.242-1.547-4.349-.24-4.412 1.678 1.047-1.244 2.763.548 3.701.171.648-.261 1.217-1.22.711-1.85ZM459.071 105.044c-1.408-1.397-4.348.251-4.195 2.164.906-1.354 2.808.234 3.697-.247.615-.331 1.072-1.348.498-1.917ZM460.554 120.284c-1.562-1.225-4.291.749-3.921 2.632.743-1.448 2.816-.091 3.643-.669.573-.401.913-1.464.278-1.963ZM460.476 123.62c-1.861-.687-3.855 2.032-2.92 3.71.258-1.607 2.65-.953 3.26-1.759.424-.557.416-1.672-.34-1.951ZM462.862 126.112c-1.86-.686-3.854 2.033-2.924 3.711.262-1.607 2.654-.954 3.265-1.759.423-.558.415-1.673-.341-1.952ZM511.618 130.941c-1.86-.686-3.854 2.033-2.92 3.71.262-1.606 2.65-.953 3.261-1.758.424-.558.416-1.673-.341-1.952ZM514.131 133.203c-1.927-.47-3.597 2.458-2.48 4.018.075-1.626 2.526-1.248 3.041-2.118.357-.602.224-1.709-.561-1.9ZM512.363 127.738c-1.72-.992-4.145 1.348-3.51 3.16.532-1.539 2.775-.488 3.514-1.178.511-.478.694-1.577-.004-1.982ZM547.05 131.645c-1.928-.47-3.597 2.458-2.48 4.019.078-1.626 2.53-1.249 3.041-2.119.357-.602.224-1.709-.561-1.9ZM547.108 128.583c-1.749-.933-4.092 1.49-3.398 3.279.478-1.557 2.758-.583 3.472-1.299.495-.495.64-1.6-.074-1.98ZM548.461 134.382c-1.944-.386-3.485 2.613-2.301 4.123.008-1.628 2.471-1.358 2.945-2.25.333-.617.149-1.717-.644-1.873ZM483.752 112.796c1.221 0 1.715.357 1.715 2.563 0 4.673-.054 6.683-1.557 6.683-1.508 0-1.404-1.909-1.404-5.341 0-1.79 0-2.685-.361-2.536 0-1.168.519-1.369 1.607-1.369Z" transform="matrix(1.00059 0 0 1 54.94 101.14)"/><path fill="#F9DD16" stroke="#000" stroke-width="0.387488" d="M413.429 99.04c-.974.232-.974 1.488-1.485 1.488 2.534-.07 3.765-.768 4.533-2.047-.557.512-.071 1.488-.257 1.721 1.859-.651 2.744-2.232 2.095-3.302.417.604 1.627.93 1.998.977-1.302-1.023-.371-3.349-2.466-4.557.7-.047 2.049.743 2.42 1.674-.325-2.093-.653-3.442-2.373-4.604.185.21 1.163.395 1.581 0-1.114-.698-1.442-1.86-1.346-2.604.129-1.041-.56-1.256-1.862-.93-1.173.293-3.859.465-5.44.465-3.255 0-6.092 0-8.79-1.86 4.047 1.673 9.208-1.86 9.208-4.79 0-3.256-4-5.906-12.091-4.139-8.091 1.767-17.948 1.023-17.948-1.674 0-2.698 7.066-3.07 10.696-2.511 3.626.558 6.228.93 13.019-1.488-1.674.65-7.07.837-11.346-.372-4.279-1.21-14.789-1.21-14.882 4.464-.093 5.673 11.191 5.156 20.928 3.72 5.671-.837 8.648-.279 8.648 1.581 0 1.767-5.208 2.511-9.208 2.046-3.997-.465-8.091-.372-12.834 1.023-3.96 1.165-6.695 0-11.067.745-2.119.36-7.255 0-9.789-4.186-1.56 1.116-6.256 3.453-7.045 5.732-1.117 2.092-.372 4.173 1.114 6.22 1.874 2.575-.929 2.185-2.927 2.278-2.742.127-6.411-.291-8.326-2.465-1.696-1.926-3.954-3.47-5.758-2.042-.928.735-.038 1.702.696 1.432.727-.268 1.587.27 2.364.61-1.241-.533-2.605-.12-3.137.356-.734.658.157 1.914 1.045 1.47.696-.348 2.126-.58 3.054.27-1.005-.193-2.051-.152-2.553.388-.501.539-.113 1.324.969 1.276 1.739-.077 2.184 1.14 3.926.89-1.07.14-1.677.698-1.955 1.117 1.627-.745 3.425 1.261 5.535.79-.823.339-2.151 1.148-2.138 1.767 1.253-1.441 9.672 1.116 9.857-2.046.233.651.185 1.628-.464 2.465 1.077-.651 4.558-.884 5.625-3.395.094.744-.045 1.72-.696 1.953 1.117.365 2.586-.466 4.09-2.697.597-.885.74-1.473.638-2.138 1.491.056 2.571-.318 3.734-1.303 1.21-1.023 2.512.837 4.557-.465 2.049-1.302 3.815-.186 4.929-.837 1.117-.651 2.652.232 3.861-.512 1.21-.744 3.085.365 5.087-1.216 3.15 1.153 6.825 3.291 15.841 1.635 5.167-.95 6.788.79 6.788 3.162 0 1.627-.953 1.77-1.674 1.814-2.874.177-4.108-1.076-5.244-.675-.761.271-1.225 1.509-.124 1.934-.91.464-.792 1.335-.328 1.654.464.319 1.661.029 2.475-.348-1.046.473-2.128 1.324-1.51 2.214.375.54 1.321.997 2.206-.155.888-1.16 2.512-2.127 3.546-1.974ZM356.165 74.486c-2.606-1.07-3.484-1.099-2.884 1.023.257.907.882 2.186 1.51 2.767.025-.883.349-3.325 1.374-3.79Z" transform="matrix(1 0 0 1.11874 185.548 164.698)"/><path fill="#F9DD16" stroke="#000" stroke-width="0.387488" d="M364.302 74.486c2.605-1.07 3.484-1.099 2.883 1.023-.256.907-.884 2.186-1.513 2.767-.021-.883-.346-3.325-1.37-3.79Z" transform="matrix(1 0 0 1.11874 185.548 164.698)"/><path fill="#F9DD16" stroke="#000" stroke-width="0.387488" d="M360.245 73.056c4.928 0 5.544 2.314 5.519 5.197-.021 3.115-1.695 2.046-2.648 6.045-.371 1.564-1.618 1.651-2.871 1.651-1.257 0-2.5-.087-2.875-1.651-.947-4-2.623-2.93-2.646-6.046-.023-2.882.592-5.196 5.523-5.196Z" transform="matrix(1 0 0 1.11874 185.548 164.698)"/><path fill="#F9DD16" stroke="#000" stroke-width="0.387488" d="M347.539 84.484c-1.257-.744-2.067-.23-2.578-.09 1.628.419 1.693 2.508 5.415 3.484-.839-.232-1.303.233-2.095-.185 1.535 1.209 3.255 2.609 6.884 2.65 2.024.023.625 1.07-.699.465 1.374 1.418 4.093.256 5.813 2.837.325-2-3.208-5.162-1.581-7.44-5.018-.214-5.43-2.996-8.322-5.209-2.355-1.8-2.565-3.628-3.605-7.053-.473-1.55-2.289-2.518-3.295-2.15-.879.32-1.2 1.083-.445 1.653.754.57 1.72.648 1.927 2.093-.981-1.174-2.45-1.6-3.156-.865-.43.447-.257 1.491.669 1.586 1.506.155.424 1.624 2.138 3.062-1.519-1.708-2.834-1.863-3.648-.935-.486.556 0 1.547 1.046 1.441 1.513-.154 3.267 3.684 5.532 4.656ZM387.994 98.853c-.792.14-.557 1.442-1.627 1.535 2.559 0 3.858-.605 5.068-1.581-.557.325-.789 1.162-.836 1.627 1.349-1.162 4.558-1.255 6.232-.93 1.673.326 1.952-.465 2.555-1.534.607-1.07-.233-1.674-1.067-2.511-.839-.837-1.025-2-.839-3.953-4.464-5.952-12.462-3.07-12.555-.465 2.883 3.348 3.255 2.976 5.674 3.441 2.417.465 3.899.464 2.277 1.814-.557.465-2.883.246-4.696.325-4.057.177-5.913-2.802-7.11-1.255-.987 1.272.03 1.834 2.042 1.767-1.393.01-3.24-.066-2.924 1.231.532 2.185 2.62-.406 3.434.493-.696-.165-1.779.261-1.819.918-.038.658 1.547 1.509 3.289.126.953-.758 2.169-1.042 2.902-1.048Z" transform="matrix(1 0 0 1.11874 185.548 164.698)"/><path fill="#F9DD16" stroke="#000" stroke-width="0.387488" d="M391.454 89.778c-1.451-.531-2.782-.856-4.483-.504M369.58 89.088c-1.195 2.566-.471 3.833-.294 5.023M356.864 76.924c.819.41 1.281-.75 2.484.481-.331-.359-.742.954-1.665.083M363.555 76.924c-.82.41-1.281-.75-2.485.481.331-.359.743.954 1.665.083" transform="matrix(1 0 0 1.11874 185.548 164.698)"/><path fill="#F9DD16" stroke="#000" stroke-width="0.387488" d="M361.07 77.405c-.281.232-.309-.185-.096.912.396 2.015.863 2.958-.767 2.958-1.665 0-1.161-.943-.768-2.958.218-1.097.19-.68-.093-.912" transform="matrix(1 0 0 1.11874 185.548 164.698)"/><path fill="#FF0016" stroke="#000" stroke-width="0.193744" d="M360.232 85.135c1.324 0 2.091-.023 1.884-1.883-.086-.747.907-1.044.557-2.256.371 1.488-2.441 1.346-2.441.672 0 .674-2.812.816-2.441-.672-.35 1.212.64 1.51.557 2.256-.208 1.86.56 1.883 1.884 1.883ZM359.042 81.372l-3.181-.887M359.042 81.538l-3.552-.03M359.075 81.72l-3.029.811M361.425 81.372l3.18-.887M361.425 81.538l3.552-.03M361.389 81.72l3.029.811" transform="matrix(1 0 0 1.11874 185.548 164.698)"/><path fill="#0051BA" stroke="#000" stroke-width="0.0402683" d="M343.757 71.856c-.925-1.152-3.242-.18-3.288 1.25.782-.927 2.06.408 2.756.127.483-.194.907-.909.532-1.377ZM342.557 74.582c-.925-1.151-3.239-.178-3.286 1.25.78-.926 2.058.409 2.757.128.483-.194.907-.909.529-1.377ZM341.954 78.245c-1.049-1.04-3.239.187-3.125 1.612.675-1.008 2.092.174 2.754-.183.458-.248.798-1.005.371-1.428ZM343.058 89.598c-1.163-.913-3.196.557-2.92 1.96.554-1.079 2.097-.068 2.713-.499.427-.298.681-1.09.208-1.461ZM343 92.082c-1.386-.511-2.871 1.514-2.175 2.764.193-1.197 1.974-.71 2.429-1.31.315-.415.309-1.246-.254-1.454ZM344.778 93.939c-1.386-.512-2.871 1.514-2.178 2.764.195-1.198 1.977-.71 2.432-1.31.315-.416.309-1.246-.254-1.454ZM381.096 97.535c-1.387-.51-2.872 1.515-2.175 2.764.195-1.196 1.973-.71 2.428-1.31.316-.415.31-1.245-.253-1.454ZM382.967 99.22c-1.436-.35-2.679 1.831-1.847 2.994.056-1.211 1.881-.93 2.265-1.578.266-.449.167-1.273-.418-1.416ZM381.65 95.15c-1.281-.74-3.088 1.004-2.614 2.354.396-1.147 2.067-.364 2.617-.878.381-.356.517-1.175-.003-1.476ZM407.488 98.06c-1.436-.35-2.68 1.831-1.847 2.994.058-1.212 1.884-.93 2.265-1.579.266-.448.167-1.272-.418-1.415ZM407.531 95.78c-1.303-.696-3.048 1.109-2.531 2.442.356-1.16 2.054-.435 2.587-.968.368-.368.476-1.192-.056-1.475ZM408.539 100.098c-1.448-.287-2.596 1.947-1.714 3.072.006-1.213 1.841-1.012 2.193-1.676.249-.46.112-1.279-.479-1.396ZM360.338 84.02c.91 0 1.278.266 1.278 1.909 0 3.481-.04 4.978-1.16 4.978-1.123 0-1.046-1.422-1.046-3.978 0-1.334 0-2-.269-1.89 0-.87.387-1.019 1.197-1.019Z" transform="matrix(1 0 0 1.11874 185.548 164.698)"/></g></g></g><path fill="#E8112D" fill-rule="evenodd" stroke="#000" stroke-miterlimit="8" stroke-width="0.577848" d="M626.364 140.502c14.479 58.897 6.539 131.639-58.863 171.998-65.406-40.359-73.345-113.101-58.863-171.998 15.417-14.079 85.487-22.761 117.723 0Z"/><path fill="#F9DD16" fill-rule="evenodd" stroke="#000" stroke-miterlimit="8" stroke-width="0.577848" d="M567 127.892c24.112 0 46.57 6.361 59.808 14.608 2.599-20.262 11.818-40.524 22.692-55.838-11.346-.236-16.43 5.772-16.547 12.015-2.836-8.01-13.948-7.539-17.374-3.18 12.411 8.364 2.837 23.206-8.388 20.144-5.277-1.438-8.064-5.103-9.05-10.424 3.362-.213 5.915-3.102 5.703-6.454-.215-3.352-3.112-5.896-6.473-5.684-3.366.213-5.919 3.102-5.704 6.454a6.074 6.074 0 0 0 3.872 5.28c-3.551 5.773-9.911 7.506-14.47 6.234-5.911-1.65-8.392-6.951-8.392-11.663 0-12.25 11.814-14.136 15.365-12.015-.231-8.246-13.235-14.843-17.254-8.01 4.491-8.01 4.257-19.32-3.784-26.859-8.034 7.54-8.272 18.848-3.777 26.859-4.019-6.833-17.023-.235-17.257 8.01 3.543-2.12 15.365-.236 15.365 12.016 0 4.712-2.482 10.013-8.393 11.662-4.559 1.272-10.923-.461-14.477-6.234a6.074 6.074 0 0 0 3.467-7.874c-1.223-3.129-4.759-4.677-7.901-3.456-3.139 1.22-4.691 4.745-3.467 7.874a6.104 6.104 0 0 0 5.299 3.86c-.99 5.321-3.781 8.986-9.05 10.424-11.225 3.063-20.799-11.78-8.392-20.144-3.426-4.359-14.534-4.83-17.374 3.18-.121-6.243-5.201-12.25-16.547-12.015 10.87 15.315 20.09 35.576 22.692 55.838 13.238-8.247 35.696-14.608 59.804-14.608Z"/><path fill="#F9DD16" fill-rule="evenodd" stroke="#000" stroke-miterlimit="8" stroke-width="0.577848" d="M617.212 186.45c-1.457.35-1.457 2.24-2.218 2.24 3.785-.105 5.625-1.155 6.772-3.08-.833.77-.106 2.24-.383 2.59 2.779-.98 4.103-3.36 3.131-4.97.624.909 2.434 1.4 2.986 1.47-1.945-1.541-.552-5.041-3.683-6.86 1.045-.07 3.059 1.119 3.615 2.52-.484-3.151-.977-5.181-3.547-6.931.277.315 1.738.596 2.362 0-1.665-1.05-2.153-2.8-2.01-3.92.193-1.567-.836-1.89-2.786-1.4-1.752.441-5.764.7-8.126.7-4.868 0-9.108 0-13.139-2.8 6.049 2.52 13.763-2.8 13.763-7.21 0-4.901-5.98-8.891-18.074-6.231-12.09 2.66-26.822 1.54-26.822-2.52 0-4.06 10.561-4.62 15.985-3.78 5.42.84 9.308 1.4 19.459-2.24-2.502.98-10.568 1.26-16.957-.56-6.397-1.82-22.106-1.82-22.242 6.721-.14 8.54 16.723 7.762 31.277 5.6 8.475-1.261 12.923-.42 12.923 2.38 0 2.66-7.783 3.78-13.759 3.08-5.977-.7-12.094-.56-19.184 1.54-5.916 1.753-10.004 0-16.541 1.12-3.165.542-10.841 0-14.63-6.3-2.332 1.68-9.349 5.197-10.53 8.627-1.67 3.15-.553 6.283 1.665 9.363 2.801 3.877-1.385 3.291-4.376 3.431-4.095.192-9.58-.439-12.442-3.71-2.536-2.9-5.908-5.223-8.607-3.074-1.386 1.106-.057 2.562 1.041 2.154 1.086-.403 2.373.408 3.535.92-1.855-.803-3.895-.18-4.69.536-1.097.989.235 2.88 1.564 2.212 1.041-.524 3.175-.873 4.565.408-1.503-.292-3.067-.23-3.816.582-.749.811-.17 1.994 1.446 1.921 2.6-.116 3.267 1.718 5.867 1.341-1.597.21-2.506 1.05-2.922 1.68 2.434-1.12 5.121 1.899 8.274 1.19-1.23.51-3.213 1.728-3.194 2.66 1.869-2.17 14.455 1.68 14.732-3.08.348.98.276 2.45-.693 3.71 1.609-.98 6.809-1.33 8.407-5.11.14 1.12-.068 2.59-1.041 2.94 1.669.549 3.865-.703 6.113-4.06.893-1.332 1.105-2.217.95-3.219 2.23.085 3.846-.479 5.583-1.962 1.81-1.539 3.755 1.261 6.81-.7 3.062-1.959 5.704-.28 7.37-1.259 1.669-.981 3.963.349 5.768-.771 1.81-1.12 4.611.549 7.605-1.831 4.705 1.737 10.201 4.955 23.676 2.461 7.722-1.429 10.145 1.19 10.145 4.761 0 2.449-1.424 2.663-2.502 2.73-4.297.266-6.14-1.62-7.84-1.015-1.135.408-1.832 2.271-.185 2.911-1.359.699-1.185 2.009-.488 2.489.692.48 2.483.044 3.698-.524-1.564.713-3.18 1.994-2.256 3.333.56.812 1.972 1.501 3.297-.233 1.325-1.747 3.755-3.202 5.299-2.971ZM532.5 149.611c-4.251-1.662-5.684-1.708-4.705 1.59.421 1.409 1.442 3.396 2.466 4.299.037-1.372.57-5.166 2.239-5.889Z"/><path fill="#F9DD16" fill-rule="evenodd" stroke="#000" stroke-miterlimit="8" stroke-width="0.577848" d="M544.5 149.611c3.401-1.662 4.548-1.708 3.764 1.59-.337 1.409-1.156 3.396-1.976 4.299-.026-1.372-.453-5.166-1.788-5.889Z"/><path fill="#F9DD16" fill-rule="evenodd" stroke="#000" stroke-miterlimit="8" stroke-width="0.577848" d="M538.002 147.5c7.588 0 8.536 3.409 8.497 7.658-.031 4.591-2.609 3.015-4.075 8.909-.573 2.304-2.492 2.433-4.422 2.433-1.934 0-3.849-.129-4.426-2.433-1.458-5.894-4.04-4.318-4.075-8.909-.035-4.249.912-7.658 8.505-7.658Z"/><path fill="#F9DD16" fill-rule="evenodd" stroke="#000" stroke-miterlimit="8" stroke-width="0.577848" d="M519.548 164.714c-1.865-1.119-3.069-.345-3.828-.134 2.418.629 2.516 3.773 8.04 5.243-1.245-.35-1.933.35-3.11-.28 2.279 1.819 4.833 3.926 10.222 3.988 3.005.035.929 1.61-1.038.7 2.042 2.134 6.081.385 8.635 4.269.481-3.009-4.765-7.768-2.351-11.196-7.45-.322-8.063-4.507-12.358-7.837-3.497-2.708-3.809-5.461-5.351-10.614-.704-2.333-3.4-3.788-4.893-3.236-1.305.483-1.783 1.63-.662 2.488 1.121.859 2.553.975 2.862 3.15-1.456-1.767-3.637-2.408-4.686-1.302-.639.673-.38 2.244.993 2.387 2.237.233.628 2.444 3.174 4.607-2.257-2.571-4.208-2.803-5.416-1.407-.722.837 0 2.328 1.553 2.169 2.246-.232 4.852 5.543 8.214 7.005ZM579.197 185.809c-1.182.209-.831 2.167-2.429 2.307 3.82 0 5.758-.91 7.56-2.377-.828.489-1.175 1.748-1.243 2.446 2.01-1.747 6.796-1.887 9.294-1.397 2.497.489 2.913-.7 3.812-2.307.906-1.608-.348-2.517-1.591-3.775-1.254-1.258-1.53-3.006-1.254-5.941-6.657-8.947-18.588-4.614-18.728-.699 4.303 5.032 4.855 4.473 8.467 5.172 3.604.699 5.814.697 3.396 2.726-.831.699-4.303.371-7.008.49-6.049.265-8.818-4.212-10.605-1.887-1.473 1.912.046 2.757 3.045 2.655-2.078.015-4.832-.098-4.359 1.851.793 3.285 3.906-.61 5.123.741-1.039-.247-2.656.393-2.717 1.381-.057.989 2.308 2.267 4.908.189 1.42-1.14 3.234-1.566 4.329-1.575Z"/><path fill="#F9DD16" fill-rule="evenodd" stroke="#000" stroke-miterlimit="8" stroke-width="0.577848" d="M584.5 172.5c-2.266-.816-4.342-1.315-7-.775M552.5 171.5c-1.775 3.576-.7 5.341-.436 7M533.5 152.713c.991.844 1.547-1.541 3 .991-.401-.739-.896 1.963-2.009.17M543.5 152.713c-1.321.844-2.063-1.541-4 .991.534-.739 1.195 1.963 2.679.17M539.13 153.5c-.365.36-.401-.287-.125 1.414.514 3.124 1.124 4.586-.998 4.586-2.165 0-1.509-1.462-.999-4.586.284-1.701.248-1.054-.121-1.414"/><path fill="#FF0016" fill-rule="evenodd" stroke="#000" stroke-miterlimit="8" stroke-width="0.288924" d="M538 165.5c1.843 0 2.91-.034 2.621-2.73-.12-1.082 1.261-1.513.775-3.27.518 2.157-3.396 1.951-3.396.973 0 .978-3.91 1.184-3.396-.973-.486 1.757.892 2.188.775 3.27-.288 2.696.779 2.73 2.621 2.73ZM536.5 159.5l-5-1M536.5 160.5l-5-1M536.5 160.5l-5 1M539.5 159.5l5-1M539.5 160.5l6-1M539.5 160.5l5 1"/><path fill="#0051BA" fill-rule="evenodd" stroke="#000" stroke-miterlimit="8" stroke-width="0.0600525" d="M513.291 145.292c-1.346-1.795-4.721-.279-4.791 1.948 1.14-1.443 3.002.636 4.017.198.701-.302 1.32-1.415.774-2.146ZM511.288 149.292c-1.347-1.795-4.721-.279-4.788 1.948 1.134-1.443 2.998.636 4.017.198.705-.302 1.322-1.416.771-2.146ZM511.206 155.082c-1.577-1.561-4.871.28-4.699 2.418 1.013-1.513 3.145.261 4.139-.275.689-.371 1.203-1.507.56-2.143ZM512.181 171.878c-1.453-1.221-3.994.746-3.649 2.622.69-1.443 2.62-.091 3.389-.667.535-.399.852-1.458.26-1.955ZM512.677 175.614c-2.459-.719-5.099 2.129-3.862 3.886.342-1.682 3.507-.998 4.312-1.842.562-.584.548-1.751-.45-2.044ZM514.842 178.614c-1.967-.719-4.077 2.129-3.092 3.886.277-1.683 2.805-.998 3.452-1.842.449-.584.438-1.752-.36-2.044ZM568.842 183.614c-1.968-.719-4.079 2.129-3.09 3.886.277-1.682 2.806-.998 3.449-1.842.45-.584.439-1.751-.359-2.044ZM571.665 186.55c-2.149-.463-4.01 2.416-2.763 3.95.083-1.598 2.816-1.227 3.389-2.083.398-.591.25-1.679-.626-1.867ZM570.05 179.779c-1.691-1.17-4.073 1.587-3.448 3.721.521-1.812 2.726-.575 3.451-1.387.505-.563.682-1.858-.003-2.334ZM608.665 184.562c-2.149-.577-4.01 3.02-2.763 4.938.087-1.998 2.82-1.534 3.389-2.603.398-.74.25-2.1-.626-2.335ZM608.889 180.737c-2.178-1.07-5.098 1.71-4.233 3.763.593-1.786 3.436-.669 4.326-1.49.615-.568.797-1.836-.093-2.273ZM610.589 187.541c-2.212-.464-3.965 3.143-2.619 4.959.012-1.957 2.812-1.633 3.35-2.706.379-.742.17-2.065-.731-2.253ZM538.435 163.5c1.468 0 2.065.385 2.065 2.771 0 5.055-.069 7.229-1.877 7.229-1.812 0-1.689-2.065-1.689-5.776 0-1.937 0-2.905-.434-2.744 0-1.263.626-1.48 1.935-1.48Z"/><path fill="#F9DD16" fill-rule="evenodd" stroke="#000" stroke-miterlimit="8" stroke-width="0.520105" d="M610.267 234.872c-1.308.313-1.308 2.007-1.991 2.007 3.398-.094 5.048-1.035 6.078-2.76-.748.69-.095 2.007-.343 2.321 2.493-.878 3.682-3.01 2.809-4.453.56.815 2.184 1.255 2.68 1.317-1.746-1.38-.496-4.515-3.305-6.145.937-.063 2.745 1.003 3.244 2.257-.435-2.822-.876-4.641-3.183-6.208.248.282 1.559.533 2.12 0-1.495-.941-1.933-2.508-1.804-3.512.173-1.404-.751-1.693-2.5-1.254-1.573.395-5.174.627-7.294.627-4.368 0-8.173 0-11.79-2.508 5.428 2.257 12.351-2.509 12.351-6.46 0-4.39-5.367-7.964-16.221-5.581-10.849 2.383-24.071 1.379-24.071-2.258s9.478-4.139 14.346-3.386c4.864.752 8.353 1.254 17.464-2.007-2.246.878-9.485 1.129-15.219-.502-5.741-1.63-19.838-1.63-19.96 6.021-.126 7.65 15.007 6.954 28.069 5.017 7.606-1.129 11.597-.377 11.597 2.132 0 2.382-6.984 3.386-12.348 2.759-5.364-.627-10.853-.502-17.216 1.38-5.309 1.57-8.978 0-14.845 1.003-2.839.486-9.729 0-13.129-5.644-2.092 1.505-8.39 4.656-9.45 7.729-1.498 2.822-.496 5.629 1.494 8.388 2.514 3.472-1.243 2.947-3.926 3.073-3.676.172-8.598-.393-11.166-3.324-2.276-2.597-5.303-4.679-7.725-2.754-1.243.991-.051 2.295.934 1.93.975-.36 2.13.365 3.173.824-1.665-.719-3.496-.161-4.209.48-.985.887.211 2.581 1.403 1.982.934-.469 2.85-.782 4.097.365-1.349-.261-2.752-.205-3.424.522-.673.727-.153 1.786 1.297 1.721 2.334-.104 2.932 1.539 5.266 1.201-1.434.188-2.249.941-2.623 1.505 2.184-1.003 4.596 1.702 7.426 1.066-1.104.457-2.884 1.548-2.867 2.383 1.678-1.944 12.973 1.505 13.221-2.759.312.878.248 2.195-.622 3.324 1.444-.878 6.111-1.192 7.545-4.578.126 1.003-.061 2.32-.934 2.633 1.498.493 3.468-.629 5.486-3.637.802-1.193.992-1.986.852-2.883 2.001.076 3.452-.429 5.011-1.757 1.624-1.38 3.37 1.128 6.111-.628 2.748-1.755 5.119-.25 6.614-1.128 1.498-.878 3.557.313 5.177-.69 1.624-1.003 4.138.491 6.825-1.641 4.222 1.556 9.154 4.439 21.248 2.205 6.929-1.28 9.104 1.066 9.104 4.265 0 2.194-1.278 2.385-2.246 2.446-3.855.238-5.51-1.452-7.035-.91-1.019.366-1.644 2.035-.166 2.608-1.22.626-1.064 1.8-.439 2.23.622.43 2.229.039 3.319-.469-1.403.638-2.853 1.786-2.024 2.985.502.728 1.77 1.345 2.958-.208 1.189-1.565 3.37-2.869 4.756-2.662ZM533.5 201.452c-3.401-1.424-4.547-1.463-3.764 1.363.337 1.208 1.153 2.911 1.973 3.685.03-1.176.456-4.428 1.791-5.048ZM544.5 201.452c3.401-1.424 4.548-1.463 3.764 1.363-.337 1.208-1.156 2.911-1.976 3.685-.026-1.176-.453-4.428-1.788-5.048Z"/><path fill="#F9DD16" fill-rule="evenodd" stroke="#000" stroke-miterlimit="8" stroke-width="0.520105" d="M539.002 199.5c6.695 0 7.532 3.05 7.497 6.852-.027 4.108-2.302 2.698-3.595 7.971-.506 2.062-2.199 2.177-3.902 2.177-1.707 0-3.396-.115-3.906-2.177-1.286-5.273-3.564-3.863-3.595-7.971-.031-3.802.805-6.852 7.504-6.852Z"/><path fill="#F9DD16" fill-rule="evenodd" stroke="#000" stroke-miterlimit="8" stroke-width="0.520105" d="M522.509 214.968c-1.673-1.018-2.752-.314-3.433-.123 2.168.573 2.256 3.431 7.209 4.767-1.116-.318-1.733.318-2.788-.255 2.043 1.654 4.332 3.569 9.164 3.626 2.694.032.833 1.463-.931.636 1.831 1.94 5.452.35 7.742 3.881.431-2.735-4.272-7.061-2.107-10.178-6.68-.292-7.229-4.098-11.08-7.125-3.136-2.461-3.416-4.964-4.798-9.649-.631-2.121-3.048-3.444-4.387-2.941-1.17.439-1.598 1.482-.593 2.262 1.005.78 2.289.886 2.566 2.863-1.305-1.607-3.261-2.189-4.201-1.184-.574.612-.341 2.041.89 2.17 2.006.212.563 2.222 2.846 4.189-2.024-2.337-3.773-2.549-4.856-1.279-.647.76 0 2.116 1.393 1.971 2.013-.211 4.349 5.039 7.364 6.369ZM576.987 234.092c-1.06.188-.745 1.939-2.178 2.064 3.425 0 5.162-.813 6.778-2.126-.742.437-1.053 1.563-1.114 2.188 1.802-1.563 6.093-1.688 8.332-1.25 2.239.438 2.611-.626 3.418-2.064.813-1.439-.312-2.251-1.426-3.377-1.125-1.126-1.372-2.69-1.125-5.317-5.968-8.005-16.665-4.127-16.79-.625 3.858 4.503 4.352 4.003 7.591 4.628 3.231.625 5.212.624 3.045 2.44-.746.625-3.858.331-6.284.437-5.422.237-7.905-3.768-9.507-1.688-1.321 1.711.04 2.467 2.73 2.376-1.863.013-4.332-.088-3.909 1.656.711 2.939 3.502-.546 4.593.663-.932-.221-2.381.351-2.435 1.235-.051.885 2.069 2.029 4.4.169 1.273-1.019 2.899-1.401 3.881-1.409Z"/><path fill="#F9DD16" fill-rule="evenodd" stroke="#000" stroke-miterlimit="8" stroke-width="0.520105" d="M581.5 222.5c-1.942-.816-3.722-1.315-6-.774M551.5 221.5c-1.775 3.065-.7 4.578-.436 6M534.5 204.607c1.321.421 2.063-.771 4 .495-.534-.369-1.195.981-2.679.085M543.5 204.607c-.991.421-1.547-.771-3 .495.401-.369.896.981 2.009.085M540.13 205.5c-.365.3-.402-.239-.125 1.178.514 2.604 1.124 3.822-.998 3.822-2.165 0-1.509-1.218-.999-3.822.284-1.417.247-.878-.121-1.178"/><path fill="#FF0016" fill-rule="evenodd" stroke="#000" stroke-miterlimit="8" stroke-width="0.260052" d="M539 215.5c1.843 0 2.91-.028 2.621-2.275-.12-.902 1.261-1.261.775-2.725.518 1.798-3.396 1.626-3.396.811 0 .815-3.91.987-3.396-.811-.486 1.464.892 1.823.775 2.725-.289 2.247.779 2.275 2.621 2.275ZM537.5 210.5l-4-1M537.5 211.503l-5-1M537.5 211.5l-4 1M540.5 210.5l5-1M540.5 211.503l5-1M540.5 211.5l4 1"/><path fill="#0051BA" fill-rule="evenodd" stroke="#000" stroke-miterlimit="8" stroke-width="0.0540682" d="M517.292 198.028c-1.347-1.196-4.722-.186-4.792 1.299 1.14-.962 3.003.424 4.017.132.701-.202 1.32-.944.775-1.431ZM515.331 201.292c-1.078-1.794-3.778-.279-3.831 1.948.907-1.443 2.398.636 3.214.198.564-.302 1.057-1.416.617-2.146ZM514.265 206.888c-1.262-1.04-3.897.187-3.76 1.612.811-1.008 2.517.174 3.312-.183.551-.247.962-1.005.448-1.429ZM516.181 221.878c-1.453-1.221-3.994.746-3.649 2.622.69-1.443 2.62-.091 3.39-.667.534-.399.851-1.458.259-1.955ZM515.842 225.586c-1.968-.539-4.079 1.596-3.09 2.914.273-1.262 2.806-.748 3.449-1.381.45-.438.439-1.314-.359-1.533ZM518.842 227.614c-1.967-.719-4.077 2.129-3.092 3.886.277-1.683 2.805-.998 3.452-1.842.449-.584.438-1.751-.36-2.044ZM567.006 232.614c-1.475-.719-3.059 2.129-2.317 3.886.208-1.682 2.104-.998 2.587-1.842.337-.583.329-1.751-.27-2.044ZM569.665 234.55c-2.149-.462-4.01 2.416-2.763 3.95.083-1.598 2.816-1.227 3.389-2.083.398-.591.25-1.679-.626-1.867ZM568.05 228.779c-1.691-1.17-4.073 1.587-3.448 3.721.521-1.812 2.726-.574 3.451-1.387.505-.563.682-1.858-.003-2.334ZM602.665 233.55c-2.149-.462-4.01 2.416-2.763 3.95.087-1.598 2.82-1.227 3.389-2.082.398-.592.25-1.68-.626-1.868ZM603.011 229.738c-1.742-1.071-4.078 1.709-3.386 3.762.474-1.786 2.749-.669 3.461-1.49.491-.568.637-1.836-.075-2.272Z"/><path fill="#0051BA" fill-rule="evenodd" stroke="#000" stroke-miterlimit="8" stroke-width="0.0540682" d="M603.817 235.541c-1.66-.464-2.974 3.143-1.964 4.959.009-1.957 2.109-1.633 2.512-2.705.284-.743.128-2.065-.548-2.254ZM539.435 214.5c1.468 0 2.065.347 2.065 2.494 0 4.55-.069 6.506-1.877 6.506-1.812 0-1.689-1.859-1.689-5.199 0-1.743 0-2.614-.434-2.469 0-1.137.626-1.332 1.935-1.332Z"/><path fill="#F9DD16" fill-rule="evenodd" stroke="#000" stroke-miterlimit="8" stroke-width="0.410289" d="M599.641 275.547c-.971.255-.971 1.634-1.478 1.634 2.523-.077 3.75-.843 4.514-2.247-.555.562-.071 1.634-.255 1.889 1.852-.715 2.736-2.45 2.087-3.624.416.663 1.623 1.021 1.991 1.072-1.297-1.123-.368-3.675-2.455-5.002.696-.051 2.039.816 2.41 1.838-.323-2.298-.651-3.778-2.365-5.054.184.23 1.158.434 1.575 0-1.111-.766-1.436-2.042-1.34-2.858.129-1.143-.558-1.379-1.857-1.021-1.169.321-3.844.51-5.418.51-3.245 0-6.072 0-8.759-2.042 4.032 1.838 9.175-2.041 9.175-5.257 0-3.573-3.987-6.483-12.049-4.543-8.06 1.939-17.882 1.123-17.882-1.838 0-2.96 7.041-3.369 10.657-2.756 3.614.613 6.205 1.021 12.973-1.633-1.668.714-7.045.918-11.305-.409-4.265-1.327-14.737-1.327-14.828 4.901-.093 6.227 11.149 5.66 20.851 4.083 5.65-.919 8.616-.306 8.616 1.736 0 1.939-5.189 2.756-9.173 2.245-3.985-.51-8.063-.408-12.789 1.123-3.944 1.279-6.67 0-11.028.817-2.109.395-7.227 0-9.753-4.594-1.554 1.225-6.233 3.79-7.02 6.291-1.113 2.297-.369 4.581 1.11 6.827 1.867 2.827-.924 2.399-2.917 2.502-2.73.139-6.387-.32-8.295-2.706-1.69-2.114-3.939-3.808-5.738-2.241-.924.806-.038 1.868.694 1.571.724-.294 1.582.297 2.357.67-1.237-.585-2.597-.131-3.127.391-.732.722.157 2.1 1.042 1.613.694-.382 2.118-.637 3.044.297-1.002-.212-2.044-.167-2.544.425s-.113 1.454.964 1.401c1.734-.085 2.178 1.252 3.911.977-1.065.154-1.67.766-1.948 1.225 1.623-.816 3.414 1.385 5.517.868-.821.372-2.143 1.26-2.13 1.94 1.246-1.583 9.637 1.225 9.821-2.246.232.715.184 1.786-.462 2.705 1.073-.714 4.54-.969 5.605-3.726.093.817-.046 1.889-.694 2.144 1.113.401 2.576-.512 4.075-2.961.596-.971.737-1.616.634-2.347 1.486.062 2.564-.349 3.722-1.43 1.206-1.123 2.503.919 4.54-.51 2.041-1.429 3.802-.205 4.913-.919 1.113-.715 2.642.255 3.846-.562 1.206-.816 3.073.4 5.069-1.335 3.137 1.266 6.801 3.613 15.785 1.795 5.147-1.042 6.762.867 6.762 3.471 0 1.786-.948 1.942-1.668 1.991-2.864.194-4.093-1.181-5.226-.741-.757.298-1.221 1.656-.123 2.123-.906.51-.79 1.465-.326 1.815.462.35 1.656.032 2.466-.382-1.043.52-2.12 1.454-1.504 2.43.373.593 1.314 1.095 2.198-.169.883-1.274 2.503-2.335 3.532-2.167ZM542.5 248.294c-2.55-1.187-3.411-1.22-2.823 1.135.253 1.007.865 2.426 1.48 3.071.022-.98.342-3.69 1.343-4.206ZM550.5 248.294c2.551-1.187 3.411-1.22 2.823 1.135-.253 1.007-.867 2.426-1.482 3.071-.02-.98-.339-3.69-1.341-4.206Z"/><path fill="#F9DD16" fill-rule="evenodd" stroke="#000" stroke-miterlimit="8" stroke-width="0.410289" d="M546.001 246.5c4.91 0 5.524 2.692 5.498 6.046-.02 3.625-1.688 2.381-2.636 7.034-.371 1.819-1.613 1.92-2.862 1.92-1.251 0-2.49-.101-2.864-1.92-.943-4.654-2.614-3.409-2.636-7.034-.023-3.354.59-6.046 5.503-6.046Z"/><path fill="#F9DD16" fill-rule="evenodd" stroke="#000" stroke-miterlimit="8" stroke-width="0.410289" d="M533.43 259.474c-1.287-.814-2.117-.25-2.641-.097 1.668.457 1.736 2.744 5.546 3.812-.859-.254-1.333.255-2.145-.203 1.572 1.323 3.333 2.855 7.049 2.901 2.073.025.641 1.17-.716.509 1.409 1.552 4.194.28 5.955 3.104.332-2.188-3.286-5.649-1.621-8.142-5.138-.234-5.56-3.278-8.522-5.7-2.412-1.969-2.628-3.971-3.691-7.719-.485-1.697-2.345-2.755-3.375-2.353-.899.351-1.229 1.185-.456 1.809.773.624 1.761.709 1.974 2.291-1.004-1.286-2.508-1.751-3.232-.947-.441.49-.262 1.632.685 1.736 1.543.169.433 1.777 2.189 3.351-1.556-1.87-2.902-2.039-3.735-1.024-.498.609 0 1.693 1.071 1.577 1.549-.168 3.346 4.032 5.665 5.095ZM574.164 275.517c-.775.155-.545 1.597-1.592 1.7 2.503 0 3.772-.67 4.953-1.751-.542.36-.77 1.288-.814 1.802 1.317-1.287 4.453-1.39 6.089-1.029 1.636.36 1.908-.516 2.497-1.7.594-1.185-.227-1.854-1.042-2.782-.821-.927-1.002-2.214-.821-4.378-4.362-6.592-12.179-3.399-12.27-.515 2.819 3.709 3.18 3.297 5.547 3.812 2.361.515 3.809.513 2.225 2.009-.545.515-2.819.273-4.592.36-3.962.195-5.777-3.103-6.948-1.39-.965 1.409.03 2.032 1.995 1.956-1.361.011-3.165-.072-2.856 1.364.52 2.42 2.559-.449 3.356.546-.68-.182-1.74.29-1.779 1.018-.037.728 1.512 1.67 3.215.139.931-.84 2.119-1.154 2.837-1.161Z"/><path fill="#F9DD16" fill-rule="evenodd" stroke="#000" stroke-miterlimit="8" stroke-width="0.410289" d="M577.5 265.5c-1.619-.815-3.102-1.314-5-.774M555.5 264.5c-1.775 3.065-.7 4.578-.436 6M542.5 251.607c.991.422 1.548-.771 3 .495-.4-.369-.896.982-2.009.085M549.5 251.607c-.66.422-1.031-.771-2 .495.267-.369.597.982 1.34.085M547.254 251.5c-.244.24-.268-.191-.084.943.343 2.083.749 3.057-.665 3.057-1.444 0-1.006-.974-.666-3.057.189-1.134.165-.703-.081-.943"/><path fill="#FF0016" fill-rule="evenodd" stroke="#000" stroke-miterlimit="8" stroke-width="0.205144" d="M546 260.5c1.316 0 2.078-.028 1.872-2.275-.085-.902.901-1.261.554-2.725.37 1.798-2.426 1.626-2.426.811 0 .815-2.793.987-2.425-.811-.348 1.464.636 1.823.553 2.725-.206 2.247.556 2.275 1.872 2.275ZM545.5 256.5l-4-1M545.5 257.51l-4-1M545.5 256.5l-3 1M547.5 256.5l3-1M547.5 257.51l3-1M547.5 256.5l3 1"/><path fill="#0051BA" fill-rule="evenodd" stroke="#000" stroke-miterlimit="8" stroke-width="0.0426247" d="M529.375 245.293c-.808-1.795-2.833-.279-2.875 1.947.684-1.443 1.802.636 2.41.199.421-.303.792-1.416.465-2.146Z"/><path fill="#0051BA" fill-rule="evenodd" stroke="#000" stroke-miterlimit="8" stroke-width="0.0426247" d="M528.373 248.293c-.808-1.795-2.833-.279-2.873 1.947.68-1.443 1.799.636 2.41.199.423-.302.793-1.416.463-2.146ZM528.265 252.888c-1.262-1.04-3.897.187-3.76 1.612.811-1.008 2.517.175 3.312-.183.551-.247.963-1.005.448-1.429ZM529.261 264.878c-1.09-1.22-2.996.746-2.737 2.622.517-1.442 1.965-.09 2.542-.667.401-.399.639-1.458.195-1.955ZM529.006 267.614c-1.475-.718-3.059 2.129-2.317 3.886.205-1.682 2.104-.997 2.587-1.841.337-.584.329-1.752-.27-2.045ZM531.007 270.586c-1.475-.539-3.058 1.596-2.319 2.914.207-1.262 2.103-.748 2.588-1.381.337-.438.329-1.314-.269-1.533ZM567.006 274.586c-1.475-.539-3.059 1.597-2.317 2.914.208-1.262 2.104-.748 2.587-1.381.337-.438.329-1.314-.27-1.533ZM568.874 276.537c-1.612-.346-3.008 1.813-2.073 2.963.063-1.199 2.113-.92 2.542-1.562.298-.443.188-1.26-.469-1.401ZM567.163 271.709c-1.268-.877-3.055 1.191-2.586 2.791.39-1.359 2.044-.431 2.588-1.04.378-.422.511-1.394-.002-1.751ZM593.874 274.55c-1.612-.462-3.008 2.416-2.073 3.95.066-1.598 2.116-1.227 2.542-2.082.298-.592.188-1.68-.469-1.868ZM593.133 272.619c-1.306-.535-3.058.855-2.54 1.881.356-.893 2.062-.334 2.596-.745.369-.284.478-.918-.056-1.136ZM594.817 277.525c-1.66-.278-2.974 1.885-1.964 2.975.009-1.174 2.109-.98 2.512-1.623.284-.445.128-1.239-.548-1.352ZM546.467 259.5c.735 0 1.033.27 1.033 1.94 0 3.539-.035 5.06-.939 5.06-.906 0-.844-1.445-.844-4.043 0-1.356 0-2.033-.217-1.921 0-.884.313-1.036.967-1.036Z"/></g></svg>