<svg xmlns="http://www.w3.org/2000/svg" xml:space="preserve" style="fill-rule:evenodd;clip-rule:evenodd;stroke-linecap:round;stroke-linejoin:round" viewBox="0 0 800 512"><path fill="#032ea1" d="M0 0h800v512H0V0Z"/><path fill="#e00025" d="M0 128h800v256H0V128Z"/><g stroke="#000" stroke-linecap="butt"><g fill="#fff"><path stroke-linejoin="bevel" stroke-width="1.536" d="M327.887 239.993h145.664v56.049H327.887v-56.049Z"/><path stroke-linejoin="bevel" stroke-width="1.536" d="M466.038 270.944h4.59v21.113h-4.59v-21.113Zm-138.151-10.432h145.664v6.515H327.887v-6.515Zm0-8.832h145.664v5.747H327.887v-5.747Z"/><path stroke-linejoin="bevel" stroke-width="1.512" d="M327.887 242.861h145.664v5.573H327.887v-5.573Z"/><path stroke-linejoin="bevel" stroke-width="1.536" d="M366.236 270.944h4.59v21.113h-4.59v-21.113Zm62.707 0h4.59v21.113h-4.59v-21.113Zm-99.904 0h4.59v21.113h-4.59v-21.113Zm8.999 0h4.59v21.113h-4.59v-21.113Zm9.6 0h4.59v21.113h-4.59v-21.113Zm9.6 0h4.59v21.113h-4.59v-21.113Zm80.409 0h4.59v21.113h-4.59v-21.113Zm9.6 0h4.59v21.113h-4.59v-21.113Zm9.6 0h4.59v21.113h-4.59v-21.113Z"/><path stroke-linejoin="miter" stroke-width="1.536" d="M270.915 298.989c2.252-1.149 4.821-3.82 5.662-6.81h247.13c.841 2.99 3.411 5.661 5.664 6.81H270.915Z"/></g><path fill="#fff" stroke-linejoin="miter" stroke-width="1.536" d="M396.982 154.669s-.185-5.264 2.88-5.321c3.067.056 2.88 5.321 2.88 5.321h-5.76Zm-15.987 69.811v-7.086c-.103-3.543-3.533-3.799-3.633-6.382 0 0-.443-3.875.578-5.643 1.388 5.181 3.912 4.229 3.912 2.1 0-1.86-1.43-3.59-4.362-8.103-.937-1.444-.358-5.965.956-7.581.508 3.929 1.091 5.811 2.778 5.811 1.03 0 1.871-.671 1.871-2.639 0-2.505-1.696-3.77-2.531-6.048-.972-2.66-.302-5.371 1.314-6.887.694 3.879.486 5.424 2.21 5.424 3.473-1.099 0-6.127-.742-7.395-.853-1.478 1.148-4.429 1.148-4.429 1.105 3.443 1.459 3.725 2.65 3.405 1.502-.403 1.309-2.632-.525-4.433-1.157-1.139-1.034-2.831.209-4.19 1.248 2.438 2.845 2.291 2.999.842l-1.004-5.622h22.086l-1.095 5.44c-.314 1.555 1.787 1.894 3.092-.659 1.244 1.359 1.366 3.053.209 4.191-1.833 1.801-2.028 4.029-.525 4.432 1.19.32 1.546.039 2.65-3.405 0 0 1.796 2.01 1.148 4.429-.743 1.267-4.215 6.298-.743 7.395 1.723 0 1.517-1.546 2.21-5.424 1.616 1.516 2.286 4.227 1.313 6.887-.832 2.278-2.529 3.543-2.529 6.048 0 1.968.841 2.639 1.869 2.639 1.689 0 2.272-1.881 2.781-5.811 1.312 1.617 1.892 6.138.955 7.58-2.931 4.513-4.362 6.243-4.362 8.103 0 2.129 2.521 3.081 3.911-2.1 1.02 1.767.576 5.643.576 5.643-.1 2.583-3.53 2.839-3.631 6.382v7.086h-37.743Zm9.241-58.906-.508-4h20.273l-.507 4h-19.258Zm1.357-4.083-.435-3.29h17.412l-.436 3.29h-16.541Zm2.765-3.405-.291-3.289h11.594l-.289 3.289h-11.014Zm42.265 140.903c-2.594-.999-6.37-3.738-6.37-6.49v-31.1l3.376-4.298h-67.552l3.239 4.3V292.5c0 2.752-2.595 5.491-5.188 6.49l72.495-.001Z"/><path fill="#fff" stroke-linejoin="bevel" stroke-width="1.536" d="M378.089 270.944h4.59v21.113h-4.59v-21.113Zm38.81 0h4.59v21.113h-4.59v-21.113Z"/><path fill="#fff" stroke-linejoin="miter" stroke-width="1.536" d="M364.867 221.702v35.4h69.149v-7.625l.1-27.776c-2.826 1.111-3.323 3.673-3.323 3.673v15.076h-62.4v-15.074s-.696-2.563-3.525-3.674h-.001Z"/><path fill="#fff" stroke-linejoin="miter" stroke-width="1.536" d="M424.63 298.989c-2.261-.999-7.184-3.738-7.184-6.49v-34.803c.484-1.943 3.118-3.09 4.813-4.298h-45.852c2.182 1.154 4.616 2.114 5.485 4.3v34.804c0 2.752-3.891 5.491-6.152 6.489l48.89-.002Z"/><path fill="#fff" stroke-linejoin="miter" stroke-width="1.536" d="M430.787 253.766v-25.071h-6.285v-2.445h-49.715v2.445h-6.285v25.071h62.285Zm-16.064 45.223c-2.215-.999-5.44-3.738-5.44-6.49v-29.714l1.82-2.701H388.46l1.817 2.701V292.5c0 2.755-3.225 5.491-5.44 6.49l29.886-.001Z"/><path fill="#fff" stroke-linejoin="miter" stroke-width="1.5696" d="M394.051 260.089h11.476v38.883h-11.476v-38.883Z"/><path fill="#fff" stroke-linejoin="bevel" stroke-width="1.536" d="M411.548 251.539c.026-2.56 7.473-2.675 11.305-4.858h-46.018c3.832 2.181 11.104 2.361 11.104 4.858l1.557 4.969 19.051.765 3.001-5.734Z"/><path fill="#fff" stroke-linejoin="miter" stroke-width="1.536" d="M420.547 224.48c0-6.272.262-8.686 2.188-8.686v19.942c-4.723 1.715-8.096 7.744-8.096 7.744h-29.708s-3.373-6.029-8.098-7.744v-19.942c2.375 0 2.39 2.524 2.39 8.686h41.324Zm2.188-2.573c0-7.191 6.208-8 6.208-8v6.4c-2.361-.102-3.502 2.02-3.502 5.176 0 3.157 1.904 3.208 1.904 3.208v18.163h-4.608l-.002-24.947Z"/><path fill="#fff" stroke-linejoin="miter" stroke-width="1.536" d="M376.86 221.907c0-7.191-6.208-8-6.208-8v6.4c2.362-.102 3.502 2.02 3.502 5.176 0 3.157-1.903 3.208-1.903 3.208v18.163h4.608l.001-24.947Z"/><g fill="none" stroke-linejoin="miter"><path stroke-width="1.28" d="M389.097 172.358h21.924m-24.522 6.848h26.777m-29.376 8.307h31.877m-34.59 10.151h37.806m-38.677 11.571h38.945"/><path stroke-width="1.536" d="M368.502 246.982h62.285m-42.522.013h23.086v8.486h-23.086v-8.486Z"/></g><path fill="#fff" stroke-linejoin="miter" stroke-width="1.536" d="M385.372 228.192c3.827 4.595 3.473 12.39 3.431 16.985H411c-.044-4.595-.399-12.39 3.428-16.985h-29.056Zm12.48-52.647-3.041-1.566v-4.477c1.241.372 2.639.525 2.775 2.507.433-2.829 1.213-2.691 2.441-3.793 1.225 1.101 2.006.964 2.438 3.793.137-1.982 1.532-2.134 2.778-2.509v4.477l-3.044 1.567-4.347.001Z"/><path fill="#fff" stroke-linejoin="miter" stroke-width="1.536" d="m397.647 182.893-5.051-3.473v-4.126c1.771.41 3.759.576 3.953 2.752.617-3.102 1.728-4.705 3.475-5.913 1.748 1.208 2.859 2.811 3.476 5.913.194-2.176 2.182-2.342 3.955-2.752v4.126l-5.054 3.473h-4.754Z"/><path fill="#fff" stroke-linejoin="miter" stroke-width="1.536" d="m397.289 194.349-5.809-5.101v-6.062c2.036.601 4.323.847 4.547 4.039.708-4.556 1.986-6.912 3.993-8.687 2.01 1.775 3.29 4.129 3.998 8.686.224-3.192 2.509-3.438 4.544-4.041v6.061l-5.806 5.101-5.467.004Zm10.714 6.771-5.254 7.265h-5.946l-5.254-7.265h16.454Zm-19.482 12.198c2.628 1.436 3.597 4.297 3.878 9.668h14.784c.282-5.371 1.251-8.23 3.879-9.668h-22.541Z"/><path fill="#fff" stroke-linejoin="bevel" stroke-width="1.536" d="M411.279 201.12v-7.299c-2.496.688-4.112 2.163-4.833 4.17 0-2.423-3.187-8.008-6.665-10.79-3.487 3.113-6.729 8.166-6.664 10.79-.592-1.909-2.336-3.481-4.832-4.17v7.299h22.994Z"/><path fill="#fff" stroke-linejoin="bevel" stroke-width="1.536" d="M412.393 213.318v-7.298c-2.737.687-4.508 2.163-5.299 4.17 0-2.423-3.495-8.01-7.305-10.791-3.822 3.113-7.377 8.167-7.305 10.791-.65-1.91-2.563-3.482-5.299-4.17v7.298h25.208Z"/><path fill="#fff" stroke-linejoin="bevel" stroke-width="1.536" d="M415.465 228.294v-8.418c-3.405.879-5.519 3.395-6.592 4.864 0-4.557-5.146-11.508-9.088-13.783-4.045 2.336-9.088 9.516-9.088 13.783-1.101-1.46-3.187-3.985-6.592-4.864v8.418h31.36Z"/><path fill="#fff" stroke-linejoin="bevel" stroke-width="1.536" d="M413.622 246.982v-8.655c-3.003 1.177-3.902 4.07-4.846 6.038.371-8.781-4.944-18.215-8.991-20.608-4.049 2.393-9.463 12.032-8.991 20.608-.97-1.955-1.843-4.861-4.846-6.038v8.655h27.674Z"/><path fill="#fff" stroke-linejoin="miter" stroke-width="1.536" d="M411.523 260.089v-8.655c-3.147.749-3.341 1.907-4.342 3.848.371-5.245-3.341-11.226-7.39-13.62-4.048 2.394-7.762 8.377-7.39 13.62-.999-1.94-1.123-3.098-4.34-3.848v8.655h23.462Z"/><g fill="#fff"><path stroke-linejoin="miter" stroke-width="1.536" d="M276.579 292.179v-26.163c-.858-3.332-3.687-6.279-5.812-6.869v-23.032l4.788 2.591 5.468 24.076v29.397h-4.444Z"/><path stroke-linejoin="miter" stroke-width="1.536" d="M276.579 292.281v-26.265c-.858-3.331-3.687-6.277-5.812-6.867v-24.631c3.213 0 4.788 4.189 4.788 4.189l5.468 24.077v29.295l-4.444.202Z"/><path stroke-linejoin="miter" stroke-width="1.536" d="M273.174 298.989c2.214-.999 5.44-3.738 5.44-6.49v-32.7l-1.52-2.698h55.71l-2.174 2.698v32.7c0 2.752 2.215 5.491 4.429 6.49h-61.885Z"/><path stroke-linejoin="miter" stroke-width="1.536" d="M323.817 298.989c-2.214-.999-5.44-3.738-5.44-6.49v-31.1l4.634-4.301-37.873.003 4.634 4.298v31.1c0 2.752-3.226 5.491-5.44 6.49h39.485Z"/><path stroke-linejoin="miter" stroke-width="1.536" d="M318.505 298.989c-2.214-.999-5.44-3.738-5.44-6.49v-28.115l3.034-4.301h-24.062l3.034 4.301v28.115c0 2.752-3.226 5.491-5.44 6.49h28.874Z"/><path stroke-linejoin="miter" stroke-width="1.536" d="M298.319 260.089h11.497v38.903h-11.497v-38.903Z"/><path stroke-linejoin="bevel" stroke-width="1.536" d="M282.678 270.944h4.59v21.113h-4.59v-21.113Zm39.36 0h4.59v21.113h-4.59v-21.113Zm-43.277-35.61h5.53v21.645h-5.53v-21.645Zm0-4.07h5.498v4.019h-5.498v-4.019Z"/><path stroke-linejoin="bevel" stroke-width="1.6544" d="M324.239 239.993h7.885v16.71h-7.885v-16.71Z"/><path stroke-linejoin="miter" stroke-width="1.536" d="M284.201 256.813v-37.044c1.577 0 1.82 5.428 5.44 5.428 1.882 0 1.682-2.248.625-4.08-.937-1.623-2.096-3.863-.521-8.038 1.08 3.195 3.984 4.208 3.448 2.205-.922-3.44-3.578-4.006-1.587-9.346.694 4.454 3.55 4.258 2.857 1.669-.781-2.919-2.398-4.114-.405-8.228 1.118 4.672 2.627 4.397 2.627 1.498 0-4.283-.164-8.904 5.38-10.618 0 0 .32-3.927 2.319-3.927 1.999 0 2.321 3.927 2.321 3.927 5.542 1.715 5.378 6.336 5.378 10.619 0 2.899 1.511 3.174 2.627-1.498 1.994 4.114.377 5.31-.403 8.228-.697 2.589 2.163 2.787 2.854-1.669 1.992 5.34-.663 5.906-1.587 9.346-.535 2.004 2.368.99 3.448-2.204 1.574 4.173.416 6.413-.521 8.039-1.057 1.83-1.258 4.079.627 4.079 3.618 0 3.861-5.427 5.438-5.427v37.043l-40.365-.002Zm-8.661-27.981v28.262h3.213V228.76c-1.157-.585-2.245-.675-3.213.072Z"/><path stroke-linejoin="miter" stroke-width="1.536" d="M275.642 247.123c3.983 2.035 7.929 4.394 8.928 9.975h-8.928v-9.975Zm55.253-8.461v18.441h2.605v-18.487c-.813-.381-1.924-.441-2.605.046Z"/><path stroke-linejoin="miter" stroke-width="1.536" d="M333.507 246.982c-3.984 2.035-7.93 4.394-8.928 9.975h8.928v-9.975ZM307.164 203.91l2.322-1.952v-2.5c-.85.084-1.313.375-1.94 1.198-.534-1.657-1.708-2.95-3.28-3.754-1.574.804-2.747 2.039-3.28 3.696-.628-.823-1.091-1.056-1.941-1.14v2.5l2.323 1.952h5.796Z"/><path stroke-linejoin="miter" stroke-width="1.536" d="m308.406 210.169 1.079-2.336v-3.251c-.85.086-1.313.382-1.941 1.216-.533-1.681-1.707-2.993-3.279-3.807-1.574.816-2.747 2.069-3.281 3.748-.627-.832-1.09-1.07-1.94-1.154v3.251l1.08 2.335 8.282-.002Z"/><path stroke-linejoin="miter" stroke-width="1.536" d="m308.572 218.656 3.45-4.208v-4.151c-1.262.141-1.951.644-2.883 2.056-.793-2.844-2.534-3.466-4.871-4.846-2.336 1.38-4.08 1.901-4.872 4.745-.932-1.412-1.621-1.813-2.88-1.955v4.151l3.447 4.208h8.609Z"/><path stroke-linejoin="miter" stroke-width="1.536" d="M309.583 226.989s4.02-3.508 4.259-5.433v-4.438c-1.558.182-3.031.587-4.182 2.409-.979-3.673-2.509-4.697-5.391-6.479-2.884 1.782-4.412 2.806-5.392 6.479-1.152-1.824-2.624-2.227-4.181-2.41v4.437c.507 1.925 4.257 5.432 4.257 5.432l10.63.003Z"/><path stroke-linejoin="miter" stroke-width="1.536" d="M311.299 242.374s5.504-6.093 5.632-8.468v-6.92c-2.061.285-4.009 1.702-5.53 4.544-1.295-5.727-3.315-9.72-7.13-12.498-3.814 2.778-5.836 6.771-7.129 12.499-1.523-2.844-3.473-4.262-5.532-4.546v6.919c.394 2.375 5.632 8.469 5.632 8.469l14.057.001Z"/><path stroke-linejoin="miter" stroke-width="1.536" d="M311.299 251.475s4.705-4.79 5.632-6.869v-6.919c-2.061.285-4.009 1.702-5.53 4.544-1.295-5.727-3.315-9.006-7.13-11.784-3.814 2.778-5.836 6.057-7.129 11.785-1.523-2.845-3.473-4.262-5.532-4.546v6.919c1.194 2.079 5.632 6.869 5.632 6.869l14.057.001Z"/><path stroke-linejoin="miter" stroke-width="1.536" d="M313.193 256.761c-1.373-5.975-2.555-10.406-9.169-14.899-6.613 4.493-7.795 8.924-9.168 14.899h18.337Z"/><path stroke-linejoin="miter" stroke-width="1.536" d="M316.598 260.089v-8.655c-3.003 1.178-5.718 2.918-6.72 4.858-1.116-4.806-3.272-6.923-5.955-9.831-2.684 2.908-4.48 5.025-5.6 9.831-1.001-1.94-3.714-3.68-6.72-4.858v8.655h24.995Z"/></g><g fill="#fff"><path stroke-linejoin="miter" stroke-width="1.536" d="M523.452 292.179v-26.163c.858-3.332 3.687-6.279 5.811-6.869v-23.032l-4.787 2.591-5.468 24.076v29.397h4.444Z"/><path stroke-linejoin="miter" stroke-width="1.536" d="M523.452 292.281v-26.265c.858-3.331 3.687-6.277 5.811-6.867v-24.631c-3.212 0-4.787 4.189-4.787 4.189l-5.468 24.077v29.295l4.444.202Z"/><path stroke-linejoin="miter" stroke-width="1.536" d="M526.857 298.989c-2.214-.999-5.44-3.738-5.44-6.49v-32.7l1.519-2.698h-55.709l2.173 2.698v32.7c0 2.752-2.214 5.491-4.428 6.49h61.885Z"/><path stroke-linejoin="miter" stroke-width="1.536" d="M476.214 298.989c2.214-.999 5.44-3.738 5.44-6.49v-31.1l-4.634-4.301 37.873.003-4.634 4.298v31.1c0 2.752 3.226 5.491 5.44 6.49h-39.485Z"/><path stroke-linejoin="miter" stroke-width="1.536" d="M481.526 298.989c2.214-.999 5.44-3.738 5.44-6.49v-28.115l-3.034-4.301h24.062l-3.034 4.301v28.115c0 2.752 3.226 5.491 5.44 6.49h-28.874Z"/><path stroke-linejoin="miter" stroke-width="1.536" d="M501.711 260.089h-11.497v38.903h11.497v-38.903Z"/><path stroke-linejoin="bevel" stroke-width="1.536" d="M517.353 270.944h-4.59v21.113h4.59v-21.113Zm-39.36 0h-4.59v21.113h4.59v-21.113Zm43.277-35.61h-5.53v21.645h5.53v-21.645Zm0-4.07h-5.498v4.019h5.498v-4.019Z"/><path stroke-linejoin="bevel" stroke-width="1.6544" d="M475.791 239.993h-7.884v16.71h7.884v-16.71Z"/><path stroke-linejoin="miter" stroke-width="1.536" d="M515.83 256.813v-37.044c-1.577 0-1.82 5.428-5.44 5.428-1.882 0-1.682-2.248-.625-4.08.937-1.623 2.095-3.863.521-8.038-1.08 3.195-3.985 4.208-3.448 2.205.921-3.44 3.577-4.006 1.587-9.346-.694 4.454-3.551 4.258-2.857 1.669.781-2.919 2.397-4.114.404-8.228-1.117 4.672-2.626 4.397-2.626 1.498 0-4.283.164-8.904-5.38-10.618 0 0-.32-3.927-2.319-3.927-2 0-2.321 3.927-2.321 3.927-5.542 1.715-5.378 6.336-5.378 10.619 0 2.899-1.511 3.174-2.627-1.498-1.994 4.114-.378 5.31.403 8.228.696 2.589-2.163 2.787-2.854-1.669-1.992 5.34.663 5.906 1.587 9.346.535 2.004-2.368.99-3.448-2.204-1.575 4.173-.416 6.413.521 8.039 1.057 1.83 1.258 4.079-.628 4.079-3.617 0-3.86-5.427-5.437-5.427v37.043l40.365-.002Zm8.66-27.981v28.262h-3.213V228.76c1.158-.585 2.246-.675 3.213.072Z"/><path stroke-linejoin="miter" stroke-width="1.536" d="M524.389 247.123c-3.983 2.035-7.929 4.394-8.928 9.975h8.928v-9.975Zm-55.254-8.461v18.441h-2.604v-18.487c.812-.381 1.923-.441 2.604.046Z"/><path stroke-linejoin="miter" stroke-width="1.536" d="M466.524 246.982c3.984 2.035 7.93 4.394 8.928 9.975h-8.928v-9.975ZM492.867 203.91l-2.322-1.952v-2.5c.85.084 1.313.375 1.94 1.198.534-1.657 1.708-2.95 3.279-3.754 1.575.804 2.747 2.039 3.281 3.696.627-.823 1.091-1.056 1.941-1.14v2.5l-2.324 1.952h-5.795Z"/><path stroke-linejoin="miter" stroke-width="1.536" d="m491.625 210.169-1.079-2.336v-3.251c.85.086 1.313.382 1.94 1.216.534-1.681 1.708-2.993 3.28-3.807 1.574.816 2.747 2.069 3.28 3.748.628-.832 1.091-1.07 1.941-1.154v3.251l-1.08 2.335-8.282-.002Z"/><path stroke-linejoin="miter" stroke-width="1.536" d="m491.459 218.656-3.45-4.208v-4.151c1.262.141 1.951.644 2.883 2.056.793-2.844 2.534-3.466 4.871-4.846 2.336 1.38 4.08 1.901 4.872 4.745.932-1.412 1.62-1.813 2.88-1.955v4.151l-3.447 4.208h-8.609Z"/><path stroke-linejoin="miter" stroke-width="1.536" d="M490.447 226.989s-4.019-3.508-4.258-5.433v-4.438c1.558.182 3.031.587 4.182 2.409.979-3.673 2.508-4.697 5.391-6.479 2.884 1.782 4.412 2.806 5.391 6.479 1.152-1.824 2.624-2.227 4.182-2.41v4.437c-.507 1.925-4.257 5.432-4.257 5.432l-10.631.003Z"/><path stroke-linejoin="miter" stroke-width="1.536" d="M488.732 242.374s-5.504-6.093-5.632-8.468v-6.92c2.061.285 4.009 1.702 5.53 4.544 1.295-5.727 3.315-9.72 7.129-12.498 3.815 2.778 5.837 6.771 7.13 12.499 1.523-2.844 3.473-4.262 5.532-4.546v6.919c-.394 2.375-5.632 8.469-5.632 8.469l-14.057.001Z"/><path stroke-linejoin="miter" stroke-width="1.536" d="M488.732 251.475s-4.705-4.79-5.632-6.869v-6.919c2.061.285 4.009 1.702 5.53 4.544 1.295-5.727 3.315-9.006 7.129-11.784 3.815 2.778 5.837 6.057 7.13 11.785 1.523-2.845 3.473-4.262 5.532-4.546v6.919c-1.194 2.079-5.632 6.869-5.632 6.869l-14.057.001Z"/><path stroke-linejoin="miter" stroke-width="1.536" d="M486.838 256.761c1.373-5.975 2.555-10.406 9.168-14.899 6.614 4.493 7.796 8.924 9.169 14.899h-18.337Z"/><path stroke-linejoin="miter" stroke-width="1.536" d="M483.433 260.089v-8.655c3.003 1.178 5.718 2.918 6.72 4.858 1.116-4.806 3.272-6.923 5.955-9.831 2.684 2.908 4.48 5.025 5.6 9.831 1-1.94 3.714-3.68 6.72-4.858v8.655h-24.995Z"/></g><g fill="#fff" stroke-linejoin="miter"><path stroke-width="1.536" d="M264.389 298.643v7.901h271.219v-7.902l-271.219.001Zm-4.91 7.974v10.304h281.037v-10.304H259.479Zm281.037 10.304-281.037.077-8.215-.077v13.597h297.469v-13.594l-8.217-.003Zm-297.527 13.684.002 16.012h314.023l-.003-16.012H242.989Zm314.025 16.012v.026H242.991v-.026h-8.277v16.013h330.572v-16.013h-8.272Z"/><path stroke-width="1.672" d="M293.827 298.681h20.486v63.917h-20.486v-63.917Z"/><path stroke-width="1.6688" d="M298.358 298.681h11.414v63.918h-11.414v-63.918Z"/><path stroke-width="1.672" d="M389.404 298.681h20.488v63.917h-20.488v-63.917Z"/><path stroke-width="1.6688" d="M394.076 298.681h11.414v63.918h-11.414v-63.918Z"/><path stroke-width="1.672" d="M485.545 298.681h20.486v63.917h-20.486v-63.917Z"/><path stroke-width="1.6688" d="M490.076 298.681h11.414v63.918h-11.414v-63.918Z"/></g><path fill="none" stroke-linejoin="miter" stroke-width="1.536" d="M276.579 292.179h247.129m-225.555 62.387h11.832m-11.832-8h11.832m-11.832-8h11.832m-11.832-8h11.832m-11.832-8h11.832m-11.832-8h11.832m-11.832-8h11.832m84.142 48.013h11.017m-11.017-8.004h11.017m-11.017-8.005h11.017m-11.017-8.004h11.017m-11.017-8.004h11.017m-11.017-8.004h11.017m-11.017-8.005h11.017m84.727 48.013h11.833m-11.833-8h11.833m-11.833-8h11.833m-11.833-8h11.833m-11.833-8h11.833m-11.833-8h11.833m-11.833-8h11.833"/></g></svg>