<svg xmlns="http://www.w3.org/2000/svg" xml:space="preserve" width="800" height="400" viewBox="0 0 800 400"><defs><clipPath id="a" clipPathUnits="userSpaceOnUse"><path d="M0 300h600V0H0Z"/></clipPath></defs><path d="M0 138h600v162H0Z" style="fill:#c81010;fill-opacity:1;fill-rule:nonzero;stroke:none" transform="matrix(1.33333 0 0 -1.33333 0 400)"/><g clip-path="url(#a)" transform="matrix(1.33333 0 0 -1.33333 0 400)"><path d="M0 0c-19.08 7.89-30.761 9.34-43.811 9.47-18.899-.13-27.919-8.25-45.939-9 7.14-7.69 33.02-9.57 43.93.53 16.219-1.69 19.9-6.07 24.25-11.52-6.77 1.07-14.571 3.02-21.04-4.14-5.46-1.1-7.991 0-17.33 0-4.36 0-5.871-2.14-5.81-6 2.819 3.9 22.31 1.6 27.09 0 3.67-1.23 7.57-6.32 12.22-7.15 12.19-2.17 29.679 4.2 45.809 8.54l34.881 4.61H30.319l29.931 6H27.709c-.689.79-2.34 1.81-3.659 2.68C32.42-.59 39.819 9.21 41.709 13.94c15.091.15 24.83 1.55 36.541 4.29C1.069 26.77 18.64 17.56 0 0" style="fill:#f8d000;fill-opacity:1;fill-rule:nonzero;stroke:none" transform="translate(305.75 272.66)"/><path d="M0 0c-19.08 7.89-30.761 9.34-43.811 9.47-18.899-.13-27.919-8.25-45.939-9 7.14-7.69 33.02-9.57 43.93.53 16.219-1.69 19.9-6.07 24.25-11.52-6.77 1.07-14.571 3.02-21.04-4.14-5.46-1.1-7.991 0-17.33 0-4.36 0-5.871-2.14-5.81-6 2.819 3.9 22.31 1.6 27.09 0 3.67-1.23 7.57-6.32 12.22-7.15 12.19-2.17 29.679 4.2 45.809 8.54l34.881 4.61H30.319l29.931 6H27.709c-.689.79-2.34 1.81-3.659 2.68C32.42-.59 39.819 9.21 41.709 13.94c15.091.15 24.83 1.55 36.541 4.29C1.069 26.77 18.64 17.56 0 0Z" style="fill:none;stroke:#000;stroke-width:.46;stroke-linecap:butt;stroke-linejoin:miter;stroke-miterlimit:22.926;stroke-dasharray:none;stroke-opacity:1" transform="translate(305.75 272.66)"/><path d="M0 0c.83 0 1.5-.67 1.5-1.5S.83-3 0-3c-.82 0-1.5.67-1.5 1.5S-.82 0 0 0" style="fill:#000;fill-opacity:1;fill-rule:nonzero;stroke:none" transform="translate(270.06 260.11)"/><path d="M0 0c.83 0 1.5-.67 1.5-1.5S.83-3 0-3c-.82 0-1.5.67-1.5 1.5S-.82 0 0 0z" style="fill:none;stroke:#000;stroke-width:.15;stroke-linecap:butt;stroke-linejoin:miter;stroke-miterlimit:22.926;stroke-dasharray:none;stroke-opacity:1" transform="translate(270.06 260.11)"/><path d="M0 0s-6.271-3.71-10.43-3.71" style="fill:none;stroke:#000;stroke-width:.46;stroke-linecap:butt;stroke-linejoin:miter;stroke-miterlimit:22.926;stroke-dasharray:none;stroke-opacity:1" transform="translate(290.13 261.71)"/><path d="M0 0s5.73 4.61 10.95 4.61" style="fill:none;stroke:#000;stroke-width:.46;stroke-linecap:butt;stroke-linejoin:miter;stroke-miterlimit:22.926;stroke-dasharray:none;stroke-opacity:1" transform="translate(325.12 253.39)"/><path d="M0 0s4.66 2.44 6.86 3.09" style="fill:none;stroke:#000;stroke-width:.46;stroke-linecap:butt;stroke-linejoin:miter;stroke-miterlimit:22.926;stroke-dasharray:none;stroke-opacity:1" transform="translate(233.82 275.4)"/><path d="M0 0s7.39 3.19 15.62 3.03" style="fill:none;stroke:#000;stroke-width:.46;stroke-linecap:butt;stroke-linejoin:miter;stroke-miterlimit:22.926;stroke-dasharray:none;stroke-opacity:1" transform="translate(253.13 278.88)"/><path d="M0 0s9.69 1.63 18.641-.36" style="fill:none;stroke:#000;stroke-width:.46;stroke-linecap:butt;stroke-linejoin:miter;stroke-miterlimit:22.926;stroke-dasharray:none;stroke-opacity:1" transform="translate(273.11 278.1)"/><path d="M0 0s8.04 1.35 15.75-.83" style="fill:none;stroke:#000;stroke-width:.46;stroke-linecap:butt;stroke-linejoin:miter;stroke-miterlimit:22.926;stroke-dasharray:none;stroke-opacity:1" transform="translate(284.25 275.76)"/><path d="M0 0s8.19-.11 12.26-1.69" style="fill:none;stroke:#000;stroke-width:.46;stroke-linecap:butt;stroke-linejoin:miter;stroke-miterlimit:22.926;stroke-dasharray:none;stroke-opacity:1" transform="translate(292.52 273.31)"/><path d="M0 0s11.489-3.14 20.83 1.35" style="fill:none;stroke:#000;stroke-width:.46;stroke-linecap:butt;stroke-linejoin:miter;stroke-miterlimit:22.926;stroke-dasharray:none;stroke-opacity:1" transform="translate(216 273.13)"/><path d="M0 0s14.92-3.68 21.74 3.15" style="fill:none;stroke:#000;stroke-width:.46;stroke-linecap:butt;stroke-linejoin:miter;stroke-miterlimit:22.926;stroke-dasharray:none;stroke-opacity:1" transform="translate(217.46 271.77)"/><path d="M0 0s11.24-3.62 20.08 5.72" style="fill:none;stroke:#000;stroke-width:.46;stroke-linecap:butt;stroke-linejoin:miter;stroke-miterlimit:22.926;stroke-dasharray:none;stroke-opacity:1" transform="translate(222.46 269.19)"/><path d="M0 0s9.08 2.6 12.521 7.95" style="fill:none;stroke:#000;stroke-width:.46;stroke-linecap:butt;stroke-linejoin:miter;stroke-miterlimit:22.926;stroke-dasharray:none;stroke-opacity:1" transform="translate(232.9 266.92)"/><path d="M0 0s6.09 4.22 8.279 7.98" style="fill:none;stroke:#000;stroke-width:.46;stroke-linecap:butt;stroke-linejoin:miter;stroke-miterlimit:22.926;stroke-dasharray:none;stroke-opacity:1" transform="translate(240 266.77)"/><path d="M0 0s2.381-2.99 11.341-4.85" style="fill:none;stroke:#000;stroke-width:.46;stroke-linecap:butt;stroke-linejoin:miter;stroke-miterlimit:22.926;stroke-dasharray:none;stroke-opacity:1" transform="translate(318.459 271.53)"/><path d="M0 0s3.851-3.85 11.87-4.79" style="fill:none;stroke:#000;stroke-width:.46;stroke-linecap:butt;stroke-linejoin:miter;stroke-miterlimit:22.926;stroke-dasharray:none;stroke-opacity:1" transform="translate(320.04 272.94)"/><path d="M0 0s3.91-3.36 12.42-4.61" style="fill:none;stroke:#000;stroke-width:.46;stroke-linecap:butt;stroke-linejoin:miter;stroke-miterlimit:22.926;stroke-dasharray:none;stroke-opacity:1" transform="translate(321.98 274.75)"/><path d="M0 0s5.98-3.99 12.79-4.45" style="fill:none;stroke:#000;stroke-width:.46;stroke-linecap:butt;stroke-linejoin:miter;stroke-miterlimit:22.926;stroke-dasharray:none;stroke-opacity:1" transform="translate(323.91 276.68)"/><path d="M0 0s4.189-3.91 12.5-4.88" style="fill:none;stroke:#000;stroke-width:.46;stroke-linecap:butt;stroke-linejoin:miter;stroke-miterlimit:22.926;stroke-dasharray:none;stroke-opacity:1" transform="translate(326.27 279.2)"/><path d="M0 0s4.91-4.22 12.63-4.8" style="fill:none;stroke:#000;stroke-width:.46;stroke-linecap:butt;stroke-linejoin:miter;stroke-miterlimit:22.926;stroke-dasharray:none;stroke-opacity:1" transform="translate(328.03 281.21)"/><path d="M0 0s3.01-3.48 12.939-4.39" style="fill:none;stroke:#000;stroke-width:.46;stroke-linecap:butt;stroke-linejoin:miter;stroke-miterlimit:22.926;stroke-dasharray:none;stroke-opacity:1" transform="translate(329.76 283.31)"/><path d="M0 0s3.35-3.68 12.78-4.48" style="fill:none;stroke:#000;stroke-width:.46;stroke-linecap:butt;stroke-linejoin:miter;stroke-miterlimit:22.926;stroke-dasharray:none;stroke-opacity:1" transform="translate(331.52 285.58)"/><path d="M0 0s5.899-4.45 12.729-4.36" style="fill:none;stroke:#000;stroke-width:.46;stroke-linecap:butt;stroke-linejoin:miter;stroke-miterlimit:22.926;stroke-dasharray:none;stroke-opacity:1" transform="translate(332.89 287.45)"/><path d="M0 0s7.8-4.68 12.45-4.53" style="fill:none;stroke:#000;stroke-width:.46;stroke-linecap:butt;stroke-linejoin:miter;stroke-miterlimit:22.926;stroke-dasharray:none;stroke-opacity:1" transform="translate(334.06 289.15)"/><path d="M0 0s6.2-3.86 11.98-4.71" style="fill:none;stroke:#000;stroke-width:.46;stroke-linecap:butt;stroke-linejoin:miter;stroke-miterlimit:22.926;stroke-dasharray:none;stroke-opacity:1" transform="translate(335.48 291.31)"/><path d="M0 0s2.5-1.89 4.84-1.81" style="fill:none;stroke:#000;stroke-width:.46;stroke-linecap:butt;stroke-linejoin:miter;stroke-miterlimit:22.926;stroke-dasharray:none;stroke-opacity:1" transform="translate(308.84 269.62)"/><path d="M0 0s2.17-1.85 5.15-1.84" style="fill:none;stroke:#000;stroke-width:.46;stroke-linecap:butt;stroke-linejoin:miter;stroke-miterlimit:22.926;stroke-dasharray:none;stroke-opacity:1" transform="translate(310.28 271.02)"/><path d="M0 0s2.46-2.3 5.41-1.88" style="fill:none;stroke:#000;stroke-width:.46;stroke-linecap:butt;stroke-linejoin:miter;stroke-miterlimit:22.926;stroke-dasharray:none;stroke-opacity:1" transform="translate(312.03 272.74)"/><path d="M0 0s2.94-2 5.57-1.94" style="fill:none;stroke:#000;stroke-width:.46;stroke-linecap:butt;stroke-linejoin:miter;stroke-miterlimit:22.926;stroke-dasharray:none;stroke-opacity:1" transform="translate(313.69 274.4)"/><path d="M0 0s2.18-1.89 5.63-2.07" style="fill:none;stroke:#000;stroke-width:.46;stroke-linecap:butt;stroke-linejoin:miter;stroke-miterlimit:22.926;stroke-dasharray:none;stroke-opacity:1" transform="translate(315.53 276.29)"/><path d="M0 0s2.56-2.27 5.819-2.35" style="fill:none;stroke:#000;stroke-width:.46;stroke-linecap:butt;stroke-linejoin:miter;stroke-miterlimit:22.926;stroke-dasharray:none;stroke-opacity:1" transform="translate(317.17 278.37)"/><path d="M0 0s2.48-1.59 5.99-1.89" style="fill:none;stroke:#000;stroke-width:.46;stroke-linecap:butt;stroke-linejoin:miter;stroke-miterlimit:22.926;stroke-dasharray:none;stroke-opacity:1" transform="translate(318.9 279.87)"/><path d="M0 0s3.35-1.18 6.42-1.47" style="fill:none;stroke:#000;stroke-width:.46;stroke-linecap:butt;stroke-linejoin:miter;stroke-miterlimit:22.926;stroke-dasharray:none;stroke-opacity:1" transform="translate(320.47 281.62)"/><path d="M0 0s2.311-1.62 6.41-1.52" style="fill:none;stroke:#000;stroke-width:.46;stroke-linecap:butt;stroke-linejoin:miter;stroke-miterlimit:22.926;stroke-dasharray:none;stroke-opacity:1" transform="translate(322.28 283.76)"/><path d="M0 0s2.74-1.82 6.261-1.86" style="fill:none;stroke:#000;stroke-width:.46;stroke-linecap:butt;stroke-linejoin:miter;stroke-miterlimit:22.926;stroke-dasharray:none;stroke-opacity:1" transform="translate(323.91 285.9)"/><path d="M0 0s3.68-2.06 6.85-1.6" style="fill:none;stroke:#000;stroke-width:.46;stroke-linecap:butt;stroke-linejoin:miter;stroke-miterlimit:22.926;stroke-dasharray:none;stroke-opacity:1" transform="translate(325.11 287.93)"/><path d="M0 0s2.33-2.55 6.67-2.46" style="fill:none;stroke:#000;stroke-width:.46;stroke-linecap:butt;stroke-linejoin:miter;stroke-miterlimit:22.926;stroke-dasharray:none;stroke-opacity:1" transform="translate(326.45 290.36)"/><path d="M0 0s4.18-2.35 7.01-1.75" style="fill:none;stroke:#000;stroke-width:.46;stroke-linecap:butt;stroke-linejoin:miter;stroke-miterlimit:22.926;stroke-dasharray:none;stroke-opacity:1" transform="translate(327.39 291.46)"/><path d="M0 0s3.17-1.93 6.07-1.85" style="fill:none;stroke:#000;stroke-width:.46;stroke-linecap:butt;stroke-linejoin:miter;stroke-miterlimit:22.926;stroke-dasharray:none;stroke-opacity:1" transform="translate(329.16 292.79)"/><path d="M0 0s5.649-2.88 13.29.24" style="fill:none;stroke:#000;stroke-width:.46;stroke-linecap:butt;stroke-linejoin:miter;stroke-miterlimit:22.926;stroke-dasharray:none;stroke-opacity:1" transform="translate(332.38 293.76)"/><path d="M0 0s11.42-2.62 16.37 1.96" style="fill:none;stroke:#000;stroke-width:.46;stroke-linecap:butt;stroke-linejoin:miter;stroke-miterlimit:22.926;stroke-dasharray:none;stroke-opacity:1" transform="translate(337.19 291.71)"/><path d="M0 0s7.851-.82 16.63 1.96" style="fill:none;stroke:#000;stroke-width:.46;stroke-linecap:butt;stroke-linejoin:miter;stroke-miterlimit:22.926;stroke-dasharray:none;stroke-opacity:1" transform="translate(346.15 291.03)"/><path d="M0 0s11.92-2.4 32.631-.09" style="fill:none;stroke:#000;stroke-width:.46;stroke-linecap:butt;stroke-linejoin:miter;stroke-miterlimit:22.926;stroke-dasharray:none;stroke-opacity:1" transform="translate(351.37 290.98)"/><path d="M0 0s5.33 3.51 7.54 7.55" style="fill:none;stroke:#000;stroke-width:.46;stroke-linecap:butt;stroke-linejoin:miter;stroke-miterlimit:22.926;stroke-dasharray:none;stroke-opacity:1" transform="translate(243.24 267.04)"/><path d="M0 0s4.29 4.16 5.54 6.74" style="fill:none;stroke:#000;stroke-width:.46;stroke-linecap:butt;stroke-linejoin:miter;stroke-miterlimit:22.926;stroke-dasharray:none;stroke-opacity:1" transform="translate(247.23 267.69)"/><path d="M0 0s3.53 3.17 4.311 5.39" style="fill:none;stroke:#000;stroke-width:.46;stroke-linecap:butt;stroke-linejoin:miter;stroke-miterlimit:22.926;stroke-dasharray:none;stroke-opacity:1" transform="translate(251.19 268.76)"/><path d="M0 0s7.659 1.67 25.979-.68" style="fill:none;stroke:#000;stroke-width:.46;stroke-linecap:butt;stroke-linejoin:miter;stroke-miterlimit:22.926;stroke-dasharray:none;stroke-opacity:1" transform="translate(233.95 274.34)"/><path d="M0 0s6.421 3.11 12.141 4.06" style="fill:none;stroke:#000;stroke-width:.46;stroke-linecap:butt;stroke-linejoin:miter;stroke-miterlimit:22.926;stroke-dasharray:none;stroke-opacity:1" transform="translate(241.03 277.4)"/><path d="M0 0s4.689 2.21 11.609 3.31" style="fill:none;stroke:#000;stroke-width:.46;stroke-linecap:butt;stroke-linejoin:miter;stroke-miterlimit:22.926;stroke-dasharray:none;stroke-opacity:1" transform="translate(247.41 278.69)"/><path d="M0 0s6.49 2.77 14.431 2.51" style="fill:none;stroke:#000;stroke-width:.46;stroke-linecap:butt;stroke-linejoin:miter;stroke-miterlimit:22.926;stroke-dasharray:none;stroke-opacity:1" transform="translate(258.07 279.11)"/><path d="M0 0s8.9 1.99 17.101.87" style="fill:none;stroke:#000;stroke-width:.46;stroke-linecap:butt;stroke-linejoin:miter;stroke-miterlimit:22.926;stroke-dasharray:none;stroke-opacity:1" transform="translate(266.28 279.06)"/><path d="M0 0s6.79.31 14.601-1.63" style="fill:none;stroke:#000;stroke-width:.46;stroke-linecap:butt;stroke-linejoin:miter;stroke-miterlimit:22.926;stroke-dasharray:none;stroke-opacity:1" transform="translate(290.11 274.71)"/><path d="M0 0s9.729.52 16.399-.71" style="fill:none;stroke:#000;stroke-width:.46;stroke-linecap:butt;stroke-linejoin:miter;stroke-miterlimit:22.926;stroke-dasharray:none;stroke-opacity:1" transform="translate(278.5 277.44)"/><path d="M0 0s3.359-2.91 12.72-4.76" style="fill:none;stroke:#000;stroke-width:.46;stroke-linecap:butt;stroke-linejoin:miter;stroke-miterlimit:22.926;stroke-dasharray:none;stroke-opacity:1" transform="translate(338.67 291.43)"/><path d="M0 0s5.261-2.99 13.561-4.03" style="fill:none;stroke:#000;stroke-width:.46;stroke-linecap:butt;stroke-linejoin:miter;stroke-miterlimit:22.926;stroke-dasharray:none;stroke-opacity:1" transform="translate(343.95 290.96)"/><path d="M0 0s7.38-3.21 15.18-3.41" style="fill:none;stroke:#000;stroke-width:.46;stroke-linecap:butt;stroke-linejoin:miter;stroke-miterlimit:22.926;stroke-dasharray:none;stroke-opacity:1" transform="translate(349.47 290.92)"/><path d="M0 0s7.52-1.81 16.84-1.32" style="fill:none;stroke:#000;stroke-width:.46;stroke-linecap:butt;stroke-linejoin:miter;stroke-miterlimit:22.926;stroke-dasharray:none;stroke-opacity:1" transform="translate(357.64 290.22)"/><path d="M0 0s5.1 2.1 14.14 1.93" style="fill:none;stroke:#000;stroke-width:.46;stroke-linecap:butt;stroke-linejoin:miter;stroke-miterlimit:22.926;stroke-dasharray:none;stroke-opacity:1" transform="translate(262.41 279.22)"/><path d="M0 0s3.06.37 6.859-1.44" style="fill:none;stroke:#000;stroke-width:.46;stroke-linecap:butt;stroke-linejoin:miter;stroke-miterlimit:22.926;stroke-dasharray:none;stroke-opacity:1" transform="translate(296.04 271.58)"/><path d="M0 0c2.11-.33 4.12-.58 5.95-.43C13.11 3.48 18 7.15 21.57 10.52" style="fill:none;stroke:#000;stroke-width:.46;stroke-linecap:butt;stroke-linejoin:miter;stroke-miterlimit:22.926;stroke-dasharray:none;stroke-opacity:1" transform="translate(284.18 262.14)"/><path d="M0 0a50.001 50.001 0 0 0-34.763 21.654 50.002 50.002 0 0 1 40.77-3.903" style="fill:#f8d000;fill-opacity:1;fill-rule:nonzero;stroke:#000;stroke-width:.46;stroke-linecap:butt;stroke-linejoin:miter;stroke-miterlimit:22.926;stroke-dasharray:none;stroke-opacity:1" transform="translate(249.51 151.192)"/><path d="m0 0-41.822 13.286 43.551 5.375" style="fill:#f8d000;fill-opacity:1;fill-rule:nonzero;stroke:#000;stroke-width:.46;stroke-linecap:butt;stroke-linejoin:miter;stroke-miterlimit:22.926;stroke-dasharray:none;stroke-opacity:1" transform="translate(249.219 139.295)"/><path d="M0 0a50 50 0 0 0-24.592 32.752 50.004 50.004 0 0 1 36.606-18.37" style="fill:#f8d000;fill-opacity:1;fill-rule:nonzero;stroke:#000;stroke-width:.46;stroke-linecap:butt;stroke-linejoin:miter;stroke-miterlimit:22.926;stroke-dasharray:none;stroke-opacity:1" transform="translate(255.52 168.947)"/><path d="m0 0-34.197 27.499L8.354 16.775" style="fill:#f8d000;fill-opacity:1;fill-rule:nonzero;stroke:#000;stroke-width:.46;stroke-linecap:butt;stroke-linejoin:miter;stroke-miterlimit:22.926;stroke-dasharray:none;stroke-opacity:1" transform="translate(250.95 157.96)"/><path d="M0 0a50.003 50.003 0 0 0-11.104 39.422A50 50 0 0 1 16.397 9.073" style="fill:#f8d000;fill-opacity:1;fill-rule:nonzero;stroke:#000;stroke-width:.46;stroke-linecap:butt;stroke-linejoin:miter;stroke-miterlimit:22.926;stroke-dasharray:none;stroke-opacity:1" transform="translate(267.531 183.327)"/><path d="m0 0-21.958 37.993 35.807-25.368" style="fill:#f8d000;fill-opacity:1;fill-rule:nonzero;stroke:#000;stroke-width:.46;stroke-linecap:butt;stroke-linejoin:miter;stroke-miterlimit:22.926;stroke-dasharray:none;stroke-opacity:1" transform="translate(259.3 174.732)"/><path d="M0 0a50 50 0 0 0 3.889 40.771A50 50 0 0 1 18.567 2.535" style="fill:#f8d000;fill-opacity:1;fill-rule:nonzero;stroke:#000;stroke-width:.46;stroke-linecap:butt;stroke-linejoin:miter;stroke-miterlimit:22.926;stroke-dasharray:none;stroke-opacity:1" transform="translate(283.934 192.401)"/><path d="m0 0-6.748 43.36L17.475 6.77" style="fill:#f8d000;fill-opacity:1;fill-rule:nonzero;stroke:#000;stroke-width:.46;stroke-linecap:butt;stroke-linejoin:miter;stroke-miterlimit:22.926;stroke-dasharray:none;stroke-opacity:1" transform="translate(273.153 187.36)"/><path d="M0 0a49.997 49.997 0 0 0 18.357 36.612 50.002 50.002 0 0 1-.128-40.956" style="fill:#f8d000;fill-opacity:1;fill-rule:nonzero;stroke:#000;stroke-width:.46;stroke-linecap:butt;stroke-linejoin:miter;stroke-miterlimit:22.926;stroke-dasharray:none;stroke-opacity:1" transform="translate(302.506 194.936)"/><path d="m0 0 9.373 42.869L18.74-.001" style="fill:#f8d000;fill-opacity:1;fill-rule:nonzero;stroke:#000;stroke-width:.46;stroke-linecap:butt;stroke-linejoin:miter;stroke-miterlimit:22.926;stroke-dasharray:none;stroke-opacity:1" transform="translate(290.633 194.13)"/><path d="M0 0a50.003 50.003 0 0 0 30.341 27.512 49.993 49.993 0 0 1-14.91-38.146" style="fill:#f8d000;fill-opacity:1;fill-rule:nonzero;stroke:#000;stroke-width:.46;stroke-linecap:butt;stroke-linejoin:miter;stroke-miterlimit:22.926;stroke-dasharray:none;stroke-opacity:1" transform="translate(320.731 190.594)"/><path d="m0 0 24.223 36.591-6.748-43.36" style="fill:#f8d000;fill-opacity:1;fill-rule:nonzero;stroke:#000;stroke-width:.46;stroke-linecap:butt;stroke-linejoin:miter;stroke-miterlimit:22.926;stroke-dasharray:none;stroke-opacity:1" transform="translate(309.37 194.13)"/><path d="M0 0a50 50 0 0 0 38.231 14.691 50 50 0 0 1-27.685-30.182" style="fill:#f8d000;fill-opacity:1;fill-rule:nonzero;stroke:#000;stroke-width:.46;stroke-linecap:butt;stroke-linejoin:miter;stroke-miterlimit:22.926;stroke-dasharray:none;stroke-opacity:1" transform="translate(336.165 179.956)"/><path d="m0 0 35.807 25.368L13.85-12.625" style="fill:#f8d000;fill-opacity:1;fill-rule:nonzero;stroke:#000;stroke-width:.46;stroke-linecap:butt;stroke-linejoin:miter;stroke-miterlimit:22.926;stroke-dasharray:none;stroke-opacity:1" transform="translate(326.848 187.358)"/><path d="M0 0a50 50 0 0 0 40.957-.114 49.998 49.998 0 0 1-36.72-18.141" style="fill:#f8d000;fill-opacity:1;fill-rule:nonzero;stroke:#000;stroke-width:.46;stroke-linecap:butt;stroke-linejoin:miter;stroke-miterlimit:22.926;stroke-dasharray:none;stroke-opacity:1" transform="translate(346.713 164.46)"/><path d="m0 0 42.553 10.718L8.352-16.776" style="fill:#f8d000;fill-opacity:1;fill-rule:nonzero;stroke:#000;stroke-width:.46;stroke-linecap:butt;stroke-linejoin:miter;stroke-miterlimit:22.926;stroke-dasharray:none;stroke-opacity:1" transform="translate(340.7 174.73)"/><path d="M0 0a49.994 49.994 0 0 0 38.15-14.896 49.994 49.994 0 0 1-40.793-3.657" style="fill:#f8d000;fill-opacity:1;fill-rule:nonzero;stroke:#000;stroke-width:.46;stroke-linecap:butt;stroke-linejoin:miter;stroke-miterlimit:22.926;stroke-dasharray:none;stroke-opacity:1" transform="translate(350.95 146.209)"/><path d="m0 0 43.552-5.373L1.729-18.66" style="fill:#f8d000;fill-opacity:1;fill-rule:nonzero;stroke:#000;stroke-width:.46;stroke-linecap:butt;stroke-linejoin:miter;stroke-miterlimit:22.926;stroke-dasharray:none;stroke-opacity:1" transform="translate(349.05 157.957)"/><path d="M0 0c28.166 0 51-22.833 51-51 0-28.166-22.834-51-51-51-28.167 0-51 22.834-51 51C-51-22.833-28.167 0 0 0" style="fill:#f8d000;fill-opacity:1;fill-rule:nonzero;stroke:none" transform="translate(300 195)"/><path d="M0 0c28.166 0 51-22.833 51-51 0-28.166-22.834-51-51-51-28.167 0-51 22.834-51 51C-51-22.833-28.167 0 0 0z" style="fill:none;stroke:#000;stroke-width:.46;stroke-linecap:butt;stroke-linejoin:miter;stroke-miterlimit:22.926;stroke-dasharray:none;stroke-opacity:1" transform="translate(300 195)"/><path d="M0 138h600V0H0Z" style="fill:#183070;fill-opacity:1;fill-rule:nonzero;stroke:none"/><path d="M0 0c-17.187-6.875-33.898-6.875-51.086 0C-73.951 9.146-97.135 9.146-120 0c-17.187-6.875-33.898-6.875-51.086 0-22.73 9.092-46.805 9.138-71.558.136-19.447-7.071-38.353-7.071-57.798 0C-325.196 9.138-349.272 9.092-372 0c-17.188-6.875-33.898-6.875-51.086 0-22.864 9.146-46.05 9.146-68.914 0-17.188-6.875-33.898-6.875-51.086 0-9.446 3.778-18.947 5.971-28.457 6.627v-24.049c6.481-.62 12.977-2.235 19.543-4.861 22.864-9.147 46.05-9.147 68.914 0 17.188 6.875 33.898 6.875 51.086 0 22.864-9.147 46.05-9.147 68.914 0 17.325 6.931 35.133 6.887 54.442-.136 24.618-8.953 49.583-8.953 74.202 0 19.307 7.022 37.117 7.065 54.442.136 22.865-9.147 46.049-9.147 68.914 0 17.188 6.875 33.898 6.875 51.086 0 11.433-4.573 22.944-6.86 34.457-6.86 11.513 0 23.024 2.287 34.457 6.86 6.566 2.626 13.063 4.241 19.543 4.861V6.627C18.947 5.971 9.446 3.778 0 0" style="fill:#fff;fill-opacity:1;fill-rule:nonzero;stroke:none" transform="translate(571.543 143.142)"/><path d="M0 0c-17.187-6.875-33.898-6.875-51.086 0C-73.951 9.146-97.135 9.146-120 0c-17.187-6.875-33.898-6.875-51.086 0-22.73 9.093-46.805 9.137-71.558.136-19.447-7.071-38.353-7.071-57.798 0C-325.196 9.139-349.272 9.092-372 0c-17.188-6.875-33.898-6.875-51.086 0-22.864 9.146-46.05 9.146-68.914 0-17.188-6.875-33.898-6.875-51.086 0-9.446 3.778-18.947 5.971-28.457 6.627v-24.049c6.481-.62 12.977-2.235 19.543-4.861 22.864-9.147 46.05-9.147 68.914 0 17.188 6.875 33.898 6.875 51.086 0 22.864-9.147 46.05-9.147 68.914 0 17.325 6.931 35.133 6.887 54.442-.136 24.618-8.953 49.583-8.953 74.202 0 19.307 7.022 37.117 7.065 54.442.136 22.865-9.147 46.049-9.147 68.914 0 17.188 6.875 33.898 6.875 51.086 0 11.433-4.573 22.944-6.86 34.457-6.86 11.513 0 23.024 2.287 34.457 6.86 6.566 2.626 13.063 4.241 19.543 4.861V6.627C18.947 5.971 9.446 3.778 0 0" style="fill:#fff;fill-opacity:1;fill-rule:nonzero;stroke:none" transform="translate(571.543 95.142)"/><path d="M0 0c-22.865 9.146-46.049 9.146-68.914 0C-86.102-6.875-102.813-6.875-120 0c-22.73 9.093-46.805 9.137-71.558.136-19.447-7.071-38.353-7.071-57.798 0-24.754 9.003-48.83 8.956-71.558-.136-17.188-6.875-33.898-6.875-51.086 0-22.864 9.146-46.05 9.146-68.914 0-17.188-6.875-33.898-6.875-51.086 0-9.446 3.778-18.947 5.971-28.457 6.627v-24.049c6.48-.62 12.977-2.235 19.543-4.861 22.864-9.147 46.05-9.147 68.914 0 17.188 6.875 33.898 6.875 51.086 0 22.864-9.147 46.05-9.147 68.914 0 17.325 6.931 35.133 6.887 54.442-.136 24.618-8.953 49.583-8.953 74.202 0 19.307 7.022 37.117 7.065 54.442.136 22.865-9.147 46.049-9.147 68.914 0 17.187 6.875 33.898 6.875 51.086 0 11.433-4.573 22.944-6.86 34.457-6.86 11.513 0 23.024 2.287 34.457 6.86 6.566 2.626 13.063 4.241 19.543 4.861V6.627C70.033 5.971 60.532 3.778 51.086 0 33.898-6.875 17.187-6.875 0 0" style="fill:#fff;fill-opacity:1;fill-rule:nonzero;stroke:none" transform="translate(520.457 47.142)"/></g></svg>