<svg xmlns="http://www.w3.org/2000/svg" width="1136" height="568" overflow="hidden"><defs><clipPath id="a"><path d="M-1 94h1136v568H-1z"/></clipPath></defs><g fill-rule="evenodd" clip-path="url(#a)" transform="translate(1 -94)"><path fill="#00AFCA" d="M0 94h1134v567H0Z"/><path fill="#FEC50C" d="M689.057 332.522c0 42.25-34.25 76.5-76.5 76.5s-76.5-34.25-76.5-76.5 34.25-76.5 76.5-76.5 76.5 34.25 76.5 76.5ZM612.559 246.032c4.727-.058 6.5-2.942 6.5-6.404 0-4.615-6.5-26.596-6.5-26.596s-6.5 21.981-6.5 26.596c0 3.462 1.773 6.404 6.5 6.404ZM698.958 332.569c.058 4.727 2.943 6.5 6.404 6.5 4.615 0 26.596-6.5 26.596-6.5s-21.981-6.5-26.596-6.5c-3.461 0-6.404 1.773-6.404 6.5ZM612.441 418.948c-4.727.058-6.5 2.943-6.5 6.404 0 4.616 6.5 26.597 6.5 26.597s6.5-21.981 6.5-26.597c0-3.461-1.773-6.404-6.5-6.404ZM526.042 332.451c-.058-4.727-2.943-6.5-6.404-6.5-4.615 0-26.596 6.5-26.596 6.5s21.981 6.5 26.596 6.5c3.461 0 6.404-1.773 6.404-6.5ZM645.753 252.533c4.211 1.683 6.867-.285 8.169-3.427 1.736-4.191 4.24-26.532 4.24-26.532s-14.027 17.569-15.763 21.759c-1.301 3.142-.837 6.464 3.354 8.2ZM692.554 365.778c-1.683 4.212.285 6.868 3.428 8.17 4.19 1.735 26.532 4.24 26.532 4.24s-17.569-14.027-21.759-15.763c-3.143-1.302-6.465-.837-8.201 3.353ZM579.336 412.58c-4.212-1.683-6.868.285-8.169 3.427-1.736 4.191-4.24 26.532-4.24 26.532s14.027-17.569 15.762-21.759c1.302-3.142.837-6.464-3.353-8.2ZM532.507 299.362c1.683-4.212-.285-6.868-3.427-8.17-4.19-1.736-26.532-4.24-26.532-4.24s17.569 14.027 21.759 15.763c3.143 1.302 6.465.837 8.2-3.353ZM673.851 271.339c3.247 3.167 6.454 2.365 8.86-.04 3.206-3.207 14.07-22.89 14.07-22.89s-19.683 10.864-22.89 14.071c-2.405 2.405-3.247 5.652-.04 8.859ZM673.752 393.867c-3.167 3.247-2.365 6.454.04 8.86 3.207 3.207 22.89 14.07 22.89 14.07s-10.864-19.683-14.071-22.89c-2.405-2.405-5.652-3.247-8.859-.04ZM551.243 393.787c-3.247-3.167-6.454-2.365-8.859.04-3.207 3.207-14.071 22.89-14.071 22.89s19.683-10.864 22.89-14.071c2.405-2.405 3.247-5.652.04-8.859ZM551.304 271.259c3.167-3.247 2.365-6.454-.04-8.859-3.207-3.207-22.89-14.071-22.89-14.071s10.864 19.683 14.071 22.89c2.405 2.405 5.652 3.247 8.859.04ZM692.611 299.466c1.788 4.169 5.058 4.655 8.201 3.354 4.19-1.736 21.759-15.763 21.759-15.763s-22.342 2.504-26.532 4.24c-3.143 1.302-5.163 3.979-3.428 8.169ZM645.634 412.624c-4.168 1.788-4.655 5.057-3.353 8.2 1.736 4.19 15.763 21.759 15.763 21.759s-2.505-22.342-4.24-26.532c-1.302-3.143-3.98-5.163-8.17-3.427ZM532.477 365.673c-1.788-4.168-5.057-4.655-8.2-3.353-4.19 1.736-21.759 15.763-21.759 15.763s22.342-2.504 26.532-4.24c3.143-1.302 5.163-3.98 3.427-8.17ZM579.427 252.489c4.169-1.787 4.655-5.057 3.354-8.2-1.736-4.19-15.763-21.759-15.763-21.759s2.504 22.342 4.24 26.532c1.302 3.143 3.979 5.163 8.169 3.427ZM629.5 247.59c4.459.829 6.68-1.619 7.343-4.955.885-4.449-1.017-26.85-1.017-26.85s-10.33 19.968-11.215 24.416c-.664 3.336.44 6.504 4.889 7.389ZM697.498 349.53c-.829 4.46 1.62 6.681 4.956 7.344 4.448.885 26.849-1.017 26.849-1.017s-19.968-10.33-24.416-11.215c-3.336-.664-6.504.44-7.389 4.888ZM595.583 417.519c-4.459-.829-6.68 1.619-7.344 4.955-.885 4.448 1.018 26.85 1.018 26.85s10.33-19.968 11.214-24.416c.664-3.337-.44-6.504-4.888-7.389ZM527.569 315.614c.829-4.46-1.619-6.681-4.955-7.344-4.448-.885-26.849 1.017-26.849 1.017s19.968 10.33 24.416 11.215c3.336.664 6.503-.44 7.388-4.888ZM660.728 260.552c3.803 2.473 6.792 1.061 8.682-1.767 2.519-3.771 9.334-25.195 9.334-25.195s-17.185 14.494-19.705 18.265c-1.889 2.829-2.082 6.178 1.689 8.697ZM684.536 380.749c-2.472 3.802-1.06 6.791 1.768 8.681 3.771 2.52 25.195 9.335 25.195 9.335s-14.495-17.185-18.266-19.705c-2.828-1.89-6.177-2.082-8.697 1.689ZM564.364 404.567c-3.802-2.473-6.791-1.061-8.681 1.768-2.519 3.771-9.335 25.195-9.335 25.195s17.186-14.495 19.705-18.266c1.89-2.828 2.082-6.177-1.689-8.697ZM540.521 284.385c2.473-3.803 1.061-6.792-1.767-8.681-3.771-2.52-25.195-9.335-25.195-9.335s14.495 17.185 18.266 19.705c2.828 1.89 6.177 2.082 8.696-1.689ZM684.617 284.479c2.567 3.74 5.868 3.579 8.697 1.689 3.771-2.519 18.265-19.705 18.265-19.705s-21.424 6.815-25.195 9.335c-2.828 1.89-4.287 4.91-1.767 8.681ZM660.616 404.63c-3.739 2.567-3.578 5.869-1.689 8.697 2.52 3.771 19.705 18.266 19.705 18.266s-6.815-21.424-9.334-25.195c-1.89-2.829-4.911-4.288-8.682-1.768ZM540.476 380.655c-2.567-3.74-5.869-3.579-8.697-1.689-3.771 2.519-18.266 19.704-18.266 19.704s21.424-6.815 25.195-9.334c2.828-1.89 4.288-4.91 1.768-8.681ZM564.441 260.489c3.74-2.567 3.579-5.868 1.689-8.697-2.52-3.771-19.705-18.265-19.705-18.265s6.815 21.424 9.335 25.195c1.89 2.828 4.91 4.287 8.681 1.767ZM697.528 315.725c.94 4.437 4.052 5.552 7.388 4.889 4.449-.885 24.416-11.215 24.416-11.215s-22.401-1.903-26.849-1.018c-3.336.664-5.84 2.896-4.955 7.344ZM629.381 417.541c-4.437.941-5.552 4.053-4.889 7.389.885 4.448 11.215 24.416 11.215 24.416s1.903-22.401 1.018-26.85c-.664-3.336-2.896-5.84-7.344-4.955ZM527.555 349.419c-.941-4.437-4.053-5.552-7.389-4.889-4.448.885-24.416 11.215-24.416 11.215s22.401 1.903 26.849 1.018c3.336-.664 5.84-2.896 4.956-7.344ZM595.687 247.568c4.437-.941 5.552-4.053 4.888-7.389-.884-4.448-11.215-24.416-11.215-24.416s-1.902 22.401-1.017 26.849c.664 3.337 2.896 5.841 7.344 4.956ZM598.571 497.963c-2.052.11-4.046.364-6.002.965-2.678.346-5.242 1.238-7.901 1.657l-1.063.164-1.785.164c.113.473.189.947.189 1.42 0 .492-.057.965-.189 1.366-.114.382-.476.855-.76 1.147-.38.4-.779.746-1.254.964-.456.219-.969.31-1.481.347-.513.018-1.045 0-1.539-.183-.513-.164-.987-.473-1.424-.837-.532.127-1.083.218-1.595.273a6.842 6.842 0 0 1-1.501 0 16.433 16.433 0 0 1-1.595-.51 9.376 9.376 0 0 1-1.481-.746c-1.938 1.092-4.103 2.13-5.28 4.042-.665.874-.798 1.875-.95 2.913-.095 1.275.247 2.622.817 3.806.209.345.38-1.257 1.025-1.475 1.083-.856 2.432-1.475 3.799-1.821 1.158-.565 1.006.036.532.91-.114.456-.76 2.185.114 1.311 3.855-1.639 8.128-1.966 12.288-2.275 6.039-.601 12.097-.729 18.156-.802 5.697.073 11.395.146 17.093.346 2.716.073 5.45.655 8.128.218.646-.163 1.653-.199 2.033-.564-1.216-.673-2.641-.692-3.989-.856h-10.863c-3.02-.291-6.173-.328-9.021-1.42-.76-.291-1.463-.983-2.185-.236-1.082.364-2.241.618-3.38.692-1.994.145-3.989-.256-5.831-.966 1.33-1.766 2.925-3.314 4.388-4.952a47.314 47.314 0 0 1-3.495-.692c2.07-1.365 3.988-2.913 6.002-4.37Z"/><path fill="#FEC50C" d="M687.233 517.483c-4.097 2.467-7.224-1.906-10.649-3.217-2.446 1.331-2.675 5.787-4.96 7.898-2.735 3.119-6.086-.872-5.836-3.949-3.27 2.763-4.924 9.027-10.212 8.19-2.506-2.049-4.367-6.35-6.281-1.453-1.561 2.393-5.718 5.8-7.87 2.185-.666-3.192-2.262-6.946-3.995-1.876-1.188 3.586-5.005 6.225-8.697 4.655-2.021-1.657 1.62-7.783-.953-7.347-3.845 2.548-6.081 8.877-11.447 8.371-2.084-2.345 1.264-6.319-1.022-8.922-2.697 3.472-5.691 8.555-10.358 8.922-2.255-1.833.089-7.088-1.351-7.866-4.789 2.879-9.841 8.01-15.864 6.403 2.347-9 12.154-12.157 20.401-12.859 14.189-1.749 29.117 1.466 42.769-3.668 2.205-1.346 7.55-3.254 5.647-6.375-1.686-2.465 4.385-1.501 4.968-4.38-.361-3.645 2.787-3.143 5.861-3.463 13.786-.596 27.404 2.315 41.148 2.809 1.039 6.714-6.39 11.429-12.372 9.356-2.857.464-7.141-6.586-6.301-1.458-.576 2.692-.172 6.247-2.626 8.045m-117.294-13.748c3.192 2.928 5.43-.552 8.413-1.823 10.005-3.451 18.735-9.48 27.342-15.504 5.214-4.326 9.735-9.937 16.738-11.34 13.661-4.141 28.182-3.638 41.896-7.46 10.442-14.333 28.178-19.447 43.036-27.686 3.336-1.039 4.625-3.792 5.69-6.831 5.672-8.976 13.398-16.929 22.535-22.362 4.322-2.368 9.48-3.732 14.375-2.649-.351 5.844-3.695 11.024-7.733 15.065 3.304-.072 6.144-2.165 9.483-2.047 1.144 5.998-5.316 9.136-8.754 12.871 1.915.446 9.249 1.002 5.252 2.925-5.093 3.543-10.909 5.976-15.61 10.092 4.338.781 4.832 1.705.421 3.278-2.388 1.623-6.979 2.19-7.423 5.351 3.277 2.019-1.51 4.024-3.355 4.68-3.531.824-7.238 2.362-2.549 5.05-1.774 2.687-5.58 3.26-8.685 2.994.942 3.045 2.306 6.452-1.635 7.795-8.837 6.696-19.206 11.568-30.314 12.682 13.876 1.069 28.168-1.513 40.025-9.078 1.565-1.856 9.774-3.85 5.183-5.411-2.162-.901-6.796-1.903-7.109-3.555 6.422-3.972 14.514-2.559 21.423-4.919.178-2.243-5.255-1.619-7.281-2.129-4.832-.397-4.548-1.633.11-2.091 5.894-1.565 12.57-1.873 17.528-5.726-4.037-1.875-9.114-.224-13.422-1.755 7.302-3.204 15.916-3.525 22.467-8.337 2.985-3.328-3.823-2.289-5.806-2.208-4.044.706-5.913-1.235-1.319-2.919 7.844-5.799 17.777-9.565 23.287-17.972 1.305-1.882 3.072-7.552-1.091-5.512-5.474 1.825-10.291 7.995-16.529 6.086 12.291-9.55 23.986-20.422 32.387-33.639.434-3.812-5.534-4.224-7.088-1.231-7.896 7.628-15.043 16.632-25.153 21.415 9.682-9.37 17.688-20.464 24.672-31.963 1.498-3.42 5.522-7.533 3.338-11.33-3.521-2.921-7.925-.247-9.755 3.249-6.138 8.034-10.799 17.412-18.693 23.955 6.911-13.222 14.066-27.298 14.24-42.55-.021-3.14-.65-7.764-4.903-7.178-3.372.606-2.571 5.665-3.961 8.224-3.06 10.42-4.497 21.704-10.774 30.827 1.413-8.466 3.883-17.293 1.987-25.843-.887-3.821-7.041-2.177-6.249 1.605-7.353 37.342-32.345 70-65.031 88.892-14.967 8.49-31.684 13.963-48.692 16.444-4.575 1.004-9.523.415-13.896 1.979-10.596 8.146-17.012 21.776-30.428 26.045-6.013 2.996-13.853 3.603-18.152 9.203-.372.717-.453 1.547-.438 2.341"/><path fill="#FEC50C" d="M609.95 465.608c-1.98 3.6-3.146 7.739-5.692 10.962-7.661-6.981-18.767-6.75-28.485-7.215-8.021-.429-16.744-1.17-22.95-6.898-6.528-5.355-11.858-12.309-19.153-16.653-6.658-1.813-13.371-4.082-18.724-8.653-11.441-9.338-17.992-23.193-29.171-32.822-2.131-2.101-4.644-3.729-7.032-5.511-2.269.553-1.242 5.456-4.018 2.957-1.511-1.076-5.289-1.181-5.63.322 3.418 4.51 6.839 9.66 7.313 15.428-2.331.239-6.476-.493-7.631.376a47.696 47.696 0 0 0 11.572 12.047c-2.163.348-6.424.159-7.253 1.031 4.475 3.652 9.274 7.385 15.133 8.323 1.2 1.583-1.754 4.64.73 5.992 1.44.589 6.192 1.575 2.919 3.216-2.246 1.515-1.413 5.048 1.46 4.968 1.816.929 5.894 1.157 6.213 2.765-1.61 1.64-6.619 3.585-2.356 5.122 3.983 2.212 8.525 3.648 13.073 3.806-2.283 1.922-5.095 3.014-7.444 4.823 10.496 6.162 22.13 10.215 33.626 14.118 4.578 1.531 9.208 2.959 13.953 3.858-13.787-.797-27.113-4.884-39.67-10.478-6.508-2.859-13.061-5.621-19.731-8.082 2.925-1.525 6.308-1.897 9.341-3.216-6.296-1.263-13.174-1.677-18.709-5.142.849-1.517 4.064-1.588 5.842-2.36 3.345-.802 5.419-1.775.704-2.066-4.756-1.293-10.21-.713-14.401-3.586.27-1.722 4.656-1.122 6.442-1.865 2.25-.387 4.751-.711 6.548-2.227-7.352-3.052-16.968-.89-22.726-7.391-1.328-2.477 4.124-.481 5.676-.894 3.945 0 8.185 1.255 11.942-.338-10.712-4.709-22.187-9.118-30.357-17.83-.907-1.401-3.625-5.227-1.432-5.7 6.359.843 10.962 7.792 17.763 6.711.904-1.22-3.951-3.219-5.163-4.962-9.917-8.522-19.542-17.77-26.493-28.933-.478-3.728 5.374-4.286 6.914-1.407 7.585 7.315 14.436 15.851 23.882 20.845 3.352 1.627-1.925-1.927-2.628-3.216-8.728-10.149-17.037-20.869-23.137-32.822-1.092-2.154-2.902-6.054.365-7.201 3.266-1.639 6.507.594 8.163 3.403 6.417 8.105 11.139 17.738 19.133 24.49-6.81-13.234-14.081-27.166-14.257-42.395.16-2.952.349-7.417 4.347-7.296 3.357-.51 2.827 3.794 3.927 5.846 3.307 11.188 4.749 23.298 11.384 33.176-1.465-8.3-3.622-16.847-2.189-25.285.33-2.77 3.445-3.609 5.478-1.934 1.643 4.028 1.986 9.003 3.483 13.309 8.521 29.19 27.653 54.862 52.585 72.09 20.533 14.103 44.901 22.521 69.772 23.989 2.246.196 4.501.264 6.751.403M579.94 502.972c0 .552-.671 1-1.5 1-.828 0-1.5-.448-1.5-1s.672-1 1.5-1c.829 0 1.5.448 1.5 1Z"/><path fill="#FEC50C" stroke="#00AFCA" stroke-miterlimit="8" stroke-width="0.215853" d="M579.451 502.966a.5.5 0 1 1-1 0 .5.5 0 0 1 1 0Z"/><path fill="#FEC50C" d="M67.936 135.987s-5.404-4.502-7.239-2.244c-2.951 3.633 9.075 21.726 9.075 28.098 0 10.458-7.038 13.302-15.727 14.796-5.831 1.002-15.326-.419-15.326-.419 1.788-2.383 2.95-3.085 5.963-3.275-3.354-1.726-6.769-5.475-6.769-11.309 0-8.997 3.735-12.706 3.735-22.849 0-5.627-4.653-12.79-4.653-12.79 8.225.816 12.3 8.368 9.982 14.403 1.309.187 2.497-.106 3.518-1.065.602 1.673-.348 3.615-1.62 5.288 1.024.543 1.777.217 3.41-.117-.155 1.724-1.197 3.555-3.745 5.278 7.394-1.904 11.944 3.207 11.944 8.557 0 4.041-2.856 6.937-5.647 6.937-.902 0-2.227-.368-2.974-.922-.528 1.112-.256 2.601.286 3.713-2.045-.536-3.344-1.741-2.42-4.249-1.571-.143-2.82-.669-3.67-1.672.86-1.095 2.168-1.725 3.67-1.674-1.144-2.341.132-3.651 1.99-4.714 0 0-1.182 4.714 1.835 4.714 1.357 0 2.593-.438 2.593-2.421 0-1.727-1.522-4.118-5.04-3.966-3.519.152-6.372 2.406-6.372 7.976 0 5.138 4.18 7.694 9.687 7.859 4.967.152 8.715-2.516 8.715-7.596 0-6.762-9.843-22.175-9.843-28.2 0-4.522 4.1-7.045 8.11-7.045 5.202 0 9.591 5.107 9.591 5.107l-3.056 3.8Z"/><path fill="#FEC50C" d="M69.422 259.591c0 11.491-10.394 17.397-18.563 17.397-11.004 0-16.864-6.53-16.864-15.079 0-4.846.895-7.886 3.146-12.524 0 0 18.153-37.467 25.22-51.958.882-1.807 1.166-3.865 1.166-6.881 0-4.658-4.553-8.466-9.326-8.582-4.352-.108-9.093 4.026-9.093 8.737 0 5.721 2.991 8.272 6.062 8.272 3.78 0 5.285-1.542 5.285-4.175 0-1.835-.893-2.629-2.176-2.629-3.241 0-2.331 4.331-2.331 4.331-1.61-.35-2.933-1.983-2.177-4.022a5.852 5.852 0 0 1-3.147-1.855c.869-.836 1.865-1.481 3.147-1.701-.759-2.487.256-3.702 2.448-4.213-.442.956-.457 1.836-.31 2.667 3.452-.975 8.743.576 8.743 6.494 0 5.876-4.11 10.824-11.813 9.588 1.832.869 2.764 2.649 2.953 4.639-1.4-.541-2.953-.618-2.953-.618.9 1.576 2.151 2.935 2.098 6.03-1.428-.645-2.755-1.838-4.586-1.083 2.874 5.611-.656 13.329-9.636 15.155 3.286-3.824 4.895-7.952 4.895-12.062 0-13.32-3.73-15.559-3.73-24.819 0-3.875 2.007-8.058 5.984-10.902v.155c-2.628-.699-4.312-1.984-5.28-3.729 6.006-1.691 14.737-1.66 19.424.171 5.389.619 9.15 4.722 10.259 6.805 1.108 2.08 3.261 9.611 0 16.39-3.57 7.42-20.399 42.835-25.646 53.968-1.113 2.361-1.788 4.866-1.788 7.577 0 6.82 6.295 9.201 9.87 9.201 4.275 0 8.627-3.231 8.627-7.267 0-2.558-1.4-4.098-3.42-4.098-4.831 0-4.538 4.079-3.574 6.649-3.007-1.342-4.755-3.737-4.275-6.262-1.702-.232-3.323-1.033-4.818-2.707 1.177-1.474 2.612-2.589 4.818-2.628-.964-3.919 1.68-5.576 4.275-6.495-.821 2.876-1.36 6.186 3.574 6.186 3.599 0 6.43.618 8.083 2.938.097-3.093.388-15.309.388-15.309.208-4.591-6.19-4.46-10.258-3.093 1.535-5.288 4.683-8.147 11.968-7.423-1.768-.734-3.653-2.385-3.653-5.567.002-4.304 3.52-9.073 5.83-10.483l1.155 44.814ZM69.422 294.4c0-11.491-10.394-17.397-18.563-17.397-11.004 0-16.864 6.53-16.864 15.078 0 4.846.895 7.886 3.146 12.524 0 0 18.153 37.467 25.22 51.959.882 1.807 1.166 3.865 1.166 6.88 0 4.659-4.553 8.466-9.326 8.583-4.352.108-9.093-4.026-9.093-8.737 0-5.722 2.991-8.273 6.062-8.273 3.78 0 5.285 1.542 5.285 4.175 0 1.835-.893 2.63-2.176 2.63-3.241 0-2.331-4.33-2.331-4.33-1.61.349-2.933 1.982-2.177 4.02a5.852 5.852 0 0 0-3.147 1.856c.869.836 1.865 1.481 3.147 1.7-.759 2.488.256 3.703 2.448 4.214-.442-.956-.457-1.837-.31-2.667 3.452.974 8.743-.576 8.743-6.495 0-5.876-4.11-10.824-11.813-9.587 1.832-.87 2.764-2.65 2.953-4.64-1.4.542-2.953.619-2.953.619.9-1.576 2.151-2.935 2.097-6.03-1.427.644-2.754 1.838-4.585 1.082 2.874-5.61-.656-13.329-9.636-15.155 3.286 3.824 4.895 7.952 4.895 12.063 0 13.32-3.73 15.558-3.73 24.819 0 3.874 2.007 8.058 5.984 10.902v-.155c-2.628.699-4.312 1.983-5.28 3.729 6.006 1.69 14.737 1.66 19.424-.171 5.389-.62 9.15-4.723 10.259-6.805 1.108-2.08 3.261-9.611 0-16.39-3.57-7.42-20.399-42.836-25.646-53.969-1.113-2.36-1.788-4.865-1.788-7.577 0-6.82 6.295-9.2 9.87-9.2 4.275 0 8.627 3.23 8.627 7.267 0 2.557-1.4 4.097-3.42 4.097-4.831 0-4.538-4.078-3.575-6.649-3.006 1.342-4.754 3.737-4.274 6.263-1.702.232-3.323 1.033-4.818 2.706 1.177 1.474 2.612 2.59 4.818 2.629-.964 3.918 1.68 5.575 4.274 6.494-.82-2.875-1.359-6.185 3.575-6.185 3.599 0 6.43-.618 8.083-2.938.097 3.093.388 15.309.388 15.309.208 4.59-6.19 4.46-10.258 3.093 1.535 5.288 4.683 8.146 11.968 7.423-1.768.733-3.653 2.385-3.653 5.566.001 4.305 3.52 9.074 5.83 10.484l1.155-44.815ZM68.062 135.987s5.403-4.502 7.238-2.244c2.952 3.633-9.074 21.726-9.074 28.098 0 10.458 7.037 13.302 15.727 14.796 5.83 1.002 15.326-.42 15.326-.42-1.788-2.382-2.951-3.084-5.963-3.274 3.353-1.726 6.768-5.475 6.768-11.309 0-8.997-3.735-12.706-3.735-22.849 0-5.627 4.653-12.79 4.653-12.79-8.224.816-12.3 8.368-9.981 14.403-1.31.187-2.498-.106-3.519-1.065-.601 1.673.349 3.615 1.621 5.288-1.025.543-1.778.217-3.41-.117.155 1.724 1.196 3.555 3.744 5.278-7.394-1.904-11.943 3.207-11.943 8.557 0 4.04 2.855 6.937 5.647 6.937.901 0 2.227-.368 2.974-.922.527 1.112.256 2.6-.287 3.713 2.046-.536 3.344-1.741 2.42-4.249 1.571-.143 2.821-.67 3.671-1.672-.861-1.095-2.168-1.725-3.671-1.673 1.144-2.342-.131-3.652-1.99-4.715 0 0 1.183 4.714-1.835 4.714-1.356 0-2.593-.438-2.593-2.42 0-1.728 1.522-4.12 5.041-3.967 3.519.152 6.371 2.406 6.371 7.976 0 5.138-4.18 7.694-9.687 7.859-4.966.152-8.714-2.516-8.714-7.596 0-6.762 9.843-22.175 9.843-28.2 0-4.522-4.1-7.045-8.111-7.045-5.202 0-9.59 5.107-9.59 5.107l3.055 3.8Z"/><path fill="#FEC50C" d="M66.575 259.59c0 11.492 10.394 17.398 18.563 17.398 11.004 0 16.864-6.53 16.864-15.079 0-4.846-.895-7.886-3.146-12.524 0 0-18.153-37.467-25.22-51.958-.882-1.807-1.166-3.865-1.166-6.881 0-4.658 4.552-8.466 9.326-8.582 4.351-.108 9.092 4.026 9.092 8.737 0 5.721-2.99 8.273-6.061 8.273-3.78 0-5.285-1.542-5.285-4.176 0-1.835.893-2.629 2.176-2.629 3.241 0 2.331 4.33 2.331 4.33 1.61-.35 2.933-1.982 2.177-4.02a5.851 5.851 0 0 0 3.147-1.856c-.869-.836-1.866-1.481-3.147-1.7.759-2.488-.256-3.703-2.448-4.214.442.956.457 1.836.31 2.667-3.452-.975-8.743.576-8.743 6.494 0 5.876 4.11 10.824 11.814 9.588-1.833.87-2.765 2.649-2.954 4.639 1.4-.541 2.954-.618 2.954-.618-.901 1.576-2.152 2.935-2.099 6.03 1.428-.645 2.755-1.838 4.585-1.083-2.873 5.611.657 13.33 9.637 15.155-3.286-3.824-4.895-7.952-4.895-12.062 0-13.32 3.73-15.559 3.73-24.819 0-3.875-2.007-8.058-5.984-10.902v.155c2.628-.7 4.312-1.984 5.28-3.73-6.006-1.69-14.737-1.659-19.424.172-5.389.62-9.15 4.722-10.259 6.805-1.108 2.08-3.261 9.61 0 16.39 3.57 7.42 20.399 42.835 25.646 53.968 1.113 2.361 1.788 4.866 1.788 7.577 0 6.82-6.295 9.201-9.87 9.201-4.275 0-8.627-3.231-8.627-7.267 0-2.558 1.4-4.098 3.42-4.098 4.831 0 4.538 4.079 3.575 6.65 3.006-1.343 4.754-3.738 4.274-6.263 1.702-.232 3.323-1.033 4.818-2.707-1.177-1.474-2.611-2.589-4.818-2.629.963-3.918-1.68-5.575-4.274-6.494.82 2.876 1.36 6.186-3.575 6.186-3.599 0-6.43.618-8.083 2.938-.097-3.093-.388-15.31-.388-15.31-.208-4.59 6.19-4.46 10.258-3.092-1.535-5.288-4.683-8.147-11.968-7.423 1.768-.734 3.653-2.385 3.653-5.567-.002-4.304-3.52-9.073-5.83-10.483l-1.155 44.814ZM66.575 294.4c0-11.491 10.394-17.397 18.563-17.397 11.004 0 16.864 6.53 16.864 15.078 0 4.846-.895 7.887-3.146 12.524 0 0-18.153 37.468-25.22 51.959-.882 1.807-1.166 3.865-1.166 6.881 0 4.658 4.552 8.465 9.326 8.582 4.351.108 9.092-4.026 9.092-8.737 0-5.722-2.99-8.273-6.061-8.273-3.78 0-5.285 1.542-5.285 4.175 0 1.835.893 2.629 2.176 2.629 3.241 0 2.331-4.33 2.331-4.33 1.61.35 2.933 1.983 2.177 4.021a5.853 5.853 0 0 1 3.147 1.856c-.869.836-1.866 1.481-3.147 1.7.759 2.488-.256 3.703-2.448 4.214.442-.956.457-1.837.31-2.667-3.452.974-8.743-.576-8.743-6.495 0-5.876 4.11-10.824 11.814-9.587-1.833-.87-2.765-2.649-2.954-4.639 1.4.541 2.954.618 2.954.618-.901-1.576-2.152-2.935-2.099-6.03 1.428.644 2.755 1.838 4.585 1.082-2.873-5.611.657-13.329 9.637-15.155-3.286 3.824-4.895 7.952-4.895 12.063 0 13.319 3.73 15.558 3.73 24.818 0 3.875-2.007 8.059-5.985 10.903v-.155c2.63.699 4.313 1.983 5.281 3.729-6.006 1.69-14.737 1.659-19.424-.171-5.389-.62-9.15-4.723-10.259-6.805-1.108-2.081-3.261-9.611 0-16.391 3.57-7.419 20.399-42.835 25.646-53.968 1.113-2.361 1.788-4.865 1.788-7.577 0-6.82-6.295-9.201-9.87-9.201-4.275 0-8.627 3.232-8.627 7.268 0 2.557 1.4 4.098 3.42 4.098 4.831 0 4.538-4.079 3.575-6.65 3.006 1.342 4.754 3.737 4.274 6.263 1.702.232 3.323 1.033 4.818 2.706-1.177 1.474-2.612 2.589-4.818 2.629.963 3.918-1.68 5.576-4.274 6.494.82-2.875 1.36-6.185-3.575-6.185-3.599 0-6.43-.618-8.083-2.938-.097 3.093-.388 15.309-.388 15.309-.208 4.591 6.19 4.46 10.258 3.093-1.535 5.288-4.683 8.146-11.968 7.422 1.768.735 3.653 2.386 3.653 5.567-.002 4.305-3.52 9.074-5.83 10.484l-1.155-44.815ZM67.936 619.775s-5.404 4.59-7.239 2.288c-2.951-3.704 9.075-22.152 9.075-28.649 0-10.663-7.038-13.563-15.727-15.086-5.831-1.022-15.326.428-15.326.428 1.788 2.429 2.95 3.144 5.963 3.338-3.354 1.76-6.769 5.582-6.769 11.53 0 9.175 3.735 12.956 3.735 23.298 0 5.738-4.653 13.041-4.653 13.041 8.225-.832 12.3-8.532 9.982-14.685 1.309-.19 2.497.108 3.518 1.085.602-1.705-.348-3.685-1.62-5.39 1.024-.555 1.777-.223 3.41.119-.155-1.758-1.197-3.625-3.745-5.383 7.394 1.942 11.944-3.269 11.944-8.724 0-4.12-2.856-7.073-5.647-7.073-.902 0-2.227.375-2.974.94-.528-1.134-.256-2.652.286-3.786-2.045.547-3.344 1.775-2.42 4.332-1.571.146-2.82.683-3.67 1.705.86 1.116 2.168 1.759 3.67 1.707-1.144 2.387.132 3.723 1.99 4.807 0 0-1.182-4.808 1.835-4.808 1.357 0 2.593.447 2.593 2.47 0 1.76-1.522 4.199-5.04 4.043-3.519-.155-6.372-2.452-6.372-8.132 0-5.239 4.18-7.845 9.687-8.013 4.967-.155 8.715 2.565 8.715 7.745 0 6.895-9.843 22.61-9.843 28.753 0 4.61 4.1 7.183 8.11 7.183 5.202 0 9.591-5.208 9.591-5.208l-3.056-3.874Z"/><path fill="#FEC50C" d="M69.422 495.381c0-11.49-10.394-17.397-18.563-17.397-11.004 0-16.864 6.53-16.864 15.079 0 4.846.895 7.886 3.146 12.524 0 0 18.153 37.467 25.22 51.958.882 1.807 1.166 3.865 1.166 6.881 0 4.658-4.553 8.466-9.326 8.582-4.352.108-9.093-4.026-9.093-8.737 0-5.721 2.991-8.272 6.062-8.272 3.78 0 5.285 1.541 5.285 4.175 0 1.835-.893 2.628-2.176 2.628-3.241 0-2.331-4.33-2.331-4.33-1.61.35-2.933 1.983-2.177 4.022a5.853 5.853 0 0 0-3.147 1.855c.869.836 1.865 1.481 3.147 1.7-.759 2.488.256 3.703 2.448 4.214-.442-.956-.457-1.836-.31-2.667 3.452.975 8.743-.576 8.743-6.494 0-5.876-4.11-10.824-11.813-9.588 1.832-.87 2.764-2.649 2.953-4.639-1.4.541-2.953.618-2.953.618.9-1.576 2.151-2.935 2.097-6.03-1.427.645-2.754 1.838-4.585 1.083 2.874-5.611-.656-13.33-9.636-15.155 3.286 3.824 4.895 7.952 4.895 12.062 0 13.32-3.73 15.558-3.73 24.819 0 3.875 2.007 8.058 5.984 10.902v-.155c-2.628.7-4.312 1.984-5.28 3.73 6.006 1.69 14.737 1.659 19.424-.172 5.389-.62 9.15-4.722 10.259-6.805 1.108-2.08 3.261-9.61 0-16.39-3.57-7.42-20.399-42.835-25.646-53.968-1.113-2.361-1.788-4.866-1.788-7.577 0-6.82 6.295-9.201 9.87-9.201 4.275 0 8.627 3.231 8.627 7.267 0 2.558-1.4 4.098-3.42 4.098-4.831 0-4.538-4.079-3.575-6.65-3.006 1.342-4.754 3.738-4.274 6.263-1.702.232-3.323 1.033-4.818 2.707 1.177 1.474 2.612 2.589 4.818 2.628-.964 3.919 1.68 5.576 4.274 6.495-.82-2.876-1.359-6.186 3.575-6.186 3.599 0 6.43-.618 8.083-2.938.097 3.093.388 15.31.388 15.31.208 4.59-6.19 4.46-10.258 3.092 1.535 5.288 4.683 8.147 11.968 7.423-1.768.734-3.653 2.385-3.653 5.567.001 4.304 3.52 9.073 5.83 10.483l1.155-44.814Z"/><path fill="#FEC50C" d="M69.422 461.609c0 11.491-10.394 17.397-18.563 17.397-11.004 0-16.864-6.53-16.864-15.078 0-4.846.895-7.886 3.146-12.524 0 0 18.153-37.467 25.22-51.958.882-1.808 1.166-3.866 1.166-6.881 0-4.659-4.553-8.466-9.326-8.583-4.352-.108-9.093 4.026-9.093 8.737 0 5.722 2.991 8.273 6.062 8.273 3.78 0 5.285-1.542 5.285-4.175 0-1.835-.893-2.629-2.176-2.629-3.241 0-2.331 4.33-2.331 4.33-1.61-.35-2.933-1.982-2.177-4.021a5.852 5.852 0 0 1-3.147-1.855c.869-.837 1.865-1.482 3.147-1.701-.759-2.488.256-3.703 2.448-4.214-.442.957-.457 1.837-.31 2.667 3.452-.974 8.743.576 8.743 6.495 0 5.876-4.11 10.824-11.813 9.587 1.832.87 2.764 2.649 2.953 4.639-1.4-.541-2.953-.618-2.953-.618.9 1.576 2.151 2.935 2.098 6.03-1.428-.644-2.755-1.837-4.586-1.082 2.874 5.611-.656 13.329-9.636 15.155 3.286-3.824 4.895-7.952 4.895-12.062 0-13.32-3.73-15.559-3.73-24.819 0-3.875 2.007-8.059 5.984-10.902v.154c-2.628-.699-4.312-1.983-5.28-3.729 6.006-1.69 14.737-1.659 19.424.172 5.389.619 9.15 4.722 10.259 6.805 1.108 2.08 3.261 9.61 0 16.39-3.57 7.42-20.399 42.835-25.646 53.968-1.113 2.361-1.788 4.866-1.788 7.577 0 6.82 6.295 9.201 9.87 9.201 4.275 0 8.627-3.231 8.627-7.268 0-2.557-1.4-4.097-3.42-4.097-4.831 0-4.538 4.079-3.574 6.649-3.007-1.342-4.755-3.737-4.275-6.263-1.702-.232-3.323-1.033-4.818-2.706 1.177-1.474 2.612-2.589 4.818-2.629-.964-3.918 1.68-5.575 4.275-6.494-.821 2.876-1.36 6.185 3.574 6.185 3.599 0 6.43.619 8.083 2.938.097-3.093.388-15.309.388-15.309.208-4.591-6.19-4.46-10.258-3.093 1.535-5.287 4.683-8.146 11.968-7.422-1.768-.734-3.653-2.386-3.653-5.567.002-4.305 3.52-9.073 5.83-10.483l1.155 44.814ZM68.062 619.775s5.403 4.591 7.238 2.288c2.952-3.704-9.074-22.152-9.074-28.648 0-10.664 7.037-13.564 15.727-15.087 5.83-1.022 15.326.428 15.326.428-1.788 2.429-2.951 3.144-5.963 3.338 3.353 1.761 6.768 5.583 6.768 11.531 0 9.174-3.735 12.955-3.735 23.297 0 5.738 4.653 13.041 4.653 13.041-8.224-.832-12.3-8.532-9.981-14.685-1.31-.191-2.498.108-3.519 1.085-.601-1.705.349-3.685 1.621-5.391-1.025-.554-1.778-.222-3.41.119.155-1.757 1.196-3.624 3.744-5.382-7.394 1.942-11.943-3.269-11.943-8.724 0-4.12 2.855-7.073 5.647-7.073.901 0 2.227.375 2.974.94.527-1.134.256-2.652-.287-3.786 2.046.547 3.344 1.775 2.42 4.332 1.571.146 2.821.683 3.671 1.706-.861 1.115-2.168 1.758-3.671 1.706 1.144 2.387-.131 3.723-1.99 4.806 0 0 1.183-4.806-1.835-4.806-1.356 0-2.593.446-2.593 2.468 0 1.761 1.522 4.2 5.041 4.044 3.518-.155 6.371-2.453 6.371-8.132 0-5.239-4.18-7.845-9.687-8.013-4.966-.155-8.714 2.565-8.714 7.745 0 6.895 9.843 22.61 9.843 28.753 0 4.61-4.1 7.183-8.111 7.183-5.202 0-9.59-5.208-9.59-5.208l3.055-3.874Z"/><path fill="#FEC50C" d="M66.575 495.381c0-11.491 10.394-17.397 18.563-17.397 11.004 0 16.864 6.53 16.864 15.079 0 4.845-.895 7.886-3.146 12.524 0 0-18.153 37.467-25.22 51.958-.882 1.807-1.166 3.865-1.166 6.881 0 4.658 4.552 8.466 9.326 8.582 4.351.108 9.092-4.026 9.092-8.737 0-5.722-2.99-8.273-6.061-8.273-3.78 0-5.285 1.543-5.285 4.176 0 1.835.893 2.628 2.176 2.628 3.241 0 2.331-4.33 2.331-4.33 1.61.35 2.933 1.983 2.177 4.021a5.853 5.853 0 0 1 3.147 1.856c-.869.836-1.866 1.481-3.147 1.701.759 2.487-.256 3.702-2.448 4.213.442-.956.457-1.836.31-2.667-3.452.975-8.743-.576-8.743-6.494 0-5.876 4.11-10.824 11.814-9.588-1.833-.869-2.765-2.649-2.954-4.639 1.4.541 2.954.618 2.954.618-.901-1.576-2.152-2.935-2.099-6.03 1.428.645 2.755 1.838 4.585 1.083-2.873-5.611.657-13.329 9.637-15.155-3.286 3.824-4.895 7.952-4.895 12.062 0 13.32 3.73 15.559 3.73 24.819 0 3.875-2.007 8.058-5.985 10.902v-.155c2.63.699 4.313 1.984 5.281 3.729-6.006 1.691-14.737 1.66-19.424-.171-5.389-.62-9.15-4.722-10.259-6.805-1.108-2.081-3.261-9.611 0-16.39 3.57-7.42 20.399-42.835 25.646-53.968 1.113-2.362 1.788-4.866 1.788-7.578 0-6.819-6.295-9.2-9.87-9.2-4.275 0-8.627 3.231-8.627 7.267 0 2.558 1.4 4.098 3.42 4.098 4.831 0 4.538-4.079 3.575-6.649 3.006 1.342 4.754 3.737 4.274 6.262 1.702.232 3.323 1.033 4.818 2.707-1.177 1.474-2.612 2.589-4.818 2.628.963 3.919-1.68 5.576-4.274 6.495.82-2.876 1.36-6.186-3.575-6.186-3.599 0-6.43-.618-8.083-2.938-.097 3.093-.388 15.309-.388 15.309-.208 4.591 6.19 4.46 10.258 3.093-1.535 5.288-4.683 8.147-11.968 7.423 1.768.734 3.653 2.385 3.653 5.567-.002 4.304-3.52 9.073-5.83 10.483l-1.155-44.814Z"/><path fill="#FEC50C" d="M66.575 461.61c0 11.49 10.394 17.396 18.563 17.396 11.004 0 16.864-6.53 16.864-15.078 0-4.846-.895-7.886-3.146-12.524 0 0-18.153-37.467-25.22-51.959-.882-1.807-1.166-3.865-1.166-6.88 0-4.659 4.552-8.466 9.326-8.583 4.351-.108 9.092 4.026 9.092 8.737 0 5.722-2.99 8.273-6.061 8.273-3.78 0-5.285-1.542-5.285-4.175 0-1.835.893-2.629 2.176-2.629 3.241 0 2.331 4.33 2.331 4.33 1.61-.35 2.933-1.982 2.177-4.02a5.852 5.852 0 0 0 3.147-1.856c-.869-.837-1.866-1.482-3.147-1.701.759-2.488-.256-3.702-2.448-4.214.442.957.457 1.837.31 2.667-3.452-.974-8.743.576-8.743 6.495 0 5.876 4.11 10.824 11.814 9.587-1.833.87-2.765 2.65-2.954 4.64 1.4-.542 2.954-.619 2.954-.619-.901 1.576-2.152 2.935-2.099 6.03 1.428-.644 2.755-1.837 4.585-1.082-2.873 5.61.657 13.329 9.637 15.155-3.286-3.824-4.895-7.952-4.895-12.062 0-13.32 3.73-15.559 3.73-24.82 0-3.874-2.007-8.058-5.984-10.901v.154c2.628-.699 4.312-1.983 5.28-3.729-6.006-1.69-14.737-1.659-19.424.172-5.389.62-9.15 4.722-10.259 6.805-1.108 2.08-3.261 9.61 0 16.39 3.57 7.42 20.399 42.835 25.646 53.968 1.113 2.361 1.788 4.866 1.788 7.577 0 6.82-6.295 9.2-9.87 9.2-4.275 0-8.627-3.23-8.627-7.267 0-2.557 1.4-4.097 3.42-4.097 4.831 0 4.538 4.079 3.575 6.649 3.006-1.342 4.754-3.737 4.274-6.263 1.702-.231 3.323-1.032 4.818-2.706-1.177-1.474-2.611-2.59-4.818-2.629.963-3.918-1.68-5.575-4.274-6.494.82 2.876 1.36 6.185-3.575 6.185-3.599 0-6.43.619-8.083 2.938-.097-3.093-.388-15.309-.388-15.309-.208-4.59 6.19-4.46 10.258-3.093-1.535-5.287-4.683-8.146-11.968-7.422 1.768-.734 3.653-2.386 3.653-5.567-.002-4.305-3.52-9.073-5.83-10.483l-1.155 44.814Z"/></g></svg>