<svg xmlns="http://www.w3.org/2000/svg" width="1136" height="758" overflow="hidden"><defs><clipPath id="a"><path d="M-1-1h1136v758H-1z"/></clipPath></defs><g fill-rule="evenodd" clip-path="url(#a)" transform="translate(1 1)"><path fill="#ED1C24" d="M0 0h1134v756H0Z"/><path fill="#FFF" d="M0 189h1134v378H0Z"/><path fill="#00A651" d="M561.429 189c-8.114 17.103-23.391 29.056-37.995 40.368-2.402 2.1-8.376 6.168-4.043 9.264 3.713-4.153 13.902 1.347 7.98 5.815-5.304 4.969-12.607 6.789-18.497 10.891-5.216 2.838-10.508 5.799-14.644 10.142-.281 6.786 8.408 3.029 11.935 5.856 4.592 4.914-1.947 13.201-7.974 11.305-7.705.237-13.027 7.025-15.943 13.501-6.027 9.33-17.449 12.095-26.544 17.405-5.204 3.036-10.252 6.396-15.095 9.939-6.245 4.276-.813 12.739 5.833 10.662 7.173-.717 13.626-6.359 21.053-4.733 6.734 2.369 8.624 11.18 6.33 17.333-1.701 4.925-5.821 8.395-9.121 12.242-5.358 5.434-12.365 8.962-19.755 10.645-7.14 2.4-13.559 6.779-18.243 12.692-5.435 5.479-10.85 11.046-17.099 15.614-1.974 5.043 3.597 9.338 8.239 9.204 9.787-.618 16.568-8.635 24.902-12.755 6.917-3.112 15.056 4.351 13.364 11.563-.536 7.018-7.098 10.578-12.933 12.738-17.153 8.632-32.048 21.151-45.272 34.962-2.735 5.587-10.255 3.942-14.303 7.835-2.637 4.927 3.981 7.525 7.931 7.019 16.971-2.043 32.807-9.225 47.809-17.125 5.579-2.67 10.817-6.184 16.618-8.312 5.448-1.348 13.045 1.022 14.019 7.23-.008 6.553-6.492 10.182-11.628 12.742-15.837 8.33-33.217 12.935-50.143 18.441-6.338-1.773-11.113 9.514-4.161 11.544 7.351 2.522 15.166.499 22.685.169 23.251-3.566 43.586-16.161 65.319-24.303 9.036-2.949 19.701 1.166 24.16 9.642 4.48 7.555 4.069 17.49-.656 24.83-7.468 15.996-18.822 30.697-34.065 39.894-9.567 4.743-20.735 6.556-28.935 13.816-7.585 2.503 3.802 12.762 5.447 4.619 4.557-6.222 12.595-8.082 19.885-8.339 10.957-1.194 22.594-3.217 31.107-10.81 7.632-5.934 15.154-14.12 25.518-14.247 5.727.68 11.393 5.287 17.21 2.476 5.09-2.333 13.074-.966 14.403 5.299 2.43 7.329 9.976 10.664 15.96 14.585 2.166 3.045 9.363 10.897 11.022 3.974-1.339-4.938.574-12.494 7.045-10.844 5.652.252 11.038 2.34 16.68 2.681 7.511 1.558 13.778 6.706 18.044 12.923 2.934 4.058 9.362 11.028 14.139 5.648 2.963-5.563-2.694-10.203-7.3-12.19-6.715-4.166-12.457-9.714-18.329-14.967-8.656-8.093-16.129-18.385-17.504-30.473-1.862-12.051-.882-24.345.689-36.365 1.978-7.738 11.863-11.963 18.775-7.851 9.725 4.442 19.384 10.799 30.534 10.11 16.111.347 32.667-2.741 48.412 1.932 15.323 4.832 26.278 17.777 41.203 23.378 3.341 2.033 7.616.098 8.84-3.475 1.479-3.21.435-7.316-2.654-9.147-17.299-17.48-40.938-25.97-60.953-39.629-6.3-1.602-7.448-11.751-1.622-14.681 7.657-5.571 18.494-2.977 25.287 2.767 5.738 3.364 12.202 5.885 18.934 5.89 6.895-2.16 3.552-12.148-2.621-12.9-11.188-6.323-19.199-16.699-28.89-24.923-5.582-4.73-11.689-9.519-19.189-10.436-4.098-.748-8.29-.91-12.444-.631-3.895-4.238 1.295-10.728 6.333-10.197 5.168.348 10.305.733 15.467.013 5.769-.423 11.532-1.02 17.32-1.059 4.673 3.184 14.01-2.317 9.793-7.81-4.607-4.042-11.268-3.691-16.773-5.764a258.247 258.247 0 0 0-29.479-7.757c-6.971-.416-6.11-9.601.017-10.615 4.01-1.497 7.496 1.587 11.345 2.065 6.574 1.415 13.361 1.396 19.931 2.83 5.573-2.753 1.265-10.901-3.774-11.377-11.891-4.257-22.168-11.939-32.216-19.413-11.092-8.351-21.154-18.009-32.383-26.168-4.074-2.526-10.752-3.254-11.823-8.855-.378-5.154 5.68-7.5 9.975-6.295 6.094 1.801 11.771 4.937 17.983 6.478 4.872.829 9.896 2.272 14.592 1.658 5.961-3.751-2.558-6.147-5.641-7.448-7.947-4.292-15.01-10.009-22.164-15.463-6.045-5.165 5.128-7.447 8.97-5.458 6.426 2.691 7.158-6.682 2.355-9.04-5.659-2.409-10.525-6.408-15.656-9.896-9.273-6.607-19.773-11.837-31.17-13.29-12.779-1.286-24.707-8.641-31.486-19.582-4.204-6.234-7.29-13.129-10.272-20.006Zm-41.963 71.768c6.585.195 5.572 12.079-.911 11.286-6.297-.406-5.912-12.563.911-11.286Zm62.122 6.4c6.409-1.148 7.766 10.559 1.364 11.109-6.673 1.196-9.145-11.851-1.364-11.109Zm-18.195 1.526c6.497 1.279 5.342 12.61-1.216 12.708-4.797 1.07-9.968 4.348-14.821 1.892-3.947-4.18 1.757-10.359 6.163-11.717 3.379-.682 6.489-2.219 9.874-2.883Zm41.876.049c6.262 2.285 4.053 13.351-2.551 13.209-6.245.839-9.154-9.592-3.33-12.065 1.885-.669 3.86-1.232 5.881-1.144Zm-70.642 12.551c4.605 4.387 1.885 12.852-3.792 14.875-4.091 2.278-9.67 7.669-14.126 3.233-2.419-5.417 3.651-9.496 7.222-12.503 3.186-2.48 6.702-4.731 10.696-5.605Zm52.581 24.465c6.591 3.115 3.245 15.008-3.989 14.269-5.942-1.508-5.166-11.71.819-12.524 1.131-.434 2.168-1.072 3.17-1.745Zm-20.916 1.18c6.165 2.89 1.458 13.189-4.752 11.705-6.438-.757-6.32-12.088.781-11.065 1.338-.066 2.719-.101 3.971-.64Zm45.087 5.908c6.756-2.099 14.891 4.869 12.699 11.937-3.011 5.479-10.457 6.171-15.792 4.124-6.125-.303-10.245-9.521-4.788-13.425 2.258-1.706 5.104-2.409 7.881-2.636Zm-99.808 1.772c5.588-3.043 11.519 6.102 6.768 10.136-3.147 4.633-11.229 6.524-14.792 1.375-2.961-5.033 1.827-13.485 8.025-11.511Zm-25.777 4.331c6.337.868 10.467 6.631 12.81 12.119.571 6.686-9.285 10.355-13.584 5.49-4.835-3.036-9.067-9.28-6.532-15.076 1.562-2.302 4.673-3.251 7.307-2.533Zm154.216 24.169c6.879-1.814 11.872 9.19 5.965 13.17-5.4 4.91-15.9-1.594-13.083-8.6 1.399-2.599 4.2-4.324 7.119-4.57Zm-87.544 12.552c5.768.735 3.899 10.742-1.434 10.406-5.722-1.062-4.412-10.97 1.434-10.406Zm-29.255 5.316c4.703-3.332 10.771 4.801 6.858 8.59-4.689 3.307-10.772-4.696-6.858-8.59Zm46.516.984c5.451 3.317 8.688 9.501 9.366 15.741-2.613 5.831-12.705 4.426-13.843-1.783-1.994-4.911-.156-11.226 4.475-13.956Zm16.232 9.649c7.026-1.767 4.504 12.936-1.362 7.836-1.95-2.318-.906-6.132 1.361-7.836Zm-101.948 10.238c4.653-1.364 11.435.07 12.719 5.416.541 5.023-4.977 7.637-9.021 8.882-6.48 2.002-12.818 5.289-19.788 4.848-5.225-2.989-7.1-9.106-8.962-14.442 5.041-4.732 12.466-3.343 18.715-4.528 2.11-.108 4.224-.16 6.337-.176Zm158.139 23.037c5.934-2.914 12.318 6.518 7.35 10.923-6.215 7.161-18.18 8.492-25.613 2.475-.892-6.336 5.43-10.94 11.049-11.849 2.362-.669 4.711-1.666 7.214-1.549Zm33.358 7.236c6.745-1.162 12.056 8.468 7.24 13.453-4.557 6.88-15.426 8.684-21.64 3.044-2.423-5.703 2.492-11.646 7.723-13.476 2.248-.959 4.377-2.186 6.677-3.021ZM507.78 422.37c6.245-.618 11.967 5.585 11.148 11.749 4.52 4.453-3.485 12.751-7.989 8.139-3.969-4.815-3.949-11.346-5.486-17.108-.069-1.28.878-2.938 2.327-2.78Zm47.942 3.593c6.457-2.795 14.81 4.938 11.294 11.484-2.511 5.332-12.3 3.544-11.975-2.631-.016-2.955-.254-5.985.681-8.854Zm-23.324 4.184c6.474-1.486 12.413 6.916 8.816 12.521-6.454.575-9.805-7.094-8.816-12.521Z"/></g></svg>