<svg xmlns="http://www.w3.org/2000/svg" width="1136" height="682" overflow="hidden"><defs><clipPath id="a"><path d="M-1 37h1136v682H-1z"/></clipPath></defs><g clip-path="url(#a)" transform="translate(1 -37)"><path fill="#002B7F" fill-rule="evenodd" d="M0 38h1134v340H0Z"/><path fill="#CE1126" fill-rule="evenodd" d="M0 378h1134v340H0Z"/><path fill="#FFD83D" fill-rule="evenodd" d="M245 176.385 242.919 247h-71.792C162.294 229.862 155 215.306 155 195.596 155 179.101 167.999 166 186.734 166c19.833 0 41.623 6.67 58.266 10.385Z"/><path fill="none" stroke="#000" stroke-linecap="round" stroke-linejoin="round" stroke-miterlimit="10" stroke-width="1.69953" d="M164 180v41M170 176v54M175 173v65M181 171v51M187 171v51M193 169v53M198 169v53M204 170v53M210 170v53M216 174v53M222 174v60M227 174v53M233 174v53"/><path fill-rule="evenodd" stroke="#000" stroke-linecap="round" stroke-linejoin="round" stroke-miterlimit="10" stroke-width="1.69953" d="M199.802 171c12.174 2.028 38.915 14.665 35.865 31.762-4.322 24.23-18.332 14.506-36.904 11.026l-14.034 4.725c-5.022 5.177-12.416 9.92-17.413 3.675H159V255h92v-79.275Z"/><path fill="#FFD83D" fill-rule="evenodd" stroke="#000" stroke-linecap="round" stroke-linejoin="round" stroke-miterlimit="10" stroke-width="2.26604" d="M247 165.5a5.5 5.5 0 1 1-11 0 5.5 5.5 0 1 1 11 0ZM234 162.5a5.5 5.5 0 1 1-11 0 5.5 5.5 0 1 1 11 0ZM222 159.5c0 3.038-2.686 5.5-6 5.5s-6-2.462-6-5.5 2.686-5.5 6-5.5 6 2.462 6 5.5ZM209 157.5a5.5 5.5 0 1 1-11 0 5.5 5.5 0 1 1 11 0ZM196 156.5a5.5 5.5 0 1 1-11 0 5.5 5.5 0 1 1 11 0ZM183 157c0 3.314-2.462 6-5.5 6s-5.5-2.686-5.5-6 2.462-6 5.5-6 5.5 2.686 5.5 6ZM171 161c0 3.314-2.462 6-5.5 6s-5.5-2.686-5.5-6 2.462-6 5.5-6 5.5 2.686 5.5 6ZM161 168.5a5.5 5.5 0 1 1-11 0 5.5 5.5 0 1 1 11 0ZM154 178.5a5.5 5.5 0 1 1-11 0 5.5 5.5 0 1 1 11 0ZM151 191a6 6 0 1 1-12 0 6 6 0 0 1 12 0ZM151 203.5a5.5 5.5 0 1 1-11 0 5.5 5.5 0 1 1 11 0ZM153 216c0 3.314-2.462 6-5.5 6s-5.5-2.686-5.5-6 2.462-6 5.5-6 5.5 2.686 5.5 6Z"/><path fill="#FFD83D" fill-rule="evenodd" stroke="#000" stroke-linecap="round" stroke-linejoin="round" stroke-miterlimit="10" stroke-width="2.26604" d="m244 173.37-.52 7.26c-13.901-2.125-33.608-9.852-51.977-9.852-16.973 0-30.147 6.773-30.147 23.852 0 16.832 7.146 32.139 16.633 47.703L168.113 247C159.288 229.886 152 215.35 152 195.667 152 179.194 164.988 163 187.345 163c19.815 0 40.027 6.661 56.655 10.37Z"/><path fill="#FFD83D" fill-rule="evenodd" d="M257.99 176.385 260.071 247h71.792c8.833-17.138 16.127-31.694 16.127-51.404 0-16.495-12.999-29.596-31.734-29.596-19.832 0-41.623 6.67-58.266 10.385Z"/><path fill="none" stroke="#000" stroke-linecap="round" stroke-linejoin="round" stroke-miterlimit="10" stroke-width="1.69953" d="M340.986 180v41M334.987 176v54M328.987 173v65M322.989 171v51M317.979 171v51M311.99 169v53M305.991 169v53M299.992 170v53M293.993 170v53M288.994 174v53M282.995 174v60M276.996 174v53M270.997 174v53"/><path fill-rule="evenodd" stroke="#000" stroke-linecap="round" stroke-linejoin="round" stroke-miterlimit="10" stroke-width="1.69953" d="M303.19 171c-12.175 2.028-38.915 14.665-35.865 31.763 4.322 24.229 18.331 14.505 36.904 11.025l14.034 4.724c5.021 5.178 12.416 9.92 17.412 3.675h8.316V255h-92v-79.275Z"/><path fill="#FFD83D" fill-rule="evenodd" stroke="#000" stroke-linecap="round" stroke-linejoin="round" stroke-miterlimit="10" stroke-width="2.26604" d="M255.998 165.5c0 3.038 2.686 5.5 6 5.5s6-2.462 6-5.5-2.686-5.5-6-5.5-6 2.462-6 5.5ZM268.996 162.5a5.5 5.5 0 1 0 11 0 5.5 5.5 0 0 0-11 0ZM281.993 159.5a5.5 5.5 0 1 0 11 0 5.5 5.5 0 0 0-11 0ZM294.991 157.5a5.5 5.5 0 1 0 11 0 5.5 5.5 0 0 0-11 0ZM306.988 156.5c0 3.038 2.686 5.5 6 5.5 3.313 0 6-2.462 6-5.5s-2.686-5.5-6-5.5-6 2.462-6 5.5ZM319.986 157c0 3.314 2.463 6 5.5 6 3.038 0 5.5-2.686 5.5-6s-2.462-6-5.5-6c-3.037 0-5.5 2.686-5.5 6ZM331.984 161c0 3.314 2.463 6 5.5 6 3.038 0 5.5-2.686 5.5-6s-2.462-6-5.5-6c-3.037 0-5.5 2.686-5.5 6ZM341.983 168.5a5.5 5.5 0 1 0 11 0 5.5 5.5 0 0 0-11 0ZM348.981 178.5a5.5 5.5 0 1 0 11 0 5.5 5.5 0 0 0-11 0ZM352.98 191c0 3.314 2.463 6 5.5 6 3.038 0 5.5-2.686 5.5-6s-2.462-6-5.5-6c-3.037 0-5.5 2.686-5.5 6ZM352.98 203.5a5.5 5.5 0 1 0 11 0 5.5 5.5 0 0 0-11 0ZM349.981 216c0 3.314 2.462 6 5.5 6s5.5-2.686 5.5-6-2.462-6-5.5-6-5.5 2.686-5.5 6Z"/><path fill="#FFD83D" fill-rule="evenodd" stroke="#000" stroke-linecap="round" stroke-linejoin="round" stroke-miterlimit="10" stroke-width="2.26604" d="m259.99 173.37.52 7.26c13.901-2.125 33.608-9.852 51.977-9.852 16.973 0 30.147 6.773 30.147 23.852 0 16.832-7.146 32.14-16.633 47.703l9.876 4.667c8.825-17.114 16.113-31.65 16.113-51.333 0-16.473-12.988-32.667-35.345-32.667-19.815 0-40.027 6.661-56.655 10.37ZM252 98l-6 11.059 6 11.024 6-11.024L252 98Zm0 27.917-6 11.024L252 148l6-11.059-6-11.024ZM231 123l9.29 6 9.26-6-9.26-6-9.29 6Zm23.45 0 9.26 6 9.29-6-9.29-6-9.26 6Z"/><path fill="#FFD83D" fill-rule="evenodd" stroke="#000" stroke-linecap="round" stroke-linejoin="round" stroke-miterlimit="10" stroke-width="2.26604" d="M256 122.5a4.5 4.5 0 1 1-9 0 4.5 4.5 0 0 1 9 0ZM264 151c0 6.627-5.373 12-12 12s-12-5.373-12-12 5.373-12 12-12 12 5.373 12 12Z"/><path fill="none" stroke="#000" stroke-linecap="round" stroke-linejoin="round" stroke-miterlimit="10" stroke-width="1.69953" d="M248.519 140c0 3.437-.026 5.434-.036 7.31a72.574 72.574 0 0 0-8.448.863m22.93 0a72.574 72.574 0 0 0-8.448-.863V140M240 154a71.76 71.76 0 0 1 11.5-.931c3.919 0 7.758.324 11.5.931"/><path fill="#FFD83D" fill-rule="evenodd" stroke="#000" stroke-linecap="round" stroke-linejoin="round" stroke-miterlimit="10" stroke-width="2.26604" d="M239.932 171c-1.123 19.574-3.406 39.509-10.932 54l12.241-5.013c4.275-16.419 5.173-37.634 6.474-47.662L239.932 171Zm23.136 0-7.783 1.325c1.301 10.028 2.199 31.243 6.474 47.662L274 225c-7.526-14.491-9.809-34.426-10.932-54Z"/><path fill="#FFD83D" fill-rule="evenodd" stroke="#000" stroke-linecap="round" stroke-linejoin="round" stroke-miterlimit="10" stroke-width="2.26604" d="M251.482 213c-14.62 0-25.36 6.905-26.004 24.499-3.574-6.302-18.693-26.124-32.798-23.471-8.39 1.578-15.802 13.235-14.542 26.591-6.946-20.002-27.293-23.28-42.138-11.452 13.181 10.86 19.045 42.925 30.144 56.833H336.82c11.1-13.908 16.999-45.973 30.18-56.833-14.845-11.828-35.193-8.55-42.138 11.452 1.26-13.356-6.188-25.013-14.577-26.591-14.105-2.653-29.189 17.169-32.763 23.471-.644-17.594-11.419-24.499-26.04-24.499Z"/><path fill-rule="evenodd" stroke="#000" stroke-linecap="round" stroke-linejoin="round" stroke-miterlimit="10" stroke-width="1.69953" d="M337 285.671c0 6.347-38.304 13.329-85.5 13.329s-85.5-6.982-85.5-13.329c0-6.348 38.304-9.671 85.5-9.671s85.5 3.323 85.5 9.671Z"/><path fill="#FFD83D" fill-rule="evenodd" stroke="#000" stroke-linecap="round" stroke-linejoin="round" stroke-miterlimit="10" stroke-width="1.69953" d="M256 168a4 4 0 1 1-8 0 4 4 0 0 1 8 0Z"/><path fill="#FFD83D" fill-rule="evenodd" stroke="#000" stroke-linecap="round" stroke-linejoin="round" stroke-miterlimit="10" stroke-width="1.69953" d="M256 176c0 2.209-2.015 4-4.5 4s-4.5-1.791-4.5-4 2.015-4 4.5-4 4.5 1.791 4.5 4ZM256 185.5a4.5 4.5 0 1 1-9 0 4.5 4.5 0 0 1 9 0Z"/><path fill="#FFD83D" fill-rule="evenodd" stroke="#000" stroke-linecap="round" stroke-linejoin="round" stroke-miterlimit="10" stroke-width="1.69953" d="M257 195.5a5.5 5.5 0 1 1-11 0 5.5 5.5 0 0 1 11 0Z"/><path fill="#FFD83D" fill-rule="evenodd" stroke="#000" stroke-linecap="round" stroke-linejoin="round" stroke-miterlimit="10" stroke-width="1.69953" d="M257 207c0 3.314-2.462 6-5.5 6s-5.5-2.686-5.5-6 2.462-6 5.5-6 5.5 2.686 5.5 6Z"/><path fill-rule="evenodd" d="M249.203 218c-.626-.008-1.217.522-1.06 1.527.184 1.185.415 3.403.636 4.899.25 1.697 1.234 1.284 1.484-.035s.149-2.166.212-4.616c.032-1.225-.647-1.767-1.272-1.775Zm4.594 0c-.625.008-1.303.55-1.272 1.775.063 2.45-.038 3.297.212 4.616.25 1.319 1.235 1.732 1.484.035.221-1.496.452-3.714.637-4.899.156-1.005-.435-1.535-1.061-1.527Zm-8.694.639c-.572.08-1.165.66-1.131 1.278.062 1.131.374 2.487.495 4.19.125 1.759 1.359 1.075 1.484.071.125-1.005.266-2.491.142-4.438-.047-.731-.365-1.052-.742-1.101a.98.98 0 0 0-.248 0Zm12.547 0c-.378.049-.696.37-.743 1.101a23.025 23.025 0 0 0 .142 4.438c.125 1.004 1.359 1.688 1.484-.071.121-1.703.433-3.059.495-4.19.034-.618-.559-1.198-1.131-1.278a.972.972 0 0 0-.247 0Zm-17.459 1.988c-.524.136-1.005.769-.849 1.492.313 1.445.601 3.042.601 4.509 0 1.256 1.068.808 1.131-.071.062-.88.177-2.743.177-4.438 0-1.267-.537-1.628-1.06-1.492Zm22.265 0c-.372.104-.707.542-.707 1.492 0 1.695.115 3.558.177 4.438.063.879 1.131 1.327 1.131.071 0-1.467.288-3.064.601-4.509.156-.723-.325-1.356-.848-1.492a.627.627 0 0 0-.354 0Zm-66.832.195c-.627-.021-1.066.833-.636 1.775.687 1.508 1.418 2.459 2.12 4.083.626 1.445 1.585.544 1.273-.462-.313-1.005-.653-2.124-1.591-4.26-.352-.801-.79-1.124-1.166-1.136Zm111.752 0c-.376.012-.814.335-1.166 1.136-.938 2.136-1.278 3.255-1.591 4.26-.312 1.006.647 1.907 1.273.462.702-1.624 1.433-2.575 2.12-4.083.43-.942-.009-1.796-.636-1.775Zm-107.228.071c-.461.141-.741.729-.46 1.42.564 1.382 1.376 2.799 1.944 4.296.5 1.319 1.613.945 1.237-.249-.375-1.193-.487-1.892-1.237-4.154-.375-1.13-1.023-1.455-1.484-1.313Zm102.351 0c-.395.084-.85.465-1.131 1.313-.75 2.262-.862 2.961-1.237 4.154-.376 1.194.737 1.568 1.237.249.568-1.497 1.381-2.914 1.944-4.296.281-.691.002-1.279-.46-1.42a.65.65 0 0 0-.353 0Zm-96.697 1.1c-.581.111-1.031 1.002-.636 2.095.501 1.382 1.213 2.69 1.838 4.26.626 1.571 1.664 1.254 1.414.249s-.557-2.671-1.308-5.184c-.328-1.099-.855-1.506-1.308-1.42Zm91.396 0c-.453-.086-.98.321-1.308 1.42-.751 2.513-1.057 4.179-1.308 5.184-.25 1.005.788 1.322 1.414-.249.625-1.57 1.337-2.878 1.838-4.26.395-1.093-.055-1.984-.636-2.095Zm-105.391.781c-.63.065-1.203 1.097-.813 1.882.626 1.257 1.022 1.684 1.626 3.018.625 1.382 1.31.312 1.06-.568-.25-.88-.571-1.904-.883-3.16-.229-.92-.612-1.21-.99-1.172Zm119.386 0c-.378-.038-.76.252-.99 1.172-.312 1.256-.633 2.28-.883 3.16-.25.88.435 1.95 1.06.568.604-1.334 1-1.761 1.626-3.018.39-.785-.183-1.817-.813-1.882Zm-75.809 3.179c-.66-.001-1.365.88-1.131 1.704.375 1.32.955 2.489 1.378 4.19.376 1.507 1.441.756 1.379-.249-.063-1.005-.234-2.373-.672-4.509-.164-.801-.558-1.136-.954-1.136Zm32.232 0c-.396 0-.79.335-.954 1.136-.438 2.136-.609 3.504-.672 4.509-.062 1.005 1.004 1.756 1.379.249.423-1.701 1.003-2.87 1.378-4.19.235-.824-.471-1.705-1.131-1.704Zm-16.116 1.349c-.813 0-.926 1.097-.954 1.988-.094 2.922-1.301 5.759-2.333 7.172-1.031 1.414-2.551 1.038-3.958.284s-2.246-1.318-3.746-2.45c-1.501-1.13-2.64-.469-.849 2.095 5.223 7.476 10.886 13.866 10.886 26.06 0 1.577.274 2.059.954 2.059.68 0 .99-.482.99-2.059 0-12.194 5.628-18.584 10.85-26.06 1.791-2.564.653-3.225-.848-2.095-1.501 1.132-2.34 1.696-3.747 2.45-1.407.754-2.926 1.13-3.958-.284-1.032-1.413-2.239-4.25-2.333-7.172-.028-.891-.141-1.988-.954-1.988Zm-39.901-1.829a.673.673 0 0 0-.212.035c-.304.096-.507.465-.389 1.101.21 1.138.995 3.37 1.307 4.438.313 1.068 1.621.841 1.308-.604-.313-1.445-.296-1.881-.671-3.515-.205-.893-.845-1.442-1.343-1.455Zm79.802 0c-.498.013-1.137.562-1.343 1.455-.375 1.634-.358 2.07-.671 3.515-.313 1.445.995 1.672 1.308.604.312-1.068 1.097-3.3 1.307-4.438.118-.636-.085-1.005-.389-1.101a.668.668 0 0 0-.212-.035Zm-103.517.461c-.655.052-1.124.878-.459 2.095.716 1.314 1.946 2.963 2.509 3.905.563.943 1.536.307.848-.887-.688-1.194-.919-2.565-1.732-4.261-.305-.636-.773-.883-1.166-.852Zm127.232 0c-.393-.031-.861.216-1.166.852-.813 1.696-1.044 3.067-1.732 4.261s.285 1.83.848.887c.563-.942 1.793-2.591 2.509-3.905.665-1.217.196-2.043-.459-2.095Zm-163.069 3.782c-.755-.04-.992 1.33-.283 2.237 1.032 1.319 1.751 2.019 2.934 3.089.938.848 1.211-.253.742-1.101-.469-.848-1.147-1.71-2.085-3.124-.515-.775-.965-1.082-1.308-1.101Zm198.906 0c-.343.019-.793.326-1.308 1.101-.937 1.414-1.616 2.276-2.085 3.124-.469.848-.196 1.949.742 1.101 1.183-1.07 1.902-1.77 2.934-3.089.709-.907.472-2.277-.283-2.237Zm-193.216 1.137c-.602.007-.999.454-.53 1.491.672 1.484 1.557 3.165 2.121 4.296.562 1.13 2.277 1.51 1.59-.249-.688-1.759-.824-2.662-1.449-4.296-.313-.816-1.13-1.25-1.732-1.242Zm187.526 0c-.602-.008-1.419.426-1.732 1.242-.625 1.634-.761 2.537-1.449 4.296-.687 1.759 1.028 1.379 1.591.249.563-1.131 1.448-2.812 2.12-4.296.469-1.037.072-1.484-.53-1.491Zm-198.553.39c-.875.009-.95.89-.176 1.456 1.032.754 2.262 1.59 3.463 2.556 1.407 1.131 1.952.091 1.202-.852-.751-.942-1.481-1.898-3.358-2.84-.469-.236-.839-.323-1.131-.32Zm209.58 0c-.292-.003-.662.084-1.131.32-1.876.942-2.607 1.898-3.358 2.84-.75.943-.205 1.983 1.202.852 1.201-.966 2.431-1.802 3.463-2.556.774-.566.699-1.447-.176-1.456Zm-124.016.817c-.49.069-.912.627-.707 1.349.375 1.319.801 2.717 1.06 4.083.251 1.319 1.77 1.335 1.52.142-.25-1.194-.375-2.687-.813-4.509-.164-.683-.507-1.012-.848-1.065a.717.717 0 0 0-.212 0Zm38.24 0c-.341.053-.684.382-.848 1.065-.437 1.822-.563 3.315-.813 4.509-.25 1.193 1.27 1.177 1.52-.142.259-1.366.685-2.764 1.06-4.083.205-.722-.217-1.28-.707-1.349a.717.717 0 0 0-.212 0Zm-72.275-2.256c-.384.107-.605.845-.318 1.882 1.595 5.748 2.084 8.776 1.803 10.19-.282 1.413-1.054 1.607-2.085 1.136a21.23 21.23 0 0 1-3.181-1.811c-.938-.66-1.914.13-.566 1.243 6.848 5.654 11.594 12.116 13.43 19.953.375 1.602 1.377 1.79 1.096 0-1.552-9.873-1.851-17.989.495-23.078.881-1.912-.007-3.749-1.414-.639-.938 2.074-2.456 2.891-3.676 1.101-1.219-1.79-3.738-6.567-4.488-8.734-.282-.813-.629-1.189-.919-1.243a.406.406 0 0 0-.177 0Zm106.345 0c-.29.054-.637.43-.919 1.243-.75 2.167-3.269 6.944-4.488 8.734-1.22 1.79-2.738.973-3.676-1.101-1.407-3.11-2.295-1.273-1.414.639 2.346 5.089 2.047 13.205.495 23.078-.281 1.79.721 1.602 1.096 0 1.836-7.837 6.582-14.299 13.43-19.953 1.348-1.113.372-1.903-.566-1.243a21.27 21.27 0 0 1-3.18 1.811c-1.032.471-1.804.277-2.086-1.136-.281-1.414.208-4.442 1.803-10.19.288-1.037.066-1.775-.318-1.882a.406.406 0 0 0-.177 0Zm-140.768 2.753c-.618.008-1.13.442-.848 1.384.451 1.51 1.384 3.141 1.696 4.083.313.943 1.319.503 1.131-.816-.187-1.319-.28-2.106-.53-3.551-.125-.722-.831-1.108-1.449-1.1Zm175.368 0c-.617-.008-1.324.378-1.449 1.1-.25 1.445-.342 2.232-.53 3.551s.818 1.759 1.131.816c.312-.942 1.245-2.573 1.696-4.083.282-.942-.23-1.376-.848-1.384Zm-154.127-1.972c-.719-.129-.822 1.732-.212 2.486.813 1.005 1.942 2.22 3.074 3.585.938 1.132 1.518.126.955-.816-.563-.943-1.398-1.944-2.898-4.332-.376-.596-.68-.88-.919-.923Zm132.886 0c-.239.043-.543.327-.918.923-1.501 2.388-2.336 3.389-2.899 4.332-.563.942.017 1.948.955.816 1.132-1.365 2.262-2.58 3.074-3.585.61-.754.507-2.615-.212-2.486Zm-149.285 4.493c-.446-.032-.824.331-.636 1.242.261 1.269.641 2.321.954 3.515.312 1.194 1.131.989 1.131-.142s-.201-2.392-.389-3.586c-.094-.597-.615-.998-1.06-1.029Zm165.684 0c-.445.031-.966.432-1.06 1.029-.188 1.194-.389 2.455-.389 3.586 0 1.131.819 1.336 1.131.142.313-1.194.693-2.246.954-3.515.188-.911-.19-1.274-.636-1.242Zm-150.876 1.614c-.7.106-1.316.786-.495 1.846 1.314 1.696 2.751 2.887 3.252 3.515.5.628 1.767.397.954-.923-.831-1.348-2.088-2.971-2.65-3.977-.212-.376-.641-.525-1.061-.461Zm135.785 0c-.308.032-.619.179-.777.461-.563 1.006-1.82 2.629-2.651 3.977-.813 1.32.454 1.551.954.923.501-.628 1.939-1.819 3.252-3.515.821-1.06.205-1.74-.495-1.846a.994.994 0 0 0-.283 0Zm-159.146 4.741c-.552-.051-.743.397 0 1.42 1.688 2.324 3.551 5.842 3.676 7.349.125 1.508-.617 1.491-1.308 1.491-2.064 0-3.072-1.513-4.948-1.952-1.876-.44-2.149.551-.813 1.526 6.879 5.026 13.774 10.634 16.54 15.729 1.126 2.073 2.647 2.831 1.803.852-2.587-6.064-3.214-11.199-2.651-14.308.563-3.11 1.331-5.204 1.237-6.995-.094-1.79-1.104-1.668-1.52 0-.281 1.131-.826 2.63-1.201 3.196-.375.565-1.884.882-3.322-1.065-1.439-1.948-5.068-5.697-6.256-6.64-.446-.353-.906-.573-1.237-.603Zm182.79 0c-.331.03-.791.25-1.237.603-1.188.943-4.817 4.692-6.255 6.64-1.439 1.947-2.947 1.63-3.323 1.065-.375-.566-.92-2.065-1.201-3.196-.415-1.668-1.426-1.79-1.52 0-.094 1.791.674 3.885 1.237 6.995.563 3.109-.064 8.244-2.651 14.308-.844 1.979.677 1.221 1.803-.852 2.766-5.095 9.661-10.703 16.54-15.729 1.336-.975 1.063-1.966-.813-1.526-1.876.439-2.884 1.952-4.948 1.952-.691 0-1.433.017-1.308-1.491.125-1.507 1.988-5.025 3.676-7.349.743-1.023.552-1.471 0-1.42Z"/><path fill="#FFD83D" fill-rule="evenodd" stroke="#000" stroke-linecap="round" stroke-linejoin="round" stroke-miterlimit="10" stroke-width="1.69953" d="m170 279.006 2.212 6.994m2.338-8.32 1.96 7.069m2.954-7.876 1.347 7.211m3.214-8.122 1.441 7.192m4.408-7.768 1.172 7.24m5.05-7.233 1.262 7.226m4.811-9.277.912 7.278m4.802-6.909.912 7.277m4.618-8.014.911 7.278m4.639-7.85.502 7.318m5.43-7.32.435 7.322m4.942-7.692.371 7.326m5.559-7.695.308 7.328m6.512-7.512.308 7.328m89.67.201L330.788 286m-2.338-8.32-1.96 7.069m-2.954-7.876-1.347 7.211m-3.214-8.122-1.441 7.192m-4.408-7.768-1.172 7.24m-5.05-7.233-1.262 7.226m-4.811-9.277-.912 7.278m-4.802-6.909-.912 7.277m-4.618-8.014-.911 7.278m-4.639-7.85-.502 7.318m-5.43-7.32-.435 7.322m-4.942-7.692-.371 7.326m-5.559-7.695-.308 7.328m-6.512-7.512-.307 7.328M251.5 271v8.069"/></g></svg>