<svg xmlns="http://www.w3.org/2000/svg" width="1136" height="568" overflow="hidden"><defs><clipPath id="a"><path d="M-1 94h1136v568H-1z"/></clipPath></defs><g fill-rule="evenodd" clip-path="url(#a)" transform="translate(1 -94)"><path fill="#FFBE29" d="M0 94h1134v567H0Z"/><path fill="#EB7400" d="M47 142h312v472H47Z"/><path fill="#00534E" d="M47 142h156v472H47Z"/><path fill="#8D153A" d="M406 142h685v472H406Z"/><path fill="#FFBE29" d="M1022 531s6.38 12.975 13.43 18.261c10.44 7.833 31.85 7.267 40.94 16.405 10.89 10.775-.85 25.012-.75 26.247l.6 7.519s-7.34.089-10.44.57c-4.64.724-6.46 4.503-15.11 3.941-21.76-1.411-20.88-20.995-22.12-37.731-1.09-6.373-3.62-14.682-5.05-21.052-1.24-5.463-1.5-14.16-1.5-14.16ZM476.069 531s-6.487 12.975-13.655 18.26c-10.619 7.834-32.393 7.268-41.634 16.406-11.073 10.775.86 25.012.76 26.247l-.608 7.52s7.467.088 10.611.569c4.727.724 6.571 4.503 15.372 3.941 22.129-1.41 21.237-20.995 22.489-37.73 1.111-6.373 3.683-14.683 5.144-21.053 1.253-5.463 1.52-14.16 1.52-14.16ZM1022 225.043s6.38-12.975 13.427-18.261c10.442-7.833 31.853-7.267 40.94-16.405 10.889-10.776-.845-25.012-.747-26.248l.598-7.518s-7.343-.089-10.434-.57c-4.649-.724-6.462-4.503-15.116-3.942-21.76 1.411-20.883 20.996-22.114 37.731-1.093 6.373-3.622 14.682-5.059 21.053-1.232 5.463-1.495 14.16-1.495 14.16ZM476.069 225.043s-6.487-12.975-13.655-18.261c-10.619-7.833-32.393-7.267-41.634-16.405-11.073-10.776.859-25.012.76-26.248l-.608-7.518s7.467-.089 10.611-.57c4.727-.724 6.571-4.503 15.372-3.942 22.129 1.411 21.237 20.996 22.489 37.731 1.111 6.373 3.683 14.682 5.144 21.053 1.253 5.463 1.521 14.16 1.521 14.16ZM643.887 547.632l4.114-2.379 1.76 2.384c2.344 3.175 8.831 3.139 13.135-.074l3.292-2.456 2.756 2.456c3.624 3.23 10.391 3.234 14.712.012 3.025-2.257 3.447-2.303 5.447-.585 1.192 1.023 4.69 2.189 7.772 2.59 5.551.721 5.635.682 8.883-4.199 2.72-4.088 3.146-5.742 2.497-9.707-.431-2.628-.894-6.859-1.03-9.4-.247-4.603-.22-4.632 6.473-6.966 3.696-1.29 7.974-3.019 9.507-3.843 2.673-1.437 10.043-10.113 10.043-11.823 0-.453-2.879-1.147-6.398-1.543-13.996-1.572-16.366-9.101-7.267-23.085 14.838-22.806 23.793-45.017 23.852-59.165.027-6.324.386-8.447 1.198-7.072 3.315 5.62-2.624 29.186-11.622 46.108l-3.623 6.814 3.457-.797c1.902-.438 13.08-5.162 24.841-10.498 32.191-14.605 43.248-17.467 64.081-16.588 17.454.736 24.887 4.152 37.21 17.099 6.529 6.859 12.817 11.767 24.322 18.98 24.51 15.369 25.532 16.7 26.697 34.773 1.181 18.312.594 19.306-13.233 22.366-11.818 2.615-19.226 8.134-21.213 15.801-1.061 4.095 1.172 4.212 7.13.376l4.367-2.811 1.941 2.811c2.553 3.696 7.978 3.711 12.484.034l3.403-2.777 3.479 2.777c5.406 4.315 12.595 3.269 14.623-2.129.39-1.037 1.431-.704 3.539 1.13 3.949 3.439 14.073 4.913 15.166 2.21.417-1.032-.376-3.579-1.762-5.661-5.89-8.847-7.732-13.066-7.809-17.882-.106-6.698 1.889-9.929 9.494-15.377 9.238-6.617 12.093-15.155 5.067-15.155-4.337 0-8.711-3.84-11.499-10.1-5.669-12.724-4.558-26.989 3.95-50.719 8.643-24.103 9.601-28.548 9.635-44.668.029-13.033-.299-15.288-3.26-22.434-1.81-4.369-5.482-10.874-8.161-14.456l-4.87-6.513 6.253-5.189c19.093-15.845 15.187-41.778-7.797-51.77-7.031-3.056-8.788-3.326-21.11-3.243-7.393.049-18.665 1.024-25.049 2.165-6.51 1.164-17.528 2.099-25.086 2.129-12.008.049-14.046-.248-18.673-2.715-4.825-2.573-5.652-3.794-6.597-9.74-.194-1.223-1.047-2.442-1.896-2.71-1.641-.518-9.22 6.07-10.34 8.989-.552 1.44-1.003 1.341-2.624-.58-1.076-1.275-2.579-4.205-3.339-6.511-1.913-5.799.436-10.147 7.241-13.404l5.279-2.528-3.113-1.935c-6.424-3.993-17.348-1.261-21.299 5.327-1.117 1.863-2.336 3.391-2.709 3.395-.372.003-2.496-1.774-4.72-3.95-8.295-8.119-5.441-20.131 5.653-23.799 5.916-1.955 11.151-.463 12.24 3.488 1.663 6.033 6.833-1.897 5.906-9.059-.617-4.761-.524-4.926 2.765-4.926 4.574 0 14.31 6.013 17.321 10.699 3.497 5.442 3.243 14.011-.606 20.398l-3.022 5.015 3.953-.793c5.797-1.163 11.429-4.769 14.278-9.143 3.012-4.623 3.336-13.626.665-18.484-2.588-4.708-2.292-5.455 1.535-3.864 6.508 2.706 9.987 5.69 12.597 10.805 2.35 4.606 2.481 5.75 1.209 10.545-.785 2.958-2.532 6.849-3.882 8.647-2.101 2.801-2.173 3.27-.499 3.27 3.119 0 9.631-2.957 11.945-5.423 1.168-1.246 2.872-4.314 3.785-6.818l1.662-4.552 1.909 3.47c2.699 4.907 7.947 9.323 14.346 12.071 6.882 2.955 9.748 3.121 6.149.357-2.427-1.864-6.898-15.009-5.543-16.294.797-.757 10.141 6.445 20.809 16.039 10.092 9.075 16.433 12.048 25.702 12.048 11.841 0 18.735-10.325 13.413-20.088-3.103-5.691-10.015-6.482-14.056-1.608-1.859 2.242-2.369 4.025-1.825 6.376.667 2.88.407 3.264-2.213 3.264-3.441 0-10.225-4.411-22.274-14.482-18.373-15.358-40.698-28.376-56.819-33.13-10.345-3.052-32.444-4.243-42.96-2.315-11.382 2.086-24.845 8.611-32.178 15.595-12.996 12.377-13.202 28.847-.549 43.845l3.625 4.296-2.454 3.818c-3.57 5.555-3.264 13.03.758 18.536 1.771 2.425 3.558 4.408 3.971 4.407.413-.001.865-1.56 1.005-3.465.356-4.817 2.42-8.045 5.962-9.323 3.191-1.151 5.254-.607 19.864 5.235 15.371 6.145 40.648 6.567 67.526 1.128 13.176-2.667 28.714-2.51 35.549.359 12.53 5.258 15.435 18.939 6.224 29.323-3.988 4.495-7.833 6.326-20.744 9.876-9.824 2.701-12.151 2.88-34.482 2.657-19.078-.191-25.934.176-33.722 1.805-8.454 1.768-13.655 1.946-38.489 1.319l-28.715-.725 3.184 2.642c1.751 1.452 4.226 3.24 5.499 3.972 2.165 1.245 2.093 1.412-1.126 2.608-1.892.702-6.091 1.277-9.331 1.277h-5.891l-.793 5.015c-.436 2.759-.403 5.979.074 7.157.702 1.737.44 1.986-1.387 1.321-1.239-.451-4.69-1.338-7.669-1.971-2.978-.634-6.987-1.923-8.909-2.866-3.232-1.585-3.591-1.543-4.781.567-1.063 1.885-11.042 9.324-12.507 9.324-.236 0-.541-1.434-.678-3.187-.136-1.754-1.576-6.318-3.199-10.144-1.623-3.825-3.318-7.998-3.766-9.273-.676-1.924-.983-2.023-1.798-.58-.541.957-1.33 3.565-1.755 5.796-.424 2.232-1.927 5.857-3.341 8.056l-2.57 3.998-1.64-3.419c-1.76-3.67-4.681-7.476-5.739-7.476-.357 0-.965 1.174-1.352 2.608-.806 2.996-7.734 11.303-9.426 11.303-.624 0-1.133-2.348-1.133-5.217 0-2.869-.55-5.216-1.222-5.216-.672 0-1.222.742-1.222 1.65 0 2.205-5.917 8.783-7.902 8.783-.866 0-2.259.782-3.095 1.738-2.182 2.494-3.966 2.144-3.049-.597.43-1.286.15-4.285-.621-6.666l-1.824-5.631c-.291-.902-2.412-.663-6.899.779-7.252 2.329-9.683 1.917-5.953-1.01 1.363-1.069 3.437-4.774 4.608-8.233 1.171-3.459 2.9-6.528 3.841-6.82 1.317-.409 1.247.096-.306 2.2-1.109 1.502-2.02 3.527-2.024 4.501 0 .974-.839 3.283-1.855 5.131-1.015 1.848-1.654 3.543-1.419 3.766.236.224 2.995-.826 6.132-2.333l5.703-2.739.023 2.451c.014 1.347.701 4.903 1.528 7.901l1.503 5.451 3.883-1.788c3.967-1.826 7.725-8.339 7.725-13.388 0-2.496 1.428-2.113 2.012.54.172.778 1.068 3.7 1.991 6.493l1.679 5.077 2.658-3.205c1.462-1.764 3.295-5.222 4.073-7.686 1.351-4.277 3.472-6.116 3.472-3.01 0 2.238 6.098 10.266 7.274 9.576.569-.333 1.701-3.346 2.516-6.695 1.695-6.965 4.43-11.702 6.168-10.683.654.383.908 1.126.566 1.652-.343.526 1.062 5.054 3.121 10.063a5026.067 5026.067 0 0 1 4.595 11.207c.752 1.855 1.431 1.586 5.845-2.319 2.747-2.43 5.24-5.15 5.54-6.045.454-1.352 1.067-1.303 3.635.294 3.592 2.233 15.669 5.83 16.601 4.945.349-.331.708-3.508.796-7.06l.161-6.458 3.473.722c1.91.397 5.926.372 8.925-.055l5.452-.775-4.859-3.339c-2.673-1.837-5.375-4.214-6.005-5.282-.671-1.138-3.049-2.104-5.744-2.334-7.279-.619-20.182-7.868-20.182-11.339 0-.651 1.787.457 3.972 2.462 4.845 4.449 11.577 7.241 17.455 7.241h4.399l-2.721-3.625c-1.563-2.083-2.965-6.034-3.294-9.284-.525-5.181-1.071-6.005-6.472-9.765-3.243-2.26-7.261-5.645-8.928-7.525l-3.031-3.417-1.546 4.057c-.851 2.232-1.89 4.057-2.31 4.057-.42 0-2.055-1.304-3.633-2.898-1.579-1.594-3.187-2.892-3.573-2.884-.387.006-1.785 2.154-3.107 4.771l-2.404 4.757-1.858-2.742c-1.021-1.508-3.434-4.177-5.362-5.93-1.928-1.754-2.942-3.188-2.253-3.188.688 0 3.068 1.826 5.287 4.059l4.036 4.059 1.642-2.974c.974-1.765 1.34-4.475.898-6.667-.643-3.195-.553-3.38.67-1.375.777 1.275 3.138 3.72 5.246 5.432l3.832 3.115 2.645-4.853c2.632-4.83 2.651-4.839 3.849-1.955 1.601 3.857 13.191 13.374 23.058 18.935 1.521.857.88-2.09-1.929-8.868-.744-1.794-1.352-5.03-1.352-7.19 0-3.204-.923-4.63-5.014-7.749-5.906-4.502-7.816-7.704-8.929-14.968-.451-2.942-1.485-6.215-2.297-7.272-1.206-1.569-1.405-.691-1.082 4.77.217 3.681-.261 8.258-1.063 10.17l-1.457 3.478-1.126-2.898c-.62-1.594-3.36-4.366-6.09-6.16-2.73-1.794-4.645-3.563-4.257-3.931.388-.368 3.196 1.267 6.24 3.633 4.638 3.605 5.659 3.995 6.302 2.408.754-1.866-.001-9.984-1.459-15.656-.728-2.833-.664-2.818 2.824.676 2.573 2.577 3.995 5.65 5.098 11.012 1.4 6.812 2.106 7.946 8.394 13.477 3.776 3.322 7.063 5.852 7.303 5.625.24-.229.717-8.82 1.059-19.093.656-19.7-.086-24.387-4.822-30.474l-2.433-3.127 3.825-4.133c4.991-5.392 7.282-9.714 8.276-15.611l.808-4.797-4.317 4.096c-3.535 3.354-5.223 4.095-9.317 4.095-4.055 0-5.638-.68-8.37-3.596-3.278-3.499-9.087-6.866-14.672-8.504-2.064-.606-2.75-.342-2.75 1.056 0 1.025-1.14 3.983-2.533 6.573l-2.532 4.71-5.307-5.254c-3.255-3.223-7.118-5.732-9.992-6.489-7.342-1.934-7.739-1.742-7.739 3.738 0 8.311-3.543 9.86-9.919 4.335-4.86-4.211-8.892-5.127-18.109-4.112l-7.118.784 1.281 3.219c1.07 2.689.829 3.821-1.463 6.875-3.718 4.953-8.552 7.098-15.992 7.098-3.428 0-7.716.711-9.531 1.579-1.815.868-6.324 1.868-10.02 2.223-3.696.354-7.636.987-8.755 1.405-1.75.655-1.943.115-1.379-3.873.864-6.105-3.393-10.608-10.027-10.608-8.608 0-12.578 7.713-9.207 17.886.649 1.958 1.498 5.046 1.886 6.862.404 1.884 4.281 6.883 9.03 11.643 4.577 4.588 8.903 9.362 9.613 10.608.71 1.247 3.058 3.248 5.217 4.447l3.926 2.179-.518-4.208c-.569-4.625.437-5.35 2.894-2.087.878 1.167 3.108 3.053 4.957 4.191 2.911 1.793 3.36 1.829 3.36.272 0-.988.593-3.265 1.319-5.059l1.319-3.264 2.288 4.44c1.258 2.442 5.351 7.992 9.095 12.334 7.265 8.423 11.691 17.837 9.406 20.004-.926.879-3.431.811-8.622-.235-4.024-.81-9.001-1.238-11.061-.951-4.206.585-4.537.041-1.95-3.203 2.73-3.424 2.295-3.989-3.068-3.989-6.205 0-21.609-2.979-27.523-5.323-5.75-2.279-7.076-1.712-8.769 3.751-.761 2.459-2.156 6.914-3.099 9.9l-1.714 5.43 6.221-.6c3.421-.33 7.822-1.08 9.779-1.668 1.958-.587 3.736-.899 3.953-.693.217.206-.655 2.328-1.938 4.715l-2.333 4.341 3.878-.792c2.134-.436 5.343-1.502 7.133-2.369 3.113-1.509 3.363-1.399 5.82 2.55 3.02 4.856 5.436 4.656 5.972-.494.554-5.324 2.302-4.536 5.591 2.519 3.163 6.784 6.453 9.179 7.085 5.158.21-1.336 1.914-3.509 3.786-4.831 3.787-2.672 6.641-1.87 8.278 2.326 1.693 4.344-2.084 8.821-13.072 15.493-22.012 13.366-34.806 31.646-38.459 54.945-3.294 21.015 6.996 42.731 27.638 58.328 9.879 7.464 25.572 15.342 24.575 12.336-4.235-12.765-4.096-37.123.236-41.232.65-.616.426 1.925-.497 5.648-3.439 13.869-1.945 24.919 6.871 50.819 7.974 23.424 6.871 33.435-4.415 40.053-3.625 2.125-5.959 2.475-15.705 2.357-10.575-.129-11.727.085-15.122 2.794-3.291 2.628-7.559 11.254-7.559 15.28 0 2.181 2.418 1.892 7.168-.855Z"/><path fill="#FFBE29" d="m815.637 547.007 4.48-2.862 3.04 2.862c3.983 3.75 8.649 3.666 12.478-.224 1.671-1.698 3.171-2.874 3.334-2.614.163.26.908 1.518 1.656 2.796.947 1.618 2.893 2.431 6.406 2.677 4.232.297 5.369-.11 7.051-2.527l2.004-2.881 4.41 2.818c12.073 7.714 18.506-.379 13.111-16.495-2.744-8.194-1.235-12.8 7.607-23.23 3.728-4.398 6.782-9.092 6.786-10.431 0-2.135-.69-2.421-5.652-2.324-4.749.094-6.138-.413-8.638-3.148-4.065-4.449-3.824-9.545.721-15.2l3.63-4.517-6.441-4.345c-3.543-2.391-9.931-8.046-14.198-12.567-9.58-10.155-19-14.97-31.422-16.063l-8.329-.732.012 6.268c.016 8.068 3.825 15.83 14.222 28.977 11.821 14.949 12.646 17.263 13.125 36.802l.405 16.523-3.421 3.227c-3.091 2.915-4.484 3.287-14.458 3.859-9.496.544-11.491 1.032-14.277 3.485-3.701 3.26-4.807 5.033-5.95 9.534-.666 2.623-.396 3.195 1.508 3.195 1.276 0 4.335-1.288 6.799-2.863ZM563.998 504.415c1.056-1.422 1.919-3.719 1.919-5.104 0-2.093.938-2.651 5.551-3.304l5.55-.786-3.701-2.941c-4.398-3.494-4.805-6.224-.929-6.23 3.861 0 10.399-3.997 11.393-6.954.462-1.374.171-3.21-.657-4.153-2.165-2.462-6.234-2.091-6.99.638-.812 2.933-2.172 2.941-5.256.029-4.638-4.38-4.742-13.446-.215-18.725 2.134-2.488 2.115-2.651-.605-5.219-2.927-2.764-5.017-8.232-3.642-9.531.438-.413 2.75-.084 5.138.732 3.394 1.159 4.734 1.176 6.132.08 4.235-3.318-.353-7.586-7.145-6.645-2.734.379-3.863 0-4.256-1.413-.297-1.072-2.688-2.472-5.381-3.151-4.814-1.213-4.848-1.198-4.848 2.108 0 3.623-2.074 4.306-6.016 1.982-3.203-1.889-6.309-.422-6.309 2.978 0 3.173 3.2 4.737 8.936 4.369 4.399-.283 4.563 2.979.385 7.667l-3.005 3.372 2.38 3.409c3.526 5.049 3.229 13.435-.623 17.6l-3.019 3.265-1.981-2.618c-2.752-3.639-6.518-3.395-7.55.489-.676 2.543-.117 3.706 3.077 6.4 2.147 1.812 5.282 3.294 6.966 3.294 4.167 0 4.004 3.267-.328 6.568l-3.389 2.582 5.238.811c2.881.445 5.238 1.283 5.238 1.862 0 2.22 3.631 9.124 4.798 9.124.674 0 2.089-1.164 3.144-2.586Z"/><path fill="#FFBE29" d="M631.907 475.362c4.77-1.857 15.093-10.489 15.093-12.622 0-.67-2.849-3.765-6.332-6.877-7.329-6.548-15.301-17.576-17.367-24.023-1.077-3.362-6.281-9.117-20.941-23.157L582.853 390l-5.623 1.406c-3.092.774-6.865 1.425-8.384 1.448-2.618.039-2.57.188.91 2.848l3.672 2.806 5.148-2.822c4.989-2.734 5.167-2.751 5.782-.55.361 1.288-.417 3.521-1.796 5.161-1.338 1.59-2.099 3.394-1.693 4.008.406.615-.879 1.9-2.856 2.855-3.663 1.772-6.205 7.603-3.314 7.603 2.6 0 8.335-6.987 7.674-9.35-.338-1.21-.174-2.455.364-2.766 2.234-1.291 2.094 4.194-.175 6.893-1.338 1.589-2.099 3.393-1.693 4.008.406.614-.879 1.899-2.856 2.855-3.639 1.76-6.207 7.603-3.341 7.603 2.808 0 8.449-6.677 7.75-9.175-.365-1.307-.224-2.631.315-2.942 1.504-.869 2.316 3.461 1.046 5.583-.68 1.137-.674 2.688.016 3.919 1.249 2.229-.017 6.51-2.32 7.841-.987.57-.318 1.69 2.075 3.475 3.464 2.583 3.532 2.854 3.532 14.253 0 9.526.389 11.985 2.161 13.643 1.989 1.861 2.162 1.868 2.162.083 0-1.949 3.465-4.331 6.299-4.331.836 0 6.06 4.371 11.608 9.714 5.581 5.375 11.422 9.949 13.076 10.24 1.644.29 3.424.598 3.955.684.532.087 3.033-.647 5.559-1.63ZM573 429.176c0-3.321-6.609-6.867-14.514-7.786-6.382-.742-6.486-.7-6.486 2.605 0 2.736 1.004 3.812 5.409 5.8 7.079 3.195 15.591 2.857 15.591-.619Z"/><path fill="#FFBE29" d="M579.334 428.749c3.221-3.083 4.747-6.749 2.809-6.749-2.228 0-8.143 5.599-8.143 7.708 0 3.292 1.099 3.094 5.334-.959ZM572.962 419.489c.262-1.624-.81-2.708-4.022-4.069-6.928-2.934-15.212-4.293-17.207-2.823-3.675 2.709-1.226 6.345 4.712 6.999 2.391.263 5.633.947 7.205 1.52 4.564 1.662 8.904.904 9.312-1.627ZM572.953 410.443c.373-2.417-1.209-3.282-14.131-7.724-9.646-3.315-13.917-1.752-10.834 3.967 1.074 1.993 2.877 2.903 6.919 3.494 3.007.44 7.116 1.299 9.132 1.911 5.385 1.632 8.496 1.057 8.914-1.648ZM579.464 401.336c1.945-2.081 3.536-4.536 3.536-5.457 0-2.986-7.681 2.297-8.66 5.956-1.174 4.389.73 4.204 5.124-.499ZM572.973 400.603c.429-2.677-4.299-5.095-13.598-6.953-6.821-1.363-9.83-.59-9.32 2.395.279 1.629 2.551 2.82 8.996 4.714 10.315 3.031 13.418 2.996 13.922-.156ZM581.553 387.928c11.766-5.311 12.783-18.705 1.689-22.221-4.607-1.46-7.548-.673-9.311 2.491-1.35 2.423-.447 6.828 1.4 6.828.623 0 1.134.815 1.134 1.812 0 4.651-17.965 6.758-25.331 2.971-2.589-1.33-3.715-4.783-1.561-4.783 1.609 0 2.722-3.519 1.9-6.007-1.121-3.391-4.491-4.565-9.379-3.269-11.028 2.924-10.718 16.066.51 21.642 9.208 4.573 29.392 4.851 38.948.536Z"/><path fill="#FFBE29" d="M574.446 377.776c.68-.648.384-1.644-.754-2.546-2.493-1.975-2.36-4.913.375-8.275 2.053-2.525 2.31-6.305 3.016-44.424 1.218-65.691 6.065-115.102 12.452-126.955 2.544-4.719 2.187-4.738-4.385-.231-8.465 5.806-14.91 13.365-20.621 24.188C553.747 239.965 550 267.453 550 326.132c0 33.318.225 37.676 2.108 40.809 1.788 2.974 1.884 4.073.627 7.25-.814 2.06-1.184 4.028-.821 4.374 2.407 2.298 19.944 1.689 22.532-.783ZM673.911 315.138c.371-.583-.45-3.53-1.824-6.547-2.143-4.705-3.007-5.487-6.06-5.487-9.564 0-24.939-4.382-40.79-11.625-9.153-4.183-12.315-5.144-13.412-4.078-2.801 2.719 1.854 9.174 9.062 12.567 6.395 3.01 24.271 6.708 32.426 6.708 4.73 0 4.842.219 2.15 4.208l-1.98 2.935 5.351.141c2.944.077 7.007.549 9.03 1.049 5.254 1.298 5.303 1.299 6.048.13Z"/><path d="M729.841 344.509c0-1.679-4.975-6.229-10.015-9.161-3.959-2.302-4.613-2.372-4.622-.494-.013 2.851-2.571 10.014-3.575 10.014-.567 0-1.404-1.4-1.862-3.111-.457-1.711-2.376-5.082-4.264-7.492l-3.433-4.382-2.673 4.06c-2.491 3.785-6.808 7.491-8.723 7.491-.458 0-.547-1.993-.199-4.429.378-2.647.086-4.746-.726-5.217-.747-.434-1.358-.282-1.358.336 0 1.426-5.995 8.166-7.263 8.166-.522 0-1.254-1.931-1.626-4.292a429.44 429.44 0 0 0-1.403-8.296c-.401-2.203.453-.71 1.897 3.319l2.625 7.326 2.879-4.465c1.583-2.455 2.881-5.138 2.885-5.962 0-.824.539-1.189 1.19-.811.651.378 1.557 3.329 2.013 6.559l.83 5.871 3.168-3.442c1.742-1.893 3.783-4.428 4.536-5.633 1.344-2.15 1.42-2.148 4.092.099 1.498 1.259 3.8 4.269 5.117 6.691 1.316 2.421 2.569 4.223 2.785 4.005.215-.218.697-2.714 1.072-5.547.374-2.832.708-5.255.742-5.383.187-.702 9.542 5.326 13.004 8.378 2.224 1.962 4.337 3.292 4.695 2.956.358-.335.65-3.23.65-6.431 0-4.962-.53-6.291-3.592-9.004-3.52-3.119-3.619-3.136-4.919-.854-1.688 2.961-3.68 3.003-3.68.079 0-2.135-6.652-10.34-8.383-10.34-.448 0-1.849 1.803-3.113 4.005-1.264 2.203-2.623 4.004-3.02 4.001-1.707-.01-11.085-10.374-11.08-12.245 0-1.488.632-1.107 2.276 1.378 1.249 1.888 3.745 4.707 5.545 6.264 3.647 3.153 4.972 2.386 6.379-3.689.401-1.731 1.098-3.147 1.548-3.147 1.559 0 9.723 8.594 10.872 11.444l1.152 2.861.873-3.147c1.068-3.849 2.246-3.992 3.951-.48.712 1.467 4.228 4.517 7.815 6.777l6.52 4.111 1.309-4.134c.72-2.274 1.673-3.581 2.119-2.904.664 1.009-1.031 7.86-2.309 9.333-.192.221-2.305-.998-4.696-2.71l-4.347-3.113-.017 5.572c-.012 3.065-.347 6.73-.752 8.147-.79 2.769-2.889 3.548-2.889 1.072ZM696.783 299.718c-7.761-6.624-8.94-8.14-8.768-11.279l.183-3.341.507 3.227c.295 1.885 2.362 4.709 4.967 6.788l4.462 3.56 2.742-3.242c1.508-1.782 2.761-3.906 2.785-4.719.064-2.119.436-1.941 5.691 2.72 4.669 4.141 4.741 4.161 5.436 1.477.387-1.495.249-4.311-.306-6.257-1.525-5.35-1.226-6.157 1.085-2.931 1.152 1.608 3.004 3.88 4.116 5.05 1.935 2.036 2.053 2.011 2.773-.591.414-1.495.76-4.231.769-6.081l.017-3.362 4.21 4.878c3.932 4.556 4.294 4.724 5.494 2.553.707-1.278 1.294-4.354 1.304-6.834.013-3.205.343-4.013 1.141-2.793 1.331 2.037.407 7.585-2.052 12.313l-1.764 3.393-2.317-3.688c-2.963-4.716-3.949-4.641-5.85.449-1.796 4.809-2.964 5.175-4.715 1.477-1.133-2.393-1.348-2.1-2.152 2.928l-.894 5.587-5.354-4.247-5.355-4.248-2.407 2.797c-1.324 1.539-2.425 3.463-2.447 4.275-.049 1.762-1.337 1.817-3.3.141ZM766.278 275.646c-2.754-2.472-4.651-4.831-4.216-5.242.435-.41.925-.528 1.089-.261.164.267 2.415 2.626 5.003 5.241 5.958 6.024 4.733 6.194-1.876.262ZM673.804 265.495c-2.6-3.378-2.421-5.616.744-9.278 2.287-2.646 3.332-3.005 7.325-2.517 2.562.312 8.075 2.488 12.25 4.833 4.823 2.709 9.812 4.524 13.675 4.975 3.346.391 6.083.538 6.083.327 0-.21-1.39-2.386-3.088-4.835-4.034-5.815-3.896-6.439.654-2.955 4.67 3.576 10.256 4.622 22.739 4.258l6.098-.179-3.538-3.36c-4.948-4.701-3.425-5.122 2.039-.565 5.125 4.275 4.804 4.576-5.983 5.61-4.583.44-9.512.121-13.61-.88-6.13-1.498-6.368-1.476-5.206.499.669 1.138 1.753 2.069 2.408 2.069.656 0 1.192.577 1.192 1.282 0 2.167-13.24.261-19.567-2.817-14.453-7.032-16.272-7.641-19.712-6.6-1.915.58-3.831 2.277-4.491 3.977-2.203 5.672 6.168 10.081 9.621 5.067 1-1.453.767-2.447-.992-4.216-2.409-2.422-2.183-2.767 1.069-1.632 2.308.807 2.619 6.132.471 8.087-2.457 2.236-8.064 1.603-10.182-1.15Z"/><path d="M730.679 251.57c-1.761-1.791-.38-2.23 7.518-2.388 9.77-.196 15.704-1.944 22.706-6.69 5.61-3.802 7.131-3.054 1.806.889-4.858 3.597-12.434 6.362-19.749 7.207-3.541.409-7.578.976-8.97 1.26-1.391.284-2.881.159-3.311-.278Z"/><path fill="#FFBE29" d="m643.887 547.632 4.114-2.379 1.76 2.384c2.344 3.175 8.831 3.139 13.135-.074l3.292-2.456 2.756 2.456c3.624 3.23 10.391 3.234 14.712.012 3.025-2.257 3.447-2.303 5.447-.585 1.192 1.023 4.69 2.189 7.772 2.59 5.551.721 5.635.682 8.883-4.199 2.72-4.088 3.146-5.742 2.497-9.707-.431-2.628-.894-6.859-1.03-9.4-.247-4.603-.22-4.632 6.473-6.966 3.696-1.29 7.974-3.019 9.507-3.843 2.673-1.437 10.043-10.113 10.043-11.823 0-.453-2.879-1.147-6.398-1.543-13.996-1.572-16.366-9.101-7.267-23.085 14.838-22.806 23.793-45.017 23.852-59.165.027-6.324.386-8.447 1.198-7.072 3.315 5.62-2.624 29.186-11.622 46.108l-3.623 6.814 3.457-.797c1.902-.438 13.08-5.162 24.841-10.498 32.191-14.605 43.248-17.467 64.081-16.588 17.454.736 24.887 4.152 37.21 17.099 6.529 6.859 12.817 11.767 24.322 18.98 24.51 15.369 25.532 16.7 26.697 34.773 1.181 18.312.594 19.306-13.233 22.366-11.818 2.615-19.226 8.134-21.213 15.801-1.061 4.095 1.172 4.212 7.13.376l4.367-2.811 1.941 2.811c2.553 3.696 7.978 3.711 12.484.034l3.403-2.777 3.479 2.777c5.406 4.315 12.595 3.269 14.623-2.129.39-1.037 1.431-.704 3.539 1.13 3.949 3.439 14.073 4.913 15.166 2.21.417-1.032-.376-3.579-1.762-5.661-5.89-8.847-7.732-13.066-7.809-17.882-.106-6.698 1.889-9.929 9.494-15.377 9.238-6.617 12.093-15.155 5.067-15.155-4.337 0-8.711-3.84-11.499-10.1-5.669-12.724-4.558-26.989 3.95-50.719 8.643-24.103 9.601-28.548 9.635-44.668.029-13.033-.299-15.288-3.26-22.434-1.81-4.369-5.482-10.874-8.161-14.456l-4.87-6.513 6.253-5.189c19.093-15.845 15.187-41.778-7.797-51.77-7.031-3.056-8.788-3.326-21.11-3.243-7.393.049-18.665 1.024-25.049 2.165-6.51 1.164-17.528 2.099-25.086 2.129-12.008.049-14.046-.248-18.673-2.715-4.825-2.573-5.652-3.794-6.597-9.74-.194-1.223-1.047-2.442-1.896-2.71-1.641-.518-9.22 6.07-10.34 8.989-.552 1.44-1.003 1.341-2.624-.58-1.076-1.275-2.579-4.205-3.339-6.511-1.913-5.799.436-10.147 7.241-13.404l5.279-2.528-3.113-1.935c-6.424-3.993-17.348-1.261-21.299 5.327-1.117 1.863-2.336 3.391-2.709 3.395-.372.003-2.496-1.774-4.72-3.95-8.295-8.119-5.441-20.131 5.653-23.799 5.916-1.955 11.151-.463 12.24 3.488 1.663 6.033 6.833-1.897 5.906-9.059-.617-4.761-.524-4.926 2.765-4.926 4.574 0 14.31 6.013 17.321 10.699 3.497 5.442 3.243 14.011-.606 20.398l-3.022 5.015 3.953-.793c5.797-1.163 11.429-4.769 14.278-9.143 3.012-4.623 3.336-13.626.665-18.484-2.588-4.708-2.292-5.455 1.535-3.864 6.508 2.706 9.987 5.69 12.597 10.805 2.35 4.606 2.481 5.75 1.209 10.545-.785 2.958-2.532 6.849-3.882 8.647-2.101 2.801-2.173 3.27-.499 3.27 3.119 0 9.631-2.957 11.945-5.423 1.168-1.246 2.872-4.314 3.785-6.818l1.662-4.552 1.909 3.47c2.699 4.907 7.947 9.323 14.346 12.071 6.882 2.955 9.748 3.121 6.149.357-2.427-1.864-6.898-15.009-5.543-16.294.797-.757 10.141 6.445 20.809 16.039 10.092 9.075 16.433 12.048 25.702 12.048 11.841 0 18.735-10.325 13.413-20.088-3.103-5.691-10.015-6.482-14.056-1.608-1.859 2.242-2.369 4.025-1.825 6.376.667 2.88.407 3.264-2.213 3.264-3.441 0-10.225-4.411-22.274-14.482-18.373-15.358-40.698-28.376-56.819-33.13-10.345-3.052-32.444-4.243-42.96-2.315-11.382 2.086-24.845 8.611-32.178 15.595-12.996 12.377-13.202 28.847-.549 43.845l3.625 4.296-2.454 3.818c-3.57 5.555-3.264 13.03.758 18.536 1.771 2.425 3.558 4.408 3.971 4.407.413-.001.865-1.56 1.005-3.465.356-4.817 2.42-8.045 5.962-9.323 3.191-1.151 5.254-.607 19.864 5.235 15.371 6.145 40.648 6.567 67.526 1.128 13.176-2.667 28.714-2.51 35.549.359 12.53 5.258 15.435 18.939 6.224 29.323-3.988 4.495-7.833 6.326-20.744 9.876-9.824 2.701-12.151 2.88-34.482 2.657-19.078-.191-25.934.176-33.722 1.805-8.454 1.768-13.655 1.946-38.489 1.319l-28.715-.725 3.184 2.642c1.751 1.452 4.226 3.24 5.499 3.972 2.165 1.245 2.093 1.412-1.126 2.608-1.892.702-6.091 1.277-9.331 1.277h-5.891l-.793 5.015c-.436 2.759-.403 5.979.074 7.157.702 1.737.44 1.986-1.387 1.321-1.239-.451-4.69-1.338-7.669-1.971-2.978-.634-6.987-1.923-8.909-2.866-3.232-1.585-3.591-1.543-4.781.567-1.063 1.885-11.042 9.324-12.507 9.324-.236 0-.541-1.434-.678-3.187-.136-1.754-1.576-6.318-3.199-10.144-1.623-3.825-3.318-7.998-3.766-9.273-.676-1.924-.983-2.023-1.798-.58-.541.957-1.33 3.565-1.755 5.796-.424 2.232-1.927 5.857-3.341 8.056l-2.57 3.998-1.64-3.419c-1.76-3.67-4.681-7.476-5.739-7.476-.357 0-.965 1.174-1.352 2.608-.806 2.996-7.734 11.303-9.426 11.303-.624 0-1.133-2.348-1.133-5.217 0-2.869-.55-5.216-1.222-5.216-.672 0-1.222.742-1.222 1.65 0 2.205-5.917 8.783-7.902 8.783-.866 0-2.259.782-3.095 1.738-2.182 2.494-3.966 2.144-3.049-.597.43-1.286.15-4.285-.621-6.666l-1.824-5.631c-.291-.902-2.412-.663-6.899.779-7.252 2.329-9.683 1.917-5.953-1.01 1.363-1.069 3.437-4.774 4.608-8.233 1.171-3.459 2.9-6.528 3.841-6.82 1.317-.409 1.247.096-.306 2.2-1.109 1.502-2.02 3.527-2.024 4.501 0 .974-.839 3.283-1.855 5.131-1.015 1.848-1.654 3.543-1.419 3.766.236.224 2.995-.826 6.132-2.333l5.703-2.739.023 2.451c.014 1.347.701 4.903 1.528 7.901l1.503 5.451 3.883-1.788c3.967-1.826 7.725-8.339 7.725-13.388 0-2.496 1.428-2.113 2.012.54.172.778 1.068 3.7 1.991 6.493l1.679 5.077 2.658-3.205c1.462-1.764 3.295-5.222 4.073-7.686 1.351-4.277 3.472-6.116 3.472-3.01 0 2.238 6.098 10.266 7.274 9.576.569-.333 1.701-3.346 2.516-6.695 1.695-6.965 4.43-11.702 6.168-10.683.654.383.908 1.126.566 1.652-.343.526 1.062 5.054 3.121 10.063a5026.067 5026.067 0 0 1 4.595 11.207c.752 1.855 1.431 1.586 5.845-2.319 2.747-2.43 5.24-5.15 5.54-6.045.454-1.352 1.067-1.303 3.635.294 3.592 2.233 15.669 5.83 16.601 4.945.349-.331.708-3.508.796-7.06l.161-6.458 3.473.722c1.91.397 5.926.372 8.925-.055l5.452-.775-4.859-3.339c-2.673-1.837-5.375-4.214-6.005-5.282-.671-1.138-3.049-2.104-5.744-2.334-7.279-.619-20.182-7.868-20.182-11.339 0-.651 1.787.457 3.972 2.462 4.845 4.449 11.577 7.241 17.455 7.241h4.399l-2.721-3.625c-1.563-2.083-2.965-6.034-3.294-9.284-.525-5.181-1.071-6.005-6.472-9.765-3.243-2.26-7.261-5.645-8.928-7.525l-3.031-3.417-1.546 4.057c-.851 2.232-1.89 4.057-2.31 4.057-.42 0-2.055-1.304-3.633-2.898-1.579-1.594-3.187-2.892-3.573-2.884-.387.006-1.785 2.154-3.107 4.771l-2.404 4.757-1.858-2.742c-1.021-1.508-3.434-4.177-5.362-5.93-1.928-1.754-2.942-3.188-2.253-3.188.688 0 3.068 1.826 5.287 4.059l4.036 4.059 1.642-2.974c.974-1.765 1.34-4.475.898-6.667-.643-3.195-.553-3.38.67-1.375.777 1.275 3.138 3.72 5.246 5.432l3.832 3.115 2.645-4.853c2.632-4.83 2.651-4.839 3.849-1.955 1.601 3.857 13.191 13.374 23.058 18.935 1.521.857.88-2.09-1.929-8.868-.744-1.794-1.352-5.03-1.352-7.19 0-3.204-.923-4.63-5.014-7.749-5.906-4.502-7.816-7.704-8.929-14.968-.451-2.942-1.485-6.215-2.297-7.272-1.206-1.569-1.405-.691-1.082 4.77.217 3.681-.261 8.258-1.063 10.17l-1.457 3.478-1.126-2.898c-.62-1.594-3.36-4.366-6.09-6.16-2.73-1.794-4.645-3.563-4.257-3.931.388-.368 3.196 1.267 6.24 3.633 4.638 3.605 5.659 3.995 6.302 2.408.754-1.866-.001-9.984-1.459-15.656-.728-2.833-.664-2.818 2.824.676 2.573 2.577 3.995 5.65 5.098 11.012 1.4 6.812 2.106 7.946 8.394 13.477 3.776 3.322 7.063 5.852 7.303 5.625.24-.229.717-8.82 1.059-19.093.656-19.7-.086-24.387-4.822-30.474l-2.433-3.127 3.825-4.133c4.991-5.392 7.282-9.714 8.276-15.611l.808-4.797-4.317 4.096c-3.535 3.354-5.223 4.095-9.317 4.095-4.055 0-5.638-.68-8.37-3.596-3.278-3.499-9.087-6.866-14.672-8.504-2.064-.606-2.75-.342-2.75 1.056 0 1.025-1.14 3.983-2.533 6.573l-2.532 4.71-5.307-5.254c-3.255-3.223-7.118-5.732-9.992-6.489-7.342-1.934-7.739-1.742-7.739 3.738 0 8.311-3.543 9.86-9.919 4.335-4.86-4.211-8.892-5.127-18.109-4.112l-7.118.784 1.281 3.219c1.07 2.689.829 3.821-1.463 6.875-3.718 4.953-8.552 7.098-15.992 7.098-3.428 0-7.716.711-9.531 1.579-1.815.868-6.324 1.868-10.02 2.223-3.696.354-7.636.987-8.755 1.405-1.75.655-1.943.115-1.379-3.873.864-6.105-3.393-10.608-10.027-10.608-8.608 0-12.578 7.713-9.207 17.886.649 1.958 1.498 5.046 1.886 6.862.404 1.884 4.281 6.883 9.03 11.643 4.577 4.588 8.903 9.362 9.613 10.608.71 1.247 3.058 3.248 5.217 4.447l3.926 2.179-.518-4.208c-.569-4.625.437-5.35 2.894-2.087.878 1.167 3.108 3.053 4.957 4.191 2.911 1.793 3.36 1.829 3.36.272 0-.988.593-3.265 1.319-5.059l1.319-3.264 2.288 4.44c1.258 2.442 5.351 7.992 9.095 12.334 7.265 8.423 11.691 17.837 9.406 20.004-.926.879-3.431.811-8.622-.235-4.024-.81-9.001-1.238-11.061-.951-4.206.585-4.537.041-1.95-3.203 2.73-3.424 2.295-3.989-3.068-3.989-6.205 0-21.609-2.979-27.523-5.323-5.75-2.279-7.076-1.712-8.769 3.751-.761 2.459-2.156 6.914-3.099 9.9l-1.714 5.43 6.221-.6c3.421-.33 7.822-1.08 9.779-1.668 1.958-.587 3.736-.899 3.953-.693.217.206-.655 2.328-1.938 4.715l-2.333 4.341 3.878-.792c2.134-.436 5.343-1.502 7.133-2.369 3.113-1.509 3.363-1.399 5.82 2.55 3.02 4.856 5.436 4.656 5.972-.494.554-5.324 2.302-4.536 5.591 2.519 3.163 6.784 6.453 9.179 7.085 5.158.21-1.336 1.914-3.509 3.786-4.831 3.787-2.672 6.641-1.87 8.278 2.326 1.693 4.344-2.084 8.821-13.072 15.493-22.012 13.366-34.806 31.646-38.459 54.945-3.294 21.015 6.996 42.731 27.638 58.328 9.879 7.464 25.572 15.342 24.575 12.336-4.235-12.765-4.096-37.123.236-41.232.65-.616.426 1.925-.497 5.648-3.439 13.869-1.945 24.919 6.871 50.819 7.974 23.424 6.871 33.435-4.415 40.053-3.625 2.125-5.959 2.475-15.705 2.357-10.575-.129-11.727.085-15.122 2.794-3.291 2.628-7.559 11.254-7.559 15.28 0 2.181 2.418 1.892 7.168-.855Z"/><path fill="#FFBE29" d="m815.637 547.007 4.48-2.862 3.04 2.862c3.983 3.75 8.649 3.666 12.478-.224 1.671-1.698 3.171-2.874 3.334-2.614.163.26.908 1.518 1.656 2.796.947 1.618 2.893 2.431 6.406 2.677 4.232.297 5.369-.11 7.051-2.527l2.004-2.881 4.41 2.818c12.073 7.714 18.506-.379 13.111-16.495-2.744-8.194-1.235-12.8 7.607-23.23 3.728-4.398 6.782-9.092 6.786-10.431 0-2.135-.69-2.421-5.652-2.324-4.749.094-6.138-.413-8.638-3.148-4.065-4.449-3.824-9.545.721-15.2l3.63-4.517-6.441-4.345c-3.543-2.391-9.931-8.046-14.198-12.567-9.58-10.155-19-14.97-31.422-16.063l-8.329-.732.012 6.268c.016 8.068 3.825 15.83 14.222 28.977 11.821 14.949 12.646 17.263 13.125 36.802l.405 16.523-3.421 3.227c-3.091 2.915-4.484 3.287-14.458 3.859-9.496.544-11.491 1.032-14.277 3.485-3.701 3.26-4.807 5.033-5.95 9.534-.666 2.623-.396 3.195 1.508 3.195 1.276 0 4.335-1.288 6.799-2.863ZM563.998 504.415c1.056-1.422 1.919-3.719 1.919-5.104 0-2.093.938-2.651 5.551-3.304l5.55-.786-3.701-2.941c-4.398-3.494-4.805-6.224-.929-6.23 3.861 0 10.399-3.997 11.393-6.954.462-1.374.171-3.21-.657-4.153-2.165-2.462-6.234-2.091-6.99.638-.812 2.933-2.172 2.941-5.256.029-4.638-4.38-4.742-13.446-.215-18.725 2.134-2.488 2.115-2.651-.605-5.219-2.927-2.764-5.017-8.232-3.642-9.531.438-.413 2.75-.084 5.138.732 3.394 1.159 4.734 1.176 6.132.08 4.235-3.318-.353-7.586-7.145-6.645-2.734.379-3.863 0-4.256-1.413-.297-1.072-2.688-2.472-5.381-3.151-4.814-1.213-4.848-1.198-4.848 2.108 0 3.623-2.074 4.306-6.016 1.982-3.203-1.889-6.309-.422-6.309 2.978 0 3.173 3.2 4.737 8.936 4.369 4.399-.283 4.563 2.979.385 7.667l-3.005 3.372 2.38 3.409c3.526 5.049 3.229 13.435-.623 17.6l-3.019 3.265-1.981-2.618c-2.752-3.639-6.518-3.395-7.55.489-.676 2.543-.117 3.706 3.077 6.4 2.147 1.812 5.282 3.294 6.966 3.294 4.167 0 4.004 3.267-.328 6.568l-3.389 2.582 5.238.811c2.881.445 5.238 1.283 5.238 1.862 0 2.22 3.631 9.124 4.798 9.124.674 0 2.089-1.164 3.144-2.586Z"/><path fill="#FFBE29" d="M631.907 475.362c4.77-1.857 15.093-10.489 15.093-12.622 0-.67-2.849-3.765-6.332-6.877-7.329-6.548-15.301-17.576-17.367-24.023-1.077-3.362-6.281-9.117-20.941-23.157L582.853 390l-5.623 1.406c-3.092.774-6.865 1.425-8.384 1.448-2.618.039-2.57.188.91 2.848l3.672 2.806 5.148-2.822c4.989-2.734 5.167-2.751 5.782-.55.361 1.288-.417 3.521-1.796 5.161-1.338 1.59-2.099 3.394-1.693 4.008.406.615-.879 1.9-2.856 2.855-3.663 1.772-6.205 7.603-3.314 7.603 2.6 0 8.335-6.987 7.674-9.35-.338-1.21-.174-2.455.364-2.766 2.234-1.291 2.094 4.194-.175 6.893-1.338 1.589-2.099 3.393-1.693 4.008.406.614-.879 1.899-2.856 2.855-3.639 1.76-6.207 7.603-3.341 7.603 2.808 0 8.449-6.677 7.75-9.175-.365-1.307-.224-2.631.315-2.942 1.504-.869 2.316 3.461 1.046 5.583-.68 1.137-.674 2.688.016 3.919 1.249 2.229-.017 6.51-2.32 7.841-.987.57-.318 1.69 2.075 3.475 3.464 2.583 3.532 2.854 3.532 14.253 0 9.526.389 11.985 2.161 13.643 1.989 1.861 2.162 1.868 2.162.083 0-1.949 3.465-4.331 6.299-4.331.836 0 6.06 4.371 11.608 9.714 5.581 5.375 11.422 9.949 13.076 10.24 1.644.29 3.424.598 3.955.684.532.087 3.033-.647 5.559-1.63ZM573 429.176c0-3.321-6.609-6.867-14.514-7.786-6.382-.742-6.486-.7-6.486 2.605 0 2.736 1.004 3.812 5.409 5.8 7.079 3.195 15.591 2.857 15.591-.619Z"/><path fill="#FFBE29" d="M579.334 428.749c3.221-3.083 4.747-6.749 2.809-6.749-2.228 0-8.143 5.599-8.143 7.708 0 3.292 1.099 3.094 5.334-.959ZM572.962 419.489c.262-1.624-.81-2.708-4.022-4.069-6.928-2.934-15.212-4.293-17.207-2.823-3.675 2.709-1.226 6.345 4.712 6.999 2.391.263 5.633.947 7.205 1.52 4.564 1.662 8.904.904 9.312-1.627ZM572.953 410.443c.373-2.417-1.209-3.282-14.131-7.724-9.646-3.315-13.917-1.752-10.834 3.967 1.074 1.993 2.877 2.903 6.919 3.494 3.007.44 7.116 1.299 9.132 1.911 5.385 1.632 8.496 1.057 8.914-1.648ZM579.464 401.336c1.945-2.081 3.536-4.536 3.536-5.457 0-2.986-7.681 2.297-8.66 5.956-1.174 4.389.73 4.204 5.124-.499ZM572.973 400.603c.429-2.677-4.299-5.095-13.598-6.953-6.821-1.363-9.83-.59-9.32 2.395.279 1.629 2.551 2.82 8.996 4.714 10.315 3.031 13.418 2.996 13.922-.156ZM581.553 387.928c11.766-5.311 12.783-18.705 1.689-22.221-4.607-1.46-7.548-.673-9.311 2.491-1.35 2.423-.447 6.828 1.4 6.828.623 0 1.134.815 1.134 1.812 0 4.651-17.965 6.758-25.331 2.971-2.589-1.33-3.715-4.783-1.561-4.783 1.609 0 2.722-3.519 1.9-6.007-1.121-3.391-4.491-4.565-9.379-3.269-11.028 2.924-10.718 16.066.51 21.642 9.208 4.573 29.392 4.851 38.948.536Z"/><path fill="#FFBE29" d="M574.446 377.776c.68-.648.384-1.644-.754-2.546-2.493-1.975-2.36-4.913.375-8.275 2.053-2.525 2.31-6.305 3.016-44.424 1.218-65.691 6.065-115.102 12.452-126.955 2.544-4.719 2.187-4.738-4.385-.231-8.465 5.806-14.91 13.365-20.621 24.188C553.747 239.965 550 267.453 550 326.132c0 33.318.225 37.676 2.108 40.809 1.788 2.974 1.884 4.073.627 7.25-.814 2.06-1.184 4.028-.821 4.374 2.407 2.298 19.944 1.689 22.532-.783ZM673.911 315.138c.371-.583-.45-3.53-1.824-6.547-2.143-4.705-3.007-5.487-6.06-5.487-9.564 0-24.939-4.382-40.79-11.625-9.153-4.183-12.315-5.144-13.412-4.078-2.801 2.719 1.854 9.174 9.062 12.567 6.395 3.01 24.271 6.708 32.426 6.708 4.73 0 4.842.219 2.15 4.208l-1.98 2.935 5.351.141c2.944.077 7.007.549 9.03 1.049 5.254 1.298 5.303 1.299 6.048.13Z"/><path fill="#8D153A" d="M729.841 344.509c0-1.679-4.975-6.229-10.015-9.161-3.959-2.302-4.613-2.372-4.622-.494-.013 2.851-2.571 10.014-3.575 10.014-.567 0-1.404-1.4-1.862-3.111-.457-1.711-2.376-5.082-4.264-7.492l-3.433-4.382-2.673 4.06c-2.491 3.785-6.808 7.491-8.723 7.491-.458 0-.547-1.993-.199-4.429.378-2.647.086-4.746-.726-5.217-.747-.434-1.358-.282-1.358.336 0 1.426-5.995 8.166-7.263 8.166-.522 0-1.254-1.931-1.626-4.292a429.44 429.44 0 0 0-1.403-8.296c-.401-2.203.453-.71 1.897 3.319l2.625 7.326 2.879-4.465c1.583-2.455 2.881-5.138 2.885-5.962 0-.824.539-1.189 1.19-.811.651.378 1.557 3.329 2.013 6.559l.83 5.871 3.168-3.442c1.742-1.893 3.783-4.428 4.536-5.633 1.344-2.15 1.42-2.148 4.092.099 1.498 1.259 3.8 4.269 5.117 6.691 1.316 2.421 2.569 4.223 2.785 4.005.215-.218.697-2.714 1.072-5.547.374-2.832.708-5.255.742-5.383.187-.702 9.542 5.326 13.004 8.378 2.224 1.962 4.337 3.292 4.695 2.956.358-.335.65-3.23.65-6.431 0-4.962-.53-6.291-3.592-9.004-3.52-3.119-3.619-3.136-4.919-.854-1.688 2.961-3.68 3.003-3.68.079 0-2.135-6.652-10.34-8.383-10.34-.448 0-1.849 1.803-3.113 4.005-1.264 2.203-2.623 4.004-3.02 4.001-1.707-.01-11.085-10.374-11.08-12.245 0-1.488.632-1.107 2.276 1.378 1.249 1.888 3.745 4.707 5.545 6.264 3.647 3.153 4.972 2.386 6.379-3.689.401-1.731 1.098-3.147 1.548-3.147 1.559 0 9.723 8.594 10.872 11.444l1.152 2.861.873-3.147c1.068-3.849 2.246-3.992 3.951-.48.712 1.467 4.228 4.517 7.815 6.777l6.52 4.111 1.309-4.134c.72-2.274 1.673-3.581 2.119-2.904.664 1.009-1.031 7.86-2.309 9.333-.192.221-2.305-.998-4.696-2.71l-4.347-3.113-.017 5.572c-.012 3.065-.347 6.73-.752 8.147-.79 2.769-2.889 3.548-2.889 1.072ZM696.783 299.718c-7.761-6.624-8.94-8.14-8.768-11.279l.183-3.341.507 3.227c.295 1.885 2.362 4.709 4.967 6.788l4.462 3.56 2.742-3.242c1.508-1.782 2.761-3.906 2.785-4.719.064-2.119.436-1.941 5.691 2.72 4.669 4.141 4.741 4.161 5.436 1.477.387-1.495.249-4.311-.306-6.257-1.525-5.35-1.226-6.157 1.085-2.931 1.152 1.608 3.004 3.88 4.116 5.05 1.935 2.036 2.053 2.011 2.773-.591.414-1.495.76-4.231.769-6.081l.017-3.362 4.21 4.878c3.932 4.556 4.294 4.724 5.494 2.553.707-1.278 1.294-4.354 1.304-6.834.013-3.205.343-4.013 1.141-2.793 1.331 2.037.407 7.585-2.052 12.313l-1.764 3.393-2.317-3.688c-2.963-4.716-3.949-4.641-5.85.449-1.796 4.809-2.964 5.175-4.715 1.477-1.133-2.393-1.348-2.1-2.152 2.928l-.894 5.587-5.354-4.247-5.355-4.248-2.407 2.797c-1.324 1.539-2.425 3.463-2.447 4.275-.049 1.762-1.337 1.817-3.3.141Z"/><path d="M766.278 275.646c-2.754-2.472-4.651-4.831-4.216-5.242.435-.41.925-.528 1.089-.261.164.267 2.415 2.626 5.003 5.241 5.958 6.024 4.733 6.194-1.876.262Z"/><path fill="#8D153A" d="M673.804 265.495c-2.6-3.378-2.421-5.616.744-9.278 2.287-2.646 3.332-3.005 7.325-2.517 2.562.312 8.075 2.488 12.25 4.833 4.823 2.709 9.812 4.524 13.675 4.975 3.346.391 6.083.538 6.083.327 0-.21-1.39-2.386-3.088-4.835-4.034-5.815-3.896-6.439.654-2.955 4.67 3.576 10.256 4.622 22.739 4.258l6.098-.179-3.538-3.36c-4.948-4.701-3.425-5.122 2.039-.565 5.125 4.275 4.804 4.576-5.983 5.61-4.583.44-9.512.121-13.61-.88-6.13-1.498-6.368-1.476-5.206.499.669 1.138 1.753 2.069 2.408 2.069.656 0 1.192.577 1.192 1.282 0 2.167-13.24.261-19.567-2.817-14.453-7.032-16.272-7.641-19.712-6.6-1.915.58-3.831 2.277-4.491 3.977-2.203 5.672 6.168 10.081 9.621 5.067 1-1.453.767-2.447-.992-4.216-2.409-2.422-2.183-2.767 1.069-1.632 2.308.807 2.619 6.132.471 8.087-2.457 2.236-8.064 1.603-10.182-1.15Z"/><path fill="#8D153A" d="M730.679 251.57c-1.761-1.791-.38-2.23 7.518-2.388 9.77-.196 15.704-1.944 22.706-6.69 5.61-3.802 7.131-3.054 1.806.889-4.858 3.597-12.434 6.362-19.749 7.207-3.541.409-7.578.976-8.97 1.26-1.391.284-2.881.159-3.311-.278Z"/></g></svg>