<svg xmlns="http://www.w3.org/2000/svg" width="1136" height="568" overflow="hidden"><defs><clipPath id="a"><path d="M-1 94h1136v568H-1z"/></clipPath></defs><g fill-rule="evenodd" clip-path="url(#a)" transform="translate(1 -94)"><path fill="#CC092F" d="M0 94h1134v567H0Z"/><path fill="#FFD200" d="M0 94h756v567H0Z"/><path fill="#0046AE" d="M0 94h378v567H0Z"/><path d="M533.984 210.001c-2.056 0-3.852.517-4.899 1.321a3.962 3.962 0 0 1 2.874 3.833v4.671h-4.734c-1.854 0-3.39-1.177-3.886-2.803-.815 1.034-1.339 2.805-1.339 4.832 0 2.028.524 3.8 1.339 4.832.485-1.642 2.019-2.835 3.886-2.835h4.734v22.451a3.967 3.967 0 0 1-2.677 3.768c2.258.304 4.202 3.294 4.734 4.929.534-1.632 2.478-4.625 4.736-4.929a3.954 3.954 0 0 1-2.712-3.768V223.85h4.735c1.855 0 3.391 1.177 3.887 2.804.814-1.033 1.338-2.805 1.338-4.832 0-2.028-.523-3.799-1.338-4.832-.486 1.642-2.02 2.834-3.887 2.834h-4.735v-4.67a3.973 3.973 0 0 1 2.842-3.834c-1.046-.803-2.843-1.32-4.898-1.32Z"/><path fill="#F5D402" d="M533.984 211.001a9.203 9.203 0 0 0-2.802.449c1.059.907 1.76 2.223 1.76 3.725v4.656c0 .066-.02.129-.033.193v.738h-.75c-.064.013-.129.032-.196.033h-4.726c-1.508 0-2.827-.68-3.748-1.702-.265.79-.489 1.692-.489 2.762 0 1.052.2 1.979.456 2.761.921-1.044 2.256-1.733 3.781-1.733h5.704c-.007.096-.034.19-.034.288v.481c.014.063.033.126.034.193v22.38c0 1.453-.761 2.596-1.761 3.5a7.567 7.567 0 0 1 1.858 1.606c.469.555.656 1.098.978 1.669.323-.57.509-1.114.978-1.669a7.651 7.651 0 0 1 1.825-1.574c-1.008-.901-1.76-2.073-1.76-3.532v-23.312h.782c.064-.013.128-.032.196-.032h4.726c1.506 0 2.826.68 3.747 1.701.265-.789.49-1.69.49-2.761a8.83 8.83 0 0 0-.456-2.761c-.922 1.044-2.256 1.733-3.781 1.733h-4.726c-.067 0-.132-.019-.196-.032h-.75v-.738c-.013-.063-.032-.127-.033-.194v-4.655c0-1.485.69-2.783 1.728-3.692-.802-.26-1.717-.482-2.803-.482"/><path d="M592 292.009c-2.83-2.009-5.153-4.28-6.804-6.93-3.976-6.377-5.654-14.206-5.654-22.162 0-3.363 3.769-7.149 3.769-9.868 0-4.111-.383-6.578-.383-6.578 1.337.183 3.673 2.555 3.673 2.555s-.08-6.823-2.237-8.015c0 0 .873-.897 4.026-.99-.886-2.244-5.27-4.982-5.27-4.982.219-.392.624-.732 1.149-1.022 1.101-.609 2.649-1.01 3.832-1.245-1.261-.262-2.715-.662-4.311-1.183-3.645-1.187-7.937-2.93-11.947-4.853-7.32-3.51-12.897-3.736-15.971-3.736-2.231 0-5.516.061-7.442 1.342-1.763 1.17-1.62 2.691-2.237 3.225-1.454 1.258-3.944 1.213-5.143 1.213-7.762 0-8.05 8.304-8.05 8.304s1.985-3.002 5.494-3.002c5.835 0 10.254 3.177 10.254 4.374 0 .485-.602.575-.638.575-3.812 0-9.563-2.194-12.619-2.3v1.501c6.821 2.373 13.736 5.731 13.736 20.534 0 9.321-1.117 18.832-5.782 26.314-1.652 2.649-4.004 4.916-6.835 6.93l27.695 4.99Z"/><path d="m564.483 285.834-28.067 6.293c-1.277-.384-7.281-2.24-11.493-4.574-7.415-4.11-11.26-8.2-20.072-8.601v-6.669c0-3.563 1.296-6.773 1.296-10.18-3.715-.991-14.025-13.535-23.536-19.103-13.995 9.02-24.831 23.827-24.831 30.636 0 0 .421 146.31 0 197.28 0 2.938-1.78 7.088-1.78 7.088 5.109-2.151 14.474-14.901 16.446-19.748v2.32c7.716-3.501 13.365-12.701 15.895-17.46.045.688.163 2.415.163 2.415 6.893-6.012 15.668-41.555 15.668-41.555l14.623 14.3s-5.288 10.682-7.349 12.595c0 0 1.381.175 2.946.162-.963 1.376-8.314 11.908-10.618 15.881-2.157 3.716-3.678 2.062-6.993 2.062-2.749 0-8.98 4.358-10.004 6.121-1.075 1.853-1.876 4.104-1.876 5.96 0 2.038 2.169 4.832 2.169 4.832.233-.976.647-1.321.647-1.321s5.699 7.065 6.539 7.988c.654.72 3.57 1.187 4.598.259 2.571-2.326 5.06-3.953 7.348-7.313 1.179-1.731 1.268-3.715 2.622-5.574 4.53-6.217 13.543-18.122 15.605-20.842.137.757.256 1.388.387 2.159 2.336-4.693 13.565-13.659 13.565-13.659l11.748 5.38s-21.935 50.174-41.406 57.889c0 0 8.471 3.581 18.874 8.956 1.518.784 3.08 1.626 4.662 2.481a128.01 128.01 0 0 0 4.046-5.123c6.221-8.281 12.303-17.878 12.303-17.878.424 2.492-2.861 10.19-8.417 19.684-1.092 1.865-2.232 3.815-3.496 5.797a211.45 211.45 0 0 1 4.208 2.449c10.305 6.17 19.983 13.263 23.568 19.779l2.529-6.298-2.529-6.298V294.189l1.264-3.147Z"/><path fill="#B07F55" d="M564.822 515c-3.64-3.939-11.251-8.751-19.804-13.192 10.342-18.516 15.467-47.785 13.062-53.612 0 0-4.245 15.18-9.433 23.831-4.803 8.011-10.716 17.022-16.432 23.702-4.703-2.002-9.264-3.681-13.16-4.851 17.131-13.165 34.649-56.683 34.649-56.683l-18.115-8.375s-6.778 7.882-8.978 9.345c0 0-.941-3.919-1.491-5.303 0 0-2.597 1.96-4.018 2.006 0 0-.425-2.66-.746-4.398-1.789 1.189-4.765.938-4.765.938 2.613-1.234 5.705-8.795 5.705-8.795l-17.299-22.955s-6.076 29.127-12.997 35.115V306.346l5.478 5.076 8.297-7.728v-5.884l-7.357 6.854v-17.752a60.058 60.058 0 0 0 2.398-3.912c1.191 2.071 5.04 8.419 9.561 12.32.744-3.018 5.64-5.886 5.64-5.886s1.755 4.743 4.44 5.917c.944-1.66 6.581-5.334 6.581-5.334s-4.822.73-6.775 2.555c-1.677-.375-2.107-6.985-2.107-6.985s-7.096 3.448-8.33 5.917c-1.353-.365-3.459-5.677-4.279-7.857a47.307 47.307 0 0 1 5.283-.291c2.024 0 4.613.957 7.325 2.231 2.98 1.4 6.098 3.172 8.882 4.43 3.566 1.611 8.961 1.938 10.534 2.005-1.802 1.263-3.782 2.417-5.931 3.492 0 0 8.491-.078 14.456-3.04 2.128-1.365 4.336-2.726 6.223-4.333-.818 2.27-2.093 4.952-4.085 7.243 8.76-.739 13.123-5.73 14.359-7.404.581 1.5 1.617 3.907 3.241 5.981H568v214.75ZM499.843 262.785l.157 4.111V279c-3.096-1.118-6.987-6.46-8.873-9.284v-1.658c0-1.56.874-2.699 1.515-3.316l-1.863-.695c-.71.85-1.484 2.113-1.484 3.746v.962l-5.557 6.267-5.464-8.688v-2.122c0-1.43 1.048-3.024 1.927-4.111l-1.832-.697c-.925 1.258-1.895 2.953-1.895 4.543v1.723c-1.285 1.397-6.285 6.799-6.285 6.799L467 265.273c3.828-5.567 10.034-11.8 15.884-16.273 0 0 12.686 12.229 16.959 13.785ZM467 274.306v9.564l-4 4.13v-14.202c0-1.36.512-2.998 1.371-4.798Z"/><path fill="#B07F55" d="M482 277.998v6.072l-6 4.93v-19ZM475 289l-6-4.749v-6.901l6-5.35ZM498 281.516c-1.241 1.655-4.492 5.701-8 7.484v-16c.805 1.263 4.496 6.896 8 8.516ZM489 274v15l-6-4.767v-5.307ZM467 290v15l-4-4.172v-6.656ZM474 294.798v5.405L469 305v-15ZM482 290v15l-6-4.83v-5.341ZM489 294.83v5.341L483 305v-15ZM496 305l-6-4.82v-5.01c2.069-1.081 4.15-3.069 6-5.17ZM482.666 312.124l5.667-5.091V432.03s.395 6.202.667 10.244L477 454V307ZM474 449.455c0 4.022-7.412 13.402-11 15.545V307.034l5.467 5.062L474 307Z"/><path fill="#D10429" d="m519.348 435.846 4.034-2.711s.269 1.308.618 3.094c-1.727 2.314-11.651 15.586-16.562 22.064-1.22 1.609-2.246 5.707-2.246 5.707s-1.788-.829-1.788-2.327c0-1.471.196-3.221.196-3.221s-1.336 1.499-3.646 1.499c0-1.808 3.569-3.769 3.71-6.344-2.721 1.977-5.084.962-8.232 1.913-3.427 1.035-4.382 2.446-5.433 2.392-.62-.033-1.18-1.08-.944-1.722.41-1.113 4.649-4.194 7.613-4.751.71-.133 6.294 1.191 7.419-.51l12.885-19.481c.478-.112.918-.231 1.268-.448 0 0-.043 3.582 1.108 4.846Z"/><path fill="#D10429" d="M493.844 457.249c.223.277.203.684-.034.905l-1.812 1.707c-.237.221-.618.174-.841-.105-.224-.277-.205-.684.033-.906l1.812-1.707a.516.516 0 0 1 .421-.139c.15.019.308.105.421.245ZM496.629 459.576c.521.65.487 1.571-.063 2.089l-4.233 4.006c-.551.518-1.439.414-1.961-.235-.522-.65-.489-1.604.062-2.121l4.233-3.973c.206-.195.488-.314.747-.337.433-.039.888.166 1.215.571ZM498.629 462.576c.521.65.488 1.57-.063 2.088l-4.264 4.007c-.551.517-1.408.414-1.93-.236-.522-.649-.489-1.603.063-2.12l4.233-3.973c.206-.194.456-.313.716-.337.432-.039.918.165 1.245.571ZM500.41 465.005c.435-.033.891.113 1.217.463.523.56.49 1.382-.062 1.827l-4.243 3.422c-.552.445-1.412.356-1.934-.204-.523-.559-.521-1.352.031-1.798l4.274-3.449c.206-.168.457-.242.717-.261Z"/><path d="m564.499 285.834 28.067 6.293c1.277-.384 7.281-2.24 11.493-4.574 7.416-4.11 11.26-8.2 20.072-8.601v-6.67c0-3.562-1.296-6.772-1.296-10.179 3.715-.991 14.025-13.535 23.537-19.103 13.994 9.02 24.83 23.827 24.83 30.636 0 0-.42 146.31 0 197.28 0 2.938 1.78 7.088 1.78 7.088-5.109-2.151-14.474-14.901-16.445-19.748v2.32c-7.716-3.501-13.366-12.701-15.896-17.46-.045.688-.163 2.415-.163 2.415-6.893-6.012-15.668-41.555-15.668-41.555l-14.623 14.3s5.289 10.682 7.35 12.595c0 0-1.382.175-2.947.162.963 1.376 8.314 11.908 10.619 15.881 2.156 3.716 3.678 2.062 6.993 2.062 2.749 0 8.98 4.358 10.003 6.121 1.076 1.853 1.877 4.104 1.877 5.96 0 2.038-2.17 4.832-2.17 4.832-.233-.976-.646-1.321-.646-1.321s-5.7 7.065-6.54 7.988c-.654.72-3.57 1.187-4.597.259-2.572-2.326-5.06-3.953-7.35-7.313-1.177-1.731-1.267-3.715-2.621-5.574-4.53-6.217-13.543-18.122-15.604-20.842-.138.757-.256 1.388-.387 2.159-2.336-4.693-13.566-13.659-13.566-13.659l-11.748 5.38s21.936 50.174 41.406 57.889c0 0-8.47 3.581-18.874 8.956-1.517.784-3.08 1.626-4.661 2.481a127.736 127.736 0 0 1-4.047-5.123c-6.22-8.281-12.303-17.878-12.303-17.878-.424 2.492 2.86 10.19 8.417 19.684 1.093 1.865 2.232 3.815 3.496 5.797-1.41.801-2.808 1.61-4.208 2.449-10.305 6.17-19.982 13.263-23.567 19.779l-2.53-6.298 2.53-6.298V294.189l-1.265-3.147Z"/><path fill="#B07F55" d="M564.167 515c3.64-3.939 11.25-8.751 19.803-13.192-10.342-18.516-15.466-47.785-13.062-53.612 0 0 4.245 15.18 9.433 23.831 4.803 8.011 10.716 17.022 16.433 23.702 4.703-2.002 9.263-3.681 13.16-4.851-17.132-13.165-34.65-56.683-34.65-56.683l18.116-8.375s6.777 7.882 8.978 9.345c0 0 .94-3.919 1.49-5.303 0 0 2.597 1.96 4.019 2.006 0 0 .424-2.66.745-4.398 1.789 1.189 4.765.938 4.765.938-2.613-1.234-5.705-8.795-5.705-8.795l17.299-22.955s6.076 29.127 12.997 35.115V306.346l-5.478 5.076-8.297-7.728v-5.885l7.358 6.855v-17.752a59.587 59.587 0 0 1-2.399-3.912c-1.19 2.071-5.04 8.419-9.56 12.32-.745-3.018-5.64-5.886-5.64-5.886s-1.755 4.743-4.44 5.917c-.945-1.66-6.581-5.334-6.581-5.334s4.822.73 6.774 2.555c1.677-.375 2.107-6.985 2.107-6.985s7.096 3.448 8.33 5.917c1.353-.365 3.46-5.677 4.28-7.857a47.44 47.44 0 0 0-5.284-.29c-2.024 0-4.613.956-7.325 2.23-2.98 1.4-6.098 3.172-8.882 4.43-3.566 1.61-8.96 1.938-10.534 2.005 1.802 1.263 3.782 2.417 5.931 3.492 0 0-8.49-.078-14.456-3.04-2.128-1.365-4.336-2.726-6.223-4.333.819 2.27 2.093 4.952 4.085 7.243-8.76-.74-13.123-5.73-14.36-7.404-.58 1.5-1.615 3.907-3.24 5.981h-3.166v214.75ZM629.13 262.785l-.156 4.111V279c3.096-1.118 6.986-6.46 8.873-9.284v-1.658c0-1.56-.874-2.7-1.516-3.316l1.863-.696c.71.851 1.485 2.114 1.485 3.747v.962l5.557 6.267 5.463-8.688v-2.122c0-1.43-1.047-3.024-1.926-4.111l1.832-.697c.925 1.258 1.895 2.953 1.895 4.543v1.723c1.285 1.397 6.284 6.799 6.284 6.799l3.19-7.196c-3.828-5.567-10.035-11.8-15.885-16.273 0 0-12.686 12.229-16.958 13.785ZM661.97 274.306v9.564l4 4.13v-14.202c0-1.36-.512-2.998-1.37-4.798Z"/><path fill="#B07F55" d="M647.972 277.998v6.072l5 4.93v-19ZM654.97 289l5-4.749v-6.9l-5-5.351ZM630.976 281.516c1.241 1.655 4.492 5.701 8 7.484v-16c-.805 1.263-4.497 6.896-8 8.516ZM639.97 274v15l6-4.767v-5.307ZM661.97 290v15l4-4.172v-6.656ZM654.97 294.798v5.405l5 4.797v-15ZM647.972 290v15l5-4.83v-5.34ZM639.97 294.83v5.34l6 4.83v-15ZM632.972 305l6-4.82v-5.01c-2.069-1.081-4.15-3.07-6-5.17ZM646.306 312.124l-5.667-5.09V432.03s-.396 6.202-.667 10.244l12 11.726V307ZM654.968 449.455c0 4.022 7.412 13.402 11 15.545V307.034l-5.468 5.062-5.532-5.096Z"/><path fill="#D10429" d="m609.633 435.846-4.035-2.71s-.269 1.307-.617 3.093c1.727 2.314 11.65 15.586 16.561 22.064 1.221 1.61 2.246 5.707 2.246 5.707s1.789-.829 1.789-2.327c0-1.471-.196-3.22-.196-3.22s1.335 1.498 3.645 1.498c0-1.808-3.568-3.77-3.71-6.344 2.722 1.977 5.085.962 8.232 1.913 3.428 1.035 4.383 2.446 5.434 2.392.62-.033 1.18-1.08.943-1.722-.41-1.113-4.648-4.194-7.612-4.75-.71-.134-6.294 1.19-7.42-.51-4.634-7.01-12.158-18.386-12.884-19.482-.478-.112-.918-.231-1.269-.448 0 0 .043 3.582-1.107 4.846Z"/><path fill="#D10429" d="M635.132 457.249c-.223.277-.203.684.034.905l1.812 1.707c.237.22.617.174.84-.105.224-.277.205-.684-.032-.906l-1.812-1.707a.513.513 0 0 0-.421-.139.66.66 0 0 0-.42.245ZM632.398 459.576c-.596.65-.557 1.57.072 2.089l4.837 4.005c.63.519 1.645.415 2.242-.234.596-.65.558-1.604-.071-2.121l-4.838-3.973a1.58 1.58 0 0 0-.854-.337c-.495-.039-1.015.166-1.388.571ZM630.35 462.576c-.522.65-.489 1.57.062 2.088l4.264 4.007c.55.517 1.408.414 1.93-.236.522-.649.488-1.603-.063-2.12l-4.233-3.973a1.214 1.214 0 0 0-.716-.337c-.432-.039-.918.165-1.245.571ZM628.568 465.005a1.501 1.501 0 0 0-1.217.463c-.523.56-.49 1.382.062 1.827l4.244 3.422c.552.445 1.411.356 1.934-.204.523-.56.52-1.352-.03-1.798l-4.275-3.45a1.257 1.257 0 0 0-.718-.26Z"/><path fill="#B07F55" d="M557.961 225.035c7.246 0 12.342 3.274 19.198 6.287a59.663 59.663 0 0 0 4.919 1.924c-.922.81-1.64 1.624-1.845 2.31 0 0 3.073.564 4.467 3.112 0 0-2.921.329-3.399 2.02 1.637.123 3.263 2.167 3.27 4.139l-4.144-1.284s1.004 4.611 1.004 9.623c0 2.56-3.722 5.573-3.722 9.912 0 13.618 3.462 18.853 5.924 23.063.963 1.647 1.746 3.542 3.367 4.972-7.094-3.743-12.366-8.421-12.366-12.766v-16.456h-1.846v16.456c0 3.151.777 4.619.777 4.619 1.113 3.486 3.365 8.867 4.759 11.034-6.527-3.495-9.842-7.872-9.842-9.495v-22.614h-1.845v22.935l.356 1.571c-.791 1.178-1.82 2.573-2.525 3.047-.704-.474-1.701-1.871-2.494-3.047l.357-1.571v-22.935h-1.845v22.614c0 1.623-3.316 6-9.842 9.495 1.395-2.167 3.645-7.548 4.758-11.034 0 0 .777-1.468.777-4.619v-16.456h-1.845v16.456c0 4.34-5.253 9.026-12.334 12.766 1.604-1.431 2.376-3.334 3.334-4.972 2.692-4.604 6.021-10.453 6.021-27.105 0-6.249-.933-10.498-2.557-13.472-.494-.981-1.159-3.593 2.622-3.593 1.958 0 6.442 3.433 6.442 3.433s-.185-2.739-2.46-4.299c-.378-.259-1.003-1.073-1.003-1.829 0-.566.98-1.964 1.747-2.309.527-.237-7.704-1.658-7.704-5.357 0-.77.489-1.283 2.2-1.283 2.242 0 5.888 2.662 9.13 2.662 2.396 0 3.341-.578 5.794-.578 2.999 0 9.255 5.626 11.395 5.421-2.393-1.488-6.257-7.121-12.107-7.121-2.03 0-3.868.449-5.763.449-2.429 0-4.821-2.214-7.446-2.214-1.759 0-3.724.098-4.014-.353-.509-.786-.051-1.243.421-1.892.891-1.227 3.393-1.582 5.86-1.668.74-.025 1.478-.038 2.17-.031.69.007 1.328.033 1.879.033Z"/><path fill="#CC092F" d="M535.001 233.325s1.502-3.201 5.297-3.201c1.587 0 6.823-.124 6.823-.124.698 2.041 3.879 5.453 3.879 9 0 0-3.229-6.553-12.242-6.553-2.265 0-3.758.877-3.758.877Z"/><path fill="#D10429" d="M549 239.999s-1.78 1.957-2.167 3.001c-1.761-.697-4.833-4-4.833-4s2.604 1.587 6.999.999Z"/><path d="M546 234s-2-.648-2-1.326c0-.864.971-.864 1.552-.191.4.464.448 1.517.448 1.517ZM559 234.5c0 1.381-1.343 2.5-3 2.5s-3-1.119-3-2.5 1.343-2.5 3-2.5 3 1.119 3 2.5Z"/><path fill="#F5D402" d="M558 234.5c0 1.381-.895 2.5-2 2.5s-2-1.119-2-2.5.895-2.5 2-2.5 2 1.119 2 2.5Z"/><path d="M557 234a1 1 0 1 1-2 0 1 1 0 0 1 2 0ZM504.538 467 515 472.593 512.462 484 502 478.407Z"/><path d="M457.665 358 454 359.685l41.402 91.36h4.405Zm48.828 107.745-2.989 3.11 1.864 4.145 3.632-1.684Z"/><path d="M470.001 430s3.456 7.221 6.083 8.211c-1.359-.374-5.77 1.263-5.77 1.263s7.778 7.028 14.375 7.489c5.595.39 8.311-2.435 8.311-2.435l-1.121-5.995s-3.422-4.18-8.9-6.11c-5.534-1.95-12.979-2.422-12.979-2.422ZM496.562 417s-4.819 4.177-6.138 9.015c-1.319 4.838.86 10.337.86 10.337l4.049 7.648s5.612-3.024 7.999-7.546c2.387-4.522 1.511-10.624 1.511-10.624s-4.445 1.676-5.011 2.418c.939-5.016-3.271-11.248-3.271-11.248ZM480.999 415.343s-5.456 1.956-10.755 1.618c-5.047-.324-9.244-4.819-9.244-4.819s4.184-3.004 6.249-2.603c-2.272-.881-5.565-6.917-5.565-6.917s4.68-1.5 8.831.159c4.15 1.661 7.769 6.483 7.769 6.483l2.716 6.079ZM482.855 388.001s2.778 5.677 2.119 7.65c.862-1.313 4.124-3.36 4.124-3.36s1.971 9.193.086 14.87c-1.886 5.677-7.627 7.839-7.627 7.839l-6.332-12.155s-.943-4.503 1.032-8.069c1.975-3.566 6.598-6.776 6.598-6.776ZM446.914 373.078s6.104-.612 11.688 1.594c4.668 1.848 6.099 5.207 6.099 5.207l2.299 5.878s-6.644 2.375-11.893.559c-5.25-1.818-9.107-7.829-9.107-7.829s3.669-1.326 5.065-.829c-2.034-.858-4.15-4.58-4.15-4.58ZM465.753 362.001s2.578 3.362 2.655 7.228c.687-2.056 3.905-4.328 3.905-4.328s3.309 8.134 2.583 13.908c-.727 5.775-5.488 9.191-5.488 9.191l-5.938-11.446s-1.935-4.692-1.365-8.331c.571-3.638 3.648-6.223 3.648-6.223ZM445.473 340s-1.093 6.285.767 9.905c1.662 3.23 2.72 3.939 2.72 3.939-3.169-2.085-7.96-2.265-7.96-2.265s1.706 6.837 5.781 9.957c4.076 3.119 10.36 2.39 10.36 2.39s4.133-5.485 3.845-11.394c-.288-5.909-4.995-12.243-4.995-12.243s-1.857 3.839-2.02 6.705c-1.202-2.954-8.499-6.993-8.499-6.993Z"/><path d="m494.001 443.859.171 2.244c3.775.035 4.337-.336 5.305.838.644.783 2.177 1.466 3.718.771 1.542-.695 2.233-2.523 1.529-4.044-.703-1.522-2.137-1.852-3.518-1.583-.847.165-1.405.832-2.124 1.199-1.367.699-5.082.576-5.082.576Z"/><path d="m493.205 443.001 1.795 1.297c-1.926 3.106-2.527 3.374-2.041 4.773.323.932.104 2.538-1.278 3.44-1.381.901-3.274.521-4.187-.841-.913-1.363-.449-2.705.491-3.695.578-.609 1.426-.719 2.106-1.117 1.294-.758 3.113-3.858 3.113-3.858ZM481.001 415.86l.17 2.243c3.776.034 4.337-.336 5.305.838.644.782 2.178 1.466 3.719.771 1.543-.695 2.233-2.522 1.529-4.044-.704-1.522-2.137-1.852-3.518-1.583-.848.165-1.405.833-2.124 1.199-1.368.699-5.082.576-5.082.576Z"/><path d="m481.405 417 1.595 1.488c-2.43 2.646-3.078 2.811-2.814 4.201.176.927-.302 2.41-1.834 3.057-1.531.648-3.369.013-4.069-1.407-.698-1.418-.017-2.616 1.086-3.412.677-.488 1.547-.469 2.292-.744 1.421-.524 3.744-3.182 3.744-3.182ZM468.001 389.86l.17 2.243c3.776.035 4.337-.336 5.306.84.644.78 2.177 1.464 3.719.769 1.541-.695 2.232-2.521 1.528-4.045-.704-1.521-2.137-1.851-3.518-1.582-.848.165-1.406.833-2.125 1.199-1.367.699-5.081.575-5.081.575Z"/><path d="m469.405 389 1.595 1.653c-2.431 2.941-3.077 3.124-2.815 4.669.176 1.029-.302 2.677-1.833 3.396-1.531.719-3.369.013-4.069-1.563-.698-1.577-.017-2.908 1.086-3.792.677-.543 1.546-.521 2.293-.828 1.421-.583 3.743-3.535 3.743-3.535ZM455.001 361.86l.17 2.243c3.776.035 4.338-.336 5.305.838.645.782 2.178 1.465 3.719.772 1.542-.696 2.233-2.523 1.529-4.045-.703-1.522-2.137-1.852-3.518-1.583-.847.166-1.405.833-2.124 1.199-1.367.699-5.082.576-5.082.576Z"/><path d="m456.406 361 1.594 1.654c-2.43 2.94-3.078 3.123-2.814 4.668.176 1.029-.303 2.677-1.834 3.396-1.531.719-3.369.014-4.068-1.563-.7-1.576-.018-2.909 1.084-3.792.678-.542 1.548-.521 2.294-.828 1.42-.582 3.743-3.534 3.743-3.534Z"/><path fill="#F5D402" d="m506.562 471 6.438 3.29-1.562 6.71-6.438-3.29ZM478.776 409.961c-1.366.58-3.391-5.495-4.878-8.823-1.526-3.415-4.623-8.679-3.743-9.09.965-.45 2.237 2.314 3.798 5.809 1.561 3.493 6.102 11.56 4.823 12.103ZM464.685 378.948c-1.354.533-2.836-3.12-4.31-6.177-1.513-3.137-2.987-5.352-2.114-5.729.958-.414 2.372 2.334 3.611 4.901 1.199 2.488 4.081 6.505 2.812 7.005ZM496.902 447.994c-1.106.276-5.933-9.161-9.835-17.146-3.902-7.985-6.808-14.445-5.9-14.831.997-.425 4.156 7.117 8.06 15.103 3.903 7.986 8.504 16.666 7.675 16.874Z"/><path fill="#097754" d="M447.005 344s-.156 4.659 1.296 7.302c1.452 2.644 4.694 3.698 4.694 3.698s.155-4.658-1.296-7.301c-1.452-2.644-4.694-3.699-4.694-3.699ZM444 354s3.784.252 5.97 2.145c2.184 1.894 3.03 5.839 3.03 5.839s-2.508.288-4.692-1.605C446.123 358.484 444 354 444 354ZM456.294 345s-1.448 2.974-1.281 6.18c.167 3.207 2.255 6.82 2.255 6.82s1.888-3.85 1.722-7.057c-.166-3.207-2.19-5.035-2.696-5.943ZM450 374.004s1.883 2.841 4.782 4.39C457.681 379.942 462 380 462 380s-2.156-3.023-5.055-4.572c-2.899-1.548-6.945-1.426-6.945-1.426ZM451.001 381s1.428 2.743 4.04 3.919c2.614 1.176 7.959 1.079 7.959 1.079s-2.051-2.563-4.664-3.739C455.724 381.082 451 381 451 381ZM465.33 366s-1.463 2.495-1.32 5.244c.144 2.751 1.892 5.756 1.892 5.756s1.23-3.445 1.086-6.195c-.143-2.75-1.659-4.805-1.659-4.805ZM471.569 369s-3.069 3.648-3.51 7.398c-.441 3.749 1.745 7.602 1.745 7.602s3.709-3.296 4.149-7.046c.441-3.751-2.384-7.953-2.384-7.953ZM464 404.1s.322 1.297 1.443 2.674c1.12 1.378 3.038 2.835 3.038 2.835s1.852-.58 4.155-.095C474.938 410.001 478 412 478 412s-3.296-4.794-6.718-6.658c-3.422-1.864-7.281-1.243-7.281-1.243ZM464.001 412.248s4.13-1.591 7.531-1.18c3.401.41 6.468 2.834 6.468 2.834s-4.597 1.434-7.998 1.024c-3.402-.41-6.002-2.678-6.002-2.678ZM481.617 392s-3.32 3.95-3.599 7.378c-.278 3.427 2.693 6.622 2.693 6.622s-.146-2.198.365-3.646c.512-1.447 1.599-2.993 1.599-2.993s.463-1.764.284-3.18c-.25-1.977-1.342-4.181-1.342-4.181ZM487.191 397s-3.86 3.502-4.88 7.252c-1.021 3.75.798 7.748.798 7.748s3.51-2.483 4.53-6.232c1.021-3.75-.449-8.768-.449-8.768ZM495.978 420.001s1.474 3.349 1.848 6.151c.375 2.8.028 3.77.028 3.77s-1.525 1.631-2.208 2.59c-.879 1.232-1.008 3.488-1.008 3.488s-3.061-4.952-2.589-8.572c.472-3.62 3.929-7.428 3.929-7.428ZM503 428.001s-4.265 2.925-5.957 5.926c-1.694 2.999-.815 6.073-.815 6.073s3.038-.278 4.732-3.278c1.693-3 2.039-8.722 2.039-8.722ZM475.001 440.012s6.135-.168 9.884.755c3.75.922 5.115 2.934 5.115 2.934s-4.216 1.976-7.966 1.054c-3.75-.922-7.034-4.744-7.034-4.744ZM474 433.007s2.77 4.165 6.351 5.676c4.935 2.082 10.649 1.073 10.649 1.073s-3.104-3.69-7.376-5.319c-4.272-1.628-9.624-1.429-9.624-1.429Z"/><path d="m685.874 347.248.803 1.716s-1.304.451-1.895 1.619c-.589 1.168.386 2.818.386 2.818s-6.775-.596-7.832.098c-.958.626.405 5.361-.225 9.361-.879 5.574-3.057 5.105-3.146 6.185-.087 1.05.834 2.689.834 2.689s-1.27.403-1.541.939c-.436.862.304 2.452-.224 3.498-2.947 5.835-7.299 14.448-10.176 20.147-.402.795-1.481 1.099-2.022 2.17-.5.988-.096 2.429-.096 2.429s-1.907.115-2.569 1.426c-.703 1.391-.289 3.271-.289 3.271s-1.206.155-1.798 1.328c-.633 1.253.439 1.91.162 2.461-3.868 7.657-8.423 16.684-11.203 22.188-1.023 2.024-4.601 2.43-6.678 6.543-2.015 3.99.867 6.931.867 6.931s-2.992.273-3.787 1.847c-.811 1.604-.17 4.039 1.99 5.149 2.159 1.11 4.519.212 5.329-1.392.795-1.574-.803-4.179-.803-4.179s4.053.589 6.067-3.401c2.077-4.113.326-7.239 1.348-9.263l11.203-22.188c.279-.551 1.422-.074 2.054-1.327.592-1.173 0-2.235 0-2.235s1.77-.778 2.473-2.171c.662-1.31-.353-2.947-.353-2.947s1.393-.501 1.893-1.489c.541-1.071.143-2.12.545-2.916l10.176-20.146c.529-1.047 2.229-1.405 2.664-2.268.271-.536-.16-1.814-.16-1.814s1.874-.187 2.664-.875c.814-.707-.838-2.224 3.114-6.219 2.836-2.864 7.41-4.55 7.35-5.7-.065-1.272-4.525-6.446-4.525-6.446s1.881-.16 2.471-1.327c.59-1.168.193-2.527.193-2.527l1.861-.324L693 342ZM624.34 471.304a2.23 2.23 0 0 0 0 1.974s-2.247-.708-3.017-.324c-.726.363 0 11.046 0 11.046s8.963-5.706 8.826-6.51c-.144-.856-2.022-2.3-2.022-2.3a2.148 2.148 0 0 0 1.573-1.133c.295-.586.335-2.258-1.701-3.305-.763-.392-1.442-.509-1.991-.453-.912.093-1.483.639-1.668 1.005Z"/><path fill="#F5D402" d="m687 347.893 5 2.107-.075-5ZM686.18 351.01c-.457.956-.013 2.18.997 2.728 1.012.547 2.185.209 2.643-.746.457-.956.013-2.179-.998-2.728a2.102 2.102 0 0 0-1.159-.259 1.764 1.764 0 0 0-1.483 1.005ZM678.746 355.099c-.43.288.155 4.099.031 7.341-.118 3.057-1.062 3.918-1.579 4.969-.478.97-2.198 2.116-2.198 2.116l1.424 1.475s.926-1.494 2.383-4.458c1.72-3.493 1.664-9.824 2.169-10.162.438-.293 4.024-1.218 4.024-1.218s-3.291-.184-5.108-.16c-.607.008-1.046.03-1.146.097Z"/><path fill="#F5D402" d="M679.128 373s.496-1.384 2.226-4.793c2.085-4.11 6.537-7.092 6.641-7.836.108-.767-1.547-4.371-1.547-4.371s-3.928.756-4.483 1.296c-.537.52-.3 5.861-2.386 9.973-1.729 3.408-2.579 4.663-2.579 4.663Z"/><path fill="#F5D402" d="M688.689 360.145c.031.625-4.913 4.339-6.625 7.868-1.45 2.992-2.064 4.663-2.064 4.663l1.972.324s-.136-2.13.339-3.109c.514-1.061.649-2.36 2.958-4.274 2.448-2.029 5.758-3.804 5.731-4.339-.025-.495-3.698-5.278-3.698-5.278s1.358 3.6 1.387 4.145ZM673.514 383.231c2.987-6.101 3.9-6.517 4.275-7.286.405-.826.308-1.938-1.022-2.644-.498-.264-.926-.332-1.3-.289-.626.07-1.08.483-1.332.998-.377.77-.173 1.798-3.161 7.9l-6.784 13.83s-.711 1.358.619 2.063c1.331.705 1.921-.709 1.921-.709ZM661.119 399.555c-.418.643.298 1.586 1.612 2.11 1.313.522 2.735.423 3.153-.219.418-.642-.333-1.586-1.647-2.11-.656-.262-1.324-.368-1.892-.328-.567.039-1.016.227-1.226.547ZM658.162 402.98c-.535 1.097.3 2.672 1.869 3.509 1.57.835 3.272.625 3.807-.471.536-1.098-.3-2.671-1.869-3.508-.589-.312-1.172-.478-1.731-.506-.929-.046-1.741.29-2.076.976ZM657.119 407.556c-.418.642.299 1.585 1.611 2.108 1.312.524 2.732.423 3.151-.218.418-.642-.299-1.586-1.61-2.109-.657-.262-1.359-.368-1.926-.329-.567.039-1.016.227-1.226.548ZM656.172 411.874s-7.754 15.261-10.49 20.632c-.875 1.715-4.555 2.784-5.996 5.613-1.452 2.845-.427 5.509 1.466 6.473 1.893.965 4.674.263 6.124-2.583 1.441-2.828.146-6.449 1.02-8.164 2.736-5.372 10.492-20.632 10.492-20.632s.764-1.343-.606-2.04a1.482 1.482 0 0 0-.893-.16c-.755.097-1.117.861-1.117.861ZM636.227 447.171c-.628 1.162.09 2.711 1.62 3.445 1.53.735 3.303.382 3.931-.78.628-1.162-.125-2.711-1.655-3.445a3.744 3.744 0 0 0-1.724-.39c-.942.025-1.78.444-2.172 1.17ZM626.037 471.002c-.445.016-.813.163-.962.468-.299.61.319 1.575 1.38 2.138s2.17.511 2.47-.1c.299-.612-.32-1.576-1.379-2.138a3.02 3.02 0 0 0-1.509-.368ZM622 474.018V482l6-4.667s-.814-1.556-2.594-2.537c-1.781-.981-3.406-.779-3.406-.779ZM625.546 304.312c0-4.186 5.454-8.312 5.454-8.312H498s5.454 4.125 5.454 8.312v99.808c0 2.63.805 4.342 2.085 6.015 1.279 1.803 4.004 4.293 6.832 6.145 8.735 5.72 23.34 11.75 34.39 16.818 9.207 4.223 12.953 5.927 17.739 11.902 4.787-5.975 8.564-7.678 17.772-11.902 11.048-5.067 25.653-11.098 34.389-16.818 2.829-1.852 5.554-4.342 6.833-6.145 1.279-1.673 2.052-3.385 2.052-6.015Z"/><path fill="#D10429" d="M506.604 361.155v-56.968c0-3.224-1.604-5.187-1.604-5.187h119s-1.604 1.964-1.604 5.187l.034 56.968L564.517 379Z"/><path fill="#0B45BB" d="M623 360.682 586.776 360h-44.552l-36.224.682v43.525c0 2.188 2.265 7.312 15.326 13.836 21.589 10.785 38.183 15.82 43.157 21.957 4.974-6.137 21.568-11.173 43.158-21.957 13.06-6.524 15.325-11.648 15.325-13.836Z"/><path d="M586.003 358.699S607 353.445 607 331.174c0-17.394-21.051-26.023-21.649-30.174-2.058 7.182 7.032 17.102 7.032 28.849 0 15.2-11.297 15.928-11.297 15.928-2.643 0-3.714 1.873-4.753 1.873-2.224-.23-3.271-3.037-5.47-3.037-2.065 0-3.65 3.166-6.38 3.166s-4.283-3.166-6.349-3.166c-2.197 0-3.245 2.807-5.468 3.037-1.04 0-2.111-1.873-4.755-1.873 0 0-11.296-.728-11.296-15.928 0-11.747 9.091-21.668 7.032-28.849-.596 4.151-21.647 12.779-21.647 30.174 0 22.271 20.998 27.525 20.998 27.525l-5.991 10.823s8.677.431 13.283 4.329c5.553 4.7 5.013 14.659 5.013 21.904 0 5.708-.727 11.732-3.678 14.214-3.964 3.335-6.643 3.582-6.643 7.496 0 3.265 2.529 3.92 6.643 6.074 5.269 2.76 5.024 6.461 12.858 6.461 7.835 0 7.621-3.701 12.892-6.461 4.113-2.154 6.641-2.809 6.641-6.074 0-3.914-2.679-4.161-6.641-7.496-2.951-2.484-3.678-8.507-3.678-14.214 0-7.245-.54-17.204 5.013-21.904 4.606-3.898 13.282-4.329 13.282-4.329Z"/><path d="m564.984 303-3.604 10.233-9.814-4.666 4.665 9.814L546 322.016l10.231 3.636-4.665 9.782 9.814-4.666L564.984 341l3.636-10.232 9.813 4.666-4.664-9.782L584 322.016l-10.231-3.635 4.664-9.814-9.813 4.666L564.984 303ZM542 360.528s-12.823-3.155-17.613-9.528C516.013 358.581 506 361.208 506 361.208s10.446 4.747 18.387 10.792c3.659-5.277 17.613-11.472 17.613-11.472ZM587 360.528s13.955 6.195 17.615 11.472c7.94-6.045 18.385-10.792 18.385-10.792S612.988 358.58 604.615 351c-4.79 6.372-17.615 9.528-17.615 9.528ZM548 374l-5 5 5 5 5-5-5-5ZM581 374l-5 5 5 5 5-5-5-5ZM546.425 403.301c0 6.352-.626 9.699-.626 9.699s7.198-2.087 8.632-9.277c.671-3.371 1.42-15.789-2.043-17.906L543 384c1.014 2.471 3.425 10.124 3.425 19.301ZM576.612 385.817c-3.463 2.116-2.714 14.534-2.043 17.906 1.433 7.19 8.631 9.277 8.631 9.277s-.626-3.347-.626-9.699c0-9.177 2.411-16.831 3.426-19.301ZM524.498 386.163c-3.161.779-5.072 3.943-4.278 7.05.121.475.321.914.547 1.328a5.901 5.901 0 0 0-1.448-.285 5.93 5.93 0 0 0-.611 0c-2.992.099-5.486 2.41-5.694 5.407-.223 3.195 2.249 5.946 5.502 6.165.485.032.957.015 1.414-.064-.279.377-.521.78-.707 1.233-1.217 2.972.257 6.392 3.282 7.588 3.024 1.195 6.471-.284 7.688-3.256.186-.454.289-.897.354-1.36a5.8 5.8 0 0 0 .997 1.043c2.5 2.055 6.241 1.73 8.332-.727a5.714 5.714 0 0 0-.74-8.156 5.93 5.93 0 0 0-1.223-.759 5.891 5.891 0 0 0 1.319-.6c2.762-1.701 3.598-5.317 1.866-8.031-1.191-1.865-3.282-2.825-5.373-2.687a6.022 6.022 0 0 0-2.767.886c-.421.26-.796.548-1.125.885a5.69 5.69 0 0 0-.161-1.422c-.694-2.72-3.237-4.512-5.983-4.396a6.102 6.102 0 0 0-1.191.158ZM588.068 403.23c.626 6.148 5.424 11.298 11.347 12.77-1.011-1.723-1.684-3.644-1.891-5.679-.742-7.291 4.672-13.198 12.072-13.198 1.167 0 2.296.15 3.404.428-2.609-4.455-7.521-7.551-12.861-7.551-7.399 0-12.814 5.94-12.071 13.23Z"/><path fill="#FFD200" d="M534.195 329.59c0 11.459 6.021 18.219 14.06 18.219 1.534 0 3.211 2.104 4.656 2.104 2.355 0 3.922-2.654 5.357-2.654 1.823 0 3.051 2.912 6.216 2.912 3.166 0 4.427-2.912 6.25-2.912 1.433 0 3 2.654 5.356 2.654 1.445 0 3.121-2.104 4.655-2.104 8.04 0 14.061-6.76 14.061-18.219 0-9.346-7.732-20.742-6.887-22.59 0 0 15.081 10.98 15.081 23.916 0 20.838-20.82 25.987-20.82 25.987l4.687 10.711s-6.454.983-10.394 4.208c-5.256 4.302-5.325 15.925-5.325 23.786 0 9.26.339 13.183 3.635 15.695 3.475 2.651 6.089 3.222 6.089 5.923 0 2.354-2.706 3.316-6.217 4.887-3.994 1.787-4.392 4.887-10.171 4.887-5.779 0-6.145-3.1-10.139-4.887-3.511-1.571-6.217-2.533-6.217-4.887 0-2.701 2.614-3.272 6.089-5.923 3.296-2.512 3.635-6.435 3.635-15.695 0-7.861-.069-19.484-5.325-23.786-3.941-3.226-10.394-4.208-10.394-4.208l4.686-10.711S526 351.754 526 330.916C526 317.98 541.081 307 541.081 307c.846 1.848-6.886 13.244-6.886 22.59Zm22.414 86.053c-4.091 0-6.696.876-6.696 2.136 0 1.26 2.606 2.104 6.696 2.104 1.089 0 2.327-.645 2.327-2.104 0-1.46-1.238-2.136-2.327-2.136Zm15.781 0c-1.09 0-2.327.677-2.327 2.136-.001 1.459 1.237 2.104 2.327 2.104 4.091 0 6.696-.843 6.696-2.104 0-1.261-2.606-2.136-6.696-2.136Z"/><path fill="#FFD200" d="m564.516 309 2.391 6.741 6.44-3.088-3.054 6.473 6.707 2.392-6.707 2.39 3.054 6.44-6.44-3.054-2.424 6.706-2.39-6.706-6.441 3.054 3.055-6.44-6.707-2.39 6.707-2.392-3.055-6.473 6.441 3.088 2.423-6.741ZM536 360.768l-11.211 8.07-.135.162-.235-.195L512 361.256s7.925-2.649 12.587-7.256c4.412 4.896 11.413 6.768 11.413 6.768ZM617 361.256s-7.923 3.991-11.903 7.549l-.225.195-.128-.162c-3.761-4.367-10.744-8.07-10.744-8.07s6.709-1.872 10.937-6.768c4.468 4.607 12.063 7.256 12.063 7.256ZM547.515 376l2.485 2.981-2.485 3.019-2.515-3.019 2.515-2.981ZM581.484 376l2.516 2.981-2.516 3.019-2.484-3.019 2.484-2.981ZM551.339 388.023c1.975 2.496 1.64 6.532 1.64 12.147 0 5.661-4.641 7.83-4.641 7.83 0-13.607-1.532-16.879-2.338-21ZM583 387c-.808 4.122-2.337 7.393-2.337 21 0 0-4.641-2.169-4.641-7.83 0-5.615-.336-9.65 1.639-12.147L583 387ZM530.882 391.472a4.53 4.53 0 0 1 .094 1.51 4.38 4.38 0 0 1-.283 1.155 6.412 6.412 0 0 0-2.242-.386c-1.949 0-3.693.872-4.895 2.249a4.575 4.575 0 0 1-.82-.963 4.533 4.533 0 0 1-.6-1.349c-.606-2.454.87-4.94 3.284-5.556a4.46 4.46 0 0 1 .915-.128c2.093-.091 4.017 1.321 4.547 3.468ZM537.781 400.46c-.449.281-.925.45-1.412.56a4.336 4.336 0 0 1-1.193.083 6.673 6.673 0 0 0-.339-2.297 6.665 6.665 0 0 0-3.693-4.056c.172-.394.385-.758.662-1.096a4.502 4.502 0 0 1 1.098-1.001c2.153-1.35 4.993-.688 6.343 1.465.169.268.305.563.411.85a4.59 4.59 0 0 1-1.877 5.492ZM531.721 409.654a4.477 4.477 0 0 1-.969-1.17 4.31 4.31 0 0 1-.448-1.109 6.645 6.645 0 0 0 2.08-1.032 6.665 6.665 0 0 0 2.717-4.765c.427.041.839.131 1.246.29a4.5 4.5 0 0 1 1.292.736c1.949 1.63 2.197 4.536.566 6.484a4.515 4.515 0 0 1-.681.654 4.591 4.591 0 0 1-5.803-.088ZM521.107 406.734c.198-.491.483-.908.813-1.283.273-.311.581-.549.916-.769a6.662 6.662 0 0 0 1.625 1.66 6.668 6.668 0 0 0 5.371 1.111c.093.419.134.838.109 1.275a4.51 4.51 0 0 1-.3 1.456c-.948 2.358-3.635 3.491-5.993 2.542a4.597 4.597 0 0 1-.832-.445 4.59 4.59 0 0 1-1.709-5.547ZM520.601 395.737a4.442 4.442 0 0 1 2.485 1.011 6.672 6.672 0 0 0-1.076 2.058 6.665 6.665 0 0 0 .603 5.451c-.37.218-.756.387-1.179.498-.47.125-.965.2-1.477.164-2.535-.173-4.444-2.378-4.27-4.913.021-.317.084-.635.167-.929a4.59 4.59 0 0 1 4.747-3.34ZM533 400.5a4.5 4.5 0 1 1-9 0 4.5 4.5 0 0 1 9 0ZM607 394.879c-7.67 1.387-13.19 7.722-12.387 15.121-2.445-1.893-4.233-4.443-4.553-7.263-.622-5.491 3.643-9.737 10.077-9.737 2.46 0 4.823.704 6.863 1.879Z"/></g></svg>