<svg xmlns="http://www.w3.org/2000/svg" width="1136" height="568" overflow="hidden"><defs><clipPath id="a"><path d="M-1 94h1136v568H-1z"/></clipPath></defs><g fill-rule="evenodd" clip-path="url(#a)" transform="translate(1 -94)"><path fill="#D82126" d="M0 94h1134v567H0Z"/><path fill="#F8E92E" d="M0 434.2V320.8l1134 113.4V320.8ZM510.3 94h113.4L567 316.75Zm113.4 567H510.3L567 438.25ZM0 94h170.1l448.983 314.766Zm0 567h170.1l448.983-314.766ZM1134 94H963.9L514.917 408.766Zm0 567H963.9L514.917 346.234Z"/><path fill="#D82126" d="M668 378c0 55.781-45.219 101-101 101s-101-45.219-101-101 45.219-101 101-101 101 45.219 101 101Z"/><path fill="#F8E92E" d="M648 378c0 44.735-36.265 81-81 81s-81-36.265-81-81 36.265-81 81-81 81 36.265 81 81Z"/></g></svg>