<svg xmlns="http://www.w3.org/2000/svg" width="1136" height="758" overflow="hidden"><defs><clipPath id="a"><path d="M-1-1h1136v758H-1z"/></clipPath></defs><g clip-path="url(#a)" transform="translate(1 1)"><path fill="#CF142B" fill-rule="evenodd" d="M567 0h567v756H567Z"/><path fill="#FFF" fill-rule="evenodd" d="M0 0h567v756H0Z"/><path fill="#E60D2E" fill-rule="evenodd" d="M28 104.362v57.276h57.273c0 9.543 9.547 19.09 19.092 19.09V238h57.27v-57.272c9.546 0 19.092-9.546 19.092-19.09H238v-57.276h-57.273c0-9.543-9.547-19.09-19.092-19.09V28h-57.27v57.272c-9.546 0-19.091 9.546-19.091 19.09H28Z"/><path fill="#96877D" fill-rule="evenodd" d="M32 108.225v49.551h57.169c0 9.526 9.529 19.055 19.058 19.055V234h49.546v-57.169c9.53 0 19.058-9.529 19.058-19.055H234v-49.551h-57.169c0-9.526-9.529-19.056-19.058-19.056V32h-49.546v57.17c-9.53 0-19.058 9.529-19.058 19.055H32Z"/><path fill="#CCC" fill-rule="evenodd" d="M34 110.152v45.693h57.114c0 9.517 9.52 19.04 19.04 19.04V232h45.692v-57.115c9.52 0 19.04-9.523 19.04-19.04H232v-45.693h-57.114c0-9.517-9.52-19.037-19.04-19.037V34h-45.692v57.115c-9.52 0-19.04 9.52-19.04 19.037H34Z"/><path fill="#96877D" fill-rule="evenodd" d="M106.9 90.1c3.479 3.48 2.539 10.06-2.1 14.7-4.639 4.639-11.22 5.579-14.7 2.1-3.479-3.479-2.538-10.06 2.1-14.7 4.64-4.638 11.221-5.579 14.7-2.1Z"/><path fill="#D0D0D0" fill-rule="evenodd" d="m90 100.503 1.25-1.377 5 2.75-2.5-5.5L95 95l5 11-10-5.5ZM98 92.286 99.286 91 107 98.714 105.714 100Z"/><path fill="#96877D" fill-rule="evenodd" d="M175.9 106.906c-3.48 3.479-10.06 2.539-14.7-2.1-4.639-4.639-5.579-11.22-2.1-14.7 3.479-3.479 10.06-2.538 14.7 2.1 4.638 4.64 5.579 11.221 2.1 14.7Z"/><path fill="#D0D0D0" fill-rule="evenodd" d="m165.498 90.006 1.376 1.25-2.749 5 5.499-2.5 1.376 1.25-11 5 5.5-10ZM173.714 98.005l1.285 1.286-7.714 7.715-1.286-1.286Z"/><path fill="#96877D" fill-rule="evenodd" d="M159.094 175.894c-3.479-3.48-2.539-10.06 2.1-14.7 4.639-4.639 11.221-5.579 14.699-2.1 3.48 3.479 2.54 10.06-2.1 14.7-4.638 4.638-11.22 5.579-14.699 2.1Z"/><path fill="#D0D0D0" fill-rule="evenodd" d="m175.994 165.492-1.25 1.376-5-2.749 2.5 5.499-1.25 1.376-5-11 10 5.5ZM167.995 173.708l-1.286 1.286-7.714-7.714 1.286-1.286Z"/><path fill="#96877D" fill-rule="evenodd" d="M90.106 159.1c3.48-3.479 10.06-2.539 14.7 2.1 4.639 4.639 5.579 11.221 2.1 14.699-3.479 3.48-10.06 2.54-14.7-2.1-4.638-4.639-5.579-11.22-2.1-14.699Z"/><path fill="#D0D0D0" fill-rule="evenodd" d="m100.508 176-1.376-1.25 2.75-5.001-5.5 2.501-1.376-1.25 11-5-5.5 10ZM92.291 168.001l-1.286-1.286L98.72 159l1.285 1.286Z"/><path fill="none" stroke="#96877D" stroke-miterlimit="8" stroke-width="0.647034" d="M173.5 133.5c0 22.091-17.909 40-40 40s-40-17.909-40-40 17.909-40 40-40 40 17.909 40 40Z"/><path fill="none" stroke="#96877D" stroke-miterlimit="8" stroke-width="0.647034" d="M164.5 133.5c0 17.121-13.879 31-31 31-17.121 0-31-13.879-31-31 0-17.121 13.879-31 31-31 17.121 0 31 13.879 31 31Z"/><path fill-rule="evenodd" d="M120 165.5c0 .828-.895 1.5-2 1.5s-2-.672-2-1.5.895-1.5 2-1.5 2 .672 2 1.5ZM150 165.5c0 .828-.895 1.5-2 1.5s-2-.672-2-1.5.895-1.5 2-1.5 2 .672 2 1.5ZM131.667 165.462v1.964H129c-2.667 0-2.667 1.965 0 1.965h2.667v1.964c.009 2.036 2.327 2.283 2.497.171l.169-2.124H137c2.667 0 2.667-1.964 0-1.964h-2.667v-1.965c0-1.964-2.666-1.964-2.666 0ZM95.706 143.258l2.64-.636-.292-1.236c-.067-.283-.178-.476-.333-.578-.155-.102-.42-.13-.797-.085l-.044-.186 2.273-.547.044.185c-.26.066-.444.147-.55.241a.668.668 0 0 0-.212.336c-.033.13-.024.309.03.535l.291 1.236 2.11-.508c.34-.082.559-.158.658-.227a.46.46 0 0 0 .163-.262.977.977 0 0 0 .01-.489l-.058-.245.184-.044.687 2.912-.184.045-.056-.241c-.066-.28-.195-.464-.387-.552-.124-.054-.388-.033-.791.064l-4.337 1.045c-.34.082-.56.158-.658.227a.464.464 0 0 0-.165.257.966.966 0 0 0-.01.489l.056.24-.183.044-1.19-5.049 1.46-.42.04.175c-.292.162-.499.318-.618.469-.12.15-.193.318-.22.502-.026.185.003.454.086.807l.353 1.496Zm-1.7-12.035c.05-.904.434-1.668 1.15-2.291.716-.624 1.583-.907 2.6-.849 1.046.059 1.897.442 2.551 1.149.654.708.954 1.535.901 2.484-.053.958-.435 1.745-1.146 2.359-.71.613-1.601.89-2.672.829-1.094-.062-1.966-.49-2.615-1.283-.563-.688-.82-1.487-.769-2.398Zm.366.119c-.035.623.166 1.136.602 1.539.543.501 1.364.783 2.462.846 1.124.064 2.003-.13 2.637-.582.482-.347.74-.827.774-1.44a2.036 2.036 0 0 0-.667-1.663c-.481-.455-1.266-.714-2.353-.775-1.18-.068-2.072.117-2.677.553-.482.35-.741.858-.778 1.522Zm9.999-12.738-.656 1.74-3.847 1.047c-.056.166-.102.3-.141.403a4.074 4.074 0 0 1-.117.279l1.875.722c.406.156.675.208.807.156.185-.068.324-.224.416-.468l.096-.254.176.067-1.053 2.794-.176-.068.093-.245c.104-.276.089-.507-.044-.694-.073-.105-.293-.229-.661-.37l-4.167-1.603c-.406-.157-.675-.209-.807-.157-.187.071-.327.231-.42.477l-.092.245-.176-.067.894-2.375c.261-.692.503-1.184.727-1.474.224-.29.513-.498.867-.624a1.52 1.52 0 0 1 1.088.025c.396.153.691.416.885.789.193.374.247.858.161 1.452l2.358-.634c.54-.145.922-.3 1.145-.468.223-.167.421-.422.593-.763l.176.068Zm-5.06 3.354a5.712 5.712 0 0 1 .106-.267c.234-.622.278-1.142.13-1.56a1.375 1.375 0 0 0-.84-.865c-.402-.155-.778-.154-1.126.004-.348.158-.601.447-.76.866-.07.186-.134.449-.193.79l2.683 1.032Zm14.687-23.108 1.334 1.75-.149.098c-.446-.362-.864-.581-1.252-.658-.561-.111-1.112.011-1.653.365-.738.483-1.11 1.145-1.116 1.987-.003.708.217 1.407.657 2.095.358.558.792.998 1.3 1.318.509.321 1.005.475 1.489.463a2.38 2.38 0 0 0 1.272-.376c.214-.14.403-.302.567-.487.164-.186.305-.392.422-.62l-1.085-1.692c-.188-.294-.333-.472-.436-.533a.527.527 0 0 0-.338-.073c-.123.013-.301.096-.534.249l-.106-.164 2.243-1.469.106.164-.107.07c-.222.146-.327.32-.313.524.011.144.117.373.318.686l1.149 1.792a5.273 5.273 0 0 1-.718 1.028 5.087 5.087 0 0 1-.984.821c-1.12.733-2.202.927-3.248.582a3.428 3.428 0 0 1-1.86-1.455 3.783 3.783 0 0 1-.582-1.721 3.818 3.818 0 0 1 .366-2.079c.264-.528.685-.981 1.263-1.36.211-.138.414-.246.608-.324.195-.078.488-.162.88-.25.198-.045.324-.084.378-.12.054-.035.084-.09.091-.166.006-.076-.034-.19-.12-.342l.158-.103Zm11.24.786-2.583.694-.172 1.186c-.043.292-.047.502-.013.631.027.103.099.18.216.232.117.052.34.047.667-.017l.049.184-2.101.565-.048-.184c.265-.125.429-.238.49-.339.125-.204.225-.577.301-1.119l.886-6.179.172-.046 3.798 4.984c.305.4.552.647.74.74.188.093.42.112.696.055l.049.184-2.632.707-.048-.184c.262-.084.43-.177.503-.279a.361.361 0 0 0 .067-.316c-.038-.145-.165-.358-.379-.638l-.658-.86Zm-.235-.33-1.848-2.421-.444 3.036 2.292-.616Zm12.186-.037.167.043-.663 1.868-5.341-.21.008-.19.259.01c.292.012.504-.076.637-.263.075-.107.121-.359.136-.757l.173-4.497c.017-.435-.02-.71-.111-.823-.126-.156-.32-.24-.581-.25l-.259-.01.007-.19 3.123.123-.007.19c-.366-.018-.625.006-.775.072a.628.628 0 0 0-.313.261c-.059.108-.096.369-.112.783l-.168 4.38c-.012.284.009.481.059.589a.36.36 0 0 0 .182.167c.083.037.347.065.791.082l.504.02c.529.021.902-.004 1.118-.074.217-.071.417-.203.601-.396.184-.194.373-.503.566-.928Zm9.193 2.486.148.087-1.149 1.611-5.074-1.696.059-.181.246.082c.277.093.505.068.684-.074.102-.082.215-.312.338-.689l1.398-4.274c.136-.413.175-.687.119-.822-.079-.185-.242-.319-.49-.402l-.246-.082.059-.181 2.967.992-.059.18c-.347-.12-.602-.168-.764-.147a.617.617 0 0 0-.372.163c-.086.087-.193.328-.322.721l-1.362 4.162c-.088.27-.123.464-.105.582.016.082.06.152.13.212.069.059.315.159.737.3l.479.16c.503.168.868.249 1.095.242.227-.007.456-.078.686-.213.23-.134.496-.378.798-.733Zm7.408 3.965-2.182-1.561-1.011.626c-.249.153-.412.285-.488.394-.061.087-.074.192-.038.316.036.125.182.294.44.507l-.109.156-1.774-1.269.109-.155c.265.126.455.18.571.163.236-.034.583-.195 1.043-.483l5.264-3.269.146.104-1.357 6.139c-.108.494-.138.844-.089 1.049.05.206.185.398.405.576l-.109.155-2.223-1.59.109-.155c.232.149.41.22.534.212a.353.353 0 0 0 .283-.15c.087-.123.167-.358.243-.703l.233-1.062Zm.101-.394.656-2.985-2.592 1.6 1.936 1.385Zm8.186 1.524 1.115 1.521-1.646 6.541 3.198-2.395c.341-.255.525-.453.553-.594.04-.187-.021-.391-.183-.612l-.142-.194.151-.113 1.431 1.95-.152.114-.145-.199c-.174-.237-.368-.352-.583-.345-.131.005-.353.124-.663.357l-4.675 3.501-.109-.149 1.756-7.039-3.415 2.557c-.34.256-.526.452-.556.59-.037.19.024.394.183.612l.146.198-.152.114-1.43-1.951.151-.113.142.194c.176.24.372.356.586.349.132-.005.353-.123.664-.356l3.856-2.889c.069-.304.102-.52.101-.649a1.664 1.664 0 0 0-.104-.495 1.61 1.61 0 0 0-.23-.391l.152-.114Zm8.703 16.208-1.501.618-.064-.184c.256-.132.431-.249.525-.351.15-.167.24-.349.27-.547.03-.198-.003-.433-.098-.704l-.324-.927-4.972 1.778c-.4.143-.634.276-.703.399-.091.17-.092.384-.002.639l.079.228-.177.063-.976-2.788.177-.064.082.233c.097.278.249.446.456.503.128.034.374-.014.738-.144l4.972-1.778-.277-.79c-.107-.307-.206-.518-.296-.631a.946.946 0 0 0-.502-.306c-.214-.058-.473-.046-.775.037l-.064-.184 1.553-.469 1.879 5.369Zm-5.464 12.373-.096-1.86 3.102-2.527a11.599 11.599 0 0 1-.037-.57l-.001-.16-2.003.106c-.434.022-.7.084-.801.186-.142.138-.206.337-.193.597l.014.273-.188.01-.154-2.985.188-.01.014.262c.015.294.121.5.317.617.109.066.36.089.753.068l4.453-.234c.434-.022.701-.084.801-.186.142-.141.206-.344.193-.608l-.014-.262.188-.01.131 2.538c.038.74.013 1.288-.076 1.645a1.88 1.88 0 0 1-.544.924 1.53 1.53 0 0 1-1.005.422 1.6 1.6 0 0 1-1.125-.361c-.326-.263-.568-.684-.727-1.263l-1.904 1.543c-.437.352-.724.651-.861.895s-.216.557-.237.94l-.188.01Zm3.289-5.134c.004.065.005.122.006.17l.004.118c.034.665.202 1.158.504 1.481.302.322.673.472 1.114.448.43-.022.773-.177 1.029-.463.255-.287.371-.654.348-1.103a4.556 4.556 0 0 0-.138-.801l-2.867.15Zm1.892 14.35-.611 2.353-.182-.048.034-.13c.022-.086.017-.222-.016-.408a1.527 1.527 0 0 0-.207-.539c-.106-.173-.292-.402-.559-.685l-2.113-2.299-1.674-.444c-.41-.109-.678-.131-.804-.065-.171.09-.291.271-.362.543l-.057.219-.182-.049.744-2.866.182.048-.062.239c-.074.286-.041.511.099.675.086.101.316.201.69.3l1.58.419 3.278-1.109c.385-.132.628-.226.731-.282.102-.057.242-.192.421-.407a.699.699 0 0 0 .124-.276l.182.049-.749 2.886-.182-.048.039-.15a.915.915 0 0 0 .003-.459.365.365 0 0 0-.273-.283c-.119-.031-.358.014-.719.134l-2.518.838 1.715 1.869c.257.281.461.441.612.481a.45.45 0 0 0 .488-.168c.064-.078.12-.207.166-.386l.182.048Z"/><path fill="#96877D" fill-rule="evenodd" stroke="#000" stroke-miterlimit="8" stroke-width="0.255538" d="M155.5 139.561c.604-.122 1.602-.023 1.602-.023s.087.333-.175.444c.292.134 1.34.093 1.34.093s-.408.251-.612.351c.379.029.845.42.845.42s-.874.117-1.252-.047c.233.374.204.701.204.701s-1.413-.28-1.923-1.028M152.5 138.246c-.36.866-3-.746-3-.746s1.163 1.799 2.908 2M117.711 156.5h33.223l2.566-2.033-4.276-2.295-6.579-2.229-2.632-1.443-4.868.262-4.079 2.164-5.592.656-1.316 1.508-4.145.328-6.513-.131 10.855 1.705-8.947-.459 2.303 1.967Z"/><path fill="#96877D" fill-rule="evenodd" stroke="#000" stroke-miterlimit="8" stroke-width="0.255538" d="M135.431 146.848c-4.022-2.175-5.198 3.183-6.931 4.478 2.337.4 4.102-1.807 6.105-2.879 1.519 4.161 3.911 1.407 3.911 1.407s2.495 3.983 5.818 2.176c.906.687 1.908.064 1.908.064s1.208.223 1.462-.32c.636.224 1.336-.576 1.336-.576s1.383.016 1.653-.704c2.051.368 4.769-4.222 4.769-4.222l.827-1.6 1.208-.256s.08-.799-.572-.767c-.016-.48-.43-.736-1.018-.64.112-.288-.318-.512-.318-.512-1.144.288-1.208 3.199-1.208 3.199s-2.003 1.535-2.734 1.919c-.032-1.663-2.798-3.918-2.226-4.99.572-1.072 2.369 1.647 3.943 1.152 1.573-.496 2.347-2.556 2.416-4.159-.445-1.087-1.526-2.879-1.526-2.879l-1.018-.064-.89-2.175s-1.876 1.232-1.844 2.303c.032 1.072 1.971 1.983 1.971 1.983s-1.118.704-2.162.384c-.095 1.088 1.272.88 1.781.896.254.784 1.017 1.216 1.017 1.216s.477 1.199-.763 1.087c-1.24-.112-2.703-2.986-4.451-1.663-1.86 1.407.827 3.966.827 3.966s-1.638.864-2.608 3.071c-3.958-3.359-6.279-1.791-10.683-.896Z"/><path fill="#96877D" fill-rule="evenodd" stroke="#000" stroke-miterlimit="8" stroke-width="0.255538" d="M129.364 141.38c1.743 1.56.527 4.153 1.206 4.649.721.525 1.743-.255 1.743-.255 1.826.462 5.093-.51 5.093-.51 1.438.764.871-.363 1.743-.318.771 1.878 3.351 1.528 3.351 1.528s-2.362-2.292-3.82-2.929c-1.123.637-4.39.733-4.96.637-.634-.106-.234-.844-.536-1.273 1.202-1.111.252-3.869-.402-4.903-2.663-1.686-5.844 1.202-3.418 3.374ZM118.864 136.316c-2.212.591-6.05-2.825-7.844-1.513-1.793 1.312-.956 4.539.239 6.146 1.169 1.571-1.709 2.14-2.486 3.074-.731.878.239 1.891.239 1.891l.813.52-.144 1.182.431 1.418s.394.343.526-.094c.37.366.039 1.426.956 1.56-.328-.678.24-2.553.24-2.553s1.602.118 2.008-.567c.407-.686-.382-2.175-.382-2.175h.478c-.538-.367-.717-1.466-.717-1.466s2.223-.697 2.2-2.364c-.024-1.667-3.611-3.44-2.296-4.303 1.458-.957 3.993 2.483 6.17.899 2.153-1.568.765-.048.765-.048s.984-2.19-1.196-1.607ZM129.5 114.202c-2.86-1.121-8.702-1.19-11.962-2.702-1.43.084-2.068 1.144-2.125 1.566-1.495-.069-2.508 2.142-2.288 2.579-2.721-1.036-3.987 3.01-3.105 3.839-2.32.092-2.034 2.878-2.255 3.654-.744 1.696.166 2.267 1.634 1.658.221.737-.088 1.149-.752 1.289 4.028 4.331 6.305-2.664 9.838-2.64 4.412-1.214 6.145-3.255 6.145-3.255l1.732.215 3.138-6.203ZM137.5 110.5c0 2.209-2.015 4-4.5 4s-4.5-1.791-4.5-4 2.015-4 4.5-4 4.5 1.791 4.5 4Z"/><path fill="#96877D" fill-rule="evenodd" stroke="#000" stroke-miterlimit="8" stroke-width="0.255538" d="M125.768 143.48c-2.573-.475-6.834-3.197-7.268-6.756 2.396-9.594 14.755-4.584 15.821-11.8-.272-4.761.564-9.473 3.153-13.456 1.206-1.558 2.765-1.968 2.765-1.968s.28 1.016-.128 1.706c2.042-.23 4.84.934 6.753 1.049.563 1.165.515 1.591.386 2.296-.128.705-.9.525-.9.525-.499.483-1.099.974-2.444.722-1.013.787-3.152.984-3.152.984s4.47 4.805 3.731 6.297c.932.443 2.315 2.558 2.315 2.558s3.055-1.64 4.052-3.148c1.769 0 4.663 1.886 6.111 2.099a478.332 478.332 0 0 1 3.537 2.952s-2.106 1.41-3.023-.459c-1.109.098-3.505-2.608-6.818-1.772-.096 3.002-3.344 5.117-3.344 5.117s3.031-.433 4.695.59c1.72 1.477 4.245 3.477 4.245 3.477l2.251 3.936s-2.058.361-2.83-2.361c-.772 2.197-.804-1.362-3.859-3.018-.933.115-1.399.18-2.187-.459-2.203.607-4.808 1.919-7.911 1.574-2.203.705-3.811 2.575-6.046 3.608-2.235 1.033-2.895.525-2.895.525l-1.801.065c-.259 1.106-.112 2.788-1.093 3.084.627.688-.45 3.624-1.544 4.132.515 1.886 2.022 2.464 3.602 3.411 0 0 1.399-.655 2.316.197.916.853 1.865 3.28 1.865 3.28s-1.908.132-2.508-.131c-.601-.263-.66-.902-1.351-.722-4.358-3.952-6.656-2.38-7.075-3.279-.43-.923 1.029-3.33.579-4.855Z"/><path fill="#96877D" fill-rule="evenodd" stroke="#000" stroke-miterlimit="8" stroke-width="0.255538" d="M115.528 125.584c.214-.313 1.711.351 1.711.351l2.736 2.003 5.558 4.207 1.967 3.355-3.549-1.352-4.917-4.958-2.651-2.003s-1.068-1.29-.855-1.603ZM150.5 135.532c-2.02-.529-7 5.743-7 5.743l3.755 4.225s.111-7.196 3.245-9.968Z"/><path fill="#96877D" fill-rule="evenodd" stroke="#000" stroke-miterlimit="8" stroke-width="0.255538" d="M125.625 118.256c-1.103 1.448-1.201 4.366.233 5.542.135 1.772 1.605 5.344 2.76 5.679 1.262.367 6.305 1.566 8.279 1.24-.378 3.278 2.133 5.909 4.458 7.633-.017.294-.021.653.247 1.017.261.352 1.482.417 1.536.223.542.779 3.166 1.122 3.356.775.185-.338-3.86-3.222-4.757-4.103-.762-1.456-2.206-4.702-2.547-7.306-1.986-2.42-5.394-2.372-5.394-2.372l.108-4.74.191-5.349-1.847-.979s.372-.174.573-.391c.449.197 1.292-.726 1.401-.987.425.154.81.152.884-.08.066-.206.142-1.12.297-1.592 1.393-1.257-.204-3.922-2.334-3.965-2.108-.044-2.581 2.575-2.54 2.775.198.821.155 1.236 0 1.435-.159.203-.892.652-.892.652s-1.178-.571-2.611 0c-1.433.571-3.041 1.338-3.12 2.284-.653.097-1.72.962-1.911 1.696-.573-.114-1.321.375-2.547 2.414-2.197.995-2.325 5.806-2.325 5.806s-.593.885-.621 1.354c-.028.469.207.897.494.815.032.31.43.587.605.49.064.309.501.483.764.44.024.212.872.159.939-.033.075-.211-.083-1.269.016-1.353.092-.078.796.473.987.326.191-.147-.036-.617-.143-.799-.095-.164-.7-.343-.844-1.109-.143-.767.382-1.827.382-1.827s2.389-1.925 2.659-3.572c1.799.179 2.75-1.431 3.264-2.039Z"/><path fill="#96877D" fill-rule="evenodd" stroke="#000" stroke-miterlimit="8" stroke-width="0.255538" d="M121.5 111.835c.528-1.589 2.437-1.442 2.437-1.442s.683-2.211 3.254-.892c.968-.92 3.517.399 3.517.399s.954-1.565 2.206-1.386c2.317.332 2.703 2.946 2.56 3.397-1.269.394-3.466-1.268-5.136-.797-.976.678-2.557 1.395-3.147 2.372-1.546.199-3.196-1.751-5.691-1.651ZM126.531 114.091c.571-.363 1.97-1 2.92-.221.996 1.111 2.525 2.143 2.525 2.143l1.733.757.791.504-.517 8.226c-1.605-1.701-3.109-1.999-4.258-4.003-.616-.859-.145-2.923-1.217-4.286-1.072-1.363-2.212-2.285-1.977-3.12Z"/><path fill="#96877D" fill-rule="evenodd" stroke="#000" stroke-miterlimit="8" stroke-width="0.255538" d="M130.5 116.558s.939-.153 1.2.039c.328.096.644.178.733.423.356.091.6.25.6.48.334.077.467.596.467.596l-.311.404s-.356-.288-.4-.596c-.225-.096-.722-.197-.845-.481-.388-.033-.638-.206-.711-.499-.361.072-.733-.366-.733-.366ZM138.5 110.826c-.515-.621-1.424-.164-1.424-.164l-2.424 4.511-1.061.947-.091 3.53.879 3.301-.303 2.549s1.221-1.235 1.363-1.928c.137-.662-.454-2.811-.454-2.811s-.727-1.34.151-3.823c.879-2.484 2.879-4.543 3.364-6.112Z"/><path fill="#96877D" fill-rule="evenodd" stroke="#000" stroke-miterlimit="8" stroke-width="0.255538" d="M144.731 114.5s-3.959 6.227-10.44 8.442c-1.79.471-1.141-4.605-1.141-4.605l-.443.14s-.999 4.971 1.394 5.023c6.513-1.413 11.399-8.96 11.399-8.96l-.779-.038ZM147.861 148.292s-.608.468-1.407 0c-.415-1.002-1.534-1.068-1.534-1.068s-.721-2.163-1.854-1.536c-.176-1.119-1.406-.535-1.406-.535s-.032-1.619-1.47-1.402c.479-1.854-1.982-1.737-1.982-1.737s-.08-2.087-3.708-1.669c7.815-3.657 14 5.743 14 5.743M151.602 148.5s1.73 2.528 2.633 2.548c.903.019.979-2.468.979-2.468s.291 1.074.735.796c-.046.756.551.955.551.955s-1.561 4.717-6 .239M137.687 149.948l-.603 2.62s-.768.736-.542.895c.226.16 1.446-.255 1.446-.255s1.898-.24 2.47-.831a1.63 1.63 0 0 0 1.266 1.023s.06-.4-.061-.64c.422.08.784-.064.784-.064s.241-.735-.302-1.022c.061-.544.317-1.023-.602-.959-.678.767-2.35 1.646-2.772 1.342-.422-.304 1.657-1.278 1.085-2.557"/></g></svg>