<svg xmlns="http://www.w3.org/2000/svg" width="1136" height="682" overflow="hidden"><defs><linearGradient id="b" x1="597.36" x2="600.685" y1="372.286" y2="414.533" gradientUnits="userSpaceOnUse" spreadMethod="reflect"><stop offset="0" stop-color="#F5F549"/><stop offset="0.52" stop-color="#F5F549"/><stop offset="0.64" stop-color="#97C924"/><stop offset="1" stop-color="#97C924"/></linearGradient><linearGradient id="c" x1="582.347" x2="585.697" y1="372.129" y2="414.689" gradientUnits="userSpaceOnUse" spreadMethod="reflect"><stop offset="0" stop-color="#F5F549"/><stop offset="0.52" stop-color="#F5F549"/><stop offset="0.64" stop-color="#97C924"/><stop offset="1" stop-color="#97C924"/></linearGradient><linearGradient id="d" x1="565.347" x2="568.697" y1="372.129" y2="414.689" gradientUnits="userSpaceOnUse" spreadMethod="reflect"><stop offset="0" stop-color="#F5F549"/><stop offset="0.52" stop-color="#F5F549"/><stop offset="0.64" stop-color="#97C924"/><stop offset="1" stop-color="#97C924"/></linearGradient><linearGradient id="e" x1="547.844" x2="551.2" y1="372.09" y2="414.729" gradientUnits="userSpaceOnUse" spreadMethod="reflect"><stop offset="0" stop-color="#F5F549"/><stop offset="0.52" stop-color="#F5F549"/><stop offset="0.64" stop-color="#97C924"/><stop offset="1" stop-color="#97C924"/></linearGradient><linearGradient id="f" x1="532.862" x2="536.181" y1="372.325" y2="414.494" gradientUnits="userSpaceOnUse" spreadMethod="reflect"><stop offset="0" stop-color="#F5F549"/><stop offset="0.52" stop-color="#F5F549"/><stop offset="0.64" stop-color="#97C924"/><stop offset="1" stop-color="#97C924"/></linearGradient><clipPath id="a"><path d="M-1 37h1136v682H-1z"/></clipPath></defs><g clip-path="url(#a)" transform="translate(1 -37)"><path fill="#0067C6" fill-rule="evenodd" d="M0 38h1134v680H0Z"/><path fill="#FFF" fill-rule="evenodd" d="M0 265h1134v226H0Z"/><path fill="#C8A400" fill-rule="evenodd" d="m472.223 399.093 1.812 6.883 1.639-.431-1.812-6.883ZM661.28 399.107l-1.812 6.884-1.639-.432 1.812-6.883ZM553.376 467.325l-7.389 10.348 1.878.272 2.281-3.214.008.001 6.098.883 1.277 3.729 1.878.271-4.153-12.018-1.878-.272Zm.684 1.899 1.612 4.7-4.49-.65 2.878-4.05ZM640.769 429.259l9.838 5.755 5.162-7.182-1.398-.818-4.129 5.746-.106.147-.125-.073-8.315-4.864ZM496.029 435.009l-8.176 7.16 1.092 1.094 6.89-6.035-3.615 9.316 1.253 1.254 9.878-2.809-6.766 5.926 1.092 1.094 8.176-7.161-1.658-1.661-10.039 2.809 3.758-9.099ZM491.331 427.366l-12.632 1.454 1.057 1.575 3.914-.461.005.006 3.433 5.117-1.911 3.447 1.057 1.576 6.134-11.138-1.057-1.576Zm-.951 1.781-2.407 4.346-2.527-3.767 4.934-.579ZM508.021 446.458l-6.797 9.026 8.785 6.615.965-1.283-7.323-5.514-.149-.113.086-.114 1.896-2.519.086-.114.15.112 6.585 4.959.96-1.276-6.584-4.958-.15-.113.086-.114 1.661-2.206.084-.111.15.113 7.042 5.303.971-1.289ZM531.518 460.997l-3.657 10.365 1.344.635 3.656-10.365ZM541.916 464.71c-1.248-.414-2.448-.587-3.622-.514-1.169.074-2.166.417-2.993 1.034-.827.616-1.418 1.465-1.78 2.555a5.805 5.805 0 0 0-.177 3.049c.211 1.029.709 1.916 1.504 2.681.79.761 1.948 1.4 3.481 1.909 1.473.489 2.796.603 4 .351 1.155-.242 2.106-.83 2.862-1.765l-1.469-.811c-1.476 1.757-3.241 1.33-5.079.737-2.825-.972-4.327-2.957-3.506-5.619 1.014-2.895 3.789-2.955 6.261-2.186 1.725.571 3.201 1.319 3.416 3.019l1.619.245c-.09-1.019-.495-1.927-1.236-2.726-.779-.839-1.865-1.489-3.281-1.959ZM579.852 467.364c-1.291.25-2.422.686-3.41 1.325-.983.635-1.685 1.423-2.104 2.366-.419.942-.52 1.972-.303 3.099a5.81 5.81 0 0 0 1.339 2.745c.687.795 1.556 1.325 2.623 1.603 1.062.276 2.384.267 3.971-.039 1.523-.295 2.733-.842 3.659-1.652.889-.776 1.431-1.754 1.632-2.94l-1.678.012c-.427 2.255-2.175 2.746-4.068 3.128-2.939.535-5.22-.46-5.807-3.184-.533-3.021 1.857-4.431 4.39-4.971 1.783-.345 3.436-.415 4.456.962l1.532-.579c-.578-.845-1.374-1.438-2.412-1.772-1.09-.351-2.355-.386-3.82-.103ZM587.423 466.041l3.213 10.832 10.543-3.128-.457-1.539-8.788 2.608-.18.053-.04-.137-.897-3.023-.041-.137.179-.054 7.903-2.344-.455-1.531-7.902 2.344-.179.054-.041-.138-.786-2.647-.039-.133.18-.053 8.452-2.508-.459-1.547ZM599.803 461.836l4.651 10.162 1.387-.648-3.688-8.058-.191-.419.463.203 10.561 4.934 1.817-.849-4.652-10.163-1.391.65 3.687 8.054.188.411-.458-.2-10.562-4.925ZM611.789 456.378l.902 1.334 4.114-2.633.156-.1.078.115 5.352 7.908 1.398-.895-5.352-7.908-.078-.115.16-.102 4.134-2.646-.902-1.334ZM636.393 435.607l5.054 11.668 1.201-1.468-1.576-3.612.005-.006 3.901-4.77 3.853.829 1.202-1.468-12.439-2.641-1.201 1.468Zm1.98.394 4.857 1.043-2.872 3.511-1.985-4.554ZM518.946 454.999l-5.096 9.941 1.39.773.004.002 1.941-3.787.063-.123.155.086 3.765 2.093c.236.131.465.25.69.361.136.694.826 4.196 1.125 5.671l1.768.983-1.191-5.983c1.729.466 3.022.026 3.912-1.646l.033-.072c.018-.032.037-.063.054-.096.276-.54.354-1.125.239-1.759-.114-.634-.403-1.182-.879-1.67-.476-.487-1.286-1.057-2.423-1.689l-.387-.215-5.163-2.87Zm.668 2.192.155.086 3.755 2.087c1.525.848 3.125 1.999 2.41 3.394-.715 1.395-2.803.488-4.016-.177l-3.788-2.106-.155-.086.064-.127 1.512-2.949.063-.122ZM622.775 448.664l8.039 8.342 1.271-1.12.003-.003-3.062-3.178-.099-.103.141-.124 3.44-3.032c.216-.19.416-.377.608-.563.739.095 4.469.576 6.044.769l1.615-1.424-6.377-.807c1.089-1.556 1.118-2.982-.222-4.418l-.06-.056c-.025-.028-.05-.057-.077-.085-.436-.453-.989-.724-1.661-.821-.671-.097-1.321.007-1.977.316-.657.31-1.516.923-2.554 1.838l-.354.312-4.718 4.157Zm2.42.066.141-.125 3.432-3.024c1.393-1.227 3.116-2.429 4.244-1.258 1.128 1.17-.528 2.936-1.628 3.915l-3.461 3.051-.142.124-.102-.106-2.385-2.474-.099-.103ZM528.253 283.854l-1.183 12.661 1.76-.71.355-3.925.008-.003 5.715-2.304 2.978 2.581 1.76-.71-9.633-8.299-1.76.709Zm1.546 1.298 3.756 3.251-4.207 1.696.451-4.947ZM612.817 287.87l-4.637 10.218-1.363-.782 4.637-10.218ZM466.872 359.473l10.593 2.581 2.407-10.761-1.505-.367-2.007 8.971-.04.183-.135-.032-2.956-.721-.134-.032.041-.184 1.804-8.066-1.497-.365-1.804 8.066-.042.184-.133-.033-2.589-.631-.131-.032.041-.183 1.93-8.628-1.512-.369ZM470.868 345.2l10.469 3.864.531-1.623-3.989-1.472-.128-.048.059-.18 1.259-3.84c1.135-3.466.904-5.699-1.599-6.67a2.548 2.548 0 0 0-1.55-.085 2.925 2.925 0 0 0-1.358.777c-.388.385-.744.919-1.064 1.602-.231.48-.514 1.22-.838 2.208Zm2.023-1.072.059-.18 1.255-3.829c.582-1.775 1.447-3.679 2.916-3.137 1.469.542.919 2.931.465 4.341l-1.267 3.868-.059.18-.133-.049-3.107-1.147ZM476.862 331.663l5.567 3.435c1.033.638 1.94.956 2.708.973.766.017 1.508-.274 2.256-.882.74-.602 1.463-1.51 2.169-2.776l.016-.03c.7-1.269 1.096-2.379 1.231-3.355.136-.986.012-1.811-.378-2.507-.39-.698-1.098-1.376-2.131-2.014l-5.567-3.435-.831 1.498 5.433 3.353c2.439 1.505 2.176 3.312.885 5.622l-.016.029c-1.276 2.32-2.64 3.448-5.079 1.943l-5.432-3.353-.831 1.499ZM484.573 318.162l8.973 6.865 3.417-4.466c1.494-1.754 3.169-4.506.688-6.404-1.99-1.523-3.439-.117-3.439-.117s.443-1.253-.856-2.247c-.401-.307-1.122-.622-1.726-.602-.599.019-1.183.226-1.769.624-.583.395-1.229 1.042-1.926 1.953Zm2.276-.337.111-.145 2.308-3.017c.76-.992 1.909-2.413 3.068-1.537 1.159.876.089 2.352-.681 3.363l-2.309 3.017-.111.145-.114-.087-2.162-1.654Zm3.656 2.798.111-.146 2.308-3.016c1.598-2.089 2.662-2.727 3.686-1.943 1.024.783.656 2.016-.912 4.065l-2.308 3.017-.111.145-.114-.087-2.55-1.951ZM504.853 297.116l6.694 8.966 1.306-1.034-6.694-8.966ZM514.782 290.559c-1.116.695-2.016 1.508-2.709 2.458-.691.946-1.064 1.932-1.118 2.963-.053 1.03.221 2.027.828 3.002a5.816 5.816 0 0 0 2.233 2.083c.927.496 1.927.679 3.023.557 1.091-.122 2.322-.605 3.694-1.459 1.316-.821 2.25-1.765 2.825-2.853.551-1.043.707-2.151.47-3.33l-1.562.613c.409 2.258-1.047 3.343-2.678 4.378-2.552 1.552-5.039 1.44-6.562-.893-1.58-2.63.146-4.802 2.318-6.213 1.541-.962 3.059-1.62 4.505-.699l1.223-1.09c-.843-.581-1.799-.85-2.888-.79-1.143.063-2.336.484-3.602 1.273ZM552.817 277.437l.73 10.65 5.484-.313a15.01 15.01 0 0 0 2.47-.327c.707-.162 1.303-.372 1.783-.631a4.985 4.985 0 0 0 1.314-1.038c.393-.428.708-.966.939-1.611.23-.64.32-1.365.264-2.183-.066-.96-.328-1.802-.78-2.519-.452-.715-1.095-1.28-1.932-1.706-.636-.328-1.389-.534-2.274-.624h-.004c-.625-.064-1.55-.066-2.765.004l-5.229.298Zm1.8 1.416.193-.011 3.306-.188c1.249-.072 2.166-.053 2.779.073 1.944.538 3.045 1.914 3.142 3.334.098 1.42-.474 2.42-1.415 3.177-.358.282-.842.508-1.445.682-.612.176-1.444.214-2.485.35l-3.359.192-.194.011-.009-.131-.504-7.354ZM568.799 276.163l-.645 11.28 10.979.627.092-1.602-9.153-.523-.187-.011.009-.143.18-3.148.008-.143.187.011 8.229.47.091-1.594-8.229-.471-.187-.01.008-.143.158-2.757.007-.138.188.01 8.802.503.092-1.61ZM597.907 281.09l-4.107 10.721 1.461.574 3.255-8.5.169-.442.182.49 3.915 11.406 1.913.751 4.106-10.721-1.464-.575-3.254 8.496-.167.435-.179-.486-3.922-11.399ZM621.949 292.336c-1.098-.724-2.212-1.203-3.364-1.437-1.148-.233-2.2-.16-3.159.221-.959.381-1.751 1.047-2.383 2.005a5.81 5.81 0 0 0-.962 2.899c-.064 1.049.187 2.034.756 2.979.566.94 1.518 1.858 2.866 2.748 1.295.854 2.543 1.308 3.771 1.377 1.179.066 2.25-.255 3.223-.961l-1.209-1.165c-1.881 1.314-3.474.443-5.095-.607-2.476-1.671-3.411-3.978-1.927-6.336 1.731-2.533 4.426-1.871 6.614-.486 1.517.999 2.748 2.105 2.514 3.803l1.501.657c.177-1.008.022-1.99-.487-2.954-.534-1.012-1.414-1.922-2.659-2.743ZM632.786 300.547l-11.811 4.711 1.433 1.244 3.657-1.47.006.005 4.653 4.039-.942 3.827 1.433 1.244 3.003-12.356-1.432-1.244Zm-.452 1.968-1.184 4.824-3.426-2.973 4.61-1.851ZM654.537 326.399l-12.703.582.947 1.645 3.936-.192.004.007 3.074 5.341-2.143 3.307.946 1.644 6.885-10.69-.946-1.644Zm-1.071 1.711-2.7 4.17-2.263-3.931 4.963-.239ZM661.127 341.402c-.507-1.39-1.169-2.537-1.977-3.445-.805-.905-1.737-1.479-2.817-1.735-1.083-.257-2.126-.209-3.14.15a5.01 5.01 0 0 0-2.462 1.835c-.614.857-.928 1.91-.957 3.177-.029 1.27.202 2.588.702 3.96a11.633 11.633 0 0 0 2.389 3.922l-.85.301.545 1.493 1.598-.566 3.732-1.322-2.073-5.674-1.231.436 1.459 4.003.065.179-.132.047-1.617.573-.056.02-.064-.045c-1.24-1.068-1.976-2.509-2.505-3.935-.958-2.899-1.012-5.703 2.124-6.845 3.086-1.01 5.036 1.44 6.011 3.933.635 1.787.949 3.607-.407 4.908l.776 1.264c.552-.465.966-.973 1.209-1.538.259-.601.362-1.347.309-2.241-.053-.893-.262-1.843-.63-2.851l-.001-.004ZM664.639 350.055l-6.102 1.249c-1.132.232-1.981.61-2.547 1.113-.565.501-.926 1.208-1.1 2.149-.173.931-.148 2.071.105 3.459l.006.032c.259 1.386.642 2.453 1.134 3.248.496.803 1.083 1.317 1.785 1.559.704.242 1.625.257 2.758.025l6.101-1.25-.303-1.639-5.954 1.22c-2.673.547-3.573-.934-4.032-3.468l-.006-.032c-.477-2.53-.169-4.259 2.503-4.807l5.955-1.219-.303-1.639ZM668.48 369.425l-11.691-4.999.137 1.892 3.628 1.539.001.008.445 6.146-3.369 2.047.137 1.892 10.849-6.632-.137-1.893Zm-1.708 1.075-4.245 2.582-.328-4.524 4.573 1.942ZM494.857 306.162l7.541 7.913 6.459-6.05-1.072-1.125-5.166 4.84-.133.124-.095-.1-6.374-6.689ZM464.87 377.286l11.149.76.108-1.658.001-.004-4.247-.29-.137-.009.012-.185.293-4.49c.019-.281.029-.551.034-.813.569-.42 3.443-2.54 4.649-3.442l.138-2.109-4.903 3.635c-.312-1.856-1.259-2.915-3.148-3.075l-.079-.001c-.036-.004-.073-.009-.11-.011-.605-.042-1.167.127-1.692.501-.524.374-.897.88-1.136 1.54-.238.662-.409 1.677-.498 3.032l-.03.462-.403 6.157Zm1.697-1.554.012-.185.293-4.478c.119-1.819.481-3.836 2.046-3.729 1.564.107 1.63 2.491 1.543 3.933l-.295 4.518-.012.185-.142-.009-3.307-.226-.138-.009ZM641.004 308.078l-8.209 7.548.986 1.334.002.003 3.128-2.876.101-.093.11.149 2.67 3.609c.167.226.333.437.497.639-.126.733-.759 4.43-1.018 5.992l1.254 1.695 1.07-6.322c1.404 1.176 2.738 1.287 4.149.031l.055-.056c.028-.024.057-.046.084-.072.446-.409.727-.946.851-1.612a3.593 3.593 0 0 0-.199-1.992c-.258-.674-.789-1.567-1.595-2.656l-.275-.372-3.661-4.949Zm-.181 2.412.11.149 2.663 3.6c1.081 1.462 2.121 3.251.969 4.31-1.151 1.059-2.723-.696-3.586-1.85l-2.687-3.632-.11-.149.104-.096 2.436-2.239.101-.093Z"/><path fill="#FFF" fill-rule="evenodd" d="m567.022 294.908-35.574 61.761-17.426 30.24h106l-16.629-28.861-36.371-63.14Z"/><path fill="#17C0EB" fill-opacity="0.619608" fill-rule="evenodd" stroke="#17C0EB" stroke-miterlimit="8" stroke-opacity="0.619608" stroke-width="0.145197" d="m566.948 295.467-2.663 4.622 2.663 62.261 2.662-62.261Zm0 66.883 9.362-50.627-3.77-6.544Zm0 0 14.161-42.293-2.758-4.79Zm0 0 17.892-35.813-2.176-3.779Zm0 0 20.985-30.447-1.822-3.161Zm0 0 23.691-25.749-1.61-2.797Zm0 0 26.162-21.45-1.487-2.581Zm0 0 28.526-17.351-1.431-2.485Zm0 0 30.869-13.284-1.431-2.481Zm0 0 33.293-9.073-1.491-2.589Zm0 0 35.899-4.551-1.618-2.804Zm0 0 38.829.539-1.834-3.184Zm0 0 42.296 6.56-2.188-3.8Zm0 0 46.637 14.098-2.774-4.818Zm0 0 52.5 24.274-3.799-6.596Zm0 0 38.964 25.117h8.394Zm0 0 29.12 25.117h5.552Zm0 0 22.033 25.117h4.077Zm0 0 16.501 25.117h3.228Zm0 0 11.901 25.117h2.719Zm0 0 7.88 25.117h2.395Zm0 0 4.193 25.117h2.216Zm0 0 .677 25.117h2.133Zm0 0-2.81 25.117h2.132Zm0 0-6.409 25.117h2.216Zm0 0-10.275 25.117h2.395Zm0 0-14.616 25.117h2.715Zm0 0-19.729 25.117h3.232Zm0 0-26.107 25.117h4.074Zm0 0-34.668 25.117h5.552Zm0 0-47.359 25.117h8.394Zm0 0-48.702 17.678-3.798 6.596Zm0 0-43.863 9.284-2.778 4.818Zm0 0-40.105 2.76-2.188 3.796Zm0 0-36.992-2.645-1.833 3.184Zm0 0-34.277-7.355-1.288 2.233-.331.575Zm0 0-31.798-11.662-1.491 2.589Zm0 0-29.435-15.765-1.431 2.481Zm0 0-27.095-19.832-1.427 2.481Zm0 0-24.676-24.031-1.486 2.581Zm0 0-22.077-28.542-1.61 2.797Zm0 0-19.159-33.612-1.822 3.169Zm0 0-15.716-39.592-2.176 3.779Zm0 0-11.403-47.079-2.758 4.786Zm0 0-5.592-57.175-3.771 6.552Z"/><path fill="red" fill-rule="evenodd" d="M566.948 338.955c-12.466 0-23.865 4.578-32.622 12.149L517.81 379.81a50.685 50.685 0 0 0-.854 10.145h6.307a45.846 45.846 0 0 1-.008-.83c0-24.214 19.562-43.842 43.693-43.842 24.131 0 43.693 19.628 43.693 43.842 0 .277-.002.554-.007.83h6.306a50.686 50.686 0 0 0-.85-10.137L599.566 351.1c-8.756-7.569-20.154-12.145-32.618-12.145Z"/><path fill="#F60" fill-rule="evenodd" d="M566.95 339.954c-13.225 0-25.227 5.257-34.043 13.803l-13.523 23.513a49.44 49.44 0 0 0-1.428 12.684h5.398a37.941 37.941 0 0 1-.008-.827c0-24.168 19.522-43.76 43.604-43.76s43.605 19.592 43.605 43.76c0 .276-.003.552-.008.827h5.393a49.423 49.423 0 0 0-1.428-12.688l-13.523-23.509c-8.815-8.546-20.815-13.803-34.039-13.803Z"/><path fill="#FF0" fill-rule="evenodd" d="M566.95 340.954c-14.25 0-27.048 6.233-35.84 16.13l-9.771 16.983a48.278 48.278 0 0 0-2.383 15.887h4.488c-.005-.275-.008-.55-.008-.826 0-24.118 19.482-43.67 43.514-43.67 24.033 0 43.514 19.552 43.514 43.67 0 .276-.003.551-.008.826h4.484a48.305 48.305 0 0 0-2.386-15.891l-9.768-16.983c-8.79-9.895-21.588-16.126-35.836-16.126Z"/><path fill="#0F0" fill-rule="evenodd" d="M566.448 341.954a47.54 47.54 0 0 0-39.486 20.948l-3.181 5.478a46.72 46.72 0 0 0-4.825 21.574h3.62a37.666 37.666 0 0 1-.008-.824c0-24.069 19.645-43.581 43.88-43.581 24.234 0 43.88 19.512 43.88 43.581 0 .275-.003.55-.008.824h3.62a46.723 46.723 0 0 0-4.809-21.542l-3.217-5.542a47.544 47.544 0 0 0-39.466-20.916Z"/><path fill="#0CF" fill-rule="evenodd" d="M566.45 342.954c-25.681 0-46.502 20.674-46.502 46.177 0 .275.003.549.008.823h2.712a45.075 45.075 0 0 1-.008-.823c0-24.018 19.605-43.487 43.79-43.487s43.79 19.469 43.79 43.487c0 .275-.003.549-.008.823h2.708c.005-.274.008-.548.008-.823 0-25.503-20.818-46.177-46.498-46.177Z"/><path fill="#00F" fill-rule="evenodd" d="M566.947 343.954c-25.404 0-46 20.228-46 45.179 0 .275.004.548.008.821h1.825a37.386 37.386 0 0 1-.009-.821c0-23.962 19.779-43.388 44.176-43.388 24.398 0 44.176 19.426 44.176 43.388 0 .274-.003.548-.008.821h1.824c.005-.273.009-.546.009-.821 0-24.951-20.596-45.179-46-45.179Z"/><path fill="purple" fill-rule="evenodd" d="M566.95 344.954c-24.854 0-45.002 19.781-45.002 44.181 0 .273.002.547.008.819h.91a44.725 44.725 0 0 1-.008-.819c0-23.907 19.74-43.288 44.092-43.288 24.351 0 44.091 19.381 44.091 43.288 0 .273-.003.546-.008.819h.906c.006-.272.009-.546.009-.819 0-24.4-20.145-44.181-44.998-44.181Z"/><path fill="#FFF" fill-rule="evenodd" d="m514.107 387.046-11.207 19h128l-11.206-19H514.107Z"/><path fill="#025" fill-rule="evenodd" d="m513.921 386.059-.14.279h106.238l-.14-.279H513.921Zm-.248.49-.144.284H620.27l-.143-.284H513.673Zm-.228.448-.232.463h107.373l-.232-.463H513.445Zm-.359.715-.284.563h108.196l-.284-.563H513.086Zm-.452.898-.284.563h109.099l-.283-.563H512.634Zm-.452.897-.279.559h109.994l-.28-.559H512.182Zm-.451.898-.284.559h110.905l-.283-.559H511.731Zm-.488.966-.343.688h112l-.344-.688H511.243Z"/><path fill="#025" fill-rule="evenodd" d="M518.485 392.047c3.916.765 4.293 0 4.293 0Zm92.52 0s.377.765 4.293 0Zm-99.945.176c-.18 0-.359.015-.537.02l-.364.643c.609-.052 1.22-.102 1.846-.118 3.739.093 7.133.977 11.109.977.278 0 .537-.014.805-.02h.1c.113.001.236.017.352.02.102 0 .198.002.297 0 .139 0 .256.002.392 0 .137.002.278 0 .417 0 .075 0 .144.002.216 0 .078.002.16 0 .236 0 .14 0 .256.002.393 0 .137.002.273 0 .412 0h.257c.117-.003.236-.018.356-.02h.096c.268.007.531.02.809.02 3.972 0 7.366-.884 11.105-.977 3.741.093 7.156.977 11.129.977.278 0 .541-.014.809-.02h.096c.121.001.239.017.357.02h.256c.139 0 .276.002.413 0 .136.002.273 0 .412 0 .072 0 .143.002.216 0 .073.002.142 0 .217 0 .139 0 .28.002.416 0 .136.002.274 0 .412 0h.277c.12-.003.236-.018.352-.02h.1c.268.007.528.02.805.02 3.973 0 7.354-.884 11.089-.977 3.738.093 7.117.977 11.089.977.272 0 .544-.014.805-.02h.12c.11.001.219.017.333.02.099 0 .199.002.296 0 .14 0 .276.002.413 0 .136.002.257 0 .396 0 .074 0 .145.002.216 0 .081.002.158 0 .237 0 .139 0 .276.002.412 0 .136.002.253 0 .393 0h.276c.111-.003.223-.018.336-.02h.116c.263.006.538.02.809.02 3.973 0 7.368-.884 11.109-.977 3.742.092 7.131.977 11.105.977.279 0 .541-.014.809-.02h.097c.12.001.238.017.356.02h.256c.14 0 .276.002.413 0 .136.002.273 0 .412 0 .073 0 .143.002.216 0 .073.002.145 0 .221 0 .139 0 .276.002.412 0 .136.002.273 0 .413 0h.276c.12-.003.235-.018.352-.02h.101c.268.007.531.02.808.02 3.973 0 7.351-.884 11.085-.977.764.019 1.51.089 2.251.159l-.4-.704h-.156c-.1-.004-.198 0-.297 0-.139 0-.276-.002-.412 0-.137-.002-.253 0-.393 0-.074 0-.144-.002-.216 0-.081-.002-.158 0-.236 0-.14 0-.281-.002-.417 0-.136-.002-.253 0-.392 0-.091-.002-.183 0-.277 0-.195 0-.376.016-.568.02-.224-.006-.461-.02-.693-.02-3.972 0-7.349.864-11.085.956-3.742-.091-7.133-.956-11.109-.956-.238 0-.461.015-.689.02-.193-.004-.377-.02-.573-.02-.084-.002-.168 0-.256 0-.139 0-.276-.002-.412 0-.137-.002-.274 0-.413 0-.072 0-.143-.002-.216 0-.072-.002-.142 0-.216 0-.139 0-.281-.002-.417 0-.136-.002-.273 0-.412 0-.093-.002-.182 0-.277 0-.199 0-.392.016-.588.02-.222-.006-.438-.02-.669-.02-3.972 0-7.371.865-11.109.956-3.74-.092-7.133-.956-11.105-.956-.233 0-.46.015-.689.02-.19-.004-.379-.02-.573-.02-.091-.004-.181 0-.276 0-.139 0-.276-.002-.413 0-.136-.002-.277 0-.416 0-.074 0-.144-.002-.216 0-.072-.002-.142 0-.217 0-.139 0-.276-.002-.412 0-.137-.002-.274 0-.413 0-.093-.002-.183 0-.276 0-.195 0-.38.016-.573.02-.229-.006-.456-.02-.688-.02-3.973 0-7.351.865-11.085.956-3.74-.092-7.117-.956-11.089-.956-.233 0-.467.015-.689.02-.192-.004-.378-.02-.573-.02-.1-.004-.198 0-.296 0-.14 0-.276-.002-.413 0-.136-.002-.253 0-.392 0-.075 0-.144-.002-.216 0-.08-.002-.158 0-.237 0-.139 0-.28-.002-.416 0-.136-.002-.254 0-.393 0-.085-.002-.168 0-.256 0-.2 0-.392.016-.589.02-.221-.006-.438-.02-.669-.02-3.976 0-7.366.865-11.109.956-3.739-.092-7.132-.956-11.105-.956-.232 0-.464.015-.692.02-.193-.004-.374-.02-.569-.02-.084-.002-.167 0-.256 0-.145 0-.291-.002-.433 0-.136-.002-.277 0-.416 0-.073 0-.144-.002-.217 0-.065-.002-.127 0-.196 0-.144 0-.291-.002-.432 0-.137-.002-.274 0-.413 0h-.276Zm-1.262 1.29-.404.717a33.694 33.694 0 0 1 2.611-.171c3.739.092 7.133.977 11.109.977.278 0 .537-.013.805-.02.033-.002.067.001.1 0 .113.002.236.016.352.02.102 0 .198.002.297 0 .139 0 .26.002.396 0 .137.002.274 0 .413 0 .075 0 .144.002.216 0 .078.002.16 0 .236 0 .14 0 .256.002.393 0 .137.002.273 0 .412 0h.257c.117-.004.236-.018.356-.02h.096c.268.007.531.02.809.02 3.972 0 7.37-.884 11.109-.977 3.741.092 7.152.977 11.125.977.278 0 .541-.013.809-.02.033-.002.063.001.096 0 .121.002.239.016.357.02h.256c.139 0 .276.002.413 0 .136.002.273 0 .412 0 .072 0 .143.002.216 0 .073.002.142 0 .217 0 .139 0 .28.002.416 0 .136.002.274 0 .412 0h.277c.12-.004.236-.018.352-.02h.1c.268.007.532.02.809.02 3.973 0 7.35-.884 11.085-.977 3.738.092 7.117.977 11.089.977.272 0 .544-.013.805-.02.039-.002.081.001.12 0 .11.002.223.016.337.02.099 0 .195.002.292 0 .14 0 .276.002.413 0 .136.002.257 0 .396 0 .074 0 .145.002.216 0 .081.002.158 0 .237 0 .139 0 .276.002.412 0 .136.002.257 0 .397 0h.272c.111-.004.223-.018.336-.02h.116c.263.007.538.02.809.02 3.973 0 7.368-.884 11.109-.977 3.742.091 7.131.977 11.105.977.279 0 .541-.013.809-.02.033-.002.064.001.097 0 .12.002.238.016.356.02h.256c.14 0 .276.002.413 0 .136.002.273 0 .412 0 .073 0 .148.002.22 0 .073.002.141 0 .217 0 .139 0 .276.002.412 0 .136.002.273 0 .413 0h.276c.12-.004.239-.018.356-.02h.097c.268.007.531.02.808.02 3.973 0 7.351-.884 11.085-.977 1.026.025 2.031.118 3.024.228l-.428-.757c-.111.004-.221-.003-.329 0-.192-.004-.377-.017-.572-.017-.1-.003-.198 0-.297 0-.139 0-.276-.002-.412 0-.137-.002-.253 0-.393 0-.074 0-.144-.002-.216 0-.081-.002-.158 0-.236 0-.14 0-.281-.002-.417 0-.136-.002-.253 0-.392 0h-.277c-.195 0-.376.013-.568.017-.224-.006-.461-.017-.693-.017-3.972 0-7.349.865-11.085.957-3.742-.092-7.133-.957-11.109-.957-.238 0-.461.011-.689.017-.193-.004-.377-.017-.573-.017-.084-.002-.168 0-.256 0-.139 0-.276-.002-.412 0-.137-.002-.274 0-.413 0-.072 0-.143-.002-.216 0-.072-.002-.142 0-.216 0-.139 0-.281-.002-.417 0-.136-.002-.273 0-.412 0h-.277c-.199 0-.392.013-.588.017-.222-.006-.438-.017-.669-.017-3.972 0-7.371.865-11.109.957-3.74-.092-7.133-.957-11.105-.957-.233 0-.46.012-.689.017-.19-.004-.379-.017-.573-.017-.091-.003-.181 0-.276 0-.139 0-.276-.002-.413 0-.136-.002-.277 0-.416 0-.074 0-.144-.002-.216 0-.072-.002-.142 0-.217 0-.139 0-.276-.002-.412 0-.137-.002-.274 0-.413 0h-.276c-.195 0-.38.013-.573.017-.229-.006-.456-.017-.688-.017-3.973 0-7.351.865-11.085.957-3.74-.092-7.117-.957-11.089-.957-.233 0-.467.012-.689.017-.192-.004-.378-.017-.573-.017-.1-.003-.198 0-.296 0-.14 0-.276-.002-.413 0-.136-.002-.253 0-.392 0-.075 0-.144-.002-.216 0-.08-.002-.158 0-.237 0-.139 0-.28-.002-.416 0-.136-.002-.254 0-.393 0h-.256c-.2 0-.392.013-.589.017-.221-.006-.438-.017-.669-.017-3.976 0-7.366.865-11.109.957-3.739-.092-7.132-.957-11.105-.957-.232 0-.464.011-.692.017-.193-.004-.374-.017-.569-.017-.084-.002-.167 0-.256 0-.145 0-.291-.002-.433 0-.136-.002-.277 0-.416 0-.073 0-.144-.002-.217 0-.065-.002-.127 0-.196 0-.144 0-.291-.002-.432 0-.137-.002-.274 0-.413 0h-.276c-.199 0-.393.013-.589.017-.22-.006-.44-.017-.669-.017h-.004Zm0 1.287c-.251 0-.493.013-.741.02l-.46.819c1.116-.129 2.249-.245 3.408-.273 3.739.092 7.133.957 11.109.957.278 0 .537-.014.805-.021.033-.001.067.002.1 0 .113.002.236.018.352.021.102 0 .198.002.297 0 .139 0 .256.002.392 0 .137.002.277 0 .417 0 .075 0 .144.002.216 0 .078.002.16 0 .236 0 .14 0 .256.002.393 0 .136.002.273 0 .412 0h.257c.117-.004.236-.019.356-.021h.096c.268.008.531.021.809.021 3.972 0 7.366-.865 11.105-.957 3.741.092 7.156.957 11.129.957.278 0 .541-.014.809-.021.033-.001.064.002.096 0 .121.002.239.018.357.021h.256c.139 0 .276.002.413 0 .136.002.273 0 .412 0 .072 0 .143.002.216 0 .072.002.142 0 .217 0 .139 0 .28.002.416 0 .136.002.274 0 .412 0h.277c.12-.004.236-.019.352-.021h.1c.268.008.532.021.809.021 3.973 0 7.35-.865 11.085-.957 3.738.092 7.117.957 11.089.957.272 0 .544-.014.805-.021.039-.001.081.002.12 0 .11.002.223.018.337.021.099 0 .195.002.292 0 .14 0 .276.002.413 0 .136.002.257 0 .396 0 .074 0 .145.002.216 0 .081.002.158 0 .237 0 .139 0 .276.002.412 0 .136.002.254 0 .393 0h.276c.111-.004.223-.019.336-.021h.116c.263.008.538.021.809.021 3.973 0 7.368-.865 11.109-.957 3.742.091 7.131.957 11.105.957.279 0 .541-.014.809-.021.033-.001.064.002.097 0 .12.002.238.018.356.021h.256c.14 0 .276.002.413 0 .136.002.273 0 .412 0 .073 0 .148.002.22 0 .072.002.141 0 .217 0 .139 0 .276.002.412 0 .136.002.273 0 .413 0h.276c.12-.004.239-.019.356-.021h.097c.268.008.531.021.808.021 3.972 0 7.351-.865 11.085-.957 1.297.032 2.559.16 3.813.309l-.489-.855c-.123-.003-.243-.02-.368-.02-.232 0-.465.015-.689.02-.192-.003-.377-.02-.572-.02-.1-.003-.194 0-.293 0-.139 0-.28-.002-.416 0-.137-.002-.253 0-.393 0-.074 0-.144-.002-.216 0-.081-.002-.158 0-.236 0-.14 0-.276-.002-.413 0-.136-.002-.257 0-.396 0h-.277c-.195 0-.376.016-.568.02-.224-.005-.461-.02-.693-.02-3.972 0-7.349.864-11.085.957-3.742-.092-7.132-.957-11.109-.957-.237 0-.461.015-.689.02-.193-.003-.373-.02-.569-.02-.084-.003-.168 0-.256 0-.139 0-.28-.002-.416 0-.137-.002-.274 0-.413 0-.072 0-.143-.002-.216 0-.072-.002-.142 0-.216 0-.14 0-.277-.002-.413 0-.136-.002-.277 0-.416 0h-.273c-.199 0-.396.016-.592.02-.222-.005-.438-.02-.669-.02-3.972 0-7.371.864-11.109.957-3.74-.093-7.133-.957-11.105-.957-.233 0-.46.015-.689.02-.19-.003-.379-.02-.573-.02-.091-.003-.181 0-.276 0-.139 0-.276-.002-.413 0-.136-.002-.273 0-.412 0-.074 0-.148-.002-.22 0-.072-.002-.142 0-.217 0-.139 0-.275-.002-.412 0-.136-.002-.273 0-.413 0h-.276c-.195 0-.38.016-.573.02-.229-.005-.456-.02-.688-.02-3.973 0-7.351.864-11.085.957-3.74-.093-7.117-.957-11.089-.957-.233 0-.466.015-.689.02-.193-.003-.378-.02-.573-.02-.1-.003-.198 0-.296 0-.14 0-.276-.002-.413 0-.136-.002-.253 0-.392 0-.075 0-.144-.002-.216 0-.08-.002-.158 0-.237 0-.139 0-.28-.002-.416 0-.136-.002-.253 0-.393 0h-.256c-.2 0-.392.016-.589.02-.221-.005-.438-.02-.669-.02-3.976 0-7.366.865-11.109.957-3.739-.093-7.136-.957-11.109-.957-.232 0-.46.015-.688.02-.192-.003-.374-.02-.569-.02-.084-.003-.167 0-.256 0-.145 0-.291-.002-.433 0-.136-.002-.277 0-.416 0-.073 0-.143-.002-.217 0-.065-.002-.127 0-.196 0-.144 0-.291-.002-.432 0-.137-.002-.274 0-.413 0h-.276c-.199 0-.396.016-.593.02-.22-.005-.438-.02-.669-.02Zm0 1.287c-.505 0-.993.016-1.481.04l-.509.896c1.378-.17 2.763-.335 4.197-.37 3.739.092 7.133.956 11.109.956.278 0 .537-.013.805-.02h.1c.113.002.236.017.352.02.102 0 .198.002.297 0 .139 0 .26.002.396 0 .137.002.273 0 .413 0 .075 0 .144.002.216 0 .078.002.16 0 .236 0 .14 0 .256.002.393 0 .136.002.273 0 .412 0 .086.002.169 0 .257 0 .117-.003.236-.018.356-.02h.096c.268.008.531.02.809.02 3.972 0 7.37-.865 11.109-.956 3.741.092 7.152.956 11.125.956.278 0 .541-.013.809-.02h.096c.121.002.239.017.357.02.088 0 .17.002.256 0 .139 0 .276.002.413 0 .136.002.273 0 .412 0 .072 0 .143.002.216 0 .072.002.146 0 .22 0 .14 0 .277.002.413 0 .136.002.274 0 .412 0 .093.002.182 0 .277 0 .12-.003.236-.018.352-.02h.1c.268.008.532.02.809.02 3.973 0 7.35-.865 11.085-.956 3.738.092 7.117.956 11.089.956.272 0 .544-.014.805-.02h.12c.11.002.223.017.337.02.099 0 .195.002.292 0 .14 0 .28.002.417 0 .136.002.253 0 .392 0 .074 0 .145.002.216 0 .081.002.158 0 .237 0 .139 0 .276.002.412 0 .136.002.258 0 .397 0 .09.002.179 0 .272 0 .111-.003.223-.018.336-.02h.12c.263.007.534.02.805.02 3.973 0 7.368-.865 11.109-.956 3.742.091 7.131.956 11.105.956.279 0 .541-.013.809-.02h.101c.12.002.234.017.352.02.088 0 .17.002.256 0 .14 0 .276.002.413 0 .136.002.277 0 .416 0 .073 0 .144.002.216 0 .072.002.141 0 .217 0 .139 0 .276.002.412 0 .136.002.273 0 .413 0 .092.002.181 0 .276 0 .12-.003.239-.018.356-.02h.097c.268.008.531.02.808.02 3.972 0 7.351-.865 11.085-.956 1.568.039 3.084.218 4.598.407l-.529-.933c-.369-.014-.733-.04-1.113-.04-.232 0-.465.015-.689.02-.192-.004-.377-.02-.572-.02-.1-.003-.194 0-.293 0-.139 0-.28-.002-.416 0-.137-.002-.253 0-.393 0-.074 0-.144-.002-.216 0-.081-.002-.158 0-.236 0-.14 0-.276-.002-.413 0-.136-.002-.257 0-.396 0-.091-.002-.183 0-.277 0-.195 0-.376.016-.568.02-.224-.006-.461-.02-.693-.02-4.014 0-7.422.88-11.205.956-3.695-.107-7.055-.956-10.989-.956-.237 0-.461.015-.689.02-.193-.004-.373-.02-.569-.02-.084-.003-.168 0-.256 0-.139 0-.28-.002-.416 0-.137-.002-.274 0-.413 0-.072 0-.143-.002-.216 0-.072-.002-.142 0-.216 0-.14 0-.277-.002-.413 0-.136-.002-.277 0-.416 0-.093-.002-.178 0-.273 0-.199 0-.396.016-.592.02-.222-.006-.438-.02-.669-.02-3.972 0-7.371.864-11.109.956-3.74-.092-7.133-.956-11.105-.956-.233 0-.46.015-.689.02-.19-.004-.379-.02-.573-.02-.091-.003-.181 0-.276 0-.139 0-.276-.002-.413 0-.136-.002-.273 0-.412 0-.074 0-.148-.002-.22 0-.072-.002-.142 0-.217 0-.139 0-.275-.002-.412 0-.136-.002-.273 0-.413 0-.093-.002-.183 0-.276 0-.195 0-.38.016-.573.02-.229-.006-.456-.02-.688-.02-3.973 0-7.351.864-11.085.956-3.74-.092-7.117-.956-11.089-.956-.233 0-.466.015-.689.02-.193-.004-.378-.02-.573-.02-.1-.003-.198 0-.296 0-.14 0-.276-.002-.413 0-.136-.002-.253 0-.392 0-.075 0-.144-.002-.216 0-.08-.002-.158 0-.237 0-.139 0-.28-.002-.416 0-.136-.002-.253 0-.393 0-.085-.002-.168 0-.256 0-.2 0-.392.016-.589.02-.221-.006-.438-.02-.669-.02-3.933 0-7.293.85-10.988.956-3.786-.076-7.215-.956-11.23-.956-.232 0-.46.015-.688.02-.192-.004-.374-.02-.569-.02-.084-.003-.167 0-.256 0-.145 0-.291-.002-.433 0-.136-.002-.277 0-.416 0-.073 0-.143-.002-.217 0-.065-.002-.127 0-.196 0-.144 0-.291-.002-.432 0-.137-.002-.274 0-.413 0-.092-.002-.181 0-.276 0-.199 0-.396.016-.593.02-.22-.006-.438-.02-.669-.02Zm0 1.286c-.772 0-1.508.045-2.242.098l-.521.916c1.638-.207 3.269-.405 4.97-.448 3.739.093 7.133.957 11.109.957.278 0 .537-.009.805-.016h.1c.113.001.236.013.352.016h2.62c.117-.004.236-.014.356-.016h.096c.268.007.531.016.809.016 3.972 0 7.37-.864 11.109-.957 3.741.093 7.152.957 11.125.957.278 0 .541-.009.809-.016h.096c.121.001.239.012.357.016h2.619c.12-.004.236-.014.352-.016h.1c.268.007.532.016.809.016 3.973 0 7.35-.864 11.085-.957 3.738.093 7.117.957 11.089.957.272 0 .544-.01.805-.016h.12c.11.001.223.013.337.016h2.635c.111-.004.223-.014.336-.016h.12c.263.006.534.016.805.016 3.973 0 7.368-.864 11.109-.957 3.742.092 7.131.957 11.105.957.279 0 .541-.009.809-.016h.101c.12.001.234.012.352.016H609.055c.12-.004.239-.014.356-.016h.097c.268.007.531.016.808.016 3.972 0 7.351-.864 11.085-.957 1.839.046 3.605.281 5.387.505l-.565-.989c-.612-.038-1.226-.082-1.866-.082-.232 0-.465.016-.689.021-.192-.004-.377-.021-.572-.021-.1-.003-.198 0-.297 0h-2.343c-.195 0-.376.018-.568.021-.224-.006-.461-.021-.693-.021-3.972 0-7.349.864-11.085.957-3.742-.092-7.132-.957-11.109-.957-.237 0-.461.016-.689.021-.193-.004-.377-.021-.573-.021-.084-.002-.168 0-.256 0h-2.363c-.199 0-.392.018-.588.021-.222-.006-.438-.021-.669-.021-3.972 0-7.371.865-11.109.957-3.74-.092-7.133-.957-11.105-.957-.233 0-.46.016-.689.021-.19-.004-.379-.021-.573-.021-.091-.003-.181 0-.276 0H565.748c-.195 0-.38.018-.573.021-.229-.006-.456-.021-.688-.021-3.973 0-7.355.865-11.089.957-3.74-.092-7.113-.957-11.085-.957-.233 0-.466.016-.689.021-.193-.004-.378-.021-.573-.021-.1-.003-.198 0-.296 0H538.432c-.2 0-.392.018-.589.021-.221-.006-.442-.021-.672-.021-3.977 0-7.364.865-11.106.957-3.739-.093-7.136-.957-11.109-.957-.232 0-.46.016-.688.021-.192-.004-.378-.021-.573-.021-.084-.002-.163 0-.252 0h-2.383c-.199 0-.396.018-.593.021-.219-.005-.438-.021-.669-.021Zm0 1.291c-1.041 0-2.031.065-3.007.155l-.545.953c1.907-.238 3.786-.493 5.759-.542 3.739.092 7.133.953 11.109.953.278 0 .537-.01.805-.016.033-.002.067.001.1 0 .113.001.236.012.352.016.102 0 .198.002.297 0 .139 0 .256.002.392 0 .137.002.277 0 .417 0 .075 0 .144.002.216 0 .078.002.16 0 .236 0 .14 0 .256.002.393 0 .136.002.273 0 .412 0h.257c.117-.004.236-.015.356-.016h.096c.268.006.531.016.809.016 3.972 0 7.366-.861 11.105-.953 3.741.092 7.156.953 11.129.953.278 0 .541-.01.809-.016.033-.002.064.001.096 0 .121.001.239.012.357.016h.256c.139 0 .276.002.413 0 .136.002.273 0 .412 0 .072 0 .143.002.216 0 .072.002.142 0 .217 0 .139 0 .28.002.416 0 .136.002.274 0 .412 0h.277c.12-.004.236-.015.352-.016h.1c.268.006.532.016.809.016 3.973 0 7.35-.861 11.085-.953 3.738.092 7.117.953 11.089.953.272 0 .544-.01.805-.016.039-.002.081.001.12 0 .11.001.223.012.337.016.099 0 .195.002.292 0 .14 0 .276.002.413 0 .136.002.257 0 .396 0 .074 0 .145.002.216 0 .081.002.158 0 .237 0 .139 0 .276.002.412 0 .136.002.254 0 .393 0h.276c.111-.004.223-.015.336-.016h.116c.263.006.538.016.809.016 3.973 0 7.368-.861 11.109-.953 3.742.091 7.131.953 11.105.953.279 0 .541-.01.809-.016.033-.002.064.001.097 0 .12.001.238.012.356.016h.256c.14 0 .276.002.413 0 .136.002.273 0 .412 0 .073 0 .148.002.22 0 .072.002.141 0 .217 0 .139 0 .276.002.412 0 .136.002.273 0 .413 0h.276c.12-.004.239-.015.356-.016h.097c.268.006.531.016.808.016 3.972 0 7.351-.861 11.085-.953 2.109.052 4.116.349 6.172.599l-.597-1.051a31.776 31.776 0 0 0-2.619-.114c-.232 0-.465.015-.689.02-.192-.003-.377-.02-.572-.02-.1-.003-.198 0-.297 0-.139 0-.276-.002-.412 0-.137-.002-.253 0-.393 0-.074 0-.144-.002-.216 0-.081-.002-.158 0-.236 0-.14 0-.281-.002-.417 0-.136-.002-.253 0-.392 0h-.277c-.195 0-.376.017-.568.02-.224-.005-.461-.02-.693-.02-3.972 0-7.349.865-11.085.957-3.742-.092-7.132-.957-11.109-.957-.237 0-.461.015-.689.02-.193-.003-.377-.02-.573-.02-.084-.002-.168 0-.256 0-.139 0-.276-.002-.412 0-.137-.002-.274 0-.413 0-.072 0-.143-.002-.216 0-.072-.002-.142 0-.216 0-.14 0-.281-.002-.417 0-.136-.002-.273 0-.412 0h-.277c-.199 0-.392.017-.588.02-.222-.005-.438-.02-.669-.02-3.972 0-7.371.865-11.109.957-3.74-.092-7.133-.957-11.105-.957-.233 0-.46.015-.689.02-.19-.003-.379-.02-.573-.02-.091-.003-.181 0-.276 0-.139 0-.276-.002-.413 0-.136-.002-.277 0-.416 0-.074 0-.144-.002-.216 0-.072-.002-.142 0-.217 0-.139 0-.275-.002-.412 0-.136-.002-.273 0-.413 0h-.276c-.195 0-.38.017-.573.02-.229-.005-.456-.02-.688-.02-3.973 0-7.355.865-11.089.957-3.74-.092-7.113-.957-11.085-.957-.233 0-.466.015-.689.02-.193-.003-.378-.02-.573-.02-.1-.003-.198 0-.296 0-.14 0-.276-.002-.413 0-.136-.002-.253 0-.392 0-.075 0-.148-.002-.22 0-.08-.002-.154 0-.233 0-.139 0-.28-.002-.416 0-.136-.002-.253 0-.393 0h-.256c-.2 0-.392.017-.589.02-.221-.005-.442-.02-.672-.02-3.977 0-7.364.865-11.106.957-3.739-.093-7.136-.957-11.109-.957-.232 0-.46.015-.688.02-.192-.003-.378-.02-.573-.02-.084-.002-.163 0-.252 0-.145 0-.295-.002-.437 0-.136-.002-.273 0-.412 0-.073 0-.143-.002-.217 0-.065-.002-.127 0-.196 0-.144 0-.291-.002-.432 0-.137-.002-.278 0-.417 0h-.272c-.199 0-.396.017-.593.02-.219-.005-.438-.02-.669-.02Zm0 1.287c-1.316 0-2.563.106-3.784.236l-.553.969c2.184-.258 4.302-.584 6.544-.639 3.739.092 7.133.957 11.109.957.278 0 .537-.014.805-.021h.1c.113.002.236.017.352.021h2.62c.117-.004.236-.019.356-.021h.096c.268.008.531.021.809.021 3.972 0 7.366-.865 11.105-.957 3.741.092 7.156.957 11.129.957.278 0 .541-.014.809-.021h.096c.121.002.239.017.357.021h2.619c.12-.004.236-.019.352-.021h.1c.268.008.532.021.809.021 3.973 0 7.35-.865 11.085-.957 3.738.092 7.117.957 11.089.957.272 0 .544-.014.805-.021h.12c.11.002.223.017.337.021h2.635c.111-.004.223-.019.336-.021h.116c.263.008.538.021.809.021 3.973 0 7.368-.865 11.109-.957 3.742.091 7.131.957 11.105.957.279 0 .541-.014.809-.021h.097c.12.002.238.017.356.021H609.055c.12-.004.239-.019.356-.021h.097c.268.008.531.021.808.021 3.972 0 7.351-.865 11.085-.957 2.38.058 4.622.438 6.961.7l-.613-1.075a33.962 33.962 0 0 0-3.392-.191c-.232 0-.466.014-.689.02-.192-.004-.379-.02-.572-.02-.1-.003-.194 0-.293 0-.139 0-.28-.002-.416 0-.137-.002-.253 0-.393 0-.074 0-.144-.002-.216 0-.08-.002-.158 0-.236 0-.14 0-.276-.002-.413 0-.136-.002-.257 0-.396 0-.091-.002-.183 0-.277 0-.195 0-.376.016-.568.02-.224-.006-.457-.02-.689-.02-3.972 0-7.353.864-11.089.957-3.742-.092-7.129-.957-11.105-.957-.238 0-.465.014-.693.02-.193-.004-.373-.02-.569-.02-.084-.003-.168 0-.256 0-.139 0-.276-.002-.412 0-.137-.002-.278 0-.417 0-.072 0-.143-.002-.216 0-.072-.002-.141 0-.216 0-.139 0-.277-.002-.413 0-.136-.002-.273 0-.412 0-.093-.002-.182 0-.277 0-.198 0-.396.016-.592.02-.222-.006-.438-.02-.669-.02-3.972 0-7.371.864-11.109.957-3.74-.093-7.133-.957-11.105-.957-.233 0-.459.014-.689.02-.19-.004-.379-.02-.573-.02-.091-.003-.181 0-.276 0-.139 0-.276-.002-.413 0-.136-.002-.273 0-.412 0-.074 0-.144-.002-.216 0-.072-.002-.142 0-.217 0-.139 0-.28-.002-.416 0-.137-.002-.274 0-.413 0-.093-.002-.183 0-.276 0-.195 0-.376.016-.569.02-.229-.006-.461-.02-.692-.02-3.973 0-7.351.864-11.085.957-3.739-.093-7.117-.957-11.089-.957-.233 0-.467.014-.689.02-.192-.004-.378-.02-.573-.02-.1-.003-.194 0-.292 0-.14 0-.28-.002-.417 0-.136-.002-.253 0-.392 0-.075 0-.145-.002-.216 0-.08-.002-.157 0-.237 0-.139 0-.276-.002-.412 0-.136-.002-.254 0-.393 0-.085-.002-.168 0-.256 0-.2 0-.396.016-.593.02-.221-.006-.438-.02-.669-.02-3.976 0-7.367.865-11.109.957-3.739-.093-7.132-.957-11.105-.957-.232 0-.46.014-.688.02-.193-.004-.378-.02-.573-.02-.084-.003-.167 0-.256 0-.145 0-.291-.002-.433 0-.136-.002-.273 0-.412 0-.073 0-.144-.002-.217 0-.065-.002-.131 0-.2 0-.144 0-.29-.002-.432 0-.137-.002-.274 0-.413 0-.092-.002-.181 0-.276 0-.199 0-.393.016-.589.02-.222-.006-.442-.02-.673-.02Zm0 1.286c-1.594 0-3.096.137-4.561.31l-.561.993c2.47-.261 4.819-.674 7.329-.737 3.739.093 7.133.957 11.109.957.278 0 .537-.013.805-.02h.1c.113.002.236.017.352.02.102 0 .198.002.297 0 .139 0 .256.002.392 0 .137.002.278 0 .417 0 .075 0 .144.002.216 0 .078.002.16 0 .236 0 .14 0 .256.002.393 0 .137.002.273 0 .412 0 .086.002.169 0 .257 0 .117-.003.236-.018.356-.02h.096c.268.007.531.02.809.02 3.972 0 7.366-.865 11.105-.957 3.741.093 7.156.957 11.129.957.278 0 .541-.013.809-.02h.096c.121.002.239.017.357.02.088 0 .17.002.256 0 .139 0 .276.002.413 0 .136.002.273 0 .412 0 .072 0 .143.002.216 0 .073.002.142 0 .217 0 .139 0 .28.002.416 0 .136.002.274 0 .412 0 .093.002.182 0 .277 0 .12-.003.236-.018.352-.02h.1c.268.007.528.02.805.02 3.973 0 7.354-.865 11.089-.957 3.738.093 7.117.957 11.089.957.272 0 .544-.014.805-.02h.12c.11.002.219.017.333.02.099 0 .199.002.296 0 .14 0 .276.002.413 0 .136.002.257 0 .396 0 .074 0 .145.002.216 0 .081.002.158 0 .237 0 .139 0 .276.002.412 0 .136.002.253 0 .393 0 .089.002.183 0 .276 0 .111-.003.223-.018.336-.02h.116c.263.007.538.02.809.02 3.973 0 7.368-.865 11.109-.957 3.742.092 7.131.957 11.105.957.279 0 .541-.013.809-.02h.097c.12.002.238.017.356.02.088 0 .17.002.256 0 .14 0 .276.002.413 0 .136.002.273 0 .412 0 .073 0 .143.002.216 0 .073.002.145 0 .221 0 .139 0 .276.002.412 0 .136.002.273 0 .413 0 .092.002.181 0 .276 0 .12-.003.235-.018.352-.02h.101c.268.007.531.02.808.02 3.973 0 7.351-.865 11.085-.957 2.641.066 5.11.519 7.734.778l-.609-1.075c-1.341-.151-2.716-.269-4.169-.269-.232 0-.466.016-.689.021-.192-.004-.378-.021-.572-.021-.1-.003-.194 0-.293 0h-2.347c-.195 0-.376.017-.568.021-.224-.006-.461-.021-.693-.021-3.972 0-7.349.865-11.085.957-3.742-.092-7.133-.957-11.109-.957-.238 0-.461.016-.689.021-.193-.004-.373-.021-.569-.021-.084-.002-.168 0-.256 0h-2.363c-.198 0-.396.017-.592.021-.222-.006-.439-.021-.669-.021-3.973 0-7.371.865-11.109.957-3.74-.092-7.133-.957-11.105-.957-.233 0-.459.016-.689.021-.19-.004-.379-.021-.573-.021-.091-.003-.181 0-.276 0H565.748c-.195 0-.38.017-.573.021-.229-.006-.457-.021-.688-.021-3.973 0-7.351.865-11.085.957-3.739-.092-7.117-.957-11.089-.957-.233 0-.467.016-.689.021-.193-.004-.378-.021-.573-.021-.1-.003-.198 0-.296 0H538.432c-.2 0-.392.017-.589.021-.221-.006-.438-.021-.669-.021-3.976 0-7.366.865-11.109.957-3.738-.092-7.136-.957-11.109-.957-.232 0-.46.016-.688.021-.193-.004-.374-.021-.569-.021-.084-.002-.167 0-.256 0h-2.383c-.199 0-.397.017-.593.021-.22-.005-.438-.021-.669-.021Zm0 1.287c-1.881 0-3.629.193-5.346.407l-.553.978c2.763-.25 5.333-.75 8.106-.819 3.739.093 7.133.957 11.109.957.278 0 .537-.009.805-.016.033-.002.067.001.1 0 .113.001.236.013.352.016h2.62c.117-.004.236-.014.356-.016h.096c.268.007.531.016.809.016 3.972 0 7.366-.864 11.105-.957 3.741.093 7.156.957 11.129.957.278 0 .541-.009.809-.016.033-.002.064.001.096 0 .121.001.239.012.357.016h2.619c.12-.004.236-.014.352-.016h.1c.268.007.532.016.809.016 3.973 0 7.35-.864 11.085-.957 3.738.093 7.117.957 11.089.957.272 0 .544-.01.805-.016.039-.002.081.001.12 0 .11.001.223.013.337.016h2.635c.111-.004.223-.014.336-.016h.116c.263.006.538.016.809.016 3.973 0 7.368-.864 11.109-.957 3.742.092 7.131.957 11.105.957.279 0 .541-.009.809-.016.033-.002.064.001.097 0 .12.001.238.012.356.016H609.055c.12-.004.239-.014.356-.016h.097c.268.007.531.016.808.016 3.972 0 7.351-.864 11.085-.957 2.896.072 5.587.597 8.499.835l-.585-1.03c-1.593-.195-3.218-.371-4.958-.371-.232 0-.465.015-.689.02-.192-.003-.377-.02-.572-.02-.1-.003-.194 0-.293 0h-2.347c-.195 0-.376.017-.568.02-.224-.005-.461-.02-.693-.02-3.972 0-7.349.864-11.085.957-3.742-.092-7.133-.957-11.109-.957-.238 0-.461.015-.689.02-.193-.003-.373-.02-.569-.02-.084-.002-.168 0-.256 0h-2.363c-.199 0-.396.017-.592.02-.222-.005-.438-.02-.669-.02-3.972 0-7.371.865-11.109.957-3.74-.092-7.133-.957-11.105-.957-.233 0-.46.015-.689.02-.19-.003-.379-.02-.573-.02-.091-.003-.181 0-.276 0H565.748c-.195 0-.38.017-.573.02-.229-.005-.456-.02-.688-.02-3.973 0-7.351.865-11.085.957-3.74-.092-7.117-.957-11.089-.957-.233 0-.467.015-.689.02-.192-.003-.378-.02-.573-.02-.1-.003-.198 0-.296 0H538.432c-.2 0-.392.017-.589.02-.221-.005-.438-.02-.669-.02-3.976 0-7.367.865-11.109.957-3.739-.093-7.132-.957-11.105-.957-.232 0-.46.015-.688.02-.193-.003-.378-.02-.573-.02-.084-.002-.167 0-.256 0h-2.383c-.199 0-.393.017-.589.02-.222-.004-.442-.02-.673-.02Z"/><path fill="url(#b)" fill-rule="evenodd" d="M601.475 374.909c-1.945 0-2.54.968-2.54.968-3.114 11.87-13.436 23.944-25.718 23.944h-9.195v12.087c0 .003.013 0 .019 0h69.981l-7.04-12.295c-11.047-1.626-20.073-12.765-22.948-23.736 0 0-.615-.968-2.559-.968Z"/><path fill="#97C924" fill-rule="evenodd" d="M601.861 374.909c-.889 0-1.429.203-1.744.398-.3.185-.357.309-.364.323 0 .007-.018.011-.02.019-1.587 5.965-4.935 11.957-9.449 16.484-4.549 4.561-10.284 7.654-16.56 7.654h-8.702v11.122h69l-6.44-11.273c-5.315-.686-10.174-3.545-14.126-7.503-4.519-4.527-7.86-10.518-9.449-16.484l-.019-.019c-.008-.014-.079-.117-.383-.304-.321-.196-.855-.417-1.744-.417Z"/><path fill="#EDE71F" fill-rule="evenodd" d="M601.59 374.974c.166 0 .315.024.457.04.027 3.457 0 9.291 0 12.376-.032 2.682-.936 4.839-2.268 7.38-.617 1.781-1.112 1.103-2.65 3.274-2.065.75-3.593 1.041-5.793 1.394-2.84.456-9.159.86-12.277.155 4.106-1.223 7.85-3.746 11.018-7.012a34.838 34.838 0 0 0 2.402-2.75 38.609 38.609 0 0 0 3.393-5.133 38.97 38.97 0 0 0 1.125-2.17 39.115 39.115 0 0 0 1.41-3.37c.14-.379.276-.763.4-1.143.252-.76.471-1.523.668-2.286.002-.007.017-.012.019-.02.007-.013.065-.14.362-.328.153-.098.374-.196.648-.272.006 0 .014.002.02 0a4.017 4.017 0 0 1 1.066-.135Z"/><path fill="#C6CB24" fill-rule="evenodd" d="M601.058 376.975c-.469 6.602-2.594 14.432-7.568 19.485-1.83 1.462-4.17 2.79-6.432 2.466 7.713-6.028 12.4-15.257 14-21.95Z"/><path fill="#9ECB34" fill-rule="evenodd" d="M595.064 387.974c-1.204 3.23-5.756 8.008-10.628 11.924-1.383.042-2.116.12-3.372.045 2.968-.267 9.886-6.033 14-11.969Z"/><path fill="url(#c)" fill-rule="evenodd" d="M586.543 375.881c3.074 11.869 13.254 23.942 25.387 23.942h9.092v12.085c0 .003-.016 0-.019 0h-73.962c-.007 0-.019.003-.019 0v-12.085h9.073c12.133 0 22.329-12.073 25.406-23.942 0 0 .6-.972 2.521-.972 1.921 0 2.521.972 2.521.972Z"/><path fill="#97C924" fill-rule="evenodd" d="M584.521 374.909c.881 0 1.41.221 1.728.417.302.187.373.29.38.304l.02.019c1.574 5.966 4.884 11.957 9.362 16.484 4.511 4.561 10.208 7.655 16.427 7.655h8.584v11.121h-73v-11.121h8.622c6.218 0 11.9-3.094 16.407-7.655 4.474-4.527 7.79-10.518 9.363-16.484.003-.008.017-.012.019-.019.007-.014.065-.137.361-.323.313-.195.848-.398 1.728-.398Z"/><path fill="#EDE71F" fill-rule="evenodd" d="M584.595 374.974c.166 0 .316.024.458.04.026 3.457 0 9.291 0 12.376-.033 2.682-.937 4.839-2.268 7.38-.618 1.781-1.113 1.103-2.65 3.274-2.066.75-3.594 1.041-5.795 1.394-2.838.456-9.158.86-12.276.155 4.106-1.223 7.85-3.746 11.018-7.012a34.96 34.96 0 0 0 2.402-2.75 38.732 38.732 0 0 0 3.393-5.133 39.77 39.77 0 0 0 1.125-2.17 39.109 39.109 0 0 0 1.41-3.37c.139-.379.275-.763.4-1.143.251-.76.47-1.523.668-2.286.001-.007.017-.012.018-.02.008-.013.066-.14.362-.328.153-.098.374-.196.649-.272.005 0 .014.002.019 0a4.026 4.026 0 0 1 1.067-.135Z"/><path fill="#C6CB24" fill-rule="evenodd" d="M583.06 376.975c-.436 6.602-2.41 14.432-7.03 19.485-1.698 1.462-3.87 2.79-5.97 2.466 7.16-6.028 11.513-15.257 13-21.95Z"/><path fill="#9ECB34" fill-rule="evenodd" d="M577.065 387.974c-1.118 3.23-5.345 8.008-9.87 11.924-1.283.042-1.964.12-3.13.045 2.755-.267 9.18-6.033 13-11.969Z"/><path fill="url(#d)" fill-rule="evenodd" d="M569.543 375.881c3.074 11.869 13.254 23.942 25.386 23.942h9.093v12.085c0 .003-.016 0-.019 0h-73.962c-.007 0-.019.003-.019 0v-12.085h9.073c12.133 0 22.329-12.073 25.406-23.942 0 0 .6-.972 2.521-.972 1.921 0 2.522.972 2.522.972Z"/><path fill="#97C924" fill-rule="evenodd" d="M567.022 374.909c.892 0 1.429.221 1.752.417.306.187.377.29.385.304l.019.019c1.596 5.966 4.952 11.957 9.491 16.484 4.574 4.561 10.348 7.655 16.652 7.655h8.701v11.121h-74v-11.121h8.74c6.304 0 12.063-3.094 16.633-7.655 4.534-4.527 7.896-10.518 9.49-16.484.004-.008.017-.012.019-.019.008-.014.066-.137.366-.323.317-.195.859-.398 1.752-.398Z"/><path fill="#EDE71F" fill-rule="evenodd" d="M565.953 374.942a3.54 3.54 0 0 0-.276.063c-.005.001-.015-.002-.02 0a2.45 2.45 0 0 0-.653.272c-.301.191-.359.316-.366.33-.002.008-.018.013-.02.021-.2.767-.423 1.538-.677 2.303-.126.383-.266.767-.407 1.148a39.305 39.305 0 0 1-1.425 3.395 39.781 39.781 0 0 1-1.139 2.186 38.955 38.955 0 0 1-3.435 5.165c-.766.97-1.58 1.898-2.432 2.772-3.207 3.288-6.994 5.827-11.15 7.058 3.156.71 4.602-.065 7.475-.523 2.228-.356 4.806-.65 6.897-1.405 1.557-2.185 1.026-1.5 1.651-3.293 1.348-2.559 3.316-4.871 3.805-7.709 1.848-3.486 2.172-9.938 2.172-11.783Z"/><path fill="#C6CB24" fill-rule="evenodd" d="M566.07 376.975c-.47 6.602-2.595 14.432-7.57 19.485-1.83 1.462-4.169 2.79-6.431 2.466 7.713-6.028 12.4-15.257 14-21.95Z"/><path fill="#9ECB34" fill-rule="evenodd" d="M560.022 387.904c-1.119 3.23-5.346 8.009-9.87 11.924-1.284.042-1.964.12-3.13.045 2.755-.268 9.179-6.034 13-11.969Z"/><path fill="url(#e)" fill-rule="evenodd" d="M552.078 375.881c3.115 11.869 13.432 23.942 25.729 23.942h9.215v12.085c0 .003-.016 0-.019 0h-74.962c-.006 0-.019.003-.019 0v-12.085h9.196c12.297 0 22.63-12.073 25.749-23.942 0 0 .609-.972 2.556-.972s2.555.972 2.555.972Z"/><path fill="#97C924" fill-rule="evenodd" d="M549.907 374.909c-.89 0-1.425.221-1.747.417-.305.187-.376.29-.383.304l-.02.019c-1.591 5.966-4.936 11.957-9.46 16.484-4.56 4.561-10.317 7.655-16.601 7.655h-8.674v11.121h73.769l.231-11.121h-8.713c-6.284 0-12.256-3.094-16.811-7.655-4.52-4.526-7.872-10.518-9.461-16.484-.004-.008-.017-.011-.019-.019-.008-.013-.066-.137-.365-.322-.316-.196-.856-.398-1.746-.398Z"/><path fill="#93BC30" fill-rule="evenodd" d="M547.907 376.968c-.702 10.036-6.436 22.699-12.91 24.881-2.111.712-5.804.959-7.09 1.119 11.327-5.251 18.02-17.593 20-26Z"/><path fill="url(#f)" fill-rule="evenodd" d="M532.063 374.909c-1.919 0-2.524.968-2.524.968-2.833 10.94-13.279 25.05-24.139 26.726l-5.378 9.305h68.981c.003 0 .019.003.019 0v-12.087h-9.093c-12.119 0-22.289-12.074-25.36-23.944 0 0-.587-.968-2.506-.968Z"/><path fill="#97C924" fill-rule="evenodd" d="M532.142 374.909c-.89 0-1.424.221-1.746.417-.305.187-.376.29-.383.304a.368.368 0 0 0-.02.019c-1.591 5.966-5.309 11.998-9.171 16.8-3.862 4.802-11.033 9.66-15.939 10.173l-4.861 8.287h69v-11.122h-8.711c-6.284 0-12.024-3.093-16.579-7.654-4.519-4.527-7.87-10.518-9.459-16.484-.002-.008-.018-.012-.019-.019-.008-.014-.066-.137-.365-.323-.317-.195-.857-.398-1.747-.398Z"/><path fill="#93BC30" fill-rule="evenodd" d="M531.022 376.91c-.702 10.036-6.436 22.699-12.91 24.881-2.111.711-5.804.959-7.09 1.119 11.327-5.251 18.02-17.593 20-26Z"/><path fill="#EDE71F" fill-rule="evenodd" d="M532.398 374.974c-.166 0-.315.025-.457.039-.027 3.444 0 9.255 0 12.328.033 2.67.937 4.819 2.268 7.351.077.221.153.403.229.559.462 1.239.804 1.669 2.573 3.029 5.624 4.321 12.596 4.968 16.698 4.611-1.285-1.026-2.659-1.958-3.869-2.817 1.929-.063 3.778-.284 5.089-.579-4.105-1.218-7.849-3.731-11.017-6.984a34.385 34.385 0 0 1-1.582-1.775 36.172 36.172 0 0 0-.668-.926c-1.26-1.598-2.55-3.363-3.545-5.151a40.263 40.263 0 0 1-1.125-2.161 39.046 39.046 0 0 1-1.41-3.356c-.139-.378-.275-.76-.401-1.139a36.988 36.988 0 0 1-.667-2.277c-.002-.007-.017-.011-.019-.019-.007-.013-.065-.139-.362-.328a2.508 2.508 0 0 0-.648-.27h-.019a4.033 4.033 0 0 0-1.068-.135Z"/><path fill="#C6CB24" fill-rule="evenodd" d="M533.022 376.912c.469 6.601 2.594 14.431 7.569 19.484 1.83 1.463 4.169 2.79 6.431 2.467-7.712-6.028-12.4-15.258-14-21.951Z"/><path fill="#9ECB34" fill-rule="evenodd" d="M538.022 385.908c2.635 6.629 9.311 12.822 16.179 16.984 1.279.04 1.658.004 2.821-.068-4.915-2.693-12.836-6.536-19-16.916Z"/><path fill="#EDE71F" fill-rule="evenodd" d="M568.05 374.942c.005.002.014-.001.02 0 .267.077.48.174.63.272.291.19.347.314.354.328.002.008.018.013.02.02.193.765.408 1.532.653 2.294.122.381.257.764.393 1.143.406 1.138.862 2.27 1.377 3.38a40 40 0 0 0 1.1 2.177 38.773 38.773 0 0 0 3.32 5.143c.739.966 1.526 1.89 2.349 2.76 3.098 3.275 6.757 6.256 10.772 7.482-7.99.032-11.456-.724-14.36-4.614-2.904-3.891-3.976-5.593-4.566-7.97-.59-2.376-2.233-7.548-2.062-12.415Z"/><path fill="#FFF" fill-rule="evenodd" d="M512.219 405.912c-3.255 0-7.031.674-10.104.944l-7.093 12.054 71.206-.008 72.794.008-7.117-12.101c-2.94-.288-6.598-.897-9.717-.897-.303 0-.588.01-.882.019-.201-.004-.426-.019-.63-.019-.135 0-.251-.004-.383 0-.132-.004-.263 0-.399 0-.204 0-.393.015-.594.019-.294-.009-.575-.019-.878-.019-4.073 0-7.519 1.053-11.393 1.053-3.881 0-7.316-1.053-11.393-1.053-.303 0-.588.01-.881.019-.202-.004-.387-.019-.591-.019-.135 0-.27-.004-.403 0-.132-.004-.264 0-.399 0-.204 0-.413.015-.614.019-.294-.009-.575-.019-.878-.019-4.072 0-7.515 1.053-11.393 1.053-3.877 0-7.319-1.053-11.393-1.053-.302 0-.604.01-.897.019-.201-.004-.39-.019-.595-.019-.135 0-.266-.004-.398 0-.133-.004-.268 0-.403 0-.205 0-.394.015-.595.019-.293-.009-.595-.019-.897-.019-4.073 0-7.5 1.053-11.373 1.053-3.878 0-7.301-1.053-11.373-1.053-.303 0-.584.01-.878.019-.201-.004-.426-.019-.63-.019-.136 0-.251-.004-.383 0-.133-.004-.268 0-.403 0-.204 0-.389.015-.591.019-.293-.009-.578-.019-.881-.019-4.077 0-7.511 1.054-11.393 1.053-3.878 0-7.32-1.053-11.393-1.053-.296 0-.59.011-.878.019-.204-.004-.383-.019-.59-.019-.141 0-.285-.004-.423 0-.132-.004-.268 0-.403 0-.204 0-.409.015-.61.019-.293-.009-.575-.019-.878-.019Z"/><path fill="#025" fill-rule="evenodd" d="M510.564 405.913c-2.978 0-5.614.526-8.326.83l-.497.834h.056c3.929 0 7.252-.957 10.948-1.059 3.697.101 7.051 1.059 10.983 1.059.275 0 .532-.011.798-.019h.1c.112.003.234.015.349.019.1 0 .195.004.293 0 .138 0 .254.004.388 0 .135.004.271 0 .409 0 .074 0 .146.004.217 0 .077.004.157 0 .232 0 .138 0 .254.004.389 0 .135.004.271 0 .409 0h.253c.116-.004.233-.017.352-.019h.097c.265.007.522.019.797.019 3.929 0 7.286-.957 10.984-1.059 3.7.102 7.08 1.059 11.008 1.059.275 0 .533-.011.798-.019h.096c.119.003.233.015.349.019h.256c.138 0 .274.004.409 0 .135.004.271 0 .409 0 .071 0 .14.004.212 0 .072.004.143 0 .217 0 .137 0 .274.004.409 0 .135.004.271 0 .409 0h.272c.119-.004.234-.017.349-.019h.096c.266.007.523.019.798.019 3.929 0 7.273-.957 10.968-1.059 3.697.102 7.034 1.059 10.963 1.059.269 0 .539-.012.798-.019h.12c.11.003.217.015.329.019.099 0 .197.004.293 0 .138 0 .274.004.409 0 .135.004.251 0 .389 0 .073 0 .145.004.216 0 .08.004.155 0 .233 0 .137 0 .273.004.408 0 .135.004.252 0 .389 0h.273c.11-.004.22-.017.333-.019h.116c.259.007.528.019.798.019 3.928 0 7.284-.957 10.983-1.059 3.702.1 7.057 1.059 10.988 1.059.275 0 .533-.011.798-.019h.096c.119.003.233.015.349.019h.256c.138 0 .274.004.409 0 .135.004.271 0 .409 0 .072 0 .14.004.213 0 .07.004.139 0 .212 0 .138 0 .278.004.413 0 .135.004.271 0 .409 0h.272c.119-.004.234-.017.349-.019h.096c.266.007.524.019.798.019 3.929 0 7.274-.957 10.968-1.059 3.696.102 7.055 1.059 10.984 1.059.129 0 .257-.003.385-.008l-.518-.869c-2.57-.309-5.103-.787-7.929-.787-.229 0-.464.013-.685.019-.19-.004-.369-.019-.561-.019-.1-.004-.195 0-.293 0-.138 0-.274-.004-.409 0-.135-.004-.251 0-.389 0-.073 0-.146-.004-.216 0-.08-.004-.155 0-.233 0-.138 0-.274-.004-.409 0-.135-.004-.251 0-.389 0h-.272c-.193 0-.376.015-.565.019-.221-.006-.452-.019-.682-.019-3.928 0-7.272.938-10.968 1.04-3.7-.102-7.051-1.04-10.983-1.04-.234 0-.456.013-.682.019-.191-.004-.372-.019-.565-.019-.084-.004-.165 0-.253 0-.138 0-.274-.004-.408 0-.135-.004-.272 0-.409 0-.072 0-.141-.004-.213 0-.071-.004-.143 0-.216 0-.137 0-.274-.004-.409 0-.135-.004-.271 0-.409 0h-.273c-.197 0-.391.014-.585.019-.219-.006-.434-.019-.661-.019-3.929 0-7.286.938-10.984 1.04-3.698-.102-7.056-1.04-10.984-1.04-.23 0-.454.013-.682.019-.187-.004-.374-.019-.565-.019-.09-.004-.178 0-.272 0-.138 0-.274-.004-.409 0-.135-.004-.271 0-.409 0-.074 0-.142-.004-.212 0-.072-.004-.143 0-.217 0-.138 0-.274-.004-.409 0-.135-.004-.271 0-.409 0h-.272c-.193 0-.375.015-.566.019-.227-.006-.451-.019-.681-.019-3.929 0-7.271.938-10.964 1.04-3.698-.102-7.039-1.04-10.968-1.04-.229 0-.46.013-.681.019-.19-.004-.368-.019-.561-.019-.099-.004-.195 0-.293 0-.138 0-.274-.004-.409 0-.135-.004-.251 0-.389 0-.074 0-.145-.004-.216 0-.079-.004-.155 0-.233 0-.138 0-.274-.004-.408 0-.135-.004-.252 0-.389 0h-.257c-.197 0-.387.014-.581.019-.219-.006-.438-.019-.666-.019-3.932 0-7.282.938-10.983 1.04-3.698-.102-7.055-1.04-10.984-1.04-.23 0-.456.013-.682.019-.19-.004-.372-.019-.565-.019-.083-.004-.164 0-.252 0-.144 0-.289-.004-.429 0-.135-.004-.271 0-.409 0-.072 0-.144-.004-.217 0-.064-.004-.124 0-.192 0-.143 0-.289-.004-.429 0-.135-.004-.271 0-.409 0h-.273c-.197 0-.391.014-.585.019-.219-.006-.433-.019-.661-.019Zm0 1.416c-3.31 0-6.195.668-9.232.939l-.425.706h.092c.266.008.523.019.798.019 3.929 0 7.252-.957 10.948-1.059 3.697.102 7.051 1.059 10.983 1.059.275 0 .532-.011.798-.019h.1c.112.003.234.015.349.019.1 0 .195.004.293 0 .138 0 .254.004.388 0 .135.004.271 0 .409 0 .074 0 .146.004.217 0 .077.004.157 0 .232 0 .138 0 .254.004.389 0 .135.004.271 0 .409 0h.253c.116-.004.233-.016.352-.019h.097c.265.008.522.019.797.019 3.929 0 7.286-.957 10.984-1.059 3.7.102 7.08 1.059 11.008 1.059.275 0 .533-.011.798-.019h.096c.119.003.233.015.349.019h.256c.138 0 .274.004.409 0 .135.004.271 0 .409 0 .071 0 .14.004.212 0 .072.004.143 0 .217 0 .137 0 .274.004.409 0 .135.004.271 0 .409 0h.272c.119-.004.234-.016.349-.019h.096c.266.008.523.019.798.019 3.929 0 7.273-.957 10.968-1.059 3.697.102 7.034 1.059 10.963 1.059.269 0 .539-.011.798-.019h.12c.11.003.217.015.329.019.099 0 .197.004.293 0 .138 0 .274.004.409 0 .135.004.251 0 .389 0 .073 0 .145.004.216 0 .08.004.155 0 .233 0 .137 0 .273.004.408 0 .135.004.252 0 .389 0h.273c.11-.004.22-.016.333-.019h.116c.259.008.528.019.798.019 3.928 0 7.284-.957 10.983-1.059 3.702.101 7.057 1.059 10.988 1.059.275 0 .533-.011.798-.019h.096c.119.003.233.015.349.019h.256c.138 0 .274.004.409 0 .135.004.271 0 .409 0 .072 0 .14.004.213 0 .07.004.139 0 .212 0 .138 0 .278.004.413 0 .135.004.271 0 .409 0h.272c.119-.004.234-.016.349-.019h.096c.266.008.524.019.798.019 3.929 0 7.274-.957 10.968-1.059 3.696.102 7.055 1.059 10.984 1.059.269 0 .533-.011.798-.019h.116c.108.003.215.015.32.019l-.457-.768c-2.891-.29-5.682-.896-8.843-.896-.229 0-.46.013-.681.02-.19-.005-.373-.02-.565-.02-.099-.004-.191 0-.289 0h-.802c-.073 0-.142-.003-.212 0-.08-.003-.155 0-.233 0h-1.07c-.193 0-.376.015-.565.02-.221-.006-.452-.02-.682-.02-3.928 0-7.272.938-10.968 1.04-3.7-.101-7.051-1.04-10.983-1.04-.235 0-.456.013-.682.02-.191-.005-.372-.02-.565-.02-.084-.003-.165 0-.253 0h-.817c-.072 0-.141-.003-.213 0-.071-.003-.142 0-.216 0h-1.091c-.196 0-.391.015-.585.02-.219-.006-.434-.02-.661-.02-3.929 0-7.286.938-10.984 1.04-3.698-.102-7.056-1.04-10.984-1.04-.23 0-.454.013-.682.02-.187-.005-.374-.02-.565-.02-.09-.004-.178 0-.272 0h-.818c-.074 0-.146-.003-.217 0-.071-.003-.138 0-.212 0H565.896c-.193 0-.376.015-.566.02-.227-.006-.451-.02-.681-.02-3.929 0-7.271.938-10.964 1.04-3.698-.102-7.039-1.04-10.968-1.04-.229 0-.461.013-.681.02-.19-.005-.373-.02-.565-.02-.099-.004-.192 0-.289 0h-.802c-.074 0-.141-.003-.212 0-.079-.003-.155 0-.233 0H538.881c-.197 0-.387.015-.581.02-.219-.006-.438-.02-.666-.02-3.932 0-7.282.939-10.983 1.04-3.698-.102-7.055-1.04-10.984-1.04-.23 0-.456.013-.682.02-.19-.005-.372-.02-.565-.02-.083-.003-.164 0-.252 0-.144 0-.289-.003-.429 0h-.409c-.072 0-.144-.003-.217 0h-.192c-.143 0-.289-.003-.429 0H511.81c-.197 0-.391.015-.585.02-.219-.006-.433-.02-.661-.02Zm0 1.42c-3.621 0-6.747.778-10.106.982l-.405.678h.497c.115-.004.241-.017.353-.019h.096c.266.008.523.019.798.019 3.928 0 7.252-.938 10.948-1.039 3.697.1 7.051 1.039 10.983 1.039.275 0 .532-.011.798-.019h.1c.112.003.234.015.349.019h1.09c.074 0 .146.004.217 0 .077.004.157 0 .232 0H527.565c.116-.004.233-.017.352-.019h.097c.265.008.522.019.797.019 3.929 0 7.286-.938 10.984-1.039 3.7.101 7.076 1.039 11.004 1.039.275 0 .537-.011.802-.019h.096c.119.003.233.015.349.019h1.07c.071 0 .144.004.216 0 .072.004.139 0 .213 0H554.635c.119-.004.238-.017.353-.019h.096c.266.008.523.019.798.019 3.929 0 7.274-.938 10.968-1.039 3.697.101 7.035 1.039 10.963 1.039.269 0 .539-.011.798-.019h.116c.11.003.221.015.333.019h1.091c.073 0 .145.004.216 0 .08.004.155 0 .233 0H581.67c.11-.004.22-.017.333-.019h.116c.259.008.528.019.798.019 3.928 0 7.284-.938 10.983-1.039 3.702.1 7.053 1.039 10.984 1.039.275 0 .537-.011.802-.019h.096c.119.003.233.015.349.019h1.074c.072 0 .14.004.213 0 .07.004.139 0 .212 0H608.724c.119-.004.234-.017.349-.019h.096c.266.008.524.019.798.019 3.929 0 7.274-.938 10.968-1.039 3.696.101 7.055 1.039 10.984 1.039.269 0 .533-.011.798-.019h.116c.113.003.223.015.333.019H633.999l-.417-.702c-3.216-.237-6.246-.958-9.729-.958-.229 0-.46.013-.681.019-.19-.004-.373-.019-.565-.019-.099-.004-.195 0-.293 0-.138 0-.27-.003-.405 0-.135-.003-.255 0-.393 0-.073 0-.142-.003-.212 0-.08-.003-.155 0-.233 0-.138 0-.274-.003-.409 0-.135-.003-.255 0-.392 0h-.273c-.193 0-.376.015-.565.019-.221-.006-.452-.019-.682-.019-3.928 0-7.269.934-10.964 1.036-3.7-.101-7.051-1.036-10.983-1.036-.235 0-.456.013-.682.019-.191-.004-.372-.019-.565-.019-.084-.003-.165 0-.253 0-.138 0-.274-.003-.408 0-.135-.003-.272 0-.409 0-.072 0-.145-.003-.217 0-.07-.003-.138 0-.212 0-.137 0-.274-.003-.409 0-.135-.003-.271 0-.409 0h-.273c-.196 0-.391.014-.585.019-.219-.006-.434-.019-.661-.019-3.929 0-7.286.934-10.984 1.036-3.698-.102-7.056-1.036-10.984-1.036-.23 0-.458.013-.685.019-.188-.004-.371-.019-.562-.019-.09-.004-.178 0-.272 0-.138 0-.274-.003-.409 0-.135-.003-.271 0-.409 0-.074 0-.146-.003-.217 0-.071-.003-.138 0-.212 0-.138 0-.274-.003-.409 0-.135-.003-.271 0-.409 0h-.272c-.193 0-.375.015-.566.019-.227-.006-.452-.019-.681-.019-3.929 0-7.271.934-10.964 1.036-3.697-.102-7.039-1.036-10.968-1.036-.229 0-.46.013-.681.019-.19-.004-.373-.019-.565-.019-.099-.004-.195 0-.293 0-.138 0-.274-.003-.409 0-.135-.003-.251 0-.389 0-.073 0-.141-.003-.212 0-.079-.003-.159 0-.237 0-.138 0-.273-.003-.408 0-.135-.003-.252 0-.389 0h-.253c-.142 0-1.293.061-1.932.153-.638.091-6.863.761-10.298.883-3.698-.102-7.055-1.036-10.984-1.036-.23 0-.456.013-.682.019-.19-.004-.372-.019-.565-.019-.083-.003-.164 0-.252 0-.144 0-.289-.003-.429 0-.135-.003-.271 0-.409 0-.072 0-.144-.003-.217 0-.064-.003-.124 0-.192 0-.143 0-.289-.003-.429 0-.135-.003-.271 0-.409 0h-.273c-.197 0-.391.014-.585.019-.218-.007-.433-.019-.661-.019Zm0 1.416c-3.929 0-7.275.934-10.968 1.036h-.016l-.373.624h.04c.071.004.139 0 .213 0 .138 0 .274.004.409 0 .135.004.251 0 .388 0 .098.004.193 0 .293 0 .115-.004.241-.017.353-.019h.096c.266.008.523.019.798.019 3.928 0 7.252-.937 10.948-1.039 3.697.101 7.051 1.039 10.983 1.039.275 0 .533-.011.798-.019h.1c.112.003.234.016.349.019.1 0 .195.004.293 0 .138 0 .254.004.388 0 .135.004.271 0 .409 0 .074 0 .146.004.217 0 .077.004.157 0 .232 0 .138 0 .254.004.389 0 .135.004.271 0 .409 0h.253c.116-.004.233-.016.352-.019h.097c.265.008.522.019.797.019 3.929 0 7.286-.938 10.984-1.039 3.7.101 7.076 1.039 11.004 1.039.275 0 .537-.011.802-.019h.096c.119.003.233.015.349.019h.256c.138 0 .274.004.409 0 .135.004.268 0 .405 0 .071 0 .144.004.216 0 .072.004.139 0 .213 0 .137 0 .274.004.409 0 .135.004.271 0 .409 0h.272c.119-.004.238-.016.353-.019h.096c.266.008.523.019.798.019 3.929 0 7.274-.938 10.968-1.039 3.697.101 7.035 1.039 10.963 1.039.269 0 .539-.011.798-.019h.116c.11.003.221.016.333.019.099 0 .197.004.293 0 .138 0 .274.004.409 0 .135.004.251 0 .389 0 .073 0 .145.004.216 0 .08.004.155 0 .233 0 .137 0 .273.004.408 0 .135.004.252 0 .389 0h.273c.11-.004.22-.017.333-.019h.116c.259.008.528.019.798.019 3.928 0 7.284-.938 10.983-1.039 3.702.1 7.053 1.039 10.984 1.039.275 0 .537-.011.802-.019h.096c.119.003.233.015.349.019h.256c.138 0 .274.004.409 0 .135.004.271 0 .409 0 .072 0 .14.004.213 0 .07.004.139 0 .212 0 .138 0 .274.004.409 0 .135.004.271 0 .409 0h.276c.119-.004.234-.016.349-.019h.096c.266.008.524.019.798.019 3.929 0 7.274-.938 10.968-1.039 3.697.101 7.055 1.039 10.984 1.039.269 0 .533-.011.798-.019h.116c.113.003.223.016.333.019h.272c.138 0 .274.004.409 0 .135.004.271 0 .409 0 .073 0 .141.004.212 0 .071.004.143 0 .217 0h.16l-.381-.636c-3.557-.148-6.808-1.024-10.611-1.024-.229 0-.46.01-.681.015-.19-.004-.373-.015-.565-.015-.1-.004-.195 0-.293 0h-.798c-.073 0-.142-.003-.212 0-.08-.003-.159 0-.237 0H619.997c-.193 0-.376.011-.565.015-.221-.006-.452-.015-.682-.015-3.969 0-7.339.952-11.08 1.036-3.654-.118-6.976-1.036-10.867-1.036-.234 0-.456.009-.682.015-.191-.004-.372-.015-.565-.015-.084-.003-.165 0-.253 0h-.817c-.072 0-.145-.003-.217 0-.071-.003-.139 0-.212 0h-1.091c-.197 0-.391.011-.585.015-.219-.005-.433-.015-.661-.015-3.929 0-7.286.934-10.984 1.036-3.698-.102-7.06-1.036-10.988-1.036-.23 0-.454.01-.681.015-.188-.004-.375-.015-.566-.015-.09-.004-.178 0-.272 0h-.818c-.074 0-.141-.003-.213 0-.07-.003-.138 0-.212 0H565.892c-.193 0-.371.011-.561.015-.228-.006-.453-.015-.682-.015-3.929 0-7.275.934-10.968 1.036-3.698-.102-7.035-1.036-10.964-1.036-.229 0-.46.01-.681.015-.19-.004-.373-.015-.565-.015-.099-.004-.195 0-.293 0h-.798c-.074 0-.145-.003-.216 0-.079-.003-.155 0-.233 0H538.881c-.197 0-.391.011-.585.015-.219-.005-.433-.015-.662-.015-3.89 0-7.213.918-10.867 1.036-3.744-.084-7.134-1.036-11.104-1.036-.23 0-.455.009-.682.015-.19-.004-.372-.015-.565-.015-.083-.003-.164 0-.252 0-.144 0-.289-.003-.429 0h-.409c-.072 0-.14-.003-.213 0h-.196c-.143 0-.289-.003-.429 0H511.806c-.197 0-.391.011-.585.015-.216-.005-.429-.015-.657-.015Zm0 1.416c-3.929 0-7.275.938-10.968 1.04a22.8 22.8 0 0 1-.838-.043l-.397.664h.654c.076 0 .156.003.232 0 .071.003.139 0 .213 0H500.55c.115-.005.241-.018.353-.02h.096c.266.008.523.02.798.02 3.928 0 7.252-.938 10.948-1.04 3.697.101 7.051 1.04 10.983 1.04.275 0 .532-.012.798-.02h.1c.112.003.234.015.349.02h1.09c.074 0 .146.003.217 0 .077.003.157 0 .232 0H527.565c.116-.005.233-.018.352-.02h.097c.265.008.522.02.797.02 3.929 0 7.286-.938 10.984-1.04 3.7.102 7.076 1.04 11.004 1.04.275 0 .537-.012.802-.02h.096c.119.003.233.015.349.02h1.07c.071 0 .144.003.216 0 .072.003.139 0 .213 0H554.635c.119-.005.238-.018.353-.02h.096c.266.008.523.02.798.02 3.929 0 7.274-.938 10.968-1.04 3.697.102 7.035 1.04 10.963 1.04.269 0 .539-.013.798-.02h.116c.11.003.221.015.333.02h1.091c.073 0 .145.003.216 0 .08.003.155 0 .233 0H581.67c.11-.005.22-.018.333-.02h.116c.259.008.528.02.798.02 3.928 0 7.284-.938 10.983-1.04 3.702.1 7.053 1.04 10.984 1.04.275 0 .537-.012.802-.02h.096c.119.003.233.015.349.02h1.074c.072 0 .14.003.213 0 .07.003.139 0 .212 0H608.724c.119-.005.234-.018.349-.02h.096c.266.008.524.02.798.02 3.929 0 7.274-.938 10.968-1.04 3.696.102 7.055 1.04 10.984 1.04.269 0 .533-.013.798-.02h.116c.113.003.223.015.333.02h1.09c.073 0 .141.003.212 0 .071.003.143 0 .217 0h1.006l-.389-.648c-.16.01-.32.019-.481.023-3.698-.101-7.039-1.036-10.968-1.036-.229 0-.46.013-.681.02-.19-.005-.373-.02-.565-.02-.1-.004-.195 0-.293 0-.138 0-.27-.003-.405 0-.135-.003-.255 0-.393 0-.073 0-.142-.003-.212 0-.08-.003-.155 0-.233 0-.138 0-.274-.003-.409 0-.135-.003-.255 0-.392 0h-.273c-.193 0-.376.014-.565.02-.221-.007-.452-.02-.682-.02-3.928 0-7.269.934-10.964 1.036-3.7-.101-7.051-1.036-10.983-1.036-.234 0-.456.013-.682.02-.191-.005-.372-.02-.565-.02-.084-.003-.165 0-.253 0-.138 0-.274-.003-.408 0-.135-.003-.272 0-.409 0-.072 0-.145-.003-.217 0-.071-.003-.139 0-.212 0-.137 0-.274-.003-.409 0-.135-.003-.271 0-.409 0h-.273c-.197 0-.391.014-.585.02-.219-.007-.434-.02-.661-.02-3.929 0-7.287.935-10.984 1.036-3.698-.101-7.056-1.036-10.984-1.036-.23 0-.458.013-.685.02-.188-.005-.371-.02-.562-.02-.09-.004-.178 0-.272 0-.138 0-.274-.003-.409 0-.135-.003-.271 0-.409 0-.074 0-.146-.003-.217 0-.07-.003-.138 0-.212 0-.138 0-.274-.003-.409 0-.135-.003-.271 0-.409 0h-.272c-.193 0-.375.014-.566.02-.227-.007-.451-.02-.681-.02-3.928 0-7.271.935-10.964 1.036-3.697-.101-7.039-1.036-10.968-1.036-.229 0-.46.013-.681.02-.19-.005-.372-.02-.565-.02-.099-.004-.195 0-.293 0-.138 0-.274-.003-.409 0-.135-.003-.251 0-.389 0-.074 0-.141-.003-.212 0-.079-.003-.159 0-.237 0-.138 0-.274-.003-.408 0-.135-.003-.252 0-.389 0h-.253c-.197 0-.391.014-.585.02-.219-.007-.434-.02-.662-.02-3.932 0-7.282.935-10.983 1.036-3.698-.102-7.055-1.036-10.984-1.036-.23 0-.456.013-.682.02-.19-.005-.372-.02-.565-.02-.083-.003-.164 0-.252 0-.144 0-.289-.003-.429 0-.135-.003-.271 0-.409 0-.072 0-.144-.003-.217 0-.064-.003-.124 0-.192 0-.143 0-.289-.003-.429 0-.135-.003-.271 0-.409 0h-.273c-.197 0-.391.014-.585.02-.218-.007-.433-.02-.661-.02Zm0 1.416c-3.929 0-7.275.938-10.968 1.04a28.6 28.6 0 0 1-1.648-.097l-.416.698h.08c.119.004.232.015.348.02h.253c.138 0 .274.003.409 0 .135.003.255 0 .393 0 .076 0 .156.003.232 0 .071.003.139 0 .213 0 .138 0 .274.003.409 0 .135.003.251 0 .388 0 .098.003.193 0 .293 0 .115-.005.241-.017.353-.02h.096c.266.008.523.02.798.02 3.928 0 7.252-.935 10.948-1.036 3.697.101 7.051 1.036 10.983 1.036.275 0 .533-.012.798-.02h.1c.112.004.234.015.349.02.101 0 .195.003.293 0 .138 0 .253.003.388 0 .135.003.271 0 .409 0 .074 0 .146.003.217 0 .077.003.157 0 .232 0 .138 0 .254.003.389 0 .135.003.271 0 .409 0h.253c.116-.005.233-.017.352-.02h.097c.265.008.523.02.797.02 3.929 0 7.287-.935 10.984-1.036 3.7.101 7.076 1.036 11.004 1.036.275 0 .537-.012.802-.02h.096c.119.004.233.015.349.02h.256c.138 0 .274.003.409 0 .135.003.268 0 .405 0 .071 0 .144.003.216 0 .072.003.139 0 .213 0 .137 0 .274.003.409 0 .135.003.271 0 .409 0h.272c.119-.005.238-.017.353-.02h.096c.266.008.523.02.798.02 3.929 0 7.274-.935 10.968-1.036 3.697.101 7.035 1.036 10.963 1.036.269 0 .539-.012.798-.02h.116c.11.004.221.015.333.02.099 0 .197.003.293 0 .138 0 .274.003.409 0 .135.003.251 0 .389 0 .073 0 .145.003.216 0 .08.003.155 0 .233 0 .137 0 .273.003.408 0 .135.003.252 0 .389 0h.273c.11-.005.22-.017.333-.02h.116c.259.008.528.02.798.02 3.928 0 7.284-.935 10.983-1.036 3.702.1 7.053 1.036 10.984 1.036.275 0 .537-.012.802-.02h.096c.119.004.233.015.349.02h.256c.138 0 .274.003.409 0 .135.003.271 0 .409 0 .072 0 .14.003.213 0 .07.003.139 0 .212 0 .138 0 .274.003.409 0 .135.003.271 0 .409 0h.276c.119-.005.234-.017.349-.02h.096c.266.008.524.02.798.02 3.929 0 7.274-.935 10.968-1.036 3.696.101 7.055 1.036 10.984 1.036.269 0 .533-.012.798-.02h.116c.113.004.223.015.333.02h.272c.138 0 .274.003.409 0 .135.003.271 0 .409 0 .073 0 .141.003.212 0 .071.003.143 0 .217 0 .138 0 .274.003.409 0 .135.003.271 0 .409 0h.252c.116-.005.23-.017.349-.02h.1l.325.012-.413-.695c-.427.035-.861.07-1.295.082-3.698-.102-7.039-1.04-10.968-1.04-.229 0-.46.013-.681.02-.19-.005-.373-.02-.565-.02-.099-.004-.195 0-.293 0-.138 0-.27-.003-.405 0-.135-.003-.255 0-.393 0-.073 0-.142-.003-.212 0-.08-.003-.155 0-.233 0-.138 0-.274-.003-.409 0-.135-.003-.255 0-.392 0h-.273c-.193 0-.376.015-.565.02-.221-.007-.452-.02-.682-.02-3.928 0-7.269.938-10.964 1.04-3.7-.101-7.051-1.04-10.983-1.04-.235 0-.456.013-.682.02-.191-.005-.372-.02-.565-.02-.084-.003-.165 0-.253 0-.138 0-.274-.003-.408 0-.135-.003-.272 0-.409 0-.072 0-.145-.003-.217 0-.071-.003-.138 0-.212 0-.137 0-.274-.003-.409 0-.135-.003-.271 0-.409 0h-.273c-.196 0-.391.014-.585.02-.219-.007-.434-.02-.661-.02-3.929 0-7.287.938-10.984 1.04-3.698-.102-7.056-1.04-10.984-1.04-.23 0-.458.013-.685.02-.188-.005-.371-.02-.562-.02-.09-.004-.178 0-.272 0-.138 0-.274-.003-.409 0-.135-.003-.271 0-.409 0-.074 0-.146-.003-.217 0-.07-.003-.138 0-.212 0-.138 0-.274-.003-.409 0-.135-.003-.271 0-.409 0h-.272c-.193 0-.375.015-.566.02-.227-.007-.451-.02-.681-.02-3.928 0-7.271.938-10.964 1.04-3.697-.102-7.039-1.04-10.968-1.04-.229 0-.461.013-.681.02-.19-.005-.373-.02-.565-.02-.099-.004-.196 0-.293 0-.138 0-.274-.003-.409 0-.135-.003-.251 0-.389 0-.074 0-.141-.003-.212 0-.079-.003-.155 0-.233 0-.138 0-.277-.003-.412 0-.135-.003-.252 0-.389 0h-.253c-.197 0-.391.014-.585.02-.219-.007-.434-.02-.662-.02-3.932 0-7.282.939-10.983 1.04-3.698-.102-7.055-1.04-10.984-1.04-.23 0-.456.013-.682.02-.19-.005-.372-.02-.565-.02-.083-.003-.164 0-.252 0-.144 0-.289-.003-.429 0-.135-.003-.271 0-.409 0-.072 0-.144-.003-.217 0-.064-.003-.124 0-.192 0-.143 0-.289-.003-.429 0-.135-.003-.271 0-.409 0h-.273c-.197 0-.391.014-.585.02-.218-.007-.433-.02-.661-.02Zm0 1.416c-3.929 0-7.275.938-10.968 1.04a29.345 29.345 0 0 1-2.437-.19l-.485.811h.04c.274 0 .536-.009.801-.016h.097c.119.003.232.012.348.016h.253c.138 0 .274.003.409 0 .135.003.255 0 .393 0 .076 0 .156.003.232 0 .071.003.139 0 .213 0 .138 0 .274.003.409 0 .135.003.251 0 .388 0 .098.003.193 0 .293 0 .115-.005.241-.014.353-.016h.096c.266.008.523.016.798.016 3.928 0 7.252-.934 10.948-1.036 3.697.101 7.051 1.036 10.983 1.036.275 0 .533-.009.798-.016h.1c.112.003.234.012.349.016.101 0 .195.003.293 0 .138 0 .253.003.388 0 .135.003.271 0 .409 0 .074 0 .146.003.217 0 .077.003.157 0 .232 0 .138 0 .254.003.389 0 .135.003.271 0 .409 0h.253c.116-.005.233-.014.352-.016h.097c.265.008.523.016.797.016 3.929 0 7.287-.935 10.984-1.036 3.7.101 7.076 1.036 11.004 1.036.275 0 .537-.009.802-.016h.096c.119.003.233.012.349.016h.256c.138 0 .274.003.409 0 .135.003.268 0 .405 0 .071 0 .144.003.216 0 .072.003.139 0 .213 0 .137 0 .274.003.409 0 .135.003.271 0 .409 0h.272c.119-.005.238-.014.353-.016h.096c.266.008.523.016.798.016 3.929 0 7.274-.935 10.968-1.036 3.697.101 7.035 1.036 10.963 1.036.269 0 .539-.009.798-.016h.116c.11.003.221.012.333.016.099 0 .197.003.293 0 .138 0 .274.003.409 0 .135.003.251 0 .389 0 .073 0 .145.003.216 0 .08.003.155 0 .233 0 .137 0 .273.003.408 0 .135.003.252 0 .389 0h.273c.11-.005.22-.014.333-.016h.116c.259.007.528.016.798.016 3.928 0 7.284-.935 10.983-1.036 3.702.101 7.053 1.036 10.984 1.036.275 0 .537-.009.802-.016h.096c.119.003.233.012.349.016h.256c.138 0 .274.003.409 0 .135.003.271 0 .409 0 .072 0 .14.003.213 0 .07.003.139 0 .212 0 .138 0 .274.003.409 0 .135.003.271 0 .409 0h.276c.119-.005.234-.014.349-.016h.096c.266.008.524.016.798.016 3.929 0 7.274-.935 10.968-1.036 3.696.101 7.055 1.036 10.984 1.036.269 0 .533-.009.798-.016h.116c.113.003.223.012.333.016h.272c.138 0 .274.003.409 0 .135.003.271 0 .409 0 .073 0 .141.003.212 0 .071.003.143 0 .217 0 .138 0 .274.003.409 0 .135.003.271 0 .409 0h.252c.116-.005.23-.014.349-.016h.1c.265.008.523.016.798.016.124 0 .246-.007.369-.012l-.453-.764a28.8 28.8 0 0 1-2.097.155c-3.698-.101-7.039-1.04-10.968-1.04-.229 0-.46.014-.681.02-.19-.004-.373-.02-.565-.02-.099-.004-.195 0-.293 0-.138 0-.27-.003-.405 0-.135-.003-.255 0-.393 0-.073 0-.142-.003-.212 0-.08-.003-.155 0-.233 0-.138 0-.274-.003-.409 0-.135-.003-.255 0-.392 0h-.273c-.193 0-.376.016-.565.02-.221-.006-.452-.02-.682-.02-3.928 0-7.269.938-10.964 1.04-3.7-.101-7.051-1.04-10.983-1.04-.235 0-.456.013-.682.02-.191-.004-.372-.02-.565-.02-.084-.003-.165 0-.253 0-.138 0-.274-.003-.408 0-.135-.003-.272 0-.409 0-.072 0-.145-.003-.217 0-.071-.003-.138 0-.212 0-.137 0-.274-.003-.409 0-.135-.003-.271 0-.409 0h-.273c-.196 0-.391.016-.585.02-.219-.006-.434-.02-.661-.02-3.929 0-7.287.939-10.984 1.04-3.698-.101-7.056-1.04-10.984-1.04-.23 0-.458.014-.685.02-.188-.004-.371-.02-.562-.02-.09-.004-.178 0-.272 0-.138 0-.274-.003-.409 0-.135-.003-.271 0-.409 0-.074 0-.146-.003-.217 0-.07-.003-.138 0-.212 0-.138 0-.274-.003-.409 0-.135-.003-.271 0-.409 0h-.272c-.193 0-.375.016-.566.02-.227-.006-.451-.02-.681-.02-3.928 0-7.271.939-10.964 1.04-3.697-.101-7.039-1.04-10.968-1.04-.229 0-.461.014-.681.02-.19-.004-.373-.02-.565-.02-.099-.004-.196 0-.293 0-.138 0-.274-.003-.409 0-.135-.003-.251 0-.389 0-.074 0-.141-.003-.212 0-.079-.003-.155 0-.233 0-.138 0-.277-.003-.412 0-.135-.003-.252 0-.389 0h-.253c-.197 0-.391.016-.585.02-.219-.006-.434-.02-.662-.02-3.932 0-7.282.939-10.983 1.04-3.698-.102-7.055-1.04-10.984-1.04-.23 0-.456.014-.682.02-.19-.004-.372-.02-.565-.02-.083-.003-.164 0-.252 0-.144 0-.289-.003-.429 0-.135-.003-.271 0-.409 0-.072 0-.144-.003-.217 0-.064-.003-.124 0-.192 0-.143 0-.289-.003-.429 0-.135-.003-.271 0-.409 0h-.273c-.197 0-.391.016-.585.02-.219-.006-.433-.02-.661-.02Zm0 1.416c-3.929 0-7.275.939-10.968 1.04-1.104-.03-2.161-.15-3.227-.283l-.533.892c.29.01.577.016.878.016.274 0 .536-.012.801-.02h.097c.119.004.232.015.348.02h1.055c.076 0 .156.003.232 0 .071.003.139 0 .213 0H500.55c.115-.005.241-.017.353-.02h.096c.266.008.523.02.798.02 3.928 0 7.252-.939 10.948-1.04 3.697.101 7.051 1.04 10.983 1.04.275 0 .533-.012.798-.02h.1c.112.004.234.015.349.02h1.09c.074 0 .146.003.217 0 .077.003.157 0 .232 0H527.565c.116-.005.233-.017.352-.02h.097c.265.008.523.02.797.02 3.929 0 7.287-.939 10.984-1.04 3.7.101 7.08 1.04 11.008 1.04.275 0 .533-.012.798-.02h.096c.119.004.233.015.349.02h1.074c.071 0 .14.003.212 0 .072.003.143 0 .217 0H554.639c.119-.005.234-.017.349-.02h.096c.266.008.523.02.798.02 3.929 0 7.274-.939 10.968-1.04 3.697.101 7.035 1.04 10.963 1.04.269 0 .539-.012.798-.02h.12c.11.004.217.015.329.02h1.091c.073 0 .145.003.216 0 .08.003.155 0 .233 0H581.67c.11-.005.22-.017.333-.02h.116c.259.008.528.02.798.02 3.928 0 7.284-.939 10.983-1.04 3.702.1 7.057 1.04 10.988 1.04.275 0 .533-.012.798-.02h.096c.119.004.233.015.349.02h1.074c.072 0 .14.003.213 0 .07.003.139 0 .212 0H608.724c.119-.005.234-.017.349-.02h.096c.266.008.524.02.798.02 3.929 0 7.274-.939 10.968-1.04 3.696.101 7.055 1.04 10.984 1.04.269 0 .533-.012.798-.02h.116c.113.004.223.015.333.02h1.09c.073 0 .141.003.212 0 .071.003.143 0 .217 0H635.755c.116-.005.23-.017.349-.02h.1c.265.008.523.02.798.02.405 0 .806-.014 1.202-.031l-.485-.819c-.952.112-1.915.197-2.898.225-3.698-.101-7.039-1.04-10.968-1.04-.229 0-.46.013-.681.02-.19-.004-.373-.02-.565-.02-.1-.003-.191 0-.289 0-.138 0-.274-.003-.409 0-.135-.003-.255 0-.393 0-.073 0-.142-.003-.212 0-.08-.003-.155 0-.233 0-.138 0-.274-.003-.409 0-.135-.003-.255 0-.392 0h-.273c-.193 0-.372.016-.561.02-.221-.007-.456-.02-.686-.02-3.928 0-7.269.939-10.964 1.04-3.7-.101-7.051-1.04-10.983-1.04-.234 0-.456.013-.682.02-.191-.004-.372-.02-.565-.02-.084-.003-.165 0-.253 0-.138 0-.274-.003-.408 0-.135-.003-.272 0-.409 0-.072 0-.145-.003-.217 0-.071-.003-.139 0-.212 0-.137 0-.274-.003-.409 0-.135-.003-.271 0-.409 0h-.273c-.197 0-.391.014-.585.02-.219-.007-.434-.02-.661-.02-3.929 0-7.287.939-10.984 1.04-3.698-.101-7.056-1.04-10.984-1.04-.23 0-.454.013-.682.02-.187-.004-.374-.02-.565-.02-.09-.003-.178 0-.272 0-.138 0-.274-.003-.409 0-.135-.003-.271 0-.409 0-.074 0-.146-.003-.217 0-.07-.003-.138 0-.212 0-.138 0-.274-.003-.409 0-.135-.003-.271 0-.409 0h-.272c-.193 0-.376.016-.566.02-.227-.007-.451-.02-.681-.02-3.928 0-7.271.939-10.964 1.04-3.697-.101-7.039-1.04-10.968-1.04-.229 0-.46.013-.681.02-.19-.004-.372-.02-.565-.02-.099-.003-.195 0-.293 0-.138 0-.274-.003-.409 0-.135-.003-.251 0-.389 0-.074 0-.141-.003-.212 0-.079-.003-.155 0-.233 0-.138 0-.278-.003-.412 0-.135-.003-.252 0-.389 0h-.253c-.197 0-.391.014-.585.02-.219-.007-.434-.02-.662-.02-3.932 0-7.282.939-10.983 1.04-3.698-.101-7.055-1.04-10.984-1.04-.23 0-.456.013-.682.02-.19-.004-.372-.02-.565-.02-.083-.003-.164 0-.252 0-.144 0-.289-.003-.429 0-.135-.003-.271 0-.409 0-.072 0-.144-.003-.217 0-.064-.003-.124 0-.192 0-.143 0-.289-.003-.429 0-.135-.003-.271 0-.409 0h-.273c-.197 0-.391.014-.585.02-.218-.007-.433-.02-.661-.02Zm0 1.416c-3.929 0-7.275.939-10.968 1.04-1.376-.037-2.689-.202-4.017-.38l-.557.935c.553.035 1.108.07 1.692.07.274 0 .536-.012.801-.02h.097c.119.004.232.015.348.02h.257c.138 0 .274.003.409 0 .135.003.251 0 .389 0 .076 0 .156.003.232 0 .071.003.139 0 .213 0 .138 0 .274.003.409 0 .135.003.255 0 .392 0 .098.003.189 0 .289 0 .115-.005.241-.017.353-.02h.096c.266.009.523.02.798.02 3.928 0 7.252-.938 10.948-1.04 3.697.101 7.051 1.04 10.983 1.04.275 0 .533-.012.798-.02h.1c.112.004.234.016.349.02.101 0 .195.003.293 0 .138 0 .253.003.388 0 .135.003.271 0 .409 0 .074 0 .146.003.217 0 .077.003.157 0 .232 0 .138 0 .254.003.389 0 .135.003.271 0 .409 0h.253c.116-.005.233-.017.352-.02h.097c.265.009.523.02.797.02 3.929 0 7.287-.939 10.984-1.04 3.7.101 7.08 1.04 11.008 1.04.275 0 .533-.012.798-.02h.096c.119.004.233.015.349.02h.256c.138 0 .274.003.409 0 .135.003.271 0 .409 0 .071 0 .14.003.212 0 .072.003.143 0 .217 0 .137 0 .274.003.409 0 .135.003.271 0 .409 0h.272c.119-.005.234-.017.349-.02h.096c.266.009.523.02.798.02 3.929 0 7.274-.939 10.968-1.04 3.697.101 7.035 1.04 10.963 1.04.269 0 .539-.012.798-.02h.12c.11.004.217.016.329.02.099 0 .197.003.293 0 .138 0 .274.003.409 0 .135.003.251 0 .389 0 .073 0 .145.003.216 0 .08.003.155 0 .233 0 .137 0 .273.003.408 0 .135.003.252 0 .389 0h.273c.11-.005.22-.017.333-.02h.116c.259.008.528.02.798.02 3.928 0 7.284-.939 10.983-1.04 3.702.101 7.057 1.04 10.988 1.04.275 0 .533-.012.798-.02h.096c.119.004.233.015.349.02h.256c.138 0 .274.003.409 0 .135.003.271 0 .409 0 .072 0 .14.003.213 0 .07.003.139 0 .212 0 .138 0 .278.003.413 0 .135.003.271 0 .409 0h.272c.119-.005.234-.017.349-.02h.096c.266.009.524.02.798.02 3.929 0 7.274-.939 10.968-1.04 3.696.101 7.055 1.04 10.984 1.04.269 0 .533-.012.798-.02h.116c.113.004.223.016.333.02h.272c.138 0 .274.003.409 0 .135.003.271 0 .409 0 .073 0 .141.003.212 0 .071.003.143 0 .217 0 .138 0 .274.003.409 0 .135.003.271 0 .409 0h.252c.116-.005.23-.017.349-.02h.1c.265.009.523.02.798.02.688 0 1.359-.038 2.02-.086l-.525-.876c-1.209.158-2.425.303-3.676.337-3.698-.101-7.039-1.04-10.968-1.04-.229 0-.46.014-.681.02-.19-.004-.373-.02-.565-.02-.099-.003-.191 0-.289 0h-.802c-.073 0-.142-.003-.212 0-.08-.003-.155 0-.233 0h-1.074c-.193 0-.372.016-.561.02-.221-.007-.456-.02-.686-.02-3.928 0-7.269.939-10.964 1.04-3.7-.101-7.051-1.04-10.983-1.04-.235 0-.456.013-.682.02-.191-.004-.372-.02-.565-.02-.084-.003-.165 0-.253 0h-.817c-.072 0-.145-.003-.217 0-.071-.003-.138 0-.212 0h-1.091c-.196 0-.391.016-.585.02-.219-.006-.434-.02-.661-.02-3.929 0-7.287.939-10.984 1.04-3.698-.101-7.056-1.04-10.984-1.04-.23 0-.454.014-.682.02-.187-.004-.374-.02-.565-.02-.09-.003-.178 0-.272 0h-.818c-.074 0-.146-.003-.217 0-.07-.003-.138 0-.212 0H565.896c-.193 0-.376.016-.566.02-.227-.007-.451-.02-.681-.02-3.928 0-7.271.939-10.964 1.04-3.697-.101-7.039-1.04-10.968-1.04-.229 0-.461.014-.681.02-.19-.004-.373-.02-.565-.02-.099-.003-.196 0-.293 0h-.798c-.074 0-.141-.003-.212 0-.079-.003-.155 0-.233 0H538.881c-.197 0-.387.016-.581.02-.219-.006-.438-.02-.666-.02-3.932 0-7.282.939-10.983 1.04-3.698-.101-7.055-1.04-10.984-1.04-.23 0-.456.013-.682.02-.19-.004-.372-.02-.565-.02-.083-.003-.164 0-.252 0-.144 0-.289-.003-.429 0h-.409c-.072 0-.144-.003-.217 0h-.192c-.143 0-.289-.003-.429 0H511.81c-.197 0-.391.016-.585.02-.219-.006-.433-.02-.661-.02Z"/><path fill="#EDE71F" fill-rule="evenodd" d="M549.404 374.974c-.166 0-.316.025-.458.039-.026 3.444 0 9.255 0 12.328.033 2.67.937 4.819 2.269 7.351.077.221.153.403.228.559.463 1.239.805 1.669 2.574 3.029 5.623 4.321 12.595 4.968 16.698 4.611-1.286-1.026-2.659-1.958-3.87-2.817 1.93-.063 3.779-.284 5.09-.579-4.106-1.218-7.85-3.731-11.018-6.984a34.86 34.86 0 0 1-1.582-1.775 39.44 39.44 0 0 0-.667-.926c-1.261-1.598-2.552-3.363-3.546-5.151a39.55 39.55 0 0 1-1.125-2.161 39.377 39.377 0 0 1-1.811-4.495 36.988 36.988 0 0 1-.667-2.277c-.002-.007-.017-.011-.019-.019-.007-.013-.065-.139-.362-.328a2.502 2.502 0 0 0-.649-.27h-.019a4.016 4.016 0 0 0-1.066-.135Z"/><path fill="#CCD11E" fill-rule="evenodd" d="M549.93 376.975c.469 6.602 2.595 14.432 7.569 19.485 1.83 1.462 4.169 2.79 6.431 2.467-7.712-6.028-12.4-15.258-14-21.952Z"/><path fill="#9ECB34" fill-rule="evenodd" d="M555.022 385.908c2.635 6.629 9.311 12.822 16.178 16.984 1.28.04 1.659.004 2.822-.068-4.915-2.693-12.836-6.535-19-16.916Z"/><path fill="#025" fill-rule="evenodd" d="M620.852 403.903c-.224 0-.448 0-.672.008-3.653.114-6.273 1.335-12.627 1.335-6.355 0-7.011-1.219-14.187-1.052-6.704.157-9.518 1.51-13.156 1.457-3.639-.053-9.552-.835-14.103-.329-4.551.505-9.953 1.536-13.499 1.545-4.406-.021-8.816-.875-13.423-.388-4.607.486-6.761 1.795-12.472 1.777-4.91-.015-10.24-.835-14.37-.832-3.872.004-8.192 1.146-11.371 1.727l-.95 1.752c2.533-.311 9.641-1.458 12.178-1.528 2.643-.073 12.082.578 17.289.388 5.206-.189 5.816-1.401 11.971-1.401 4.285 0 7.515.477 11.912.477 2.744 0 5.234-1.486 9.406-1.486.211-.092.45 0 .676 0 .188-.012.369-.036.561-.043l.27-.008c.137-.005.271-.014.406-.017.134-.007.269-.008.405-.012.074-.004.145-.009.215-.009.071-.005.138-.005.211-.008.137-.005.272-.011.406-.013 3.515-.616 9.451.054 13.582.279 3.737.207 6.152-.737 10.05-.874.226-.008.439 0 .656 0 .193-.012.385-.036.581-.042l.27-.009c.137-.005.272-.01.406-.013.134-.007.269-.012.406-.016.073-.004.144-.009.214-.009.072-.005.14 0 .211-.004.136-.005.272-.014.406-.017.134-.007.269-.008.406-.012.086-.004.167-.009.25-.009.191-.007.372.004.561 0 .224-.015.444-.038.676-.046 3.901-.138 7.24.766 10.913.747 3.664-.24 7.22-1.104 11.117-1.241.227-.008.456-.004.676-.004.188-.012.369-.036.56-.043l.271-.008c.137-.005.252-.011.386-.013.134-.007.269-.008.405-.012.078-.004.152-.009.231-.009.07-.005.142-.006.215-.008.137-.005.252-.011.386-.013.133-.007.268-.012.405-.017.097-.003.192-.009.291-.008.191-.006.368.004.556 0 .22-.015.453-.034.68-.042 2.578-.091 6.58.094 9.327.599l-.947-1.735c-2.682-.09-5.988-.76-9.223-.76Z"/><path fill="#97C924" fill-rule="evenodd" d="M618.461 400.903c-3.653.24-6.436.858-10.323.995-.272.01-.527.004-.789.004-.033.004-.063.004-.096.005-.114.006-.228.025-.345.033l-.269.009c-.137.005-.271.014-.405.017-.133.007-.272.008-.408.012-.073.004-.141.009-.211.009-.071.005-.139.006-.21.008-.136.005-.271.01-.404.013-.134.006-.268.008-.405.013l-.254.008c-.114 0-.227-.01-.345-.008-.032.003-.063 0-.095.004-.262.018-.517.041-.789.05-3.889.137-7.731-.517-11.394-.497-3.658.239-6.965 1.393-10.851 1.53-.266.009-.533.007-.789.008-.039.004-.076.004-.115.005-.112.006-.221.025-.329.033l-.27.009c-.136.005-.251.01-.385.012a17.45 17.45 0 0 1-.404.017c-.077.004-.152.009-.23.009-.07.005-.142 0-.214.004-.137.005-.252.014-.385.017-.134.007-.268.008-.405.013-.094.005-.191.005-.289.008-.111 0-.217-.009-.325-.008-.038.003-.081 0-.119.004-.257.017-.524.041-.79.05-3.886.138-7.2-.515-10.858-.497-3.653.239-6.949.584-10.835.721-.272.01-.527.007-.79.008-.032.004-.062.004-.095.005-.114.006-.227.021-.345.029-.093.004-.179.011-.269.013a28.21 28.21 0 0 1-.405.012c-.133.007-.268.008-.404.013-.074.003-.144.008-.215.008-.071.006-.139.006-.21.009-.136.005-.271.01-.404.013-.134.006-.268.012-.405.016-.084.004-.168.006-.254.009-.115 0-.227-.01-.345-.009-.032.004-.063 0-.095.005-.262.018-.517.036-.789.046-3.886.137-7.245-.246-10.906-.228-3.657.24-6.961 1.128-10.847 1.265-.272.009-.527.007-.79.008-.031.004-.063.004-.095.005-.117.006-.234.02-.349.029-.086.003-.166.01-.25.012-.136.005-.271.01-.404.013-.134.006-.248.008-.385.013-.074.003-.154.008-.23.008-.07.005-.141.006-.214.008-.136.005-.271.01-.404.013-.134.006-.249.008-.385.012-.097.006-.191.009-.29.013-.114 0-.234-.01-.345-.009-.032.004-.067 0-.099.005-.262.018-.517.036-.789.046-3.89.137-7.223-.517-10.883-.497-3.572.233-4.106.742-7.686 1.491l-2.728 5.007c3.191-.563 7.984-2.035 11.955-2.038 4.118-.004 9.086 1.078 13.982 1.094 5.695.017 7.843-1.289 12.437-1.774 4.594-.486 8.992.63 13.385.651 3.536-.009 8.922-1.301 13.461-1.806 4.538-.505 8.698.351 14.168.44 5.47.09 6.329-1.409 13.014-1.565 7.156-.168 7.81 1.049 14.147 1.049 4.768.273 8.862-1.02 13.115-1.34 4.253-.32 6.226.052 9.336.131l-2.066-3.885c-.035 0-.069.003-.103.004-3.887.137-5.734-.98-9.392-.961Z"/><path fill="#FFF" fill-rule="evenodd" d="M623.023 405.915s3.187.264 4.525.49c1.338.227 3.475.451 3.475.451l-.434-.862c-.676.36-5.2-.337-7.566-.079Z"/><path fill="#C8A400" fill-rule="evenodd" d="m566.522 292.909-36.345 62.815-37.155 64.185 72.706-.008 74.294.008-36.357-62.812-37.143-64.188Zm0 3.386 35.675 61.65 34.885 60.269-71.354-.004-69.77.004 35.687-61.642 34.877-60.277Z"/><path fill="#C6CB24" fill-rule="evenodd" d="M568.94 376.975c.438 6.696 2.36 13.323 7.001 18.448 1.707 1.484 3.889 2.83 5.999 2.502-7.794-5.55-11.507-14.161-13-20.95Z"/><path fill="#FFF" fill-rule="evenodd" d="m566.95 351.954-.151.003.151 3.699.15-3.699-.15-.003Zm-1.114.083a6.932 6.932 0 0 0-.294.041l.634 3.626-.34-3.667Zm2.227 0-.339 3.667.633-3.626a6.932 6.932 0 0 0-.294-.041Zm-3.465.252a10.76 10.76 0 0 0-.291.089l1.124 3.533-.833-3.622Zm4.703 0-.832 3.622 1.123-3.533a8.938 8.938 0 0 0-.291-.089Zm-5.898.441a8.395 8.395 0 0 0-.271.128l1.557 3.288-1.286-3.416Zm7.094 0-1.29 3.426 1.564-3.295a9.799 9.799 0 0 0-.274-.131Zm-8.218.611c-.085.055-.168.112-.251.169l1.985 3.036-1.734-3.205Zm9.341.003-1.721 3.185 1.973-3.019c-.083-.057-.167-.111-.252-.166Zm-10.373.77c-.076.066-.152.131-.226.2l2.359 2.701-2.133-2.901Zm11.402 0-2.142 2.915 2.368-2.712c-.075-.069-.15-.137-.226-.203Zm-12.317.914c-.067.077-.134.156-.199.235l2.685 2.318-2.486-2.553Zm13.235 0-2.476 2.543 2.672-2.308a8.708 8.708 0 0 0-.196-.235Zm-14.025 1.042a9.424 9.424 0 0 0-.16.259l2.959 1.897-2.799-2.156Zm14.812 0-2.809 2.167 2.972-1.908a8.662 8.662 0 0 0-.163-.259Zm-15.452 1.142c-.044.092-.086.186-.128.279l3.178 1.446-3.05-1.725Zm16.096.003-3.077 1.736 3.204-1.453a12.056 12.056 0 0 0-.127-.282Zm-16.58 1.229c-.031.098-.06.197-.088.296l3.328.956-3.24-1.252Zm17.06 0-3.237 1.252 3.325-.956a10.058 10.058 0 0 0-.088-.296Zm-17.373 1.287a7.214 7.214 0 0 0-.049.3l3.393.455-3.344-.755Zm17.689 0-3.341.755 3.387-.455a9.395 9.395 0 0 0-.046-.3Zm-17.836 1.314a8.009 8.009 0 0 0-.01.311l3.456-.052-3.446-.259Zm17.98 0-3.442.259 3.452.052a8.009 8.009 0 0 0-.01-.311Zm-14.508 1.08-3.436.248c.009.103.02.205.032.308l3.404-.556Zm11.04 0 3.4.556c.012-.103.023-.205.032-.308l-3.432-.248Zm-10.906.804-3.361.749c.022.1.043.201.068.3l3.293-1.049Zm10.772 0 3.292 1.049c.025-.099.046-.2.069-.3l-3.361-.749Zm-10.547.783-3.211 1.228c.035.095.071.19.108.283l3.103-1.511Zm10.334.007 3.087 1.504c.038-.093.075-.188.111-.283l-3.198-1.221Zm-.369.721 2.881 1.956c.05-.086.1-.174.147-.262l-3.028-1.694Zm-9.622.007-3.015 1.687c.047.088.095.176.144.262l2.871-1.949Zm.431.683-2.76 2.108c.058.081.119.16.18.238l2.58-2.346Zm8.773 0 2.577 2.343c.061-.078.125-.155.183-.235l-2.76-2.108Zm-8.24.597-2.466 2.501c.068.072.138.142.209.211l2.257-2.712Zm7.708 0 2.257 2.708c.07-.069.14-.139.209-.21l-2.466-2.498Zm-7.107.517-2.12 2.84c.078.061.155.124.235.183l1.885-3.023Zm6.516.011 1.874 3.008c.08-.058.158-.119.236-.179l-2.11-2.829Zm-5.853.397-1.738 3.146c.085.051.172.098.258.145l1.48-3.291Zm5.183.007 1.476 3.281c.086-.046.171-.093.255-.142l-1.731-3.139Zm-4.494.362-1.294 3.333c.09.036.183.067.275.1l1.019-3.433Zm3.802 0 1.019 3.433c.091-.033.184-.064.274-.1l-1.293-3.333Zm-3.051.214-.846 3.498c.093.022.187.04.281.059l.565-3.557Zm2.299 0 .565 3.557c.095-.019.188-.037.281-.059l-.846-3.498Zm-1.535.103-.382 3.592c.097.009.194.018.291.024l.091-3.616Zm.771 0 .092 3.616c.097-.006.194-.015.29-.024l-.382-3.592Z"/><path fill="none" d="M505.023 330.907h6v9h-6Z"/><path fill="#510000" fill-rule="evenodd" d="M567.325 364.633c-.84-.132-1.598-.513-2.315-.646-.986.768-1.09 1.544-.954 2.204.343.148.406.375 1.145.912.74.538.647.82.603 2.084-.019.532.091 1.676.755 1.783.716.116 1.216-.367 1.422-1.23.199-.838.545-1.289.91-1.804.4-1.964-.252-2.659-1.566-3.303Z"/><path fill="red" fill-rule="evenodd" d="M563.308 359.253c-.672.016-1.725 1.066-2.193.501-.269-.326-.314-.95-.042-1.475.631-1.213 1.269-1.808 2.446-2.455 2.683-1.476 4.388-1.001 5.725 1.119 1.239 1.868 2.428 3.929 2.534 5.659.033.528.319 1.483-.176 1.959-1.521 1.463-5.186-1.512-7.331-1.041-.721.158-1.554.649-2.234.229-.53-.326-.087-1.05.307-1.363.691-.548 1.694-2.491 1.557-3.333-.076-.471-.09.188-.593.2Z"/><path fill="#510000" fill-rule="evenodd" d="M563.161 357.881c-1.312.504-1.17 1.218-1.829 1.8.186.066.927.352 1.652-.341.313-.242.664-.332.82-.41-.369.251-.634.628-.828.775-.491.372-1.253 1.226-1.625 2.09-.371.865-.521 1.894-.454 2.018.067.123.516.881 1.897 1.394 2.46.914 2.928 2.761 5.424 2.761 1.955 0 1.641-1.196 3.206-.942 1.355.22 2.076-.788.77-1.394-1.661-.531-4.958-.218-6.509.037-.501-4.623-.067-3-.184-4.987-.117-1.987-.754-2.106.088-3.715-.7.988-1.547.832-2.428.914Z"/><path fill="#FF2A2A" fill-rule="evenodd" d="M568.061 355.001c-.04.258-.076.598-.055.695.086.393.173.804.275 1.152.113.39.159.672.237 1.076.081.418.397.58.686.837.366.325.083 1.203.311 1.239.182.029.483-1.242.485-1.445a5.1 5.1 0 0 0-.037-.75 18.688 18.688 0 0 0-.42-1.011c-.002-.004-.008-.007-.009-.011a4.368 4.368 0 0 0-.193-.38 4.678 4.678 0 0 0-.777-1c-.018-.018-.036-.037-.055-.054-.083-.075-.168-.152-.256-.218-.062-.047-.128-.088-.192-.13ZM568.38 363.67c-.874-.199-1.735-.575-2.479-.769-1.461-.38-3.018-1.202-4.096-.862-.385.148-.352.483-.474.964-.051.566-.726 1.399-.166 1.126.834-.406 3.031.777 3.767 1.173.348.187 1.085.555 1.316 1.083.23.528.112 1.861.05 2.434-.065.6.145 1.945.835 2.106.743.174 1.312-.342 1.601-1.304.281-.934.493-1.47.922-2.03.428-.56.919-.802 1.606-.914.686-.113 1.682.489 1.682-.216 0-.463-.467-.906-.269-1.541.157-.5-.488-.4-1.024-.607-1.261-.338-2.397-.444-3.271-.643Z"/><path fill="#910000" fill-rule="evenodd" d="M565.322 364.99c-.429-.156-3.04-1.298-3.995-.941-.302.113-.417-.014-.421-.226-.005-.211.143-.521.242-.76.098-.239.257-.695.678-.933.902-.508 2.978.505 4.08.779-.094.382-.617 2.068-.584 2.081Z"/><path fill="#FF3A3A" fill-rule="evenodd" d="M568.575 368.262c1.025-1.803 1.687-1.571 2.924-1.545.413.009.533-.371.44-.751-.312.702-1.86-.078-2.703.295-1.76.78-1.433 4.242-2.267 4.58.867.733 1.257-1.964 1.606-2.579Z"/></g></svg>