<svg xmlns="http://www.w3.org/2000/svg" width="617" height="759" overflow="hidden"><defs><clipPath id="a"><path d="M345-21h617v759H345z"/></clipPath></defs><g fill-rule="evenodd" clip-path="url(#a)" transform="translate(-345 21)"><path fill="#DC143C" stroke="#003893" stroke-miterlimit="8" stroke-width="44.4764" d="M368 346.389h516L368 20v695h516L368 193.75Z"/><path fill="#DC143C" d="m368 20 516 326.389H519.153v.052L884 715H368V186.051Z"/><path fill="#FFF" d="M496.957 327.74C553.868 327.74 600 281.435 600 224.31c-9.054 23.11-25.437 42.238-46.305 54.701l-8.795-6.577 17.246-12.983-20.868-5.367 11.038-18.781-21.558 3.115 3.191-21.465-18.712 11.252L509.891 207l-12.934 17.31L484.023 207l-5.433 21.119-18.625-11.079 3.19 21.638-21.557-3.202 11.21 18.782-21.04 5.366 17.246 12.983-8.623 6.664c-20.436-12.117-37.078-30.812-46.391-54.701C394 281.695 440.132 328 497.043 328ZM446.93 480.481l-46.128-5.731 27.969 37.34L386 530.5l42.771 18.236-27.969 37.34 46.128-5.731-5.68 46.632 37.006-28.222L496.5 642l18.073-43.245 37.177 28.309-5.68-46.545 46.128 5.818-27.969-37.341L607 530.761l-42.771-18.41 27.969-37.341-46.128 5.645 5.68-46.545-37.005 28.222L496.5 419l-18.072 43.158-37.178-28.222 5.68 46.545Z"/></g></svg>