<svg xmlns="http://www.w3.org/2000/svg" width="1136" height="568" overflow="hidden"><defs><clipPath id="a"><path d="M-1 94h1136v568H-1z"/></clipPath><clipPath id="b"><path d="M0 94h567v284H0z"/></clipPath><clipPath id="c"><path d="M0 94h567v284H0z"/></clipPath><clipPath id="d"><path d="M0 94h567v284H0z"/></clipPath><clipPath id="e"><path d="M0 94h568v284H0z"/></clipPath><clipPath id="f"><path d="M283.5 236H567v142Zm0 0v142H0Zm0 0H0V94Zm0 0V94H567Z"/></clipPath></defs><g clip-path="url(#a)" transform="translate(1 -94)"><path fill="#FEDD00" d="M0 94h1134v567H0z"/><g clip-path="url(#b)"><g clip-path="url(#c)"><g clip-path="url(#d)"><g clip-path="url(#e)"><path fill="#012169" d="M0 94v283.999h567V94Z"/><path stroke="#FFF" stroke-width="56.7" d="m0 0 567 283.5M567 0 0 283.5" transform="matrix(1 0 0 1.00176 0 94)"/><g clip-path="url(#f)"><path stroke="#C8102E" stroke-width="37.8" d="m0 0 567 283.5M567 0 0 283.5" transform="matrix(1 0 0 1.00176 0 94)"/></g><path stroke="#FFF" stroke-width="94.5" d="M283.5 0v283.5M0 141.75h567" transform="matrix(1 0 0 1.00176 0 94)"/><path stroke="#C8102E" stroke-width="56.7" d="M283.5 0v283.5M0 141.75h567" transform="matrix(1 0 0 1.00176 0 94)"/></g></g></g></g><path fill="#012169" fill-rule="evenodd" d="M235 236.5c0-26.786 21.714-48.5 48.5-48.5s48.5 21.714 48.5 48.5-21.714 48.5-48.5 48.5-48.5-21.714-48.5-48.5Z"/><path fill="#FEDD00" fill-rule="evenodd" d="M237 221.231h35.523L283.5 188l10.977 33.231H330l-28.739 20.538L312.239 275 283.5 254.462 254.761 275l10.978-33.231ZM91 230.48h20.626L118 211l6.374 19.48H145l-16.687 12.04 6.374 19.48L118 249.96 101.313 262l6.374-19.48ZM256 134.862h21.008L283.5 115l6.492 19.862H311l-16.996 12.276L300.496 167 283.5 154.724 266.504 167l6.492-19.862ZM422 230.48h20.626L449 211l6.374 19.48H476l-16.687 12.04 6.374 19.48L449 249.96 432.313 262l6.374-19.48ZM256 324.862h21.008L283.5 305l6.492 19.862H311l-16.996 12.276L300.496 357 283.5 344.724 266.504 357l6.492-19.862Z"/></g></svg>