<svg xmlns="http://www.w3.org/2000/svg" width="1136" height="568" overflow="hidden"><defs><clipPath id="a"><path d="M-1 94h1136v568H-1z"/></clipPath><clipPath id="b"><path d="M0 94h567v284H0z"/></clipPath><clipPath id="c"><path d="M0 94h567v284H0z"/></clipPath><clipPath id="d"><path d="M0 94h567v284H0z"/></clipPath><clipPath id="e"><path d="M0 94h568v284H0z"/></clipPath><clipPath id="f"><path d="M283.5 236H567v142Zm0 0v142H0Zm0 0H0V94Zm0 0V94H567Z"/></clipPath></defs><g clip-path="url(#a)" transform="translate(1 -94)"><path fill="#012169" d="M0 94h1134v567H0z"/><path fill="#FFF" fill-rule="evenodd" d="M807 193.703h32.849L850 162l10.151 31.703H893l-26.576 19.594L876.575 245 850 225.406 823.425 245l10.151-31.703ZM676 325.321h32.849L719 294l10.151 31.321H762l-26.576 19.358L745.575 376 719 356.642 692.425 376l10.151-31.321ZM924 293.265l29.412.001L962.5 265l9.088 28.266 29.412-.001-23.795 17.469L986.294 339 962.5 321.531 938.706 339l9.089-28.266ZM802 532.523h37.051L850.5 497l11.449 35.523H899l-29.975 21.954L880.475 590 850.5 568.045 820.525 590l11.45-35.523Z"/><path fill="#C8102E" fill-rule="evenodd" d="M822 198.626h21.772L850.5 178l6.728 20.626H879l-17.614 12.748L868.114 232 850.5 219.252 832.886 232l6.728-20.626ZM691 330.626h21.772L719.5 310l6.728 20.626H748l-17.614 12.748L737.114 364 719.5 351.252 701.886 364l6.728-20.626ZM939 297.57h17.953L962.5 280l5.547 17.57H986l-14.524 10.859L977.024 326 962.5 315.141 947.976 326l5.548-17.571ZM818 537.064h24.828L850.5 513l7.672 24.064H883l-20.086 14.872L870.586 576 850.5 561.127 830.414 576l7.672-24.064Z"/><g clip-path="url(#b)"><g clip-path="url(#c)"><g clip-path="url(#d)"><g clip-path="url(#e)"><path fill="#012169" d="M0 94v283.999h567V94Z"/><path stroke="#FFF" stroke-width="56.7" d="m0 0 567 283.5M567 0 0 283.5" transform="matrix(1 0 0 1.00176 0 94)"/><g clip-path="url(#f)"><path stroke="#C8102E" stroke-width="37.8" d="m0 0 567 283.5M567 0 0 283.5" transform="matrix(1 0 0 1.00176 0 94)"/></g><path stroke="#FFF" stroke-width="94.5" d="M283.5 0v283.5M0 141.75h567" transform="matrix(1 0 0 1.00176 0 94)"/><path stroke="#C8102E" stroke-width="56.7" d="M283.5 0v283.5M0 141.75h567" transform="matrix(1 0 0 1.00176 0 94)"/></g></g></g></g></g></svg>