<svg xmlns="http://www.w3.org/2000/svg" width="1136" height="568" overflow="hidden"><defs><clipPath id="a"><path d="M-1 94h1136v568H-1z"/></clipPath></defs><g fill-rule="evenodd" clip-path="url(#a)" transform="translate(1 -94)"><path fill="#DB161B" d="M0 94h1134v567H0Z"/><path fill="#FFF" d="M283 94h851v189H283Z"/><path fill="green" d="M283 472h851v189H283Z"/><path fill="#FFF" stroke="#DB161B" stroke-miterlimit="8" stroke-width="0.346562" d="M219.47 190.476c.04 0 .073.03.073.068v18.864c0 .038-.033.068-.073.068h-34.854c-.04 0-.073-.03-.073-.068v-18.864c0-.038.033-.068.073-.068Z"/><path fill="#FFF" stroke="#DB161B" stroke-miterlimit="8" stroke-width="0.323255" d="M219.473 190.475c.039 0 .071.029.071.065v17.871c0 .036-.032.064-.071.064h-33.858c-.039 0-.071-.028-.071-.064V190.54c0-.036.032-.065.071-.065Z"/><path fill="#FFF" stroke="#DB161B" stroke-miterlimit="8" stroke-width="0.205564" d="m201.189 195.484 1.749.059.079.759 1.43.701 1.113-.876 1.351.701-1.271.759.317 1.051 1.59-.059v1.402l-1.272-.058-.635.875 1.43.993-1.113.818-1.192-.876-1.748.35.079 1.285-1.907.117-.238-1.227-1.59-.642-.874.876-1.351-.642.795-.993-.954-.643h-1.351l-.079-1.81 1.351.117.953-1.051-1.112-.817 1.43-.935 1.033.759 1.749-.233.238-.76Z"/><path fill="#FFF" stroke="#DB161B" stroke-miterlimit="8" stroke-width="0.219423" d="M203.549 199.985c0 .829-.896 1.5-2 1.5-1.105 0-2.001-.671-2.001-1.5 0-.828.896-1.5 2.001-1.5 1.104 0 2 .672 2 1.5Z"/><path fill="#FFF" stroke="#DB161B" stroke-miterlimit="8" stroke-width="0.323255" d="m189.532 191.471-2 3M191.549 191.471l-3 3M193.55 191.471l-3 3M195.551 191.471l-3 3M197.552 191.471l-3.001 3M198.535 191.471l-2 3M200.535 191.471l-2 3M202.554 191.471l-3 3M204.555 191.471l-3.001 3M206.555 191.471l-3 3M208.556 191.471l-3 3M209.538 191.471l-2 3M202.554 191.471l-3 3M211.558 191.471l-3 3M213.558 191.471l-3 3M215.559 191.471l-3 3M217.56 191.471l-3 3M214.44 191.47l3 3M212.441 191.47l3 3M210.442 191.47l3 3M208.442 191.47l3 3M207.462 191.47l2 3M205.444 191.47l3 3M203.445 191.47l3 3M201.445 191.47l3 3M199.446 191.47l3 3M198.465 191.47l2 3M196.465 191.47l2 3M194.448 191.47l3 3M201.445 191.47l3 3M192.45 191.47l3 3M190.45 191.47l3 3M188.45 191.47l3 3M187.468 191.47l2 3M189.532 205.485l-2 2M191.549 205.485l-3 2M193.55 205.485l-3 2M195.551 205.485l-3 2M197.552 205.485l-3.001 2M198.535 205.485l-2 2M200.535 205.485l-2 2M202.554 205.485l-3 2M204.555 205.485l-3.001 2M206.555 205.485l-3 2M208.556 205.485l-3 2M209.538 205.485l-2 2M202.554 205.485l-3 2M211.558 205.485l-3 2M213.558 205.485l-3 2M215.559 205.485l-3 2M217.56 205.485l-3 2M214.44 205.485l3 2M212.441 205.485l3 2M210.442 205.485l3 2M208.442 205.485l3 2M207.462 205.485l2 2M205.444 205.485l3 2M203.445 205.485l3 2M201.445 205.485l3 2M199.446 205.485l3 2M198.465 205.485l2 2M196.465 205.485l2 2M194.448 205.485l3 2M201.445 205.485l3 2M192.45 205.485l3 2M190.45 205.485l3 2M188.45 205.485l3 2M187.468 205.485l2 2"/><path fill="#FFF" stroke="#DB161B" stroke-miterlimit="8" stroke-width="0.346562" d="M100.423 189.476c.042 0 .076.03.076.068v18.864c0 .038-.034.068-.076.068h-35.85c-.04 0-.074-.03-.074-.068v-18.864c0-.038.033-.068.075-.068Z"/><path fill="#FFF" stroke="#DB161B" stroke-miterlimit="8" stroke-width="0.323255" d="M99.428 190.476c.039 0 .07.028.07.061v16.879c0 .033-.031.06-.07.06H65.57c-.04 0-.071-.027-.071-.06v-16.879c0-.033.032-.061.07-.061Z"/><path fill="#FFF" stroke="#DB161B" stroke-miterlimit="8" stroke-width="0.205564" d="m81.143 194.482 1.748.066.08.854 1.43.788 1.113-.985 1.35.788-1.27.854.317 1.183 1.59-.066v1.577l-1.272-.066-.636.985 1.43 1.117-1.112.92-1.192-.986-1.748.395.08 1.445-1.908.131-.239-1.379-1.589-.723-.874.985-1.351-.722.794-1.117-.953-.723H75.58l-.08-2.036 1.351.131.954-1.182-1.113-.92 1.431-1.051 1.033.854 1.748-.263.239-.854Z"/><path fill="#FFF" stroke="#DB161B" stroke-miterlimit="8" stroke-width="0.219423" d="M83.5 198.985c0 .828-.895 1.5-2 1.5-1.104 0-2-.672-2-1.5 0-.829.896-1.5 2-1.5 1.105 0 2 .671 2 1.5Z"/><path fill="#FFF" stroke="#DB161B" stroke-miterlimit="8" stroke-width="0.323255" d="m70.499 190.47-3 3M72.5 190.47l-3 3M73.5 190.47l-2 3M75.501 190.47l-3 3M77.502 190.47l-3 3M79.503 190.47l-3 3M81.504 190.47l-3 3M82.503 190.47l-2 3M84.503 190.47l-2 3M86.506 190.47l-3 3M88.507 190.47l-3 3M90.507 190.47l-3 3M82.503 190.47l-2 3M92.508 190.47l-3 3M93.506 190.47l-2 3M95.506 190.47l-2 3M97.51 190.47l-3 3M94.49 190.47l3 3M93.494 190.47l2 3M91.494 190.47l2 3M89.492 190.47l3 3M87.493 190.47l3 3M85.494 190.47l3 3M83.494 190.47l3 3M82.497 190.47l2 3M80.497 190.47l2 3M78.497 190.47l3 3M76.497 190.47l3 3M74.498 190.47l3 3M82.497 190.47l2 3M72.499 190.47l3 3M71.5 190.47l2 3M69.5 190.47l3 3M67.501 190.47l3 3M70.499 204.477l-3 3M72.5 204.477l-3 3M73.5 204.477l-2 3M75.501 204.477l-3 3M77.502 204.477l-3 3M79.503 204.477l-3 3M81.504 204.477l-3 3M82.503 204.477l-2 3M84.503 204.477l-2 3M86.506 204.477l-3 3M88.507 204.477l-3 3M90.507 204.477l-3 3M82.503 204.477l-2 3M92.508 204.477l-3 3M93.506 204.477l-2 3M95.506 204.477l-2 3M97.51 204.477l-3 3M94.49 204.477l3 3M93.494 204.477l2 3M91.494 204.477l2 3M89.492 204.477l3 3M87.493 204.477l3 3M85.494 204.477l3 3M83.494 204.477l3 3M82.497 204.477l2 3M80.497 204.477l2 3M78.497 204.477l3 3M76.497 204.477l3 3M74.498 204.477l3 3M82.497 204.477l2 3M72.499 204.477l3 3M71.5 204.477l2 3M69.5 204.477l3 3M67.501 204.477l3 3"/><path fill="#FFF" stroke="#DB161B" stroke-miterlimit="8" stroke-width="0.531549" d="M120.713 230.309c-44.471 43.066-63.442 48.514-54.538 51.985 8.903 3.471 37.54-18.756 67.34-48.28 29.8-29.524 48.05-55.799 39.146-59.27-8.903-3.471-4.649 9.759-51.948 55.565Z"/><path fill="#FFF" stroke="#DB161B" stroke-miterlimit="8" stroke-width="0.302992" d="m83.265 261.47 15.286 4.123c-14.387 14.02-30.572 19.794-35.067 17.32-4.496-2.474 8.092-8.248 19.781-21.444Z"/><path fill="#FFF" stroke="#DB161B" stroke-miterlimit="8" stroke-width="0.303097" d="m83.633 263.47 12.92 3.243c-14.383 13.252-28.608 17.025-32.289 15.404-3.701-1.622 7.684-6.174 19.37-18.648ZM130.512 228.475c-.03.182-.117 1.01-.196 1.34 0 .455-.045.804-.098 1.16-.125.311-.104.6-.49.715-.266.376-.433.473-.785.625-.24.189-.602.377-.98.536-.392.152-.748.173-1.177.089-.343-.218-.596-.443-.882-.625-.067-.282-.129-.7-.196-.982.106.289.18.752.196 1.16-.038.446-.198.64-.392.982M126.497 235.195l-.116-.104c.274.246.162.129-.462-.207-.448-.207-.927-.316-1.502-.415H122.8a5.24 5.24 0 0 0-1.502.208c-.325.292-.812.458-1.155.725-.352.215-.503.47-.693.83-.315.281-.518.717-.809.932-.13.476-.395.46-.577.83.544.037.981.104 1.27.414.48.223-.402-.218-.577-.415-.378-.102-.476-.207-1.04-.207-.527-.15-.846.122-1.386.207-.315.164-.403.208-.809.208M120.528 240.212c-.234.012-1.3.18-1.722 0-.468-.11-.747-.32-1.033-.687-.14-.266 0 .47 0 .785-.052.578-.25.583-.573.982-.334.182-.684.44-1.033.589-.29.214-.645.358-1.033.49-.348.142-.755.285-1.033.492-.383.234-.346.514-.573.883.043.48.134.752.459.982.135.332.44.66.688.883.284.451.598.664-.115.786-.391.143-.61.03-1.032 0M113.536 246.958a31.603 31.603 0 0 1-1.78-.492h-1.66c-.644.04-.767.197-1.306.393-.348.295-.586.498-1.068.689-.254.273-.75.736-.949 1.082-.141.336-.237.79-.237 1.279.008.574.19.672.237 1.18.133.422.35.81.712 1.18.05.125.087.155.237.197"/><path fill="#FFF" stroke="#DB161B" stroke-miterlimit="8" stroke-width="0.302572" d="M108.546 254.107c-.05 0-.158.241-.328.448-.371.347-.419.373-.984.373-.51-.017-.462-.183-.82-.299-.168-.24-.38-.43-.573-.746-.132-.195-.248-.493-.41-.671-.15-.222-.336-.389-.492-.597-.153-.06-.212-.118-.41-.15.472.07.514.223.82.448.144.212.286.434.41.672.047.319.159.57.164.97 0 .413-.002.701-.164 1.045-.193.184-.336.375-.574.522a4.537 4.537 0 0 0-.574.597c-.257.144-.444.261-.737.448-.248.131-.514.267-.902.298-.481-.031-.624-.155-.984-.298-.305-.205-.546-.34-.82-.523-.213-.136-.43-.406-.573-.597-.444-.1-.725-.06-.984.15-.225.14-.42.317-.574.522-.133.061-.358.238-.491.299"/><path fill="#FFF" stroke="#DB161B" stroke-miterlimit="8" stroke-width="0.302467" d="M99.31 257.463c.12.051.562.359.756.473.121.399.314.616.378 1.041.103.41.095.862.095 1.324-.104.484-.305.841-.473 1.23-.299.203-.45.353-.851.568a8.595 8.595 0 0 1-1.23.094c-.288.096-.85.143-1.135 0-.421-.057-.735-.228-1.04-.378-.35-.198-.565-.385-.947-.568-.185-.272-.473-.523-.756-.851-.236-.319-.409-.497-.568-.851.14.404.352.756.473 1.135.215.402.34.545.378 1.04.132.396.095.872.095 1.325-.042.307-.063.883-.19 1.135v.284"/><path fill="#FFF" stroke="#DB161B" stroke-miterlimit="8" stroke-width="0.302992" d="M84.085 266.518v.136c0-.366-.01-.18.162.543.305.318 1.02.406 1.618.272.523-.363.507-.638 1.456-.815.917.055 1.266.278 1.78.543.609.256.89.385 1.294.951.2.461.313.773-.324.951-.506.301-1.107.467-1.78.543-.747 0-1.286-.073-1.617.272-.514.447-.486.712-.486 1.494-.172.242-.207.955-.323 1.223-.45.178-.714.271-1.457.271-.174-.42-.368-1.177-.485-1.63-.127-.488-.166-1.169-.485-1.494a4.022 4.022 0 0 0-1.133-.95c-.198-.234-.575-.428-.97-.544.634.272.724.566.808 1.223-.558.234-.707.398-1.618.407-.895-.063-1.112-.254-1.456-.68-.062.682-.322.91-.485 1.495-.333.41-.475.832-.81 1.358.143.655.45.688.486 1.494.21.53.187 1.04.647 1.359.205.21.359.251.81.272-.937 0-1.483-.085-2.104-.408-.48-.248-.843-.557-1.295-.815-.572-.348-1.28-.67-1.941-.815-.747 0-1.286-.074-1.618.272-.458.274-.766.749-.97 1.358-.15.705-.208 1.174.161 1.63.274.523.336.727 0 1.358-.376.442-.936.494-1.78.68a6.839 6.839 0 0 1-1.618-.272"/><path fill="#FFF" stroke="#DB161B" stroke-miterlimit="8" stroke-width="0.431601" d="M171.321 191.5c19.419-34.21 32.307-63.324 28.768-64.987-3.538-1.663-22.17 24.752-41.589 58.962l12.821 6.025Z"/><path fill="#FFF" stroke="#DB161B" stroke-miterlimit="8" stroke-width="0.367664" d="M169.944 190.5c19.075-32.692 32.217-60.295 29.334-61.613-2.883-1.317-20.703 24.146-39.778 56.838"/><path fill="#FFF" stroke="#DB161B" stroke-miterlimit="8" stroke-width="0.430866" d="M166.422 173.514c-2.23 3.804-4.598 8.153-6.892 12.22l10.048 4.752c2.294-4.067 4.796-8.352 6.892-12.22l-10.048-4.752Z"/><path fill="#FFF" stroke="#DB161B" stroke-miterlimit="8" stroke-width="0.430866" d="M167.756 174.515c-2.283 3.969-3.877 7.007-6.225 11.251l7.713 3.719c2.349-4.244 4.08-7.215 6.226-11.251l-7.714-3.719Z"/><path fill="#FFF" stroke="#DB161B" stroke-miterlimit="8" stroke-width="0.430866" d="m173.5 179.042-5.297-2.542-4.703 8.458 5.297 2.542ZM173.5 179.042l-10 5.916M168.798 187.5l-.595-11M196.5 138.5l-5-2"/><path fill="#DB161B" d="M194.368 133.835c.204.643 1.099 1.015 2 .83.901-.185 1.467-.856 1.264-1.5-.204-.643-1.099-1.015-2-.83-.901.185-1.467.856-1.264 1.5Z"/><path fill="#FFF" stroke="#DB161B" stroke-miterlimit="8" stroke-width="0.531549" d="M163.287 229.309c44.471 43.066 63.442 48.514 54.539 51.985-8.904 3.471-37.541-18.756-67.341-48.28-29.8-29.524-48.05-55.799-39.146-59.27 8.903-3.471 4.649 9.759 51.948 55.565Z"/><path fill="#FFF" stroke="#DB161B" stroke-miterlimit="8" stroke-width="0.302992" d="m200.781 260.469-15.286 4.124c14.386 14.02 30.572 19.794 35.067 17.319 4.496-2.474-8.093-8.247-19.781-21.443Z"/><path fill="#FFF" stroke="#DB161B" stroke-miterlimit="8" stroke-width="0.303097" d="m200.414 262.469-12.919 3.243c14.382 13.253 28.608 17.026 32.289 15.405 3.701-1.622-7.684-6.175-19.37-18.648ZM153.497 227.47c.03.219.117 1.212.196 1.607 0 .546.045.966.098 1.393.125.373.104.72.491.857.265.452.432.568.784.75.239.227.602.453.98.643.392.184.749.209 1.177.107.343-.261.596-.531.882-.75.067-.338.129-.84.196-1.178-.106.347-.18.902-.196 1.393.038.535.198.768.392 1.178M157.519 234.195l.116-.104c-.275.246-.162.129.462-.207.448-.207.927-.317 1.502-.415h1.617c.629 0 1.053.085 1.502.207.325.293.812.459 1.155.726.352.215.503.469.693.829.315.282.518.718.809.933.13.476.395.46.577.829-.545.038-.981.105-1.27.415-.48.223.402-.219.577-.415.378-.102.476-.207 1.04-.207.527-.15.846.122 1.386.207.315.164.403.207.809.207M163.492 239.212c.233.011 1.3.18 1.721 0 .469-.11.747-.321 1.033-.688.141-.265 0 .471 0 .786.052.578.251.583.574.981.333.183.683.44 1.032.59.29.214.645.358 1.033.49.348.141.755.285 1.033.491.384.235.346.515.574.884-.044.48-.135.752-.459.982-.136.331-.44.66-.689.883-.284.451-.598.664.115.786.391.143.611.031 1.033 0M170.489 245.957a30.703 30.703 0 0 0 1.78-.492h1.661c.644.042.766.198 1.305.394.348.294.587.498 1.068.689.255.272.75.736.949 1.082.142.335.238.789.238 1.278-.009.574-.191.672-.238 1.181a2.873 2.873 0 0 1-.712 1.18c-.05.125-.086.155-.237.197"/><path fill="#FFF" stroke="#DB161B" stroke-miterlimit="8" stroke-width="0.302572" d="M175.484 253.107c.049 0 .158.241.328.448.371.347.419.373.984.373.509-.017.462-.183.819-.299.169-.24.38-.43.574-.746.132-.195.248-.493.41-.672.15-.221.336-.388.492-.597.153-.06.212-.117.41-.149-.473.069-.514.223-.82.448a6.852 6.852 0 0 0-.41.671c-.047.32-.159.571-.164.971 0 .412.002.701.164 1.044.193.185.336.376.574.523.188.168.425.398.574.597.257.144.444.261.737.448.247.131.514.266.902.298.481-.031.624-.155.984-.298.305-.205.546-.339.819-.523.214-.136.431-.406.574-.597.444-.101.725-.06.984.149.225.14.42.318.573.523.134.061.358.237.492.298"/><path fill="#FFF" stroke="#DB161B" stroke-miterlimit="8" stroke-width="0.302467" d="M184.723 256.463c-.121.051-.562.359-.757.473-.121.398-.314.616-.378 1.041-.103.41-.095.861-.095 1.324.104.484.305.841.473 1.23.299.203.449.353.852.567.377.051.747.095 1.229.095.289.096.85.143 1.136 0 .421-.057.734-.228 1.04-.378.349-.198.564-.385.946-.568.185-.273.474-.524.757-.851.235-.319.408-.498.567-.852-.14.404-.352.757-.473 1.136-.215.402-.34.545-.378 1.04-.132.396-.095.872-.095 1.324.042.308.064.884.19 1.136v.283"/><path fill="#FFF" stroke="#DB161B" stroke-miterlimit="8" stroke-width="0.302992" d="M199.962 265.52v.147c0-.397.011-.196-.161.588-.306.345-1.021.44-1.618.295-.524-.394-.508-.691-1.456-.883-.917.059-1.267.301-1.78.588-.61.278-.89.417-1.295 1.03-.2.5-.312.837.324 1.03.506.327 1.107.506 1.78.589.747 0 1.286-.08 1.618.294.513.484.485.772.485 1.619.173.262.207 1.034.324 1.324.449.194.713.294 1.456.294.174-.454.368-1.275.485-1.765.127-.529.166-1.267.486-1.619a4.124 4.124 0 0 1 1.132-1.03c.198-.253.576-.463.971-.589-.635.295-.725.613-.809 1.325.558.254.707.431 1.618.441.895-.068 1.112-.275 1.456-.735.063.738.322.985.485 1.618.333.445.475.901.809 1.472-.142.709-.449.744-.485 1.618-.21.574-.187 1.126-.647 1.472-.205.228-.358.273-.809.294.936 0 1.483-.092 2.103-.441.48-.269.843-.604 1.295-.883.572-.377 1.281-.726 1.941-.883.748 0 1.286-.08 1.618.294.459.298.766.812.971 1.472.15.763.207 1.272-.162 1.766-.273.566-.335.787 0 1.471.376.479.937.535 1.78.736a6.314 6.314 0 0 0 1.618-.295"/><path fill="#FFF" stroke="#DB161B" stroke-miterlimit="8" stroke-width="0.431601" d="M112.679 190.5c-19.419-34.21-32.307-63.324-28.768-64.987 3.538-1.663 22.17 24.752 41.589 58.962l-12.821 6.025Z"/><path fill="#FFF" stroke="#DB161B" stroke-miterlimit="8" stroke-width="0.367664" d="M114.056 189.5c-19.075-32.692-32.216-60.295-29.334-61.613 2.883-1.317 20.703 24.146 39.778 56.838"/><path fill="#FFF" stroke="#DB161B" stroke-miterlimit="8" stroke-width="0.430866" d="M117.578 172.514c2.23 3.804 4.598 8.153 6.892 12.22l-10.048 4.752c-2.294-4.067-4.796-8.352-6.892-12.22l10.048-4.752Z"/><path fill="#FFF" stroke="#DB161B" stroke-miterlimit="8" stroke-width="0.430866" d="M116.244 173.515c2.284 3.969 3.878 7.007 6.226 11.251l-7.714 3.719c-2.348-4.244-4.079-7.215-6.225-11.251l7.713-3.719Z"/><path fill="#FFF" stroke="#DB161B" stroke-miterlimit="8" stroke-width="0.430866" d="m110.5 178.811 5.297-2.311 4.703 7.689-5.297 2.311ZM110.5 178.811l10 5.378M115.203 186.5l.595-10M87.5 137.5l5-2"/><path fill="#DB161B" d="M88.724 132.835c-.153.643-.824 1.015-1.5.83-.676-.185-1.1-.856-.948-1.5.153-.643.824-1.015 1.5-.83.676.185 1.1.856.948 1.5Z"/><path fill="#FFF" stroke="#DB161B" stroke-miterlimit="8" stroke-width="0.380157" d="M129.018 172.474c0 28.875.17 39.759-1.936 41.25-1.996 1.597-57.59 0-57.59 8.25s45.79 16.501 59.526 16.5c18.316 0 27.474-8.25 27.474-24.75v-41.25h-27.474Z"/><path fill="#FFF" stroke="#DB161B" stroke-miterlimit="8" stroke-width="0.323255" d="M128.497 181.48v4a98.451 98.451 0 0 0 28 0v-4a98.451 98.451 0 0 1-28 0ZM128.497 172.473v4.8a82.267 82.267 0 0 0 28 0v-4.8a82.267 82.267 0 0 1-28 0Z"/><path fill="#FFF" stroke="#DB161B" stroke-miterlimit="8" stroke-width="0.323255" d="M128.497 177.479v4a98.524 98.524 0 0 0 28 0v-4a98.524 98.524 0 0 1-28 0ZM128.497 185.482v4a98.524 98.524 0 0 0 28 0v-4a98.524 98.524 0 0 1-28 0Z"/><path fill="#FFF" stroke="#DB161B" stroke-miterlimit="8" stroke-width="0.385302" d="M131.499 179.499c0 .552-.672 1-1.501 1-.828 0-1.5-.448-1.5-1s.672-1 1.5-1c.829 0 1.501.448 1.501 1ZM136.496 179.495c0 .552-.671 1-1.5 1-.828 0-1.5-.448-1.5-1s.672-1 1.5-1c.829 0 1.5.448 1.5 1ZM141.494 180.493c0 .552-.672 1-1.5 1s-1.5-.448-1.5-1 .672-1 1.5-1 1.5.448 1.5 1ZM146.492 180.493c0 .552-.672 1-1.5 1-.829 0-1.5-.448-1.5-1s.671-1 1.5-1c.828 0 1.5.448 1.5 1ZM151.49 179.495c0 .552-.672 1-1.5 1-.829 0-1.5-.448-1.5-1s.671-1 1.5-1c.828 0 1.5.448 1.5 1ZM156.487 179.499c0 .552-.671 1-1.5 1-.828 0-1.5-.448-1.5-1s.672-1 1.5-1c.829 0 1.5.448 1.5 1Z"/><path fill="#FFF" stroke="#DB161B" stroke-miterlimit="8" stroke-width="0.323255" d="m128.497 193.475 28 22M131.497 193.476l25 19M135.497 194.475l21 16M137.497 194.476l19 13.001M140.497 194.476l16 11M143.497 194.475l13 9M145.496 194.477l11 6M148.496 194.475l8 5M151.496 194.477l5 3M154.496 194.485l2 1M128.497 195.476l28 22M156.504 193.475l-31 24M153.505 193.475l-27 21M149.506 194.475l-21 16M146.507 194.476l-18 13M144.508 194.476l-16 11M141.51 194.475l-13 9M138.51 194.477l-10 6M135.51 194.475l-7 5M133.513 194.477l-5 3M130.514 194.485l-2 1M156.504 195.475l-31 25M156.504 198.477l-31 24M156.504 200.477l-31 25M156.504 203.479l-31 24M156.504 205.48l-31 24M156.504 207.48l-31 25M156.504 210.481l-31 24M156.504 212.482l-31 25M156.504 215.483l-29 23M156.502 217.483l-26 21M155.5 221.486l-20 16M154.5 224.487l-17 13M152.497 228.49l-8 6M128.497 198.477l27 21M128.496 200.477l27.001 21M128.496 203.478l26.001 20M128.496 205.479l26.001 20M128.496 207.479l25 20M127.496 209.48l25 20M127.496 212.482l23 17.001M126.496 213.482l23 18.001M125.496 215.484l22 17M125.496 217.484l21 17M125.496 220.486l19 14M128.497 189.483v4a98.451 98.451 0 0 0 28 0v-4a98.451 98.451 0 0 1-28 0ZM125.496 222.487l17 13M125.496 225.488l15 11M125.496 227.488l13 10M125.496 229.488l10 8.001M125.496 232.49l8 6M125.496 234.49l5 4"/><path fill="#FFF" stroke="#DB161B" stroke-miterlimit="8" stroke-width="0.385302" d="M131.499 191.504c0 .553-.672 1-1.501 1-.828 0-1.5-.447-1.5-1 0-.552.672-1 1.5-1 .829 0 1.501.448 1.501 1ZM136.496 192c0 .276-.671.5-1.5.5-.828 0-1.5-.224-1.5-.5s.672-.5 1.5-.5c.829 0 1.5.224 1.5.5ZM141.494 192.498c0 .553-.672 1-1.5 1s-1.5-.447-1.5-1c0-.552.672-1 1.5-1s1.5.448 1.5 1ZM146.492 192.498c0 .553-.672 1-1.5 1-.829 0-1.5-.447-1.5-1 0-.552.671-1 1.5-1 .828 0 1.5.448 1.5 1ZM151.49 192c0 .276-.672.5-1.5.5-.829 0-1.5-.224-1.5-.5s.671-.5 1.5-.5c.828 0 1.5.224 1.5.5ZM156.487 191.504c0 .553-.671 1-1.5 1-.828 0-1.5-.447-1.5-1 0-.552.672-1 1.5-1 .829 0 1.5.448 1.5 1Z"/><path fill="#FFF" stroke="#DB161B" stroke-miterlimit="8" stroke-width="0.323255" d="m89.498 231.473 33-17M87.497 230.473l31-16M86.497 229.472l28-15M85.497 227.472l25-13M83.496 225.472l23-11M84.494 223.471l16.001-8M83.494 221.473l12-6M83.493 219.471l9-4.001M92.498 232.474l31-16M94.499 233.474l30-16M97.499 234.475l27-15M100.5 234.476l23-12M103.499 234.478l21-10M106.5 235.477l18-9M109.501 236.479l14-7M113.501 236.477l11-6M116.502 237.479l8-4M120.502 237.475l4-3M126.504 213.49h-4a78.586 78.586 0 0 0 0 25h4a78.586 78.586 0 0 1 0-25ZM72.487 225.47l11-9M72.487 219.527l11 10"/><path fill="#FFF" stroke="#DB161B" stroke-miterlimit="8" stroke-width="0.233176" d="m89.505 215.476-6 .809c-1.334 5.127-1.334 9.445 0 14.572l6 1.619c-1.334-5.127-1.334-11.873 0-17Z"/><path fill="#FFF" stroke="#DB161B" stroke-miterlimit="8" stroke-width="0.408399" d="M156.507 174.483v-4.11c-4.2.035-7-2.41-7-4.89l-14 .034c0 2.446-2.8 4.891-7 4.891v4.075h28Z"/><path fill="#FFF" stroke="#DB161B" stroke-miterlimit="8" stroke-width="0.334383" d="M136.497 160.477h12v5h-12Z"/><path fill="#FFF" stroke="#DB161B" stroke-miterlimit="8" stroke-width="0.334383" d="M137.497 155.478h10v5h-10Z"/><path fill="#FFF" stroke="#DB161B" stroke-miterlimit="8" stroke-width="0.334383" d="M137.497 151.483h10v4h-10ZM138.497 144.478h8v7h-8Z"/><path fill="#FFF" stroke="#DB161B" stroke-miterlimit="8" stroke-width="0.348451" d="M138.497 138.479h8v6h-8Z"/><path fill="#FFF" stroke="#DB161B" stroke-miterlimit="8" stroke-width="0.328924" d="M154.506 133.487c0 4.418-5.149 8-11.5 8-6.352 0-11.5-3.582-11.5-8 0-4.419 5.148-8 11.5-8 6.351 0 11.5 3.581 11.5 8Z"/><path fill="#FFF" stroke="#DB161B" stroke-miterlimit="8" stroke-width="0.328924" d="M148.672 133.066c0 2.208 2.834 5.894 2.834 5.894-2.052 1.448-5.372 2.527-8.5 2.527s-7.023-.601-8.5-2.527c0 0 2.833-3.686 2.833-5.894s-2.833-5.053-2.833-5.053c2.051-1.448 5.372-2.526 8.5-2.526s6.448 1.078 8.5 2.526c0 0-2.834 2.845-2.834 5.053Z"/><path fill="#FFF" stroke="#DB161B" stroke-miterlimit="8" stroke-width="0.328924" d="M146.72 133.061c0 2.207 2.786 6.733 2.786 6.733-2.017 1.447-3.425 1.683-6.5 1.683-3.076 0-5.048.241-6.5-1.683 0 0 2.785-4.526 2.785-6.733s-2.785-5.891-2.785-5.891c2.016-1.447 3.424-1.683 6.5-1.683 3.075 0 4.483.236 6.5 1.683 0 0-2.786 3.684-2.786 5.891ZM134.506 133.986c0 1.381-1.343 2.5-3 2.5s-3-1.119-3-2.5c0-1.38 1.343-2.5 3-2.5s3 1.12 3 2.5ZM156.513 133.986a2.5 2.5 0 1 1-5 0 2.5 2.5 0 0 1 5 0Z"/><path fill="#FFF" stroke="#DB161B" stroke-miterlimit="8" stroke-width="0.328924" d="M145.511 133.986c0 1.381-1.343 2.5-3 2.5s-3-1.119-3-2.5c0-1.38 1.343-2.5 3-2.5s3 1.12 3 2.5ZM145.511 125.983c0 1.381-1.343 2.5-3 2.5s-3-1.119-3-2.5 1.343-2.5 3-2.5 3 1.119 3 2.5Z"/><path fill="#FFF" stroke="#DB161B" stroke-miterlimit="8" stroke-width="0.335223" d="M137.507 172.001c0 1.381-1.343 2.5-3 2.5s-3-1.119-3-2.5 1.343-2.5 3-2.5 3 1.119 3 2.5ZM153.513 172.001c0 1.381-1.343 2.5-3 2.5s-3-1.119-3-2.5 1.343-2.5 3-2.5 3 1.119 3 2.5ZM135.506 165.484h14l-7 7-7-7Z"/><path fill="#FFF" stroke="#DB161B" stroke-miterlimit="8" stroke-width="0.446929" d="M146.51 171.501c0 1.657-1.791 3-4 3s-4-1.343-4-3 1.791-3 4-3 4 1.343 4 3Z"/><path fill="#FFF" stroke="#DB161B" stroke-miterlimit="8" stroke-width="0.302992" d="M148.468 195.472c.016 0 .029.01.029.022v4.955c0 .013-.013.023-.029.023h-20.943c-.015 0-.028-.01-.028-.023v-4.955c0-.012.013-.022.028-.022ZM154.985 191.501c-2.493 0-4.5 1.864-4.5 4.181v3.637c0 2.317 2.007 4.182 4.5 4.182s4.5-1.865 4.5-4.182v-3.637c0-2.317-2.007-4.181-4.5-4.181Zm0 1.6c-1.496 0-2.7 1.492-2.7 3.345v2.11c0 1.853 1.204 3.345 2.7 3.345 1.496 0 2.7-1.492 2.7-3.345v-2.11c0-1.853-1.204-3.345-2.7-3.345Z"/><path fill="#FFF" stroke="#DB161B" stroke-miterlimit="8" stroke-width="0.302992" d="M130.976 192.148c-1.496 0-2.7 1.536-2.7 3.444v3.819c0 1.907 1.204 3.443 2.7 3.443 1.496 0 2.7-1.536 2.7-3.443v-3.819c0-1.908-1.204-3.444-2.7-3.444Zm0-1.647c-2.493 0-4.5 1.919-4.5 4.304v5.392c0 2.384 2.007 4.304 4.5 4.304s4.5-1.92 4.5-4.304v-5.392c0-2.385-2.007-4.304-4.5-4.304Z"/><path fill="#FFF" stroke="#DB161B" stroke-miterlimit="8" stroke-width="0.302992" d="M123.973 194.136c-1.495 0-2.699 1.525-2.699 3.419l-.001.892c0 1.894 1.205 3.419 2.7 3.419 1.496 0 2.7-1.525 2.7-3.419v-.892c0-1.894-1.204-3.419-2.7-3.419Zm0-1.635c-2.492 0-4.499 1.905-4.499 4.273l-.001 2.453c0 2.368 2.007 4.274 4.5 4.274s4.5-1.906 4.5-4.274v-2.453c0-2.368-2.007-4.273-4.5-4.273Z"/><path fill="#FFF" stroke="#DB161B" stroke-miterlimit="8" stroke-width="0.315801" d="M112.47 192.266c-2.659 0-4.801 1.645-4.801 3.689v4.092c0 2.044 2.142 3.689 4.801 3.689 2.659 0 4.8-1.645 4.8-3.689v-4.092c0-2.044-2.141-3.689-4.8-3.689Zm0-1.765c-4.432 0-8 2.057-8 4.611v5.777c0 2.555 3.568 4.612 8 4.612s8-2.057 8-4.612v-5.777c0-2.554-3.568-4.611-8-4.611ZM171.991 192.384c-2.825 0-5.1 1.755-5.1 3.935v4.365c0 2.18 2.275 3.935 5.1 3.935 2.825 0 5.1-1.755 5.1-3.935v-4.365c0-2.18-2.275-3.935-5.1-3.935Zm0-1.883c-4.709 0-8.5 2.194-8.5 4.919v6.162c0 2.725 3.791 4.919 8.5 4.919s8.5-2.194 8.5-4.919v-6.162c0-2.725-3.791-4.919-8.5-4.919Z"/><path fill="#FFF" stroke="#DB161B" stroke-miterlimit="8" stroke-width="0.302992" d="M167.481 195.472c.008 0 .015.01.015.022v4.955c0 .013-.007.023-.015.023h-10.97c-.008 0-.015-.01-.015-.023v-4.955c0-.012.007-.022.015-.022ZM152.489 194.47c.004 0 .008.014.008.031v6.938c0 .017-.004.031-.008.031h-5.984c-.005 0-.008-.014-.008-.031v-6.938c0-.017.003-.031.008-.031ZM122.489 194.47c.005 0 .009.014.009.031v6.938c0 .017-.004.031-.009.031h-5.983c-.005 0-.009-.014-.009-.031v-6.938c0-.017.004-.031.009-.031ZM109.48 194.473c.01 0 .018.016.018.035v7.929c0 .02-.008.036-.018.036H96.516c-.01 0-.018-.016-.018-.036v-7.929c0-.019.008-.035.018-.035ZM187.479 194.469c.009 0 .016.018.016.04v8.92c0 .022-.007.04-.016.04h-11.967c-.009 0-.017-.018-.017-.04v-8.92c0-.022.008-.04.017-.04Z"/></g></svg>