<svg xmlns="http://www.w3.org/2000/svg" width="1136" height="758" overflow="hidden"><defs><clipPath id="a"><path d="M-1-1h1136v758H-1z"/></clipPath></defs><g fill-rule="evenodd" clip-path="url(#a)" transform="translate(1 1)"><path fill="#CE1126" d="M0 0h1134v756H0Z"/><path fill="#FFF" d="M0 189h1134v378H0Z"/><path fill="#FFF" d="M0 189h1134v378H0Z"/><path fill="#FF9C10" d="m603.478 218 11.712 3.087a159.133 159.133 0 0 1 14.942 5.606L642 232.554 603.805 300l.056-28.96c-.204-2.129 2.786-5.728-1.052-6.057-4.27.236-8.561.1-12.809-.406L603.478 218ZM524.688 219l4.312 7.902c-6.137 3.666-6.545 72.098-6.545 72.098s-20.251-41.014-30.549-62.036L490 233.066l13.693-6.814a157.806 157.806 0 0 1 14.906-5.635l6.089-1.617ZM650.868 238l6.635 4.135a163.225 163.225 0 0 1 23.894 20.222l.603.681-16.293 16.507c-2.884 1.589-5.591 8.646-8.53 5.835-5.338-1.517-10.962-.079-16.422-.328-3.919-.525-10.142 2.018-6.875 6.817 3.965 1.169 3.327 7.254-.439 8.443-4.156 3.438 4.16 4.82 2.167 7.642C625.112 318.009 614.529 327.978 604 338l.059-28.009L650.868 238ZM478.794 240 524 310.195 523.886 337l-26.151-25.095s-3.722-.14-3.711-2.768c.019-3.18 3.575-2.342 3.575-6.448 0-4.102-4.905-3.833-4.905-7.028 0-3.195 3.274-2.546 3.274-7.108 0-4.563-5.143-3.68-11.596-4.135-6.45-.456-12.782-.021-13.552 2.842 0 0-10.727-11.803-18.885-20.767L450 264.368l2.013-2.275a164.602 164.602 0 0 1 24.083-20.41l2.698-1.683ZM689.856 272l1.993 2.233a164.676 164.676 0 0 1 17.359 26.178l1.792 3.788L664.93 328c-.637-3.171-2.099-6.389-4.993-8.109 2.402-1.338 4.367-4.941 2.112-7.241-1.025-1.155-4.107-2.151-2.677-4.106 1.764-2.119 4.616-4.77 3.181-7.769-.618-2.137-2.859-3.854-2.91-6.086L689.856 272ZM441.759 274l26.137 22.812s-4.12 3.239-3.798 6.259c.053 2.788 4.98 3.122 4.901 5.908-.081 3.023-4.361 3.446-4.442 6.232-.215 2.754 4.12 5.747 4.12 5.747L461.946 328 421 308.083l3.419-7.378a169.686 169.686 0 0 1 8.095-13.853L441.759 274ZM716.532 315l.13.27 1.856 5.088 5.567 17.723L727 354.726 664.476 362 664 336.509 716.532 315ZM416.9 318l46.644 18.46L464 362l-57-5.513 1.454-9.852a170.349 170.349 0 0 1 3.98-16.012L416.9 318ZM728.424 366l.576 11.842L725.161 406v-.002h-60.706L664 370.855 728.424 366ZM405.629 367 463 369.774V406l-55.922-.445-1.243-8.455a176.519 176.519 0 0 1-.835-17.176l.629-12.924Z"/><path fill="#083D9C" stroke="#083D9C" stroke-miterlimit="8" stroke-width="3.65333" d="M459.537 417.005c1.744.042 3.528.336 5.355.953C465.347 427.377 469 435 469 435l-55.034-.435-1.929-5.37-2.037-8.073 3.24 2.61c4.052 2.859 9.416 5.662 14.666 5.439 9.189-.393 19.425-12.459 31.631-12.166ZM668.531 417.005c12.292-.293 22.602 11.773 31.858 12.166 10.575.447 21.611-11.213 21.611-11.213l-5.977 16.595L659 435s3.68-7.623 4.139-17.042a18.21 18.21 0 0 1 5.392-.953ZM429.003 443.013c9.813-.444 19.625 11.101 29.9 10.656 10.279-.443 8.878-3.107 14.016-5.773C475.721 453.225 486 459 486 459h-61.366l-.265-.431L419 447.578l2.361-1.818c2.562-1.554 5.189-2.636 7.642-2.747ZM698.78 443.013c2.443.111 5.061 1.193 7.613 2.747l6.607 5.105-3.748 7.704-.265.431H642s10.24-5.775 13.032-11.104c5.118 2.666 3.722 5.33 13.962 5.773 10.237.445 20.01-11.1 29.786-10.656ZM462.124 465c11.003 0 21.09 13.759 32.555 14.677 11.464.917 18.342-13.762 33.473-13.762 15.129 0 23.842 13.304 35.762 13.304 11.922 0 24.303-12.385 36.223-12.842 11.924-.462 23.843 13.3 34.39 12.842 10.546-.46 19.713-13.304 32.555-13.762 9.743.861 20.023 6.739 25.356 12.481l2.562 3.388-3.167 4.396-1.119 1.278-248.415-.874-.354-.404-5.945-8.251 2.268-1.408C445.503 471.45 455.247 465 462.124 465ZM495.001 492.016c8.748-.459 23.478 11.372 34.986 10.918 11.505-.456 20.254-9.557 35.443-10.011 15.19-.453 19.336 10.921 35.906 9.555 16.572-1.363 10.586-10.92 32.221-10.462 13.524.284 25.787 8.033 33.083 13.804l3.36 2.822-4.38 3.358-198.285-.849-3.704-2.84-4.631-4.315.98-.401c9.214-3.732 28.461-11.239 35.021-11.579ZM529.077 520h1.54c16.573 0 21.182 13.147 32.691 14.198 11.509 1.052 21.143-13.19 35.416-13.715 14.271-.524 32.276 11.6 32.276 11.6l-29.599 10.177-1.431.384a155.389 155.389 0 0 1-16.141 2.577l-14.746.779-5.085-.07-13.412-.709a155.853 155.853 0 0 1-46.656-12.484l-1.93-.973 3.402-2.479c4.091-2.746 9.347-5.733 14.999-7.568l8.676-1.717Z"/><path fill="#4472C4" d="m564 546 5 .416-1.844.584-3.156-1Z"/><path fill="#FF9C10" d="m524 361-28-.814V349l28 12ZM523.776 357.999l-27.018-14V325.79s-3.166.454-2.714-3.187c.15-7.588 19.856 13.848 29.956 20.829L523.775 358ZM604.001 362l26.535-1.175L631 350l-27 12ZM604.112 355.999 604 344.204s24.731-22.12 30-26.204c0 4.538-2.861 8.052-2.861 8.052v17.244L604.113 356Z"/><path fill="#083D9C" stroke="#083D9C" stroke-miterlimit="8" stroke-width="3.64829" d="m535 461 59-.035s-13.209-20.295-29.49-18.896C546.372 442.542 535 461 535 461ZM550.011 434.986l28.988.014s.462-9-14.725-9c-15.185 0-14.263 8.986-14.263 8.986Z"/><path fill="#CE1126" stroke="#630810" stroke-linejoin="round" stroke-miterlimit="10" stroke-width="3.64808" d="M534.46 342.134 595 358v-84.763c-27.729 1.361-50.832-51.671-1.848-55.296-48.061-6.8-53.608 5.439-59.152 18.583l.461 105.61ZM548 418.462c-13.177 21.444-48.402 15.084-56.639.114-2.469-.687-1.008-92.364-1.008-92.364s-3.936-1.762-4.118-4.58c-.18-2.847 5.352-3.105 5.352-6.749 0-3.641-5.65-2.214-5.763-5.879.024-3.504 6.031-3.021 5.763-6.26-.318-3.649-6.728-3.109-7-6.474-.208-2.673 4.585-5.003 5.917-6.205l-4.475-.065-10.09.203c-7.168.007.124 1.535.019 5.599-.066 2.655-3.635 4.421-3.954 6.729-.113 2.37 5.107 4.035 5.173 6.879.059 2.537-5.129 2.71-4.943 5.068.322 3.99 4.596 4.868 4.532 7.284-.066 2.414-5.751 3.333-5.766 5.259.199 3.725.823 94.27.823 94.27 9.059 46.125 61.353 57.858 76.177-2.831ZM582 418.462c13.177 21.444 48.401 15.084 56.639.114 2.468-.687 1.009-92.364 1.009-92.364s3.936-1.762 4.117-4.58c.18-2.847-5.006-3.106-5.006-6.749 0-3.641 5.305-2.214 5.416-5.879-.022-3.504-5.568-3.248-5.3-6.488.317-3.648 4.671-3.222 4.919-6.587.207-2.897-2.734-4.662-4.066-5.864l4.244-.065 10.089.203c7.169.007-.124 1.535-.018 5.599.065 2.655 3.634 4.421 3.955 6.729.111 2.37-5.109 4.035-5.175 6.879-.058 2.537 5.131 2.71 4.943 5.068-.322 3.99-4.596 4.868-4.53 7.284.064 2.414 5.75 3.333 5.764 5.259-.197 3.725-.822 94.27-.822 94.27-9.06 46.125-61.354 57.858-76.178-2.831Z"/><path fill="#630810" stroke="#630810" stroke-linecap="round" stroke-miterlimit="8" stroke-width="5.2715" d="M532.842 423.5c4.973-2.771 9.493-5.537 12.658-12l-19.44.46s-9.037 5.541-13.56 11.54h20.343ZM596.541 423.5c-5.124-2.771-9.78-5.537-13.041-12l20.028.46s9.314 5.541 13.972 11.54h-20.96ZM496.5 404.5l136 1M503.5 372.5l16 21M503.5 393.5l17-21M513.5 370.5l-1 13M529.502 372.5l16 21M529.501 393.5l17-21M538.503 370.5l-1 13M555.503 372.5l16 21M555.503 393.5l17-21M564.506 370.5l-1 13M582.504 372.5l16 21M582.504 393.5l17-21M592.51 370.5l-1 13M608.506 372.5l16 21M608.506 393.5l17-21M618.513 370.5l-1 13"/></g></svg>