<svg xmlns="http://www.w3.org/2000/svg" width="1136" height="568" overflow="hidden"><defs><clipPath id="a"><path d="M-1 94h1136v568H-1z"/></clipPath><clipPath id="b"><path d="M0 94h567v284H0z"/></clipPath><clipPath id="c"><path d="M0 94h567v284H0z"/></clipPath><clipPath id="d"><path d="M0 94h567v284H0z"/></clipPath><clipPath id="e"><path d="M0 94h568v284H0z"/></clipPath><clipPath id="f"><path d="M283.5 236H567v142Zm0 0v142H0Zm0 0H0V94Zm0 0V94H567Z"/></clipPath></defs><g clip-path="url(#a)" transform="translate(1 -94)"><path fill="#012169" fill-rule="evenodd" d="M0 94h1134v567H0Z"/><path fill="#012169" fill-rule="evenodd" d="M566.97 93.985v283.5h-567v283.5h1134v-567Z"/><path fill="#F7E017" fill-rule="evenodd" stroke="#000" stroke-miterlimit="8" stroke-width="0.566509" d="M757.399 395.5c-12.204 10.241-23.836 25.206-26.697 38.734-8.047 38.054-18.726 46.519-35.202 38.357 0 20.444 18.078 21.993 26.011 10.052 0 19.159 7.017 35.786 22.845 49.957 6.674 5.971 7.933 1.89 4.767-4.723-3.165-6.613-3.165-27.965-9.496-40.208 10.145 7.217 25.057 3.136 23.798-16.666-13.005 7.558-25.934 7.256-27.269-10.694-1.64-21.049 6.636-51.62 21.243-64.809ZM741.281 244.545c.865-7.574-.752-15.337-6.24-20.222-10.6-9.392-20.974-6.286-28.718 1.287-11.577-6.286-17.704 16.019-30.823 12.27 2.18 7.233 5.638 10.376 12.179 7.877-6.879 6.286 0 13.86-8.119 21.396 14.697 4.733 22.516-3.446 21.877-17.647 5.638 5.036 14.359 4.733 19.057-.947-7.818-2.537-7.856-9.354-4.698-15.753 4.698-9.43 26.725-9.051 25.485 11.739Z"/><path fill="#337321" fill-rule="evenodd" stroke="#000" stroke-miterlimit="8" stroke-width="0.566509" d="M775.594 353.665c-16.681 8.82-47.168 5.035-50.005-16.693-2.837-21.729 18.232-31.495 23.906-34.296 8.813-4.429 15.735 3.445 12.898 12.605 9.759-3.445 11.953-14.801 7.225-21.387 12.899.946 24.851-8.82 29.882-22.675-4.539 4.316-16.87 1.401-27.007.757 3.139-3.444 3.101-10.182 2.156-13.665-10.667 10.978-26.1 5.943-46.526 37.74 3.14-11.015 9.116-33.046 12.596-47.544.341-1.439.605-2.877.795-4.353 1.21-20.782-20.918-21.161-25.646-11.697 5.182 5.829 2.459 12.643.605 22.977-2.194 12.265-6.922 40.617-11.007 50.043-1.248-14.801-11.007-15.747-12.899-22.977-2.837 1.892-4.387 6.927-3.782 10.372-3.48-3.786-15.433.946-19.821-4.732-4.728 9.426 2.837 18.889 10.705 22.977-4.577.303-5.674 5.83-10.705 5.83 6.771 7.873 13.693 11.015 21.712 11.659 8.019.643 13.996 3.634 18.875 13.362 7.868 15.785 37.826 26.006 66.043 11.697Z"/><path fill="#F7E017" fill-rule="evenodd" stroke="#000" stroke-miterlimit="8" stroke-width="0.566509" d="M817.5 334.621c-9.404 26.047-35.161 44.582-46.793 47.414-19.79 4.794-60.125 24.386-70.926 34.465-1.7-.377-3.286-.981-4.457-1.812-5.325-3.775-9.744-16.006-.302-26.387 29.534-27.633 61.258-15.704 81.048-34.541-16.655 8.796-47.096 5.021-49.928-16.648 17.902 4.719 50.268 5.021 75.987-22.612 3.437 3.813 13.483 15.742 15.371 20.121Z"/><path fill="#337321" fill-rule="evenodd" stroke="#000" stroke-miterlimit="8" stroke-width="0.566509" d="M756.871 395.461c-14.983 12.657-22.76 43.753-21.166 64.798.455 5.856 2.086 9.823 4.589 12.241 1.1-11.939 9.445-42.808 30.725-56.561 17.98-11.637 46.05-37.707 56.481-67.555-1.896-5.327-5.045-9.106-11.038-12.884-10.355 28.186-38.008 41.712-59.591 59.961Z"/><path fill="#316D3A" fill-rule="evenodd" stroke="#000" stroke-miterlimit="8" stroke-width="0.566509" d="M807.5 322.371c-5.335 7.909-17.482 18.764-29.099 23.129 2.497-2.798 3.292-6.342 3.443-9.289-14.795 5.596-44.386 4.962-56.344.634 17.936 4.663 50.366 4.962 76.135-22.345 2.573 2.761 4.768 5.223 5.865 7.871Z"/><path fill="#337321" fill-rule="evenodd" stroke="#000" stroke-miterlimit="8" stroke-width="0.566509" d="M695.046 388.5c-23.815 22.32-8.088 41.789 1.236 46.178-2.472 15.606 12.132 13.73 11.832 26.822 5.916-3.414 7.489-12.492 6.553-19.657 7.489 8.103 26.473-.937 30.517 14.03 2.509-16.543-10.26-33.049-26.136-31.511 6.553-5.927 2.808-15.605-3.408-18.081-1.235 12.154-14.94 12.154-20.257 8.441-5.317-3.752-9.698-15.906-.337-26.222Z"/><path fill="#F7E017" fill-rule="evenodd" stroke="#000" stroke-miterlimit="8" stroke-width="0.566509" d="M746.503 531.331c-2.622 1.477-2.432 4.765-.798 6.907 3.305 4.285-2.355 14.037 8.357 16.142 3.153.628 5.584-1.255 6.8-4.765 3.305-9.678-7.256-10.749-8.205-15.366-.95-4.617-3.951-4.137-6.154-2.918Z"/><path fill="#F7E017" fill-rule="evenodd" stroke="#000" stroke-miterlimit="8" stroke-width="0.566509" d="M755.533 549.208c-3.544 1.627-6.67 3.936-5.222 15.251.572 4.692.305 16.045-3.811 16.197 2.516 1.249 7.928 2.611 10.138-.303 2.135 3.557 6.975 2.536 8.881-1.892 2.516 2.043 6.022-1.4 6.022-4.39 2.211 1.4 6.67-.643 5.527-7.379 2.706.946 6.174-.946 7.432-2.687-3.964-.795-13.95-6.131-16.313-10.369-2.363-4.277-8.538-6.32-12.654-4.428Z"/><path fill="none" stroke="#000" stroke-miterlimit="8" stroke-width="0.566509" d="M701.5 231.5c1.489-2.175 3.156-4.21 5-6M761.5 273.5c2.599-1.991 6.586-2.228 11-1.849M756.5 580.5c-.97-1.565-1.338-8.05-.636-12M765.5 578.5c-1.554-1.336-4.493-5.954-5-10M771.5 574.5c-2.26-.988-7.792-7.683-9-12M777.5 567.5c-2.639-.606-10.672-6.141-14-12"/><path fill="#F7E017" fill-rule="evenodd" stroke="#000" stroke-miterlimit="8" stroke-width="0.566509" d="M922.138 388.5c38.373 32.281 40.849 57.933 34.922 73-3.113-14.088-19.018-36.01-35.56-41.66l.638-31.34Z"/><path fill="#337321" fill-rule="evenodd" stroke="#000" stroke-miterlimit="8" stroke-width="0.566509" d="M852.936 370.5H924.5v84.66c0 72.139-40.16 114.789-81 137.34-40.802-22.588-81-65.239-81-137.34V370.5h50.238c.076 4.374.491 10.974 5.662 17.573 11.852-1.169 25.251-10.031 34.536-17.573Z"/><path fill="#006EC7" fill-rule="evenodd" stroke="#000" stroke-miterlimit="8" stroke-width="0.566509" d="M924.5 370.5v84.56c0 21.733-3.663 40.829-9.894 57.44L843.5 382.365 772.394 512.5c-6.231-16.648-9.894-35.707-9.894-57.44V370.5h162Z"/><path fill="#F7E017" fill-rule="evenodd" d="M916 506.047c-1.242 3.857-3.537 10.096-5.268 13.953L843 393.481 775.268 520c-1.769-3.857-4.026-10.096-5.268-13.953L843.038 370 916 506.047Z"/><path fill="#F7E017" fill-rule="evenodd" stroke="#000" stroke-miterlimit="8" stroke-width="0.566509" d="M875.832 552.91c1.895.948 5.381 2.691 6.935 3.335 3.789-7.579 4.395-18.267 3.145-27.741-4.093 10.422-17.961 10.081-21.751 16.372 2.312 1.175 4.472 2.691 6.329 4.017-4.737 4.737-15.802 12.658-22.092 14.553v-67.61c0-4.738-1.591-8.679-1.591-12.62v-13.985c0-3.145-.644-7.731-3.448-7.731-2.842 0-3.449 4.586-3.449 7.731v13.985c0 3.941-1.591 8.527-1.591 12.62v67.61c-3.448-10.081-17.052-6.632-23.342-16.713 2.463-.607 5.078-.796 7.579-.303-4.737-16.069-17.658-17.32-20.159-22.057 0 6.632-2.842 22.057 1.591 28.689.986-1.175 2.463-2.426 4.282-3.487 5.343 11.673 29.443 11.711 35.127 30.925 4.547-7.087 20.954-15.273 32.435-27.59Z"/><path fill="#F7E017" fill-rule="evenodd" stroke="#000" stroke-miterlimit="8" stroke-width="0.566509" d="M843.5 496.5c5.266 0 22.036-1.722 28.124-1.722 1.569 0 2.876-2.358 2.876-5.278 0-2.92-1.27-5.278-2.876-5.278-6.05 0-22.82-1.722-28.124-1.722-5.266 0-22.036 1.722-28.124 1.722-1.569 0-2.876 2.358-2.876 5.278 0 2.92 1.27 5.278 2.876 5.278 6.088 0 22.858 1.722 28.124 1.722ZM839.732 469.184c-1.123-.885-2.584-1.438-4.232-1.438-3.521 0-6.404 2.582-6.404 5.754 0 3.172 2.846 5.754 6.404 5.754 3.521 0 6.367-2.582 6.367-5.754 0-2.471 3.633-2.471 3.633 0 0 4.98-4.494 9-10 9-5.543 0-10-4.02-10-9 0-4.979 4.494-9 10-9 1.648 0 3.221.369 4.607.996-.112.811-.375 2.361-.375 3.688Z"/><path fill="#F7E017" fill-rule="evenodd" stroke="#000" stroke-miterlimit="8" stroke-width="0.566509" d="M815.5 495.5c1.105 0 2-2.457 2-5.5 0-3.042-.895-5.5-2-5.5M817.5 495.5c1.658 0 3-2.457 3-5.5 0-3.042-1.342-5.5-3-5.5M832.5 496.5c2.218 0 4-2.906 4-6.5s-1.782-6.5-4-6.5M836.5 496.5c2.208 0 4-2.921 4-6.5s-1.792-6.5-4-6.5M848.5 496.5c2.227 0 4-3.15 4-7s-1.814-7-4-7M852.5 496.5c1.656 0 3-2.914 3-6.5s-1.344-6.5-3-6.5M869.5 495.5c1.654 0 3-2.444 3-5.5 0-3.055-1.346-5.5-3-5.5M808.5 549.5c2.006-1.257 4.444-2.392 7-3M872.5 550.5c-.612-.628-1.306-1.257-2-2M875.5 552.5c4.345-4.673 7.978-9.944 10-16"/><path fill="#FFF" fill-rule="evenodd" stroke="#000" stroke-miterlimit="8" stroke-width="0.566509" d="M829.5 429.814c0-1.567 1.233-2.217 2.691-3.326 1.756-1.338 2.466-1.988 4.036-1.988h20.405c1.494 0 1.868.382 1.868 1.835v28.33c0 1.415-.336 1.835-1.868 1.835H829.5v-26.992"/><path fill="#E5E5E5" fill-rule="evenodd" stroke="#000" stroke-miterlimit="8" stroke-width="0.566509" d="M851.584 459.5c2.711 0 2.222-.076 4.104-1.968 1.996-1.968 1.807-1.816 1.807-3.633v-25.696c0-1.324-.339-1.703-1.732-1.703H836.75c-1.506 0-2.146.606-3.765 1.854-1.355 1.022-2.485 1.666-2.485 3.104V459.5h21.084Z"/><path fill="#FFF" fill-rule="evenodd" stroke="#000" stroke-miterlimit="8" stroke-width="0.566509" d="M853.5 458.667c0 1.413-.335 1.833-1.86 1.833h-20.317c-1.525 0-1.823-.382-1.823-1.833v-28.334c0-1.413.335-1.833 1.823-1.833h20.317c1.525 0 1.86.382 1.86 1.833v28.334Z"/><path fill="#96877D" fill-rule="evenodd" stroke="#000" stroke-miterlimit="8" stroke-width="0.566509" d="M893.315 353.517c4.002 4.493 5.324 10.497 3.134 16.388h-5.967c2.493-7.552.944-14.727-9.742-15.671-15.974-1.397-34.553 29.528-62.497 33.266-8.157-9.742-7.741-28.281 2.643-37.079-5.362-15.444-16.653-32.435-24.508-39.76-5.135-.831-11.064-1.246-14.878-1.02 4.078-8.798 15.709-18.049 25.15-21.825 1.51-2.227 3.172-4.38 4.682-6.305.944-12.083 58.419-6.419 70.654 1.095.038 13.555 5.362 58.677 11.329 70.911Z"/><path fill-rule="evenodd" d="M822.917 361.107c-1.372-20.93-9.91-38.196-21.917-49.946 5.718 1.587 17.42 1.587 25.348-4.08 10.444-6.914 37.736-19.004 47.723-13.828.8 1.738 1.258 5.667.648 8.161-2.364-6.272-28.703 3.438-36.135 6.423-7.128 3.286-10.292 7.707-7.776 17.605-4.117-3.438-2.707-6.762-6.976-9.256 1.715 4.08 3.126 11.448 3.621 17.417-1.601-4.232-4.421-13.337-10.634-18.702 5.374 10.352 10.063 35.25 7.852 48.473 4.269 0 13.722-4.156 17.496-7.14-3.317 4.722-12.922 8.009-19.097 9.256-2.783 3.287-4.688 11.787-4.536 16.51-.419-5.818 1.41-19.986 4.383-20.893ZM893 353c-5.154-5.776-14.751-8.91-27-5.55 1.867-.944 5.9-2.529 9.485-3.133-.448-3.285-3.398-17.443-3.883-20.878l3.435-1.397c1.718 8.494 3.884 18.197 5.266 22.124 1.083.302 3.585.792 5.751 1.887-.934-3.284-6.199-26.994-6.05-29.524l4.668-2.529c1.83 12.874 4.78 31.562 8.328 39Z"/><path fill="#96877D" fill-rule="evenodd" stroke="#000" stroke-miterlimit="8" stroke-width="0.566509" d="M890.455 370.5c2.516-7.689.953-14.993-9.831-15.954-8.346-.731-17.416 7.458-28.124 15.954h37.955ZM821.5 302.202c-4.726.663-15.235-.311-20.604-2.104.303-1.481.87-2.961 1.55-4.598-3.289 2.26-9.564 6.702-11.946 9.781 7.561 1.636 23.137 2.455 31-3.079Z"/><path fill="none" stroke="#000" stroke-miterlimit="8" stroke-width="0.566509" d="M820.5 350.5c1.725 4.965 2.85 9.744 3 14M806.781 288.5c-2.89 3.976-5.433 8.241-6.281 11.855 5.433 1.663 16.184 2.566 21 1.952"/><path fill="none" stroke="#000" stroke-miterlimit="8" stroke-width="0.566509" d="M796.5 310.428c2.038.339 3.925.716 5.547 1.167 5.661 1.581 17.245 1.581 25.095-4.065 7.849-5.646 29.169-23.148 53.358-25.03"/><path fill="none" stroke="#000" stroke-miterlimit="8" stroke-width="0.566509" d="M790.5 305.317c7.524 1.603 23.022 2.367 30.809-3.015 18.132-12.519 35.661-19.848 53.191-20.802"/><path fill="#337321" fill-rule="evenodd" stroke="#000" stroke-miterlimit="8" stroke-width="0.566509" d="M922.5 388.5c26.346 18.254 45.822 35.902 51.484 64.229 5.661 28.328 16.343 35.902 29.516 28.328-3.13 16.36-19.476 18.254-33.253 5.681 1.246 18.897-6.265 41.582-25.742 49.762-1.245-11.323 6.228-20.299 4.077-29.615-.944-4.09-1.246-13.558 4.076-17.951-10.342 3.446-26.685-3.143-28.233-18.595 11.927 5.681 27.289 6.628 33.253-8.521 5.926-15.072 3.435-40.9-35.178-73.318ZM955.5 241.335c8.104-21.598 29.339-19.381 36.505-10.168 20.895-12.079 23.715 15.252 41.495 9.862-.3 5.084-6.23 9.862-12.79 9.518 6.86 6.346-2.82 15.902 11.85 21.597-12.49 6.346-29.94-.305-34.627-17.813-4.052 8.257-18.722 8.257-24.649 1.606 12.793-3.479 11.855-15.558 4.689-20.336-7.241-4.816-19.997-2.867-22.473 5.734ZM891.31 288.017c5.859 18.882 17.992 36.481 31.07 48.452 15.081 13.822 37.873 10.348 50.611-2.832.302 26.284-26.95 28.324-42.107 20.091-6.69-3.626-12.095-1.737-5.67 4.078 9.752 8.8 31.07 15.333 56.243 20.733 43.993 9.404 28.313 44.299 15.422 43.959 3.701-.076 6.731-3.928 1.398-8.724-38.175-34.328-115.812-20.809-114.564-97.434-8.165 20.091-41.805 12.236-26.081-11.631 5.027 4.079 13.834 4.381 16.367-1.888 1.965-4.872.68-13.369-8.127-20.696 1.436-.113 4.574 0 4.233-3.625.378 2.115 2.306 5.249 7.258 4.192 1.398 2.228 2.91 3.701 4.913 2.908.378-.151 1.588-.755 1.096-2.984.378 4.23 5.33 5.703 7.938 5.401Z"/><path fill="#F7E017" fill-rule="evenodd" stroke="#000" stroke-miterlimit="8" stroke-width="0.566509" d="M931.473 354.512c18.194 11.949 38.804 11.949 57.752-10.057 5.964-6.92 15.365-12.894 21.965-13.537 6.61-.643 6.27-6.919 11.29-8.167-3.13-.946-4.38-4.727-9.1-4.235 11.78-4.084 8.31-13.537 14.12-18.074-4.72 1.739-12.08-5.331-18.84 3.63 1.74-4.084-.64-8.961-2.34-10.852.65 4.726-9.244 5.672-11.131 17.62-1.057 6.693-4.718 6.277-5.322-4.084-.453-7.6-4.077-28.623-8.455-39.286-4.379-10.7-5.398-25.371.566-27.564-.906-1.513-2.152-2.874-3.699-3.857-7.285-4.764-20.081-2.836-22.61 5.672-8.153 21.363 14.759 33.652 12.871 56.906-3.435-17.28-31.405-21.704-31.065-38.681-9.097 4.083-7.851 11.646-4.379 17.62-5.662-8.81-18.533 5.672-29.517-6.277-1.246 15.73 12.569 21.704 23.855 22.309-5.662 10.058 1.888 18.565 9.399 21.364.302-17.621 36.35-10.399 36.728 19.813.301 25.712-27.329 27.905-42.088 19.737ZM981.749 378.5c43.761 9.431 28.161 44.428 15.339 44.087-8.158-.189-15.94-7.083-16.429-13.067-9.361 5.037-6.88 14.961.301 18.9-19.7-2.349-27.971 10.718-28.46 25.035 3.609-6.628 14.549-7.082 18.61-5.681 4.06 1.401 14.549 2.197 18.76-2.538-3.459 2.993 2.18 9.924-2.669 15.264 16.429-.644 23.609-16.059 20.789-22.839 21.28-19.468 17.22-51.283-26.241-59.161ZM948.355 528.571c2.957 1.766 2.567 5.522.583 7.888-4.007 4.733 2.023 16.04-10.309 17.956-3.657.563-6.342-1.691-7.548-5.71-3.346-11.119 8.793-11.87 10.076-17.091 1.323-5.184 4.708-4.545 7.198-3.043Z"/><path fill="#F7E017" fill-rule="evenodd" stroke="#000" stroke-miterlimit="8" stroke-width="0.566509" d="M937.717 548.441c3.912 1.975 7.287 4.709 5.216 17.317-.882 5.241-1.074 17.962 3.567 18.304-2.915 1.291-9.014 2.545-11.392-.797-2.569 3.873-7.939 2.506-9.896-2.507-2.953 2.165-6.712-1.86-6.558-5.202-2.57 1.481-7.442-.988-5.907-8.507-3.069.95-6.904-1.329-8.247-3.304 4.488-.721 15.918-6.265 18.795-10.936 2.838-4.633 9.857-6.646 14.422-4.368Z"/><path fill="none" stroke="#000" stroke-miterlimit="8" stroke-width="0.566509" d="M934.5 583.5c1.606-1.755 2.55-9.359 1.653-14M925.5 580.5c1.807-1.423 5.284-6.461 6-11M918.5 575.5c2.427-1.02 8.53-8.23 10-13M912.5 567.5c2.926-.494 12.086-5.962 16-12"/><path fill="#F7E017" fill-rule="evenodd" stroke="#000" stroke-miterlimit="8" stroke-width="0.566509" d="M883.515 316.5c-.538 32.141 13.087 48.437 31.985 59-7.005-4.112-3.964-18.221-13.433-22.785 2.233-.151 5.774 2.98 11.355 1.735-2.733-5.96-7.198-15.052-17.59-16.296 2.733-.302 8.66.641 12.471-.793-5.427-8.186-19.822-4.262-24.788-20.861ZM880.596 285.858c-1.15-.387-2.109-1.549-3.067-3.059-5.022 1.084-6.977-2.13-7.36-4.299.306 3.718-2.837 3.563-4.332 3.679 8.97 7.513 10.274 16.226 8.28 21.222-2.568 6.428-11.462 6.118-16.599 1.936-.652 13.67 16.906 18.201 23.27.968 0 2.904 3.68 2.595 4.638 6.428 4.524-7.396 1.073-18.046-4.83-26.875Z"/><path fill="#337321" fill-rule="evenodd" stroke="#000" stroke-miterlimit="8" stroke-width="0.566509" d="M853.283 222.409c-7.865-7.185-11.494-19.224-11.154-26.108.302-6.885 3.138-14.409 13.196-11.249-3.138 0-.945 6.245-4.235 6.885 2.685.94 6.277-1.242 6.769-2.671.643 2.182 4.726 1.58 5.029 4.063 1.588-1.242-.151-7.336-2.496-8.616 1.74-.94 2.685-5.793 1.891-8.126-1.588.301-3.933 2.521-4.386 5.644.794-2.521-.152-8.766-4.576-9.707-1.248 1.731-1.588 5.944.151 8.277-4.083-.941-10.058 1.73-11.495 5.154.303-4.138.908-10.045 3.479-13.769.87-1.242-1.248-3.424-2.911-.452-3.063-5.944-11.231-9.066-14.861-6.094-3.63 2.972-8.47-1.392-11.457 3.273-2.987 4.702-13.121 5.191-12.591 10.157.302 2.972-.416 7.562-1.891 9.217-3.63 4.063 1.739 7.035 2.685 10.647-.643-11.888 18.377-35.025 37.434-25.958-1.739 2.972-3.252 8.916-3.781 16.101-.794 10.647.794 25.658 11.154 34.423l4.046-1.091Z"/><path fill="#C8102E" fill-rule="evenodd" stroke="#000" stroke-miterlimit="8" stroke-width="0.566509" d="M858.502 184.728c-.115-2.747 4.85-6.3 11.495-6.227 8.02.073 14.207 7.07 20.623 6.41 6.416-.696 3.246 2.747 1.909 3.663-1.336.916-2.138 2.271-1.68 3.956.458 1.685-.344 2.784-2.941 1.209-5.728-3.443-11.419 1.355-18.98-1.282-6.454-2.344-10.235-3.626-10.426-7.729Z"/><path fill="#96877D" fill-rule="evenodd" stroke="#000" stroke-miterlimit="8" stroke-width="0.566509" d="M826.688 259.205c-3.135-9.941-15.07-20.83-20.886-23.334l-.302-5.349c3.135-1.252 10.688-7.247 14.125-10.586 23.568 11.345 55.595-4.742 70.362-21.436l5.665 3.453-2.832 3.794-2.984-1.594c-3.626 4.401-17.109 17.149-21.188 19.843 5.476 1.404 12.992 2.352 15.07 2.238 13.18-9.485 23.529-17.983 28.552-18.628l4.23 5.691-3.777 2.694-2.983-1.746c-14.126 11.686-30.139 37.22-36.446 54.255-8.763-1.897-40.185-.645-46.606-9.295Z"/><path fill="none" stroke="#000" stroke-miterlimit="8" stroke-width="0.566509" d="M868.5 224.3c-2.07-.56-3.833-1.16-4.944-1.8-2.568 2.48-8.93 4.64-17.056 5"/><path fill="none" stroke="#000" stroke-miterlimit="8" stroke-width="0.566509" d="M827.142 255.5c-2.138-11.555 1.26-24.341 7.293-28.217 13.173 8.536 35.739 8.536 49.065-.783"/><path fill="none" stroke="#000" stroke-miterlimit="8" stroke-width="0.566509" d="M827.5 249.536c9.977-.306 31.655 1.417 36.944 2.221 5.288.804 14.177 3.025 12.939 5.743M832.48 247.5l3.02-2.5-3.02-2.5-2.98 2.467 2.98 2.533Z"/><path fill="#337321" fill-rule="evenodd" stroke="#000" stroke-miterlimit="8" stroke-width="0.566509" d="M839.27 188.921c-3.737-5.094-13.975-6.703-16.194.154-.973 3.026-2.413 6.205-4.866 7.66-2.413 1.418-1.868 5.784-.817 7.661 2.569 4.635.311 9.078 5.333 12.104 0-3.677 5.489-7.469 10.199-8.427 4.71-.957 11.795-5.094 12.768-9.729 1.013-4.673 2.647-8.503-6.423-9.423Z"/><path fill="#96877D" fill-rule="evenodd" stroke="#000" stroke-miterlimit="8" stroke-width="0.566509" d="M816.354 234.5h1.254l.038 8.558c.266.076.532.227.76.377l7.448-4.26.646 1.093-7.486 4.299c.038.263.076.565.038.829l7.448 4.26-.646 1.094-7.524-4.223c-.19.188-.456.377-.722.452v8.521h-1.254v-8.558c-.266-.076-.532-.227-.76-.377l-7.448 4.26-.646-1.093 7.486-4.298c-.038-.264-.076-.566-.038-.83l-7.448-4.26.646-1.093 7.486 4.26c.19-.189.456-.377.722-.453V234.5Z"/><path fill="#96877D" fill-rule="evenodd" stroke="#000" stroke-miterlimit="8" stroke-width="0.566509" d="M827.287 255.231c-2.612 2.65-6.252 4.269-10.297 4.269-8.017 0-14.49-6.477-14.49-14.5s6.473-14.5 14.49-14.5c4.707 0 8.862 2.245 11.51 5.704-.735 1.84-1.618 5.926-1.692 7.766-.514-5.005-4.707-8.906-9.855-8.906-5.48 0-9.893 4.453-9.893 9.899 0 5.484 4.45 9.9 9.893 9.9 4.56 0 8.532-3.202 9.672-7.434.036 1.914.11 6.293.662 7.802Z"/><path fill="#337321" fill-rule="evenodd" stroke="#000" stroke-miterlimit="8" stroke-width="0.566509" d="M810.997 269.89c-.94-1.109-2.671-4.131-2.483-6.349 1.392-.153 4.064.803 5.305 2.065-.15-1.606-.79-5.086-.451-6.692 1.731.65 5.305 2.715 6.584 5.086-.301-1.606-.941-5.737-.301-8.261 1.881 1.11 5.004 4.131 5.644 6.196.15-3.174 1.241-8.414 2.182-9.714 1.392 1.415 3.612 2.715 5.004 4.628.301-2.563 1.58-5.584 3.424-6.349 1.392 1.606 3.612 5.239 4.063 9.37 1.392-.459 3.273-2.869 4.063-4.131.791 1.262 1.581 3.481 1.092 6.196 1.73-1.606 3.762-3.824 4.214-5.737 1.241.956 3.611 3.328 4.213 5.89-.3-2.065-.15-5.737-.79-7.802 2.333 1.262 4.214 3.48 4.703 5.89.64-2.218 2.032-6.196 3.274-7.152 1.241 2.562 2.521 5.584 2.332 8.108.79-1.606 2.032-4.436 3.274-5.087 1.091 1.76.94 5.584.639 7.649 1.091-1.606 3.123-3.48 4.365-4.13.15.956.301 2.868 0 4.283 1.392-.803 3.762-5.086 4.552-7.304 2.182 1.109 4.365 4.933 4.553 6.845 1.58-.65 4.703-3.48 5.643-5.086 0 1.109.49 4.13-.15 6.501.941-.956 1.881-2.868 2.333-3.671.639 1.606.15 5.392-.489 7.457 1.392-1.262 3.461-2.065 4.703-2.065.15 2.715-1.731 7.458-3.462 10.976-14.974-4.245-46.428-5.851-78.033-7.61Z"/><path fill="#F7E017" fill-rule="evenodd" d="M863.002 185.805c-.076-1.191 2.498-3.843 7.153-3.805 5.564.039 10.712 4.19 15.14 3.882 4.467-.307 2.271 1.192 1.325 1.576-.946.384-1.476.999-1.173 1.691.34.73-.227 1.191-2.044.538-3.974-1.46-7.949.576-13.172-.538-4.504-1.038-7.116-1.576-7.229-3.344Z"/><path fill="#F7E017" fill-rule="evenodd" stroke="#000" stroke-miterlimit="8" stroke-width="0.566509" d="M816.053 279.519c-4.739 5.594-9.44 4.661-10.387 1.082-.948-3.58 2.54-5.258 1.251-8.391-1.251-3.095 2.047-4.512 3.639-3.095 1.592 1.38 6.635-3.095 8.834 1.567 2.198 4.661 3.942 7.905 2.691 9.769-1.289 1.865-5.08.933-6.028-.932ZM835.606 270.775c-.896-2.116 4.126-6.157 6.734-3.271 2.609 2.886 6.657-3.117 8.915 1.424 2.258 4.579 2.998 6.965 4.127 9.505 1.129 2.578-6.151 3.925-8.409 1.693.312 1.501-6.306 2.694-8.097-1.616-.973-2.27-2.025-4.926-3.27-7.735ZM868.653 273.708c-1.151-2.163 4.49-5.259 7.421-1.305.779-1.641 6.345-1.94 6.717 2.797.371 4.736.556 7.534.705 9.398.148 1.865-3.377 3.581-5.938-1.156-4.564.933-6.642-1.641-7.161-4.326-.557-2.76-1.114-4.103-1.744-5.408Z"/><path fill="#337321" fill-rule="evenodd" stroke="#000" stroke-miterlimit="8" stroke-width="0.566509" d="M818.575 269.741c-.738-1.605 4.119-4.776 7.422-2.369 3.303 2.369 7.889-2.063 9.871 2.216 3.963 8.675 4.196 9.286 2.992 10.967-1.205 1.682-6.373 1.032-7.694-1.261-.234 1.605-4.702 1.338-7.034.077-2.642-1.452-4.507-6.764-5.557-9.63ZM851.612 270.301c-1.113-2.473 6.368-4.675 9.668-.309 1.688-1.545 5.332-1.623 7.404 3.129 2.071 4.753 2.378 7.38.882 8.577-1.074.85-4.949 1.507-6.215-.656-1.765 1.12-7.174.154-8.363-2.898-1.189-3.013-2.225-5.679-3.376-7.843ZM883.504 275.506c-.151-2.151 3.846-3.152 5.317 0 1.508 3.151 6.258.296 6.673 5.561.076 1.001-.565 4.856-2.036 6.71-1.47 1.854-8.785 0-9.237-3.93-.491-3.967-.641-6.191-.717-8.341Z"/><path fill="none" stroke="#000" stroke-miterlimit="8" stroke-width="0.566509" d="M815.5 279.5c-1.722-2.435-4.043-6.363-7-2.121M830.5 279.5c-.72-1.259-1.653-3.381-2-5M846.5 279.5c-.906-.792-2.281-2.34-3-4M845.5 271.5c2.885.317 4.862 3.05 5.731 4.277.909 1.228 2.807 3.446 4.269 3.723M863.5 281.5c-.893-1.538-1.786-2.885-2-4M861.5 270.5c.862 1.072 1.517 1.959 2 3M877.5 283.5c-1.279-2.601-3.294-5.161-5-6M876.5 274.5c.16 4.514 6.72 4.807 7 8M888.5 275.5c.68 1.088.92 2.175 1 4"/><g clip-path="url(#b)"><g clip-path="url(#c)"><g clip-path="url(#d)"><g clip-path="url(#e)"><path fill="#012169" d="M0 94v283.999h567V94Z"/><path stroke="#FFF" stroke-width="56.7" d="m0 0 567 283.5M567 0 0 283.5" transform="matrix(1 0 0 1.00176 0 94)"/><g clip-path="url(#f)"><path stroke="#C8102E" stroke-width="37.8" d="m0 0 567 283.5M567 0 0 283.5" transform="matrix(1 0 0 1.00176 0 94)"/></g><path stroke="#FFF" stroke-width="94.5" d="M283.5 0v283.5M0 141.75h567" transform="matrix(1 0 0 1.00176 0 94)"/><path stroke="#C8102E" stroke-width="56.7" d="M283.5 0v283.5M0 141.75h567" transform="matrix(1 0 0 1.00176 0 94)"/></g></g></g></g></g></svg>