<svg xmlns="http://www.w3.org/2000/svg" width="1136" height="758" overflow="hidden"><defs><clipPath id="a"><path d="M-1-1h1136v758H-1z"/></clipPath></defs><g fill-rule="evenodd" clip-path="url(#a)" transform="translate(1 1)"><path fill="red" d="M0 0h1134v756H0Z"/><path fill="#060" d="M0 0h454v756H0Z"/><path fill="#FF0" stroke="#000" stroke-linecap="round" stroke-linejoin="round" stroke-miterlimit="10" stroke-width="1.08199" d="M601.852 495.5c-57.033-1.717-318.558-164.93-320.352-190.921l14.441-24.079C321.883 318.186 589.24 476.914 615.5 471.289l-13.649 24.203"/><path fill="#FF0" stroke="#000" stroke-linecap="round" stroke-linejoin="round" stroke-miterlimit="10" stroke-width="1.08199" d="M292.451 276.999c-5.131 13.82 68.445 59.341 156.969 113.221 88.52 53.876 164.848 87.172 170.506 82.397.345-.617 2.783-4.815 2.56-4.781-1.061 1.599-3.642 2.104-7.67.942-23.915-6.903-86.291-35.555-163.54-82.434-77.247-46.883-144.455-90.086-154.901-108.443-.726-1.271-1.244-3.592-1.139-5.397l-.254-.004-2.224 3.89-.305.61h-.002ZM603.65 496.87c-.97 1.761-2.778 1.82-6.213 1.442-21.396-2.369-86.318-33.964-163.139-79.984-89.388-53.547-163.211-102.338-155.202-115.09l2.179-3.855.429.134c-7.202 21.61 145.693 109.098 154.695 114.676 88.467 54.849 163.05 86.878 169.65 78.554l-2.401 4.133v-.004Z"/><path fill="#FF0" stroke="#000" stroke-linecap="round" stroke-linejoin="round" stroke-miterlimit="10" stroke-width="1.08199" d="M454.525 320.499c57.054-.452 127.458-7.804 167.975-23.968l-8.729-14.198c-23.949 13.268-94.74 21.993-159.728 23.298-76.863-.708-131.118-7.873-158.303-26.131l-8.24 15.119c49.972 21.167 101.18 25.662 167.026 25.881"/><path fill="#FF0" stroke="#000" stroke-linecap="round" stroke-linejoin="round" stroke-miterlimit="10" stroke-width="1.08199" d="M624.494 296.688c-1.395 2.251-27.843 11.449-66.805 18.236-26.417 4.062-60.876 7.534-103.879 7.576-40.856.038-74.231-2.894-99.498-6.348-40.9-6.466-62.008-15.464-69.812-18.644.746-1.496 1.226-2.546 1.945-3.944 22.465 9.02 43.672 14.459 68.516 18.313 25.102 3.429 58.074 6.403 98.728 6.365 42.803-.044 76.882-3.78 103.147-7.72 39.953-6.498 61.777-14.861 64.843-18.745l2.821 4.911h-.004Zm-7.668-14.517c-4.33 3.507-25.907 11.224-63.87 17.338-25.335 3.661-57.549 6.938-98.707 6.979-39.101.038-71.046-2.619-95.345-6.188-38.554-5.078-59.073-14.237-66.471-16.908a212.947 212.947 0 0 1 2.256-3.834c5.756 2.922 25.558 11.028 64.638 16.611 24.023 3.435 56.018 5.995 94.924 5.955 40.964-.042 72.811-3.383 97.986-7.025 38.158-5.294 58.691-15.135 61.809-17.599l2.782 4.668v.004ZM266.65 389.216c35.157 19.032 113.244 28.623 187.138 29.283 67.282.108 154.934-10.467 187.712-27.95l-.902-19.049c-10.254 16.129-104.186 31.601-187.539 30.968-83.354-.633-160.757-13.591-186.559-30.365l.15 17.108"/><path fill="#FF0" stroke="#000" stroke-linecap="round" stroke-linejoin="round" stroke-miterlimit="10" stroke-width="1.08199" d="m643.479 386.055.002 4.505c-4.927 5.88-35.821 14.767-74.563 21.025-29.485 4.512-67.926 7.915-115.826 7.915-45.507 0-81.797-3.239-109.94-7.551-44.485-6.465-72.94-17.787-78.652-21.166l.025-5.256c17.158 11.385 63.642 19.714 79.252 22.263 27.959 4.284 64.033 7.498 109.313 7.498 47.676 0 85.901-3.38 115.201-7.862 27.795-4.008 67.392-14.429 75.187-21.369h.001Zm.019-16.025.002 4.505c-4.927 5.876-35.821 14.763-74.563 21.021-29.485 4.512-67.926 7.915-115.826 7.915-45.507 0-81.797-3.235-109.94-7.55-44.486-6.463-72.94-17.785-78.652-21.165l.025-5.256c17.158 11.384 63.642 19.714 79.252 22.259 27.959 4.288 64.033 7.503 109.313 7.503 47.675 0 85.901-3.382 115.201-7.867 27.795-4.008 67.391-14.429 75.187-21.369l.001.004ZM453.534 492.152c-80.987-.477-150.38-21.822-165.034-25.35l10.685 16.535c25.884 10.763 93.583 26.804 155.126 25.027 61.545-1.774 115.33-6.487 153.233-24.727L618.5 466.5c-25.83 12.026-113.736 25.529-164.967 25.652"/><path fill="#FF0" stroke="#000" stroke-linecap="round" stroke-linejoin="round" stroke-miterlimit="10" stroke-width="1.03864" d="M611.88 480.007a252.252 252.252 0 0 1-4.915 7.174c-17.872 6.237-46.033 12.786-57.917 14.696-24.274 4.95-61.831 8.606-95.163 8.623-71.721-1.039-130.429-14.935-158.048-26.789l-2.229-3.792.364-.57 3.78 1.451c49.116 17.392 104.281 24.331 156.538 25.577 33.197.115 66.43-3.766 93.304-8.523 41.21-8.172 57.873-14.332 62.986-17.125l1.3-.722h-.002Zm9.496-15.504c.042.048.084.094.124.146a510.918 510.918 0 0 1-3.714 6.112c-9.532 3.372-35.401 10.863-73.177 16.091-24.89 3.356-40.36 6.606-89.873 7.558-92.78-2.336-152.85-20.292-167.121-24.721l-2.115-4.015c53.769 13.893 108.693 23.591 169.239 24.582 45.299-.955 64.571-4.256 89.254-7.587 44.049-6.78 66.243-13.957 72.904-16.029a4.956 4.956 0 0 0-.292-.374l4.776-1.766-.004.004Z"/><path fill="#FF0" stroke="#000" stroke-linecap="round" stroke-linejoin="round" stroke-miterlimit="10" stroke-width="1.08199" d="M622.374 374.538c.262 53.165-26.978 100.873-48.92 121.92-31.041 29.776-72.198 48.93-120.262 49.813-53.671.984-104.278-33.962-117.852-49.314-26.538-30.015-48.145-68.13-48.838-119.498 3.288-58.024 26.095-98.443 59.154-126.16 33.06-27.717 77.08-41.215 113.74-40.25 42.297 1.115 91.706 21.839 125.847 62.981 22.367 26.956 32.053 56.209 37.131 100.508ZM453.648 192.5c103.077 0 187.852 83.777 187.852 186.499 0 102.721-84.775 186.501-187.852 186.501S266.5 481.722 266.5 378.999c0-102.722 84.071-186.499 187.148-186.499"/><path fill="#FF0" stroke="#000" stroke-linecap="round" stroke-linejoin="round" stroke-miterlimit="10" stroke-width="1.08199" d="M453.5 191.5c102.997 0 187 84.006 187 187.002 0 102.994-84.005 186.998-187 186.998-102.997 0-187-84.002-187-186.998S350.505 191.5 453.5 191.5ZM270.615 378.503c0 100.581 82.604 182.885 182.885 182.885 100.283 0 182.887-82.304 182.887-182.885 0-100.585-82.606-182.889-182.887-182.889s-182.885 82.308-182.885 182.889Z"/><path fill="#FF0" stroke="#000" stroke-linecap="round" stroke-linejoin="round" stroke-miterlimit="10" stroke-width="1.08199" d="M454 207.5c94.041 0 171.5 76.958 171.5 171.001 0 94.045-77.461 170.999-171.5 170.999s-171.5-76.954-171.5-170.999c0-94.043 77.463-171.001 171.5-171.001Zm-167.381 171c0 91.784 75.6 166.891 167.381 166.891S621.381 470.284 621.381 378.5c0-91.786-75.598-166.893-167.381-166.893-91.781 0-167.381 75.107-167.381 166.893Z"/><path fill="#FF0" stroke="#000" stroke-linecap="round" stroke-linejoin="round" stroke-miterlimit="10" stroke-width="1.08199" d="M461.427 190.5H445.5l.019 376H461.5Z"/><path fill="#FF0" stroke="#000" stroke-linecap="round" stroke-linejoin="round" stroke-miterlimit="10" stroke-width="1.08199" d="M460.39 188.5h4.075l.035 379.997h-4.078l-.03-379.997Zm-15.89.003h4.107l.006 379.997h-4.11V188.503Z"/><path fill="#FF0" stroke="#000" stroke-linecap="round" stroke-linejoin="round" stroke-miterlimit="10" stroke-width="1.08199" d="M641.5 385.5v-13.927l-11.318-10.565-64.241-17.041-92.583-9.467-111.478 5.68-79.357 18.935-16.023 11.89v13.93l40.585-18.246 96.363-15.148h92.583l68.02 7.574 47.237 11.36Z"/><path fill="#FF0" stroke="#000" stroke-linecap="round" stroke-linejoin="round" stroke-miterlimit="10" stroke-width="1.08199" d="M454.1 349.711c44.208-.082 87.1 4.229 121.121 10.918 35.107 7.086 59.813 15.949 68.26 25.904l-.009 4.93c-10.187-12.389-43.433-21.471-69.041-26.663-33.762-6.631-76.367-10.912-120.331-10.83-46.391.088-89.589 4.524-122.858 11.078-26.695 5.348-62.297 15.972-66.742 26.452v-5.133c2.441-7.254 28.951-18.094 66.141-25.611 33.518-6.599 76.796-10.959 123.459-11.045Zm.019-16.21c44.208-.081 87.1 4.232 121.121 10.918 35.107 7.089 59.813 15.949 68.26 25.904l-.009 4.929c-10.188-12.385-43.433-21.468-69.041-26.658-33.762-6.635-76.367-10.916-120.331-10.83-46.391.084-89.38 4.523-122.652 11.074-25.761 4.931-62.817 15.976-66.95 26.456v-5.136c2.441-7.175 29.488-18.404 66.143-25.611 33.518-6.599 76.796-10.956 123.459-11.045ZM453.115 251.509c69.671-.354 130.441 9.891 158.244 24.351l10.141 17.813c-24.165-13.223-89.726-26.972-168.284-24.916-64.008.4-132.401 7.155-166.716 25.743l12.107-20.558c28.163-14.827 94.578-22.351 154.51-22.429"/><path fill="#FF0" stroke="#000" stroke-linecap="round" stroke-linejoin="round" stroke-miterlimit="10" stroke-width="1.08199" d="M454.271 266.368c39.764-.104 78.187 2.113 108.744 7.562 28.457 5.234 55.596 13.091 59.477 17.316l3.008 5.254c-9.437-6.09-32.922-12.872-63.077-18.523-30.283-5.625-68.679-7.489-108.222-7.387-44.882-.151-79.751 2.19-109.676 7.347-31.65 5.853-53.608 14.214-59.025 18.187l2.948-5.554c10.526-5.307 27.226-11.704 55.29-16.698 30.947-5.587 66.187-7.263 110.536-7.504h-.002Zm-.017-15.865c38.054-.099 75.627 1.997 104.915 7.201 23.099 4.444 45.943 11.382 54.307 17.557l4.4 6.91c-7.48-8.218-35.637-16.005-60.494-20.367-29.063-4.955-65.075-6.915-103.129-7.229-39.936.111-76.843 2.528-105.482 7.682-27.322 5.139-44.954 11.223-52.414 15.974l3.87-5.772c10.295-5.357 26.926-10.276 47.873-14.298 28.851-5.192 65.985-7.547 106.155-7.658ZM546.521 456.159c-34.326-6.369-68.714-7.294-92.734-7.013-115.701 1.348-153.078 23.613-157.64 30.354l-8.647-14.01c29.457-21.221 92.463-33.122 166.914-31.905 38.66.629 72.021 3.181 100.086 8.584l-7.981 13.993"/><path fill="#FF0" stroke="#000" stroke-linecap="round" stroke-linejoin="round" stroke-miterlimit="10" stroke-width="1.03864" d="M453.393 447.634c32.308.478 64.02 1.803 94.63 7.467l-2.217 3.883c-28.429-5.208-58.736-7.201-92.304-7.038-42.864-.333-86.217 3.64-123.961 14.389-11.91 3.289-31.626 10.887-33.636 17.165l-2.205-3.608c.635-3.711 12.551-11.413 34.827-17.624 43.233-12.285 83.672-14.356 124.866-14.637v.004Zm1.466-16.134c33.473.621 68.041 2.157 101.641 8.761l-2.308 4.042c-30.342-5.977-59.33-7.97-99.136-8.577-43 .078-88.612 3.12-130.084 15.084-13.389 3.87-36.497 12.238-37.267 18.863l-2.205-3.877c.502-6.017 20.506-13.866 38.504-19.061 41.792-12.057 87.523-15.157 130.856-15.235Z"/><path fill="#FF0" stroke="#000" stroke-linecap="round" stroke-linejoin="round" stroke-miterlimit="10" stroke-width="1.08199" d="M619.706 467.864 605.75 489.5l-40.096-35.582-104.018-69.922-117.257-64.252-60.879-20.806 12.974-24.038 4.407-2.4 37.824 9.449 124.822 64.252 71.867 45.354 60.52 43.465 24.586 28.347Z"/><path fill="#FF0" stroke="#000" stroke-linecap="round" stroke-linejoin="round" stroke-miterlimit="10" stroke-width="1.08199" d="M281.851 299.433c10.646-7.245 88.88 27.728 170.74 77.26 81.643 49.674 159.656 105.806 152.614 116.31l-2.316 3.656-1.063.841c.228-.163 1.402-1.603-.115-5.498-3.478-11.486-58.817-55.799-150.638-111.432-89.513-53.562-164.114-85.845-171.573-76.617l2.351-4.521h-.001Zm340.216 168.255c6.731-13.343-65.834-68.198-155.801-121.606-92.036-52.346-158.369-83.158-170.485-73.97l-2.692 4.918c-.023.27.098-.336.667-.776 2.203-1.929 5.855-1.799 7.502-1.829 20.863.314 80.448 27.83 164.048 75.924 36.631 21.409 154.743 97.424 154.293 118.8.031 1.837.151 2.216-.537 3.125l3.004-4.585v-.004Z"/><path fill="#FFF" stroke="#000" stroke-miterlimit="8" stroke-width="1.26593" d="M341.527 399.363c0 30.758 12.625 58.576 33.078 78.907 20.493 20.374 48.342 33.23 79.223 33.23 31.039 0 59.208-12.575 79.614-32.871 20.406-20.293 33.052-48.302 33.058-79.168h-.004V249.767L341.5 249.5l.023 149.863h.004Z"/><path fill="red" stroke="#000" stroke-miterlimit="8" stroke-width="0.958005" d="M345.503 399.358v.085c0 29.363 12.214 56.102 31.809 75.514 19.633 19.45 46.673 31.543 76.254 31.543 29.735 0 56.72-12.005 76.269-31.38 19.546-19.375 31.661-46.116 31.665-75.581h-.004V254.535l-215.864-.035-.132 144.857m172.597-101.444.007 92.279-.078 9.761h.001c0 2.568-.155 5.497-.456 7.99-1.754 14.589-8.495 27.305-18.479 37.198-11.687 11.58-27.819 18.763-45.598 18.763-17.686 0-33.447-7.432-45.185-19.063-12.04-11.929-19.019-28.285-19.019-45.198l-.025-101.965 128.829.231.003.004Z"/><path fill="#FF0" d="M359 291.904c.26-10.404 7.814-12.867 7.868-12.904.055-.035 8.159 2.653 8.132 13l-16-.096"/><path fill="#FF0" stroke="#000" stroke-miterlimit="8" stroke-width="0.944147" d="m353.785 279.574-1.285 11.909 7.801.017c.075-9.853 7.487-11.492 7.667-11.455.168-.01 7.515 2.178 7.711 11.455h7.821l-1.412-12-28.303.071v.004ZM351.71 291.5h31.581c.665 0 1.209.676 1.209 1.503 0 .824-.544 1.497-1.209 1.497H351.71c-.666 0-1.21-.673-1.21-1.497 0-.827.544-1.503 1.21-1.503Z"/><path fill="#FF0" stroke="#000" stroke-miterlimit="8" stroke-width="0.944147" d="M363.5 291.5c.036-6.238 4.393-8.003 4.415-8 .002 0 4.549 1.82 4.585 8h-9M352.675 274.5h30.65c.646 0 1.175.678 1.175 1.5 0 .824-.529 1.5-1.175 1.5h-30.65c-.646 0-1.175-.672-1.175-1.5 0-.822.529-1.5 1.175-1.5ZM352.639 277.5h29.722c.626 0 1.139.45 1.139.999 0 .552-.513 1.001-1.139 1.001h-29.722c-.626 0-1.139-.449-1.139-1.001 0-.549.513-.999 1.139-.999ZM362.503 257.534l2.216.004v1.721h1.617V257.5l2.27.008v1.752h1.622v-1.759h2.272l-.003 3.972c0 .623-.459 1.027-.991 1.027h-7.97a1.061 1.061 0 0 1-1.031-1.039l-.005-3.925h.002ZM370.985 262.531l.515 11.969-8-.029.53-11.971 6.955.031M361.245 267.5l.255 6.996-8 .004.226-6.999h7.521-.002ZM381.246 267.5l.255 6.996-8 .004.226-6.999h7.521-.002ZM352.503 263.527l2.214.005v1.378h1.62v-1.41l2.269.006v1.404h1.623v-1.409l2.271.003-.004 3.177c0 .496-.459.819-.989.819h-7.969c-.534 0-1.031-.372-1.032-.83l-.006-3.141h.002ZM372.504 263.527l2.214.005v1.378h1.62v-1.41l2.269.006v1.404h1.623v-1.409l2.271.003-.004 3.177c0 .496-.459.819-.989.819h-7.969c-.534 0-1.031-.372-1.032-.83l-.006-3.141h.002Z"/><path d="M366.001 265.942c-.061-1.249 2.023-1.263 1.999 0V269h-1.999v-3.058M356 269.837c-.007-1.105 2.026-1.127 2 0V272h-1.999v-2.163M376.001 269.837c-.007-1.105 2.026-1.127 2 0V272h-1.999v-2.163"/><path fill="#FF0" d="M359 378.908c.26-10.403 7.814-12.866 7.868-12.903.055-.035 8.159 2.653 8.132 13l-16-.097"/><path fill="#FF0" stroke="#000" stroke-miterlimit="8" stroke-width="0.944147" d="m353.785 367.579-1.285 11.909 7.801.017c.075-9.853 7.487-11.492 7.667-11.456.168-.009 7.515 2.179 7.711 11.456h7.821l-1.412-12-28.303.071v.004ZM351.71 379.505h31.581c.665 0 1.209.676 1.209 1.503 0 .824-.544 1.497-1.209 1.497H351.71c-.666 0-1.21-.673-1.21-1.497 0-.827.544-1.503 1.21-1.503Z"/><path fill="#FF0" stroke="#000" stroke-miterlimit="8" stroke-width="0.944147" d="M363.5 379.505c.036-6.238 4.393-8.003 4.415-8 .002 0 4.549 1.82 4.585 8h-9M352.675 362.504h30.65c.646 0 1.175.452 1.175 1 0 .549-.529 1-1.175 1h-30.65c-.646 0-1.175-.448-1.175-1 0-.548.529-1 1.175-1ZM352.639 364.505h29.722c.626 0 1.139.675 1.139 1.5 0 .826-.513 1.501-1.139 1.501h-29.722c-.626 0-1.139-.675-1.139-1.501 0-.825.513-1.5 1.139-1.5ZM362.503 344.54l2.216.003v1.721h1.617v-1.759l2.27.008v1.752h1.622v-1.759h2.272l-.003 3.972c0 .623-.459 1.027-.991 1.027h-7.97a1.061 1.061 0 0 1-1.031-1.039l-.005-3.925h.002Z"/><path fill="#FF0" stroke="#000" stroke-miterlimit="8" stroke-width="0.944147" d="m370.985 349.539.515 12.966-8-.032.53-12.968 6.955.034M361.245 355.505l.255 6.996-8 .004.226-6.999h7.521-.002ZM381.246 355.505l.255 6.996-8 .004.226-6.999h7.521-.002ZM352.503 350.539l2.214.006v1.722h1.62v-1.762l2.269.008v1.755h1.623v-1.762l2.271.004-.004 3.971c0 .62-.459 1.024-.989 1.024h-7.969a1.06 1.06 0 0 1-1.032-1.037l-.006-3.927h.002ZM372.504 350.539l2.214.006v1.722h1.62v-1.762l2.269.008v1.755h1.623v-1.762l2.271.004-.004 3.971c0 .62-.459 1.024-.989 1.024h-7.969a1.06 1.06 0 0 1-1.032-1.037l-.006-3.927h.002Z"/><path d="M366.001 352.947c-.061-1.249 2.023-1.263 1.999 0v3.058h-1.999v-3.058M356 357.841c-.007-1.104 2.026-1.126 2 0v2.164h-1.999v-2.164M376.001 357.841c-.007-1.104 2.026-1.126 2 0v2.164h-1.999v-2.164"/><path fill="#FF0" d="M393.544 470.45c-7.223-7.532-3.76-14.526-3.748-14.589.013-.063 7.522-3.8 14.866 3.53l-11.117 11.059"/><path fill="#FF0" stroke="#000" stroke-miterlimit="8" stroke-width="0.944147" d="m380.006 466.008 7.6 9.362 5.526-5.54c-6.987-7.043-2.919-13.481-2.766-13.583.112-.126 6.867-3.803 13.633 2.638l5.528-5.566-9.571-7.508-19.952 20.194.003.003ZM387.27 475.777l22.563-22.724c.476-.479 1.338-.4 1.916.174.577.573.659 1.432.184 1.911l-22.564 22.723c-.476.479-1.335.403-1.912-.17-.579-.574-.663-1.435-.187-1.914Z"/><path fill="#FF0" stroke="#000" stroke-miterlimit="8" stroke-width="0.944147" d="M395.431 467.477c-4.417-4.436-2.687-8.692-2.669-8.706.001-.001 4.415-1.853 8.84 2.491l-6.17 6.215M375.667 463.298l21.63-21.784c.456-.458 1.256-.411 1.774.104.52.515.572 1.314.116 1.773l-21.63 21.783c-.456.459-1.253.415-1.774-.103-.518-.514-.572-1.314-.116-1.773ZM378.024 464.733l20.689-20.836c.436-.439 1.217-.377 1.736.139.52.517.588 1.298.153 1.737l-20.69 20.835c-.435.439-1.217.377-1.737-.14-.519-.516-.587-1.297-.151-1.735ZM370.507 443.901l1.636-1.642 1.169 1.16 1.191-1.2-1.194-1.186 1.679-1.68 1.189 1.181 1.196-1.204-1.195-1.186 1.675-1.686 2.695 2.681c.423.421.359 1.034-.033 1.429l-5.874 5.915c-.394.397-1.076.448-1.465.064l-2.67-2.643.001-.001ZM380.266 441.287l9.02 8.219-5.751 5.749-8.273-8.974 5.004-4.994M377.285 452.309l4.839 4.454-5.491 5.535-4.511-4.789 5.165-5.201-.001.001ZM391.411 438.081l4.839 4.455-5.491 5.534-4.511-4.788 5.165-5.201-.001.001ZM367.728 455.175l1.601-1.604 1.17 1.161 1.168-1.176-1.197-1.189 1.642-1.643 1.193 1.184 1.17-1.179-1.197-1.189 1.641-1.647 2.695 2.682c.421.418.364 1.024-.019 1.409l-5.747 5.789c-.386.388-1.06.435-1.45.05l-2.671-2.644.001-.001ZM381.854 440.948l1.601-1.604 1.17 1.161 1.168-1.176-1.197-1.189 1.642-1.643 1.193 1.184 1.17-1.179-1.196-1.189 1.64-1.647 2.695 2.682c.421.418.364 1.024-.018 1.409l-5.748 5.789c-.386.388-1.06.435-1.45.05l-2.671-2.644.002-.002Z"/><path d="M379.952 447.074c-.876-.799.317-2.019 1.153-1.161l2.061 2.046-1.153 1.161-2.06-2.045M375.846 457.191c-.816-.803.286-1.945 1.1-1.108l1.592 1.581-1.1 1.107-1.591-1.58M390.015 442.921c-.817-.803.285-1.946 1.1-1.108l1.592 1.58-1.1 1.108-1.592-1.58"/><path fill="#FF0" d="M446.005 291.904c.243-10.404 7.325-12.867 7.376-12.904.051-.035 7.649 2.653 7.624 13l-15-.096"/><path fill="#FF0" stroke="#000" stroke-miterlimit="8" stroke-width="0.944147" d="m439.789 279.574-1.284 11.909 7.801.017c.075-9.853 7.487-11.492 7.667-11.455.167-.01 7.515 2.178 7.711 11.455h7.821l-1.412-12-28.303.071v.004ZM437.75 291.5h32.51c.685 0 1.245.676 1.245 1.503 0 .824-.56 1.497-1.245 1.497h-32.51c-.685 0-1.245-.673-1.245-1.497 0-.827.56-1.503 1.245-1.503Z"/><path fill="#FF0" stroke="#000" stroke-miterlimit="8" stroke-width="0.944147" d="M449.505 291.5c.036-6.238 4.393-8.003 4.415-8 .002 0 4.549 1.82 4.585 8h-9M438.68 274.5h30.65c.646 0 1.175.678 1.175 1.5 0 .824-.529 1.5-1.175 1.5h-30.65c-.646 0-1.175-.672-1.175-1.5 0-.822.529-1.5 1.175-1.5ZM439.608 277.5h28.794c.606 0 1.103.45 1.103.999 0 .552-.497 1.001-1.103 1.001h-28.794c-.606 0-1.103-.449-1.103-1.001 0-.549.497-.999 1.103-.999ZM448.508 257.534l2.438.004v1.721h1.779V257.5l2.497.008v1.752h1.784v-1.759h2.499l-.004 3.972c0 .623-.504 1.027-1.09 1.027h-8.766c-.589 0-1.132-.468-1.134-1.039l-.006-3.925h.002ZM457.99 262.531l.515 11.969-8-.029.529-11.971 6.956.031M447.281 267.5l.223 6.996-7 .004.198-6.999h6.581-.002ZM468.251 267.5l.255 6.996-8 .004.226-6.999h7.521-.002ZM438.508 263.527l2.436.005v1.378h1.782v-1.41l2.496.006v1.404h1.785v-1.409l2.498.003-.004 3.177c0 .496-.505.819-1.089.819h-8.765c-.588 0-1.134-.372-1.136-.83l-.006-3.141h.002ZM458.509 263.527l2.436.005v1.378h1.782v-1.41l2.496.006v1.404h1.785v-1.409l2.498.003-.004 3.177c0 .496-.505.819-1.088.819h-8.766c-.587 0-1.134-.372-1.136-.83l-.006-3.141h.002Z"/><path d="M453.004 265.942c-.031-1.249 1.011-1.263.999 0V269h-.999v-3.058M443.003 269.837c-.004-1.105 1.013-1.127 1 0V272h-.999v-2.163M463.004 269.837c-.004-1.105 1.013-1.127 1 0V272h-1v-2.163"/><path fill="#FF0" d="M546.99 291.904c-.243-10.404-7.325-12.867-7.376-12.904-.05-.035-7.649 2.653-7.623 13l15-.096"/><path fill="#FF0" stroke="#000" stroke-miterlimit="8" stroke-width="0.944147" d="m554.206 279.574 1.284 11.91-7.8.016c-.076-9.853-7.488-11.492-7.667-11.455-.168-.01-7.516 2.178-7.712 11.455h-7.82l1.412-12 28.302.071v.004Z"/><path fill="#FF0" stroke="#000" stroke-miterlimit="8" stroke-width="0.944147" d="M556.245 291.5h-32.51c-.685 0-1.245.676-1.245 1.502 0 .825.56 1.498 1.245 1.498h32.51c.685 0 1.245-.673 1.245-1.498 0-.826-.56-1.502-1.245-1.502ZM544.49 291.5c-.036-6.238-4.393-8.003-4.415-8-.002 0-4.549 1.82-4.585 8h9M555.316 274.5h-30.65c-.647 0-1.176.678-1.176 1.5 0 .824.53 1.5 1.175 1.5h30.65c.646 0 1.175-.672 1.175-1.5 0-.822-.529-1.5-1.174-1.5ZM554.387 277.5h-28.793c-.607 0-1.104.45-1.104 1s.497 1 1.104 1h28.793c.607 0 1.104-.45 1.104-1s-.497-1-1.104-1ZM545.487 257.534l-2.438.004v1.72h-1.779V257.5l-2.497.008v1.752h-1.784V257.5h-2.5l.005 3.972c0 .623.505 1.027 1.09 1.027h8.766c.589 0 1.132-.468 1.134-1.04l.006-3.924h-.002Z"/><path fill="#FF0" stroke="#000" stroke-miterlimit="8" stroke-width="0.944147" d="m536.068 262.531-.579 11.97 9-.03-.595-11.971-7.825.031M546.713 267.5l-.223 6.996 7 .004-.197-7h-6.581.002ZM526.714 267.5l-.223 6.996 7 .004-.197-7h-6.581.001Z"/><path fill="#FF0" stroke="#000" stroke-miterlimit="8" stroke-width="0.944147" d="m555.486 263.527-2.436.005v1.378h-1.782v-1.41l-2.496.006v1.404h-1.786v-1.41l-2.497.004.004 3.177c0 .496.505.82 1.088.82h8.766c.587 0 1.134-.373 1.135-.831l.006-3.141h-.001ZM535.487 263.527l-2.436.005v1.378h-1.782v-1.41l-2.496.006v1.404h-1.785v-1.41l-2.498.004.004 3.177c0 .496.505.82 1.089.82h8.765c.588 0 1.134-.373 1.136-.831l.006-3.141h-.002Z"/><path d="M539.994 265.942c.03-1.249-1.012-1.263-1 0V269h1v-3.058M549.993 269.837c.004-1.105-1.013-1.127-1 0V272h1v-2.163M529.994 269.837c.004-1.105-1.013-1.127-1 0V272h1v-2.163"/><path fill="#FF0" d="M546.99 378.908c-.243-10.403-7.325-12.866-7.376-12.903-.05-.035-7.649 2.653-7.623 13l15-.097"/><path fill="#FF0" stroke="#000" stroke-miterlimit="8" stroke-width="0.944147" d="m554.206 367.579 1.284 11.909-7.8.017c-.076-9.853-7.488-11.492-7.667-11.456-.168-.009-7.516 2.179-7.712 11.456h-7.82l1.412-12 28.302.071v.004ZM556.245 379.505h-32.51c-.685 0-1.245.676-1.245 1.503 0 .824.56 1.497 1.245 1.497h32.51c.685 0 1.245-.673 1.245-1.497 0-.827-.56-1.503-1.245-1.503Z"/><path fill="#FF0" stroke="#000" stroke-miterlimit="8" stroke-width="0.944147" d="M544.49 379.505c-.036-6.238-4.393-8.004-4.415-8-.002 0-4.549 1.82-4.585 8h9M555.316 362.504h-30.65c-.647 0-1.176.451-1.176 1 0 .55.53 1 1.175 1h30.65c.646 0 1.175-.448 1.175-1 0-.549-.529-1-1.174-1ZM554.387 364.505h-28.793c-.607 0-1.104.675-1.104 1.5 0 .826.497 1.5 1.104 1.5h28.793c.607 0 1.104-.674 1.104-1.5 0-.825-.497-1.5-1.104-1.5ZM545.487 344.54l-2.438.003v1.72h-1.779v-1.758l-2.497.008v1.752h-1.784v-1.759h-2.5l.005 3.972c0 .623.505 1.027 1.09 1.027h8.766c.589 0 1.132-.468 1.134-1.04l.006-3.924h-.002Z"/><path fill="#FF0" stroke="#000" stroke-miterlimit="8" stroke-width="0.944147" d="m536.068 349.539-.579 12.966 9-.032-.595-12.968-7.825.034M546.713 355.505l-.223 6.996 7 .004-.197-7h-6.581.002ZM526.714 355.505l-.223 6.996 7 .004-.197-7h-6.581.001ZM555.486 350.54l-2.436.005v1.722h-1.782v-1.762l-2.496.008v1.755h-1.786v-1.762l-2.497.004.004 3.971c0 .62.505 1.024 1.088 1.024h8.766c.587 0 1.134-.465 1.135-1.038l.006-3.926h-.001Z"/><path fill="#FF0" stroke="#000" stroke-miterlimit="8" stroke-width="0.944147" d="m535.487 350.54-2.436.005v1.722h-1.782v-1.762l-2.496.008v1.755h-1.785v-1.762l-2.498.004.004 3.971c0 .62.505 1.024 1.089 1.024h8.765c.588 0 1.134-.465 1.136-1.038l.006-3.926h-.002Z"/><path d="M539.994 352.947c.03-1.249-1.012-1.263-1 0v3.058h1v-3.058M549.993 357.841c.004-1.104-1.013-1.126-1 0v2.164h1v-2.164M529.994 357.841c.004-1.104-1.013-1.126-1 0v2.164h1v-2.164"/><path fill="#FF0" d="M513.124 470.446c7.224-7.532 3.76-14.526 3.749-14.59-.013-.062-7.522-3.8-14.866 3.531l11.117 11.059"/><path fill="#FF0" stroke="#000" stroke-miterlimit="8" stroke-width="0.944147" d="m526.663 466.004-7.6 9.362-5.526-5.54c6.986-7.043 2.919-13.482 2.766-13.583-.112-.126-6.868-3.804-13.634 2.638l-5.527-5.567 9.571-7.507L526.664 466l-.002.003ZM519.4 475.773l-22.564-22.724c-.476-.479-1.338-.4-1.916.174-.577.573-.66 1.432-.184 1.91l22.564 22.724c.476.48 1.335.403 1.912-.17.579-.574.663-1.435.188-1.914Z"/><path fill="#FF0" stroke="#000" stroke-miterlimit="8" stroke-width="0.944147" d="M511.238 467.473c4.417-4.436 2.687-8.693 2.67-8.706-.002 0-4.416-1.853-8.841 2.491l6.17 6.215M531.001 463.293l-21.63-21.784c-.456-.458-1.256-.41-1.774.104-.52.515-.572 1.314-.116 1.773l21.63 21.784c.456.459 1.253.414 1.774-.104.518-.514.572-1.314.116-1.773ZM528.645 464.728l-20.69-20.836c-.435-.438-1.217-.376-1.736.14-.52.516-.588 1.297-.152 1.736l20.689 20.835c.435.439 1.217.377 1.737-.14.52-.515.587-1.296.152-1.735ZM536.16 443.895l-1.636-1.642-1.168 1.16-1.192-1.2 1.194-1.187-1.679-1.68-1.19 1.182-1.195-1.204 1.195-1.186-1.675-1.686-2.695 2.681c-.423.42-.36 1.033.033 1.428l5.874 5.916c.394.397 1.076.448 1.465.064l2.67-2.643-.001-.001ZM526.402 441.282l-9.02 8.219 5.75 5.748 8.273-8.973-5.003-4.994M529.382 452.303l-4.838 4.454 5.49 5.535 4.51-4.79-5.164-5.2h.001ZM515.257 438.076l-4.838 4.455 5.49 5.535 4.51-4.79-5.164-5.2h.002ZM538.94 455.17l-1.602-1.605-1.17 1.162L535 453.55l1.197-1.189-1.642-1.643-1.192 1.184-1.17-1.18 1.196-1.188-1.64-1.647-2.696 2.682c-.42.418-.364 1.024.019 1.41l5.748 5.788c.385.388 1.059.435 1.45.05l2.67-2.644-.001-.001ZM524.815 440.943l-1.601-1.604-1.17 1.162-1.168-1.177 1.196-1.189-1.642-1.643-1.192 1.184-1.17-1.18 1.196-1.188-1.64-1.646-2.696 2.68c-.42.419-.364 1.025.019 1.41l5.748 5.79c.385.387 1.06.434 1.45.049l2.67-2.644-.001-.001Z"/><path d="M526.716 447.069c.876-.8-.317-2.02-1.153-1.162l-2.06 2.046 1.152 1.161 2.06-2.045M530.821 457.185c.817-.803-.285-1.946-1.1-1.108l-1.592 1.58 1.1 1.108 1.592-1.58M516.653 442.916c.817-.803-.285-1.946-1.1-1.108l-1.592 1.58 1.1 1.108 1.592-1.58"/><path fill="#039" d="M440.001 382.575v.009c0 4.227 1.583 8.078 4.123 10.872 2.545 2.803 6.051 4.544 9.885 4.544 3.853 0 7.352-1.729 9.886-4.52 2.532-2.788 4.105-6.635 4.105-10.879v-20.578L440.051 362 440 382.573"/><path fill="#FFF" d="M449 370a3 3 0 1 1-6 0 3 3 0 0 1 6 0ZM465 370a3 3 0 1 1-6 0 3 3 0 0 1 6 0ZM457 377.5c0 1.381-1.343 2.5-3 2.5s-3-1.119-3-2.5 1.343-2.5 3-2.5 3 1.119 3 2.5ZM449 385.5c0 1.381-1.343 2.5-3 2.5s-3-1.119-3-2.5 1.343-2.5 3-2.5 3 1.119 3 2.5ZM465 385a3 3 0 1 1-6 0 3 3 0 0 1 6 0Z"/><path fill="#039" d="M440.001 333.572v.009c0 4.227 1.583 8.078 4.123 10.873 2.545 2.802 6.051 4.543 9.885 4.543 3.853 0 7.352-1.729 9.886-4.52 2.532-2.787 4.105-6.635 4.105-10.879v-20.577l-27.949-.024-.051 20.574"/><path fill="#FFF" d="M449 320.997a3 3 0 1 1-6 0 3 3 0 0 1 6 0ZM465 320.997a3 3 0 1 1-6 0 3 3 0 0 1 6 0ZM457 327.997a3 3 0 1 1-6 0 3 3 0 0 1 6 0ZM449 335.997a3 3 0 1 1-6 0 3 3 0 0 1 6 0ZM465 335.997a3 3 0 1 1-6 0 3 3 0 0 1 6 0Z"/><path fill="#039" d="M399.999 382.575v.009c0 4.227 1.64 8.078 4.27 10.872 2.636 2.803 6.267 4.544 10.238 4.544 3.991 0 7.615-1.729 10.239-4.52 2.622-2.788 4.252-6.635 4.252-10.879v-20.578L400.051 362l-.053 20.573"/><path fill="#FFF" d="M409.998 370a3 3 0 1 1-6 0 3 3 0 0 1 6 0ZM424.998 370c0 1.657-1.119 3-2.5 3s-2.5-1.343-2.5-3 1.119-3 2.5-3 2.5 1.343 2.5 3ZM416.998 377.5a2.5 2.5 0 1 1-5 0 2.5 2.5 0 0 1 5 0ZM409.998 385.5c0 1.381-1.343 2.5-3 2.5s-3-1.119-3-2.5 1.343-2.5 3-2.5 3 1.119 3 2.5ZM424.998 385c0 1.657-1.119 3-2.5 3s-2.5-1.343-2.5-3 1.119-3 2.5-3 2.5 1.343 2.5 3Z"/><path fill="#039" d="M479.003 382.575v.009c0 4.227 1.583 8.078 4.123 10.872 2.546 2.803 6.051 4.544 9.885 4.544 3.854 0 7.352-1.729 9.886-4.52 2.532-2.788 4.105-6.635 4.105-10.879v-20.578L479.053 362l-.051 20.573"/><path fill="#FFF" d="M488.002 370c0 1.657-1.119 3-2.5 3s-2.5-1.343-2.5-3 1.119-3 2.5-3 2.5 1.343 2.5 3ZM504.002 370a3 3 0 1 1-6 0 3 3 0 0 1 6 0ZM496.002 377.5c0 1.381-1.343 2.5-3 2.5s-3-1.119-3-2.5 1.343-2.5 3-2.5 3 1.119 3 2.5ZM488.002 385.5a2.5 2.5 0 1 1-5 0 2.5 2.5 0 0 1 5 0ZM504.002 385a3 3 0 1 1-6 0 3 3 0 0 1 6 0Z"/><path fill="#039" d="M440.001 431.006v.009c0 4.109 1.583 7.854 4.123 10.57 2.545 2.725 6.051 4.418 9.885 4.418 3.853 0 7.352-1.681 9.886-4.395 2.532-2.71 4.105-6.451 4.105-10.577v-20.006l-27.949-.022-.051 20.002"/><path fill="#FFF" d="M449 418.502c0 1.381-1.343 2.5-3 2.5s-3-1.119-3-2.5c0-1.38 1.343-2.5 3-2.5s3 1.12 3 2.5ZM465 418.502c0 1.381-1.343 2.501-3 2.501s-3-1.12-3-2.501c0-1.38 1.343-2.5 3-2.5s3 1.12 3 2.5ZM457 426.003a3 3 0 1 1-6 0 3 3 0 0 1 6 0ZM449 434.003a3 3 0 1 1-6 0 3 3 0 0 1 6 0ZM465 434.003a3 3 0 1 1-6 0 3 3 0 0 1 6 0Z"/></g></svg>