<svg xmlns="http://www.w3.org/2000/svg" width="1136" height="758" overflow="hidden"><defs><clipPath id="a"><path d="M-1-1h1136v758H-1z"/></clipPath></defs><g fill-rule="evenodd" clip-path="url(#a)" transform="translate(1 1)"><path fill="#006C35" d="M1134 756.01V.01H0v756Z"/><path fill="#FFF" d="M802.128 202.328c6.406-4.58 12.376-9.717 19.51-13.326-2.039 8.19-8.153 14.437-14.414 19.712-3.203 2.498-1.747 7.079-2.184 10.549-1.747-.416-3.348-.833-5.095-1.388 1.601 20.822 3.931 41.504 4.95 62.326.145 2.36.291 4.858 2.329 6.385 9.609 8.607 19.51 17.074 26.498 28.04 2.766 4.303 4.222 9.162 5.678 14.02 1.747-8.051 1.602-16.38.728-24.569-3.494-31.649-6.697-63.437-9.463-95.225-.292-3.886-.874-7.912-.437-11.799.291-3.609 3.931-6.663 7.57-6.385 2.184 1.805 3.349 4.303 4.514 6.802 2.912 6.524 5.532 13.603 4.804 20.96-1.747-.555-3.494-1.249-5.386-1.943 2.62 21.516 5.241 43.031 6.842 64.686.728 14.575 2.912 29.289-.145 43.725-2.621 13.326-9.172 26.791-20.82 34.425-9.755 6.385-21.111 9.995-32.467 12.354-4.659.972-9.463 1.389-13.977.139 4.805-2.637 10.192-4.581 15.287-6.801 7.426-3.193 14.56-6.663 21.257-11.105 6.26-4.165 12.812-8.329 17.471-14.437-5.824-15.546-15.433-30.122-29.119-39.7.437 15.27 1.165 30.816-1.164 45.947-.437 3.609-2.039 6.801-4.514 9.3-1.601-6.385-1.747-13.048-2.475-19.572a2101.292 2101.292 0 0 1-3.494-42.615c0-2.915-1.893-5.136-4.076-6.802-8.591-7.218-16.598-15.269-24.897-22.765.291 8.745 1.602 17.351 2.184 25.958 1.019 11.66 1.165 23.32 2.33 34.98.728 8.19.873 16.796-2.184 24.57-3.058 7.357-9.901 13.603-18.054 14.158-4.367.417-8.735 0-12.957-.694-4.514-.694-8.008-4.164-10.046-8.051-2.475-4.719-3.786-9.994-5.824-14.852-3.785.832-7.716 1.665-10.483 4.58-5.823 5.553-7.57 14.02-10.337 21.238-1.601 4.303-3.494 9.023-7.716 11.383-4.368 2.498-9.755 1.527-13.977-.833-6.406-3.47-10.337-10.133-12.23-16.935-1.892-5.275.728-11.382-2.475-16.38-2.329-4.58-1.019-9.994.146-14.714 2.475-8.467 7.716-15.685 13.977-21.793l-24.897-21.654c.728 19.988 2.33 39.977-.291 59.827-.436 4.026-1.892 7.773-4.804 10.688a75.876 75.876 0 0 1-1.747-11.521 2498.906 2498.906 0 0 1-5.242-65.796c-.145-2.499-.582-5.275-2.62-6.941-8.445-8.051-16.598-16.657-24.169-25.68-4.367-5.552-8.881-11.243-11.21-17.906-.874-2.776-1.602-6.663 1.019-8.745 3.057.277 5.824 1.665 8.444 3.054 4.805 2.776 9.318 6.385 13.249 10.549 1.747 1.805 2.621 4.164 3.349 6.524-2.475 0-4.805-.139-7.28-.139 4.95 7.08 10.774 13.604 17.471 19.156-.582-18.6-2.62-37.34-3.494-55.94 0-2.499 0-5.275 1.747-7.357 1.602-1.805 4.077-2.499 6.261-3.332 4.076 5.969 6.988 12.632 8.735 19.711.728 2.777.582 5.691.437 8.607-1.747-.417-3.494-.972-5.096-1.527 1.165 15.13 2.766 30.122 3.786 45.252.145 2.082.291 4.303.873 6.385.874 1.527 2.184 2.499 3.349 3.609 10.337 8.745 20.674 17.49 31.156 25.958 6.261-5.414 12.376-10.966 18.636-16.241 1.456-1.249 2.912-2.36 4.077-3.748 1.165-1.249.728-3.054.728-4.581-2.039-18.184-3.494-36.368-5.096-54.552-.437-6.663-1.456-13.187-1.456-19.711-.145-3.887 2.912-7.774 6.843-7.913 1.747-.138 2.475 1.805 3.349 2.915 2.912 5.137 5.095 10.689 6.406 16.519.728 2.776.436 5.691-.146 8.606-1.601-.694-3.348-1.527-4.95-2.221 2.184 17.074 3.931 34.148 5.532 51.221 4.514-3.331 8.59-7.218 12.813-10.827 4.658-4.025 9.609-7.912 14.122-12.215-5.387-5.83-11.065-11.244-16.598-16.935-3.494-3.609-7.716-7.079-9.172-12.215-1.165-3.609-.437-7.496.291-10.966 6.552 1.11 12.23 4.997 17.471 8.883 3.64 2.777 6.843 5.969 10.046 9.162-.291-7.218-1.164-14.436-1.747-21.655 0-2.776-.291-5.83 1.602-8.051 1.601-1.804 4.076-2.498 6.115-3.47 4.222 5.553 6.842 12.215 8.59 18.878.873 3.054.873 6.108.727 9.162-1.747-.417-3.639-.833-5.386-1.249.582 5.552 1.164 10.966 1.892 16.518 6.843-5.136 13.104-10.966 19.946-16.102 2.33-2.221 6.552-3.887 6.552-7.773.146-4.165-.728-8.468-.146-12.632.437-3.609 3.931-6.524 7.571-6.247 3.494 3.332 4.805 7.496 6.697 11.105Zm-35.524 40.117c-1.165 1.249-3.349 2.359-3.203 4.442.874 1.804 2.621 3.192 4.077 4.719 8.444 7.635 16.451 15.686 25.333 22.626-.292-8.19-1.165-16.241-1.602-24.43-.728-8.607-1.019-17.213-1.893-25.819-7.862 5.691-14.996 12.354-22.712 18.462Zm-21.402-15.131c1.893 2.082 3.64 4.165 5.532 6.247 0-2.082-.145-4.165-.145-6.247h-5.387Zm-20.383 50.666c-1.456 1.249-3.203 2.637-3.057 4.72-.146 10.549 1.019 21.377-1.602 31.649-.582 2.637-2.475 4.441-4.368 6.107-2.329-10.133-2.475-20.544-4.222-30.816-6.26 4.997-12.23 10.411-18.053 15.825 3.348 3.748 6.697 7.773 7.862 12.909 1.892 7.079-.292 15.269-6.115 19.989-7.134 5.969-16.743 6.94-25.624 8.051 1.31 5.83 2.475 11.938 5.969 16.935 2.184 2.915 5.678 5.691 9.463 4.581 4.077-1.111 6.552-4.998 8.008-8.607 2.912-7.357 6.115-14.575 10.483-21.238 3.494-5.552 9.172-10.133 15.869-10.272 2.184.139 5.096-.555 6.406 1.805 2.912 4.858 3.931 10.688 7.571 15.269 6.115 8.051 19.073 8.19 26.352 1.527 2.475-2.221 2.475-5.83 2.184-8.884-3.349-27.623-5.824-55.524-8.736-83.148-9.754 7.635-18.927 15.686-28.39 23.598Zm-51.394 47.196c-1.602 2.082-2.475 4.719-3.203 7.357 6.552.694 13.249-.694 18.927-4.026 1.747-1.11 3.785-2.915 3.349-5.275-.437-4.719-4.368-8.051-7.862-10.827-3.931 3.887-7.862 8.19-11.211 12.771ZM399.692 190.332c1.762-1.108 3.378.831 4.553 2.078 3.524 4.294 7.342 8.588 9.398 13.851-1.762.277-3.671.554-5.433.831.44 8.311 7.489 13.99 9.545 21.886 1.469 4.848 1.616 10.111.588 14.959-1.469 6.649-7.049 12.466-13.951 13.575-8.078 1.385-17.183-.554-23.204-6.511-3.965-3.878-5.433-9.419-7.196-14.405-1.909 6.787-4.699 13.297-9.545 18.561-2.79 3.186-6.462 5.402-10.133 7.341 1.028 18.561 2.937 37.122 1.322 55.545-.588 5.263-.882 11.496-5.728 14.959-1.762-7.341-2.056-14.959-2.937-22.578-1.615-15.375-2.79-30.75-4.406-46.125-4.552-1.108-9.545-2.078-13.07-5.402-5.874-5.264-7.783-13.436-7.342-20.916.146-5.818 2.056-11.497 3.377-17.176-2.203 2.216-3.965 4.848-4.993 7.757-3.084 9.281-5.14 18.977-9.399 27.841-1.615 3.463-4.699 6.372-8.517 7.203-4.7.97-10.28.693-13.951-2.909-3.966-3.878-4.847-9.696-5.434-14.959-.294-5.402-.734-11.22 1.762-16.206 1.469-3.048 4.553-4.71 7.196-6.234-1.762 2.909-3.818 5.818-4.259 9.142-.587 4.71.294 9.558 1.175 14.129.588 2.77 1.175 5.818 3.378 7.757 3.377 3.047 9.105 2.77 12.336-.277 1.762-1.939 2.643-4.433 3.524-6.787 2.937-8.865 5.287-18.007 8.958-26.595 3.231-7.203 8.959-14.267 17.182-15.791-.881 9.835-5.433 18.976-5.727 28.95-.147 4.432.294 9.28 3.231 12.743 2.203 2.909 5.874 3.878 9.252 4.848-.881-13.436-2.203-26.872-3.084-40.446-.294-4.987-1.175-10.112-.294-15.099.734-3.462 4.553-4.709 7.49-5.817 5.58 8.172 9.692 17.868 9.545 27.841-1.909-.415-3.671-.831-5.58-1.246 1.175 11.496 2.349 23.132 3.671 34.628 4.846-1.523 9.252-4.432 12.042-8.726 5.728-8.172 6.609-18.838 3.819-28.257-1.175-4.017-3.084-7.757-3.966-11.912-.881-3.879 1.91-7.896 5.434-9.142 1.615-.693 2.35 1.246 3.084 2.354 2.203 4.71 2.937 9.973 3.965 15.099 1.322 6.787 0 13.851 2.497 20.361 2.056 5.541 5.727 10.666 11.014 13.575 4.259 2.354 9.252 2.909 14.098 2.077 2.35-.415 4.259-2.354 4.846-4.709 1.175-4.433-.44-9.004-2.35-13.02-4.405-9.142-9.839-17.869-11.895-27.842-.734-3.601.294-8.588 4.112-10.804ZM599.524 200.861c2.829-4.795 7.296-8.462 12.358-10.859-1.34 3.525-3.424 6.487-5.36 9.59-1.489 2.256-1.489 5.077-1.638 7.615 3.425-.141 6.849-.705 10.125-1.551-.894 2.679-1.787 5.5-4.318 7.192-2.829 1.974-6.998 3.244-9.976.846-3.126-3.243-3.573-8.884-1.191-12.833Z"/><path fill="#FFF" d="M418.738 195.02c1.462-2.217 4.24-3.048 6.432-4.018 4.532 5.819 7.309 12.884 9.064 19.95.731 2.77.438 5.541.146 8.312-1.608-.554-3.362-1.108-4.97-1.662 1.9 13.438 4.239 26.737 5.847 40.175 7.748-3.74 14.91-8.312 22.95-11.637 2.486-1.108 5.117-1.662 7.894-1.939-1.023 2.216-2.193 4.433-4.531 5.402-8.479 4.295-17.104 8.036-25.436 12.746.731 6.65 1.462 13.438 2.339 20.088 3.801-4.849 7.163-10.945 13.741-12.469.292 3.602-.877 7.897 1.754 10.806 4.093 3.187 9.648 1.247 13.449-1.662-.292-5.265 1.169-10.391 2.193-15.516 1.608.692 3.654.969 4.239 2.909 1.754 4.849 1.315 10.252 0 15.1-1.316 5.542-5.847 9.698-10.818 12.192-3.069 1.524-6.87 2.355-10.232.969-3.509-1.385-5.701-4.71-8.04-7.619-2.047 4.987-5.409 9.559-5.555 15.239-.585 11.914-5.263 23.274-12.426 32.695-12.425 16.208-31.429 25.906-50.724 31.586-11.11 3.048-22.659 5.818-34.353 5.264-6.286-.138-12.718-1.524-18.127-4.848-2.339-1.524-4.385-3.602-6.724-4.988-2.924-.554-5.993.277-9.063.277-7.309.277-14.618.554-21.781-.692 8.771-2.91 17.688-5.126 26.312-8.313-2.339-15.654.731-31.863 8.771-45.44 2.193-3.602 4.97-6.788 7.894-9.559-2.485 4.988-5.555 9.836-6.87 15.378-3.07 11.637-2.924 24.105.584 35.465 5.994-1.939 11.841-4.571 17.542-7.065 13.303-5.819 26.313-12.053 38.446-20.088 4.531-3.186 9.209-6.511 12.279-11.36 1.462-2.355 1.169-5.126 1.169-7.758-6.285 1.247-12.425 4.156-19.003 4.018-4.093-.277-8.479-1.109-11.402-4.295-2.924-3.186-3.07-7.758-2.485-11.776.877-5.264 3.216-10.528 7.455-13.992 4.824-4.017 11.987-3.879 17.542-1.385 5.408 2.493 8.478 7.758 11.109 12.745 8.187-3.048 13.741-10.252 21.781-13.715.293 4.156-.146 9.005 3.07 12.33 1.901 2.355 5.117 2.216 7.748 2.493-.439-6.649-1.462-13.161-2.339-19.672-2.777-21.75-5.555-43.639-7.894-65.528-.146-3.186-.585-6.511 1.023-9.143Zm-49.994 94.621c-.73 1.523 1.024 2.493 2.193 3.047 4.386 1.524 9.21.554 13.741-.277-2.339-2.493-5.116-5.264-8.917-5.403-2.485-.138-5.993 0-7.017 2.633Zm31.868 9.004c.292 4.434.438 8.867-1.023 13.023-2.339 7.065-7.748 12.745-13.303 17.456-10.671 8.727-23.243 14.407-35.376 20.78-5.408 3.186-11.256 5.68-17.103 8.174 7.455.554 14.911-.693 22.22-1.247 11.256-.693 22.073-3.879 32.452-8.035 10.817-4.433 21.342-10.113 29.821-18.426 5.116-4.987 9.209-11.221 10.964-18.287.877-3.463.877-7.065 1.023-10.667-4.386-.138-9.063 0-13.01-2.216-3.216-1.801-4.971-5.265-6.871-8.313a71.868 71.868 0 0 1-9.794 7.758ZM518.843 194.321c1.642-1.854 4.629-1.569 6.57-.285 4.331 2.852 6.87 8.129 6.571 13.263-.149 2.424-1.195 4.564-1.941 6.703-.598-3.28-.448-6.703-1.942-9.698-2.24-3.137-6.421-3.708-9.109-6.275-1.045-.856-1.493-2.852-.149-3.708Z"/><path fill="#FFF" d="M579.233 196.248c.291-1.956 2.189-4.051 4.232-2.934 5.691 2.794 9.777 8.102 12.404 13.83-2.043 0-4.086-.14-5.983-.279 1.021 3.911 2.043 7.683 3.648 11.454 2.189 5.309 5.254 10.338 6.13 16.205 1.021 6.426-.146 13.69-4.67 18.579-8.465 9.5-25.393 7.823-32.69-2.374-2.773-3.633-4.232-7.823-5.692-12.154-2.334 9.22-7.296 18.16-15.615 22.91-8.464 5.169-19.701 4.47-27.728-.978-4.962-3.213-8.318-8.801-8.318-14.668-.584-8.661 2.773-16.763 3.94-25.145-2.043 2.096-3.94 4.47-4.816 7.404-3.502 9.36-4.962 19.418-9.923 28.218-2.335 4.191-6.276 7.963-11.237 8.382-4.816.279-10.07-1.537-12.843-5.727-2.481-3.912-3.065-8.662-3.065-13.272.146-6.984 1.752-14.109 4.962-20.255 0 8.801-2.627 18.439 1.752 26.681 2.189 4.61 8.026 7.265 12.55 4.75 4.086-2.514 5.984-7.264 7.443-11.595 3.065-9.219 6.275-18.579 10.799-27.24 1.897-3.492 3.94-7.124 7.151-9.639 1.605-1.397 3.94-1.397 5.983-1.816.438 7.823-3.94 14.668-5.399 22.212-1.46 6.565-1.897 14.388 2.773 19.836 5.253 5.728 14.009 7.124 21.306 5.169 10.07-3.213 17.367-13.411 17.805-24.028.291-6.286.583-13.131-2.773-18.719-1.46-2.933-4.232-6.007-3.065-9.639.73-3.632 3.357-6.426 6.421-8.102 2.189 3.493 4.087 7.264 4.524 11.455 1.168 9.639 1.314 19.557 4.67 28.777 2.043 5.309 5.108 10.757 10.508 13.271 4.962 2.375 11.091 2.934 15.907.419 3.064-1.537 3.794-5.308 3.064-8.381-2.043-10.058-8.902-18.021-12.112-27.66-1.752-4.889-3.065-9.918-2.043-14.947ZM677.023 194.585c3.036-1.377 7.373-.276 8.818 2.892.579 1.514-.433 2.892-1.59 3.718-2.168-.413-4.048-1.515-5.927-2.341-2.458 4.682-3.759 9.915-5.205 15.148-1.012-2.479-1.879-5.095-3.469-7.299-2.024-2.754-5.205-4.131-7.518-6.61-.723-2.203 1.88-4.682 4.048-3.993 3.181.964 5.06 3.855 6.939 6.472.868-2.892 1.301-6.335 3.904-7.987ZM284.982 205.912c2.499-5.388 7.35-9.358 12.642-11.91-1.323 3.545-3.528 6.522-5.292 9.784-1.47 2.268-1.323 5.104-1.47 7.656 3.381-.283 6.762-.992 10.143-2.127-1.029 2.694-2.058 5.672-4.557 7.515-2.646 1.985-6.615 3.12-9.408 1.135-3.234-2.836-3.822-8.083-2.058-12.053Z"/><path fill="#FFF" d="M471.305 198.56c.867-4.639 7.655-4.499 9.822-.985 1.444 2.531 2.166 5.202 3.61 7.732 1.3 2.53 2.889 5.201 2.023 8.153-1.3 4.639-4.622 8.293-5.056 13.213 1.589-.702 3.178-1.546 4.767-2.389-.434 2.53 0 5.904-2.6 7.309-3.178 1.546-7.077-1.546-6.788-5.06.433-6.326 6.499-11.246 4.621-17.993-6.066 8.294-14.443 15.744-24.697 17.29 4.477-3.655 9.532-6.185 13.576-10.402 2.6-2.53 4.333-5.764 6.066-8.856-2.166-2.249-5.921-4.358-5.344-8.012Zm4.189-.422c1.011 1.546 2.311 2.811 3.755 3.655-.578-1.828-2.022-3.093-3.755-3.655ZM439.006 201.671c2.172-.561 4.777-1.402 6.514.561 5.21 4.907 7.671 12.759 5.934 19.77-1.158-2.664-2.026-5.468-3.329-7.992-2.171-4.768-6.947-7.572-9.119-12.339ZM392.134 205.002c2.189 2.37 3.21 5.298 2.772 8.506-3.501.557-7.003 1.533-10.504 2.37-1.897.558-3.939-.837-4.377-2.789-.146-2.091.583-4.043 1.021-6.135.73 2.092 1.459 4.183 2.189 6.414.875-.418 1.896-.697 2.772-1.115v-5.717h2.042c.292 1.673.584 3.486.876 5.159 1.167-.14 2.188-.279 3.355-.419-.146-2.091-.146-4.183-.146-6.274ZM688.176 209.093c2.797-.818 5.889-1.091 8.833-1.091-1.472 1.636-3.091 3.136-5.152 3.954-10.158 3.955-20.611 6.819-30.327 11.864.883 1.773 1.766 3.409 2.65 5.182-2.356-.409-5.153-.409-6.919-2.318-1.62-1.5-1.767-4.364.147-5.728 1.619-1.227 3.386-1.909 5.3-2.727 8.391-3 16.782-6.409 25.468-9.136ZM535.806 216.373c1.186-.976 2.52-1.674 3.706-2.371-.148 3.767 1.186 7.115 2.817 10.463 1.63 3.348.296 8.091-3.706 8.928-3.41 1.116-6.523-.977-8.895-2.93-1.927 1.674-4.003 3.906-6.82 3.488-5.188-.279-7.708-6.278-6.671-10.742.445-2.929 2.817-4.743 4.893-6.557-.297 3.07-1.483 6.139-.742 9.208.593 2.092 3.113 2.092 4.892 2.79.593-3.348.742-6.836 1.631-10.323.297-1.814 2.52-1.954 3.706-2.791.297 2.93.149 5.86 1.038 8.65.741 2.092 3.261 2.79 5.04 3.766.89-4.045-.889-7.812-.889-11.579ZM384.006 222.042c2.232 0 4.91-.402 6.696 1.34 5.059 4.688 7.589 12.056 5.654 18.62-1.785-4.421-3.273-9.243-7.142-12.592-2.381-2.01-4.762-4.287-5.208-7.368ZM686.675 239.071c1.042-1.255 2.383-2.092 3.723-3.069 0 3.488 1.192 6.696 2.681 9.765 1.489 3.07 1.489 7.952-2.234 9.347-3.426 1.535-7-.279-9.83-2.232-2.234 1.674-4.915 3.767-8.042 2.93-4.617-.977-6.553-6.278-5.809-10.463.298-3.069 2.979-5.022 5.064-6.975-.447 3.208-1.787 6.417-.893 9.625.744 2.093 3.276 1.674 5.063 2.093.596-3.627.298-7.394 1.788-10.742 1.042-.837 2.383-1.395 3.723-1.953.149 3.209-.447 6.696 1.191 9.626 1.043 1.814 3.277 1.953 5.064 2.511-.149-3.488-1.191-6.975-1.489-10.463ZM807.242 244.35c-.881-2.174.88-4.348 3.229-4.348 3.67 0 6.459 2.989 8.22 5.843 3.083 5.842 4.551 12.907 2.055 19.157-1.321-5.57-1.174-12.636-6.458-16.304-2.349-1.359-5.138-2.174-7.046-4.348ZM606.496 257.004c1.599-1.797 4.217-2.349 6.543-1.797 2.908 2.764 2.327 7.739 0 10.642-4.217 5.528-11.196 8.153-18.031 8.153 4.217-2.487 9.016-3.869 12.797-7.048 1.744-1.244 1.454-3.593 1.744-5.528-2.035.277-4.071.691-5.961.968.872-1.797 1.599-3.732 2.908-5.39ZM704.053 260.517c1.319-.285 3.077-1.139 3.956.284-1.025 3.416-4.542 4.839-7.326 6.262-10.549 4.981-20.806 10.531-31.209 15.939-.439-.996-1.025-1.85-1.465-2.846 5.861-4.412 12.308-7.685 18.608-11.243 5.861-2.988 11.429-6.261 17.436-8.396ZM506.634 269.13c.292-2.079 1.752-3.603 2.92-5.127 8.031 8.729 14.893 18.844 18.543 30.345 3.505 10.947 4.381 22.448 6.571 33.671 1.168 5.681 2.19 11.639 5.986 16.212 2.482 3.187 6.133 5.127 9.637 7.067.73-3.603 1.606-7.483 4.964-9.561 10.221-6.79 22.048-10.947 33.729-14.688-9.491-.277-19.128 0-28.618-.138-7.739-.139-15.478.554-23.07-.832.292-2.91.292-5.958 2.044-8.591 3.504-5.819 9.637-9.145 15.477-12.193 8.907-4.573 17.959-8.591 27.596-11.224-2.482-2.633-6.278-5.543-5.256-9.838 1.752-4.988 6.132-9.977 11.681-9.838 6.132 0 12.118 2.494 17.375 5.543 3.212 2.078 7.154 4.295 8.322 8.175-.146 2.771-1.606 5.265-3.212 7.482-3.358 4.157-9.345 3.88-14.309 4.434-.292 3.326-.73 7.344-4.088 8.868a174.274 174.274 0 0 0-3.212-7.759c-12.119 2.217-22.924 8.452-32.415 15.935 26.866.138 53.586-.555 80.452-.416 1.752.139 3.504.277 5.256.554-1.168 7.067-8.322 10.531-14.601 12.055-12.702 2.771-25.405 5.266-38.108 7.76-9.491 1.94-19.128 4.157-27.742 8.452-3.212 1.524-5.841 4.157-8.031 7.067 6.279 2.355 12.849 3.741 19.42 4.988 2.19.554 5.256.97 5.84 3.603.876 3.464 1.022 8.314-2.336 10.531-4.235.97-8.615 0-12.849-.693-11.681-1.801-22.924-7.898-29.64-17.875-5.111-7.205-6.571-16.212-7.885-24.803-3.358 4.712-6.862 9.423-11.097 13.302-11.388 10.67-25.113 18.429-39.422 24.665-4.965 2.217-11.243 2.91-16.207-.139-3.505-2.078-4.819-6.374-6.279-9.976-13.287 6.789-26.866 13.302-41.613 16.073-9.052 1.663-18.251 2.91-27.45 2.771 4.819-2.355 9.783-4.157 14.601-6.097 16.061-6.651 31.831-14.133 47.308-22.17 1.898-1.108 4.234-2.078 5.548-3.88 1.46-4.018 1.606-8.313 3.796-12.193 2.191-4.711 6.133-8.314 10.367-11.085-2.774 6.097-5.694 12.332-6.57 18.983 9.344-5.681 18.251-12.055 26.135-19.815 2.045-2.217 4.965-4.988 3.797-8.313-1.46-4.712-3.943-8.868-5.695-13.441-2.628-6.651-5.84-13.579-5.11-20.923.146-2.356 1.898-4.157 3.066-5.959 6.425 4.157 10.513 10.947 14.163 17.46-1.314.277-2.774.554-4.088.831 2.482 6.79 6.57 12.886 7.738 20.092.876 5.542-.438 11.639-4.38 15.796-9.929 10.669-22.193 18.706-33.728 27.436 2.044 1.108 4.234 2.632 6.716 2.494 4.819-.139 9.491-1.802 13.871-3.603 16.061-7.067 29.202-18.845 42.781-29.791-3.358-13.025-9.345-25.219-15.623-37.135-2.19-4.157-3.796-9.423-3.066-14.549Zm77.531 17.181c1.606 2.217 3.797 4.019 6.425 4.989 3.942.831 7.738-1.524 10.658-4.019-3.65-2.771-7.884-4.988-12.556-4.988-2.191 0-4.527 1.801-4.527 4.018ZM305.812 269.344c.147-1.645 1.464-3.428 3.367-3.291 4.976-.548 8.488 3.428 11.562 6.581 1.61 1.645 2.927 3.838 1.902 6.169-.585 2.605-3.658 2.468-5.707 3.016-4.391.274-6.147 4.935-9.514 6.992-6.732 4.524-15.075 8.088-23.417 6.991 2.049-2.879 5.415-4.112 8.635-5.072 6.001-1.919 10.831-6.169 15.221-10.556-1.171-3.564-2.634-7.129-2.049-10.83Zm2.781.548c.293 2.331.878 4.798 2.196 6.855.878-1.92 1.756-3.976 2.488-5.895-1.464-.412-3.074-.686-4.684-.96Zm6.586 8.911c1.61-.137 3.22-.411 4.83-.548-.293-2.057-.732-4.113-1.61-6.032-2.049 1.508-2.342 4.249-3.22 6.58Z"/><path fill="#FFF" d="M553.434 270.414c.888-1.072 2.369-1.742 3.554-2.412 0 4.689 3.554 8.307 3.998 12.862.444 4.689-5.923 7.1-9.773 4.957-1.185-.804-2.221-1.742-3.258-2.546-2.073 1.742-4.294 4.287-7.403 3.618-4.739-.804-7.256-6.029-6.368-10.316.445-2.948 2.962-4.823 5.183-6.565-.444 2.813-1.481 5.493-1.185 8.44.297 2.144 2.814 2.814 4.591 3.752 1.184-3.216 1.48-6.699 2.073-10.183.296-1.875 2.665-2.143 3.998-3.081.148 2.814 0 5.761.888 8.441.889 1.875 2.962 2.813 4.59 3.885 1.777-3.618-.74-7.235-.888-10.852ZM320.337 287.764c2.456-1.104 5.056-2.482 7.8-2.758 2.6-.138 3.9 3.861 1.878 5.515-3.033 2.344-6.644 3.309-10.111 4.826-8.089 3.86-16.177 7.583-24.121 11.857-1.734 1.103-3.9.828-5.778.552 1.155-2.344 2.744-4.55 5.055-5.929 8.378-5.101 16.755-9.789 25.277-14.063ZM627.314 292.012c.587-2.765 3.819-3.18 6.169-4.009.588 4.009 1.029 8.157 3.526 11.475a293.37 293.37 0 0 0-3.82.415c-1.762 2.627-3.672 5.53-6.61 6.913-4.847 2.35-10.282 2.35-15.57 2.073 5.582-1.521 12.486-1.935 16.158-6.913 2.497-2.903-.147-6.636.147-9.954ZM737.281 296.123c.733-2.276 3.37-2.276 5.275-1.991 4.102.711 7.033 4.266 9.67 7.252 1.905 1.849 2.491 5.12.733 7.395-2.638 2.133-6.887.853-9.231 3.698-7.033 8.248-17.876 13.509-28.718 12.372 2.051-2.987 5.421-4.267 8.791-5.262 6.007-1.991 10.696-6.542 15.092-10.95-1.172-3.982-2.931-8.248-1.612-12.514Zm2.784 1.706c.293 2.56.879 5.12 1.758 7.537 1.026-1.991 2.051-3.982 2.638-6.115-1.466-.568-3.077-.995-4.396-1.422Zm8.498 3.129c-.879 1.991-1.465 4.124-2.051 6.257 1.612-.142 3.223-.427 4.835-.569-.44-1.991-.732-3.982-1.612-5.83-.293 0-.879.142-1.172.142ZM461.214 300.411c2.796-2.678 7.799-1.268 9.565 1.973.882 1.833-1.031 3.242-1.766 4.652-1.472-.846-2.943-1.974-4.562-2.397-1.471-.422-1.913 1.269-2.354 2.256-1.766 4.228-2.649 8.738-3.973 13.108-1.03-2.678-1.766-5.356-3.384-7.752-1.766-2.537-4.709-3.947-6.916-6.061-2.06-1.691.147-5.356 2.501-4.933 3.385.423 5.445 3.523 7.799 5.779.883-2.256 1.472-4.793 3.09-6.625ZM286.355 324.817c2.651-4.775 6.837-8.427 11.58-10.814-1.255 3.511-3.209 6.601-5.022 9.691-1.395 2.247-1.395 4.915-1.535 7.444 3.209-.141 6.418-.703 9.627-1.405-.838 2.669-1.814 5.618-4.186 7.163-2.651 1.826-6.418 3.23-9.208.843-3.069-3.512-3.348-8.989-1.256-12.922ZM518.916 345.729c2.589-.419 5.636-1.537 7.92.279 2.285 1.398 3.046 5.032.914 6.988-3.198 1.677-7.311.699-10.052 3.075.457 3.634 3.351 6.568 3.96 10.062.152 2.236-1.676 4.053-2.742 5.87-.761-3.494-1.37-7.267-3.35-10.342-1.219-2.236-3.047-4.472-2.437-7.128.609-2.934 3.807-4.332 6.092-5.73-.152-.838-.305-1.956-.305-3.074ZM630.974 350.675c1.102-2.836 3.718-4.187 6.059-5.672-.964 2.296-2.616 4.592-2.892 7.157 1.102 2.026 2.892 3.512 3.856 5.673.276 3.511-4.682 4.051-6.472 1.89-2.066-2.431-1.79-6.212-.551-9.048ZM604.313 346.559c4.026-1.382 8.338 0 11.932 2.074-2.587 5.391-8.625 6.774-13.082 10.092.144.552.288 1.658.288 2.211 3.163.138 6.469.553 9.2-1.106 3.594-1.935 7.332-3.732 11.357-4.562-3.162 2.765-6.181 5.53-9.344 8.157-3.738 3.041-8.913 3.041-13.369 1.797-2.157-.692-4.888-2.627-4.169-5.392 1.15-3.456 4.6-5.253 7.331-7.326-2.012-.138-3.881-.277-5.894-.415 1.581-2.212 3.019-4.977 5.75-5.53ZM709.652 355.969c-1.511-1.717-.151-4.581 1.965-4.867 4.081-.716 7.557 2.577 9.371 5.869 2.721 4.582 2.569 10.308.302 15.032-.755-3.293-.755-6.728-2.418-9.735-2.267-3.006-6.499-3.579-9.22-6.299ZM775.5 357.972c5.358-1.945 10.717-4.446 16.51-3.89-1.303 2.084-2.896 4.029-5.358 4.862-8.98 3.334-18.104 6.391-26.938 10.142a45.426 45.426 0 0 1-8.69 2.917c-.29-.834-.724-1.667-1.014-2.501 8.111-4.723 16.8-8.057 25.49-11.53ZM757.009 537.223h-44.92v-4.239c2.028-1.745 4.782-4.114 4.782-5.485 0-2.369-5.652-7.231-6.956-7.231-1.449 0-6.955 4.987-6.955 7.231 0 1.496 2.463 3.615 4.492 5.361l.145.124v4.364H353.309c12.607 12.467 31.299 12.342 68.829 12.716 33.473.499 33.328.499 285.314 0v4.488c-2.029 1.745-4.492 4.114-4.492 5.486 0 2.368 5.361 7.23 6.955 7.23 1.015 0 4.347-2.742 6.086-5.111h15.505c1.014 1.745 3.333 2.743 6.086 2.743s5.071-1.122 6.086-2.743h18.547c2.319 2.618 5.506 2.743 7.39 2.743 7.1-.25 8.694-3.865 8.694-16.332-.144-10.472-7.245-11.594-21.3-11.345Zm3.188 21.069h-16.519c-1.015-1.745-3.333-2.867-6.086-2.867s-5.072 1.122-6.086 2.867h-15.215c-.869-1.247-2.608-2.867-4.057-3.865v-4.488h48.107c-.869 3.242-1.014 6.109-.144 8.353Z"/></g></svg>