<svg xmlns="http://www.w3.org/2000/svg" width="1136" height="758" overflow="hidden"><defs><clipPath id="a"><path d="M-1-1h1136v758H-1z"/></clipPath></defs><g fill-rule="evenodd" clip-path="url(#a)" transform="translate(1 1)"><path fill="#ED2939" d="M0 0h1134v756H0Z"/><path fill="#FFF" d="M0 378h1134v378H0ZM389 189c0 78.424-63.576 142-142 142s-142-63.576-142-142S168.576 47 247 47s142 63.576 142 142Z"/><path fill="#ED2939" d="M434 189c0 74.006-60.218 134-134.5 134S165 263.006 165 189 225.218 55 299.5 55 434 114.994 434 189Z"/><path fill="#FFF" d="m264.165 191.993-19.161-14.699L225.847 192l7.375-23.703L214 153.686l23.72.05L244.996 130l7.284 23.734 23.72-.059-19.218 14.618 7.383 23.7ZM416.036 191.993l-19.471-14.699L377.099 192l7.495-23.703-19.533-14.611 24.102.05L396.557 130l7.402 23.734 24.102-.059-19.527 14.618 7.502 23.7ZM340.195 135.971l-19.161-14.7-19.157 14.707 7.375-23.703-19.222-14.611 23.72.05 7.276-23.736 7.285 23.733 23.719-.058-19.217 14.618 7.382 23.7ZM292.986 282.029l-19.471-14.7-19.465 14.707 7.494-23.703-19.533-14.611 24.103.05 7.393-23.736 7.402 23.733 24.102-.058-19.527 14.618 7.502 23.7ZM387.214 282.029l-19.161-14.7-19.157 14.707 7.375-23.703-19.222-14.611 23.719.05 7.277-23.736 7.284 23.733 23.72-.058-19.218 14.618 7.383 23.7Z"/></g></svg>