<svg xmlns="http://www.w3.org/2000/svg" width="1136" height="568" overflow="hidden"><defs><clipPath id="a"><path d="M-1 94h1136v568H-1z"/></clipPath></defs><g fill-rule="evenodd" clip-path="url(#a)" transform="translate(1 -94)"><path fill="red" d="M0 472h1134v189H0Z"/><path fill="#005CE5" d="M0 283h1134v189H0Z"/><path fill="#FFF" d="M0 94h1134v189H0Z"/><path fill="#005CE5" d="M282.941 193.979a140.7 140.7 0 0 0-3.794.064c-24.531.637-47.561 6.976-63.96 14.707l.002.022c-1.794.75-3.55 1.502-5.22 2.254l5.637 88.348c3.905 46.169 33.972 73.049 67.379 83.605 33.408-10.556 63.473-37.436 67.379-83.605l5.605-88.068a128.885 128.885 0 0 0-5.22-2.534l.002-.022c-17.236-8.126-41.795-14.726-67.725-14.769a1.085 1.085 0 0 0-.057-.002h-.028Z"/><path fill="#FFF" d="m283.003 255.006-16.493 32.275-10.663-13.881-27.862 36.898a92.52 92.52 0 0 0 1.74 6.66c3.112 5.263 9.092 11.271 16.762 11.271 6.086 0 12.172-4.879 18.258-4.879 6.086 0 12.172 4.879 18.258 4.879 6.086 0 12.172-4.879 18.258-4.879 6.086 0 12.173 4.879 18.259 4.879 7.6 0 13.54-5.897 16.676-11.125a92.718 92.718 0 0 0 1.789-6.855L310.159 273.4l-10.663 13.881Zm-18.258 73.223c-6.086 0-12.172 4.879-18.258 4.879-4.817 0-8.955-1.71-12.16-4.135 1.131 2.407 2.329 4.749 3.639 6.965 2.511 1.564 5.364 2.622 8.521 2.622 6.086 0 12.172-4.879 18.258-4.879 6.086 0 12.172 4.879 18.258 4.879 6.086 0 12.172-4.879 18.258-4.879 6.086 0 12.173 4.879 18.259 4.879 3.111 0 5.925-1.034 8.411-2.561 1.309-2.209 2.506-4.543 3.639-6.941-3.19 2.38-7.29 4.05-12.05 4.05-6.086 0-12.173-4.879-18.259-4.879s-12.172 4.879-18.258 4.879c-6.086 0-12.172-4.879-18.258-4.879Zm0 10.331c-6.086 0-12.172 4.879-18.258 4.879-1.323 0-2.58-.155-3.798-.39 10.529 14.096 24.894 23.531 40.302 28.957 15.376-5.417 29.718-14.859 40.241-28.933a19.89 19.89 0 0 1-3.712.366c-6.086 0-12.173-4.879-18.259-4.879s-12.172 4.879-18.258 4.879c-6.086 0-12.172-4.879-18.258-4.879Z"/><path fill="#FFE500" d="M255.986 206.011h14l-7 12"/><path fill="#FFE500" d="M255.986 213.989h14l-7-12M296.986 206.011h14l-7 12"/><path fill="#FFE500" d="M296.986 213.989h14l-7-12M276.987 233.011h13l-6.5 12"/><path fill="#FFE500" d="M276.987 240.989h13l-6.5-12"/><path fill="red" d="M282.951 194.013a159.127 159.127 0 0 1 0 0Zm-67.757 14.793a212.95 212.95 0 0 0-5.22 2.254l5.637 88.35c3.905 46.169 33.971 73.048 67.379 83.603 33.407-10.555 63.473-37.434 67.379-83.603l5.605-88.07a127.605 127.605 0 0 0-5.22-2.534l-5.231 87.679c-3.625 44.887-31.535 71.02-62.548 81.283-31.013-10.263-58.924-36.396-62.55-81.283Z"/></g></svg>