<svg xmlns="http://www.w3.org/2000/svg" width="1136" height="758" overflow="hidden"><defs><clipPath id="a"><path d="M-1-1h1136v758H-1z"/></clipPath></defs><g fill-rule="evenodd" clip-path="url(#a)" transform="translate(1 1)"><path fill="#EE1C25" d="M0 0h1134v756H0Z"/><path fill="#0B4EA2" d="M0 0h1134v504H0Z"/><path fill="#FFF" d="M0 0h1134v252H0Z"/><path fill="#FFF" d="M495.263 178h-310.53l-1.064 10.131c-.232 2.202-5.669 55.276-5.669 171.833 0 54.762 18.505 103.076 55.001 143.598 25.57 28.391 58.963 52.294 102.088 73.073l4.907 2.365 4.908-2.365c43.127-20.779 76.522-44.682 102.094-73.073C483.494 463.04 502 414.726 502 359.964c0-116.556-5.439-169.631-5.67-171.833L495.263 178Z"/><path fill="#EE1C25" d="M339.997 567C277.869 537.055 189 477.618 189 360.044 189 242.469 194.617 189 194.617 189H485.38S491 242.471 491 360.044C491 477.618 402.13 537.055 339.997 567Z"/><path fill="#FFF" d="M353.264 329.536c16.795.272 49.56.931 78.736-8.853 0 0-.771 10.464-.771 22.652 0 12.192.771 22.655.771 22.655-26.761-8.976-59.811-9.163-78.736-8.922V422h-26.528v-64.932c-18.925-.241-51.973-.054-78.736 8.922 0 0 .771-10.463.771-22.655 0-12.189-.771-22.652-.771-22.652 29.176 9.784 61.941 9.125 78.736 8.853v-40.779c-15.308-.137-37.364.595-62.304 8.961 0 0 .771-10.463.771-22.655 0-12.19-.771-22.654-.771-22.654 24.902 8.351 46.934 9.095 62.236 8.963-.787-25.825-8.293-58.372-8.293-58.372s15.448 1.208 21.624 1.208c6.182 0 21.625-1.208 21.625-1.208s-7.503 32.549-8.292 58.37c15.304.133 37.334-.611 62.236-8.963 0 0-.771 10.463-.771 22.654s.771 22.654.771 22.654c-24.939-8.364-46.996-9.097-62.304-8.961V329.536Z"/><path fill="#0B4EA2" d="M339.981 415c-31.293 0-48.054 43.334-48.054 43.334s-9.299-20.548-34.83-20.548c-17.274 0-30.004 15.339-38.097 29.544 31.427 49.916 81.569 80.719 120.979 99.67 39.418-18.952 89.592-49.748 121.021-99.67-8.093-14.205-20.823-29.544-38.097-29.544-25.532 0-34.87 20.548-34.87 20.548S371.276 415 339.981 415Z"/></g></svg>