<svg xmlns="http://www.w3.org/2000/svg" width="1136" height="758" overflow="hidden"><defs><clipPath id="a"><path d="M-1-1h1136v758H-1z"/></clipPath></defs><g fill-rule="evenodd" clip-path="url(#a)" transform="translate(1 1)"><path d="M0 0h1134v756H0Z"/><path fill="#FFF" d="M0 0h1134v504H0Z"/><path fill="#CE1126" d="M0 0h1134v252H0Z"/><path fill="#007A3D" d="m657 355.191 75.63.001L756 283l23.37 72.192 75.63-.001-61.186 44.617L817.185 472 756 427.382 694.815 472l23.371-72.192ZM279 355.191l75.63.001L378 283l23.37 72.192 75.63-.001-61.186 44.617L439.185 472 378 427.382 316.815 472l23.371-72.192Z"/></g></svg>