<svg xmlns="http://www.w3.org/2000/svg" width="1136" height="568" overflow="hidden"><defs><clipPath id="a"><path d="M-1 94h1136v568H-1z"/></clipPath></defs><g clip-path="url(#a)" transform="translate(1 -94)"><path fill="#FFF" fill-rule="evenodd" d="M0 94h1134v567H0Z"/><path fill="#060" fill-rule="evenodd" d="M0 499h1134v162H0Z"/><path fill="#C00" fill-rule="evenodd" d="M0 94h1134v162H0Z"/><path fill="#F8C300" fill-rule="evenodd" d="M548 282.751h14.515L567 269l4.485 13.751H586l-11.743 8.498L578.743 305 567 296.501 555.257 305l4.486-13.751ZM491 297.751h14.515L510 284l4.485 13.751H529l-11.743 8.498L521.743 320 510 311.501 498.257 320l4.486-13.751ZM605 297.751h14.515L624 284l4.485 13.751H643l-11.743 8.498L635.743 320 624 311.501 612.257 320l4.486-13.751ZM450 339.133h14.515L469 325l4.485 14.133H488l-11.743 8.734L480.743 362 469 353.265 457.257 362l4.486-14.133ZM646 339.133h14.515L665 325l4.485 14.133H684l-11.743 8.734L676.743 362 665 353.265 653.257 362l4.486-14.133ZM435 395.751h14.515L454 382l4.485 13.751H473l-11.743 8.498L465.743 418 454 409.501 442.257 418l4.486-13.751ZM661 395.751h14.515L680 382l4.485 13.751H699l-11.743 8.498L691.743 418 680 409.501 668.257 418l4.486-13.751ZM544.22 370.546c2.823-4.853 9.047-6.499 13.902-3.678a10.166 10.166 0 0 1 5.052 8.475V416h7.646v-40.657c.172-5.611 4.862-10.02 10.475-9.847a10.164 10.164 0 0 1 8.478 5.05c4.173-12.575-2.642-26.149-15.222-30.32-12.579-4.17-26.159 2.642-30.331 15.216a23.98 23.98 0 0 0 0 15.104"/><path fill="#FFF" fill-rule="evenodd" d="M550 360.191c6.715-1.407 13.558 1.736 17 7.809 3.443-6.073 10.285-9.216 17-7.809-1.29-9.62-9.946-16.347-19.335-15.025-7.624 1.073-13.618 7.214-14.665 15.025"/><path fill="#F8C300" fill-rule="evenodd" d="M563.228 399c-1.523 17.165-16.5 29.83-33.453 28.288a30.64 30.64 0 0 1-18.328-8.32c-6.548 16.642-25.181 24.759-41.618 18.129a31.885 31.885 0 0 1-6.829-3.786c2.96 29.913 47.245 23.805 50.544-5.279 13.913 24.73 44.505 17.647 53.456-12.646Z"/><path fill="#F8C300" fill-rule="evenodd" d="M570.759 399c1.522 17.165 16.5 29.83 33.453 28.288a30.646 30.646 0 0 0 18.328-8.32c6.548 16.642 25.18 24.759 41.617 18.129a31.92 31.92 0 0 0 6.83-3.786c-2.96 29.913-47.245 23.806-50.545-5.279-13.912 24.73-44.504 17.647-53.456-12.646ZM534 451.985c-6.32 13.734-18.951 16.093-30 5.007 0 0 4.441-3.159 9.196-4.03-.891-3.82.937-9.104 3.514-11.962 2.702 1.859 6.473 5.586 7.433 9.916 6.66-.868 9.857 1.07 9.857 1.07ZM581.856 450.359c-8.256 12.137-20.796 12.387-29.688.022 0 0 4.777-2.317 9.494-2.394-.255-3.797 2.34-8.563 5.274-10.888 2.309 2.209 5.353 6.374 5.594 10.67 6.552.228 9.326 2.591 9.326 2.591Z"/><path fill="#F8C300" fill-rule="evenodd" d="M629.731 456.733c-10.122 10.631-22.535 8.836-29.296-4.811 0 0 5.09-1.509 9.758-.817.366-3.788 3.703-8.067 6.975-9.884 1.919 2.555 4.245 7.161 3.782 11.438 6.429 1.292 8.781 4.075 8.781 4.075Z"/><path fill="none" stroke="#F8C300" stroke-miterlimit="8" stroke-width="12.9486" d="M488.5 482.5c51.223-16 105.777-16 157 0"/></g></svg>