<svg xmlns="http://www.w3.org/2000/svg" width="1136" height="758" overflow="hidden"><defs><clipPath id="a"><path d="M-1-1h1136v758H-1z"/></clipPath><clipPath id="b"><path d="M155 153h166v111H155z"/></clipPath><clipPath id="c"><path d="M155 153h166v111H155z"/></clipPath><clipPath id="d"><path d="M155 153h166v111H155z"/></clipPath><clipPath id="e"><path d="M145 433h186v120H145z"/></clipPath><clipPath id="f"><path d="M145 433h186v120H145z"/></clipPath><clipPath id="g"><path d="M145 433h186v120H145z"/></clipPath></defs><g clip-path="url(#a)" transform="translate(1 1)"><path fill="#00843D" fill-rule="evenodd" d="M0 0h1134v756H0Z"/><path fill="#FFF" fill-rule="evenodd" d="M563.009 84C596.521 98.347 620 131.551 620 170.214 620 222.002 577.882 264 525.947 264c-23.251 0-44.53-8.422-60.947-22.368 10.156 4.344 21.254 6.967 32.945 7.476 51.887 2.259 95.801-37.866 98.066-89.605 1.316-30.038-11.7-57.395-33.002-75.503Z"/><path fill="#D22630" fill-rule="evenodd" d="M136 0h204v756H136Z"/><path fill="#383739" fill-rule="evenodd" d="M178.639 0h7.089l.272.249-19.653 17.958-8.957-8.247-4.679 4.256 7.019 6.519-8.155 7.582 3.877 3.658L136 50v-7.383l11.497-10.642-3.877-3.658 8.222-7.582-3.609-3.26v4.723h-7.019v-5.654l15.842-14.766h8.021l.869 5.255h-4.612l5.013 4.656L178.914.249ZM168.49 0h4.791l-4.126 3.84ZM136 0h12.985l.25.249-3.877 3.924h-4.813V9.56L136 14.15Z"/><path fill="#FFC72C" fill-rule="evenodd" d="M179.329 0h5.401l.27.248-18.734 17.156-8.933-8.28-5.467 5.034 7.001 6.492-8.134 7.55 3.867 3.644L136 49v-5.83l12.267-11.326L144.4 28.2l8.2-7.552-4.933-4.57v5.498h-5.934v-4.902l15.534-14.374h7.2l.735 4.173h-5.334l6.4 5.896L179.602.248Zm-10.324 0h3.378l-2.915 2.699Zm-33.003 0h12.217l.249.248-3.333 3.312h-5.133v5.763l-4 3.974Z"/><path fill="#383739" fill-rule="evenodd" d="M136 88.011v7.346l11.497 10.654-3.877 3.574 8.222 7.544-3.609 3.243v-4.699h-7.019v5.625l15.842 14.691h8.021l.87-5.162h-4.613l5.013-4.632 12.567 11.316-12.567 11.383-5.013-4.633h4.613l-.87-5.228h-8.021l-15.842 14.692v5.625h7.019v-4.699l3.609 3.243-8.222 7.544 3.877 3.64L136 179.666v7.345l19.452-17.933-3.877-3.64 8.155-7.544-7.019-6.485 4.679-4.236 8.957 8.206L186 137.512l-19.653-17.868-8.957 8.272-4.679-4.301 7.019-6.486-8.155-7.544 3.877-3.573-19.452-18Zm0 35.669v27.662l4.545-4.566v-5.36h4.813l3.877-3.905-3.877-3.838h-4.813v-5.426L136 123.681Zm33.155 9.795-.668 3.772.668 3.838 4.144-3.838Z"/><path fill="#FFC72C" fill-rule="evenodd" d="M136.002 88.012v5.918l12.267 11.568-3.867 3.632 8.2 7.667-4.934 4.641v-5.583h-5.933v4.977l15.533 14.595h7.201l.733-4.17h-5.334l6.4-6.053 13.334 12.308-13.334 12.307-6.4-5.985h5.334l-.735-4.237h-7.2l-15.534 14.594v4.977h5.934v-5.582l4.933 4.64-8.2 7.667 3.867 3.699L136 181.093v5.919l18.6-17.42-3.867-3.699 8.134-7.667-7.001-6.591 5.467-5.111 8.933 8.407L185 137.512l-18.734-17.42-8.933 8.407-5.467-5.111 7.001-6.591-8.134-7.667 3.867-3.632L136 88.011Zm0 36.25v26.499l4-4.035v-5.851h5.133l3.333-3.363-3.333-3.363h-5.133v-5.851l-4-4.036Zm33.466 10.223-.466 2.758.466 2.757 2.934-2.757Z"/><path fill="#383739" fill-rule="evenodd" d="M136 230.023v7.42l11.497 10.762-3.877 3.61 8.222 7.62-3.609 3.275v-4.746h-7.019v5.682l15.842 14.84h8.021l.87-5.214h-4.613l5.013-4.679 12.567 11.43-12.567 11.498-5.013-4.68h4.613l-.87-5.28h-8.021L141.214 296.4v5.682h7.019v-4.746l3.609 3.276-8.222 7.62 3.877 3.676L136 322.603v7.42l19.452-18.115-3.877-3.676 8.155-7.62-7.019-6.551 4.679-4.278 8.957 8.289L186 280.024l-19.653-18.049-8.957 8.356-4.679-4.345 7.019-6.551-8.155-7.62 3.877-3.61L136 230.024Zm0 36.03v27.941l4.545-4.612v-5.415h4.813l3.877-3.944-3.877-3.877h-4.813v-5.481L136 266.053Zm33.155 9.893-.668 3.81.668 3.877 4.144-3.877Z"/><path fill="#FFC72C" fill-rule="evenodd" d="M136.002 231.023v5.859l12.267 11.451-3.867 3.595 8.2 7.59-4.934 4.594v-5.526h-5.933v4.926l15.533 14.447h7.201l.733-4.127h-5.334l6.4-5.992 13.334 12.183-13.334 12.184-6.4-5.926h5.334l-.735-4.194h-7.2l-15.534 14.447v4.927h5.934v-5.526l4.933 4.594-8.2 7.589 3.867 3.662L136 323.165v5.858l18.6-17.243-3.867-3.662 8.134-7.589-7.001-6.525 5.467-5.06 8.933 8.322L185 280.023l-18.734-17.243-8.933 8.322-5.467-5.06 7.001-6.524-8.134-7.59 3.867-3.595-18.6-17.31Zm0 35.885v26.231l4-3.995v-5.792h5.133l3.333-3.329-3.333-3.328h-5.133v-5.792l-4-3.995Zm33.466 10.12-.466 2.729.466 2.73 2.934-2.73Z"/><path fill="#383739" fill-rule="evenodd" d="M136 372.035v7.42l11.497 10.762-3.877 3.61 8.222 7.62-3.609 3.275v-4.746h-7.019v5.682l15.842 14.84h8.021l.87-5.214h-4.613l5.013-4.679 12.567 11.43-12.567 11.497-5.013-4.679h4.613l-.87-5.28h-8.021l-15.842 14.839v5.682h7.019v-4.746l3.609 3.276-8.222 7.62 3.877 3.676L136 464.615v7.42l19.452-18.115-3.877-3.676 8.155-7.62-7.019-6.551 4.679-4.278 8.957 8.288L186 422.035l-19.653-18.048-8.957 8.356-4.679-4.345 7.019-6.551-8.155-7.62 3.877-3.61L136 372.035Zm0 36.03v27.941l4.545-4.613v-5.414h4.813l3.877-3.944-3.877-3.877h-4.813v-5.481L136 408.065Zm33.155 9.893-.668 3.81.668 3.877 4.144-3.877Z"/><path fill="#FFC72C" fill-rule="evenodd" d="M136.002 373.035v5.859l12.267 11.451-3.867 3.595 8.2 7.59-4.934 4.593v-5.525h-5.933v4.926l15.533 14.447h7.201l.733-4.127h-5.334l6.4-5.992 13.334 12.183-13.334 12.184-6.4-5.926h5.334l-.735-4.194h-7.2l-15.534 14.447v4.927h5.934v-5.526l4.933 4.593-8.2 7.59 3.867 3.662L136 465.176v5.859l18.6-17.243-3.867-3.662 8.134-7.59-7.001-6.524 5.467-5.06 8.933 8.322L185 422.035l-18.734-17.243-8.933 8.322-5.467-5.06 7.001-6.524-8.134-7.59 3.867-3.595-18.6-17.31Zm0 35.885v26.231l4-3.995v-5.792h5.133l3.333-3.329-3.333-3.329h-5.133v-5.792l-4-3.994Zm33.466 10.119-.466 2.73.466 2.73 2.934-2.73Z"/><path fill="#383739" fill-rule="evenodd" d="M136 514.047v7.42l11.497 10.762-3.877 3.609 8.222 7.621-3.609 3.275v-4.746h-7.019v5.682l15.842 14.84h8.021l.87-5.214h-4.613l5.013-4.679 12.567 11.43-12.567 11.497-5.013-4.679h4.613l-.87-5.28h-8.021l-15.842 14.839v5.682h7.019v-4.746l3.609 3.275-8.222 7.621 3.877 3.676L136 606.627v7.42l19.452-18.115-3.877-3.676 8.155-7.621-7.019-6.55 4.679-4.278 8.957 8.288L186 564.047l-19.653-18.048-8.957 8.356-4.679-4.345 7.019-6.551-8.155-7.62 3.877-3.61L136 514.047Zm0 36.03v27.941l4.545-4.613v-5.414h4.813l3.877-3.944-3.877-3.877h-4.813v-5.481L136 550.077Zm33.155 9.892-.668 3.811.668 3.877 4.144-3.877Z"/><path fill="#FFC72C" fill-rule="evenodd" d="M136.002 515.047v5.859l12.267 11.451-3.867 3.595 8.2 7.59-4.934 4.593v-5.526h-5.933v4.927l15.533 14.447h7.201l.733-4.128h-5.334l6.4-5.992 13.334 12.184-13.334 12.183-6.4-5.925h5.334l-.735-4.194h-7.2l-15.534 14.447v4.926h5.934v-5.525l4.933 4.593-8.2 7.59 3.867 3.662L136 607.188v5.859l18.6-17.243-3.867-3.662 8.134-7.59-7.001-6.524 5.467-5.06 8.933 8.322L185 564.047l-18.734-17.243-8.933 8.322-5.467-5.06 7.001-6.524-8.134-7.59 3.867-3.595-18.6-17.31Zm0 35.885v26.231l4-3.995v-5.792h5.133l3.333-3.329-3.333-3.329h-5.133v-5.792l-4-3.994Zm33.466 10.119-.466 2.73.466 2.729 2.934-2.729Z"/><path fill="#383739" fill-rule="evenodd" d="M327.015 0H340v14.15l-4.546-4.59V4.173h-4.812L326.765.249Zm-24.296 0h4.791l-.665 3.84Zm-12.447 0h7.088l-.274.249 12.567 11.44 5.013-4.656h-4.613l.87-5.255h8.021l15.842 14.766v5.654h-7.019v-4.723l-3.61 3.26 8.223 7.582-3.877 3.658L340 42.617V50l-19.452-18.025 3.877-3.658-8.155-7.582 7.019-6.519-4.68-4.256-8.956 8.247L290 .25Z"/><path fill="#FFC72C" fill-rule="evenodd" d="M327.55 0h12.448v13.128l-4-3.993v-5.79h-5.133L327.532.018Zm-23.685 0h3.09l-.423 2.48ZM291.02 0h5.398l-.019.017 13.334 12.18 6.4-5.924h-5.334l.735-4.192h7.2l15.534 14.441v4.925h-5.933v-5.524l-4.934 4.593 8.2 7.587-3.867 3.66L340 43.143V49l-18.6-17.237 3.867-3.66-8.133-7.587 7-6.523-5.467-5.057-8.933 8.319L291 .017Z"/><path fill="#383739" fill-rule="evenodd" d="M339.987 88.011v7.346l-11.497 10.654 3.877 3.574-8.222 7.544 3.61 3.243v-4.699h7.018v5.625l-15.842 14.691h-8.021l-.87-5.161h4.613l-5.013-4.633-12.567 11.316 12.567 11.383 5.013-4.633h-4.612l.869-5.228h8.021l15.842 14.692v5.625h-7.018v-4.699l-3.61 3.243 8.222 7.544-3.877 3.64 11.497 10.588v7.345l-19.452-17.933 3.877-3.64-8.155-7.544 7.02-6.486-4.68-4.235-8.957 8.206-19.653-17.867 19.653-17.868 8.957 8.272 4.68-4.301-7.02-6.486 8.155-7.544-3.877-3.573 19.452-18Zm0 35.67v27.661l-4.545-4.566v-5.36h-4.813l-3.877-3.904 3.877-3.839h4.813v-5.426l4.545-4.566Zm-33.155 9.794.669 3.772-.67 3.838-4.143-3.838Z"/><path fill="#FFC72C" fill-rule="evenodd" d="M339.985 88.012v5.918l-12.266 11.568 3.866 3.632-8.2 7.667 4.934 4.64v-5.582h5.933v4.977l-15.534 14.595h-7.2l-.733-4.17h5.334l-6.4-6.053-13.334 12.308 13.334 12.307 6.4-5.985h-5.334l.735-4.237h7.2l15.534 14.594v4.977h-5.934v-5.582l-4.933 4.64 8.2 7.667-3.867 3.7 12.267 11.5v5.919l-18.6-17.42 3.867-3.699-8.134-7.667 7-6.59-5.466-5.112-8.933 8.407-18.734-17.42 18.734-17.418 8.933 8.406 5.467-5.111-7-6.591 8.133-7.667-3.867-3.632 18.6-17.486Zm0 36.25v26.5l-4-4.036v-5.851h-5.133l-3.333-3.363 3.333-3.363h5.133v-5.851l4-4.036Zm-33.466 10.223.466 2.758-.466 2.757-2.934-2.757Z"/><path fill="#383739" fill-rule="evenodd" d="M339.987 230.023v7.42l-11.497 10.762 3.877 3.61-8.222 7.62 3.61 3.275v-4.745h7.018v5.681l-15.842 14.84h-8.021l-.87-5.214h4.613l-5.013-4.68-12.567 11.431 12.567 11.498 5.013-4.68h-4.612l.869-5.28h8.021l15.842 14.84v5.681h-7.018v-4.746l-3.61 3.276 8.222 7.62-3.877 3.676 11.497 10.695v7.42l-19.452-18.115 3.877-3.676-8.155-7.62 7.02-6.551-4.68-4.278-8.957 8.289-19.653-18.048 19.653-18.048 8.957 8.355 4.68-4.345-7.02-6.55 8.155-7.62-3.877-3.61 19.452-18.182Zm0 36.03v27.94l-4.545-4.611v-5.415h-4.813l-3.877-3.943 3.877-3.878h4.813v-5.48l4.545-4.613Zm-33.155 9.893.669 3.81-.67 3.877-4.143-3.877Z"/><path fill="#FFC72C" fill-rule="evenodd" d="M339.985 231.023v5.86l-12.266 11.45 3.866 3.595-8.2 7.59 4.934 4.594v-5.526h5.933v4.926l-15.534 14.447h-7.2l-.733-4.127h5.334l-6.4-5.992-13.334 12.183 13.334 12.184 6.4-5.925h-5.334l.735-4.195h7.2l15.534 14.447v4.927h-5.934v-5.526l-4.933 4.594 8.2 7.59-3.867 3.66 12.267 11.386v5.858l-18.6-17.243 3.867-3.662-8.134-7.59 7-6.524-5.466-5.06-8.933 8.322-18.734-17.243 18.734-17.243 8.933 8.322 5.467-5.06-7-6.524 8.133-7.59-3.867-3.595 18.6-17.31Zm0 35.885v26.23l-4-3.994v-5.792h-5.133l-3.333-3.328 3.333-3.33h5.133v-5.791l4-3.995Zm-33.466 10.12.466 2.73-.466 2.729-2.934-2.73Z"/><path fill="#383739" fill-rule="evenodd" d="M339.987 372.035v7.42l-11.497 10.762 3.877 3.61-8.222 7.62 3.61 3.275v-4.746h7.018v5.682l-15.842 14.84h-8.021l-.87-5.214h4.613l-5.013-4.68-12.567 11.431 12.567 11.498 5.013-4.68h-4.612l.869-5.28h8.021l15.842 14.84v5.681h-7.018v-4.746l-3.61 3.276 8.222 7.62-3.877 3.676 11.497 10.695v7.42l-19.452-18.115 3.877-3.676-8.155-7.62 7.02-6.551-4.68-4.278-8.957 8.288-19.653-18.048 19.653-18.048 8.957 8.356 4.68-4.345-7.02-6.55 8.155-7.621-3.877-3.61 19.452-18.182Zm0 36.03v27.94l-4.545-4.611v-5.415h-4.813l-3.877-3.944 3.877-3.877h4.813v-5.481l4.545-4.612Zm-33.155 9.893.669 3.81-.67 3.877-4.143-3.877Z"/><path fill="#FFC72C" fill-rule="evenodd" d="M339.985 373.035v5.859l-12.266 11.45 3.866 3.596-8.2 7.59 4.934 4.593v-5.525h5.933v4.926l-15.534 14.447h-7.2l-.733-4.127h5.334l-6.4-5.992-13.334 12.183 13.334 12.183 6.4-5.925h-5.334l.735-4.194h7.2l15.534 14.447v4.926h-5.934v-5.525l-4.933 4.594 8.2 7.59-3.867 3.66 12.267 11.385v5.86l-18.6-17.244 3.867-3.662-8.134-7.59 7-6.524-5.466-5.06-8.933 8.322-18.734-17.243 18.734-17.243 8.933 8.322 5.467-5.06-7-6.524 8.133-7.59-3.867-3.595 18.6-17.31Zm0 35.885v26.23l-4-3.994v-5.792h-5.133l-3.333-3.329 3.333-3.329h5.133v-5.792l4-3.994Zm-33.466 10.12.466 2.729-.466 2.73-2.934-2.73Z"/><path fill="#383739" fill-rule="evenodd" d="M339.987 514.047v7.42l-11.497 10.762 3.877 3.61-8.222 7.62 3.61 3.275v-4.746h7.018v5.682l-15.842 14.84h-8.021l-.87-5.214h4.613l-5.013-4.68-12.567 11.431 12.567 11.497 5.013-4.679h-4.612l.869-5.28h8.021l15.842 14.84v5.681h-7.018v-4.746l-3.61 3.275 8.222 7.62-3.877 3.677 11.497 10.695v7.42l-19.452-18.115 3.877-3.676-8.155-7.62 7.02-6.551-4.68-4.279-8.957 8.29-19.653-18.049L309.64 546l8.957 8.356 4.68-4.345-7.02-6.55 8.155-7.621-3.877-3.61 19.452-18.182Zm0 36.03v27.94l-4.545-4.612v-5.414h-4.813l-3.877-3.944 3.877-3.877h4.813v-5.481l4.545-4.612Zm-33.155 9.893.669 3.81-.67 3.877-4.143-3.877Z"/><path fill="#FFC72C" fill-rule="evenodd" d="M339.985 515.047v5.859l-12.266 11.45 3.866 3.596-8.2 7.59 4.934 4.593v-5.525h5.933v4.926l-15.534 14.447h-7.2l-.733-4.128h5.334l-6.4-5.991-13.334 12.183 13.334 12.183 6.4-5.925h-5.334l.735-4.194h7.2l15.534 14.447v4.926h-5.934v-5.525l-4.933 4.593 8.2 7.59-3.867 3.662 12.267 11.384v5.859l-18.6-17.243 3.867-3.662-8.134-7.59 7-6.524-5.466-5.06-8.933 8.322-18.734-17.243 18.734-17.243 8.933 8.322 5.467-5.06-7-6.524 8.133-7.59-3.867-3.595 18.6-17.31Zm0 35.885v26.23l-4-3.994v-5.792h-5.133l-3.333-3.329 3.333-3.329h5.133v-5.792l4-3.995Zm-33.466 10.12.466 2.729-.466 2.73-2.934-2.73ZM152.723 668.56c1.002 4.285 4.401 7.518 5.21 11.962 1.622-4.633 3.116-8.517 2-13.586-.798-3.625-3.841-6.21-4.193-9.936-3.317 2.989-4.031 7.229-3.017 11.56Zm-.841 17.952c2.814 3.867 6.724 6.833 11.043 8.81-.851-3.387.745-5.937 2.516-8.626 2.134-3.237 3.174-6.416 1.435-10.143-.811 1.937-1.9 3.547-3.178 5.204-1.89 2.584-3.133 4.883-3.424 8.198-2.186-1.624-3.146-4.049-4.315-6.395-1.781-3.361-4.656-6.171-7.959-8.008.878 3.77 1.554 7.757 3.882 10.96Zm15.779 11.525c-.602 2.148-1.12 4.277-1.004 6.521-1.859-2.007-4.328-3.519-6.53-5.136-3-2.432-6.496-4.147-8.948-7.243.366 4.557 2.312 8.272 6.005 11.045 3.905 2.929 8.615 4.504 12.461 7.58-.576-4.144.943-7.464 2.238-11.274 1.079-3.64.035-7.336-2.428-10.11.037 3.075-.931 5.716-1.794 8.617Zm8.763 14c.809 3.143 3.056 5.701 4.591 8.506-4.138-1.287-7.789-3.537-11.53-5.654-4.456-2.431-9.294-3.98-13.327-7.191 2.007 7.45 6.982 11.769 14.26 13.971 4.977 1.507 9.171.755 15.209 3.201-.692-4.097-1.912-8.52-3.845-12.215-1.5-2.672-3.164-5.307-4.09-8.251-1.342 2.418-1.977 4.877-1.268 7.633Zm15.226 11.399a19.1 19.1 0 0 0 5.639 6.13c-5.875.375-10.602-3.357-16.329-3.519-3.538-.099-6.896 1.001-10.503.671 4.281 2.896 8.763 5.424 13.975 6.1 6.775.878 13.024-.831 20.498-.162-3.493-2.471-5.241-5.779-7.418-9.335-2.835-4.442-5.511-7.608-11.025-8.322 2.213 2.494 3.502 5.583 5.163 8.437Zm20.863 9.774c-10.349 1.763-20.266 4.046-30.835 4.15 11.831 4.135 22.978 4.883 34.712.614 6.341-2.307 11.203-3.542 15.992-3.198 6.999.504 15.505 3.272 24.918 13.224l3.7-2.968c-13.492-12.05-31.144-14.779-48.486-11.823Z"/><path fill="#383739" fill-rule="evenodd" d="m151.877 345.624-1.876 2.73 3.362 2.646-3.363 2.646 1.876 2.73 3.907.467 3.784-3.008L169 360v-5.12l-5.937-3.88 5.937-3.88V342l-9.433 6.165-3.784-3.007ZM151.877 327.624l-1.876 2.73 3.362 2.646-3.363 2.646 1.876 2.73 3.907.466 3.784-3.008L169 342v-5.12l-5.937-3.88 5.937-3.88V324l-9.433 6.165-3.784-3.007Z"/><path fill="#383739" fill-rule="evenodd" d="m151.877 373.376-1.876-2.73 3.362-2.646-3.363-2.646 1.876-2.73 3.907-.466 3.784 3.007L169 359v5.12l-5.937 3.88 5.937 3.88V377l-9.433-6.165-3.784 3.008ZM324.124 345.624l1.876 2.73-3.363 2.646 3.363 2.646-1.876 2.73-3.906.467-3.784-3.008L307 360v-5.12l5.938-3.88-5.938-3.88V342l9.434 6.165 3.784-3.007ZM324.124 327.624l1.876 2.73-3.363 2.646 3.363 2.646-1.876 2.73-3.906.466-3.784-3.008L307 342v-5.12l5.938-3.88-5.938-3.88V324l9.434 6.165 3.784-3.007Z"/><path fill="#383739" fill-rule="evenodd" d="m324.124 373.376 1.876-2.73-3.363-2.646 3.363-2.646-1.876-2.73-3.906-.466-3.784 3.007L307 359v5.12l5.938 3.88-5.938 3.88V377l9.434-6.165 3.784 3.008ZM286 297v7.629h5.044V308H296v-6.139h-4.42V297ZM301 309v6.935h5.543V319H312v-5.581h-4.861V309ZM191 297v7.629h-5.55V308H180v-6.139h4.861V297ZM286 404v-6.935h5.044V394H296v5.58h-4.42V404ZM191 404v-6.935h-5.55V394H180v5.58h4.861V404ZM301 393v-7.628h5.543V382H312v6.138h-4.861V393ZM175 309v6.935h-5.545V319H164v-5.581h4.861V309ZM175 393v-7.628h-5.545V382H164v6.138h4.861V393ZM258 296.795 253.967 293l-3.963 3.557 3.454 3.249L249 304h6.619l2.381-2.241 2.382 2.241H267l-4.458-4.194 3.453-3.249-3.962-3.557c-1.346 1.263-2.689 2.529-4.033 3.795ZM238 296.795c-.336-.318-4.033-3.795-4.033-3.795l-3.963 3.557 3.454 3.249L229 304h6.618l2.382-2.241 2.382 2.241H247l-4.458-4.194 3.454-3.249-3.962-3.557c-1.346 1.263-2.689 2.529-4.034 3.795ZM218 296.795l4.033-3.795 3.963 3.557-3.454 3.249L227 304h-6.619L218 301.759 215.618 304H209l4.458-4.194-3.454-3.249 3.963-3.557c1.346 1.263 2.689 2.529 4.033 3.795ZM258 404.861 253.967 409l-3.963-3.881 3.454-3.544L249 397h6.619l2.381 2.445 2.382-2.445H267l-4.458 4.575 3.453 3.544-3.962 3.881c-1.346-1.378-2.689-2.759-4.033-4.139ZM238 404.861 233.967 409l-3.963-3.881 3.454-3.544L229 397h6.618l2.382 2.445 2.382-2.445H247l-4.458 4.575 3.454 3.544-3.962 3.881c-1.346-1.378-2.689-2.759-4.034-4.139ZM218 404.861l4.033 4.139 3.963-3.881-3.454-3.544L227 397h-6.619L218 399.445 215.618 397H209l4.458 4.575-3.454 3.544 3.963 3.881c1.346-1.378 2.689-2.759 4.033-4.139Z"/><path fill="#00843D" fill-rule="evenodd" d="M169 355.171V359l-9.063-5.83-3.96 3.1-3.51-.412-1.467-2.103 3.556-2.755-3.556-2.754 1.468-2.103 3.509-.412 3.96 3.099L169 343v3.83l-6.483 4.17ZM169 337.17V341l-9.063-5.83-3.96 3.099-3.51-.412-1.467-2.103 3.556-2.754-3.556-2.754 1.468-2.103 3.509-.413 3.96 3.1L169 325v3.83l-6.483 4.17ZM169 363.83V360l-9.063 5.83-3.96-3.1-3.51.413-1.467 2.102 3.556 2.755-3.556 2.754 1.468 2.103 3.509.412 3.96-3.099L169 376v-3.829L162.517 368ZM307 355.171V359l9.567-5.83 4.18 3.1 3.704-.412 1.549-2.103-3.754-2.755 3.754-2.754-1.549-2.103-3.704-.412-4.18 3.099L307 343v3.83l6.843 4.17ZM307 337.17V341l9.567-5.83 4.18 3.099 3.704-.412 1.549-2.103-3.754-2.754 3.754-2.754-1.549-2.103-3.704-.413-4.18 3.1L307 325v3.83l6.843 4.17ZM307 363.83V360l9.567 5.83 4.18-3.1 3.704.413 1.549 2.102-3.754 2.755 3.754 2.754-1.549 2.103-3.704.412-4.18-3.099L307 376v-3.829l6.843-4.171ZM291.082 297v4.919H296V307h-4.385v-3.411H286V297ZM307.082 309v4.918H312V319h-4.385v-3.411H302V309ZM184.919 297v4.919H180V307h4.385v-3.411H190V297ZM291.082 404v-4.919H296V394h-4.385v3.411H286V404ZM184.919 404v-4.919H180V394h4.385v3.411H190V404ZM307.082 392v-4.427H312V383h-4.385v3.07H302V392ZM169.427 309v4.918H165V319h3.947v-3.411H174V309ZM169.427 392v-4.427H165V383h3.947v3.07H174V392ZM253.795 294l4.205 3.89 4.206-3.89 3.31 2.921-3.585 3.315L266 304h-5.297L258 301.499 255.297 304H250l4.069-3.764-3.585-3.315c.36-.317 2.985-2.635 3.311-2.921ZM233.795 294l4.205 3.89 4.206-3.89 3.309 2.921-3.584 3.315L246 304h-5.297L238 301.499 235.297 304H230l4.069-3.764-3.584-3.315 3.31-2.921ZM222.206 294 218 297.89l-4.205-3.89c-.326.286-2.951 2.604-3.311 2.921l3.585 3.315L210 304h5.297l2.703-2.501 2.703 2.501H226l-4.069-3.764 3.585-3.315-3.31-2.921ZM253.795 408l4.205-3.891 4.206 3.891c.325-.287 2.95-2.605 3.31-2.921l-3.585-3.315L266 398h-5.297L258 400.5l-2.703-2.5H250l4.069 3.764-3.585 3.315c.36.316 2.985 2.634 3.311 2.921ZM233.795 408l4.205-3.891 4.206 3.891 3.309-2.921-3.584-3.315L246 398h-5.297L238 400.5l-2.703-2.5H230l4.069 3.764-3.584 3.315 3.31 2.921ZM222.206 408 218 404.109 213.795 408c-.326-.287-2.951-2.605-3.311-2.921l3.585-3.315L210 398h5.297l2.703 2.5 2.703-2.5H226l-4.069 3.764 3.585 3.315c-.36.316-2.985 2.634-3.31 2.921Z"/><path fill="#383739" fill-rule="evenodd" d="M184.755 386.349V398h106.491v-11.651H307v-70.698h-15.754V304H184.755v11.651H169v70.698Z"/><path fill="#FFC72C" fill-rule="evenodd" d="M184.884 304.001v11.642H169v69.714h15.884V397h106.23v-11.643H307v-69.714h-15.886V304h-106.23Zm6.837 4.483h92.558v11.24l3.82 2.811h14.41v55.999h-14.476l-3.754 2.743v11.306h-92.558v-11.24l-3.821-2.809h-14.477v-55.999h14.41l3.888-2.811v-11.24Z"/><path fill="#D22630" fill-rule="evenodd" d="M192.238 309v10.309L206.185 309Zm77.509 0 13.947 10.309V309ZM174 323.058v9.638l13.142-9.638h-13.141Zm114.792 0L302 332.763v-9.705ZM302 368.237l-13.208 9.774H302Zm-128 .067v9.707h13.142Zm18.238 13.455V392h13.879Zm91.455 0L269.816 392h13.877Z"/><path fill="#00843D" fill-rule="evenodd" d="M268.856 309 302 333.437v34.125c-.218.162-33.001 24.333-33.144 24.438h-61.713c-.142-.105-32.925-24.276-33.143-24.438v-34.125L207.143 309Z"/><path fill="#383739" fill-rule="evenodd" d="M181.816 372.01 178 367.591l3.582-4.148-3.582-4.148 3.582-4.147L178 351l3.582-4.148-3.582-4.148 3.582-4.148-3.582-4.147 3.816-4.418h112.368l3.816 4.418-3.582 4.147 3.582 4.148-3.582 4.148L298 351l-3.582 4.148 3.582 4.147-3.582 4.148 3.582 4.148-3.816 4.419Zm77.242-57.203L254.629 311l-4.158 3.574-4.157-3.574-4.157 3.574L238 311l-4.158 3.574-4.157-3.574-4.157 3.574-4.157-3.574-4.429 3.807v72.385l4.429 3.808 4.157-3.574 4.157 3.573 4.157-3.574 4.158 3.574 4.157-3.574 4.157 3.574 4.157-3.573 4.158 3.574 4.429-3.808Z"/><path fill="#FFC72C" fill-rule="evenodd" d="M250 315.316 246.5 312l-3.5 3.316v71.368l3.5 3.316 3.5-3.316ZM234 315.316 230 312l-4 3.316v71.368l4 3.316 4-3.316Z"/><path fill="#FFC72C" fill-rule="evenodd" d="M182.331 371 179 367l3.331-4h111.338l3.331 4-3.331 4ZM293.668 347l3.332 4-3.332 4H182.332L179 351l3.332-4ZM293.669 338l3.331-4-3.331-4H182.331L179 334l3.331 4Z"/><path fill="#D22630" fill-rule="evenodd" d="M258 315.316 254.5 312l-3.5 3.316v71.368l3.5 3.316 3.499-3.315ZM225 315.316 221.5 312l-3.5 3.316v71.368l3.5 3.316 3.5-3.316Z"/><path fill="#D22630" fill-rule="evenodd" d="M182.332 363 179 359l3.332-4h111.336l3.332 4-3.332 4ZM182.332 346 179 342.5l3.332-3.5h111.336l3.332 3.5-3.332 3.5Z"/><path fill="#D22630" fill-rule="evenodd" d="M242 386.684 238 390l-4-3.316v-71.368l4-3.316 4 3.316Z"/><path fill="#383739" fill-rule="evenodd" d="M275.191 316H200.54v5.966H191v57.069h9.54V385h74.92v-5.965H285v-57.069h-9.54V316Z"/><path fill="#D22630" fill-rule="evenodd" d="M200.682 317v5.964H191v56.074h9.682V385h7.935l-15.801-13.197v-41.606L208.617 317h-7.935Zm66.769 0 15.733 13.197v41.606L267.451 385h7.933v-5.962H285v-56.074h-9.616V317h-7.933Z"/><path fill="#00843D" fill-rule="evenodd" d="M209.904 317 194 330.466v41.068L209.904 385h56.259L282 371.534v-41.068c-.189-.159-15.689-13.341-15.837-13.466Zm.795 2.278h54.602l14.446 12.26v38.924l-14.446 12.193h-54.602l-14.38-12.193v-38.924Z"/><path fill="#00843D" fill-rule="evenodd" d="m224.932 371 2.32 1.062.427 2.871-2.921 2.722L229 382h-4.082L222 379.024 219.082 382H215l4.243-4.345-2.921-2.722.427-2.871 2.319-1.062 2.932 2.484.159-.134ZM241.642 371l2.484 1.062.458 2.871-3.129 2.722L246 382h-4.373l-3.127-2.976-3.126 2.976H231l4.545-4.345-3.128-2.722.458-2.871 2.484-1.062 3.141 2.484.17-.134ZM251.359 371l-2.485 1.062-.458 2.871 3.129 2.722L247 382h4.373l3.127-2.976 3.127 2.976H262l-4.545-4.345 3.129-2.722-.458-2.871-2.485-1.062-3.141 2.484-.171-.134ZM224.932 331l2.32-1.062.427-2.87-2.921-2.722L229 320h-4.082L222 322.976 219.082 320H215l4.243 4.346-2.921 2.721.427 2.871 2.319 1.062 2.932-2.483.159.134ZM241.642 331l2.484-1.062.458-2.87-3.129-2.722L246 320h-4.373l-3.127 2.976-3.126-2.976H231l4.545 4.346-3.128 2.721.458 2.871 2.484 1.062 3.141-2.483.17.134ZM251.359 331l-2.485-1.062-.458-2.87 3.129-2.722L247 320h4.373l3.127 2.976 3.127-2.976H262l-4.545 4.346 3.129 2.721-.458 2.871-2.485 1.062-3.141-2.483-.171.134ZM280 335.43l-2.593 2.07 2.593 2.069V343l-3.988-3.168-2.862 2.5-3.069-.372c-.114-.202-.921-1.636-1.081-1.923l2.641-2.537-2.641-2.538c.16-.287.967-1.721 1.081-1.923l3.069-.372 2.862 2.5L280 332ZM280 348.43l-2.593 2.07 2.593 2.068V356l-3.988-3.168-2.862 2.5c-.23-.028-2.813-.342-3.069-.372L269 353.037l2.641-2.537-2.641-2.539 1.081-1.923 3.069-.371 2.862 2.5L280 345ZM280 366.57l-2.593-2.07 2.593-2.069V359l-3.988 3.168-2.862-2.5-3.069.371-1.081 1.923c.267.258 2.641 2.538 2.641 2.538L269 367.038l1.081 1.923 3.069.371 2.862-2.499L280 370ZM197 335.43l2.357 2.07-2.357 2.069V343l3.625-3.168 2.602 2.5 2.79-.372.983-1.923-2.401-2.537 2.401-2.538-.983-1.923-2.79-.372-2.602 2.5L197 332ZM197 348.43l2.357 2.07-2.357 2.068V356l3.625-3.168 2.602 2.5 2.79-.372.983-1.923-2.401-2.537 2.401-2.539-.983-1.923-2.79-.371-2.602 2.5L197 345ZM197 366.57l2.357-2.07-2.357-2.069V359l3.625 3.168 2.602-2.5 2.79.371.983 1.923-2.401 2.538 2.401 2.538-.983 1.923a2829 2829 0 0 1-2.79.371l-2.602-2.499L197 370Z"/><path fill="#D22630" fill-rule="evenodd" d="m211.168 320.001-13.967 11.666c1.192.986 2.346 2.018 3.541 3 .303-.273 2.607-2.334 2.607-2.334l3.408.467 1.336 2.467-2.405 2.4c.327.324 2.405 2.4 2.405 2.4l-1.336 2.466-3.408.4s-2.304-1.993-2.607-2.266L197 343.8v1.067c1.259 1.039 2.479 2.095 3.742 3.133.303-.273 2.607-2.267 2.607-2.267l3.408.4 1.336 2.467-2.405 2.4c.327.324 2.405 2.4 2.405 2.4l-1.336 2.533-3.408.4s-2.304-2.06-2.607-2.333L197 357.133v1.134l3.742 3.133c.303-.273 2.607-2.333 2.607-2.333l3.408.466 1.336 2.467-2.405 2.4 2.405 2.4-1.336 2.467-3.408.466s-2.304-2.06-2.607-2.333c-1.191.978-2.353 1.956-3.541 2.933.59.495 13.82 11.544 13.967 11.667h3.074l4.477-4.333-2.874-2.534.535-3.466 3.007-1.267 3.074 2.4 3.008-2.4 3.007 1.267.601 3.466-2.94 2.534 4.344 4.133 4.344-4.133-2.941-2.534.535-3.466 3.074-1.267 3.007 2.4 3.074-2.4 3.007 1.267.535 3.466-2.874 2.534 4.277 4.2 4.344-4.2-2.873-2.534.534-3.466 3.074-1.267 3.008 2.4 3.007-2.4 3.074 1.267.534 3.466-2.873 2.534 4.477 4.333h3.008c.146-.123 13.376-11.172 13.967-11.667-1.191-.978-2.35-1.952-3.542-2.933-.303.273-2.54 2.333-2.54 2.333l-3.408-.466-1.403-2.467 2.406-2.4-2.406-2.4 1.403-2.467 3.408-.466s2.237 2.06 2.54 2.333l3.742-3.133v-1.134L276.258 354c-.303.273-2.54 2.333-2.54 2.333l-3.408-.4-1.403-2.533s2.079-2.076 2.406-2.4l-2.406-2.4 1.403-2.467 3.408-.4s2.237 1.994 2.54 2.267c1.255-1.031 2.49-2.039 3.742-3.067v-1.2l-3.742-3.066c-.303.273-2.54 2.266-2.54 2.266l-3.408-.4-1.403-2.466s2.079-2.076 2.406-2.4l-2.406-2.4 1.403-2.467 3.408-.467s2.237 2.061 2.54 2.334c1.197-.985 2.411-1.949 3.608-2.934L265.833 320h-3.008l-4.477 4.333 2.873 2.534-.534 3.466-3.074 1.334-3.007-2.4-3.008 2.4-3.074-1.334-.534-3.466 2.873-2.534-4.277-4.133-4.344 4.133 2.874 2.534-.535 3.466-3.007 1.334-3.074-2.4-3.007 2.4-3.074-1.334-.535-3.466 2.94-2.534-4.343-4.133-4.344 4.133 2.94 2.534-.601 3.466-3.007 1.334-3.008-2.4-3.074 2.4-3.007-1.334-.535-3.466 2.874-2.534-4.544-4.333ZM197 349.667v2.733l1.604-1.4Z"/><path fill="#FFF" fill-rule="evenodd" d="m222.03 380-2.03 2h4ZM237.97 380l-1.97 2h4ZM253.999 380 252 382h4ZM220 320l2.028 2 1.972-2ZM236 320l1.972 2 2.028-2ZM252 320l2.499 2 2.501-2ZM280 336l-2 1.538 2 1.462ZM280 349l-2 1.5 2 1.5ZM280 363l-2 1 2 1ZM197 336v3l1-1.464ZM197 349v3l1-1.536ZM197 363v2l1-.976Z"/><path fill="#383739" fill-rule="evenodd" d="M252.296 346.024v-4.782h-4.855V336H229.56v5.242h-4.855v4.782H218v8.952h6.705v4.781h4.855V365h17.881v-5.243h4.855v-4.781H259v-8.952Z"/><path fill="#FFC72C" fill-rule="evenodd" d="M238 337v5.132l-7.808 4.136V350H218v-3.481h6.811v-4.54h4.932V337ZM238 365v-5.526l7.808-4.455V351H258v3.748h-6.811v4.89h-4.932V365Z"/><path fill="#FFF" fill-rule="evenodd" d="M245.808 350v-3.732L238 342.132V337h8.257v4.979h4.932v4.54H258V350ZM218 351h12.192v4.019l7.808 4.455V365h-8.257v-5.362h-4.932v-4.89H218Z"/><path fill="#D22630" fill-rule="evenodd" d="M231 351v3.789l7 4.211v-8Z"/><path fill="#00843D" fill-rule="evenodd" d="m238 343-7 3.684V350h7Z"/><path fill="#D22630" fill-rule="evenodd" d="M245 350v-3.316L238 343v7Z"/><path fill="#00843D" fill-rule="evenodd" d="m238 359 7-4.211V351h-7Z"/><path fill="#383739" fill-rule="evenodd" d="M161 603.511 213.803 575h48.394L315 603.511v46.979L262.197 679h-48.394L161 650.49Z"/><path fill="#00843D" fill-rule="evenodd" d="M213.785 576 161 604.322v46.356L213.785 679h48.429L315 650.678v-46.356L262.214 576Zm.936 3.807h46.556l49.972 26.785v41.882l-49.972 26.786h-46.584l-49.97-26.786v-41.882Z"/><path fill="#FFC72C" fill-rule="evenodd" d="M238.77 627.228V675h22.819L311 648.237v-20.465h-72.77V580h-22.818L166 606.763v20.464Z"/><path fill="#FFF" fill-rule="evenodd" d="M238.23 627.228V675h-22.818L166 648.237v-20.465h72.77V580h22.819L311 606.763v20.464Z"/><path fill="#383739" fill-rule="evenodd" d="M242.43 672v-13.708l-4.43 2.812-4.43-2.812V672h-13.779l9.298-6.822v-9.731l-14.18-9.001H205v-37.892h9.909l14.18-9.001v-9.731L219.791 583h13.779v13.709l4.43-2.813 4.43 2.813V583h13.78l-9.299 6.822v9.731l14.181 9.001H271v37.892h-9.908l-14.181 9.001v9.731L256.21 672Z"/><path fill="#FFC72C" fill-rule="evenodd" d="M243.477 583v14.166l-4.743-3.007v4.009l21.71 13.83h7.149v14.703H271v-18.175h-9.553l-14.562-9.222v-10.291L255.1 583h-11.623ZM206 627.235v18.175h9.486l14.631 9.286v10.291L221.899 671h11.625v-14.165l4.675 3.008v-4.144l-21.71-13.697h-7.082v-14.767H206Z"/><path fill="#FFF" fill-rule="evenodd" d="m221.899 583 8.217 6.013v10.291l-14.63 9.222H206v18.175h3.407v-14.703h7.082l21.71-13.763v-4.076l-4.675 3.007V583h-11.625Zm45.694 44.235v14.767h-7.149l-21.711 13.697v4.144l4.744-3.009V671H255.1l-8.215-6.013v-10.291l14.562-9.286H271v-18.175h-3.407Z"/><path fill="#D22630" fill-rule="evenodd" d="M210 642.053h6.718L238.5 656l21.782-13.947H267v-29.106h-6.718L238.5 599l-21.782 13.947H210Z"/><path fill="#383739" fill-rule="evenodd" d="M253.264 634.233h4.708v-2.162h-3.542v-3.93H262v10.022h-7.257l.001 6.837h-14.938v-9.824h6.574v3.93h-2.546v1.964h6.882v-3.756l-27.98-16.547h-4.708v2.161h3.542v3.93H214v-10.021h7.257V610h14.937v9.824h-6.574v-3.93h2.546v-1.964h-6.881v3.756Zm-2.548-16.547v-3.756h-6.882v1.964h2.546v3.93h-6.574V610h14.938v6.837H262v10.021h-7.57v-3.93h3.543v-2.161h-4.709l-27.979 16.547v3.756h6.881v-1.965h-2.546v-3.929h6.574V645h-14.937v-6.838H214v-10.021h7.57v3.93h-3.542v2.162h4.708ZM300 630v15h-6.316v-5.297h-6.368V645H281v-15h6.316v5.297h6.368V630ZM277 649v15h-6.316v-5.297h-6.368V664H258v-15h6.316v5.298h6.368V649ZM300 625v-15h-6.316v5.297h-6.368V610H281v15h6.316v-5.297h6.368V625ZM176 630v15h6.316v-5.297h6.368V645H195v-15h-6.316v5.297h-6.368V630ZM176 625v-15h6.316v5.297h6.368V610H195v15h-6.316v-5.297h-6.368V625ZM277 605v-15h-6.316v5.297h-6.368V590H258v15h6.316v-5.297h6.368V605ZM199 649v15h6.316v-5.297h6.368V664H218v-15h-6.316v5.298h-6.368V649ZM199 605v-15h6.316v5.297h6.368V590H218v15h-6.316v-5.297h-6.368V605ZM281 595v11h21ZM195 660v-11h-21ZM195 595v11h-21ZM281 660v-11h21Z"/><path fill="#D22630" fill-rule="evenodd" d="M293.741 638.667V644H299v-14h-5.259v5.333h-7.483V630H281v14h5.258v-5.333ZM271.742 658.667V664H277v-14h-5.258v5.333h-7.484V650H259v14h5.258v-5.333ZM293.741 615.952V611H299v13h-5.259v-4.953h-7.483V624H281v-13h5.258v4.952ZM182.258 638.667V644H177v-14h5.258v5.333h7.484V630H195v14h-5.258v-5.333ZM182.258 615.952V611H177v13h5.258v-4.953h7.484V624H195v-13h-5.258v4.952ZM271.742 596.333V591H277v14h-5.258v-5.333h-7.484V605H259v-14h5.258v5.333ZM204.258 658.667V664H199v-14h5.258v5.333h7.483V650H217v14h-5.259v-5.333ZM204.258 596.333V591H199v14h5.258v-5.333h7.483V605H217v-14h-5.259v5.333Z"/><path fill="#FFC72C" fill-rule="evenodd" d="M281.71 596v9.8H300Zm-105.709 53.2 18.288 9.8v-9.8H176Z"/><path fill="#FFF" fill-rule="evenodd" d="M194.288 596 176 605.8h18.288Zm87.422 53.2v9.8l18.29-9.8Z"/><path fill="#FFC72C" fill-rule="evenodd" d="M323.277 668.56c-1.002 4.285-4.401 7.518-5.21 11.962-1.622-4.633-3.116-8.517-2-13.586.798-3.625 3.841-6.21 4.193-9.936 3.317 2.989 4.031 7.229 3.017 11.56Zm.841 17.952c-2.813 3.867-6.724 6.833-11.043 8.81.851-3.387-.745-5.937-2.516-8.626-2.134-3.237-3.174-6.416-1.435-10.143.811 1.937 1.9 3.547 3.178 5.204 1.89 2.584 3.133 4.883 3.424 8.198 2.186-1.624 3.146-4.049 4.315-6.395 1.781-3.361 4.656-6.171 7.959-8.008-.878 3.77-1.553 7.757-3.882 10.96Zm-15.779 11.525c.602 2.148 1.12 4.277 1.004 6.521 1.859-2.007 4.328-3.519 6.53-5.136 3-2.432 6.496-4.147 8.948-7.243-.366 4.557-2.312 8.272-6.005 11.045-3.905 2.929-8.614 4.504-12.461 7.58.576-4.144-.943-7.464-2.238-11.274-1.079-3.64-.035-7.336 2.428-10.11-.037 3.075.931 5.716 1.794 8.617Zm-8.763 14c-.809 3.143-3.056 5.701-4.591 8.506 4.138-1.287 7.789-3.537 11.53-5.654 4.456-2.431 9.294-3.98 13.327-7.191-2.007 7.45-6.982 11.769-14.26 13.971-4.977 1.507-9.171.755-15.209 3.201.692-4.097 1.913-8.52 3.845-12.215 1.5-2.672 3.164-5.307 4.09-8.251 1.342 2.418 1.977 4.877 1.268 7.633Zm-15.226 11.399a19.109 19.109 0 0 1-5.638 6.13c5.874.375 10.601-3.357 16.328-3.519 3.538-.099 6.896 1.001 10.503.671-4.281 2.896-8.763 5.424-13.975 6.1-6.775.878-13.024-.831-20.498-.162 3.493-2.471 5.241-5.779 7.418-9.335 2.835-4.442 5.511-7.608 11.026-8.322-2.214 2.494-3.503 5.583-5.164 8.437Zm-20.863 9.774c10.349 1.763 20.266 4.046 30.835 4.15-11.831 4.135-22.978 4.883-34.712.614-6.341-2.307-11.203-3.542-15.992-3.198-6.999.504-15.505 3.272-24.918 13.224l-3.7-2.968c13.492-12.05 31.144-14.779 48.486-11.823Z"/><path fill="#383739" fill-rule="evenodd" d="m161.379 88.64-16.378-10.053V54.42l16.378-10.054V31.58l15.477-9.33h12.365l23.526-13.246h50.508l23.527 13.247h12.365l15.477 9.33v12.786l16.377 10.054v24.166L314.624 88.64v12.787l-15.476 9.33h-12.365l-23.528 13.247h-50.508l-23.526-13.247h-12.365l-15.476-9.33Z"/><path fill="#00843D" fill-rule="evenodd" d="M212.965 10.004 189.558 23.14h-12.236l-15.028 9.025v12.673l-16.293 9.953v23.356l16.293 9.953v12.741l14.962 9.024h12.302l23.407 13.138h50.006l23.408-13.138h12.302l15.028-9.024v-12.74l16.292-9.954V54.792l-16.292-9.953V32.166l-15.028-9.025h-12.302l-23.408-13.137h-50.006Zm1.397 4.844h47.28l23.407 13.137h12.236l11.371 6.835v12.673l16.359 9.953v18.048l-16.359 9.953V98.12l-11.371 6.835h-12.236l-23.407 13.137h-47.28l-23.408-13.137h-12.235l-11.438-6.835V85.447l-16.293-9.953V57.446l16.293-9.953V34.82l11.438-6.835h12.235Z"/><path fill="#FFC72C" fill-rule="evenodd" d="M237.73 66.773v-51.77h-23.379l-23.559 13.242H178.51l-11.111 6.686v12.75L151.001 57.73v8.503h87.272v51.771h23.379l23.558-13.242h12.282l11.11-6.686v-12.75l16.399-10.05v-8.502Z"/><path fill="#FFF" fill-rule="evenodd" d="m151.002 66.774-.001 8.503 16.4 10.049v12.75l11.109 6.686h12.283l23.558 13.242h23.379V66.232l87.271.001V57.73l-16.399-10.048v-12.75l-11.11-6.687H285.21l-23.558-13.241h-23.379v51.769Z"/><path fill="#383739" fill-rule="evenodd" d="m187.101 32.832-4.001-3.83-3.964 2.51 4.007 3.839-5.145 3.275h11.228l9.677 9.376 3.095-3.358-9.408-9.117v-6.189Z"/><path fill="#383739" fill-rule="evenodd" d="m206.102 31.63-4.001-3.628-3.964 2.378 4.008 3.636-5.146 3.103h11.229l9.676 8.883 3.095-3.182-9.408-8.637V28.32ZM185.479 43.833l-4.167-3.83-4.129 2.51 4.174 3.839-5.359 3.274h11.696l10.079 9.377 3.225-3.359-9.801-9.116v-6.189Z"/><path fill="#383739" fill-rule="evenodd" d="M238 15h-10.312l-5.396 5.13h-10.519L204 24.11l1.813 4.357 6.932-3.591h3.036L226.409 37 238 30.038Z"/><path fill="#D22630" fill-rule="evenodd" d="m183.098 30.002 3.534 3.337-2.961 1.859-3.54-3.343Zm8.869.617v5.27l9.031 8.632-2.319 2.48-9.282-8.87h-9.399l11.969-7.512ZM202.099 28.002l3.535 3.534-2.962 1.967-3.539-3.54Zm8.869.653v5.581l9.031 9.139-2.318 2.627-9.283-9.392h-9.399l11.969-7.955Z"/><path fill="#D22630" fill-rule="evenodd" d="m181.246 41.002 3.702 3.338-3.102 1.859-3.708-3.343Zm9.29.618v5.27l9.462 8.632-2.429 2.48-9.724-8.87h-9.847l12.538-7.512ZM238 15h-9.809l-5.39 5.188h-10.596L205 23.922l1.394 3.392 6.513-3.415h3.418l10.479 12.102L238 29.193Z"/><path fill="#383739" fill-rule="evenodd" d="m187.1 100.162-4 3.83-3.964-2.51 4.007-3.839-5.145-3.275h11.228l9.677-9.376 3.095 3.358-9.408 9.117v6.189Z"/><path fill="#383739" fill-rule="evenodd" d="m206.102 101.364-4 3.628-3.965-2.378 4.008-3.636-5.146-3.103h11.229l9.676-8.883 3.095 3.182-9.408 8.637v5.863ZM185.48 89.163l-4.168 3.83-4.129-2.51 4.174-3.838-5.36-3.275h11.697l10.08-9.376 3.224 3.358-9.8 9.117v6.188Z"/><path fill="#383739" fill-rule="evenodd" d="M238 117.99h-10.312l-5.396-5.13h-10.519L204 108.882l1.813-4.356 6.932 3.59h3.036l10.628-12.124L238 102.953Z"/><path fill="#D22630" fill-rule="evenodd" d="m183.098 102.992 3.534-3.337-2.961-1.859-3.54 3.343Zm8.869-.617v-5.27l9.031-8.632-2.319-2.48-9.282 8.87h-9.399l11.969 7.512ZM202.099 104.992l3.535-3.534-2.962-1.968-3.539 3.54Zm8.869-.654v-5.58l9.032-9.14-2.32-2.626-9.282 9.392h-9.399l11.969 7.954Z"/><path fill="#D22630" fill-rule="evenodd" d="m181.246 91.994 3.702-3.338-3.103-1.858-3.707 3.343Zm9.29-.617v-5.271l9.462-8.631-2.429-2.481-9.724 8.87h-9.847l12.538 7.513ZM238 117.99h-9.809l-5.39-5.187h-10.596L205 109.069l1.394-3.392 6.513 3.415h3.418l10.479-12.102L238 103.8Z"/><path fill="#383739" fill-rule="evenodd" d="m180.487 49.838-4.903-1.834-.117.081-6.331 4.399v1.182l-10.139 12.838 10.139 12.837v1.184l6.448 4.479 4.903-1.835-2.992-1.983V77.41l1.189-1.424h5.313V57.02h-5.313l-1.189-1.425v-3.774Z"/><path fill="#D22630" fill-rule="evenodd" d="m169.667 53.067 5.788-4.063 3.52 1.33-2.271 1.522v4.172l1.431 1.732h4.862v17.488h-4.862l-1.431 1.732v4.171l2.271 1.522-3.52 1.33-5.788-4.063v-1.064l-9.67-12.373 9.67-12.373Z"/><path fill="#383739" fill-rule="evenodd" d="m288.89 32.832 4-3.83 3.964 2.51-4.007 3.839 5.145 3.275h-11.228l-9.677 9.376-3.095-3.358 9.408-9.117v-6.189Z"/><path fill="#383739" fill-rule="evenodd" d="m269.892 31.63 4-3.628 3.965 2.378-4.008 3.636 5.146 3.103h-11.229l-9.676 8.883-3.095-3.182 9.408-8.637V28.32ZM290.89 43.833l4-3.83 3.964 2.51-4.007 3.839 5.145 3.274h-11.229l-9.676 9.377-3.095-3.359 9.408-9.116v-6.189Z"/><path fill="#383739" fill-rule="evenodd" d="M237.996 15h10.313l5.395 5.13h10.52l7.772 3.98-1.812 4.357-6.932-3.591h-3.036L249.588 37l-11.592-6.963Z"/><path fill="#D22630" fill-rule="evenodd" d="m292.892 30.002-3.534 3.337 2.961 1.859 3.54-3.343Zm-8.868.617v5.27l-9.032 8.632 2.32 2.48 9.282-8.87h9.398l-11.968-7.512ZM273.895 28.002l-3.534 3.534 2.961 1.967 3.539-3.54Zm-8.869.653v5.581l-9.031 9.139 2.319 2.627 9.282-9.392h9.399l-11.969-7.955Z"/><path fill="#D22630" fill-rule="evenodd" d="m294.744 41.002-3.703 3.338 3.103 1.859 3.707-3.343Zm-9.291.618v5.27l-9.462 8.632 2.43 2.48 9.724-8.87h9.847l-12.539-7.512ZM237.996 15h9.81l5.39 5.188h10.595l7.205 3.734-1.394 3.392-6.513-3.415h-3.418l-10.478 12.102-11.197-6.808Z"/><path fill="#383739" fill-rule="evenodd" d="m288.889 100.162 4.001 3.83 3.964-2.511-4.007-3.838 5.145-3.275h-11.228l-9.677-9.376-3.095 3.358 9.408 9.117v6.189Z"/><path fill="#383739" fill-rule="evenodd" d="m269.892 101.364 4.001 3.628 3.964-2.378-4.008-3.636 5.146-3.103h-11.229l-9.676-8.883-3.095 3.182 9.408 8.637v5.863ZM290.89 89.163l4.001 3.83 3.963-2.51-4.007-3.838 5.145-3.275h-11.229l-9.676-9.376-3.095 3.358 9.408 9.117v6.188Z"/><path fill="#383739" fill-rule="evenodd" d="M237.997 117.991h10.312l5.396-5.13h10.518l7.773-3.98-1.812-4.356-6.932 3.591h-3.036L249.588 95.99l-11.592 6.964Z"/><path fill="#D22630" fill-rule="evenodd" d="m292.893 102.992-3.535-3.337 2.961-1.859 3.54 3.343Zm-8.869-.617v-5.27l-9.032-8.632 2.319-2.48 9.283 8.87h9.398l-11.968 7.512ZM273.895 104.992l-3.534-3.534 2.961-1.968 3.539 3.54Zm-8.869-.654v-5.58l-9.031-9.14 2.319-2.626 9.282 9.392h9.399l-11.969 7.954Z"/><path fill="#D22630" fill-rule="evenodd" d="m294.744 91.994-3.703-3.338 3.103-1.858 3.708 3.343Zm-9.291-.617v-5.271l-9.461-8.631 2.428-2.481 9.725 8.87h9.847l-12.539 7.513ZM237.996 117.99h9.809l5.391-5.187h10.595l7.205-3.734-1.394-3.392-6.513 3.415h-3.418L249.193 96.99l-11.197 6.809Z"/><path fill="#383739" fill-rule="evenodd" d="m295.499 49.838 4.903-1.834.117.081 6.33 4.399v1.182l10.14 12.838-10.14 12.837v1.184l-6.447 4.479-4.903-1.835 2.992-1.983V77.41l-1.189-1.424h-5.313V57.02h5.313l1.19-1.425v-3.774Z"/><path fill="#D22630" fill-rule="evenodd" d="m306.899 53.067-6.04-4.063-3.673 1.33 2.37 1.522v4.171l-1.494 1.733h-5.073v17.488h5.073l1.494 1.732v4.171l-2.37 1.522 3.673 1.33 6.04-4.063-.001-1.064 10.091-12.373-10.091-12.373Z"/><path fill="#383739" fill-rule="evenodd" d="m171.597 77.086-2.733-2.348v-1.132l-5.863-7.102 5.864-7.104v-1.13l2.732-2.35 4.909 3.965-2.833-.021 4.186 4.22h9.566l7.522-5.843V42.83h18.816l21.851-13.318V26.02l-3.342-2.212h-1.059l-3.639 2.419-.564 1.804-2.846-3.86 5.532-4.617h.885l6.243-4.55h2.354l6.243 4.55h.885l5.533 4.616-2.847 3.86-.563-1.803-3.64-2.42h-1.058l-3.342 2.213v3.493l21.851 13.319h18.815V58.24l7.523 5.843h9.566l4.186-4.22-2.833.022 4.909-3.965 2.732 2.348v1.132l5.863 7.103-5.863 7.102v1.132l-2.732 2.348-4.909-3.964 2.833.022-4.186-4.221h-9.566l-7.523 5.843v15.41H262.24l-21.851 13.319v3.493l3.342 2.212h1.058l3.64-2.419.563-1.804 2.847 3.859-5.533 4.618h-.885l-6.243 4.55h-2.354l-6.243-4.55h-.885l-5.533-4.618 2.847-3.859.564 1.804 3.639 2.419h1.058l3.343-2.212v-3.493l-21.851-13.32h-18.816V74.766l-7.523-5.843h-9.565l-4.186 4.22 2.833-.021Z"/><path fill="#FFC72C" fill-rule="evenodd" d="m238.271 110.067 2.389 1.835-2.389 1.836v-3.671Zm-7.593 3.338h.088l6.237 4.599h.728v-3.588l-3.272-2.514 3.273-2.514v-6.738l-23.356-14.402h-17.265v-14.47l-8.915-7.005H174.75l-3.379 3.84-3.379-3.84-3.991.001 5.478 6.713v1.09l2.169 1.893 3.486-2.727-2.046.016v-.681l4.559-4.67h10.019l7.868 6.182v15.295h18.408l22.211 13.696v4.12l-3.713 2.487h-1.385l-3.928-2.642-.302-.98-1.916 2.627 4.992 4.213h.776Zm-59.304-50.194 2.661 3.022h-5.323Zm66.359-43.941-2.388 1.835 2.388 1.834Zm64.236 47.505 2.661 3.022 2.661-3.022ZM245.237 19.6l-6.236-4.597h-.729v3.586l3.273 2.515-3.273 2.515v6.737l23.355 14.402h17.265v14.47l8.915 7.005h13.443l3.38-3.839 3.381 3.838h3.99l-5.477-6.712v-1.09l-2.17-1.894-3.485 2.727 2.046-.017v.683l-4.56 4.669h-10.018l-7.867-6.183V43.123h-18.409l-22.212-13.696v-4.121l3.713-2.486h1.385l3.928 2.642.303.98 1.915-2.627-4.992-4.213h-.864Z"/><path fill="#FFF" fill-rule="evenodd" d="m237.732 113.737-2.387-1.834 2.387-1.835Zm-63.698-46.963-2.661 3.022-2.661-3.023Zm71.291 46.631h-.088L239 118.004h-.728v-3.586l3.273-2.516-3.274-2.515v-6.737l23.356-14.402h17.266v-14.47l8.914-7.005h13.444l3.379 3.84 3.38-3.84 3.991.001-5.477 6.713v1.09l-2.17 1.893-3.486-2.727 2.046.016v-.681l-4.559-4.67h-10.019l-7.867 6.182v15.295H262.06l-22.212 13.696v4.12l3.713 2.487h1.385l3.928-2.642.303-.98 1.915 2.627-4.992 4.213h-.775Zm59.306-50.194-2.661 3.022h5.323ZM230.767 19.6l6.236-4.597h.729v3.586l-3.274 2.515 3.274 2.515.001 6.737-23.357 14.402h-17.264v14.47l-8.915 7.005h-13.448l-3.379-3.839-3.381 3.838h-3.988l5.479-6.712v-1.09l2.169-1.894 3.485 2.727-2.046-.017v.683l4.56 4.669h10.018l7.868-6.183V43.123h18.408l22.214-13.696v-4.121l-3.714-2.486h-1.385l-3.929 2.642-.302.98-1.915-2.627 4.992-4.213h.864Zm7.504 3.34 2.389-1.836-2.389-1.835Z"/><path fill="#00843D" fill-rule="evenodd" d="M237.733 66.774v-35.77l-23.237 14.303h-16.904v14.188l-8.591 6.74 49.271-.002v35.771l23.235-14.302h16.904V73.513l8.59-6.738Z"/><path fill="#D22630" fill-rule="evenodd" d="m189.001 66.773 8.592 6.74V87.7h16.902l23.238 14.303V66.232h49.268l-8.59-6.738V45.306h-16.904l-23.235-14.302v35.769Z"/><path fill="#383739" fill-rule="evenodd" d="m213.102 48.833-4-3.83-3.964 2.51 4.007 3.838L204 54.626h11.228l9.676 9.377L228 60.644l-9.408-9.117V45.34ZM262.901 84.174l4 3.83 3.963-2.51-4.006-3.838 5.145-3.275h-11.229l-9.676-9.376-3.095 3.358 9.408 9.117v6.188ZM213.102 84.174l-4.001 3.83-3.963-2.51 4.007-3.838L204 78.38h11.228l9.676-9.376L228 72.363l-9.409 9.117v6.188ZM262.901 48.833l4-3.83 3.963 2.51-4.006 3.838 5.145 3.275h-11.229l-9.676 9.377-3.095-3.359 9.408-9.117V45.34Z"/><path fill="#D22630" fill-rule="evenodd" d="m266.858 87.004-3.582-3.39 3.002-1.886 3.588 3.394Zm-8.99-.627v-5.351l-9.156-8.764 2.351-2.52 9.41 9.007h9.528l-12.133 7.628Zm-48.724-40.373 3.583 3.389-3.003 1.888-3.588-3.395Zm8.991.627v5.352l9.156 8.764-2.351 2.52-9.411-9.008h-9.528l12.134-7.628Z"/><path fill="#00843D" fill-rule="evenodd" d="m266.858 46.004-3.582 3.389 3.002 1.888 3.588-3.395Zm-8.99.627v5.352l-9.156 8.763 2.351 2.52 9.411-9.008h9.527l-12.133-7.627Zm-48.724 40.373 3.583-3.39-3.002-1.886-3.588 3.394Zm8.991-.627v-5.351l9.155-8.764-2.35-2.52-9.41 9.008h-9.529l12.134 7.627Z"/><path fill="#383739" fill-rule="evenodd" d="m263.001 66.504-25 16.5-25-16.5 25-16.5Z"/><path fill="#FFF" fill-rule="evenodd" d="m237.726 51.004-23.725 15.235H262l-23.724-15.235v31l23.725-15.236h-48l23.726 15.236Z"/><path fill="#383739" fill-rule="evenodd" d="M244.54 72.339v4.665h-13.076v-4.665h-8.463v-11.67h8.463v-4.665h13.076v4.665h8.461v11.67Z"/><path fill="#D22630" fill-rule="evenodd" d="M231.772 57.004v4.453h-8.771v4.785h14.726v-9.238h-5.956Zm6.503 9.238h14.726v-4.785h-8.77v-4.453h-5.956v9.238Zm-15.273.524v4.784h8.77v4.454h5.956v-9.238h-14.726Zm15.273 9.238h5.956V71.55h8.77v-4.784h-14.725v9.238Z"/><g clip-path="url(#b)"><g clip-path="url(#c)"><g clip-path="url(#d)"><path fill="#383739" d="M280.743 256.612v-7.382H300.9v-7.382h20.157v-66.702H300.9v-7.382h-20.157v-7.382h-20.157V153h-45.112v7.382h-20.157v7.382h-20.159v7.382h-20.157v66.702h20.157v7.382h20.159v7.382h20.157v7.382h45.112v-7.382Z"/><path fill="#FFC72C" d="M216.042 153.526v7.376h-20.167v7.378h-20.167v7.376h-20.167v65.656h20.167v7.378h20.167v7.375h20.167v7.377h44.004v-7.377h20.169v-7.375h20.168v-7.378h20.166v-65.656h-20.166v-7.376h-20.168v-7.378h-20.169v-7.376Zm5.342 5.365h33.321v7.377h20.168v7.377h20.169v7.376h20.166v54.925h-20.166v7.378h-20.169v7.376h-20.168v7.376h-33.32V250.7h-20.168v-7.376H181.05v-7.378h-20.167v-54.925h20.167v-7.376h20.167v-7.377h20.167Z"/><path fill="#D22630" d="M201.734 250.166v-7.383h-20.157v-7.38h-20.158V181.59h20.158v-7.382h20.157v-7.382h20.157v-7.382h32.277v7.382h20.158v7.382h20.157v7.382h20.158v53.811h-20.158v7.381h-20.157v7.383h-20.158v7.382H221.89v-7.382Z"/><path fill="#383739" d="m206.414 172.291-5.221-3.963v7.61l-5 3.191-.013-4.764-4.795 4.326-4.795-4.326-.013 4.764-5.54-3.536v7.057l-4.477 3.255-.013-4.327-5.32 3.87-5.319-3.87-.012 4.327-5.018-3.648v21.375H155v9.73h5.878v21.375l5.018-3.65.012 4.328 5.32-3.87 5.318 3.87.013-4.327 4.477 3.255v7.057l5.54-3.536.014 4.764 4.795-4.325 4.795 4.325.013-4.764 5 3.19v7.612l5.22-3.964.012 5.316 5.116-4.596 5.118 4.596.011-5.316 4.681 3.553v8.118l6.999-6.407v7.528l9.68-6.25 9.68 6.25v-7.528l6.998 6.407v-8.118l4.681-3.553.011 5.316 5.117-4.596 5.118 4.596.011-5.316 5.22 3.964v-7.612l5.001-3.19.012 4.764 4.796-4.325 4.795 4.325.013-4.764 5.541 3.536v-7.057l4.477-3.255.013 4.327 5.319-3.87 5.319 3.87.013-4.327 5.017 3.648v-21.374h5.878v-9.73h-5.878v-21.375l-5.017 3.648-.013-4.326-5.319 3.869-5.32-3.87-.011 4.327-4.478-3.255v-7.056l-5.541 3.536-.012-4.764-4.795 4.325-4.796-4.325-.013 4.764-5.001-3.192v-7.61l-5.219 3.963-.012-5.316-5.117 4.596-5.118-4.596-.011 5.317-4.68-3.555v-8.116l-6.999 6.407v-7.529l-9.68 6.25-9.68-6.25v7.529l-6.999-6.407v8.117l-4.68 3.554-.012-5.317-5.117 4.596-5.117-4.596Z"/><path fill="#00843D" d="m166.435 186.958.013-4.328 4.781 3.48.161-.118 4.621-3.362.012 4.328 5.016-3.646v50.353l-5.016-3.647-.012 4.328-4.782-3.479-4.78 3.479-.014-4.328-5.015 3.647V212.81h-5.878v-8.644h5.878v-20.855ZM206.968 168.18l4.58 4.113 4.58-4.112.011 5.194 5.218-3.962v78.156l-5.218-3.962-.01 5.194-4.58-4.113-4.58 4.113-.01-5.194-5.219 3.962v-78.156l5.218 3.962ZM269.1 168.18l-4.58 4.113-4.58-4.112-.012 5.194-5.217-3.962v78.156l5.217-3.962.011 5.194 4.58-4.113 4.58 4.113.011-5.194 5.218 3.962v-78.156l-5.218 3.962ZM309.632 186.958l-.013-4.328-4.78 3.48-4.783-3.48-.013 4.328-5.015-3.646v50.353l5.015-3.647.013 4.328 4.782-3.479 4.781 3.479.013-4.328 5.015 3.647V212.81h5.877v-8.644h-5.877v-20.855Z"/><path fill="#FFC72C" d="m187.124 175.575 4.258 3.842 4.258-3.842.013 4.537 5.538-3.535v63.83l-5.538-3.533-.013 4.536-4.258-3.841-4.258 3.841-.013-4.536-5.538 3.534v-63.831l5.538 3.535ZM228.893 168.256l-6.999-6.406v93.294l7-6.408v7.764l9.138-5.9h.001l9.14 5.9v-7.764l6.998 6.408V161.85l-6.999 6.406v-7.763l-9.139 5.901-9.14-5.9ZM288.93 175.575l-4.258 3.842-4.259-3.842-.01 4.537-5.54-3.535v63.83l5.54-3.533.01 4.536 4.26-3.841 4.257 3.841.013-4.536 5.538 3.534v-63.831l-5.538 3.535Z"/><path fill="#383739" d="M169.057 199.328c.612.62 1.344.934 2.174.934.83 0 1.562-.314 2.175-.934 1.914-1.937 1.978-5.44 1.96-7.962l-2.613 2.773-1.522-2.639-1.522 2.639-2.612-2.773c-.019 2.521.046 6.025 1.96 7.962ZM190.087 193.896l-1.613-1.617v-3.225l-3.704 3.448 6.621 6.648 6.62-6.648-3.703-3.448v3.225l-1.612 1.617v-5.712l2.855-2.462-4.16-3.588-4.16 3.588 2.856 2.462ZM210.234 187.49l-1.612-1.62v-3.223l-3.704 3.447 6.621 6.649 6.62-6.649-3.703-3.447v3.223l-1.613 1.62v-5.713l2.856-2.463-4.16-3.587-4.16 3.587 2.855 2.463Z"/><path fill="#FFF" d="m171.226 192.58 1.416 2.455 2.154-2.285c-.075 2.847-.697 5.096-1.78 6.191-.507.514-1.109.774-1.79.774-.682 0-1.284-.26-1.79-.773-1.083-1.096-1.706-3.345-1.78-6.192l2.153 2.285 1.417-2.455ZM212.314 181.526v7.272l2.693-2.704v-2.206l2.384 2.22-5.84 5.866-5.843-5.867 2.384-2.22v2.207l2.693 2.704v-7.272l-2.566-2.213 3.331-2.873 3.331 2.873Z"/><path fill="#D22630" d="M192.155 187.933v7.271l2.692-2.704v-2.206l2.385 2.22-5.842 5.867-5.842-5.867 2.385-2.22v2.206l2.693 2.704v-7.27l-2.567-2.214 3.331-2.873 3.331 2.873Z"/><path fill="#383739" d="M307.01 199.328c-.612.62-1.344.934-2.174.934-.83 0-1.562-.314-2.175-.934-1.914-1.937-1.978-5.44-1.959-7.962l2.612 2.773 1.522-2.639 1.522 2.639 2.612-2.773c.019 2.521-.046 6.025-1.96 7.962ZM285.98 193.896l1.613-1.617v-3.225l3.704 3.448-6.621 6.648-6.62-6.648 3.703-3.448v3.225l1.612 1.617v-5.712l-2.855-2.462 4.16-3.588 4.161 3.588-2.857 2.462ZM265.833 187.49l1.612-1.62v-3.223l3.704 3.447-6.621 6.649-6.62-6.649 3.703-3.447v3.223l1.613 1.62v-5.713l-2.856-2.463 4.16-3.587 4.161 3.587-2.856 2.463Z"/><path fill="#FFF" d="m304.841 192.58-1.416 2.455-2.154-2.285c.075 2.847.697 5.096 1.78 6.191.507.514 1.109.774 1.79.774.682 0 1.284-.26 1.791-.773 1.082-1.096 1.705-3.345 1.78-6.192l-2.154 2.285-1.417-2.455ZM263.753 181.526v7.272l-2.693-2.704v-2.206l-2.384 2.22 5.841 5.866 5.842-5.867-2.384-2.22v2.207l-2.693 2.704v-7.272l2.566-2.213-3.331-2.873-3.331 2.873Z"/><path fill="#D22630" d="M283.912 187.933v7.271l-2.692-2.704v-2.206l-2.385 2.22 5.842 5.867 5.842-5.867-2.385-2.22v2.206l-2.693 2.704v-7.27l2.567-2.214-3.331-2.873-3.331 2.873Z"/><path fill="#383739" d="m245.951 189.92-2.169-3.01 5.562-5.155-5.186-4.278v3.03l-2.168 1.863v-5.497l4.898-3.627-8.862-6.56-8.86 6.56 4.898 3.627v5.497l-2.169-1.863v-3.03l-5.186 4.278 5.562 5.156-2.168 3.01Z"/><path fill="#D22630" d="m231.162 189.376 1.83-2.54-5.458-5.06 3.822-3.154v2.133l3.25 2.792v-6.95l-4.529-3.353 7.951-5.885 7.951 5.885-4.528 3.353v6.95l3.25-2.792v-2.133l3.822 3.155-5.458 5.06 1.83 2.54Z"/><path fill="#383739" d="m233.974 173.245 4.05 2.997 4.05-2.997-4.05-2.997-.16.12Z"/><path fill="#00843D" d="M238.034 170.916c.267.197 2.665 1.973 3.14 2.322-.475.35-2.873 2.127-3.14 2.324-.268-.197-2.666-1.973-3.139-2.324.473-.349 2.871-2.125 3.14-2.322Z"/><path fill="#383739" d="M169.057 217.665c.612-.62 1.344-.934 2.174-.934.83 0 1.562.314 2.175.934 1.914 1.937 1.978 5.44 1.96 7.962l-2.613-2.772-1.522 2.638s-1.242-2.155-1.522-2.638l-2.612 2.772c-.019-2.521.046-6.025 1.96-7.962ZM190.087 223.097l-1.613 1.617v3.225l-3.704-3.447 6.621-6.649 6.62 6.649-3.703 3.447v-3.225l-1.612-1.617v5.712l2.855 2.462-4.16 3.588-4.16-3.588 2.856-2.462ZM210.234 229.504l-1.612 1.619v3.224l-3.704-3.448 6.621-6.649 6.62 6.649-3.703 3.448v-3.224l-1.613-1.62v5.713l2.856 2.463-4.16 3.587-4.16-3.587 2.855-2.463Z"/><path fill="#FFF" d="m171.226 224.413 1.416-2.455 2.154 2.285c-.075-2.847-.697-5.096-1.78-6.19-.507-.515-1.109-.775-1.79-.775-.682 0-1.284.26-1.79.773-1.083 1.096-1.706 3.345-1.78 6.192l2.153-2.285 1.417 2.455ZM212.314 235.467v-7.272l2.693 2.704v2.206l2.384-2.22-5.84-5.866-5.843 5.867 2.384 2.22v-2.207l2.693-2.704v7.272l-2.566 2.213 3.331 2.873 3.331-2.873Z"/><path fill="#D22630" d="M192.155 229.06v-7.271l2.692 2.705v2.205l2.385-2.22-5.842-5.867-5.842 5.867 2.385 2.22v-2.205l2.693-2.705v7.271l-2.567 2.213 3.331 2.873 3.331-2.873Z"/><path fill="#383739" d="M307.01 217.665c-.612-.62-1.344-.934-2.174-.934-.83 0-1.562.314-2.175.934-1.914 1.937-1.978 5.44-1.959 7.962l2.612-2.772 1.522 2.638s1.242-2.155 1.522-2.638l2.612 2.772c.019-2.521-.046-6.025-1.96-7.962ZM285.98 223.097l1.613 1.617v3.225l3.704-3.447-6.621-6.649-6.62 6.649 3.703 3.447v-3.225l1.612-1.617v5.712l-2.855 2.462 4.16 3.588 4.161-3.588-2.857-2.462ZM265.833 229.504l1.612 1.619v3.224l3.704-3.448-6.621-6.649-6.62 6.649 3.703 3.448v-3.224l1.613-1.62v5.713l-2.856 2.463 4.16 3.587 4.161-3.587-2.856-2.463Z"/><path fill="#FFF" d="m304.841 224.413-1.416-2.455-2.154 2.285c.075-2.847.697-5.096 1.78-6.19.507-.515 1.109-.775 1.79-.775.682 0 1.284.26 1.791.773 1.082 1.096 1.705 3.345 1.78 6.192l-2.154-2.285-1.417 2.455ZM263.753 235.467v-7.272l-2.693 2.704v2.206l-2.384-2.22 5.841-5.866 5.842 5.867-2.384 2.22v-2.207l-2.693-2.704v7.272l2.566 2.213-3.331 2.873-3.331-2.873Z"/><path fill="#D22630" d="M283.912 229.06v-7.271l-2.692 2.705v2.205l-2.385-2.22 5.842-5.867 5.842 5.867-2.385 2.22v-2.205l-2.693-2.705v7.271l2.567 2.213-3.331 2.873-3.331-2.873Z"/><path fill="#383739" d="m245.951 227.073-2.169 3.01 5.562 5.155-5.186 4.279v-3.031l-2.168-1.863v5.497l4.898 3.627-8.862 6.56-8.86-6.56 4.898-3.627v-5.497l-2.169 1.863v3.03l-5.186-4.278 5.562-5.156-2.168-3.01Z"/><path fill="#D22630" d="m231.162 227.617 1.83 2.54-5.458 5.06 3.822 3.154v-2.133l3.25-2.792v6.95l-4.529 3.353 7.951 5.885 7.951-5.885-4.528-3.353v-6.95l3.25 2.792v2.133l3.822-3.155-5.458-5.06 1.83-2.54Z"/><path fill="#383739" d="m233.974 243.748 4.05-2.997 4.05 2.997-4.05 2.997-.16-.12Z"/><path fill="#00843D" d="M238.034 246.078c.267-.198 2.665-1.974 3.14-2.323-.475-.35-2.873-2.126-3.14-2.324l-3.139 2.324 3.14 2.323Z"/><path fill="#383739" d="M309.771 205.383h-8.873v-3.551h-27.12L254.9 189.378h-33.745l-18.878 12.454h-27.12v3.551h-8.873v6.227h8.873v3.551h27.12l18.878 12.455H254.9l18.878-12.455h27.12v-3.551h8.873Z"/><path fill="#D22630" d="m221.317 189.94-18.897 12.407h-26.71v3.554h-8.882v5.164h8.881v3.554h26.71l18.898 12.474h33.456l18.83-12.474h26.778v-3.554h8.881v-5.164h-8.881v-3.554h-26.778l-18.83-12.407Zm.4 1.81h32.589l17.295 11.402v1.743H290.9v7.243h-19.299v1.744l-17.295 11.333h-32.588l-17.228-11.333v-1.744h-19.366v-7.243h19.366v-1.743Z"/><path fill="#D22630" d="m254.169 192.312 16.868 11.12v1.974h19.329v6.18h-19.329v1.974l-16.868 11.121h-32.28l-16.868-11.12v-1.975h-19.33v-6.18h19.33v-1.973l16.867-11.121Z"/><path fill="#383739" d="m213.512 214.814 7.303 5.505 4.805-3.622-2.793-2.106-2.012 1.517-1.717-1.294 27.504-20.739h-5.586Zm15.942 8.103h5.586l27.504-20.738-7.302-5.506-4.805 3.623 2.792 2.105 2.013-1.517 1.717 1.295Zm11.562 0h5.585l-27.503-20.738 1.717-1.295 2.012 1.517 2.792-2.105-4.804-3.623-7.303 5.506Zm15.943-8.103-1.717 1.294-2.013-1.517-2.792 2.106 4.805 3.622 7.302-5.505-27.504-20.739h-5.586ZM207.977 208.495l4.91 3.275 4.907-3.275-4.908-3.274Z"/><path fill="#383739" d="m233.117 208.495 4.908 3.275 4.91-3.275-4.91-3.274ZM268.077 208.495l-4.908 3.275-4.909-3.275 4.91-3.274Z"/><path fill="#FFC72C" d="m261.648 214.814-6.403 4.827-3.906-2.944 1.894-1.428 2.012 1.517 2.617-1.972-26.785-20.196h3.786Zm-16.663 7.56H241.2l-26.785-20.195 6.404-4.828 3.904 2.945-1.893 1.427-2.01-1.518-2.619 1.974Zm-10.122 0h-3.786l26.785-20.195-2.617-1.974-2.012 1.518-1.893-1.427 3.905-2.945 6.403 4.828Zm6.337-27.756h3.785l-26.783 20.195 2.617 1.973 2.012-1.517 1.892 1.428-3.904 2.944-6.403-4.828Z"/><path fill="#00843D" d="m212.894 205.875 3.932 2.622-3.932 2.622-3.932-2.622ZM238.034 205.875l3.932 2.622-3.932 2.622-3.932-2.622ZM263.173 205.875l-3.932 2.622 3.932 2.622 3.931-2.622Z"/></g></g></g><g clip-path="url(#e)"><g clip-path="url(#f)"><g clip-path="url(#g)"><path fill="#D22630" d="M173.318 445.724v14.8h-14.063v13.424H145v38.222h14.255v13.423h14.063v14.801h51.137l8.993 5.418-4.322 2.604h-18.233l-1.573-1.778h16.524l-4.655-4.702h-23.637l10.71 11.181h22.166l7.572-4.562 7.572 4.562h22.167l10.709-11.18h-23.637l-4.657 4.7h16.526l-1.573 1.779h-18.235l-4.322-2.604 8.994-5.418h51.137v-14.8h14.063V512.17h14.254v-38.222h-14.254v-13.424h-14.063v-14.8h-51.137l-8.994-5.418 4.322-2.605h18.235l1.573 1.78h-16.526l4.657 4.7h23.637l-10.709-11.18h-22.167L238 437.562 230.428 433H208.26l-10.71 11.181h23.638l4.655-4.7H209.32l1.573-1.78h18.233l4.322 2.605-8.993 5.418Z"/><path fill="#FFC72C" d="M251.39 539.83h50.771v-14.787h14.01v-13.448h14.278v-37.132h-14.278v-13.38h-14.01v-14.787H251.39l-21.082-12.778h-21.816l-9.673 10.102h22.15l3.602-3.612h-16.48l2.536-2.877h18.68l23.884 14.452h43.633v14.786h14.077v13.448h14.277v26.494h-14.277v13.448h-14.077v14.787h-43.633l-23.884 14.384h-18.68l-2.535-2.81h16.48l-3.603-3.613h-22.15l9.673 10.104h21.816Zm-28.62-5.286h-43.633v-14.787h-14.01V506.31H150.85v-26.495h14.277v-13.448h14.01v-14.786h43.633l23.951-14.452h18.614l2.535 2.877h-16.412l3.603 3.613h22.15l-9.674-10.103h-21.816l-21.082 12.778h-50.77v14.787H159.79v13.38h-14.277v37.132h14.277v13.448h14.077v14.786h50.77l21.083 12.779h21.816l9.674-10.103h-22.15l-3.603 3.612h16.412l-2.535 2.81h-18.614Z"/><path fill="#00843D" d="M292.599 515.48v14.8H252.04l-14.037 8.46-14.036-8.46h-40.56v-14.8h-14.064v-13.424h-14.254V484.06h14.254v-13.425h14.065v-14.8h40.559l14.036-8.457 14.037 8.458h40.559v14.799h14.064v13.425h14.253v17.995h-14.253v13.424Z"/><path fill="#383739" d="M188.72 510.293v14.324h22.295l-22.295-14.83ZM188.72 475.821v-14.325h22.295l-22.295 14.83ZM287.296 510.293v14.324h-22.295l22.295-14.83ZM287.296 475.821v-14.325h-22.295l22.295 14.83Z"/><path fill="#D22630" d="m189.262 510.798 19.964 13.28h-19.964ZM189.262 475.316l19.964-13.28h-19.964ZM286.754 510.798l-19.964 13.28h19.964ZM286.754 475.316c-.776-.516-18.604-12.374-19.964-13.28h19.964Z"/><path fill="#383739" d="M217.15 489.123v-7.316h-2.489l-11.936-7.484-.143.09-11.793 7.394h-2.488v7.316h-5.61v7.856h5.61v7.314h2.488l11.936 7.484 11.936-7.484h2.488v-7.314h8.543v-7.856Z"/><path fill="#D22630" d="m202.727 474.963 10.918 6.845H191.81Zm10.917 29.331-10.917 6.846-10.916-6.846ZM211.003 489.665v6.774h-13.615v-6.774Z"/><path fill="#FFC72C" d="M216.62 496.979v6.774h-13.615v-6.774ZM202.462 496.979v6.774h-13.614v-6.774ZM225.16 489.665v6.774h-13.615v-6.774ZM196.845 489.665v6.774H183.23v-6.774ZM216.62 482.351v6.775h-13.615v-6.775ZM202.462 482.351v6.775h-13.614v-6.775Z"/><path fill="#383739" d="M193.104 491.168v3.764h-6.116v-3.764ZM198.71 483.855v3.763h-6.117v-3.763ZM212.867 483.855v3.763h-6.116v-3.763ZM207.25 491.168v3.764h-6.117v-3.764ZM221.407 491.168v3.764h-6.116v-3.764ZM212.867 498.482v3.764h-6.116v-3.764ZM198.71 498.482v3.764h-6.117v-3.764Z"/><path fill="#FFF" d="M192.524 491.75h-4.964v2.608h4.964ZM198.142 484.436h-4.964v2.609h4.964ZM212.287 484.436h-4.963v2.609h4.963ZM206.682 491.75h-4.964v2.608h4.964ZM220.827 491.75h-4.963v2.608h4.963ZM212.287 499.064h-4.963v2.608h4.963ZM198.142 499.064h-4.964v2.608h4.964Z"/><path fill="#383739" d="M258.855 489.123v-7.316h2.488l11.936-7.484.143.09 11.793 7.394h2.488v7.316h5.611v7.856h-5.611v7.314h-2.488l-11.936 7.484-11.936-7.484h-2.488v-7.314h-8.543v-7.856Z"/><path fill="#D22630" d="m273.277 474.963-10.918 6.845h21.835Zm-10.917 29.331 10.917 6.846 10.916-6.846ZM265.001 489.665v6.774h13.615v-6.774Z"/><path fill="#FFC72C" d="M259.384 496.979v6.774h13.615v-6.774ZM273.542 496.979v6.774h13.614v-6.774ZM250.844 489.665v6.774h13.615v-6.774ZM279.159 489.665v6.774h13.615v-6.774ZM259.384 482.351v6.775h13.615v-6.775ZM273.542 482.351v6.775h13.614v-6.775Z"/><path fill="#383739" d="M282.9 491.168v3.764h6.116v-3.764ZM277.295 483.855v3.763h6.116v-3.763ZM263.137 483.855v3.763h6.116v-3.763ZM268.755 491.168v3.764h6.116v-3.764ZM254.597 491.168v3.764h6.116v-3.764ZM263.137 498.482v3.764h6.116v-3.764ZM277.295 498.482v3.764h6.116v-3.764Z"/><path fill="#FFF" d="M283.48 491.75h4.964v2.608h-4.964ZM277.862 484.436h4.964v2.609h-4.964ZM263.717 484.436h4.963v2.609h-4.963ZM269.322 491.75h4.964v2.608h-4.964ZM255.177 491.75h4.963v2.608h-4.963ZM263.717 499.064h4.963v2.608h-4.963ZM277.862 499.064h4.964v2.608h-4.964Z"/><path fill="#383739" d="M252.431 476.907v7.315h-2.488l-11.937 7.484-.143-.09-11.792-7.394h-2.488v-7.315h-7.077v-7.856h7.077v-7.315h2.488l11.935-7.484 11.937 7.484h2.488v7.315h7.076v7.856Z"/><path fill="#FFC72C" d="m238.008 491.068 10.918-6.846h-21.835Zm10.917-29.333-10.917-6.845-10.916 6.845Z"/><path fill="#D22630" d="M251.89 469.05v-6.772h-13.616v6.773ZM237.731 469.05v-6.772h-13.615v6.773ZM258.968 476.365v-6.775h-13.615v6.775ZM244.81 476.365v-6.775h-13.615v6.775ZM230.652 476.365v-6.775H217.04v6.775ZM251.89 483.678v-6.774h-13.616v6.774ZM237.731 483.678v-6.774h-13.615v6.774Z"/><path fill="#383739" d="M233.99 463.783v3.764h-6.115v-3.764ZM248.135 463.783v3.764h-6.115v-3.764ZM226.911 471.097v3.763h-6.115v-3.763ZM241.07 471.097v3.763h-6.117v-3.763ZM255.214 471.097v3.763H249.1v-3.763ZM233.99 478.41v3.764h-6.115v-3.764ZM248.135 478.41v3.764h-6.115v-3.764Z"/><path fill="#FFF" d="M233.411 464.365h-4.964v2.608h4.964ZM247.57 464.365h-4.965v2.608h4.964ZM226.332 471.678h-4.964v2.609h4.964ZM240.49 471.678h-4.964v2.609h4.964ZM254.635 471.678h-4.964v2.609h4.964ZM233.411 478.992h-4.964v2.608h4.964ZM247.57 478.992h-4.965v2.608h4.964Z"/><path fill="#383739" d="M252.431 517.06v7.315h-2.488l-11.937 7.484-.143-.089-11.792-7.395h-2.488v-7.314h-7.077v-7.857h7.077v-7.314h2.488l11.935-7.484 11.937 7.484h2.488v7.314h7.076v7.857Z"/><path fill="#FFC72C" d="m238.008 531.221 10.918-6.846h-21.835Zm10.917-29.332-10.917-6.846-10.916 6.846Z"/><path fill="#D22630" d="M251.89 509.204v-6.773h-13.616v6.773ZM237.731 509.204v-6.773h-13.615v6.773ZM258.968 516.518v-6.774h-13.615v6.774ZM244.81 516.518v-6.774h-13.615v6.774ZM230.652 516.518v-6.774H217.04v6.774ZM251.89 523.832v-6.774h-13.616v6.774ZM237.731 523.832v-6.774h-13.615v6.774Z"/><path fill="#383739" d="M233.99 503.936v3.764h-6.115v-3.764ZM248.135 503.936v3.764h-6.115v-3.764ZM226.911 511.25v3.764h-6.115v-3.764ZM241.07 511.25v3.764h-6.117v-3.764ZM255.214 511.25v3.764H249.1v-3.764ZM233.99 518.564v3.763h-6.115v-3.763ZM248.135 518.564v3.763h-6.115v-3.763Z"/><path fill="#FFF" d="M233.411 504.518h-4.964v2.608h4.964ZM247.57 504.518h-4.965v2.608h4.964ZM226.332 511.832h-4.964v2.608h4.964ZM240.49 511.832h-4.964v2.608h4.964ZM254.635 511.832h-4.964v2.608h4.964ZM233.411 519.145h-4.964v2.609h4.964ZM247.57 519.145h-4.965v2.609h4.964Z"/></g></g></g><path fill="#FFF" fill-rule="evenodd" d="M222.116 610h13.577v9.038h-5.375v-2.96h2.497v-3.118h-7.821v4.726L238 625.774l-.004.002h.007l-.003-.002 13.005-8.088v-4.726h-7.82v3.118h2.497v2.96h-5.375V610h13.577v7.051H261v9.241h-6.353v-2.96h3.474v-3.322h-5.303l-12.04 7.488v.004l12.04 7.488h5.303v-3.322h-3.474v-2.959H261v9.24h-7.116V645h-13.578v-9.037h5.376v2.96h-2.497v3.118h7.82v-4.726l-13.006-8.089.001-.001h-.002l.001.001-13.005 8.088v4.726h7.821v-3.118h-2.497v-2.96h5.375V645h-13.577v-7.051H215v-9.241h6.352v2.96h-3.473v3.322h5.302l12.043-7.49.004.003v-.005l-.004.002-12.043-7.49h-5.302v3.322h3.473v2.96H215v-9.241h7.116ZM462.44 71.504l10.865 7.908 10.854-7.857-4.14 12.744 10.865 7.908-13.423-.031-4.14 12.744-4.156-12.764-13.424-.031 10.855-7.857ZM510.08 96.19l10.865 7.909 10.855-7.858-4.14 12.745 10.865 7.908-13.424-.032-4.14 12.745-4.156-12.764-13.424-.032 10.856-7.857ZM462.439 120.026l10.865 7.908 10.855-7.857-4.14 12.745 10.865 7.908-13.423-.032-4.14 12.745-4.157-12.764-13.423-.032 10.855-7.857ZM414.718 143.362l10.865 7.908 10.855-7.857-4.14 12.744 10.865 7.908-13.423-.031-4.14 12.745-4.157-12.765-13.423-.031 10.855-7.857ZM462.437 168.298l10.865 7.909 10.855-7.858-4.14 12.745 10.865 7.908-13.423-.032-4.14 12.745-4.157-12.764-13.423-.031 10.855-7.857Z"/></g></svg>