<svg xmlns="http://www.w3.org/2000/svg" width="1136" height="758" overflow="hidden"><defs><clipPath id="a"><path d="M-1-1h1136v758H-1z"/></clipPath></defs><g fill-rule="evenodd" clip-path="url(#a)" transform="translate(1 1)"><path fill="#E30A17" d="M0 0h1134v756H0Z"/><path fill="#FFF" d="M213 374c0-102.158 82.957-185 185.256-185 65.907 0 123.791 34.339 156.601 86.133-27.079-30.189-66.48-49.219-110.323-49.219-81.81 0-148.147 66.388-148.147 148.086 0 81.698 66.337 148.086 148.29 148.086 43.843 0 83.244-19.03 110.323-49.219C522.19 524.661 464.306 559 398.399 559 295.957 559 213 476.158 213 374ZM722 319.626l-63.857 20.748L618.714 286v67.252L555 374l63.714 20.748V462l39.429-54.374L722 428.374 682.571 374Z"/></g></svg>