<svg xmlns="http://www.w3.org/2000/svg" width="1136" height="568" overflow="hidden"><defs><clipPath id="a"><path d="M-1 94h1136v568H-1z"/></clipPath><clipPath id="b"><path d="M0 94h567v284H0z"/></clipPath><clipPath id="c"><path d="M0 94h567v284H0z"/></clipPath><clipPath id="d"><path d="M0 94h567v284H0z"/></clipPath><clipPath id="e"><path d="M0 94h568v284H0z"/></clipPath><clipPath id="f"><path d="M283.5 236H567v142Zm0 0v142H0Zm0 0H0V94Zm0 0V94H567Z"/></clipPath></defs><g clip-path="url(#a)" transform="translate(1 -94)"><path fill="#5B97B1" d="M0 94h1134v567H0z"/><path fill="#FEDD00" fill-rule="evenodd" d="M565 590.849h34.377L610 558l10.623 32.849H655l-27.812 20.302L637.812 644 610 623.698 582.188 644l10.624-32.849ZM896 448.467h34.759L941.5 416l10.741 32.467H987l-28.121 20.066L969.621 501 941.5 480.934 913.379 501l10.742-32.467ZM997 383.849h34.38L1042 351l10.62 32.849H1087l-27.81 20.302L1069.81 437 1042 416.698 1014.19 437l10.62-32.849ZM997 162.467h34.38L1042 130l10.62 32.467H1087l-27.81 20.066L1069.81 215 1042 194.934 1014.19 215l10.62-32.467Z"/><g clip-path="url(#b)"><g clip-path="url(#c)"><g clip-path="url(#d)"><g clip-path="url(#e)"><path fill="#012169" d="M0 94v283.999h567V94Z"/><path stroke="#FFF" stroke-width="56.7" d="m0 0 567 283.5M567 0 0 283.5" transform="matrix(1 0 0 1.00176 0 94)"/><g clip-path="url(#f)"><path stroke="#C8102E" stroke-width="37.8" d="m0 0 567 283.5M567 0 0 283.5" transform="matrix(1 0 0 1.00176 0 94)"/></g><path stroke="#FFF" stroke-width="94.5" d="M283.5 0v283.5M0 141.75h567" transform="matrix(1 0 0 1.00176 0 94)"/><path stroke="#C8102E" stroke-width="56.7" d="M283.5 0v283.5M0 141.75h567" transform="matrix(1 0 0 1.00176 0 94)"/></g></g></g></g><path fill="#FEDD00" fill-rule="evenodd" d="m918.803 271.669 27.848-20.161-10.568-32.715 27.779 20.256 27.848-20.161-10.68 32.679 27.78 20.255-34.38-.059-10.679 32.679-10.568-32.715ZM819.053 305.669l27.848-20.161-10.568-32.715 27.779 20.256 27.848-20.161-10.68 32.679 27.78 20.255-34.38-.059-10.679 32.68-10.568-32.716ZM699.422 470.526l27.848-20.16-10.568-32.716 27.779 20.256 27.848-20.16-10.68 32.678 27.78 20.256-34.38-.059L744.37 503.3l-10.568-32.715ZM699.422 585.588l27.848-20.161-10.569-32.715 27.78 20.256 27.848-20.161-10.68 32.679 27.78 20.255-34.38-.059-10.679 32.68-10.568-32.716ZM819.053 556.461l27.848-20.161-10.568-32.715 27.779 20.256 27.848-20.161-10.68 32.679 27.78 20.256-34.38-.059-10.679 32.679-10.568-32.716Z"/></g></svg>