<svg xmlns="http://www.w3.org/2000/svg" width="1136" height="568" overflow="hidden"><defs><clipPath id="a"><path d="M-1 94h1136v568H-1z"/></clipPath></defs><g fill-rule="evenodd" clip-path="url(#a)" transform="translate(1 -94)"><path fill="#1EB53A" d="M0 469h1134v192H0Z"/><path fill="#0099B5" d="M0 94h1134v193H0Z"/><path fill="#CE1126" d="M0 276h1134v204H0Z"/><path fill="#FFF" d="M0 287h1134v182H0ZM227 185c0 37.555-30.445 68-68 68s-68-30.445-68-68 30.445-68 68-68 68 30.445 68 68Z"/><path fill="#0099B5" d="M249 185c0 37.555-30.445 68-68 68s-68-30.445-68-68 30.445-68 68-68 68 30.445 68 68Z"/><path fill="#FFF" d="M186 235.549h10.313L199.5 226l3.187 9.549H213l-8.344 5.902 3.187 9.549-8.343-5.902-8.343 5.902 3.187-9.549ZM241 235.549h9.931L254 226l3.069 9.549H267l-8.035 5.902 3.069 9.549-8.034-5.902-8.034 5.902 3.069-9.549ZM295 235.549h10.313L308.5 226l3.187 9.549H322l-8.344 5.902 3.187 9.549-8.343-5.902-8.343 5.902 3.187-9.549ZM350 235.549h9.931L363 226l3.069 9.549H376l-8.035 5.902 3.069 9.549-8.034-5.902-8.034 5.902 3.069-9.549ZM404 235.549h10.313L417.5 226l3.187 9.549H431l-8.344 5.902 3.187 9.549-8.343-5.902-8.343 5.902 3.187-9.549ZM241 180.931h9.931L254 171l3.069 9.931H267l-8.035 6.138 3.069 9.931-8.034-6.138-8.034 6.138 3.069-9.931ZM295 180.931h10.313L308.5 171l3.187 9.931H322l-8.344 6.138 3.187 9.931-8.343-6.138-8.343 6.138 3.187-9.931ZM350 180.931h9.931L363 171l3.069 9.931H376l-8.035 6.138 3.069 9.931-8.034-6.138-8.034 6.138 3.069-9.931ZM404 180.931h10.313L417.5 171l3.187 9.931H431l-8.344 6.138 3.187 9.931-8.343-6.138-8.343 6.138 3.187-9.931ZM295 126.549h10.313L308.5 117l3.187 9.549H322l-8.344 5.902 3.187 9.549-8.343-5.902-8.343 5.902 3.187-9.549ZM350 126.549h9.931L363 117l3.069 9.549H376l-8.035 5.902 3.069 9.549-8.034-5.902-8.034 5.902 3.069-9.549ZM404 126.549h10.313L417.5 117l3.187 9.549H431l-8.344 5.902 3.187 9.549-8.343-5.902-8.343 5.902 3.187-9.549Z"/></g></svg>