<svg xmlns="http://www.w3.org/2000/svg" width="900" height="475"><clipPath id="a"><path d="M0 0v475l420-195h480v-85H420z"/></clipPath><path fill="#009543" d="M0 0h900v475H0z"/><path fill="#d21034" d="M0 0h900v237.5H0z"/><g clip-path="url(#a)"><path stroke="#fdce12" stroke-width="110" d="m0 0 420 195h480v85H420L0 475"/><path fill="none" stroke="#000" stroke-width="60" d="m0 0 420 195h480m0 85H420L0 475"/></g><g fill="#fdce12"><path d="M106.868 282.937V310c23.544 0 69.75-18.041 69.75-76.13 0-58.088-49.286-68.87-64.03-68.87-14.74 0-60.288 10.562-60.288 58.089s44.667 51.927 53.468 51.927c8.8 0 41.806-7.921 38.066-43.566 0 10.121-11.442 31.465-35.426 31.465-23.983 0-38.945-17.824-38.945-35.425 0-17.604 14.522-41.147 39.825-41.147 25.303 0 43.786 22.442 43.786 45.107 0 22.663-17.822 51.487-46.206 51.487z"/><path stroke="#fdce12" stroke-width="0.833333" d="m86.24 247.704 1.403.907s11.139-25.413 41.09-43.483c-3.795 2.063-23.845 12.047-42.493 42.576z"/><path d="M89.128 243.331s-3.465-7.096-.413-10.23c3.054-3.137 1.651 8.333 1.651 8.333l1.32-1.898s-2.063-8.664.248-10.48c2.31-1.814 1.155 8.334 1.155 8.334l1.402-1.815s-1.485-8.416.743-9.984c2.228-1.568.825 7.922.825 7.922l1.65-1.899s-1.237-8.003 1.485-9.9c2.724-1.899.33 7.59.33 7.59l1.815-1.98s-.825-7.344 1.486-8.994c2.31-1.65.33 6.93.33 6.93l1.65-1.732s-.495-6.848 1.733-8.415c2.228-1.569.165 6.518.165 6.518l1.733-1.651s-.412-6.848 2.393-8.168-.495 6.436-.495 6.436l1.897-1.65s.578-8.004 2.971-8.747c2.392-.743-1.073 7.097-1.073 7.097l1.733-1.404s.907-6.848 3.547-7.673c2.641-.825-1.65 6.27-1.65 6.27l1.733-1.32s1.898-6.848 4.373-7.59c2.476-.743-2.557 6.436-2.557 6.436l1.65-1.155s2.722-6.19 4.95-6.602c2.228-.412-2.475 5.116-2.475 5.116l2.063-1.238s3.548-6.435 4.786-4.455c1.237 1.98-4.95 4.868-4.95 4.868l-2.064 1.155s7.509-3.548 8.416-1.733c.908 1.815-10.314 2.971-10.314 2.971l-1.815 1.238s7.509-2.064 6.601-.165c-.907 1.897-8.333 1.485-8.333 1.485l-1.734 1.237s7.509-1.815 6.519-.082-8.334 1.567-8.334 1.567l-1.815 1.486s7.344-1.898 6.271.33c-1.073 2.228-9.406 2.145-9.406 2.145l-2.063 1.898s7.756-2.64 7.096-.578c-.66 2.063-9.49 3.136-9.49 3.136l-1.98 1.98s8.334-2.805 5.86-.248c-2.476 2.559-8.5 3.219-8.5 3.219l-2.392 2.887s8.251-4.95 7.095-2.145c-1.155 2.805-9.24 4.704-9.24 4.704l-1.65 1.98s7.425-4.291 6.683-1.898c-.743 2.393-8.664 4.95-8.664 4.95l-1.32 1.816s8.746-5.198 8.003-2.558c-.743 2.64-9.076 4.538-9.076 4.538l-1.072 1.65s8.085-4.62 8.168-2.393c.082 2.228-9.49 4.456-9.49 4.456l-.164-1.898z"/></g></svg>