<svg xmlns="http://www.w3.org/2000/svg" width="1136" height="568" overflow="hidden"><defs><clipPath id="a"><path d="M-1 94h1136v568H-1z"/></clipPath></defs><g fill-rule="evenodd" clip-path="url(#a)" transform="translate(1 -94)"><path fill="#CE1126" d="M0 94h1134v567H0Z"/><path fill="#002B7F" d="M0 94h567v284H0Z"/><path fill="#FFF" d="M252 128.918h24.064L283.5 106l7.436 22.918H315l-19.468 14.164L302.968 166 283.5 151.836 264.032 166l7.436-22.918ZM165 199.918h24.064L196.5 177l7.436 22.918H228l-19.468 14.164L215.968 237 196.5 222.836 177.032 237l7.436-22.918ZM343 186.39h22.536L372.5 165l6.964 21.39H402l-18.232 13.22 6.964 21.39-18.232-13.22L354.268 221l6.964-21.39ZM307 252.515h14.897L326.5 238l4.603 14.515H346l-12.052 8.97L338.552 276l-12.052-8.971L314.448 276l4.604-14.515ZM244 319.647l30.176.001L283.5 291l9.324 28.648 30.176-.001-24.413 17.705L307.912 366 283.5 348.295 259.088 366l9.325-28.648Z"/></g></svg>