<svg xmlns="http://www.w3.org/2000/svg" width="840" height="600"><path fill="#244aa5" d="M0 0h840v600H0z" style="fill:#034ea2;fill-opacity:1"/><path d="M417.464 191.629c3.487 4.07 5.822 8.136 5.822 13.083-2.928 1.447-6.973 2.038-9.308 4.654 14.538-2.04 17.434 14.818 33.716 8.421.59 2.335 2.926 4.373 5.82 3.492l1.744-4.643c6.383-1.744 4.64 8.716 11.641 6.677 3.49 2.911 1.155 7.846 3.49 11.348 0 4.063 1.744 7.55 3.486 11.036 1.744-2.024 2.896-4.935 6.973-4.062 2.896 3.19 5.231 6.102 5.82 9.588-1.181 6.693-2.925 12.5 4.049 15.986v2.038c4.67 2.039 15.13-2.038 15.13 6.102-.593 2.911 2.895.296 4.077 2.039 2.896-1.167 6.974-.575 10.46-.575 2.896 6.102-3.486 10.46-5.23 15.985 2.895 2.897 1.744 8.141 1.153 11.611l-1.745.873c4.639.871 10.46-.56 14.539 2.054l7.565 2.895c3.486-2.022 7.534-2.333 12.203-2.022 3.487 2.616-1.182 6.973 1.745 8.997 4.078 0 7.564.592 8.124 4.08l.592 1.15c2.896-5.23 11.051-1.744 14.539-5.51 5.82 0 6.972 6.383 9.867 9.87 1.183 9.027-9.867 13.107-6.381 22.103-2.335 4.358-6.974 7.846-10.46 11.923 1.152.591.56 2.024.56 2.895-3.487 2.056-.56 8.157-5.23 8.72-.56 3.796-7.534 2.333-5.23 6.41 4.668 6.103-2.304 9.87-2.304 15.41-2.927 3.207-8.748-2.926-8.748 3.207-3.487.871-6.973-3.206-9.277.281-1.183 4.078 2.304 5.51 1.743 9.588 5.791-.592 7.535 5.23 9.87 8.718l5.82 5.82c-5.82 4.64-13.386-.592-20.36 2.023-1.744-.871 0-3.175-1.744-4.046-1.744-2.056-5.23-2.056-8.125-2.617.56 2.617-4.67 3.487-2.335 6.662 0 .871 1.152 3.487-1.152 3.487-4.67 1.464-4.077-4.046-8.157-2.023-5.23 2.023-1.151 9.87-8.716 8.997 1.152 7.005-11.612 11.644-2.896 17.746 1.151 1.153.56 3.486.56 5.23-5.23 4.67-14.51 2.927-20.329 1.182-4.67-1.182-1.744-7.004-3.486-10.18-1.744-2.925-6.974-4.95-6.974-9.027-3.489-1.434-6.413-2.333-8.748-5.231-8.124 7.845-18.022 15.41-29.637 15.69-5.23 2.615-8.156 13.108-16.282 8.747-3.19 5.232-12.795 0-13.371 7.536-3.783 1.462-2.039 6.412-4.358 8.716-.872 5.82 0 10.77 4.934 14.259 2.039 4.357-4.359 4.357-1.744 8.437.593 1.432 0 3.486-.871 4.077-1.744.871-2.319 1.745-1.744 3.487-1.447 0-2.037.872-3.19 2.023-1.464 2.896-6.103 4.359-9.309 6.382-3.191.872-5.526-1.432-7.55-3.486-.592 3.206-3.206 4.95-6.397 4.95-4.655 0-3.782-4.078-7.27-5.821 1.448-5.23-3.205-7.535-1.743-12.204 3.781-2.895 10.165-4.95 8.42-11.051-4.062-4.92-2.614-12.204-6.676-18.025-2.615-2.304-6.974-5.79-5.526-11.332 3.782-4.358 0-9.589-2.039-14.228-.871-3.797-3.191-7.283-3.191-11.642-6.397-3.767-6.693-13.667-15.706-14.538-6.397 0-7.55-8.126-13.946-7.566-.592-1.152-2.04-2.023-3.207-3.175-4.638 3.175-10.46-.872-16.266.56-3.783-6.382 3.19-15.1-6.989-18.898v-4.046c1.168.56 1.744-.593 2.039-1.183.576-4.359-7.27-4.92-4.062-9.87-1.744-1.462-3.783-2.055-2.615-4.95-4.374-8.997-17.45-8.125-20.36-17.153 2.334-2.022 2.334-4.078 3.207-5.82-2.04-3.488-2.615-7.255-2.04-11.022 2.04-.592 3.191-3.206 4.359-5.261-2.615-1.743-5.808-4.358-8.718-3.487-5.23-.87-9.013-4.918-13.666-7.253-1.168-1.153-.575-3.206-.575-4.639 6.396-2.055-.872-11.068 6.973-9.9 2.04-2.614 6.397-3.486 9.59-5.525 3.205-.575 5.82.591 9.012 1.463 2.614 3.472 7.27 2.024 9.883 4.934 2.615-.591 5.822-2.04 9.013-.591 0-4.935 2.32-7.846 5.821-11.333.576-2.024 3.767-3.486 6.382-4.639 4.951 1.153 10.757 1.153 14.26-2.334 2.32 1.462 4.358-1.448 6.973-1.448 3.19-.591 5.806.28 8.14 1.744.28-5.822 10.46-.873 12.5-7.846 2.32-4.655-6.397-6.397-5.822-10.476-1.448-4.654 2.04-6.973 3.782-10.164 2.039-.873 4.359-2.04 6.974-1.464 6.693-2.32 1.462-15.985 12.219-11.036 0 1.449-.591 3.191.28 3.487 3.782 0 4.363-4.362 6.99-5.82 1.15-4.063-1.463-9.013 2.023-12.205 1.744-.295 3.206-.871 4.359-2.335 0-3.19-1.744-4.933-4.359-6.973-.871 1.453-3.19.296-4.65.872 0-3.487-2.028-5.806-2.62-9.013-1.743-.871-2.614-2.319-2.023-4.358 2.615-2.615 0-9.012 6.102-7.562 2.32-2.027 6.397-.58 8.717-4.066 6.102-3.487 14.242-3.487 18.897-9.884 2.038.295 4.358-1.743 6.397 0 .577 3.781 6.103 2.318 6.103 5.813" style="fill:#d0a650;stroke:none;stroke-width:.992266;stroke-opacity:1"/><path d="m386.1 111.364-7.938-24.707-8.038 24.707h-25.997l21.036 15.281-8.037 24.707 21.036-15.28 20.937 15.28-8.038-24.707 21.036-15.28zM304.337 126.645l-7.938-24.608-8.037 24.608h-25.998l21.036 15.28-8.037 24.708 21.036-15.28 20.937 15.28-8.038-24.707 21.036-15.281zM226.345 151.253l-8.037-24.608-7.938 24.608h-25.998l21.036 15.281-8.037 24.708 20.937-15.281 21.036 15.28-8.038-24.707 21.036-15.28zM453.245 111.364l7.938-24.707 8.037 24.707h25.998l-21.036 15.281 8.037 24.707-21.036-15.28-20.937 15.28 8.038-24.707-21.036-15.28zM535.008 126.645l7.938-24.608 8.037 24.608h25.998l-21.036 15.28 8.037 24.708-21.036-15.28-20.937 15.28 8.037-24.707-21.036-15.281zM613 151.253l8.037-24.608 7.938 24.608h25.998l-21.036 15.281 8.037 24.708-20.937-15.281-21.036 15.28 8.038-24.707-21.037-15.28z" style="fill:#fff;stroke-width:.992266"/></svg>