<svg xmlns="http://www.w3.org/2000/svg" width="1260" height="630"><defs><clipPath id="a"><path fill="#00f" fill-rule="evenodd" d="M0 0h1260v630H0z"/></clipPath></defs><path fill="#006400" d="M0 0h1260v630H0z" style="stroke-width:0;stroke-miterlimit:4;stroke-dasharray:none"/><path fill="#ffd200" d="M0 90h1260v450H0z" style="stroke-width:0;stroke-miterlimit:4;stroke-dasharray:none"/><path fill="#d40000" d="M0 180h1260v270H0z" style="stroke-width:0;stroke-miterlimit:4;stroke-dasharray:none"/><path d="M0 270h1260v90H0z" style="stroke-width:0;stroke-miterlimit:4;stroke-dasharray:none"/><path stroke="#000" stroke-width="30" d="M0 0v630l420-315Z" clip-path="url(#a)"/><path fill="#fff" d="M0 0v630l420-315Z" style="stroke-width:0;stroke-miterlimit:4;stroke-dasharray:none"/><path fill="#d40000" d="m159.78 156.622 83.19 256.028L25.179 254.416h269.203L76.592 412.65z" style="stroke-width:0;stroke-miterlimit:4;stroke-dasharray:none"/><path d="M152.876 218.668a14.152 14.152 0 0 0-22.573 1.667 39.296 39.296 0 0 0-7.611.557 7.85 7.85 0 0 0-5.543 3.943 7.849 7.849 0 0 0-.386 6.79l8.59-.51a11.526 11.526 0 0 1 5.855 9.71l.967 34.13a24.546 24.546 0 0 0-2.45 11.004c.06 4.586.423 9.161 1.092 13.699a14.733 14.733 0 0 1-4.05 12.453 86.338 86.338 0 0 0-12.927 16.967 13.095 13.095 0 0 0 1.217 14.92l9.786 37.866h73.45l4.076-32.128a45.703 45.703 0 0 1 21.178-33.043l2.89.82a4.222 4.222 0 0 0 3.752-7.388l-69.481-54.332-1.827-22.868a24.67 24.67 0 0 0-6.005-14.257" style="fill:#ffd200;fill-opacity:1;fill-rule:evenodd;stroke:none;stroke-width:0;stroke-miterlimit:4;stroke-dasharray:none"/><path d="m152.172 219.29-.058-.065 1.408-1.245.058.066zm-.058-.065c-.38-.43-.793-.838-1.228-1.218l1.238-1.416c.487.425.956.89 1.398 1.39zm.012-2.637v.003l-.619.708zm-1.238 1.422a13.2 13.2 0 0 0-1.357-1.036l1.039-1.57c.548.364 1.068.76 1.556 1.184zm-1.357-1.036a13.221 13.221 0 0 0-8.29-2.169l-.133-1.886c3.374-.25 6.699.649 9.462 2.485zm-8.29-2.169-.086.008-.133-1.886.087-.008zm-.226-1.88h.009l.066.943zm.147 1.887c-.601.047-1.173.13-1.709.245l-.391-1.842c.66-.141 1.315-.24 1.952-.29zm-1.709.245c-.56.118-1.11.275-1.644.465l-.627-1.776c.61-.215 1.24-.394 1.88-.531zm-1.644.465a13.22 13.22 0 0 0-6.712 5.32l-1.584-1.015a15.097 15.097 0 0 1 7.669-6.08zm-6.712 5.32-.815.436.023-.943zm-.815.436a13.391 13.391 0 0 0-.252-.004l.023-1.886c.11 0 .195.004.276.004l-.045 1.886zm-.252-.004h-.003l.014-.943zm-.003 0c-.346-.004-.695-.008-1.037-.004l-.014-1.886c.362-.003.726-.002 1.083.004zm-1.037-.004c-.327.002-.676.012-1.033.022l-.066-1.886c.346-.011.709-.022 1.084-.022zm-1.033.022a38.2 38.2 0 0 0-5.104.528l-.317-1.857c1.78-.305 3.57-.493 5.355-.557zm-5.104.528-.037.008-.317-1.857.038-.008.316 1.857zm-.358-1.85h.003l.158.928-.162-.928zm.325 1.856a6.925 6.925 0 0 0-.851.205l-.552-1.798c.357-.11.72-.2 1.078-.263zm-.851.205a7.075 7.075 0 0 0-.807.31l-.774-1.718a8.8 8.8 0 0 1 1.029-.39zm-1.584-1.408h.003l.387.859zm.78 1.717a6.907 6.907 0 0 0-3.187 2.948l-1.651-.907a8.787 8.787 0 0 1 4.058-3.758zm-4.842 2.048.003-.008.826.454zm1.658.892-.051.096-1.658-.892.051-.096zm-1.709-.792v-.004l.829.446-.829-.442zm1.658.883c-.13.245-.253.511-.36.794l-1.76-.672c.124-.327.281-.666.462-1.005zm-2.12.126v-.004l.88.336-.88-.332zm1.76.663c-.102.273-.19.55-.259.828l-1.826-.45c.087-.352.197-.702.325-1.04zm-2.085.382v-.003l.914.225zm1.826.443a6.93 6.93 0 0 0 .325 4.282l-1.74.715a8.795 8.795 0 0 1-.41-5.44zm-.49 5.583-.924-.586.87-.357zm-.11-1.886 8.589-.51.11 1.887-8.588.509zm8.589-.51.512.122-.456.821zm.512.122.217.123-.96 1.621a24.892 24.892 0 0 1-.172-.101l.913-1.643zm.217.123c.519.306 1.015.652 1.481 1.027l-1.178 1.467c-.393-.316-.815-.61-1.26-.872zm1.481 1.027c.464.374.903.782 1.305 1.216l-1.377 1.281c-.34-.367-.712-.712-1.106-1.03zm1.305 1.216a12.47 12.47 0 0 1 3.34 8.138l-1.887.052a10.577 10.577 0 0 0-2.83-6.909zm3.34 8.138.967 34.13-1.886.052-.968-34.13zm.967 34.13-.096.435-.847-.408.943-.026zm-.096.435c-.055.113-.132.277-.209.445l-1.709-.79c.062-.135.132-.283.224-.472zm-1.918-.34v-.003l.855.394-.855-.39zm1.71.78c-.208.453-.405.923-.589 1.4l-1.754-.678c.192-.497.404-1 .633-1.502zm-2.346.725.003-.003.877.34zm1.76.672c-.18.472-.346.95-.496 1.429l-1.799-.56c.162-.517.34-1.033.535-1.54zm-.496 1.429a23.653 23.653 0 0 0-1.064 7.32l-1.886.022a25.487 25.487 0 0 1 1.151-7.901l1.799.56zm-1.064 7.32c0 .159.003.321.009.496l-1.886.03c-.002-.158-.003-.333-.01-.505l1.887-.023zm.009.496c.012.611.025 1.243.051 1.886l-1.886.066a97.014 97.014 0 0 1-.051-1.923l1.886-.03zm.051 1.886c.02.6.05 1.23.087 1.885l-1.886.103a92.805 92.805 0 0 1-.087-1.922zm.087 1.885c.171 3.13.483 6.235.934 9.306l-1.865.271a104.241 104.241 0 0 1-.955-9.474zm.934 9.306.01.043-1.866.272-.009-.044zm.01.043v.003l-.933.133zm0 .003c.098.683.151 1.364.16 2.033l-1.887.023a14.184 14.184 0 0 0-.139-1.79l1.865-.265zm.16 2.033c.009.667-.026 1.341-.105 2.012l-1.871-.214c.066-.578.097-1.175.09-1.776l1.886-.022zm-.105 2.012a15.689 15.689 0 0 1-4.374 9.158l-1.34-1.32a13.791 13.791 0 0 0 3.843-8.052zm-4.374 9.158-.003.009-.667-.668zm-.003.009c-.025.025.16-.211.11-.135l-1.57-1.046c.054-.082.092-.12.125-.154zm.11-.135-.115.137-.67-.66zm-.115.137a88.472 88.472 0 0 0-2.033 2.153l-1.392-1.274a88.18 88.18 0 0 1 2.084-2.199zm-3.425.882v-.003l.696.637zm1.392 1.268a88.33 88.33 0 0 0-1.962 2.222l-1.43-1.223a89.876 89.876 0 0 1 2-2.267zm-3.395.999h.003l.714.612-.718-.612zm1.437 1.223a85.565 85.565 0 0 0-8.785 12.397l-1.627-.943a87.428 87.428 0 0 1 8.975-12.677zm-10.416 11.454h.003l.813.472-.818-.472zm1.636.943-.038.063-1.636-.943.037-.063zm-.038.063c-.36.627-.657 1.266-.889 1.903l-1.768-.641c.278-.766.619-1.506 1.021-2.205zm-.889 1.903a12.12 12.12 0 0 0-.537 1.993l-1.85-.331c.14-.782.347-1.554.618-2.303zm-.537 1.993a12.155 12.155 0 0 0 2.587 9.892l-1.452 1.194a14.03 14.03 0 0 1-2.986-11.417zm2.587 9.892.184.36-.91.237zm.184.36 9.787 37.866-1.82.473-9.787-37.866zm8.877 39.046-.91-.707.91-.237zm0-1.887h73.45v1.887h-73.454zm74.382 1.061-.932.826v-.943zm-1.864-.235 4.076-32.128 1.865.236-4.077 32.127zm5.944-31.896-.003.003-.932-.117zm-1.872-.228c.014-.114-.025.23.012-.057l1.865.243c-.034.256.014-.106-.003.043l-1.871-.229zm1.875.182v.003l-.933-.122.933.118zm-1.865-.235c.25-1.961.621-3.88 1.101-5.741l1.827.464a44.671 44.671 0 0 0-1.063 5.512zm1.101-5.741a46.575 46.575 0 0 1 1.794-5.51l1.754.693a44.787 44.787 0 0 0-1.721 5.28zm1.794-5.51a46.641 46.641 0 0 1 18.711-22.424l.995 1.6a44.756 44.756 0 0 0-17.952 21.517zm18.711-22.424.752-.107-.255.907zm.752-.107 2.89.82-.509 1.814-2.89-.82zm2.89.82h.003l-.257.907zm.003 0 .023.01-.516 1.813-.022-.01zm-.485 1.82h-.01l.258-.906zm.5-1.813c.195.053.41.09.638.105l-.14 1.887a5.175 5.175 0 0 1-.998-.179zm.638.105c.223.014.436.012.63-.011l.22 1.871c-.335.04-.668.05-.99.026zm.63-.011a3.274 3.274 0 0 0 2.535-1.768l1.681.847a5.17 5.17 0 0 1-3.995 2.792zm4.219-.924-.003.003-.84-.423zm-1.687-.84.011-.023 1.688.84-.012.023zm.011-.023c.1-.202.18-.407.235-.606l1.813.5c-.09.327-.21.647-.36.946zm2.051-.109-.003.003-.907-.25zm-1.82-.493c.053-.196.089-.406.105-.623l1.887.14a5.166 5.166 0 0 1-.172.977zm1.992-.487v.003l-.944-.07zm-1.887-.133a3.287 3.287 0 0 0-1.246-2.832l1.157-1.482a5.168 5.168 0 0 1 1.976 4.447zm-1.246-2.832-69.481-54.333 1.157-1.482 69.481 54.333zm-69.481-54.333-.365-.667.943-.074zm-.365-.667L157.944 233l1.886-.147 1.826 22.868zM157.944 233l-.01-.08 1.887-.148.009.08zm1.88-.23v.002l-.944.074zm-1.887.153a23.579 23.579 0 0 0-.266-2.11l1.856-.317c.136.782.237 1.544.296 2.273zm-.266-2.11a23.61 23.61 0 0 0-.457-2.064l1.82-.485c.197.73.362 1.477.493 2.232zm-.457-2.064a23.737 23.737 0 0 0-5.04-9.46l1.415-1.24a25.634 25.634 0 0 1 5.445 10.215M152.688 280.72c-.01.021.014-.039-.012.038l-1.805-.545c.01-.026.014-.042.04-.11l1.775.618zm-.012.038-.009.023-.895-.296zm-.009.023a13.62 13.62 0 0 0-.408 1.503l-1.842-.383a15.5 15.5 0 0 1 .46-1.71zm-.408 1.503a13.776 13.776 0 0 0-.232 1.526l-1.871-.169c.054-.588.143-1.171.261-1.74zm-.232 1.526a13.655 13.655 0 0 0 1.51 7.634l-1.665.877a15.53 15.53 0 0 1-1.716-8.68zm1.51 7.634.013.02-1.666.877-.012-.02 1.666-.877zm.013.02c.243.463.514.91.806 1.336l-1.554 1.06c-.333-.486-.64-.995-.917-1.52zm.806 1.336c.294.43.612.842.943 1.226l-1.422 1.229a15.728 15.728 0 0 1-1.076-1.394zm.943 1.226a13.638 13.638 0 0 0 6.597 4.199l-.51 1.813a15.53 15.53 0 0 1-7.51-4.783" style="fill:#000;fill-opacity:1;fill-rule:nonzero;stroke:none;stroke-width:0;stroke-miterlimit:4;stroke-dasharray:none"/><path d="m161.238 256.57-28.522 19.491-1.061-1.554 28.523-19.491" style="fill:#000;fill-opacity:1;fill-rule:nonzero;stroke:none;stroke-width:0;stroke-miterlimit:4;stroke-dasharray:none"/><path d="M145.544 225.657a3.743 3.743 0 1 0-7.485 0 3.743 3.743 0 0 0 7.485 0" style="fill:#ffd200;fill-opacity:1;fill-rule:evenodd;stroke:none;stroke-width:0;stroke-miterlimit:4;stroke-dasharray:none"/><path d="M144.601 225.657v-.008h1.887v.008zm0-.008a2.789 2.789 0 0 0-.818-1.974l1.327-1.335a4.677 4.677 0 0 1 1.378 3.31zm-.818-1.974a2.797 2.797 0 0 0-1.968-.818l.009-1.886a4.669 4.669 0 0 1 3.288 1.37l-1.326 1.334zm-1.965-2.704h.003l-.003.943zm0 1.886h-.014v-1.886h.014zm-.014 0h-.01v-1.886h.01zm-.01 0a2.79 2.79 0 0 0-1.973.818l-1.335-1.326a4.677 4.677 0 0 1 3.309-1.378zm-1.973.818a2.797 2.797 0 0 0-.818 1.969l-1.886-.008a4.66 4.66 0 0 1 1.37-3.288l1.334 1.326zm-2.704 1.965v-.003l.943.003zm1.886 0v.015h-1.886v-.015zm0 .015v.008h-1.886v-.008zm0 .008c0 .773.314 1.472.818 1.974l-1.326 1.335a4.679 4.679 0 0 1-1.378-3.309zm.818 1.974a2.797 2.797 0 0 0 1.968.819l-.009 1.886a4.665 4.665 0 0 1-3.288-1.37l1.327-1.334zm1.965 2.705h-.003l.003-.943zm0-1.886h.014v1.886h-.014zm.014 0h.009v1.886h-.01zm.009 0a2.788 2.788 0 0 0 1.974-.819l1.334 1.326a4.679 4.679 0 0 1-3.308 1.379zm1.974-.819c.501-.502.816-1.2.818-1.968l1.886.008a4.664 4.664 0 0 1-1.37 3.288l-1.334-1.326zm2.704-1.965v.003l-.943-.003zm-1.886 0v-.015h1.886v.015M137.975 314.998l.066-.034.84 1.688-.066.034-.84-1.688zm.91 1.652-.003.003-.42-.844zm-.847-1.681c.772-.39 1.501-.84 2.175-1.34l1.12 1.51a17.015 17.015 0 0 1-2.448 1.51zm2.175-1.34c.675-.5 1.307-1.057 1.885-1.658l1.356 1.305a16.873 16.873 0 0 1-2.12 1.864zm1.885-1.658a15.057 15.057 0 0 0 4.142-11.743l1.886-.163a16.937 16.937 0 0 1-4.672 13.21" style="fill:#000;fill-opacity:1;fill-rule:nonzero;stroke:none;stroke-width:0;stroke-miterlimit:4;stroke-dasharray:none"/><path d="m150.917 295.087-.066.034-.841-1.688.066-.034.84 1.688zm-.914-1.652.009-.003.42.844zm.855 1.681c-.268.138-.514.29-.73.451l-1.126-1.503a6.896 6.896 0 0 1 1-.629zm-.73.451a5.093 5.093 0 0 0-.63.562l-1.362-1.296a6.95 6.95 0 0 1 .866-.769zm-.63.562a5.072 5.072 0 0 0-1.372 3.936l-1.886.163a6.956 6.956 0 0 1 1.896-5.395M161.508 322.764l-.014.01-.7-1.748.014-.01zm-.014.01c-.972.39-1.981.804-3.014 1.232l-.723-1.74c.978-.405 1.99-.82 3.036-1.241zm-3.014 1.232c-1.006.417-2.009.84-3.004 1.265l-.738-1.732c1.006-.43 2.015-.856 3.02-1.272zm-3.004 1.265a320.318 320.318 0 0 0-15.226 6.973l-.826-1.694a321.512 321.512 0 0 1 15.313-7.012" style="fill:#000;fill-opacity:1;fill-rule:nonzero;stroke:none;stroke-width:0;stroke-miterlimit:4;stroke-dasharray:none"/><path d="m160.819 321.014.034-.012.678 1.754-.034.011zm.726 1.737-.014.003-.339-.876zm-.708-1.747a23.925 23.925 0 0 0 3.066-1.501l.943 1.627a25.962 25.962 0 0 1-3.3 1.621zm3.066-1.501a23.762 23.762 0 0 0 2.78-1.897l1.172 1.482a25.772 25.772 0 0 1-3.009 2.042zm2.78-1.897a23.942 23.942 0 0 0 8.72-14.477l1.85.338a25.821 25.821 0 0 1-9.398 15.62M151.543 325.004h61.293v1.887h-61.293" style="fill:#000;fill-opacity:1;fill-rule:nonzero;stroke:none;stroke-width:0;stroke-miterlimit:4;stroke-dasharray:none"/><path d="M165.67 337.442a7.108 7.108 0 1 0-14.216 0 7.108 7.108 0 0 0 14.215 0" style="fill:#ffd200;fill-opacity:1;fill-rule:evenodd;stroke:none;stroke-width:0;stroke-miterlimit:4;stroke-dasharray:none"/><path d="M164.726 337.442v-.009h1.887v.009zm0-.009a6.152 6.152 0 0 0-1.808-4.354l1.335-1.335a8.036 8.036 0 0 1 2.36 5.689zm-.478-5.689h.003l-.667.668.663-.668zm-1.326 1.335a6.15 6.15 0 0 0-4.343-1.803v-1.887a8.02 8.02 0 0 1 5.67 2.355zm-4.343-1.803h-.014v-1.887h.014zm-.014 0h-.01v-1.887h.01zm-.01 0a6.137 6.137 0 0 0-4.352 1.804l-1.335-1.326a8.031 8.031 0 0 1 5.688-2.365zm-4.352 1.804a6.152 6.152 0 0 0-1.803 4.345h-1.886a8.022 8.022 0 0 1 2.354-5.671zm-1.803 4.345v.014h-1.886v-.014zm0 .014v.009h-1.886v-.01zm0 .009a6.145 6.145 0 0 0 1.804 4.353l-1.326 1.334a8.032 8.032 0 0 1-2.365-5.687zm1.804 4.353a6.151 6.151 0 0 0 4.344 1.803v1.886a8.019 8.019 0 0 1-5.67-2.355zm4.344 1.803h.014v1.886h-.014zm.014 0h.009v1.886h-.01zm.009 0a6.152 6.152 0 0 0 4.353-1.808l1.335 1.334a8.037 8.037 0 0 1-5.688 2.36zm5.688-.478v.003l-.668-.668.668.664zm-1.335-1.326a6.15 6.15 0 0 0 1.803-4.344h1.886a8.022 8.022 0 0 1-2.354 5.67zm1.803-4.344v-.014h1.886v.014" style="fill:#000;fill-opacity:1;fill-rule:nonzero;stroke:none;stroke-width:0;stroke-miterlimit:4;stroke-dasharray:none"/><path d="M193.946 337.442a7.108 7.108 0 1 0-14.215 0 7.108 7.108 0 0 0 14.215 0" style="fill:#ffd200;fill-opacity:1;fill-rule:evenodd;stroke:none;stroke-width:0;stroke-miterlimit:4;stroke-dasharray:none"/><path d="M193.003 337.442v-.009h1.886v.009zm0-.009a6.15 6.15 0 0 0-1.808-4.354l1.334-1.335a8.038 8.038 0 0 1 2.36 5.689zm-.478-5.689h.003l-.667.668.663-.668zm-1.326 1.335a6.151 6.151 0 0 0-4.344-1.803v-1.887a8.02 8.02 0 0 1 5.67 2.355zm-4.344-1.803h-.014v-1.887h.014zm-.014 0h-.009v-1.887h.01zm-.009 0a6.145 6.145 0 0 0-4.354 1.804l-1.334-1.326a8.033 8.033 0 0 1 5.688-2.365zm-4.354 1.804a6.152 6.152 0 0 0-1.803 4.345h-1.886a8.022 8.022 0 0 1 2.355-5.671zm-1.803 4.345v.014h-1.886v-.014zm0 .014v.009h-1.886v-.01zm0 .009a6.145 6.145 0 0 0 1.804 4.353l-1.326 1.334a8.031 8.031 0 0 1-2.364-5.687zm1.804 4.353a6.152 6.152 0 0 0 4.345 1.803v1.886a8.02 8.02 0 0 1-5.671-2.355zm4.345 1.803h.014v1.886h-.014zm.014 0h.009v1.886h-.01zm.009 0a6.15 6.15 0 0 0 4.353-1.808l1.334 1.334a8.036 8.036 0 0 1-5.687 2.36zm5.687-.478v.003l-.667-.668.667.664zM191.2 341.8a6.15 6.15 0 0 0 1.803-4.344h1.886a8.02 8.02 0 0 1-2.355 5.67zm1.803-4.344v-.013h1.886v.014M172.409 312.321c.332.1.665.194.994.282l-.486 1.82c-.35-.094-.703-.194-1.047-.297zm.994.282c.523.14 1.027.266 1.506.374l-.413 1.835a39.646 39.646 0 0 1-1.579-.389zm1.506.374c.507.114 1.013.219 1.518.312l-.338 1.85a42.323 42.323 0 0 1-1.593-.327zm1.518.312c2.364.434 4.782.647 7.212.633l.009 1.886a40.634 40.634 0 0 1-7.556-.67" style="fill:#000;fill-opacity:1;fill-rule:nonzero;stroke:none;stroke-width:0;stroke-miterlimit:4;stroke-dasharray:none"/><path d="M183.639 313.922c.333-.001.653-.02.947-.048l.193 1.871c-.392.04-.771.061-1.134.063l-.009-1.886zm.947-.048h.003l.092.936-.096-.936zm.003 0c.532-.053 1.061-.15 1.578-.287l.479 1.82c-.604.16-1.232.274-1.873.338zm1.578-.287c.508-.133 1.01-.31 1.494-.524l.759 1.724c-.567.25-1.163.459-1.774.62zm1.494-.524a10.138 10.138 0 0 0 5.198-5.206l1.723.75a12.024 12.024 0 0 1-6.162 6.18" style="fill:#000;fill-opacity:1;fill-rule:nonzero;stroke:none;stroke-width:0;stroke-miterlimit:4;stroke-dasharray:none"/><path d="M223.292 317.6 161.39 300.04l.509-1.814 61.903 17.562M116.302 347.876h86.194v1.886h-86.194M136.2 366.608h63.909v1.887h-63.91" style="fill:#000;fill-opacity:1;fill-rule:nonzero;stroke:none;stroke-width:0;stroke-miterlimit:4;stroke-dasharray:none"/><path d="m166.077 360.204-6.974 6.88-1.32-1.34 6.974-6.881" style="fill:#000;fill-opacity:1;fill-rule:nonzero;stroke:none;stroke-width:0;stroke-miterlimit:4;stroke-dasharray:none"/><path d="m152.787 359.532 6.975 6.882-1.32 1.34-6.975-6.88" style="fill:#000;fill-opacity:1;fill-rule:nonzero;stroke:none;stroke-width:0;stroke-miterlimit:4;stroke-dasharray:none"/><path d="m153.447 360.204-6.975 6.88-1.32-1.34 6.975-6.881" style="fill:#000;fill-opacity:1;fill-rule:nonzero;stroke:none;stroke-width:0;stroke-miterlimit:4;stroke-dasharray:none"/><path d="m140.156 359.532 6.976 6.882-1.32 1.34-6.976-6.88M178.707 360.204l-6.974 6.88-1.32-1.34 6.974-6.881" style="fill:#000;fill-opacity:1;fill-rule:nonzero;stroke:none;stroke-width:0;stroke-miterlimit:4;stroke-dasharray:none"/><path d="m165.417 359.532 6.975 6.211-1.32 1.341-6.974-6.21M191.34 360.204l-6.976 6.88-1.32-1.34 6.976-6.881" style="fill:#000;fill-opacity:1;fill-rule:nonzero;stroke:none;stroke-width:0;stroke-miterlimit:4;stroke-dasharray:none"/><path d="m178.048 359.532 6.977 6.211-1.32 1.341-6.976-6.21M201.471 362.682l-4.476 4.402-1.32-1.34 4.477-4.403" style="fill:#000;fill-opacity:1;fill-rule:nonzero;stroke:none;stroke-width:0;stroke-miterlimit:4;stroke-dasharray:none"/><path d="m190.68 359.532 6.975 6.882-1.32 1.34-6.975-6.88M166.077 350.632l-6.974 6.881-1.32-1.34 6.974-6.882" style="fill:#000;fill-opacity:1;fill-rule:nonzero;stroke:none;stroke-width:0;stroke-miterlimit:4;stroke-dasharray:none"/><path d="m152.787 349.962 6.975 6.88-1.32 1.341-6.975-6.88" style="fill:#000;fill-opacity:1;fill-rule:nonzero;stroke:none;stroke-width:0;stroke-miterlimit:4;stroke-dasharray:none"/><path d="m153.447 350.632-6.975 6.881-1.32-1.34 6.975-6.882" style="fill:#000;fill-opacity:1;fill-rule:nonzero;stroke:none;stroke-width:0;stroke-miterlimit:4;stroke-dasharray:none"/><path d="m140.156 349.962 6.976 6.88-1.32 1.341-6.976-6.88M178.707 350.632l-6.974 6.881-1.32-1.34 6.974-6.882" style="fill:#000;fill-opacity:1;fill-rule:nonzero;stroke:none;stroke-width:0;stroke-miterlimit:4;stroke-dasharray:none"/><path d="m165.417 349.962 6.975 6.88-1.32 1.341-6.974-6.88M191.34 350.632l-6.976 6.881-1.32-1.34 6.976-6.882" style="fill:#000;fill-opacity:1;fill-rule:nonzero;stroke:none;stroke-width:0;stroke-miterlimit:4;stroke-dasharray:none"/><path d="m178.048 349.962 6.977 6.88-1.32 1.341-6.976-6.88M202.86 351.747l-5.865 5.766-1.32-1.34 5.865-5.767" style="fill:#000;fill-opacity:1;fill-rule:nonzero;stroke:none;stroke-width:0;stroke-miterlimit:4;stroke-dasharray:none"/><path d="m190.68 349.962 6.975 6.88-1.32 1.341-6.975-6.88M133.663 231.57l-8.255.49-.112-1.887 8.256-.49M138.8 316.693l-.025.012-.81-1.702.025-.012.81 1.702zm-.852-1.681.014-.01.405.852zm.84 1.687c-1.602.8-3.099 1.74-4.472 2.79l-1.143-1.494a29.77 29.77 0 0 1 4.775-2.983zm-4.472 2.79a27.795 27.795 0 0 0-3.786 3.502l-1.4-1.26a29.704 29.704 0 0 1 4.043-3.736zm-3.786 3.502a27.867 27.867 0 0 0-6.486 24.617l-1.841.405a29.752 29.752 0 0 1 6.926-26.282M140.248 332.242l-.116.057-.825-1.694.116-.057zm-.948-1.634.009-.003.412.847zm.84 1.687c-.804.402-1.564.865-2.271 1.379l-1.106-1.525a18.063 18.063 0 0 1 2.537-1.541zm-2.271 1.379a16.02 16.02 0 0 0-1.98 1.7l-1.34-1.32a17.808 17.808 0 0 1 2.214-1.905zm-1.98 1.7c-3.11 3.148-4.848 7.705-4.619 12.292l-1.862.066c-.255-5.115 1.663-10.158 5.14-13.678" style="fill:#000;fill-opacity:1;fill-rule:nonzero;stroke:none;stroke-width:0;stroke-miterlimit:4;stroke-dasharray:none"/><path d="m118.123 338.77-1.768-.119-.026.693c-.01-.025.03-.679.026-.693l1.769.12zm-1.794.574 1.798-.56-1.772-.132zm1.798-.56c.133.454.289.907.463 1.353l-1.754.684c-.19-.487-.356-.964-.507-1.477zm.463 1.353c.173.446.367.882.574 1.302l-1.687.832c-.234-.476-.45-.961-.64-1.45zm.574 1.302a16.561 16.561 0 0 0 4.547 5.636l-1.172 1.473a18.448 18.448 0 0 1-5.062-6.277" style="fill:#000;fill-opacity:1;fill-rule:nonzero;stroke:none;stroke-width:0;stroke-miterlimit:4;stroke-dasharray:none"/><path d="m118.078 339.402-2.16 4.971-1.723-.75 2.16-4.972M122.203 348.013l.085-.642 1.687.84-.01.021zm1.772.199-1.68-.856zm-1.68-.856c.233-.444.453-.88.661-1.301l1.694.826c-.228.464-.457.916-.683 1.346zm.661-1.301c.246-.501.459-.944.63-1.317l1.709.78c-.24.522-.456.978-.645 1.363zm.63-1.317a56.818 56.818 0 0 0 2.67-6.995l1.798.552a58.54 58.54 0 0 1-2.76 7.223" style="fill:#000;fill-opacity:1;fill-rule:nonzero;stroke:none;stroke-width:0;stroke-miterlimit:4;stroke-dasharray:none"/><path d="m129.41 347.732-.01-.025 1.835-.42.009.026zm1.828-.45v.002l-.918.21.918-.214zm-1.835.427a59.176 59.176 0 0 0-.33-1.341l1.82-.473c.132.508.248.97.345 1.386zm-.33-1.341c-.1-.375-.223-.82-.37-1.331l1.814-.516c.111.386.237.847.375 1.374zm1.44-1.851.003.003-.907.258.903-.262zm-1.805.524a53.454 53.454 0 0 0-2.413-6.643l-.04-.655 1.764-.104a55.332 55.332 0 0 1 2.494 6.878M137.97 381.658l-2.73-14.05 1.851-.359 2.731 14.05" style="fill:#000;fill-opacity:1;fill-rule:nonzero;stroke:none;stroke-width:0;stroke-miterlimit:4;stroke-dasharray:none"/><path d="m135.308 367.854-6.41-18.733 1.783-.605 6.41 18.733" style="fill:#000;fill-opacity:1;fill-rule:nonzero;stroke:none;stroke-width:0;stroke-miterlimit:4;stroke-dasharray:none"/><path d="m140.817 360.204-5.009 4.945-1.32-1.341 5.01-4.945M140.817 350.632l-7.459 7.356-1.32-1.34 7.46-7.357" style="fill:#000;fill-opacity:1;fill-rule:nonzero;stroke:none;stroke-width:0;stroke-miterlimit:4;stroke-dasharray:none"/></svg>