<svg width="16" height="16" viewBox="0 0 16 16" fill="none" xmlns="http://www.w3.org/2000/svg">
<path d="M8.33333 1.99992H5.2C4.0799 1.99992 3.51984 1.99992 3.09202 2.21791C2.71569 2.40965 2.40973 2.71561 2.21799 3.09194C2 3.51976 2 4.07981 2 5.19992V10.7999C2 11.92 2 12.4801 2.21799 12.9079C2.40973 13.2842 2.71569 13.5902 3.09202 13.7819C3.51984 13.9999 4.07989 13.9999 5.2 13.9999H11.3333C11.9533 13.9999 12.2633 13.9999 12.5176 13.9318C13.2078 13.7468 13.7469 13.2077 13.9319 12.5176C14 12.2632 14 11.9532 14 11.3333M12.6667 5.33325V1.33325M10.6667 3.33325H14.6667M7 5.66659C7 6.40297 6.40305 6.99992 5.66667 6.99992C4.93029 6.99992 4.33333 6.40297 4.33333 5.66659C4.33333 4.93021 4.93029 4.33325 5.66667 4.33325C6.40305 4.33325 7 4.93021 7 5.66659ZM9.99336 7.94535L4.3541 13.072C4.03691 13.3603 3.87831 13.5045 3.86429 13.6294C3.85213 13.7376 3.89364 13.845 3.97546 13.9169C4.06985 13.9999 4.28419 13.9999 4.71286 13.9999H10.9707C11.9301 13.9999 12.4098 13.9999 12.7866 13.8387C13.2596 13.6364 13.6365 13.2595 13.8388 12.7865C14 12.4097 14 11.93 14 10.9706C14 10.6478 14 10.4863 13.9647 10.336C13.9204 10.1471 13.8353 9.97016 13.7155 9.81752C13.6202 9.69605 13.4941 9.59522 13.242 9.39356L11.3772 7.90169C11.1249 7.69986 10.9988 7.59894 10.8599 7.56333C10.7374 7.53193 10.6086 7.536 10.4884 7.57505C10.352 7.61935 10.2324 7.72802 9.99336 7.94535Z" stroke="#575757" stroke-width="1.2" stroke-linecap="round" stroke-linejoin="round"/>
</svg>
