<svg width="20" height="20" viewBox="0 0 20 20" fill="none" xmlns="http://www.w3.org/2000/svg">
<path d="M5 17V3H9.74627C11.2239 3 12.3731 3.27294 13.209 3.81881C14.0299 4.36468 14.4478 5.32798 14.4478 6.69266C14.4478 7.4633 14.2537 8.1055 13.8806 8.60321C13.4925 9.10092 13.0149 9.42202 12.4179 9.55046C13.1791 9.69495 13.806 10.0642 14.2836 10.6743C14.7612 11.2844 15 12.0872 15 13.0665C15 14.4151 14.5821 15.4106 13.7313 16.0367C12.8806 16.6628 11.7463 16.9839 10.3134 16.9839H5V17ZM9.74627 8.68349C10.4925 8.68349 11.0746 8.55505 11.4627 8.28211C11.8507 8.02523 12.0597 7.59174 12.0597 6.98165C12.0597 6.33945 11.8657 5.88991 11.4627 5.61697C11.0746 5.34404 10.4925 5.2156 9.74627 5.2156H7.34328V8.68349H9.74627ZM10.2836 14.7844C11.0448 14.7844 11.6269 14.6399 12.0149 14.3349C12.403 14.0298 12.597 13.5161 12.597 12.7775C12.597 12.039 12.403 11.5734 12.0149 11.2683C11.6269 10.9794 11.0448 10.8188 10.2836 10.8188H7.34328V14.7683H10.2836V14.7844Z" fill="#333333"/>
</svg>
