<svg width="20" height="20" viewBox="0 0 20 20" fill="none" xmlns="http://www.w3.org/2000/svg">
<path d="M13.1284 7.0315C12.9806 6.6063 12.7507 6.2126 12.4552 5.83465C12.1597 5.45669 11.7657 5.17323 11.2896 4.9685C10.8299 4.74803 10.2881 4.65354 9.6806 4.65354C8.72836 4.65354 7.98955 4.82677 7.44776 5.18898C6.90597 5.55118 6.62687 6.05512 6.62687 6.71654C6.62687 7.17323 6.74179 7.51969 6.95522 7.7874C7.16866 8.03937 7.54627 8.27559 8.05522 8.46457C8.5806 8.65354 9.38508 8.87402 10.4687 9.12598C11.5194 9.36221 12.3731 9.64567 13.0134 9.96063C13.6537 10.2756 14.1463 10.685 14.4746 11.1732C14.803 11.6614 14.9672 12.2756 14.9672 13.0315C14.9672 14.3071 14.5075 15.2835 13.5716 15.9764C12.6358 16.6693 11.3388 17 9.69702 17C8.20299 17 6.97164 16.685 6.03582 16.0394C5.1 15.3937 4.41045 14.4803 4 13.252L5.87164 12.622C6.2 13.5354 6.69254 14.2283 7.33284 14.6693C7.97313 15.1102 8.79403 15.3307 9.79552 15.3307C10.797 15.3307 11.5851 15.1417 12.1433 14.7795C12.7015 14.4173 12.997 13.8819 12.997 13.189C12.997 12.7165 12.8821 12.3543 12.6358 12.0709C12.406 11.7874 12.0284 11.5512 11.5194 11.3622C11.0104 11.1732 10.206 10.937 9.13881 10.6693C8.05522 10.4016 7.18507 10.1024 6.52836 9.7874C5.87164 9.45669 5.39552 9.07874 5.08358 8.62205C4.77164 8.1811 4.62388 7.62992 4.62388 6.9685C4.62388 5.67717 5.08358 4.68504 5.98657 4.00787C6.88955 3.33071 8.15373 3 9.74627 3C10.6985 3 11.5358 3.15748 12.2746 3.48819C13.0134 3.80315 13.6045 4.22835 14.0642 4.74803C14.5239 5.26772 14.8358 5.83465 15 6.46457L13.1448 7.06299L13.1284 7.0315Z" fill="#575757"/>
<rect x="2" y="9" width="16" height="2" fill="#575757" stroke="white" stroke-width="0.6"/>
</svg>
